<svg width="20" height="20" viewBox="0 0 20 20" fill="none" xmlns="http://www.w3.org/2000/svg">
<g clip-path="url(#clip0_8596_29058)">
<path d="M19.4835 17.1636L15.6213 13.343C16.6772 11.7609 17.1741 9.87138 17.0332 7.97455C16.8922 6.07772 16.1215 4.28238 14.8434 2.87374C13.5653 1.4651 11.8531 0.523943 9.97886 0.199781C8.10463 -0.124381 6.17582 0.187043 4.49884 1.08458C2.82186 1.98212 1.49289 3.41429 0.723048 5.1536C-0.0467963 6.8929 -0.213363 8.83957 0.249809 10.6844C0.712981 12.5292 1.77933 14.1663 3.27945 15.3357C4.77957 16.5051 6.62744 17.1397 8.5295 17.1386C10.2175 17.1403 11.8673 16.6358 13.2657 15.6903L17.1362 19.5608C17.4481 19.8709 17.8701 20.0449 18.3099 20.0449C18.7497 20.0449 19.1716 19.8709 19.4835 19.5608C19.6446 19.4055 19.7728 19.2193 19.8603 19.0134C19.9479 18.8074 19.993 18.586 19.993 18.3622C19.993 18.1384 19.9479 17.9169 19.8603 17.711C19.7728 17.5051 19.6446 17.3189 19.4835 17.1636ZM8.5295 2.52214C9.72269 2.52214 10.8891 2.87586 11.8813 3.53859C12.8736 4.20133 13.647 5.14333 14.104 6.24554C14.561 7.34776 14.681 8.56071 14.4488 9.7311C14.2167 10.9015 13.6427 11.9768 12.7996 12.8211C11.9565 13.6654 10.882 14.2408 9.7119 14.4746C8.54183 14.7084 7.32872 14.59 6.22588 14.1346C5.12304 13.6791 4.17997 12.9069 3.51587 11.9156C2.85177 10.9243 2.49644 9.75836 2.49479 8.56517C2.49479 6.9639 3.13032 5.42809 4.26181 4.29504C5.3933 3.16199 6.92823 2.52434 8.5295 2.52214Z" fill="#0043C3"/>
</g>
<defs>
<clipPath id="clip0_8596_29058">
<rect width="20" height="20" fill="white"/>
</clipPath>
</defs>
</svg>
