<svg width="26" height="30" viewBox="0 0 26 30" fill="none" xmlns="http://www.w3.org/2000/svg">
<path d="M19.2644 15.7963C19.3944 14.9607 19.3572 14.0879 19.1437 13.2151C18.2709 9.71462 14.724 7.58834 11.2235 8.45185C10.36 8.67469 9.5708 9.05538 8.89299 9.56606L13.5448 12.3609L14.3897 15.7406L11.01 16.5856L6.35817 13.7815C6.22818 14.6264 6.25603 15.4992 6.46959 16.372C7.34239 19.8725 10.8893 21.9987 14.3897 21.1259C15.2625 20.9124 16.0425 20.5224 16.7203 20.0117L22.1985 23.2986L12.8113 28.7211L0.75 21.7573V7.82975L12.8113 0.865967L24.8726 7.82975V19.1668L19.2644 15.7963Z" stroke="#141921" stroke-width="1.5"/>
</svg>
