<svg width="34" height="24" viewBox="0 0 34 24" fill="none" xmlns="http://www.w3.org/2000/svg">
<g clip-path="url(#clip0_16447_1826)">
<path d="M33.9963 19.7105C33.9963 19.7105 28.8175 18.9432 26.081 18.7232C23.4529 18.5121 20.3387 18.3901 16.9978 18.3901C13.6568 18.3901 10.5426 18.5121 7.91528 18.7232C5.17798 18.9462 0 20.0108 0 20.0108V21.349C0 22.5385 7.61048 23.5049 16.9978 23.5049C26.385 23.5049 33.9955 22.5385 33.9955 21.349L33.9963 19.7105Z" fill="#F0D50C"/>
<path d="M11.7687 1.96118C5.56178 4.17278 1.41686 10.0495 1.4165 16.6387V18.8452C3.63147 18.316 5.88982 17.9886 8.16386 17.8668C8.1485 17.4436 8.14057 17.0171 8.14007 16.5874C8.1423 10.7976 9.53995 5.58763 11.7687 1.96118Z" fill="#F0D50C"/>
<path d="M32.5798 16.6398C32.5851 13.0243 31.3274 9.52045 29.0239 6.73364C30.0225 9.92302 30.5201 13.248 30.4989 16.59C30.4989 17.1981 30.4833 17.7993 30.4521 18.3936C31.1609 18.5027 31.8631 18.6516 32.5552 18.8396L32.5798 16.6398Z" fill="#FFF04D"/>
<path d="M32.5798 16.6398C32.5851 13.0243 31.3274 9.52045 29.0239 6.73364C30.0225 9.92302 30.5201 13.248 30.4989 16.59C30.4989 17.1981 30.4833 17.7993 30.4521 18.3936C31.1609 18.5027 31.8631 18.6516 32.5552 18.8396L32.5798 16.6398Z" fill="#FFEA00"/>
<path d="M29.0207 6.72903C24.847 1.6697 17.9535 -0.237007 11.7732 1.95845C9.5429 5.58489 8.146 10.7948 8.146 16.5854C8.146 17.0151 8.15393 17.4416 8.16979 17.8648C10.4893 17.6857 13.1745 17.5749 16.0501 17.5548C16.0501 17.5548 16.7036 17.5548 17.0002 17.5548C21.4982 17.5009 25.9939 17.7809 30.4503 18.3927C30.4806 17.7979 30.4962 17.1968 30.4972 16.5891C30.5183 13.2458 30.0202 9.91951 29.0207 6.72903Z" fill="#FFF04D"/>
<path d="M23.2574 7.76187L22.2702 1.59141C22.2 1.13743 21.8748 0.764406 21.4346 0.633129C18.5579 -0.211043 15.4993 -0.211043 12.6227 0.633129C12.1828 0.764647 11.8578 1.13762 11.7878 1.59141L10.7998 7.76187" fill="#FFF04D"/>
<path d="M17.003 17.425C16.7056 17.425 16.4105 17.425 16.1176 17.425H16.0849H16.0521C7.10647 17.4875 0.00449348 18.4272 0.00449348 19.5773V21.244C-0.00999974 21.3417 0.0108251 21.4414 0.0632243 21.5251C0.517558 21.1838 1.03979 20.944 1.59469 20.8218C3.00791 20.4779 4.4443 20.2374 5.89245 20.1021C6.71491 20.0119 7.53641 20.2801 8.14727 20.8381C9.26574 21.8621 10.7272 22.4299 12.2436 22.4298H21.7594C23.2758 22.4298 24.7372 21.862 25.8557 20.8381C26.4665 20.2794 27.2885 20.011 28.1113 20.1014C29.5592 20.2366 30.9953 20.4772 32.4083 20.821C32.9338 20.9221 33.4301 21.1392 33.861 21.4567C33.8855 21.4812 33.9138 21.5028 33.9353 21.5251C33.9881 21.4409 34.0092 21.3408 33.9948 21.2426V19.5758C34 18.39 26.3895 17.425 17.003 17.425Z" fill="#FFF04D"/>
<path d="M20.5848 12.4756L17 14.6821V17.548L20.5848 12.4756Z" fill="#6E6F70"/>
<path d="M17.0077 17.548V14.6821L13.4229 12.4756L17.0077 17.548Z" fill="#0A0A0A"/>
<path d="M13.4229 11.1681L17.0077 13.2408V5.37012L13.4229 11.1681Z" fill="#0A0A0A"/>
<path d="M20.5848 11.1689L17 5.37012V9.09544V13.2408L20.5848 11.1681V11.1689Z" fill="#6E6F70"/>
</g>
<defs>
<clipPath id="clip0_16447_1826">
<rect width="34" height="23.5078" fill="white"/>
</clipPath>
</defs>
</svg>
