<svg width="700" height="450" viewBox="0 0 700 450" fill="none" xmlns="http://www.w3.org/2000/svg">
<g clip-path="url(#clip0_3727_27355)">
<g clip-path="url(#clip1_3727_27355)">
<path style="mix-blend-mode:multiply" opacity="0.06" d="M486.645 311.396H314.262V399.056H486.645V311.396Z" fill="url(#paint0_linear_3727_27355)"/>
<path d="M468.968 299.163V310.435L314.261 399.056L313.426 398.569L164.706 313.422V302.138L313.426 304.1L468.968 299.163Z" fill="url(#paint1_linear_3727_27355)"/>
<path d="M468.968 299.163V310.435L314.262 399.056L313.427 398.569V304.1L468.968 299.163Z" fill="#F5F7FE"/>
<path d="M468.968 299.163V301.548L314.261 390.169L164.706 304.562V302.138L313.426 304.1L468.968 299.163Z" fill="#F5F7FE"/>
<path d="M468.955 299.163L314.249 387.771L164.706 302.164L319.413 213.543L468.955 299.163Z" fill="url(#paint2_linear_3727_27355)"/>
<path d="M468.968 281.544V292.816L314.261 381.437L313.426 380.949L164.706 295.803V284.519L313.426 286.481L468.968 281.544Z" fill="url(#paint3_linear_3727_27355)"/>
<path d="M468.968 281.544V292.816L314.262 381.437L313.427 380.949V286.481L468.968 281.544Z" fill="#F5F7FE"/>
<path d="M468.968 281.544V283.929L314.261 372.55L164.706 286.943V284.519L313.426 286.481L468.968 281.544Z" fill="#F5F7FE"/>
<path d="M468.955 281.544L314.249 370.152L164.706 284.545L319.413 195.923L468.955 281.544Z" fill="url(#paint4_linear_3727_27355)"/>
<path d="M468.968 263.925V275.197L314.261 363.818L313.426 363.33L164.706 278.184V266.9L313.426 268.862L468.968 263.925Z" fill="url(#paint5_linear_3727_27355)"/>
<path d="M468.968 263.925V275.197L314.262 363.818L313.427 363.33V268.862L468.968 263.925Z" fill="#F5F7FE"/>
<path d="M468.968 263.925V266.31L314.261 354.931L164.706 269.323V266.9L313.426 268.862L468.968 263.925Z" fill="#F5F7FE"/>
<path d="M468.955 263.925L314.249 352.533L164.706 266.926L319.413 178.304L468.955 263.925Z" fill="url(#paint6_linear_3727_27355)"/>
<path style="mix-blend-mode:multiply" opacity="0.21" d="M225.494 264.784L314.39 213.555C315.276 213.042 316.355 213.042 317.242 213.555L406.137 264.784C408.038 265.874 408.038 268.618 406.137 269.708L317.242 320.77C316.368 321.27 315.276 321.27 314.403 320.77L225.507 269.708C223.606 268.618 223.606 265.874 225.507 264.784H225.494Z" fill="url(#paint7_linear_3727_27355)"/>
<path style="mix-blend-mode:multiply" opacity="0.21" d="M225.289 264.784L314.185 213.555C315.071 213.042 316.15 213.042 317.037 213.555L405.932 264.784C407.833 265.874 407.833 268.618 405.932 269.708L317.037 217.941C316.163 218.441 315.071 218.441 314.198 217.941L225.302 269.708C223.401 268.618 223.401 265.874 225.302 264.784H225.289Z" fill="url(#paint8_linear_3727_27355)"/>
<path style="mix-blend-mode:multiply" opacity="0.06" d="M652.001 381.373H535.203V439H652.001V381.373Z" fill="url(#paint9_linear_3727_27355)"/>
<path d="M631.266 377.898V384.771L536.95 438.782L536.449 438.487L445.78 386.579V379.706L536.449 380.911L631.266 377.898Z" fill="url(#paint10_linear_3727_27355)"/>
<path d="M631.266 377.898V384.771L536.949 438.782L536.448 438.487V380.911L631.266 377.898Z" fill="#F5F7FE"/>
<path d="M631.266 377.898V379.347L536.95 433.371L445.78 381.193V379.706L536.449 380.911L631.266 377.898Z" fill="#F5F7FE"/>
<path d="M631.254 377.898L536.95 431.909L445.78 379.718L540.084 325.694L631.254 377.898Z" fill="url(#paint11_linear_3727_27355)"/>
<path d="M631.266 367.152V374.025L536.95 428.049L536.449 427.754L445.78 375.846V368.973L536.449 370.165L631.266 367.152Z" fill="url(#paint12_linear_3727_27355)"/>
<path d="M631.266 367.152V374.025L536.949 428.049L536.448 427.754V370.165L631.266 367.152Z" fill="#F5F7FE"/>
<path d="M631.266 367.152V368.601L536.95 422.625L445.78 370.447V368.973L536.449 370.165L631.266 367.152Z" fill="#F5F7FE"/>
<path d="M631.254 367.152L536.95 421.163L445.78 368.985L540.084 314.961L631.254 367.152Z" fill="url(#paint13_linear_3727_27355)"/>
<path d="M631.266 356.406V363.292L536.95 417.303L536.449 417.008L445.78 365.1V358.227L536.449 359.419L631.266 356.406Z" fill="url(#paint14_linear_3727_27355)"/>
<path d="M631.266 356.406V363.292L536.949 417.303L536.448 417.008V359.419L631.266 356.406Z" fill="#F5F7FE"/>
<path d="M631.266 356.406V357.868L536.95 411.892L445.78 359.701V358.227L536.449 359.419L631.266 356.406Z" fill="#F5F7FE"/>
<path d="M631.254 356.406L536.95 410.43L445.78 358.24L540.084 304.215L631.254 356.406Z" fill="url(#paint15_linear_3727_27355)"/>
<path opacity="0.6" d="M537.271 383.553C560.358 383.553 579.073 373.092 579.073 360.189C579.073 347.285 560.358 336.825 537.271 336.825C514.185 336.825 495.47 347.285 495.47 360.189C495.47 373.092 514.185 383.553 537.271 383.553Z" fill="#B5BDEA"/>
<path d="M495.47 354.059V359.253C495.47 372.153 514.187 382.616 537.271 382.616C560.356 382.616 579.073 372.153 579.073 359.253V354.059H495.457H495.47Z" fill="url(#paint16_linear_3727_27355)"/>
<path d="M537.271 377.423C560.358 377.423 579.073 366.963 579.073 354.059C579.073 341.156 560.358 330.695 537.271 330.695C514.185 330.695 495.47 341.156 495.47 354.059C495.47 366.963 514.185 377.423 537.271 377.423Z" fill="url(#paint17_linear_3727_27355)"/>
<path opacity="0.5" d="M537.271 331.298C556.566 331.298 572.354 339.71 573.523 350.328C573.575 349.904 573.6 349.494 573.6 349.058C573.6 337.851 557.337 328.759 537.271 328.759C517.206 328.759 500.942 337.851 500.942 349.058C500.942 349.481 500.968 349.904 501.019 350.328C502.188 339.71 517.964 331.298 537.271 331.298Z" fill="url(#paint18_linear_3727_27355)"/>
<path style="mix-blend-mode:multiply" opacity="0.1" d="M575.052 349.366C575.052 349.366 571.262 374.358 537.31 373.55C502.124 372.717 499.491 349.674 499.491 349.674L476.933 248.793L597.623 248.486L575.065 349.366H575.052Z" fill="url(#paint19_linear_3727_27355)"/>
<path d="M542.834 273.786L537.875 311.05L505.259 325.194L531.799 347.314C532.531 347.93 533.52 348.071 534.381 347.699L564.338 334.76C565.148 334.414 565.713 333.632 565.841 332.709L570.35 298.496C570.479 297.509 570.106 296.509 569.374 295.893L542.834 273.773V273.786Z" fill="url(#paint20_linear_3727_27355)"/>
<path style="mix-blend-mode:overlay" d="M565.648 334.209L570.35 298.509C570.479 297.522 570.106 296.521 569.374 295.906L542.834 273.786L537.875 311.05L565.648 334.209Z" fill="url(#paint21_linear_3727_27355)"/>
<g style="mix-blend-mode:overlay">
<path d="M505.284 324.502L510.038 288.417C510.089 288.058 510.307 287.75 510.616 287.622L542.217 273.978C542.898 273.683 543.605 274.286 543.502 275.055L538.697 311.101C538.646 311.46 538.428 311.755 538.119 311.896L506.569 325.579C505.888 325.874 505.182 325.271 505.284 324.502Z" fill="white"/>
</g>
<path d="M504.938 324.207L509.691 288.122C509.742 287.763 509.961 287.455 510.269 287.327L541.871 273.683C542.551 273.388 543.258 273.991 543.155 274.76L538.351 310.807C538.299 311.166 538.081 311.46 537.773 311.602L506.222 325.284C505.542 325.579 504.835 324.976 504.938 324.207Z" fill="url(#paint22_linear_3727_27355)"/>
<path style="mix-blend-mode:overlay" d="M504.938 324.207L509.691 288.122C509.742 287.763 509.961 287.455 510.269 287.327L541.871 273.683C542.551 273.388 543.258 273.991 543.155 274.76L538.351 310.807C538.299 311.166 538.081 311.46 537.773 311.602L506.222 325.284C505.542 325.579 504.835 324.976 504.938 324.207Z" fill="url(#paint23_linear_3727_27355)"/>
<path d="M558.146 297.24L553.393 293.316L551.646 291.867L550.516 293.187L547.42 296.778L546.276 298.099L546.893 300.856L548.55 308.37L549.167 311.14L550.914 312.576L555.667 316.513L557.414 317.949L558.544 316.641L561.64 313.051L562.784 311.73L562.167 308.96L560.51 301.446L559.906 298.689L558.159 297.24H558.146ZM558.056 302.869L559.033 307.306L559.392 308.934L558.724 309.717L556.9 311.832L556.232 312.602L555.204 311.755L552.391 309.434L551.363 308.588L551.004 306.96L550.027 302.523L549.668 300.894L550.336 300.112L552.16 297.996L552.828 297.214L553.856 298.073L556.656 300.394L557.684 301.253L558.043 302.882L558.056 302.869Z" fill="url(#paint24_linear_3727_27355)"/>
<path opacity="0.06" d="M539.185 322.886L519.351 331.452C519.107 331.554 518.708 331.478 518.464 331.272L518.297 331.131C518.053 330.926 518.053 330.67 518.297 330.567L538.132 322.001C538.376 321.899 538.774 321.976 539.018 322.181L539.185 322.322C539.429 322.527 539.429 322.783 539.185 322.886Z" fill="#365DD7"/>
<path opacity="0.06" d="M527.02 325.451L517.232 329.669C516.987 329.772 516.589 329.695 516.345 329.49L516.178 329.349C515.934 329.144 515.934 328.887 516.178 328.785L525.967 324.566C526.211 324.463 526.609 324.54 526.853 324.745L527.02 324.886C527.264 325.092 527.264 325.348 527.02 325.451Z" fill="#365DD7"/>
<path opacity="0.06" d="M542.744 334.773L529.937 340.3C529.693 340.402 529.294 340.326 529.05 340.12L528.883 339.979C528.639 339.774 528.639 339.518 528.883 339.415L541.691 333.888C541.935 333.786 542.333 333.863 542.577 334.068L542.744 334.209C542.988 334.414 542.988 334.67 542.744 334.773Z" fill="#365DD7"/>
<path opacity="0.06" d="M540.843 338.287L532.056 342.082C531.812 342.185 531.413 342.108 531.169 341.903L531.002 341.762C530.758 341.557 530.758 341.3 531.002 341.197L539.789 337.402C540.033 337.299 540.431 337.376 540.676 337.581L540.843 337.722C541.087 337.928 541.087 338.184 540.843 338.287Z" fill="#365DD7"/>
<path opacity="0.06" d="M541.318 324.091L541.151 323.95C540.907 323.745 540.509 323.668 540.265 323.771L520.43 332.337C520.186 332.439 520.173 332.696 520.43 332.901L520.597 333.042C520.841 333.247 521.239 333.324 521.483 333.221L541.318 324.656C541.562 324.553 541.575 324.297 541.318 324.091Z" fill="#365DD7"/>
<path opacity="0.06" d="M543.438 325.861L543.271 325.72C543.027 325.515 542.629 325.438 542.385 325.54L522.55 334.106C522.306 334.209 522.293 334.465 522.55 334.67L522.717 334.812C522.961 335.017 523.36 335.094 523.604 334.991L543.438 326.425C543.682 326.323 543.695 326.066 543.438 325.861Z" fill="#365DD7"/>
<path opacity="0.06" d="M545.557 327.631L545.39 327.489C545.146 327.284 544.748 327.207 544.504 327.31L524.669 335.876C524.425 335.978 524.412 336.235 524.669 336.44L524.836 336.581C525.08 336.786 525.479 336.863 525.723 336.761L545.557 328.195C545.801 328.092 545.814 327.836 545.557 327.631Z" fill="#365DD7"/>
<path opacity="0.06" d="M543.245 331.324L543.078 331.183C542.834 330.977 542.436 330.9 542.192 331.003L526.789 337.658C526.545 337.761 526.533 338.017 526.789 338.223L526.956 338.364C527.201 338.569 527.599 338.646 527.843 338.543L543.245 331.888C543.49 331.785 543.502 331.529 543.245 331.324Z" fill="#365DD7"/>
<path d="M557.324 254.487L564.723 271.824L554.279 286.237L571.39 289.007C571.866 289.084 572.328 288.892 572.611 288.52L582.22 275.299C582.477 274.94 582.528 274.466 582.335 274.03L575.527 258.129C575.334 257.667 574.91 257.334 574.435 257.257L557.337 254.487H557.324Z" fill="url(#paint25_linear_3727_27355)"/>
<path style="mix-blend-mode:overlay" d="M582.618 274.722L575.514 258.129C575.322 257.667 574.898 257.334 574.422 257.257L557.324 254.487L564.724 271.824L582.631 274.722H582.618Z" fill="url(#paint26_linear_3727_27355)"/>
<g style="mix-blend-mode:overlay">
<path d="M554.113 285.93L546.932 269.157C546.854 268.99 546.88 268.798 546.983 268.669L557.119 254.731C557.337 254.436 557.799 254.513 557.954 254.872L565.109 271.644C565.186 271.811 565.16 271.991 565.058 272.132L554.948 286.071C554.729 286.366 554.267 286.289 554.113 285.93Z" fill="white"/>
</g>
<path d="M553.881 285.891L546.7 269.118C546.623 268.952 546.649 268.759 546.751 268.631L556.887 254.692C557.105 254.397 557.568 254.474 557.722 254.833L564.877 271.606C564.955 271.773 564.929 271.952 564.826 272.093L554.716 286.032C554.498 286.327 554.035 286.25 553.881 285.891Z" fill="url(#paint27_linear_3727_27355)"/>
<path style="mix-blend-mode:overlay" d="M553.881 285.891L546.7 269.118C546.623 268.952 546.649 268.759 546.751 268.631L556.887 254.692C557.105 254.397 557.568 254.474 557.722 254.833L564.877 271.606C564.955 271.773 564.929 271.952 564.826 272.093L554.716 286.032C554.498 286.327 554.035 286.25 553.881 285.891Z" fill="url(#paint28_linear_3727_27355)"/>
<path d="M569.926 260.693L566.868 260.206L565.751 260.027L565.596 260.886L565.185 263.22L565.031 264.079L565.995 265.117L568.628 267.939L569.604 268.977L570.722 269.157L573.78 269.644L574.897 269.824L575.051 268.964L575.462 266.631L575.616 265.771L574.64 264.733L572.007 261.912L571.043 260.873L569.926 260.693ZM571.326 263.143L572.88 264.81L573.458 265.425L573.368 265.938L573.124 267.323L573.034 267.823L572.379 267.721L570.568 267.438L569.9 267.336L569.322 266.72L567.767 265.053L567.189 264.438L567.279 263.925L567.523 262.54L567.613 262.027L568.281 262.13L570.08 262.412L570.748 262.514L571.326 263.13V263.143Z" fill="url(#paint29_linear_3727_27355)"/>
<path opacity="0.06" d="M568.307 276.581L561.948 285.327C561.871 285.442 561.678 285.506 561.524 285.481H561.408C561.254 285.442 561.19 285.327 561.267 285.224L567.626 276.479C567.703 276.363 567.896 276.299 568.05 276.325H568.165C568.32 276.363 568.384 276.479 568.307 276.581Z" fill="#365DD7"/>
<path opacity="0.06" d="M563.721 280.8L560.587 285.122C560.509 285.237 560.317 285.301 560.163 285.275H560.047C559.893 285.237 559.829 285.122 559.906 285.019L563.04 280.698C563.117 280.582 563.31 280.518 563.464 280.544H563.58C563.734 280.582 563.798 280.698 563.721 280.8Z" fill="#365DD7"/>
<path opacity="0.06" d="M572.894 280.813L568.783 286.455C568.706 286.571 568.513 286.635 568.359 286.609H568.243C568.089 286.571 568.025 286.455 568.102 286.353L572.213 280.71C572.29 280.595 572.483 280.531 572.637 280.557H572.752C572.906 280.595 572.971 280.71 572.894 280.813Z" fill="#365DD7"/>
<path opacity="0.06" d="M572.97 282.801L570.157 286.673C570.08 286.789 569.887 286.853 569.733 286.827H569.617C569.463 286.789 569.399 286.673 569.476 286.571L572.289 282.698C572.366 282.583 572.559 282.518 572.713 282.544H572.829C572.983 282.583 573.047 282.698 572.97 282.801Z" fill="#365DD7"/>
<path opacity="0.06" d="M569.54 276.569H569.425C569.271 276.53 569.078 276.594 569.001 276.697L562.642 285.442C562.565 285.558 562.629 285.66 562.783 285.686H562.899C563.053 285.724 563.246 285.66 563.323 285.558L569.682 276.812C569.759 276.697 569.695 276.594 569.54 276.569Z" fill="#365DD7"/>
<path opacity="0.06" d="M570.902 276.786H570.786C570.632 276.748 570.439 276.812 570.362 276.915L564.003 285.66C563.926 285.776 563.991 285.878 564.145 285.904H564.26C564.414 285.942 564.607 285.878 564.684 285.776L571.043 277.03C571.12 276.915 571.056 276.812 570.902 276.786Z" fill="#365DD7"/>
<path opacity="0.06" d="M572.277 277.017H572.161C572.007 276.979 571.814 277.043 571.737 277.146L565.378 285.891C565.301 286.006 565.366 286.109 565.52 286.135H565.635C565.789 286.173 565.982 286.109 566.059 286.006L572.418 277.261C572.495 277.146 572.431 277.043 572.277 277.017Z" fill="#365DD7"/>
<path opacity="0.06" d="M572.212 279.184H572.097C571.943 279.146 571.75 279.21 571.673 279.313L566.727 286.109C566.65 286.224 566.714 286.327 566.868 286.353H566.984C567.138 286.391 567.331 286.327 567.408 286.224L572.354 279.428C572.431 279.313 572.366 279.21 572.212 279.184Z" fill="#365DD7"/>
<path opacity="0.5" d="M406.639 151.85V53.9193L541.138 132.962V231.174L406.639 151.85Z" fill="url(#paint30_linear_3727_27355)"/>
<path opacity="0.5" d="M406.639 151.85V53.9193L541.138 132.962V231.174L406.639 151.85Z" fill="url(#paint31_linear_3727_27355)"/>
<g opacity="0.5">
<path d="M393.253 158.775V60.8439L527.765 139.886V238.099L393.253 158.775Z" fill="url(#paint32_linear_3727_27355)"/>
</g>
<g style="mix-blend-mode:multiply" opacity="0.21">
<path d="M393.253 158.775V60.8439L527.765 139.886V238.099L393.253 158.775Z" fill="url(#paint33_linear_3727_27355)"/>
</g>
<path opacity="0.5" d="M393.253 60.8439V62.0108L526.532 140.322V237.368L527.765 238.099V139.886L393.253 60.8439Z" fill="white"/>
<path d="M380.817 165.122V67.1913L515.33 146.233V244.434L380.817 165.122Z" fill="#375BD2"/>
<path d="M379.88 165.699V67.7683L514.392 146.811V245.023L379.88 165.699Z" fill="url(#paint34_linear_3727_27355)"/>
<path opacity="0.5" d="M379.88 165.699V67.7683L514.392 146.811V245.023L379.88 165.699Z" fill="white"/>
<path opacity="0.9" d="M383.939 84.8873L510.32 159.159" stroke="#5576DE" stroke-width="0.25" stroke-miterlimit="10"/>
<g opacity="0.6">
<path opacity="0.06" d="M497.692 175.291L390.85 113.714C389.9 113.163 389.129 111.688 389.129 110.418C389.129 109.149 389.9 108.572 390.85 109.11L497.692 170.687C498.643 171.239 499.413 172.713 499.413 173.983C499.413 175.252 498.643 175.83 497.692 175.291Z" fill="#365DD7"/>
<path opacity="0.06" d="M444.226 135.231L390.838 104.468C389.887 103.917 389.116 102.442 389.116 101.173C389.116 99.9033 389.887 99.3263 390.838 99.8649L444.226 130.628C445.177 131.179 445.948 132.654 445.948 133.923C445.948 135.193 445.177 135.77 444.226 135.231Z" fill="#365DD7"/>
<path opacity="0.06" d="M460.271 199.976L390.85 159.967C389.9 159.416 389.129 157.941 389.129 156.672C389.129 155.402 389.9 154.825 390.85 155.364L460.271 195.372C461.222 195.923 461.992 197.398 461.992 198.668C461.992 199.937 461.222 200.514 460.271 199.976Z" fill="#365DD7"/>
<path opacity="0.06" d="M499.413 183.241C499.413 181.972 498.643 180.497 497.692 179.946L390.85 118.369C389.9 117.817 389.129 118.407 389.129 119.677C389.129 120.946 389.9 122.421 390.85 122.972L497.692 184.549C498.643 185.101 499.413 184.511 499.413 183.241Z" fill="#365DD7"/>
<path opacity="0.06" d="M499.413 192.487C499.413 191.217 498.643 189.743 497.692 189.191L390.85 127.614C389.9 127.063 389.129 127.653 389.129 128.922C389.129 130.192 389.9 131.666 390.85 132.218L497.692 193.795C498.643 194.346 499.413 193.756 499.413 192.487Z" fill="#365DD7"/>
<path opacity="0.06" d="M499.413 201.732C499.413 200.463 498.643 198.988 497.692 198.437L390.85 136.86C389.9 136.308 389.129 136.898 389.129 138.168C389.129 139.437 389.9 140.912 390.85 141.463L497.692 203.04C498.643 203.592 499.413 203.002 499.413 201.732Z" fill="#365DD7"/>
<path opacity="0.06" d="M475.854 197.411C475.854 196.141 475.083 194.667 474.132 194.115L390.85 146.118C389.9 145.567 389.129 146.157 389.129 147.426C389.129 148.696 389.9 150.17 390.85 150.722L474.132 198.719C475.083 199.27 475.854 198.68 475.854 197.411Z" fill="#365DD7"/>
</g>
<path d="M386.436 80.5526C387.049 80.1952 387.043 79.048 386.424 77.9902C385.804 76.9325 384.806 76.3648 384.193 76.7222C383.581 77.0796 383.586 78.2268 384.206 79.2846C384.825 80.3423 385.824 80.91 386.436 80.5526Z" fill="url(#paint35_linear_3727_27355)"/>
<path d="M392.191 83.8563C392.804 83.4989 392.798 82.3517 392.179 81.294C391.559 80.2362 390.56 79.6685 389.948 80.0259C389.335 80.3834 389.341 81.5305 389.96 82.5883C390.58 83.646 391.579 84.2137 392.191 83.8563Z" fill="url(#paint36_linear_3727_27355)"/>
<path d="M397.941 87.1776C398.554 86.8202 398.548 85.673 397.929 84.6152C397.309 83.5575 396.31 82.9898 395.698 83.3472C395.085 83.7046 395.091 84.8518 395.71 85.9096C396.33 86.9673 397.329 87.535 397.941 87.1776Z" fill="url(#paint37_linear_3727_27355)"/>
<path d="M410.826 138.219L427.385 138.052V143.554L415.99 143.387L427.385 156.351V161.942L410.826 142.733V138.206V138.219Z" fill="url(#paint38_linear_3727_27355)"/>
<path d="M435.825 166.815L432.421 164.853L442.479 146.644L445.922 148.632L435.838 166.828L435.825 166.815Z" fill="url(#paint39_linear_3727_27355)"/>
<path d="M467.504 175.368L450.945 175.535V170.033L462.34 170.2L450.945 157.223V151.632L467.504 170.893V175.368Z" fill="url(#paint40_linear_3727_27355)"/>
<path opacity="0.2" d="M322.778 310.229H405.456V239.971H332.554L322.778 310.229Z" fill="url(#paint41_linear_3727_27355)"/>
<path d="M241.757 262.617L294.979 231.598V141.425L241.757 172.47V262.617Z" fill="#D7E5FF"/>
<path d="M253.602 269.426L305.975 239.24C306.515 238.932 306.836 238.368 306.836 237.753V148.247L253.602 179.292V269.439V269.426Z" fill="#D7E5FF"/>
<path d="M294.465 142.079L242.566 171.995C242.656 172.483 243.273 173.688 246.639 175.624C250.004 177.561 252.098 177.92 252.933 177.971L304.832 148.054C305.397 147.734 306.181 147.657 306.579 147.901C306.99 148.131 306.862 148.593 306.309 148.914L253.588 179.292C253.588 179.292 250.698 180.305 244.596 176.791C238.494 173.278 240.254 171.611 240.254 171.611L292.975 141.232C293.54 140.912 294.324 140.835 294.722 141.079C295.133 141.309 295.005 141.771 294.452 142.092L294.465 142.079Z" fill="#CFD8F4"/>
<path d="M246.639 175.611C250.005 177.548 252.098 177.907 252.933 177.958L303.817 148.631C300.015 144.323 293.45 142.656 293.45 142.656L242.554 171.982C242.644 172.47 243.26 173.675 246.626 175.611H246.639Z" fill="white"/>
<path d="M240.036 172.303C240.036 173.098 240.768 174.573 244.609 176.791C250.711 180.305 253.602 179.292 253.602 179.292V269.439C253.602 269.439 250.711 270.452 244.609 266.938C240.923 264.81 240.113 263.373 240.036 262.553V172.316V172.303Z" fill="#E9EDFA"/>
<path d="M253.602 189.82C253.602 189.82 250.711 190.833 244.609 187.319C240.768 185.101 240.049 183.626 240.036 182.831V179.971C240.036 180.766 240.768 182.241 244.609 184.459C250.711 187.973 253.602 186.96 253.602 186.96V189.82Z" fill="#CFD8F4"/>
<path d="M255.322 270.157L308.544 239.15V148.978L255.322 180.023V270.157Z" fill="#E9EDFA"/>
<path d="M267.167 276.979L319.541 246.793C320.08 246.485 320.402 245.921 320.402 245.306V155.8L267.167 186.845V276.992V276.979Z" fill="#E9EDFA"/>
<path d="M294.491 194.131L301.685 194.719V204.241L294.544 213.143L287.351 212.556V203.034L294.491 194.131ZM294.491 187.133L291.852 190.415L284.685 199.333L282.046 202.615V206.113V215.635V219.133L284.685 219.352L291.878 219.931L294.518 220.15L297.157 216.876L304.39 207.92L307.029 204.638V201.14V191.618V188.121L304.39 187.902L297.131 187.351L294.491 187.133Z" fill="#375BD2"/>
<path d="M308.03 149.632L256.132 179.548C256.222 180.035 256.838 181.241 260.204 183.177C263.57 185.113 265.664 185.473 266.499 185.524L318.397 155.607C318.963 155.287 319.746 155.21 320.144 155.453C320.555 155.684 320.427 156.146 319.875 156.466L267.154 186.845C267.154 186.845 264.263 187.858 258.162 184.344C252.06 180.831 253.82 179.163 253.82 179.163L306.54 148.785C307.105 148.465 307.889 148.388 308.287 148.631C308.698 148.862 308.57 149.324 308.018 149.644L308.03 149.632Z" fill="#E9EDFA"/>
<path d="M260.204 183.164C263.57 185.101 265.664 185.46 266.499 185.511L317.383 156.184C313.58 151.876 307.016 150.209 307.016 150.209L256.119 179.535C256.209 180.023 256.826 181.228 260.191 183.164H260.204Z" fill="white"/>
<path d="M253.602 179.856C253.602 180.651 254.334 182.126 258.175 184.344C264.277 187.858 267.167 186.845 267.167 186.845V276.992C267.167 276.992 264.277 278.005 258.175 274.491C254.488 272.363 253.679 270.926 253.602 270.106V179.869V179.856Z" fill="url(#paint42_linear_3727_27355)"/>
<path d="M267.167 197.372C267.167 197.372 264.277 198.385 258.175 194.872C254.334 192.654 253.614 191.179 253.602 190.384V187.524C253.602 188.319 254.334 189.794 258.175 192.012C264.277 195.526 267.167 194.513 267.167 194.513V197.372ZM267.167 199.501C267.167 199.501 264.277 200.514 258.175 197.001C254.334 194.782 253.614 193.307 253.602 192.512V195.372C253.602 196.167 254.334 197.642 258.175 199.86C264.277 203.374 267.167 202.361 267.167 202.361V199.501ZM267.167 261.655C267.167 261.655 264.277 262.668 258.175 259.155C254.334 256.936 253.614 255.462 253.602 254.667V257.526C253.602 258.321 254.334 259.796 258.175 262.014C264.277 265.528 267.167 264.515 267.167 264.515V261.655ZM267.167 266.643C267.167 266.643 264.277 267.656 258.175 264.143C254.334 261.924 253.614 260.45 253.602 259.655V262.514C253.602 263.309 254.334 264.784 258.175 267.002C264.277 270.516 267.167 269.503 267.167 269.503V266.643Z" fill="#E9EDFA"/>
<path d="M274.656 274.042L335.316 238.856C335.316 242.433 337.821 246.767 340.93 248.563L280.27 283.75C277.161 281.954 274.643 277.607 274.656 274.042Z" fill="url(#paint43_linear_3727_27355)"/>
<path d="M274.656 267.515L335.316 232.316V238.843L274.656 274.042V267.515Z" fill="url(#paint44_linear_3727_27355)"/>
<path d="M276.301 263.912L336.96 228.725C335.946 229.315 335.316 230.559 335.303 232.328L274.644 267.515C274.644 265.746 275.286 264.502 276.301 263.912Z" fill="url(#paint45_linear_3727_27355)"/>
<path d="M336.447 225.853C316.227 237.586 296.007 249.319 275.787 261.04C275.466 261.129 275.158 261.258 274.875 261.424L335.535 226.237C335.817 226.071 336.126 225.943 336.447 225.853Z" fill="#E9EDFA"/>
<path d="M280.271 283.75L340.93 248.563L382.963 272.773L322.29 307.973L280.271 283.75Z" fill="url(#paint46_linear_3727_27355)"/>
<path d="M280.321 264.297L340.994 229.11L380.637 251.961L319.977 287.161L280.321 264.297Z" fill="#F0E6DE"/>
<path d="M322.816 286.673L380.457 253.141V272.593L322.816 306.126V286.673Z" fill="white"/>
<path d="M280.334 261.963L340.994 226.763L383.014 250.986L322.354 286.173L280.334 261.963Z" fill="url(#paint47_linear_3727_27355)"/>
<path d="M336.447 225.853C337.719 225.507 339.299 225.789 340.994 226.763L280.335 261.95C278.639 260.963 277.059 260.693 275.787 261.04C285.743 255.269 333.569 227.52 334.687 226.879C335.214 226.571 335.894 226.084 336.46 225.853H336.447Z" fill="#E9EDFA"/>
<path d="M383.669 275.184L323.009 310.371C323.189 310.268 323.305 310.037 323.305 309.717C323.305 309.063 322.855 308.28 322.29 307.96L382.95 272.773C383.502 273.093 383.965 273.889 383.965 274.53C383.965 274.85 383.849 275.068 383.669 275.184Z" fill="#CFD8F4"/>
<path d="M322.817 286.673V306.126L283.135 283.275C280.027 281.48 277.509 277.133 277.522 273.568V267.041C277.522 263.463 280.078 262.04 283.187 263.835L322.804 286.686L322.817 286.673Z" fill="#EFF3F9"/>
<path d="M383.734 253.397L323.074 288.584C323.254 288.481 323.369 288.251 323.369 287.93C323.369 287.289 322.92 286.494 322.354 286.173L383.014 250.986C383.567 251.307 384.029 252.102 384.029 252.743C384.029 253.064 383.913 253.294 383.734 253.397Z" fill="#CFD8F4"/>
<path d="M277.662 248.909L334.224 216.133C334.224 219.505 336.588 223.622 339.529 225.314L282.968 258.09C280.026 256.398 277.649 252.281 277.662 248.909Z" fill="url(#paint48_linear_3727_27355)"/>
<path d="M277.662 247.896L334.211 215.12V216.133L277.662 248.909V247.896Z" fill="url(#paint49_linear_3727_27355)"/>
<path d="M279.217 244.485L335.778 211.709C334.828 212.26 334.224 213.44 334.224 215.12L277.662 247.896C277.662 246.216 278.266 245.036 279.217 244.485Z" fill="url(#paint50_linear_3727_27355)"/>
<path d="M334.405 209.375C334.674 209.221 334.97 209.093 335.278 209.016C319.375 218.249 294.633 232.559 278.729 241.792C278.421 241.869 278.113 241.997 277.843 242.151C292.153 233.842 320.094 217.697 334.405 209.375Z" fill="#E9EDFA"/>
<path d="M335.277 209.016C319.374 218.249 294.632 232.559 278.729 241.792C294.619 232.572 319.374 218.249 335.277 209.016Z" fill="#C2D5FF"/>
<path d="M282.968 258.09L339.517 225.314L379.186 248.178L322.624 280.954L282.968 258.09Z" fill="url(#paint51_linear_3727_27355)"/>
<path d="M283.007 244.857L339.556 212.081L376.99 233.649L320.428 266.425L283.007 244.857Z" fill="#F5EFEB"/>
<path d="M322.778 266.425L376.732 235.342V248.575L322.778 279.659V266.425Z" fill="white"/>
<path d="M283.007 242.664L339.569 209.888L379.238 232.739L322.676 265.515L283.007 242.664Z" fill="url(#paint52_linear_3727_27355)"/>
<path d="M355.087 239.15L324.603 221.583L330.473 218.21L360.957 235.765L355.087 239.15Z" fill="#CFD8F4"/>
<path d="M335.316 240.394L321.43 232.393L324.102 230.854L337.988 238.856L335.316 240.394Z" fill="#CFD8F4"/>
<path d="M335.277 209.016C336.472 208.708 337.962 208.965 339.568 209.875L283.006 242.651C281.413 241.728 279.923 241.471 278.729 241.792C286.385 237.342 331.95 210.952 332.4 210.696C333.261 210.196 334.353 209.401 335.277 209.029V209.016Z" fill="url(#paint53_linear_3727_27355)"/>
<path d="M379.866 250.435L323.305 283.211C323.472 283.108 323.587 282.903 323.587 282.595C323.587 281.98 323.163 281.249 322.637 280.941L379.198 248.165C379.725 248.473 380.162 249.204 380.149 249.819C380.149 250.114 380.046 250.332 379.866 250.435Z" fill="#CFD8F4"/>
<path d="M322.779 266.425V279.659L285.332 258.09C282.39 256.398 280.014 252.281 280.026 248.909V247.896C280.026 244.523 282.429 243.164 285.37 244.857L322.779 266.425Z" fill="#EFF3F9"/>
<path d="M322.675 265.515C323.202 265.823 323.639 266.566 323.626 267.169C323.626 267.785 323.189 268.015 322.663 267.721L282.994 244.857C280.052 243.164 277.662 244.523 277.65 247.896V248.909C277.65 252.281 280.013 256.398 282.955 258.09L322.624 280.954C323.151 281.262 323.588 281.993 323.575 282.608C323.575 283.211 323.138 283.455 322.611 283.16L282.942 260.296C278.934 257.988 275.71 252.397 275.723 247.806V246.793C275.736 242.202 278.986 240.356 282.994 242.664L322.663 265.528L322.675 265.515Z" fill="#CFD8F4"/>
<path d="M379.906 235.009L323.344 267.785C323.511 267.682 323.626 267.477 323.626 267.169C323.626 266.566 323.202 265.823 322.676 265.515L379.238 232.739C379.764 233.047 380.201 233.79 380.188 234.393C380.188 234.701 380.085 234.906 379.906 235.009Z" fill="#CFD8F4"/>
<path d="M322.418 286.135C322.971 286.455 323.433 287.25 323.433 287.879C323.433 288.533 322.971 288.789 322.418 288.469L280.45 264.284C277.341 262.489 274.797 263.925 274.784 267.49V274.004C274.784 277.569 277.277 281.916 280.398 283.698L322.367 307.883C322.919 308.203 323.382 308.998 323.382 309.64C323.382 310.281 322.919 310.537 322.367 310.217L280.398 286.032C276.159 283.596 272.755 277.684 272.768 272.824V266.31C272.78 261.45 276.236 259.488 280.462 261.937L322.431 286.122L322.418 286.135Z" fill="#CFD8F4"/>
<path d="M286.385 272.132C286.385 272.132 283.353 273.696 283.006 276.248C282.646 278.813 282.646 280.518 282.646 280.518L286.385 282.672C286.385 282.672 286.166 277.53 287.13 276.248C288.093 274.966 290.123 274.03 290.123 274.03L286.385 272.132Z" fill="#375BD2"/>
<path d="M360.674 278.069C360.674 278.069 363.705 279.633 364.052 282.185C364.412 284.75 364.412 286.455 364.412 286.455L360.674 288.61C360.674 288.61 360.892 283.467 359.929 282.185C358.965 280.903 356.936 279.967 356.936 279.967L360.674 278.069Z" fill="#375BD2"/>
<path d="M306.72 261.424C306.72 261.424 303.688 262.989 303.341 265.541C302.994 268.092 302.981 269.811 302.981 269.811L306.72 271.965C306.72 271.965 306.501 266.823 307.465 265.541C308.428 264.258 310.458 263.322 310.458 263.322L306.72 261.424Z" fill="#375BD2"/>
<path opacity="0.2" d="M143.022 426.665H259.601V328.554H128.416L143.022 426.665Z" fill="url(#paint54_linear_3727_27355)"/>
<path d="M206.867 388.682L118.807 337.774C119.732 337.235 120.502 335.928 120.489 334.863L208.55 385.771C208.55 386.836 207.792 388.156 206.867 388.682Z" fill="#CFD8F4"/>
<path d="M119.976 323.835C120.284 324.015 120.464 324.387 120.477 324.912V334.85L208.55 385.759L208.768 374.743L119.976 323.835Z" fill="#CFD8F4"/>
<path d="M143.099 425.434L55.0254 374.525L118.807 337.774L206.867 388.682L143.099 425.434Z" fill="#E9EDFA"/>
<path d="M143.035 423.42H139.605L55.0254 374.525L118.807 337.774L170.256 381.668L143.035 423.42Z" fill="#CFD8F4"/>
<path d="M58.1475 360.112L143.061 409.045V423.395L58.1475 374.448V360.112Z" fill="#EFF3F9"/>
<path d="M206.495 384.887V374.949C206.482 374.423 206.289 374.038 205.981 373.871L143.061 409.045V423.395L204.825 387.797C205.75 387.246 206.495 385.951 206.495 384.887Z" fill="white"/>
<path d="M143.099 426.665L55.0382 375.769L55.0254 374.525L143.099 425.434V426.665Z" fill="#CFD8F4"/>
<path d="M120.747 322.527C120.246 322.232 119.539 322.271 118.781 322.72L55 359.471L143.061 410.379L208.807 373.435L120.747 322.527Z" fill="url(#paint55_linear_3727_27355)"/>
<path d="M206.829 373.615C208.358 372.73 209.604 373.448 209.604 375.192V385.13C209.629 386.887 208.383 389.028 206.855 389.9L143.086 426.652V425.421L206.855 388.669C207.78 388.131 208.55 386.823 208.538 385.759V375.821C208.512 374.756 207.754 374.32 206.829 374.859L143.061 411.61V410.379L206.829 373.628V373.615Z" fill="#E9EDFA"/>
<path d="M143.061 411.61L55 360.702V359.471L143.061 410.379V411.61Z" fill="#CFD8F4"/>
<path d="M57.3633 358.112L135.558 403.172H143.304L128.698 384.604L91.3928 338.505L57.3633 358.112Z" fill="#CFD8F4"/>
<path d="M198.479 386.605C198.479 386.605 201.434 388.131 201.781 390.631C202.128 393.132 202.128 394.799 202.128 394.799L198.479 396.902C198.479 396.902 198.685 391.875 197.747 390.631C196.809 389.387 194.831 388.464 194.831 388.464L198.479 386.605Z" fill="#375BD2"/>
<path d="M126.001 323.861L68.0777 357.24C67.5381 357.547 67.05 357.573 66.7031 357.368L143.061 401.544C143.408 401.749 143.896 401.723 144.435 401.416L202.359 368.037L126.001 323.861Z" fill="url(#paint56_linear_3727_27355)"/>
<path d="M198.48 367.896L141.931 400.48V397.287C141.931 394.478 143.434 391.875 145.874 390.465L198.467 360.151V367.896H198.48Z" fill="white"/>
<path d="M65.8292 358.881C65.264 358.548 64.9043 357.855 64.9043 356.868L114.336 382.771L141.455 401.159C141.455 402.147 141.647 402.762 142.226 403.083L65.8292 358.881Z" fill="#E9EDFA"/>
<path d="M141.442 398.107L110.251 382.617L64.8916 353.829C64.8916 351.828 66.2918 349.392 68.0389 348.392L120.053 369.191L144.589 392.67C142.842 393.67 141.429 396.12 141.442 398.107Z" fill="#E9EDFA"/>
<path d="M141.442 398.107L64.8916 353.816L64.9173 356.855L141.455 401.146L141.442 398.107Z" fill="#E9EDFA"/>
<path d="M144.397 392.555L68.0391 348.379L125.963 315L202.32 359.176L144.397 392.555Z" fill="url(#paint57_linear_3727_27355)"/>
<path d="M202.32 359.176V360.587L144.397 393.965C143.33 394.581 142.47 396.068 142.47 397.287V400.326C142.495 401.544 143.356 402.031 144.422 401.428L202.346 368.05V369.46L144.422 402.839C142.675 403.839 141.262 403.031 141.249 401.044V398.005C141.224 396.004 142.637 393.568 144.384 392.568L202.307 359.189L202.32 359.176Z" fill="#E9EDFA"/>
</g>
</g>
<defs>
<linearGradient id="paint0_linear_3727_27355" x1="314.262" y1="355.226" x2="486.645" y2="355.226" gradientUnits="userSpaceOnUse">
<stop stop-color="#2E59D9"/>
<stop offset="1" stop-color="white" stop-opacity="0"/>
</linearGradient>
<linearGradient id="paint1_linear_3727_27355" x1="110.752" y1="184.665" x2="420.276" y2="367.996" gradientUnits="userSpaceOnUse">
<stop stop-color="#F5F7FD"/>
<stop offset="0.54" stop-color="#EDEFFD"/>
<stop offset="0.71" stop-color="#E5E8F9"/>
<stop offset="1" stop-color="#E4E7F9"/>
</linearGradient>
<linearGradient id="paint2_linear_3727_27355" x1="190.039" y1="344.467" x2="478.415" y2="244.461" gradientUnits="userSpaceOnUse">
<stop stop-color="#F4F6FD"/>
<stop offset="0.54" stop-color="#ECEEFD"/>
<stop offset="0.71" stop-color="#E3E7FA"/>
<stop offset="1" stop-color="#E2E6FA"/>
</linearGradient>
<linearGradient id="paint3_linear_3727_27355" x1="110.752" y1="167.046" x2="420.276" y2="350.377" gradientUnits="userSpaceOnUse">
<stop stop-color="#F5F7FD"/>
<stop offset="0.54" stop-color="#EDEFFD"/>
<stop offset="0.71" stop-color="#E5E8F9"/>
<stop offset="1" stop-color="#E4E7F9"/>
</linearGradient>
<linearGradient id="paint4_linear_3727_27355" x1="190.039" y1="326.848" x2="478.415" y2="226.841" gradientUnits="userSpaceOnUse">
<stop stop-color="#F4F6FD"/>
<stop offset="0.54" stop-color="#ECEEFD"/>
<stop offset="0.71" stop-color="#E3E7FA"/>
<stop offset="1" stop-color="#E2E6FA"/>
</linearGradient>
<linearGradient id="paint5_linear_3727_27355" x1="110.752" y1="149.427" x2="50.4801" y2="332.337" gradientUnits="userSpaceOnUse">
<stop stop-color="#F5F7FD"/>
<stop offset="0.54" stop-color="#EDEFFD"/>
<stop offset="0.71" stop-color="#E5E8F9"/>
<stop offset="1" stop-color="#E4E7F9"/>
</linearGradient>
<linearGradient id="paint6_linear_3727_27355" x1="190.039" y1="309.229" x2="478.415" y2="209.222" gradientUnits="userSpaceOnUse">
<stop stop-color="#F4F6FD"/>
<stop offset="0.54" stop-color="#ECEEFD"/>
<stop offset="0.71" stop-color="#E3E7FA"/>
<stop offset="1" stop-color="#E2E6FA"/>
</linearGradient>
<linearGradient id="paint7_linear_3727_27355" x1="315.803" y1="316.68" x2="315.803" y2="167.571" gradientUnits="userSpaceOnUse">
<stop offset="0.06" stop-color="#3E68E1"/>
<stop offset="0.81" stop-color="white" stop-opacity="0"/>
</linearGradient>
<linearGradient id="paint8_linear_3727_27355" x1="468.416" y1="186.498" x2="115.972" y2="366.431" gradientUnits="userSpaceOnUse">
<stop stop-color="#3E68E1"/>
<stop offset="1" stop-color="white" stop-opacity="0"/>
</linearGradient>
<linearGradient id="paint9_linear_3727_27355" x1="535.203" y1="410.186" x2="652.001" y2="410.186" gradientUnits="userSpaceOnUse">
<stop stop-color="#2E59D9"/>
<stop offset="1" stop-color="white" stop-opacity="0"/>
</linearGradient>
<linearGradient id="paint10_linear_3727_27355" x1="412.894" y1="308.101" x2="601.583" y2="419.856" gradientUnits="userSpaceOnUse">
<stop stop-color="#F5F7FD"/>
<stop offset="0.54" stop-color="#EDEFFD"/>
<stop offset="0.71" stop-color="#E5E8F9"/>
<stop offset="1" stop-color="#E4E7F9"/>
</linearGradient>
<linearGradient id="paint11_linear_3727_27355" x1="461.221" y1="405.506" x2="637.031" y2="344.542" gradientUnits="userSpaceOnUse">
<stop stop-color="#F4F6FD"/>
<stop offset="0.54" stop-color="#ECEEFD"/>
<stop offset="0.71" stop-color="#E3E7FA"/>
<stop offset="1" stop-color="#E2E6FA"/>
</linearGradient>
<linearGradient id="paint12_linear_3727_27355" x1="412.894" y1="297.355" x2="601.583" y2="409.11" gradientUnits="userSpaceOnUse">
<stop stop-color="#F5F7FD"/>
<stop offset="0.54" stop-color="#EDEFFD"/>
<stop offset="0.71" stop-color="#E5E8F9"/>
<stop offset="1" stop-color="#E4E7F9"/>
</linearGradient>
<linearGradient id="paint13_linear_3727_27355" x1="461.221" y1="394.773" x2="637.031" y2="333.809" gradientUnits="userSpaceOnUse">
<stop stop-color="#F4F6FD"/>
<stop offset="0.54" stop-color="#ECEEFD"/>
<stop offset="0.71" stop-color="#E3E7FA"/>
<stop offset="1" stop-color="#E2E6FA"/>
</linearGradient>
<linearGradient id="paint14_linear_3727_27355" x1="412.894" y1="286.622" x2="601.583" y2="398.364" gradientUnits="userSpaceOnUse">
<stop stop-color="#F5F7FD"/>
<stop offset="0.54" stop-color="#EDEFFD"/>
<stop offset="0.71" stop-color="#E5E8F9"/>
<stop offset="1" stop-color="#E4E7F9"/>
</linearGradient>
<linearGradient id="paint15_linear_3727_27355" x1="461.221" y1="384.027" x2="637.031" y2="323.063" gradientUnits="userSpaceOnUse">
<stop stop-color="#F4F6FD"/>
<stop offset="0.54" stop-color="#ECEEFD"/>
<stop offset="0.71" stop-color="#E3E7FA"/>
<stop offset="1" stop-color="#E2E6FA"/>
</linearGradient>
<linearGradient id="paint16_linear_3727_27355" x1="563.336" y1="382.719" x2="510.543" y2="336.744" gradientUnits="userSpaceOnUse">
<stop stop-color="#DBE6FD"/>
<stop offset="1" stop-color="white" stop-opacity="0.8"/>
</linearGradient>
<linearGradient id="paint17_linear_3727_27355" x1="497.525" y1="363.959" x2="577.001" y2="344.106" gradientUnits="userSpaceOnUse">
<stop stop-color="#DBE6FD"/>
<stop offset="1" stop-color="#F4F6FF"/>
</linearGradient>
<linearGradient id="paint18_linear_3727_27355" x1="569.515" y1="336.53" x2="498.792" y2="349.179" gradientUnits="userSpaceOnUse">
<stop stop-color="white"/>
<stop offset="1" stop-color="#97B3F8"/>
</linearGradient>
<linearGradient id="paint19_linear_3727_27355" x1="537.271" y1="373.563" x2="537.271" y2="248.486" gradientUnits="userSpaceOnUse">
<stop stop-color="#4669DA"/>
<stop offset="1" stop-color="white" stop-opacity="0"/>
</linearGradient>
<linearGradient id="paint20_linear_3727_27355" x1="524.501" y1="341.584" x2="564.346" y2="290.529" gradientUnits="userSpaceOnUse">
<stop stop-color="#F5F7FD"/>
<stop offset="0.54" stop-color="#EDEFFD"/>
<stop offset="0.71" stop-color="#E5E8F9"/>
<stop offset="1" stop-color="#E4E7F9"/>
</linearGradient>
<linearGradient id="paint21_linear_3727_27355" x1="537.534" y1="304.812" x2="570.633" y2="303.081" gradientUnits="userSpaceOnUse">
<stop stop-opacity="0.8"/>
<stop offset="0.4" stop-opacity="0"/>
</linearGradient>
<linearGradient id="paint22_linear_3727_27355" x1="509.117" y1="288.608" x2="538.856" y2="310.269" gradientUnits="userSpaceOnUse">
<stop stop-color="#FAFBFF"/>
<stop offset="1" stop-color="#F2F4FD"/>
</linearGradient>
<linearGradient id="paint23_linear_3727_27355" x1="543.596" y1="274.4" x2="504.501" y2="324.494" gradientUnits="userSpaceOnUse">
<stop stop-color="#020202"/>
<stop offset="1" stop-color="#F2F4FD"/>
</linearGradient>
<linearGradient id="paint24_linear_3727_27355" x1="546.289" y1="304.921" x2="562.771" y2="304.921" gradientUnits="userSpaceOnUse">
<stop stop-color="#2A5ADA"/>
<stop offset="1" stop-color="#2A5ADA" stop-opacity="0.8"/>
</linearGradient>
<linearGradient id="paint25_linear_3727_27355" x1="566.694" y1="288.346" x2="570.852" y2="256.183" gradientUnits="userSpaceOnUse">
<stop stop-color="#F5F7FD"/>
<stop offset="0.54" stop-color="#EDEFFD"/>
<stop offset="0.71" stop-color="#E5E8F9"/>
<stop offset="1" stop-color="#E4E7F9"/>
</linearGradient>
<linearGradient id="paint26_linear_3727_27355" x1="562.9" y1="269.171" x2="576.719" y2="259.96" gradientUnits="userSpaceOnUse">
<stop stop-opacity="0.8"/>
<stop offset="0.4" stop-opacity="0"/>
</linearGradient>
<linearGradient id="paint27_linear_3727_27355" x1="546.493" y1="269.429" x2="564.869" y2="271.165" gradientUnits="userSpaceOnUse">
<stop stop-color="#FAFBFF"/>
<stop offset="1" stop-color="#F2F4FD"/>
</linearGradient>
<linearGradient id="paint28_linear_3727_27355" x1="557.729" y1="254.512" x2="553.648" y2="286.078" gradientUnits="userSpaceOnUse">
<stop stop-color="#020202"/>
<stop offset="1" stop-color="#F2F4FD"/>
</linearGradient>
<linearGradient id="paint29_linear_3727_27355" x1="566.766" y1="267.025" x2="573.878" y2="262.805" gradientUnits="userSpaceOnUse">
<stop stop-color="#2A5ADA"/>
<stop offset="1" stop-color="#2A5ADA" stop-opacity="0.8"/>
</linearGradient>
<linearGradient id="paint30_linear_3727_27355" x1="406.639" y1="142.54" x2="541.138" y2="142.54" gradientUnits="userSpaceOnUse">
<stop stop-color="#F5F7FD"/>
<stop offset="0.54" stop-color="#EDEFFD"/>
<stop offset="0.71" stop-color="#E5E8F9"/>
<stop offset="1" stop-color="#E4E7F9"/>
</linearGradient>
<linearGradient id="paint31_linear_3727_27355" x1="541.138" y1="142.54" x2="406.639" y2="142.54" gradientUnits="userSpaceOnUse">
<stop stop-color="#F5F7FD"/>
<stop offset="0.54" stop-color="#EDEFFD"/>
<stop offset="0.71" stop-color="#E5E8F9"/>
<stop offset="1" stop-color="#E4E7F9"/>
</linearGradient>
<linearGradient id="paint32_linear_3727_27355" x1="393.253" y1="149.465" x2="527.765" y2="149.465" gradientUnits="userSpaceOnUse">
<stop stop-color="#F5F7FD"/>
<stop offset="0.54" stop-color="#EDEFFD"/>
<stop offset="0.71" stop-color="#E5E8F9"/>
<stop offset="1" stop-color="#E4E7F9"/>
</linearGradient>
<linearGradient id="paint33_linear_3727_27355" x1="396.94" y1="170.085" x2="524.125" y2="128.686" gradientUnits="userSpaceOnUse">
<stop stop-color="#375BD2" stop-opacity="0.5"/>
<stop offset="1" stop-color="white" stop-opacity="0"/>
</linearGradient>
<linearGradient id="paint34_linear_3727_27355" x1="486.734" y1="118.228" x2="407.816" y2="194.577" gradientUnits="userSpaceOnUse">
<stop stop-color="#F5F7FD"/>
<stop offset="0.54" stop-color="#EDEFFD"/>
<stop offset="0.71" stop-color="#E5E8F9"/>
<stop offset="1" stop-color="#E4E7F9"/>
</linearGradient>
<linearGradient id="paint35_linear_3727_27355" x1="168.983" y1="-46.0477" x2="172.14" y2="-44.2219" gradientUnits="userSpaceOnUse">
<stop stop-color="#2A5ADA"/>
<stop offset="1" stop-color="#2A5ADA" stop-opacity="0.8"/>
</linearGradient>
<linearGradient id="paint36_linear_3727_27355" x1="174.729" y1="-42.7364" x2="177.885" y2="-40.9106" gradientUnits="userSpaceOnUse">
<stop stop-color="#2A5ADA"/>
<stop offset="1" stop-color="#2A5ADA" stop-opacity="0.8"/>
</linearGradient>
<linearGradient id="paint37_linear_3727_27355" x1="180.485" y1="-39.4317" x2="183.641" y2="-37.606" gradientUnits="userSpaceOnUse">
<stop stop-color="#2A5ADA"/>
<stop offset="1" stop-color="#2A5ADA" stop-opacity="0.8"/>
</linearGradient>
<linearGradient id="paint38_linear_3727_27355" x1="410.826" y1="150.004" x2="427.385" y2="150.004" gradientUnits="userSpaceOnUse">
<stop stop-color="#2A5ADA"/>
<stop offset="1" stop-color="#2A5ADA" stop-opacity="0.8"/>
</linearGradient>
<linearGradient id="paint39_linear_3727_27355" x1="432.408" y1="156.736" x2="445.909" y2="156.736" gradientUnits="userSpaceOnUse">
<stop stop-color="#2A5ADA"/>
<stop offset="1" stop-color="#2A5ADA" stop-opacity="0.8"/>
</linearGradient>
<linearGradient id="paint40_linear_3727_27355" x1="450.945" y1="163.583" x2="467.504" y2="163.583" gradientUnits="userSpaceOnUse">
<stop stop-color="#2A5ADA"/>
<stop offset="1" stop-color="#2A5ADA" stop-opacity="0.8"/>
</linearGradient>
<linearGradient id="paint41_linear_3727_27355" x1="329.574" y1="275.107" x2="402.605" y2="275.107" gradientUnits="userSpaceOnUse">
<stop stop-color="#B7BEE7"/>
<stop offset="1" stop-color="white" stop-opacity="0"/>
</linearGradient>
<linearGradient id="paint42_linear_3727_27355" x1="253.602" y1="228.482" x2="267.167" y2="228.482" gradientUnits="userSpaceOnUse">
<stop stop-color="#FAFBFF"/>
<stop offset="1" stop-color="#F2F4FD"/>
</linearGradient>
<linearGradient id="paint43_linear_3727_27355" x1="274.656" y1="261.296" x2="340.93" y2="261.296" gradientUnits="userSpaceOnUse">
<stop stop-color="#FAFBFF"/>
<stop offset="1" stop-color="#F2F4FD"/>
</linearGradient>
<linearGradient id="paint44_linear_3727_27355" x1="274.656" y1="253.179" x2="335.316" y2="253.179" gradientUnits="userSpaceOnUse">
<stop stop-color="#FAFBFF"/>
<stop offset="1" stop-color="#F2F4FD"/>
</linearGradient>
<linearGradient id="paint45_linear_3727_27355" x1="274.656" y1="248.114" x2="336.973" y2="248.114" gradientUnits="userSpaceOnUse">
<stop stop-color="#FAFBFF"/>
<stop offset="1" stop-color="#F2F4FD"/>
</linearGradient>
<linearGradient id="paint46_linear_3727_27355" x1="280.271" y1="278.261" x2="382.963" y2="278.261" gradientUnits="userSpaceOnUse">
<stop stop-color="#FAFBFF"/>
<stop offset="1" stop-color="#F2F4FD"/>
</linearGradient>
<linearGradient id="paint47_linear_3727_27355" x1="280.334" y1="256.475" x2="383.014" y2="256.475" gradientUnits="userSpaceOnUse">
<stop stop-color="#FAFBFF"/>
<stop offset="1" stop-color="#F2F4FD"/>
</linearGradient>
<linearGradient id="paint48_linear_3727_27355" x1="277.662" y1="237.112" x2="339.517" y2="237.112" gradientUnits="userSpaceOnUse">
<stop stop-color="#FAFBFF"/>
<stop offset="1" stop-color="#F2F4FD"/>
</linearGradient>
<linearGradient id="paint49_linear_3727_27355" x1="277.662" y1="232.021" x2="334.211" y2="232.021" gradientUnits="userSpaceOnUse">
<stop stop-color="#FAFBFF"/>
<stop offset="1" stop-color="#F2F4FD"/>
</linearGradient>
<linearGradient id="paint50_linear_3727_27355" x1="277.662" y1="229.802" x2="335.765" y2="229.802" gradientUnits="userSpaceOnUse">
<stop stop-color="#FAFBFF"/>
<stop offset="1" stop-color="#F2F4FD"/>
</linearGradient>
<linearGradient id="paint51_linear_3727_27355" x1="282.968" y1="253.128" x2="379.186" y2="253.128" gradientUnits="userSpaceOnUse">
<stop stop-color="#FAFBFF"/>
<stop offset="1" stop-color="#F2F4FD"/>
</linearGradient>
<linearGradient id="paint52_linear_3727_27355" x1="283.007" y1="237.701" x2="379.238" y2="237.701" gradientUnits="userSpaceOnUse">
<stop stop-color="#FAFBFF"/>
<stop offset="1" stop-color="#F2F4FD"/>
</linearGradient>
<linearGradient id="paint53_linear_3727_27355" x1="278.729" y1="225.776" x2="339.568" y2="225.776" gradientUnits="userSpaceOnUse">
<stop stop-color="#FAFBFF"/>
<stop offset="1" stop-color="#F2F4FD"/>
</linearGradient>
<linearGradient id="paint54_linear_3727_27355" x1="139.207" y1="377.616" x2="255.079" y2="377.616" gradientUnits="userSpaceOnUse">
<stop stop-color="#B7BEE7"/>
<stop offset="1" stop-color="white" stop-opacity="0"/>
</linearGradient>
<linearGradient id="paint55_linear_3727_27355" x1="55" y1="366.357" x2="208.807" y2="366.357" gradientUnits="userSpaceOnUse">
<stop stop-color="#FAFBFF"/>
<stop offset="1" stop-color="#F2F4FD"/>
</linearGradient>
<linearGradient id="paint56_linear_3727_27355" x1="66.7031" y1="362.779" x2="202.359" y2="362.779" gradientUnits="userSpaceOnUse">
<stop stop-color="#FAFBFF"/>
<stop offset="1" stop-color="#F2F4FD"/>
</linearGradient>
<linearGradient id="paint57_linear_3727_27355" x1="68.0391" y1="353.777" x2="202.32" y2="353.777" gradientUnits="userSpaceOnUse">
<stop stop-color="#FAFBFF"/>
<stop offset="1" stop-color="#F2F4FD"/>
</linearGradient>
<clipPath id="clip0_3727_27355">
<rect width="700" height="450" fill="white"/>
</clipPath>
<clipPath id="clip1_3727_27355">
<rect width="603" height="428" fill="white" transform="translate(49 11)"/>
</clipPath>
</defs>
</svg>
