<svg width="48" height="48" viewBox="0 0 48 48" fill="none" xmlns="http://www.w3.org/2000/svg">
<rect width="48" height="48" rx="4" fill="#F0DB4F"/>
<path d="M11.1018 39.8206L14.9326 37.5022C15.6718 38.8126 16.3441 39.9213 17.9568 39.9213C19.5026 39.9213 20.4774 39.3167 20.4774 36.9646V20.969H25.1817V37.0311C25.1817 41.9036 22.3255 44.1215 18.1584 44.1215C14.395 44.1215 12.2105 42.1725 11.1016 39.8202M27.737 39.3165L31.5674 37.0988C32.5759 38.7455 33.8864 39.9551 36.2049 39.9551C38.1543 39.9551 39.3972 38.9805 39.3972 37.6363C39.3972 36.0234 38.1203 35.452 35.9696 34.5114L34.7938 34.0069C31.3996 32.5624 29.1483 30.7477 29.1483 26.9169C29.1483 23.3884 31.8365 20.7 36.0371 20.7C39.0278 20.7 41.1785 21.7418 42.7241 24.4637L39.0611 26.8162C38.2544 25.3712 37.3811 24.8 36.0369 24.8C34.659 24.8 33.7853 25.6738 33.7853 26.8162C33.7853 28.2274 34.6591 28.799 36.6752 29.6727L37.8512 30.1767C41.8502 31.8907 44.1016 33.6379 44.1016 37.5692C44.1016 41.8037 40.7749 44.1221 36.3056 44.1221C31.9372 44.1221 29.1144 42.0387 27.7368 39.3167" fill="#323330"/>
</svg>
