<svg xmlns="http://www.w3.org/2000/svg" xmlns:xlink="http://www.w3.org/1999/xlink" width="400" height="401" fill="none" xmlns:v="https://vecta.io/nano"><path d="M344.521 283.603V116.594L199.856 33.036l-144.67 83.558v167.009l144.671 83.507 144.665-83.507z" fill="url(#B)"/><path d="M135.905 129.428c0 1.572-1.274 2.847-2.846 2.847a2.85 2.85 0 0 1-2.847-2.847c0-1.572 1.275-2.846 2.847-2.846s2.846 1.274 2.846 2.846zm-2.846 3.273c1.807 0 3.272-1.466 3.272-3.273s-1.465-3.272-3.272-3.272-3.272 1.465-3.272 3.272 1.465 3.273 3.272 3.273zm.11 81.631v-79.093h-.426v79.093h.426zm60.078 113.663h-15.169v.426h15.595v-74.274h-.426v73.848zm-24.515.435c0 1.657 1.279 2.983 2.836 2.983s2.836-1.326 2.836-2.983-1.279-2.983-2.836-2.983-2.836 1.326-2.836 2.983zm2.836 3.409c-1.811 0-3.262-1.536-3.262-3.409s1.451-3.409 3.262-3.409 3.262 1.536 3.262 3.409-1.451 3.409-3.262 3.409zM36.023 196.952a2.85 2.85 0 0 1 2.846 2.847c0 1.572-1.274 2.846-2.846 2.846s-2.846-1.274-2.846-2.846a2.85 2.85 0 0 1 2.846-2.847zm3.272 2.847c0-1.808-1.465-3.273-3.272-3.273s-3.272 1.465-3.272 3.273a3.27 3.27 0 0 0 3.272 3.272c1.807 0 3.272-1.465 3.272-3.272zm61.463-.111H41.834v.426h58.924v-.426zm221.997-55.747V96.256h.426v48.111h-74.292v-.426h73.866zm.212-56.989c1.657 0 2.983 1.279 2.983 2.836s-1.326 2.836-2.983 2.836-2.983-1.279-2.983-2.836 1.326-2.836 2.983-2.836zm3.409 2.836c0-1.811-1.536-3.262-3.409-3.262s-3.409 1.451-3.409 3.262 1.536 3.262 3.409 3.262 3.409-1.451 3.409-3.262z" fill-rule="evenodd" fill="#9db4f4"/><mask id="A" maskUnits="userSpaceOnUse" x="126" y="207" width="175" height="68" mask-type="alpha"><path d="M126.123 211.554c0-2.045 1.658-3.704 3.704-3.704H297.21c2.046 0 3.704 1.659 3.704 3.704v58.889c0 2.046-1.658 3.704-3.704 3.704H129.827c-2.046 0-3.704-1.658-3.704-3.704v-58.889z" fill="#d9d9d9"/></mask><g mask="url(#A)"><path d="M296.601 206.434h-165.59c-3.97 0-7.188 1.588-7.188 3.548v61.75c0 1.96 3.218 3.548 7.188 3.548h165.59c3.97 0 7.188-1.588 7.188-3.548v-61.75c0-1.96-3.218-3.548-7.188-3.548z" fill="url(#C)"/></g><path fill-rule="evenodd" d="M297.408 207.906H129.63a3.65 3.65 0 0 0-3.648 3.648v58.889a3.65 3.65 0 0 0 3.648 3.648h167.778a3.65 3.65 0 0 0 3.648-3.648v-58.889a3.65 3.65 0 0 0-3.648-3.648zm-167.778-.426c-2.25 0-4.074 1.824-4.074 4.074v58.889c0 2.25 1.824 4.074 4.074 4.074h167.778c2.25 0 4.074-1.824 4.074-4.074v-58.889c0-2.25-1.824-4.074-4.074-4.074H129.63z" fill="#a0b3f2"/><g style="mix-blend-mode:overlay" opacity=".6"><g style="mix-blend-mode:overlay" opacity=".25"><path d="M298.994 210.42H131.747a2.12 2.12 0 0 0-2.117 2.121v59.569a2.12 2.12 0 0 0 2.117 2.121h167.247a2.12 2.12 0 0 0 2.117-2.121v-59.569a2.12 2.12 0 0 0-2.117-2.121z" fill="#000"/></g><g style="mix-blend-mode:overlay" opacity=".6"><path d="M295.476 207.85H128.414a2.12 2.12 0 0 0-2.117 2.121v58.62a2.12 2.12 0 0 0 2.117 2.121h167.062a2.12 2.12 0 0 0 2.117-2.121v-58.62a2.12 2.12 0 0 0-2.117-2.121z" fill="#fff"/></g></g><path d="M279.814 106.739H173.149c-2.557 0-4.63 2.077-4.63 4.638v80.724c0 2.562 2.073 4.638 4.63 4.638h106.665c2.557 0 4.63-2.076 4.63-4.638v-80.724c0-2.561-2.073-4.638-4.63-4.638z" fill="url(#D)"/><path fill-rule="evenodd" d="M173.149 106.952c-2.439 0-4.417 1.981-4.417 4.425v80.724c0 2.444 1.978 4.425 4.417 4.425h106.665c2.44 0 4.418-1.981 4.418-4.425v-80.724c0-2.444-1.978-4.425-4.418-4.425H173.149zm-4.843 4.425c0-2.679 2.168-4.851 4.843-4.851h106.665a4.85 4.85 0 0 1 4.844 4.851v80.724a4.85 4.85 0 0 1-4.844 4.851H173.149c-2.675 0-4.843-2.172-4.843-4.851v-80.724z" fill="#a0b3f2"/><g style="mix-blend-mode:overlay" opacity=".6"><g style="mix-blend-mode:overlay" opacity=".25"><path d="M281.935 113.2H177.313a2.12 2.12 0 0 0-2.118 2.121v78.099a2.12 2.12 0 0 0 2.118 2.121h104.622a2.12 2.12 0 0 0 2.118-2.121v-78.099a2.12 2.12 0 0 0-2.118-2.121z" fill="#000"/></g><g style="mix-blend-mode:overlay" opacity=".6"><path d="M279.37 110.63H174.747a2.12 2.12 0 0 0-2.117 2.121v78.099a2.12 2.12 0 0 0 2.117 2.121H279.37a2.12 2.12 0 0 0 2.118-2.121v-78.099a2.12 2.12 0 0 0-2.118-2.121z" fill="#fff"/></g></g><g fill="#9db4f4"><use xlink:href="#L"/><use xlink:href="#L" x="3.316"/><use xlink:href="#M"/><use xlink:href="#M" x="3.316"/><path d="M212.357 126.526c0-.593.065-1.493.883-1.493s.883.9.883 1.493-.065 1.493-.883 1.493-.883-.9-.883-1.493zm-.575 0c0 .527.066 1.037.309 1.41.243.368.646.599 1.149.599s.907-.231 1.15-.599c.243-.373.308-.883.308-1.41s-.065-1.037-.308-1.41c-.243-.368-.646-.599-1.15-.599s-.906.231-1.149.599c-.243.373-.309.883-.309 1.41z"/><use xlink:href="#N"/><use xlink:href="#N" x="3.316"/><use xlink:href="#N" x="6.632"/><use xlink:href="#O"/><use xlink:href="#O" x="3.316"/><use xlink:href="#N" x="19.896"/><use xlink:href="#N" x="23.212"/><use xlink:href="#O" x="13.264"/><use xlink:href="#P"/><use xlink:href="#P" x="3.316"/><use xlink:href="#P" x="6.632"/><path d="M199.093 135.415c0-.593.066-1.493.883-1.493s.883.9.883 1.493-.065 1.493-.883 1.493-.883-.901-.883-1.493zm-.574 0c0 .527.065 1.037.308 1.41s.646.599 1.149.599.907-.231 1.15-.599.308-.883.308-1.41-.065-1.037-.308-1.41-.646-.599-1.15-.599-.906.231-1.149.599-.308.882-.308 1.41zm3.736 1.398v.522h2.46v-.522h-.925v-3.318h-.51c-.088.415-.456.711-.989.723v.409h.93v2.186h-.966z"/><use xlink:href="#Q"/><use xlink:href="#Q" x="3.316"/><use xlink:href="#N" x="-3.316" y="8.889"/><use xlink:href="#N" y="8.889"/><use xlink:href="#N" x="3.316" y="8.889"/><path d="M222.305 135.415c0-.593.065-1.493.883-1.493s.883.9.883 1.493-.065 1.493-.883 1.493-.883-.901-.883-1.493zm-.575 0c0 .527.066 1.037.309 1.41s.645.599 1.149.599.907-.231 1.15-.599.308-.883.308-1.41-.065-1.037-.308-1.41-.646-.599-1.15-.599-.907.231-1.149.599-.309.882-.309 1.41z"/><use xlink:href="#R"/><use xlink:href="#N" x="16.58" y="8.889"/><use xlink:href="#R" x="6.632"/><use xlink:href="#R" x="9.948"/><use xlink:href="#P" x="-3.316" y="8.889"/><use xlink:href="#R" x="16.58"/><use xlink:href="#P" x="3.316" y="8.889"/><use xlink:href="#P" x="6.632" y="8.889"/><use xlink:href="#S"/><use xlink:href="#S" x="3.316"/><use xlink:href="#M" y="17.778"/><use xlink:href="#T"/><use xlink:href="#T" x="3.316"/><path d="M215.673 144.304c0-.593.065-1.494.883-1.494s.883.901.883 1.494-.065 1.493-.883 1.493-.883-.901-.883-1.493zm-.575 0c0 .527.066 1.037.309 1.41s.645.599 1.149.599.907-.231 1.15-.599.308-.883.308-1.41-.065-1.037-.308-1.411c-.243-.367-.646-.598-1.15-.598s-.906.231-1.149.598c-.243.374-.309.883-.309 1.411z"/><use xlink:href="#U"/><use xlink:href="#U" x="3.316"/><use xlink:href="#V"/><use xlink:href="#V" x="3.316"/><use xlink:href="#N" x="19.896" y="17.778"/><use xlink:href="#N" x="23.212" y="17.778"/><use xlink:href="#V" x="13.264"/><use xlink:href="#P" y="17.778"/><use xlink:href="#P" x="3.316" y="17.778"/><use xlink:href="#P" x="6.632" y="17.778"/><use xlink:href="#W"/><use xlink:href="#W" x="3.316"/><use xlink:href="#X"/><use xlink:href="#X" x="3.316"/><path d="M212.357 153.193c0-.593.065-1.494.883-1.494s.883.901.883 1.494-.065 1.493-.883 1.493-.883-.901-.883-1.493zm-.575 0c0 .527.066 1.037.309 1.41.243.367.646.599 1.149.599s.907-.232 1.15-.599c.243-.373.308-.883.308-1.41s-.065-1.037-.308-1.411c-.243-.367-.646-.598-1.15-.598s-.906.231-1.149.598c-.243.374-.309.883-.309 1.411z"/><use xlink:href="#Y"/><use xlink:href="#Y" x="3.316"/><use xlink:href="#Y" x="6.632"/><use xlink:href="#Z"/><use xlink:href="#Z" x="3.316"/><use xlink:href="#Y" x="19.896"/><use xlink:href="#Y" x="23.212"/><use xlink:href="#Z" x="13.264"/><use xlink:href="#a"/><use xlink:href="#a" x="3.316"/><use xlink:href="#a" x="6.632"/></g><path d="M255.179 168.221H81.489c-.413 0-.747.2-.747.447v72.068c0 .247.335.448.747.448h173.69c.413 0 .747-.201.747-.448v-72.068c0-.247-.334-.447-.747-.447z" fill="#cedafd"/><path d="M248.143 164.517H74.82c-.412 0-.746.189-.746.422v68.045c0 .233.334.422.746.422h173.323c.412 0 .746-.189.746-.422v-68.045c0-.233-.334-.422-.746-.422z" fill="url(#E)"/><path fill-rule="evenodd" d="M77.155 163.934h168.883c.972 0 1.905.387 2.592 1.074a3.67 3.67 0 0 1 1.076 2.592v63.213a3.67 3.67 0 0 1-1.076 2.592c-.687.687-1.62 1.074-2.592 1.074H77.155a3.67 3.67 0 0 1-3.664-3.666V167.6a3.67 3.67 0 0 1 3.664-3.666zm168.883.426H77.155c-.859.001-1.682.343-2.289.95s-.948 1.431-.949 2.29v63.213a3.24 3.24 0 0 0 .949 2.29c.607.607 1.43.949 2.289.95h168.883c.859 0 1.683-.342 2.291-.949a3.25 3.25 0 0 0 .952-2.291V167.6a3.25 3.25 0 0 0-.952-2.291c-.608-.607-1.432-.949-2.291-.949zm-168.884.506h0 168.883a2.74 2.74 0 0 1 1.933.801c.513.513.801 1.208.803 1.932v63.215a2.74 2.74 0 0 1-2.736 2.733H77.155a2.74 2.74 0 0 1-1.93-.802c-.512-.513-.8-1.207-.8-1.931V167.6c.001-.724.288-1.419.8-1.931s1.206-.801 1.93-.803zm.001.426a2.31 2.31 0 0 0-1.63.678c-.432.432-.675 1.018-.676 1.63v63.213a2.31 2.31 0 0 0 2.305 2.308h168.883c.612-.001 1.199-.244 1.632-.677a2.31 2.31 0 0 0 .678-1.631V167.6a2.31 2.31 0 0 0-.678-1.631c-.433-.433-1.02-.676-1.632-.677H77.155z" fill="#375bd2"/><g clip-path="url(#K)"><g opacity=".15" fill="#2c5bde"><path opacity=".15" d="M94.358 190.571l5.867-2.959v1.681l-4.039 1.949 4.039 1.952v1.695l-5.867-2.938v-1.38zm7.952 4.831h-1.632l4.831-9.919h1.651l-4.85 9.919zm11.148-3.465l-5.866 2.952v-1.679l4.038-1.952-4.038-1.951v-1.705l5.866 2.959v1.376zm65.589 19.166H93.89v.718h85.157v-.718zm0 4.332H93.89v.718h85.157v-.718zm0 8.659H93.89v.718h85.157v-.718zm15.379-4.329H93.89v.718h100.536v-.718zm25.583-19.036H93.89v5.746h126.119v-5.746z"/></g></g><path d="M242.986 177.717H80.212v.466h162.774v-.466z" fill="#2f59d4"/><use xlink:href="#b" fill="url(#F)"/><use xlink:href="#b" x="6.254" fill="url(#G)"/><use xlink:href="#b" x="12.507" fill="url(#G)"/><path d="M313.274 294.278l-11.432 10.657-37.681-40.756 11.432-10.656 37.681 40.755z" fill="#f4f6fd"/><path d="M323.915 317.022l-.133.124c-3.604 3.36-8.573 3.894-11.094 1.189l-29.075-30.721 13.29-12.929 28.985 31.353c2.511 2.705 1.634 7.62-1.973 10.984z" fill="url(#H)"/><path opacity=".2" d="M266.821 266.939l.031.238L279.4 280.74l12.052-10.038-13.388-14.605-11.243 10.842z" fill="url(#I)"/><path d="M276.083 195.597c-17.721-19.003-47.481-20.052-66.486-2.332s-20.052 47.481-2.332 66.486 47.481 20.052 66.486 2.332 20.047-47.481 2.332-66.486zm-6.816 61.678c-5.854 5.458-13.196 9.058-21.097 10.343a40.46 40.46 0 0 1-40.916-18.654c-4.211-6.807-6.309-14.71-6.028-22.71a40.47 40.47 0 0 1 7.605-22.231c4.678-6.495 11.177-11.457 18.675-14.259a40.47 40.47 0 0 1 23.449-1.481 40.48 40.48 0 0 1 20.32 11.797 40.47 40.47 0 0 1-2.008 57.195z" fill="url(#J)"/><path opacity=".5" d="M270.289 256.287c15.803-15.803 15.803-41.426 0-57.229s-41.426-15.804-57.23 0-15.803 41.426 0 57.229 41.426 15.804 57.23 0z" fill="#dce6fc"/><g fill="#fff"><path opacity=".36" d="M213.931 218.528c3.155-12.511 14.281-21.614 27.233-21.842s24.569 8.571 27.98 21.031c.965 3.511 6.482 2.276 5.516-1.243-1.912-7.001-5.979-13.223-11.624-17.784a34.57 34.57 0 0 0-19.829-7.63c-14.629-.772-28.031 8.379-33.428 21.833-.512 1.304-.936 2.642-1.269 4.003-.888 3.521 4.521 5.172 5.417 1.632h.004z"/><path opacity=".6" d="M276.875 228.3c.269-2.039-1.166-3.909-3.205-4.178s-3.91 1.166-4.178 3.205 1.166 3.909 3.205 4.178 3.909-1.166 4.178-3.205z"/></g><path d="M284.213 287.229l12.638-12.302c.209-.204.335-.479.354-.771s-.072-.58-.254-.81l-.121-.153a1.19 1.19 0 0 0-.38-.314 1.18 1.18 0 0 0-.475-.13 1.17 1.17 0 0 0-.487.074 1.19 1.19 0 0 0-.414.267l-12.532 12.439c-.112.11-.201.241-.262.386s-.092.3-.092.457.032.312.092.457.15.276.262.386l.018.016c.221.216.518.337.827.337s.606-.122.826-.339h0z" fill="#2e59d9"/><path d="M279.722 238.193a40.07 40.07 0 0 1-43.764 29.348c-9.733-1.189-18.772-6.167-25.196-13.523-6.253-7.165-9.702-16.555-9.769-26.042-.038-9.727 3.463-19.136 9.85-26.472s15.225-12.098 24.865-13.399c9.793-1.322 19.837 1.138 27.996 6.671 7.857 5.326 13.539 13.54 16.032 22.668 1.817 6.799 1.812 13.955-.014 20.751-.355 1.343 1.725 1.901 2.08.56 2.485-9.403 1.683-19.374-2.274-28.259-3.854-8.69-10.781-15.904-19.219-20.243-8.806-4.482-18.896-5.761-28.541-3.619-9.219 2.04-17.637 7.342-23.564 14.671-6.194 7.723-9.503 17.364-9.359 27.263.136 9.511 3.67 18.749 9.658 26.1 6.153 7.557 14.999 12.7 24.538 14.57 9.459 1.866 19.352.299 27.851-4.196 10.278-5.424 17.865-15.116 20.91-26.294.366-1.334-1.714-1.893-2.08-.555z" fill="#fff"/><defs><linearGradient id="B" x1="80.822" y1="89.1" x2="318.884" y2="311.091" xlink:href="#c"><stop stop-color="#f3f6fe"/><stop offset="1" stop-color="#dee7fc"/></linearGradient><linearGradient id="C" x1="136.046" y1="202.478" x2="196.976" y2="325.921" xlink:href="#c"><stop stop-color="#f5f7fd"/><stop offset=".54" stop-color="#edeffd"/><stop offset="1" stop-color="#e4e7f9"/></linearGradient><linearGradient id="D" x1="176.392" y1="101.567" x2="276.736" y2="201.742" xlink:href="#c"><stop stop-color="#f5f7fd"/><stop offset=".54" stop-color="#edeffd"/><stop offset="1" stop-color="#e4e7f9"/></linearGradient><linearGradient id="E" x1="102.525" y1="153.021" x2="151.91" y2="273.087" xlink:href="#c"><stop stop-color="#fff"/><stop offset="1" stop-color="#f3f3f8"/></linearGradient><linearGradient id="F" x1="81.147" y1="172.24" x2="84.861" y2="172.24" xlink:href="#c"><stop stop-color="#2a5ada"/><stop offset="1" stop-color="#2a5ada" stop-opacity=".8"/></linearGradient><linearGradient id="G" x1="81.149" y1="172.24" x2="84.861" y2="172.24" xlink:href="#c"><stop stop-color="#2a5ada"/><stop offset="1" stop-color="#2a5ada" stop-opacity=".8"/></linearGradient><linearGradient id="H" x1="303.68" y1="273.74" x2="305.556" y2="299.904" xlink:href="#c"><stop stop-color="#6a8aeb"/><stop offset="1" stop-color="#2e59d9"/></linearGradient><linearGradient id="I" x1="273.844" y1="300.57" x2="280.263" y2="262.066" xlink:href="#c"><stop offset=".34" stop-color="#6a8aeb" stop-opacity="0"/><stop offset="1" stop-color="#2e59d9"/></linearGradient><linearGradient id="J" x1="195.005" y1="233.633" x2="288.339" y2="221.71" xlink:href="#c"><stop stop-color="#6a8aeb"/><stop offset="1" stop-color="#2e59d9"/></linearGradient><clipPath id="K"><path fill="#fff" transform="translate(94.074 185.628)" d="M0 0h125.926v41.481H0z"/></clipPath><path id="L" d="M199.093 126.526c0-.593.066-1.493.883-1.493s.883.9.883 1.493-.065 1.493-.883 1.493-.883-.9-.883-1.493zm-.574 0c0 .527.065 1.037.308 1.41.243.368.646.599 1.149.599s.907-.231 1.15-.599c.243-.373.308-.883.308-1.41s-.065-1.037-.308-1.41c-.243-.368-.646-.599-1.15-.599s-.906.231-1.149.599c-.243.373-.308.883-.308 1.41z"/><path id="M" d="M205.571 127.924v.522h2.459v-.522h-.924v-3.318h-.51c-.088.415-.456.711-.989.723v.409h.93v2.186h-.966z"/><path id="N" d="M215.519 127.924v.522h2.459v-.522h-.924v-3.318h-.51c-.089.415-.456.711-.989.723v.409h.93v2.186h-.966z"/><path id="O" d="M228.937 126.526c0-.593.065-1.493.883-1.493s.883.9.883 1.493-.065 1.493-.883 1.493-.883-.9-.883-1.493zm-.575 0c0 .527.065 1.037.308 1.41.243.368.646.599 1.15.599s.907-.231 1.15-.599c.243-.373.308-.883.308-1.41s-.065-1.037-.308-1.41c-.243-.368-.646-.599-1.15-.599s-.907.231-1.15.599c-.243.373-.308.883-.308 1.41z"/><path id="P" d="M245.363 127.924v.522h2.459v-.522h-.924v-3.318h-.51c-.089.415-.456.711-.99.723v.409h.931v2.186h-.966z"/><path id="Q" d="M205.725 135.415c0-.593.065-1.493.883-1.493s.883.9.883 1.493-.065 1.493-.883 1.493-.883-.901-.883-1.493zm-.575 0c0 .527.066 1.037.309 1.41s.646.599 1.149.599.907-.231 1.15-.599.308-.883.308-1.41-.065-1.037-.308-1.41-.646-.599-1.15-.599-.906.231-1.149.599-.309.882-.309 1.41z"/><path id="R" d="M228.937 135.415c0-.593.065-1.493.883-1.493s.883.9.883 1.493-.065 1.493-.883 1.493-.883-.901-.883-1.493zm-.575 0c0 .527.065 1.037.308 1.41s.646.599 1.15.599.907-.231 1.15-.599.308-.883.308-1.41-.065-1.037-.308-1.41-.646-.599-1.15-.599-.907.231-1.15.599-.308.882-.308 1.41z"/><path id="S" d="M199.093 144.304c0-.593.066-1.494.883-1.494s.883.901.883 1.494-.065 1.493-.883 1.493-.883-.901-.883-1.493zm-.574 0c0 .527.065 1.037.308 1.41s.646.599 1.149.599.907-.231 1.15-.599.308-.883.308-1.41-.065-1.037-.308-1.411c-.243-.367-.646-.598-1.15-.598s-.906.231-1.149.598c-.243.374-.308.883-.308 1.411z"/><path id="T" d="M209.041 144.304c0-.593.065-1.494.883-1.494s.883.901.883 1.494-.065 1.493-.883 1.493-.883-.901-.883-1.493zm-.575 0c0 .527.066 1.037.309 1.41s.646.599 1.149.599.907-.231 1.15-.599.308-.883.308-1.41-.065-1.037-.308-1.411c-.243-.367-.646-.598-1.15-.598s-.906.231-1.149.598c-.243.374-.309.883-.309 1.411z"/><path id="U" d="M218.989 144.304c0-.593.065-1.494.883-1.494s.883.901.883 1.494-.065 1.493-.883 1.493-.883-.901-.883-1.493zm-.575 0c0 .527.066 1.037.309 1.41s.645.599 1.149.599.907-.231 1.15-.599.308-.883.308-1.41-.065-1.037-.308-1.411c-.243-.367-.646-.598-1.15-.598s-.907.231-1.149.598c-.243.374-.309.883-.309 1.411z"/><path id="V" d="M228.937 144.304c0-.593.065-1.494.883-1.494s.883.901.883 1.494-.065 1.493-.883 1.493-.883-.901-.883-1.493zm-.575 0c0 .527.065 1.037.308 1.41s.646.599 1.15.599.907-.231 1.15-.599.308-.883.308-1.41-.065-1.037-.308-1.411c-.243-.367-.646-.598-1.15-.598s-.907.231-1.15.598c-.243.374-.308.883-.308 1.411z"/><path id="W" d="M199.093 153.193c0-.593.066-1.494.883-1.494s.883.901.883 1.494-.065 1.493-.883 1.493-.883-.901-.883-1.493zm-.574 0c0 .527.065 1.037.308 1.41.243.367.646.599 1.149.599s.907-.232 1.15-.599c.243-.373.308-.883.308-1.41s-.065-1.037-.308-1.411c-.243-.367-.646-.598-1.15-.598s-.906.231-1.149.598c-.243.374-.308.883-.308 1.411z"/><path id="X" d="M205.571 154.591v.522h2.459v-.522h-.924v-3.318h-.51c-.088.414-.456.711-.989.723v.409h.93v2.186h-.966z"/><path id="Y" d="M215.519 154.591v.522h2.459v-.522h-.924v-3.318h-.51c-.089.414-.456.711-.989.723v.409h.93v2.186h-.966z"/><path id="Z" d="M228.937 153.193c0-.593.065-1.494.883-1.494s.883.901.883 1.494-.065 1.493-.883 1.493-.883-.901-.883-1.493zm-.575 0c0 .527.065 1.037.308 1.41.243.367.646.599 1.15.599s.907-.232 1.15-.599c.243-.373.308-.883.308-1.41s-.065-1.037-.308-1.411c-.243-.367-.646-.598-1.15-.598s-.907.231-1.15.598c-.243.374-.308.883-.308 1.411z"/><path id="a" d="M245.363 154.591v.522h2.459v-.522h-.924v-3.318h-.51c-.089.414-.456.711-.99.723v.409h.931v2.186h-.966z"/><path id="b" d="M83.005 174.096c1.025 0 1.856-.831 1.856-1.856s-.831-1.856-1.856-1.856-1.856.831-1.856 1.856.831 1.856 1.856 1.856z"/><linearGradient id="c" gradientUnits="userSpaceOnUse"/></defs></svg>