<svg width="48" height="48" viewBox="0 0 48 48" fill="none" xmlns="http://www.w3.org/2000/svg">
<rect x="0.5" y="0.5" width="47" height="47" rx="3.5" fill="#3178C6"/>
<rect x="0.5" y="0.5" width="47" height="47" rx="3.5" stroke="#E4E8ED"/>
<path fill-rule="evenodd" clip-rule="evenodd" d="M29.713 38.196V42.8892C30.476 43.2803 31.3783 43.5736 32.4201 43.7692C33.4618 43.9647 34.5597 44.0625 35.714 44.0625C36.8389 44.0625 37.9074 43.955 38.9198 43.7398C39.9322 43.5248 40.82 43.1703 41.5829 42.6765C42.3458 42.1828 42.9499 41.5374 43.3949 40.7406C43.8399 39.9437 44.0625 38.9587 44.0625 37.7854C44.0625 36.9347 43.9354 36.1892 43.681 35.5488C43.4267 34.9084 43.0599 34.3388 42.5806 33.8402C42.1013 33.3415 41.5267 32.8942 40.8566 32.4982C40.1866 32.1022 39.431 31.7282 38.5897 31.3762C37.9735 31.122 37.4209 30.8752 36.9318 30.6356C36.4427 30.396 36.027 30.1516 35.6846 29.9023C35.3422 29.6529 35.0782 29.3889 34.8923 29.1103C34.7065 28.8316 34.6135 28.5163 34.6135 28.1643C34.6135 27.8417 34.6967 27.5508 34.863 27.2917C35.0293 27.0325 35.2641 26.8102 35.5672 26.6243C35.8705 26.4386 36.2422 26.2943 36.6823 26.1917C37.1226 26.089 37.6116 26.0377 38.1496 26.0377C38.5408 26.0377 38.9541 26.0671 39.3893 26.1257C39.8246 26.1844 40.2623 26.2748 40.7026 26.397C41.1428 26.5192 41.5706 26.6733 41.9864 26.859C42.4021 27.0448 42.786 27.2599 43.1381 27.5044V23.1191C42.4241 22.8454 41.644 22.6425 40.7979 22.5105C39.9518 22.3785 38.981 22.3125 37.8855 22.3125C36.7703 22.3125 35.714 22.4323 34.7163 22.6718C33.7186 22.9114 32.8407 23.2853 32.0826 23.7938C31.3245 24.3023 30.7254 24.95 30.2853 25.7371C29.8451 26.5241 29.625 27.4652 29.625 28.5603C29.625 29.9585 30.0285 31.1513 30.8355 32.1389C31.6424 33.1264 32.8675 33.9623 34.5109 34.6468C35.1564 34.9108 35.758 35.1698 36.3156 35.4241C36.8731 35.6783 37.3549 35.9423 37.7607 36.2161C38.1667 36.4898 38.487 36.7881 38.7218 37.1107C38.9566 37.4333 39.074 37.8 39.074 38.2107C39.074 38.5138 39.0006 38.7949 38.8538 39.054C38.7071 39.3131 38.4846 39.5379 38.1863 39.7286C37.8879 39.9193 37.5162 40.0684 37.0712 40.1759C36.6261 40.2835 36.1053 40.3372 35.5086 40.3372C34.4913 40.3372 33.4838 40.1588 32.4861 39.8019C31.4884 39.4451 30.564 38.9098 29.713 38.196ZM21.8231 26.6327H27.8438V22.7812H11.0625V26.6327H17.0537V43.7812H21.8231V26.6327Z" fill="white"/>
</svg>
