<svg width="26" height="26" viewBox="0 0 26 26" fill="none" xmlns="http://www.w3.org/2000/svg">
<path d="M25 13C25 19.6274 19.6274 25 13 25C6.37258 25 1 19.6274 1 13C1 6.37258 6.37258 1 13 1C19.6274 1 25 6.37258 25 13Z" fill="#F7B808" stroke="#0B101C" stroke-width="0.5"/>
<circle cx="12.9334" cy="12.9325" r="8.33333" stroke="#0B101C" stroke-width="0.5"/>
<path d="M17.128 3.97897C17.254 3.97897 17.3562 3.877 17.3562 3.7512C17.3562 3.62541 17.254 3.52344 17.128 3.52344C17.002 3.52344 16.8999 3.62541 16.8999 3.7512C16.8999 3.877 17.002 3.97897 17.128 3.97897Z" fill="#0B101C" stroke="#0B101C" stroke-width="0.333333"/>
<path d="M12.9625 3.13668C13.0885 3.13668 13.1906 3.03471 13.1906 2.90892C13.1906 2.78313 13.0885 2.68115 12.9625 2.68115C12.8365 2.68115 12.7344 2.78313 12.7344 2.90892C12.7344 3.03471 12.8365 3.13668 12.9625 3.13668Z" fill="#0B101C" stroke="#0B101C" stroke-width="0.333333"/>
<path d="M8.8126 4.06247C8.9386 4.06247 9.04073 3.96049 9.04073 3.8347C9.04073 3.70891 8.9386 3.60693 8.8126 3.60693C8.68661 3.60693 8.58447 3.70891 8.58447 3.8347C8.58447 3.96049 8.68661 4.06247 8.8126 4.06247Z" fill="#0B101C" stroke="#0B101C" stroke-width="0.333333"/>
<path d="M5.39708 6.59079C5.52307 6.59079 5.62521 6.48881 5.62521 6.36302C5.62521 6.23723 5.52307 6.13525 5.39708 6.13525C5.27108 6.13525 5.16895 6.23723 5.16895 6.36302C5.16895 6.48881 5.27108 6.59079 5.39708 6.59079Z" fill="#0B101C" stroke="#0B101C" stroke-width="0.333333"/>
<path d="M3.30919 10.2868C3.43518 10.2868 3.53732 10.1849 3.53732 10.0591C3.53732 9.93327 3.43518 9.8313 3.30919 9.8313C3.18319 9.8313 3.08105 9.93327 3.08105 10.0591C3.08105 10.1849 3.18319 10.2868 3.30919 10.2868Z" fill="#0B101C" stroke="#0B101C" stroke-width="0.333333"/>
<path d="M2.90635 14.511C3.03235 14.511 3.13448 14.409 3.13448 14.2832C3.13448 14.1574 3.03235 14.0554 2.90635 14.0554C2.78036 14.0554 2.67822 14.1574 2.67822 14.2832C2.67822 14.409 2.78036 14.511 2.90635 14.511Z" fill="#0B101C" stroke="#0B101C" stroke-width="0.333333"/>
<path d="M4.26231 18.5344C4.3883 18.5344 4.49044 18.4324 4.49044 18.3066C4.49044 18.1808 4.3883 18.0789 4.26231 18.0789C4.13632 18.0789 4.03418 18.1808 4.03418 18.3066C4.03418 18.4324 4.13632 18.5344 4.26231 18.5344Z" fill="#0B101C" stroke="#0B101C" stroke-width="0.333333"/>
<path d="M7.13731 21.6618C7.2633 21.6618 7.36544 21.5599 7.36544 21.4341C7.36544 21.3083 7.2633 21.2063 7.13731 21.2063C7.01132 21.2063 6.90918 21.3083 6.90918 21.4341C6.90918 21.5599 7.01132 21.6618 7.13731 21.6618Z" fill="#0B101C" stroke="#0B101C" stroke-width="0.333333"/>
<path d="M11.0377 23.3486C11.1637 23.3486 11.2658 23.2466 11.2658 23.1208C11.2658 22.995 11.1637 22.8931 11.0377 22.8931C10.9117 22.8931 10.8096 22.995 10.8096 23.1208C10.8096 23.2466 10.9117 23.3486 11.0377 23.3486Z" fill="#0B101C" stroke="#0B101C" stroke-width="0.333333"/>
<path d="M15.2877 23.3056C15.4137 23.3056 15.5158 23.2037 15.5158 23.0779C15.5158 22.9521 15.4137 22.8501 15.2877 22.8501C15.1617 22.8501 15.0596 22.9521 15.0596 23.0779C15.0596 23.2037 15.1617 23.3056 15.2877 23.3056Z" fill="#0B101C" stroke="#0B101C" stroke-width="0.333333"/>
<path d="M19.1529 21.5407C19.2789 21.5407 19.3811 21.4388 19.3811 21.313C19.3811 21.1872 19.2789 21.0852 19.1529 21.0852C19.0269 21.0852 18.9248 21.1872 18.9248 21.313C18.9248 21.4388 19.0269 21.5407 19.1529 21.5407Z" fill="#0B101C" stroke="#0B101C" stroke-width="0.333333"/>
<path d="M21.9689 18.3586C22.0948 18.3586 22.197 18.2566 22.197 18.1308C22.197 18.0051 22.0948 17.9031 21.9689 17.9031C21.8429 17.9031 21.7407 18.0051 21.7407 18.1308C21.7407 18.2566 21.8429 18.3586 21.9689 18.3586Z" fill="#0B101C" stroke="#0B101C" stroke-width="0.333333"/>
<path d="M23.2408 14.3071C23.3668 14.3071 23.469 14.2051 23.469 14.0793C23.469 13.9535 23.3668 13.8516 23.2408 13.8516C23.1148 13.8516 23.0127 13.9535 23.0127 14.0793C23.0127 14.2051 23.1148 14.3071 23.2408 14.3071Z" fill="#0B101C" stroke="#0B101C" stroke-width="0.333333"/>
<path d="M22.7565 10.0915C22.8824 10.0915 22.9846 9.98954 22.9846 9.86375C22.9846 9.73796 22.8824 9.63599 22.7565 9.63599C22.6305 9.63599 22.5283 9.73796 22.5283 9.86375C22.5283 9.98954 22.6305 10.0915 22.7565 10.0915Z" fill="#0B101C" stroke="#0B101C" stroke-width="0.333333"/>
<path d="M20.5904 6.43673C20.7164 6.43673 20.8186 6.33476 20.8186 6.20897C20.8186 6.08318 20.7164 5.9812 20.5904 5.9812C20.4644 5.9812 20.3623 6.08318 20.3623 6.20897C20.3623 6.33476 20.4644 6.43673 20.5904 6.43673Z" fill="#0B101C" stroke="#0B101C" stroke-width="0.333333"/>
</svg>
