<svg width="373" height="209" viewBox="0 0 373 209" fill="none" xmlns="http://www.w3.org/2000/svg">
<g clip-path="url(#clip0_2796_6322)">
<rect y="-1" width="372.667" height="209" fill="#16204C"/>
<g clip-path="url(#clip1_2796_6322)">
<mask id="mask0_2796_6322" style="mask-type:luminance" maskUnits="userSpaceOnUse" x="106" y="36" width="159" height="135">
<path d="M106.904 36H264.763V170.693H106.904V36Z" fill="white"/>
</mask>
<g mask="url(#mask0_2796_6322)">
<path d="M152.723 124.93V86.6082L185.834 67.4492L218.945 86.6082V124.93L185.834 144.091L152.723 124.93Z" fill="url(#paint0_linear_2796_6322)"/>
<path d="M166.671 116.858V94.6814L185.833 83.5918L204.995 94.6814V116.858L185.833 127.946L166.671 116.858Z" fill="url(#paint1_linear_2796_6322)"/>
<path d="M152.723 124.93V86.6082L185.834 67.4492L218.945 86.6082V124.93L185.834 144.091L152.723 124.93Z" fill="url(#paint2_linear_2796_6322)"/>
<path d="M166.671 116.858V94.6814L185.833 83.5918L204.995 94.6814V116.858L185.833 127.946L166.671 116.858Z" fill="url(#paint3_linear_2796_6322)"/>
<path d="M152.723 124.93V86.6082L185.834 67.4492L218.945 86.6082V124.93L185.834 144.091L152.723 124.93Z" fill="url(#paint4_linear_2796_6322)"/>
<path d="M166.671 116.858V94.6814L185.833 83.5918L204.995 94.6814V116.858L185.833 127.946L166.671 116.858Z" fill="url(#paint5_linear_2796_6322)"/>
<path d="M185.833 97.0305L178.268 101.384V110.135L185.811 114.517L193.377 110.169V101.42L185.833 97.0305ZM185.833 90.6035L188.609 92.2174L196.166 96.6073L198.942 98.2191V113.385L196.166 114.985L188.601 119.34L185.827 120.936L183.052 119.322L175.504 114.94L172.729 113.334V98.16L175.504 96.5605L183.07 92.2052L185.833 90.6035Z" fill="white"/>
<path d="M194.23 159.067L193.472 161.407H191.018L193.003 162.853L192.244 165.194L194.23 163.748L196.216 165.194L195.458 162.853L197.444 161.407H194.989L194.23 159.067ZM186.565 161.407H189.02L187.034 162.853L187.791 165.194L185.807 163.748L183.819 165.194L184.579 162.853L182.593 161.407H185.048L185.807 159.067L186.565 161.407ZM178.14 161.407H180.597L178.609 162.853L179.369 165.194L177.383 163.748L175.397 165.194L176.156 162.853L174.168 161.407H176.625L177.383 159.067L178.14 161.407Z" fill="white"/>
<path d="M209.607 50.2806C209.607 50.2806 206.837 43.9859 200.555 44.5415C194.273 45.0971 192.433 41.7636 192.433 41.7636C192.433 41.7636 190.945 51.4732 198.346 52.5031C204.504 53.3599 206.651 49.1694 209.607 50.2806ZM211.341 48.5671C206.283 46.4851 208.092 37.5264 210.935 36C210.797 37.6648 213.152 41.2772 217.863 44.0551C222.574 46.8331 220.909 54.1231 220.909 54.1231C219.516 51.8315 216.399 50.6511 211.341 48.5671ZM224.082 54.1231C219.818 50.6856 223.094 42.5043 226.811 41.6028C226.202 43.1617 227.441 47.3012 231.173 51.2982C234.905 55.2953 231.245 61.82 231.245 61.82C230.567 59.2272 228.342 57.5584 224.082 54.1231ZM234.743 61.822C231.333 57.536 235.841 49.7271 239.751 49.7271C238.821 51.115 239.13 55.4255 241.902 60.139C244.673 64.8523 239.685 70.4246 239.685 70.4246C239.584 67.7464 238.155 66.0958 234.743 61.822ZM211.132 62.8051C207.808 60.3038 201.779 61.9014 201.779 61.9014C201.779 61.9014 202.127 54.4711 209.262 53.1502C216.397 51.8294 220.486 55.9201 220.486 55.9201C217.229 55.5131 213.142 58.5658 211.132 62.8029V62.8051ZM220.013 68.0679C217.4 64.8279 211.164 64.8992 211.164 64.8992C211.164 64.8992 213.315 57.7761 220.555 58.2504C227.796 58.7246 230.761 63.6964 230.761 63.6964C227.705 62.4916 222.992 64.4514 220.013 68.0658V68.0679ZM228.631 75.0993C227.087 71.2326 221.118 69.4519 221.118 69.4519C221.118 69.4519 225.264 63.2854 232.042 65.8923C238.82 68.4995 240.184 74.1184 240.184 74.1184C237.612 72.0528 232.535 72.529 228.631 75.0974V75.0993ZM243.604 72.9462C240.784 68.249 245.54 61.1138 250.185 61.6714C249.08 62.9251 248.825 67.2314 250.954 72.2746C253.084 77.3177 247.412 82.1736 247.412 82.1736C247.663 79.5116 246.423 77.6352 243.604 72.9442V72.9462ZM249.975 86.1116C248.239 80.9139 254.426 74.9875 258.84 76.5464C257.489 77.5293 256.308 81.6771 257.295 87.0641C258.282 92.4512 251.696 95.9597 251.696 95.9597C252.517 93.4036 251.713 91.3033 249.975 86.1096V86.1116ZM252.867 100.419C252.156 94.9829 259.364 90.355 263.393 92.7259C261.882 93.4321 259.929 97.2765 259.867 102.753C259.807 108.23 252.674 110.407 252.674 110.407C253.965 108.065 253.579 105.849 252.867 100.417V100.419ZM252.394 115.886C253.377 110.495 261.648 108.297 264.763 111.791C263.111 111.995 260.077 115.062 258.347 120.257C256.618 125.453 249.159 125.345 249.159 125.345C251.104 123.508 251.419 121.281 252.394 115.89V115.886ZM247.474 131.15C249.862 126.218 258.418 126.326 260.485 130.539C258.834 130.295 255.096 132.428 252.04 136.966C248.985 141.504 241.829 139.39 241.829 139.39C244.195 138.14 245.088 136.087 247.474 131.16V131.15ZM238.723 144.653C242.276 140.483 250.53 142.748 251.474 147.337C249.937 146.684 245.788 147.805 241.68 151.428C237.573 155.05 231.189 151.198 231.189 151.198C233.79 150.593 235.175 148.823 238.723 144.653ZM228.231 155.154C232.998 152.468 239.968 157.446 239.279 162.074C238.061 160.929 233.774 160.546 228.679 162.527C223.585 164.51 218.909 158.695 218.909 158.695C221.558 159.023 223.467 157.841 228.231 155.156V155.154ZM214.492 161.814C219.676 160.071 225.591 166.27 224.05 170.69C223.065 169.339 218.929 168.155 213.554 169.146C208.18 170.137 204.677 163.539 204.677 163.539C207.217 164.359 209.31 163.556 214.492 161.814ZM235.91 84.5404C235.837 80.3766 230.883 76.5871 230.883 76.5871C230.883 76.5871 236.943 72.301 242.361 77.1386C247.779 81.9762 247.063 87.7215 247.063 87.7215C245.395 84.8925 240.479 83.531 235.91 84.5404ZM239.642 96.4074C240.251 92.2883 235.987 87.7316 235.987 87.7316C235.987 87.7316 242.675 84.508 247.221 90.1738C251.768 95.8397 250.111 101.394 250.111 101.394C248.944 98.3266 244.312 96.1714 239.642 96.4074ZM241.278 108.071C243.42 104.503 241.228 98.6542 241.228 98.6542C241.228 98.6542 248.637 98.2473 250.667 105.232C252.698 112.217 249.043 116.704 249.043 116.704C249.133 113.415 245.687 109.648 241.281 108.071H241.278ZM238.909 119.808C242.227 117.294 242.361 111.057 242.361 111.057C242.361 111.057 249.388 113.442 248.675 120.683C247.962 127.924 242.905 130.728 242.905 130.728C244.212 127.7 242.415 122.915 238.911 119.808H238.909ZM232.917 130.099C236.606 128.18 237.79 122.044 237.79 122.044C237.79 122.044 244.312 125.579 242.405 132.597C240.499 139.614 235.035 141.529 235.035 141.529C236.826 138.771 235.855 133.753 232.919 130.099H232.917ZM225.309 139.724C228.852 138.617 230.852 133.415 230.852 133.415C230.852 133.415 236.038 137.548 233.252 143.413C230.466 149.279 225.374 150.101 225.374 150.101C227.382 147.956 227.317 143.393 225.311 139.724H225.309ZM216.817 146.405C220.448 146.202 223.599 141.755 223.599 141.755C223.599 141.755 227.526 146.93 223.471 151.825C219.416 156.719 214.385 156.268 214.385 156.268C216.803 154.721 217.841 150.374 216.819 146.405H216.817ZM207.13 150.897C210.614 151.344 214.383 147.655 214.383 147.655C214.383 147.655 217.225 153.258 212.519 157.206C207.812 161.154 203.109 159.851 203.109 159.851C205.678 158.799 207.416 154.849 207.132 150.897H207.13Z" fill="url(#paint6_linear_2796_6322)"/>
<path d="M173.328 52.5038C180.729 51.4739 179.241 41.7642 179.241 41.7642C179.241 41.7642 177.393 45.0978 171.119 44.5422C164.845 43.9866 162.065 50.2813 162.065 50.2813C165.015 49.1701 167.153 53.3606 173.328 52.5038ZM150.767 54.1318C150.767 54.1318 149.104 46.8399 153.813 44.0639C158.522 41.288 160.879 37.6735 160.741 36.0088C163.584 37.5352 165.381 46.4939 160.335 48.5759C155.289 50.6579 152.152 51.8321 150.767 54.1238V54.1318ZM140.412 61.8288C140.412 61.8288 136.757 55.3163 140.485 51.3071C144.213 47.2978 145.453 43.1664 144.848 41.6116C148.564 42.5131 151.835 50.6945 147.577 54.1318C143.319 57.5692 141.1 59.2279 140.42 61.8227L140.412 61.8288ZM131.975 70.4314C131.975 70.4314 126.988 64.8693 129.757 60.1458C132.527 55.4221 132.836 51.1218 131.906 49.7339C135.819 49.7339 140.324 57.5427 136.917 61.8288C133.51 66.1149 132.085 67.747 131.983 70.4232L131.975 70.4314ZM151.181 55.9207C151.181 55.9207 155.269 51.8239 162.406 53.1427C169.543 54.4615 169.886 61.8939 169.886 61.8939C169.886 61.8939 163.86 60.2964 160.534 62.7976C158.526 58.5665 154.438 55.5138 151.181 55.9207ZM140.907 63.6868C140.907 63.6868 143.872 58.7109 151.112 58.2408C158.353 57.7707 160.501 64.8897 160.501 64.8897C160.501 64.8897 154.268 64.8185 151.654 68.0584C148.676 64.4521 143.963 62.4923 140.907 63.695V63.6868ZM131.483 74.1008C131.483 74.1008 132.838 68.4776 139.626 65.893C146.414 63.3083 150.556 69.4606 150.556 69.4606C150.556 69.4606 144.58 71.2414 143.043 75.1082C139.122 72.5296 134.056 72.0534 131.483 74.109V74.1008ZM124.255 82.1702C124.255 82.1702 118.586 77.3123 120.714 72.265C122.842 67.2179 122.588 62.9156 121.483 61.662C126.127 61.1043 130.884 68.2396 128.064 72.9367C125.244 77.6338 124.005 79.5123 124.255 82.1743V82.1702ZM119.973 95.9442C119.973 95.9442 113.386 92.4355 114.372 87.0484C115.359 81.6614 114.169 77.5137 112.827 76.5308C117.24 74.9779 123.428 80.9043 121.69 86.096C119.952 91.2877 119.15 93.4042 119.973 95.9522V95.9442ZM118.994 110.394C118.994 110.394 111.863 108.216 111.8 102.739C111.737 97.2629 109.786 93.4184 108.275 92.7123C112.307 90.3413 119.51 94.9693 118.801 100.405C118.092 105.841 117.702 108.066 118.994 110.406V110.394ZM122.509 125.33C122.509 125.33 115.053 125.446 113.321 120.242C111.589 115.038 108.557 111.985 106.904 111.776C110.019 108.281 118.291 110.479 119.274 115.87C120.257 121.261 120.563 123.508 122.509 125.342V125.33ZM129.837 139.372C129.837 139.372 122.687 141.487 119.627 136.948C116.567 132.41 112.833 130.277 111.183 130.521C113.25 126.317 121.804 126.209 124.192 131.132C126.58 136.055 127.473 138.141 129.837 139.393V139.372ZM140.479 151.176C140.479 151.176 134.091 155.025 129.987 151.406C125.883 147.788 121.731 146.662 120.194 147.315C121.138 142.726 129.392 140.461 132.943 144.631C136.495 148.801 137.877 150.594 140.479 151.201V151.176ZM152.757 158.696C152.757 158.696 148.087 164.517 142.988 162.539C137.89 160.561 133.607 160.941 132.389 162.084C131.699 157.451 138.669 152.473 143.435 155.165C148.201 157.858 150.109 159.024 152.757 158.696ZM166.991 163.539C166.991 163.539 163.488 170.133 158.113 169.149C152.739 168.164 148.603 169.342 147.618 170.693C146.077 166.273 151.992 160.074 157.175 161.817C162.359 163.558 164.451 164.359 166.991 163.539ZM124.604 87.7241C124.604 87.7241 123.887 81.9769 129.305 77.1413C134.722 72.3058 140.785 76.5897 140.785 76.5897C140.785 76.5897 135.831 80.3793 135.758 84.5432C131.189 83.5317 126.273 84.8932 124.604 87.7241ZM121.546 101.396C121.546 101.396 119.887 95.8443 124.436 90.1764C128.984 84.5085 135.67 87.7343 135.67 87.7343C135.67 87.7343 131.406 92.291 132.015 96.4102C127.355 96.172 122.724 98.3272 121.546 101.396ZM122.622 116.705C122.622 116.705 118.967 112.215 120.998 105.233C123.028 98.2499 130.438 98.659 130.438 98.659C130.438 98.659 128.245 104.508 130.387 108.076C125.981 109.649 122.535 113.416 122.622 116.705ZM128.757 130.721C128.757 130.721 123.692 127.916 122.986 120.675C122.279 113.434 129.301 111.049 129.301 111.049C129.301 111.049 129.439 117.295 132.752 119.8C129.25 122.916 127.453 127.701 128.757 130.721ZM136.631 141.53C136.631 141.53 131.171 139.617 129.262 132.597C127.353 125.578 133.875 122.045 133.875 122.045C133.875 122.045 135.059 128.181 138.749 130.1C135.812 133.753 134.842 138.772 136.631 141.53ZM146.292 150.097C146.292 150.097 141.191 149.284 138.411 143.41C135.632 137.537 140.812 133.411 140.812 133.411C140.812 133.411 142.814 138.617 146.357 139.72C144.351 143.394 144.286 147.957 146.292 150.097ZM157.281 156.268C157.281 156.268 152.243 156.722 148.192 151.825C144.142 146.929 148.065 141.755 148.065 141.755C148.065 141.755 151.218 146.212 154.848 146.406C153.825 150.374 154.865 154.721 157.281 156.268ZM168.556 159.85C168.556 159.85 163.844 161.156 159.147 157.204C154.45 153.252 157.283 147.653 157.283 147.653C157.283 147.653 161.052 151.343 164.536 150.895C164.252 154.85 165.99 158.8 168.556 159.85Z" fill="url(#paint7_linear_2796_6322)"/>
</g>
</g>
</g>
<defs>
<linearGradient id="paint0_linear_2796_6322" x1="185.834" y1="156.617" x2="185.834" y2="96.3911" gradientUnits="userSpaceOnUse">
<stop offset="0.22" stop-color="#0B152D"/>
<stop offset="0.91" stop-color="#2E59DA"/>
</linearGradient>
<linearGradient id="paint1_linear_2796_6322" x1="185.833" y1="84.2064" x2="185.833" y2="132.153" gradientUnits="userSpaceOnUse">
<stop offset="0.14" stop-color="#0B152D"/>
<stop offset="0.83" stop-color="#2E59DA"/>
</linearGradient>
<linearGradient id="paint2_linear_2796_6322" x1="185.834" y1="156.617" x2="185.834" y2="96.3911" gradientUnits="userSpaceOnUse">
<stop offset="0.22" stop-color="#0B152D"/>
<stop offset="0.91" stop-color="#2E59DA"/>
</linearGradient>
<linearGradient id="paint3_linear_2796_6322" x1="185.833" y1="84.2064" x2="185.833" y2="132.153" gradientUnits="userSpaceOnUse">
<stop offset="0.14" stop-color="#0B152D"/>
<stop offset="0.83" stop-color="#2E59DA"/>
</linearGradient>
<linearGradient id="paint4_linear_2796_6322" x1="185.834" y1="156.617" x2="185.834" y2="96.3911" gradientUnits="userSpaceOnUse">
<stop offset="0.22" stop-color="#0B152D"/>
<stop offset="0.91" stop-color="#2E59DA"/>
</linearGradient>
<linearGradient id="paint5_linear_2796_6322" x1="185.833" y1="84.2064" x2="185.833" y2="132.153" gradientUnits="userSpaceOnUse">
<stop offset="0.14" stop-color="#0B152D"/>
<stop offset="0.83" stop-color="#2E59DA"/>
</linearGradient>
<linearGradient id="paint6_linear_2796_6322" x1="228.537" y1="36" x2="228.537" y2="170.69" gradientUnits="userSpaceOnUse">
<stop stop-color="white"/>
<stop offset="1" stop-color="#DFE7FB"/>
</linearGradient>
<linearGradient id="paint7_linear_2796_6322" x1="143.134" y1="36.0088" x2="143.134" y2="170.693" gradientUnits="userSpaceOnUse">
<stop stop-color="white"/>
<stop offset="1" stop-color="#DFE7FB"/>
</linearGradient>
<clipPath id="clip0_2796_6322">
<rect width="372.667" height="209" fill="white" transform="translate(0 -1)"/>
</clipPath>
<clipPath id="clip1_2796_6322">
<rect width="157.859" height="135" fill="white" transform="translate(106.904 36)"/>
</clipPath>
</defs>
</svg>
