<?xml version="1.0" encoding="UTF-8" standalone="no"?>
<svg
   width="169.5686"
   height="37.254799"
   viewBox="0 0 169.56861 37.254799"
   fill="none"
   version="1.1"
   id="svg14"
   sodipodi:docname="chainlink-docs.svg"
   inkscape:version="1.3.1 (9b9bdc1480, 2023-11-25, custom)"
   xmlns:inkscape="http://www.inkscape.org/namespaces/inkscape"
   xmlns:sodipodi="http://sodipodi.sourceforge.net/DTD/sodipodi-0.dtd"
   xmlns="http://www.w3.org/2000/svg"
   xmlns:svg="http://www.w3.org/2000/svg">
  <defs
     id="defs14" />
  <sodipodi:namedview
     id="namedview14"
     pagecolor="#ffffff"
     bordercolor="#666666"
     borderopacity="1.0"
     inkscape:showpageshadow="2"
     inkscape:pageopacity="0.0"
     inkscape:pagecheckerboard="0"
     inkscape:deskcolor="#d1d1d1"
     inkscape:zoom="4.9726776"
     inkscape:cx="91.5"
     inkscape:cy="18.501099"
     inkscape:window-width="1920"
     inkscape:window-height="1011"
     inkscape:window-x="0"
     inkscape:window-y="0"
     inkscape:window-maximized="1"
     inkscape:current-layer="svg14" />
  <path
     d="m 41.8838,18.3925 c -0.0324,-0.8882 0.116,-1.7737 0.4364,-2.6033 0.3204,-0.8297 0.8062,-1.5864 1.4281,-2.2247 0.6219,-0.6384 1.3671,-1.1451 2.1909,-1.4899 0.8239,-0.3447 1.7093,-0.5203 2.6031,-0.5163 3.3678,0 5.3611,1.9648 5.9625,4.2714 l -2.1135,0.709 c -0.186,-0.86 -0.6776,-1.6244 -1.3845,-2.1532 -0.707,-0.5288 -1.582,-0.7864 -2.4645,-0.7257 -2.1823,0 -4.3645,1.5804 -4.3645,4.7754 0,3.195 2.1307,4.7156 4.3902,4.7156 0.8874,0.0256 1.7578,-0.2459 2.4714,-0.7711 0.7136,-0.5252 1.229,-1.2735 1.4636,-2.1249 l 2.0533,0.6663 c -0.3515,1.2999 -1.1398,2.4409 -2.2339,3.2335 -1.0941,0.7926 -2.4281,1.189 -3.7801,1.1233 -0.9019,0.0168 -1.7975,-0.1518 -2.6307,-0.4954 -0.8332,-0.3436 -1.586,-0.8547 -2.2111,-1.5012 -0.6252,-0.6464 -1.1093,-1.4144 -1.4219,-2.2557 -0.3126,-0.8413 -0.447,-1.7377 -0.3948,-2.6331 z"
     fill="#375bd2"
     id="path1" />
  <path
     d="m 58.6287,24.9619 h -2.165 V 11.5241 h 2.165 v 5.2709 c 0.3154,-0.3708 0.7111,-0.6656 1.1575,-0.8624 0.4465,-0.1968 0.932,-0.2904 1.42,-0.2738 2.2424,0 3.3249,1.5975 3.3249,3.588 v 5.7151 h -2.1049 v -5.3478 c 0.0395,-0.2601 0.0195,-0.5258 -0.0585,-0.7772 -0.078,-0.2514 -0.2119,-0.4821 -0.3918,-0.675 -0.18,-0.1929 -0.4013,-0.3429 -0.6476,-0.4391 -0.2463,-0.0961 -0.5112,-0.1359 -0.7751,-0.1162 -0.2618,2e-4 -0.5207,0.0545 -0.7604,0.1594 -0.2396,0.105 -0.4547,0.2583 -0.6316,0.4503 -0.1769,0.1919 -0.3117,0.4183 -0.396,0.6648 -0.0843,0.2466 -0.1161,0.5078 -0.0935,0.7672 z"
     fill="#375bd2"
     id="path2" />
  <path
     d="m 69.3682,19.785 2.3283,-0.3588 c 0.5241,-0.0684 0.6701,-0.3332 0.6701,-0.6493 0,-0.7603 -0.5155,-1.3754 -1.7183,-1.3754 -0.2319,-0.0198 -0.4655,0.0075 -0.6865,0.0801 -0.2211,0.0727 -0.425,0.1892 -0.5993,0.3426 -0.1744,0.1534 -0.3155,0.3404 -0.415,0.5497 -0.0994,0.2093 -0.1551,0.4365 -0.1635,0.6678 l -1.9761,-0.4442 c 0.1632,-1.5633 1.5894,-2.9558 3.8232,-2.9558 2.8009,0 3.8662,1.5804 3.8662,3.4171 v 4.485 c -0.0049,0.4863 0.0324,0.9722 0.1117,1.4522 H 72.59 c -0.0693,-0.3803 -0.0981,-0.7669 -0.0859,-1.1532 -0.3016,0.4596 -0.7186,0.833 -1.2098,1.0832 -0.4913,0.2502 -1.0397,0.3686 -1.5911,0.3434 -0.3843,0.0314 -0.7712,-0.015 -1.137,-0.1364 -0.3658,-0.1215 -0.7031,-0.3154 -0.9914,-0.5701 -0.2883,-0.2548 -0.5217,-0.565 -0.686,-0.9119 -0.1643,-0.347 -0.2561,-0.7235 -0.2699,-1.1067 0,-1.6488 1.1942,-2.5372 2.7493,-2.7593 z m 2.9984,1.4522 v -0.41 l -2.3712,0.3502 c -0.3223,0.011 -0.6279,0.1449 -0.8534,0.3739 -0.2256,0.2291 -0.3538,0.5357 -0.358,0.8563 0.0027,0.1655 0.0399,0.3286 0.1093,0.479 0.0694,0.1505 0.1695,0.2849 0.2938,0.3949 0.1244,0.11 0.2704,0.1932 0.4287,0.2442 0.1584,0.051 0.3256,0.0688 0.4913,0.0522 0.3128,0.0318 0.6289,-0.0078 0.9241,-0.1157 0.2952,-0.1078 0.5619,-0.2812 0.7797,-0.5068 0.2178,-0.2256 0.381,-0.4976 0.4773,-0.7953 0.0963,-0.2977 0.1231,-0.6133 0.0784,-0.9229 z"
     fill="#375bd2"
     id="path3" />
  <path
     d="m 78.1745,11.3362 c 0.1876,-0.0023 0.3738,0.0325 0.5478,0.1024 0.174,0.0698 0.3323,0.1732 0.4657,0.3044 0.1335,0.1311 0.2395,0.2872 0.3118,0.4594 0.0723,0.1721 0.1095,0.3568 0.1095,0.5434 0,0.3715 -0.1484,0.7279 -0.4127,0.9906 -0.2642,0.2628 -0.6226,0.4104 -0.9963,0.4104 -0.3737,0 -0.7321,-0.1476 -0.9963,-0.4104 -0.2643,-0.2627 -0.4127,-0.6191 -0.4127,-0.9906 -1e-4,-0.368 0.1445,-0.7215 0.403,-0.9849 0.2584,-0.2633 0.6102,-0.4158 0.9802,-0.4247 z m -1.0567,13.6684 v -9.0809 h 2.1393 v 9.0382 z"
     fill="#375bd2"
     id="path4" />
  <path
     d="m 84.223,24.9619 h -2.1651 v -9.0383 h 2.1135 v 1.2046 c 0.2743,-0.4624 0.6688,-0.8429 1.1419,-1.1014 0.4732,-0.2586 1.0077,-0.3857 1.5473,-0.368 2.2166,0 3.2819,1.5975 3.2819,3.588 v 5.7151 h -2.165 v -5.3478 c 0,-1.1106 -0.5069,-2.0075 -1.8644,-2.0075 -0.2702,0.0016 -0.537,0.06 -0.7829,0.1715 -0.2458,0.1114 -0.4652,0.2732 -0.6437,0.4749 -0.1785,0.2017 -0.3121,0.4387 -0.392,0.6953 -0.0799,0.2567 -0.1042,0.5273 -0.0715,0.7939 z"
     fill="#375bd2"
     id="path5" />
  <path
     d="M 92.7802,24.9619 V 11.5241 h 2.165 v 13.4378 z"
     fill="#375bd2"
     id="path6" />
  <path
     d="m 98.8114,11.3362 c 0.376,0 0.7365,0.1485 1.0024,0.4128 0.2662,0.2644 0.4152,0.6229 0.4152,0.9967 -0.002,0.2764 -0.086,0.5461 -0.241,0.7752 -0.1555,0.229 -0.3756,0.4073 -0.6327,0.5123 -0.2572,0.1049 -0.5398,0.132 -0.8123,0.0776 -0.2725,-0.0543 -0.5228,-0.1875 -0.7193,-0.383 -0.1965,-0.1954 -0.3306,-0.4442 -0.3852,-0.7152 -0.0546,-0.271 -0.0275,-0.552 0.0781,-0.8076 0.1056,-0.2557 0.2849,-0.4745 0.5153,-0.6291 0.2303,-0.1546 0.5016,-0.238 0.7795,-0.2397 z m -1.0653,13.6684 v -9.081 h 2.1478 v 9.0383 z"
     fill="#375bd2"
     id="path7" />
  <path
     d="m 104.86,24.9619 h -2.165 v -9.0382 h 2.105 v 1.2045 c 0.275,-0.4612 0.67,-0.8406 1.143,-1.099 0.473,-0.2584 1.007,-0.3862 1.546,-0.3704 2.225,0 3.29,1.5975 3.29,3.588 v 5.7151 h -2.165 v -5.3478 c 0.04,-0.2601 0.02,-0.5258 -0.058,-0.7772 -0.078,-0.2514 -0.212,-0.4821 -0.392,-0.675 -0.18,-0.1928 -0.401,-0.3429 -0.648,-0.4391 -0.246,-0.0961 -0.511,-0.1359 -0.775,-0.1162 -0.269,0.0015 -0.536,0.0599 -0.781,0.1714 -0.246,0.1115 -0.465,0.2735 -0.643,0.4754 -0.178,0.2018 -0.31,0.4389 -0.389,0.6956 -0.079,0.2567 -0.102,0.527 -0.068,0.7933 z"
     fill="#375bd2"
     id="path8" />
  <path
     d="M 118.185,19.7422 122,24.9619 h -2.655 l -2.672,-3.7247 -1.117,1.1704 v 2.5628 h -2.148 V 11.5241 h 2.148 v 8.0558 l 3.489,-3.6563 h 2.878 z"
     fill="#375bd2"
     id="path9" />
  <path
     d="m 16.2294,7.89348 9.3648,5.34772 v 10.7382 l -9.339,5.382 -9.36478,-5.3392 V 13.2839 Z M 16.2294,0 12.7928,1.98191 3.43662,7.37237 0,9.3543 v 3.9467 10.7297 3.9467 l 3.43662,1.9649 9.36478,5.3477 3.4366,1.9648 3.4367,-1.9819 9.339,-5.3904 3.4366,-1.9734 V 23.9624 13.2241 9.2774 L 29.0137,7.31257 19.6489,1.96482 16.2123,0 Z"
     fill="#375bd2"
     id="path10" />
  <path
     d="m 132.56461,23.02 v -8.802 h 2.286 c 2.214,0 4.032,1.44 4.032,4.428 0,2.952 -1.836,4.374 -4.05,4.374 z m 2.34,1.98 c 3.456,0 6.228,-2.268 6.228,-6.354 0,-4.104 -2.736,-6.408 -6.21,-6.408 h -4.518 V 25 Z"
     fill="#375bd2"
     id="path11" />
  <path
     d="m 147.10161,23.398 c -1.278,0 -2.448,-0.972 -2.448,-2.79 0,-1.818 1.17,-2.754 2.448,-2.754 1.296,0 2.448,0.936 2.448,2.754 0,1.836 -1.152,2.79 -2.448,2.79 z m 0,-7.434 c -2.61,0 -4.536,1.962 -4.536,4.644 0,2.7 1.926,4.662 4.536,4.662 2.628,0 4.554,-1.962 4.554,-4.662 0,-2.682 -1.926,-4.644 -4.554,-4.644 z"
     fill="#375bd2"
     id="path12" />
  <path
     d="m 157.48961,17.89 c 1.332,0 1.926,0.864 2.124,1.638 l 1.872,-0.684 c -0.36,-1.404 -1.656,-2.88 -4.014,-2.88 -2.52,0 -4.482,1.944 -4.482,4.644 0,2.664 1.962,4.662 4.536,4.662 2.304,0 3.618,-1.494 4.032,-2.862 l -1.836,-0.666 c -0.198,0.666 -0.828,1.62 -2.196,1.62 -1.314,0 -2.448,-0.99 -2.448,-2.754 0,-1.764 1.134,-2.718 2.412,-2.718 z"
     fill="#375bd2"
     id="path13" />
  <path
     d="m 162.63861,22.624 c 0.108,0.99 1.079,2.646 3.618,2.646 2.232,0 3.312,-1.476 3.312,-2.808 0,-1.296 -0.865,-2.304 -2.52,-2.664 l -1.332,-0.27 c -0.541,-0.108 -0.882,-0.45 -0.882,-0.918 0,-0.54 0.522,-1.008 1.26,-1.008 1.17,0 1.548,0.81 1.62,1.314 l 1.764,-0.504 c -0.144,-0.864 -0.936,-2.448 -3.384,-2.448 -1.818,0 -3.222,1.296 -3.222,2.826 0,1.206 0.81,2.214 2.358,2.556 l 1.296,0.288 c 0.702,0.144 1.026,0.504 1.026,0.972 0,0.54 -0.451,1.008 -1.315,1.008 -1.116,0 -1.709,-0.702 -1.781,-1.494 z"
     fill="#375bd2"
     id="path14" />
</svg>
