<svg width="132" height="32" viewBox="0 0 132 32" fill="none" xmlns="http://www.w3.org/2000/svg">
<g clip-path="url(#clip0_8775_93275)">
<path d="M27.4358 0H4.59523C2.05789 0 0.000976562 2.05505 0.000976562 4.59008V27.4099C0.000976562 29.945 2.05789 32 4.59523 32H27.4358C29.9732 32 32.0301 29.945 32.0301 27.4099V4.59008C32.0301 2.05505 29.9732 0 27.4358 0Z" fill="#0847F7"/>
<path d="M16.0177 6.76196L8.01074 11.3807V20.6183L16.0177 25.237L24.0246 20.6183V11.3807L16.0177 6.76196ZM20.632 18.6617L16.0177 21.3225L11.4033 18.6617V13.3387L16.0177 10.6779L20.632 13.3387V18.6617Z" fill="white"/>
<path d="M39.8613 6.68719H46.0593C51.4072 6.68719 55.4401 10.058 55.4401 16.0036C55.4401 21.9492 51.4087 25.32 46.0593 25.32H39.8613V6.68719ZM45.8396 22.3609C49.6514 22.3609 52.0935 20.0042 52.0935 16.4139V15.5919C52.0935 12.0016 49.6528 9.64492 45.8396 9.64492H43.0974V22.3594H45.8396V22.3609Z" fill="#0B101C"/>
<path d="M56.6465 18.4694C56.6465 14.0572 59.4992 11.3448 63.4761 11.3448C67.453 11.3448 69.9497 13.8937 69.9497 18.4694V19.3186H59.9931V19.3459C59.9931 21.5936 61.4188 23.0724 63.614 23.0724C65.3138 23.0724 66.3016 22.196 66.6031 21.1001H69.7573C69.2362 23.7581 66.9591 25.5941 63.614 25.5941C59.5279 25.5941 56.6479 22.8817 56.6479 18.4694H56.6465ZM66.6849 17.0996C66.6849 15.1546 65.3957 13.8665 63.4216 13.8665C61.4475 13.8665 60.1582 15.0728 59.9931 17.0996H66.6849Z" fill="#0B101C"/>
<path d="M70.0586 11.6188H73.4598L76.1201 20.7444L76.9973 23.9776H77.0519L77.9291 20.7444L80.5622 11.6188H83.9361L79.6577 25.3202H74.3097L70.0586 11.6188Z" fill="#0B101C"/>
<path d="M85.3086 6.68713H88.5447V14.278H97.5135V6.68713H100.75V25.3214H97.5135V17.2644H88.5447V25.3214H85.3086V6.68713Z" fill="#0B101C"/>
<path d="M103.135 20.4159V11.6202H106.371V20.0874C106.371 21.9235 107.275 22.8831 108.977 22.8831C110.678 22.8831 112.022 21.8417 112.022 19.3487V11.6216H115.258V25.323H112.076V22.83C111.199 24.3648 109.855 25.597 107.66 25.597C105.054 25.597 103.135 23.8427 103.135 20.4173V20.4159Z" fill="#0B101C"/>
<path d="M120.824 22.8816V25.32H117.67V5.83661H120.906V13.9209C121.839 12.2771 123.319 11.3447 125.295 11.3447C128.476 11.3447 131.055 13.7832 131.055 18.4694C131.055 23.1555 128.476 25.594 125.295 25.594C123.265 25.594 121.757 24.6072 120.824 22.8816ZM124.28 23.0738C126.392 23.0738 127.736 21.5935 127.736 18.7993V18.1136C127.736 15.4012 126.392 13.9754 124.28 13.9754C122.168 13.9754 120.906 15.4829 120.906 17.8397V19.0732C120.906 21.539 122.141 23.0738 124.28 23.0738Z" fill="#0B101C"/>
</g>
<defs>
<clipPath id="clip0_8775_93275">
<rect width="131.055" height="32" fill="white"/>
</clipPath>
</defs>
</svg>
