<svg width="103" height="24" viewBox="0 0 103 24" fill="none" xmlns="http://www.w3.org/2000/svg">
<path d="M19.1991 0.059082H4.68293C2.09662 0.059082 0 2.1557 0 4.74201V19.2582C0 21.8445 2.09662 23.9411 4.68293 23.9411H19.1991C21.7854 23.9411 23.882 21.8445 23.882 19.2582V4.74201C23.882 2.1557 21.7854 0.059082 19.1991 0.059082Z" fill="#375BD2"/>
<path d="M12.0171 4.74219L5.71094 8.40072V15.7178L12.0171 19.3763L18.3232 15.7178V8.40072L12.0171 4.74219ZM15.651 14.1676L12.0171 16.2759L8.38319 14.1676V9.9509L12.0171 7.84253L15.651 9.9509V14.1676Z" fill="white"/>
<path fill-rule="evenodd" clip-rule="evenodd" d="M92.3313 19.2869H94.9829V18.0537C95.5173 18.9169 96.5862 19.5336 97.984 19.5336C100.862 19.5336 102.753 17.252 102.753 14.1892C102.753 11.1881 101.047 8.90644 98.0868 8.90644C96.5862 8.90644 95.4762 9.56421 95.024 10.2836V4.40479H92.3313V19.2869ZM97.5112 11.3525C98.9091 11.3525 100.019 12.3597 100.019 14.2097C100.019 16.0598 98.9091 17.0875 97.5112 17.0875C96.134 17.0875 94.9829 16.0391 94.9829 14.2097C94.9829 12.3597 96.134 11.3525 97.5112 11.3525ZM87.2441 18.1975C87.2441 18.6087 87.2852 19.0814 87.3263 19.287H89.9368C89.8957 18.9375 89.8341 18.2386 89.8341 17.4576V9.17371H87.1002V15.0526C87.1002 16.2242 86.4013 17.0465 85.1886 17.0465C83.9141 17.0465 83.3385 16.142 83.3385 15.0115V9.17371H80.6047V15.5664C80.6047 17.7659 82.0024 19.5542 84.4485 19.5542C85.5174 19.5542 86.689 19.1431 87.2441 18.1975ZM77.9862 19.2867H75.129V13.2434H68.7774V19.2867H65.9407V4.71289H68.7774V10.5712H75.129V4.71289H77.9862V19.2867ZM60.5639 19.287L64.4901 9.17371H61.6123L59.2074 15.957L56.6995 9.17371H53.6985L57.8301 19.287H60.5639ZM46.1912 13.0792H50.7133C50.6722 12.0719 50.0144 11.0853 48.4522 11.0853C47.0338 11.0853 46.2528 12.1542 46.1912 13.0792ZM50.9805 15.7103L53.2623 16.3885C52.7483 18.1359 51.145 19.5952 48.6578 19.5952C45.8829 19.5952 43.4368 17.6014 43.4368 14.1892C43.4368 10.9619 45.8211 8.8653 48.4111 8.8653C51.5356 8.8653 53.4061 10.8592 53.4061 14.1069C53.4061 14.4018 53.3827 14.7084 53.3712 14.8586V14.8586C53.3675 14.9074 53.365 14.9396 53.365 14.9497H46.1294C46.1912 16.2858 47.3217 17.252 48.6783 17.252C49.9528 17.252 50.6517 16.6146 50.9805 15.7103ZM34.9799 16.6557H32.7188V7.34398H35.0004C37.3849 7.34398 39.3581 8.84454 39.3581 12.0101C39.3581 15.1756 37.3642 16.6557 34.9799 16.6557ZM29.8821 19.2867H35.0826C39.2348 19.2867 42.2975 16.6145 42.2975 12.0101C42.2975 7.40565 39.2554 4.71289 35.1031 4.71289H29.8821V19.2867Z" fill="black"/>
</svg>
