<svg xmlns="http://www.w3.org/2000/svg" width="183" height="40" viewBox="0 0 183 40" fill="none">
<path d="M41.8838 19.7625C41.8514 18.8743 41.9998 17.9888 42.3202 17.1592C42.6406 16.3295 43.1264 15.5728 43.7483 14.9345C44.3702 14.2961 45.1154 13.7894 45.9392 13.4446C46.7631 13.0999 47.6485 12.9243 48.5423 12.9283C51.9101 12.9283 53.9034 14.8931 54.5048 17.1997L52.3913 17.9087C52.2053 17.0487 51.7137 16.2843 51.0068 15.7555C50.2998 15.2267 49.4248 14.9691 48.5423 15.0298C46.36 15.0298 44.1778 16.6102 44.1778 19.8052C44.1778 23.0002 46.3085 24.5208 48.568 24.5208C49.4554 24.5464 50.3258 24.2749 51.0394 23.7497C51.753 23.2245 52.2684 22.4762 52.503 21.6248L54.5563 22.2911C54.2048 23.591 53.4165 24.732 52.3224 25.5246C51.2283 26.3172 49.8943 26.7136 48.5423 26.6479C47.6404 26.6647 46.7448 26.4961 45.9116 26.1525C45.0784 25.8089 44.3256 25.2978 43.7005 24.6513C43.0753 24.0049 42.5912 23.2369 42.2786 22.3956C41.966 21.5543 41.8316 20.6579 41.8838 19.7625Z" fill="#375BD2"/>
<path d="M58.6287 26.3319H56.4637V12.8941H58.6287V18.165C58.9441 17.7942 59.3398 17.4994 59.7862 17.3026C60.2327 17.1058 60.7182 17.0122 61.2062 17.0288C63.4486 17.0288 64.5311 18.6263 64.5311 20.6168V26.3319H62.4262V20.9841C62.4657 20.724 62.4457 20.4583 62.3677 20.2069C62.2897 19.9555 62.1558 19.7248 61.9759 19.5319C61.7959 19.339 61.5746 19.189 61.3283 19.0928C61.082 18.9967 60.8171 18.9569 60.5532 18.9766C60.2914 18.9768 60.0325 19.0311 59.7928 19.136C59.5532 19.241 59.3381 19.3943 59.1612 19.5863C58.9843 19.7782 58.8495 20.0046 58.7652 20.2511C58.6809 20.4977 58.6491 20.7589 58.6717 21.0183L58.6287 26.3319Z" fill="#375BD2"/>
<path d="M69.3682 21.155L71.6965 20.7962C72.2206 20.7278 72.3666 20.463 72.3666 20.1469C72.3666 19.3866 71.8511 18.7715 70.6483 18.7715C70.4164 18.7517 70.1828 18.779 69.9618 18.8516C69.7407 18.9243 69.5368 19.0408 69.3625 19.1942C69.1881 19.3476 69.047 19.5346 68.9475 19.7439C68.8481 19.9532 68.7924 20.1804 68.784 20.4117L66.8079 19.9675C66.9711 18.4042 68.3973 17.0117 70.6311 17.0117C73.432 17.0117 74.4973 18.5921 74.4973 20.4288V24.9138C74.4924 25.4001 74.5297 25.886 74.609 26.366H72.59C72.5207 25.9857 72.4919 25.5991 72.5041 25.2128C72.2025 25.6724 71.7855 26.0458 71.2943 26.296C70.803 26.5462 70.2546 26.6646 69.7032 26.6394C69.3189 26.6708 68.932 26.6244 68.5662 26.503C68.2004 26.3815 67.8631 26.1876 67.5748 25.9329C67.2865 25.6781 67.0531 25.3679 66.8888 25.021C66.7245 24.674 66.6327 24.2975 66.6189 23.9143C66.6189 22.2655 67.8131 21.3771 69.3682 21.155ZM72.3666 22.6072V22.1972L69.9954 22.5474C69.6731 22.5584 69.3675 22.6923 69.142 22.9213C68.9164 23.1504 68.7882 23.457 68.784 23.7776C68.7867 23.9431 68.8239 24.1062 68.8933 24.2566C68.9627 24.4071 69.0628 24.5415 69.1871 24.6515C69.3115 24.7615 69.4575 24.8447 69.6158 24.8957C69.7742 24.9467 69.9414 24.9645 70.1071 24.9479C70.4199 24.9797 70.736 24.9401 71.0312 24.8322C71.3264 24.7244 71.5931 24.551 71.8109 24.3254C72.0287 24.0998 72.1919 23.8278 72.2882 23.5301C72.3845 23.2324 72.4113 22.9168 72.3666 22.6072Z" fill="#375BD2"/>
<path d="M78.1745 12.7062C78.3621 12.7039 78.5483 12.7387 78.7223 12.8086C78.8963 12.8784 79.0546 12.9818 79.188 13.113C79.3215 13.2441 79.4275 13.4002 79.4998 13.5724C79.5721 13.7445 79.6093 13.9292 79.6093 14.1158C79.6093 14.4873 79.4609 14.8437 79.1966 15.1064C78.9324 15.3692 78.574 15.5168 78.2003 15.5168C77.8266 15.5168 77.4682 15.3692 77.204 15.1064C76.9397 14.8437 76.7913 14.4873 76.7913 14.1158C76.7912 13.7478 76.9358 13.3943 77.1943 13.1309C77.4527 12.8676 77.8045 12.7151 78.1745 12.7062ZM77.1178 26.3746V17.2937H79.2571V26.3319L77.1178 26.3746Z" fill="#375BD2"/>
<path d="M84.223 26.3319H82.0579V17.2936H84.1714V18.4982C84.4457 18.0358 84.8402 17.6553 85.3133 17.3968C85.7865 17.1382 86.321 17.0111 86.8606 17.0288C89.0772 17.0288 90.1425 18.6263 90.1425 20.6168V26.3319H87.9775V20.9841C87.9775 19.8735 87.4706 18.9766 86.1131 18.9766C85.8429 18.9782 85.5761 19.0366 85.3302 19.1481C85.0844 19.2595 84.865 19.4213 84.6865 19.623C84.508 19.8247 84.3744 20.0617 84.2945 20.3183C84.2146 20.575 84.1903 20.8456 84.223 21.1122V26.3319Z" fill="#375BD2"/>
<path d="M92.7802 26.3319V12.8941H94.9452V26.3319H92.7802Z" fill="#375BD2"/>
<path d="M98.8114 12.7062C99.1874 12.7062 99.5479 12.8547 99.8138 13.119C100.08 13.3834 100.229 13.7419 100.229 14.1157C100.227 14.3921 100.143 14.6618 99.988 14.8909C99.8325 15.1199 99.6124 15.2982 99.3553 15.4032C99.0981 15.5081 98.8155 15.5352 98.543 15.4808C98.2705 15.4265 98.0202 15.2933 97.8237 15.0978C97.6272 14.9024 97.4931 14.6536 97.4385 14.3826C97.3839 14.1116 97.411 13.8306 97.5166 13.575C97.6222 13.3193 97.8015 13.1005 98.0319 12.9459C98.2622 12.7913 98.5335 12.7079 98.8114 12.7062ZM97.7461 26.3746V17.2936H99.8939V26.3319L97.7461 26.3746Z" fill="#375BD2"/>
<path d="M104.86 26.3319H102.695V17.2937H104.8V18.4982C105.075 18.037 105.47 17.6576 105.943 17.3992C106.416 17.1408 106.95 17.013 107.489 17.0288C109.714 17.0288 110.779 18.6263 110.779 20.6168V26.3319H108.614V20.9841C108.654 20.724 108.634 20.4583 108.556 20.2069C108.478 19.9555 108.344 19.7248 108.164 19.5319C107.984 19.3391 107.763 19.189 107.516 19.0928C107.27 18.9967 107.005 18.9569 106.741 18.9766C106.472 18.9781 106.205 19.0365 105.96 19.148C105.714 19.2595 105.495 19.4215 105.317 19.6234C105.139 19.8252 105.007 20.0623 104.928 20.319C104.849 20.5757 104.826 20.846 104.86 21.1123V26.3319Z" fill="#375BD2"/>
<path d="M118.185 21.1122L122 26.3319H119.345L116.673 22.6072L115.556 23.7776V26.3404H113.408V12.8941H115.556V20.9499L119.045 17.2936H121.923L118.185 21.1122Z" fill="#375BD2"/>
<path d="M16.2294 9.26348L25.5942 14.6112V25.3494L16.2552 30.7314L6.89042 25.3922V14.6539L16.2294 9.26348ZM16.2294 1.37L12.7928 3.35191L3.43662 8.74237L0 10.7243V14.671V25.4007V29.3474L3.43662 31.3123L12.8014 36.66L16.238 38.6248L19.6747 36.6429L29.0137 31.2525L32.4503 29.2791V25.3324V14.5941V10.6474L29.0137 8.68257L19.6489 3.33482L16.2123 1.37H16.2294Z" fill="#375BD2"/>
<rect x="132" y="10.37" width="1" height="20" rx="0.5" fill="#DFE7FB"/>
<path d="M145.16 24.39V15.588H147.446C149.66 15.588 151.478 17.028 151.478 20.016C151.478 22.968 149.642 24.39 147.428 24.39H145.16ZM147.5 26.37C150.956 26.37 153.728 24.102 153.728 20.016C153.728 15.912 150.992 13.608 147.518 13.608H143V26.37H147.5Z" fill="#375BD2"/>
<path d="M159.697 24.768C158.419 24.768 157.249 23.796 157.249 21.978C157.249 20.16 158.419 19.224 159.697 19.224C160.993 19.224 162.145 20.16 162.145 21.978C162.145 23.814 160.993 24.768 159.697 24.768ZM159.697 17.334C157.087 17.334 155.161 19.296 155.161 21.978C155.161 24.678 157.087 26.64 159.697 26.64C162.325 26.64 164.251 24.678 164.251 21.978C164.251 19.296 162.325 17.334 159.697 17.334Z" fill="#375BD2"/>
<path d="M170.085 19.26C171.417 19.26 172.011 20.124 172.209 20.898L174.081 20.214C173.721 18.81 172.425 17.334 170.067 17.334C167.547 17.334 165.585 19.278 165.585 21.978C165.585 24.642 167.547 26.64 170.121 26.64C172.425 26.64 173.739 25.146 174.153 23.778L172.317 23.112C172.119 23.778 171.489 24.732 170.121 24.732C168.807 24.732 167.673 23.742 167.673 21.978C167.673 20.214 168.807 19.26 170.085 19.26Z" fill="#375BD2"/>
<path d="M175.234 23.994C175.342 24.984 176.313 26.64 178.852 26.64C181.084 26.64 182.164 25.164 182.164 23.832C182.164 22.536 181.299 21.528 179.644 21.168L178.312 20.898C177.771 20.79 177.43 20.448 177.43 19.98C177.43 19.44 177.952 18.972 178.69 18.972C179.86 18.972 180.238 19.782 180.31 20.286L182.074 19.782C181.93 18.918 181.138 17.334 178.69 17.334C176.872 17.334 175.468 18.63 175.468 20.16C175.468 21.366 176.278 22.374 177.826 22.716L179.122 23.004C179.824 23.148 180.148 23.508 180.148 23.976C180.148 24.516 179.697 24.984 178.833 24.984C177.717 24.984 177.124 24.282 177.052 23.49L175.234 23.994Z" fill="#375BD2"/>
</svg>