<?xml version="1.0" encoding="UTF-8" standalone="no"?>
<svg
   xmlns:dc="http://purl.org/dc/elements/1.1/"
   xmlns:cc="http://creativecommons.org/ns#"
   xmlns:rdf="http://www.w3.org/1999/02/22-rdf-syntax-ns#"
   xmlns:svg="http://www.w3.org/2000/svg"
   xmlns="http://www.w3.org/2000/svg"
   xmlns:sodipodi="http://sodipodi.sourceforge.net/DTD/sodipodi-0.dtd"
   xmlns:inkscape="http://www.inkscape.org/namespaces/inkscape"
   viewBox="0 0 350.25346 56.73"
   version="1.1"
   id="svg28"
   sodipodi:docname="chainlink-developers.svg"
   width="350.25345"
   height="56.73"
   inkscape:version="1.0.1 (3bc2e813f5, 2020-09-07)">
  <metadata
     id="metadata32">
    <rdf:RDF>
      <cc:Work
         rdf:about="">
        <dc:format>image/svg+xml</dc:format>
        <dc:type
           rdf:resource="http://purl.org/dc/dcmitype/StillImage" />
        <dc:title></dc:title>
      </cc:Work>
    </rdf:RDF>
  </metadata>
  <sodipodi:namedview
     pagecolor="#ffffff"
     bordercolor="#666666"
     borderopacity="1"
     objecttolerance="10"
     gridtolerance="10"
     guidetolerance="10"
     inkscape:pageopacity="0"
     inkscape:pageshadow="2"
     inkscape:window-width="1920"
     inkscape:window-height="1016"
     id="namedview30"
     showgrid="false"
     fit-margin-top="0"
     fit-margin-left="0"
     fit-margin-right="0"
     fit-margin-bottom="0"
     inkscape:zoom="17.722666"
     inkscape:cx="185.72994"
     inkscape:cy="41.233733"
     inkscape:window-x="0"
     inkscape:window-y="0"
     inkscape:window-maximized="1"
     inkscape:current-layer="svg28" />
  <defs
     id="defs4">
    <rect
       x="202.22812"
       y="2.0126793"
       width="535.19621"
       height="146.2008"
       id="rect36" />
    <style
       id="style2">.cls-1{fill:#375bd2;}</style>
  </defs>
  <g
     id="Layer_2"
     data-name="Layer 2"
     inkscape:export-xdpi="518.34998"
     inkscape:export-ydpi="518.34998">
    <g
       id="Layer_1-2"
       data-name="Layer 1">
      <path
         class="cls-1"
         d="m 63.39,28 a 10,10 0 0 1 9.67,-10.4 h 0.41 c 5.1,0 8.11,3 9,6.51 l -3.17,1.06 a 5.58,5.58 0 0 0 -5.83,-4.38 c -3.3,0 -6.61,2.41 -6.61,7.27 0,4.86 3.23,7.18 6.65,7.18 a 6,6 0 0 0 5.95,-4.41 l 3.11,1 a 9,9 0 0 1 -9.1,6.63 9.91,9.91 0 0 1 -10.09,-9.72 c -0.01,-0.24 0,-0.49 0.01,-0.74 z"
         id="path6" />
      <path
         class="cls-1"
         d="M 88.74,38 H 85.46 V 17.54 h 3.28 v 8 a 4.85,4.85 0 0 1 3.9,-1.72 c 3.39,0 5,2.43 5,5.46 V 38 h -3.16 v -8.14 a 2.67,2.67 0 0 0 -2.24,-3 2.89,2.89 0 0 0 -0.59,0 2.86,2.86 0 0 0 -2.86,2.86 2.09,2.09 0 0 0 0,0.25 z"
         id="path8" />
      <path
         class="cls-1"
         d="m 105,30.12 3.52,-0.55 c 0.8,-0.1 1,-0.51 1,-1 0,-1.16 -0.78,-2.09 -2.6,-2.09 a 2.62,2.62 0 0 0 -2.82,2.37 V 29 l -3,-0.67 c 0.25,-2.38 2.41,-4.5 5.79,-4.5 4.24,0 5.85,2.4 5.85,5.2 v 6.83 a 13.62,13.62 0 0 0 0.17,2.21 h -3 a 8,8 0 0 1 -0.13,-1.76 4.78,4.78 0 0 1 -4.24,2.17 4.32,4.32 0 0 1 -4.66,-3.94 c 0,-0.07 0,-0.14 0,-0.2 -0.05,-2.53 1.76,-3.89 4.12,-4.22 z m 4.54,2.21 V 31.7 l -3.59,0.54 a 1.89,1.89 0 0 0 -1.83,1.87 1.82,1.82 0 0 0 1.88,1.79 h 0.15 a 3.12,3.12 0 0 0 3.43,-2.8 3.22,3.22 0 0 0 -0.05,-0.77 z"
         id="path10" />
      <path
         class="cls-1"
         d="m 118.32,17.26 a 2.14,2.14 0 0 1 2.17,2.12 v 0 a 2.14,2.14 0 1 1 -2.17,-2.14 z m -1.6,20.8 V 24.24 H 120 V 38 Z"
         id="path12" />
      <path
         class="cls-1"
         d="M 127.47,38 H 124.2 V 24.24 h 3.19 v 1.83 a 4.55,4.55 0 0 1 4.07,-2.23 c 3.36,0 5,2.43 5,5.46 V 38 h -3.27 v -8.14 c 0,-1.69 -0.77,-3.06 -2.83,-3.06 a 2.9,2.9 0 0 0 -2.88,2.92 c 0,0.11 0,0.22 0,0.33 z"
         id="path14" />
      <path
         class="cls-1"
         d="M 140.42,38 V 17.54 h 3.28 V 38 Z"
         id="path16" />
      <path
         class="cls-1"
         d="m 149.55,17.26 a 2.13,2.13 0 1 1 -2.12,2.12 2.14,2.14 0 0 1 2.12,-2.12 z m -1.61,20.8 V 24.24 h 3.25 V 38 Z"
         id="path18" />
      <path
         class="cls-1"
         d="m 158.71,38 h -3.28 V 24.24 h 3.19 v 1.83 a 4.56,4.56 0 0 1 4.07,-2.23 c 3.36,0 5,2.43 5,5.46 V 38 h -3.28 v -8.14 a 2.67,2.67 0 0 0 -2.24,-3 3,3 0 0 0 -0.6,0 2.9,2.9 0 0 0 -2.87,2.9 2,2 0 0 0 0,0.35 z"
         id="path20" />
      <path
         class="cls-1"
         d="m 178.88,30.05 5.77,8 h -4 l -4,-5.67 -1.69,1.78 V 38 h -3.25 V 17.54 h 3.25 V 29.8 l 5.28,-5.56 h 4.35 z"
         id="path22" />
      <path
         class="cls-1"
         d="m 24.56,12 14.18,8.14 V 36.5 L 24.6,44.69 10.43,36.57 V 20.22 L 24.56,12 m 0,-12 -5.2,3 -14.16,8.22 -5.2,3 v 28.37 l 5.2,3 14.18,8.14 5.2,3 5.2,-3 14.13,-8.2 5.2,-3 V 14.12 l -5.2,-3 L 29.74,3 24.54,0 Z"
         id="path24" />
    </g>
  </g>
  <text
     xml:space="preserve"
     id="text34"
     style="font-style:normal;font-weight:normal;font-size:40px;line-height:1.25;font-family:sans-serif;letter-spacing:0px;white-space:pre;shape-inside:url(#rect36);fill:#375bd2;fill-opacity:1;stroke:none;"
     transform="matrix(0.71798012,0,0,0.71798012,45.789189,9.8342436)"
     inkscape:export-xdpi="518.34998"
     inkscape:export-ydpi="518.34998"><tspan
       x="202.22852"
       y="39.371719"><tspan
         style="font-style:normal;font-variant:normal;font-weight:normal;font-stretch:normal;font-family:'Circular Std Book';-inkscape-font-specification:'Circular Std Book, ';fill:#375bd2;fill-opacity:1">Developers
</tspan></tspan></text>
</svg>
