<svg width="88" height="88" viewBox="0 0 88 88" fill="none" xmlns="http://www.w3.org/2000/svg">
<g opacity="0.04">
<path d="M60.011 0L8.0498 30.0023V89.9977L60.011 120L111.972 89.9977V30.0023L60.011 0ZM97.3696 66.9669C97.1589 66.857 96.9573 66.7562 96.7375 66.6646C92.7066 64.9973 88.0895 66.912 86.4222 70.9428C84.7549 74.9737 86.6695 79.5908 90.6912 81.2581C90.9111 81.3497 91.131 81.423 91.36 81.4963C88.7124 85.3531 85.3687 88.6968 81.5119 91.3444C81.4386 91.1245 81.3653 90.8955 81.2737 90.6756C79.6064 86.6448 74.9893 84.7301 70.9584 86.3974C66.9276 88.0647 65.0129 92.6819 66.6894 96.7127C66.781 96.9326 66.8818 97.1433 66.9917 97.3448C64.7289 97.7662 62.4112 97.9953 60.0293 97.9953C57.6475 97.9953 55.3206 97.7662 53.067 97.3448C53.1769 97.1341 53.2777 96.9326 53.3693 96.7127C55.0366 92.6819 53.1219 88.0647 49.0911 86.3974C45.0603 84.7301 40.4431 86.6448 38.7758 90.6756C38.6842 90.8955 38.6109 91.1153 38.5376 91.3444C34.6808 88.6968 31.3371 85.3531 28.6895 81.4963C28.9094 81.423 29.1384 81.3497 29.3583 81.2581C33.3891 79.5908 35.3038 74.9737 33.6365 70.9428C31.9692 66.912 27.352 64.9973 23.3212 66.6646C23.1013 66.7562 22.8906 66.857 22.6891 66.9669C22.2677 64.7042 22.0387 62.3864 22.0387 60.0046C22.0387 57.6227 22.2677 55.2958 22.6891 53.0422C22.8998 53.1521 23.1013 53.2529 23.3212 53.3445C27.352 55.0118 31.9692 53.0972 33.6365 49.0755C35.3038 45.0447 33.3891 40.4275 29.3583 38.7602C29.1384 38.6686 28.9186 38.5953 28.6895 38.522C31.3371 34.6652 34.6808 31.3215 38.5376 28.6739C38.6109 28.8938 38.6842 29.1228 38.7758 29.3427C40.4431 33.3735 45.0603 35.2882 49.0911 33.6117C53.1219 31.9444 55.0366 27.3273 53.3693 23.2964C53.2777 23.0766 53.1769 22.8659 53.067 22.6643C55.3297 22.2429 57.6475 22.0139 60.0293 22.0139C62.4112 22.0139 64.7381 22.2429 66.9917 22.6643C66.8818 22.875 66.781 23.0766 66.6894 23.2964C65.0221 27.3273 66.9367 31.9444 70.9584 33.6117C74.9893 35.279 79.6064 33.3644 81.2737 29.3427C81.3653 29.1228 81.4386 28.903 81.5119 28.6739C85.3687 31.3215 88.7124 34.6652 91.36 38.522C91.1401 38.5953 90.9111 38.6686 90.6912 38.7602C86.6604 40.4275 84.7457 45.0447 86.4222 49.0755C88.0895 53.1063 92.7066 55.021 96.7375 53.3445C96.9573 53.2529 97.1681 53.1521 97.3696 53.0422C97.791 55.305 98.02 57.6227 98.02 60.0046C98.02 62.3864 97.791 64.7133 97.3696 66.9669Z" fill="url(#paint0_linear_3965_31373)"/>
<path d="M97.37 53.033C97.1593 53.143 96.9577 53.2438 96.7379 53.3354C92.707 55.0027 88.0899 53.088 86.4226 49.0663C84.7553 45.0355 86.6699 40.4183 90.6916 38.751C90.9115 38.6594 91.1314 38.5861 91.3604 38.5129C88.7128 34.6561 85.3691 31.3123 81.5123 28.6648C81.439 28.8846 81.3657 29.1137 81.2741 29.3335C79.6068 33.3644 74.9897 35.279 70.9588 33.6026C66.928 31.9353 65.0133 27.3181 66.6898 23.2873C66.7814 23.0674 66.8822 22.8567 66.9921 22.6552C64.7293 22.2338 62.4116 22.0047 60.0297 22.0047C57.6479 22.0047 55.321 22.2338 53.0674 22.6552C53.1773 22.8659 53.2781 23.0674 53.3697 23.2873C55.037 27.3181 53.1223 31.9353 49.0915 33.6026C45.0607 35.2699 40.4435 33.3552 38.7762 29.3335C38.6846 29.1137 38.6113 28.8938 38.538 28.6648C34.6812 31.3123 31.3375 34.6561 28.69 38.5129C28.9098 38.5861 29.1388 38.6594 29.3587 38.751C33.3895 40.4183 35.3042 45.0355 33.6369 49.0663C31.9696 53.0972 27.3524 55.0118 23.3216 53.3354C23.1017 53.2438 22.891 53.143 22.6895 53.033C22.2681 55.2958 22.0391 57.6135 22.0391 59.9954C22.0391 62.3773 22.2681 64.7042 22.6895 66.9578C22.9002 66.8478 23.1017 66.7471 23.3216 66.6555C27.3524 64.9882 31.9696 66.9028 33.6369 70.9337C35.3042 74.9645 33.3895 79.5816 29.3587 81.2489C29.1388 81.3405 28.919 81.4138 28.69 81.4871C31.3375 85.3439 34.6812 88.6877 38.538 91.3352C38.6113 91.1153 38.6846 90.8863 38.7762 90.6665C40.4435 86.6356 45.0607 84.721 49.0915 86.3883C53.1223 88.0556 55.037 92.6727 53.3697 96.7036C53.2781 96.9234 53.1773 97.1341 53.0674 97.3357C55.3302 97.7571 57.6479 97.9861 60.0297 97.9861C62.4116 97.9861 64.7385 97.7571 66.9921 97.3357C66.8822 97.125 66.7814 96.9234 66.6898 96.7036C65.0225 92.6727 66.9371 88.0556 70.9588 86.3883C74.9897 84.721 79.6068 86.6356 81.2741 90.6665C81.3657 90.8863 81.439 91.1062 81.5123 91.3352C85.3691 88.6877 88.7128 85.3439 91.3604 81.4871C91.1405 81.4138 90.9115 81.3405 90.6916 81.2489C86.6608 79.5816 84.7461 74.9645 86.4226 70.9337C88.0899 66.9028 92.707 64.9882 96.7379 66.6555C96.9577 66.7471 97.1684 66.8478 97.37 66.9578C97.7914 64.695 98.0204 62.3773 98.0204 59.9954C98.0204 57.6135 97.7914 55.2867 97.37 53.033ZM67.1204 72.3078C62.7231 74.8454 57.3089 74.8454 52.9116 72.3078C48.5144 69.7702 45.8027 65.0798 45.8027 59.9954C45.8027 54.9111 48.5144 50.2298 52.9116 47.683C57.3089 45.1454 62.7231 45.1454 67.1204 47.683C71.5176 50.2206 74.2293 54.9111 74.2293 59.9954C74.2293 65.0798 71.5176 69.761 67.1204 72.3078Z" fill="#1A2B6B"/>
</g>
<defs>
<linearGradient id="paint0_linear_3965_31373" x1="85.9916" y1="14.9966" x2="34.0304" y2="105.003" gradientUnits="userSpaceOnUse">
<stop stop-color="#7790E2"/>
<stop offset="1" stop-color="#486DDC"/>
</linearGradient>
</defs>
</svg>
