<svg xmlns="http://www.w3.org/2000/svg" width="48" height="48" fill="none" xmlns:v="https://vecta.io/nano"><path d="M24 0L3.216 12.001v23.998L24 48l20.784-12.001V12.001L24 0zm14.943 26.787l-.253-.121a3.16 3.16 0 0 0-4.126 1.711 3.16 3.16 0 0 0 1.708 4.126 3.29 3.29 0 0 0 .267.095 15.25 15.25 0 0 1-3.939 3.939l-.095-.267a3.16 3.16 0 0 0-4.126-1.711c-1.612.667-2.378 2.514-1.708 4.126.037.088.077.172.121.253-.905.169-1.832.26-2.785.26s-1.884-.092-2.785-.26l.121-.253a3.16 3.16 0 0 0-1.711-4.126 3.16 3.16 0 0 0-4.126 1.711 3.29 3.29 0 0 0-.095.267 15.25 15.25 0 0 1-3.939-3.939l.268-.095a3.16 3.16 0 0 0 1.711-4.126 3.16 3.16 0 0 0-4.126-1.711c-.088.037-.172.077-.253.121a15.17 15.17 0 0 1-.26-2.785 15.14 15.14 0 0 1 .26-2.785l.253.121a3.16 3.16 0 0 0 4.126-1.708 3.16 3.16 0 0 0-1.711-4.126 3.29 3.29 0 0 0-.268-.095 15.25 15.25 0 0 1 3.939-3.939l.095.268c.667 1.612 2.514 2.378 4.126 1.708a3.16 3.16 0 0 0 1.711-4.126 2.69 2.69 0 0 0-.121-.253 15.17 15.17 0 0 1 2.785-.26 15.14 15.14 0 0 1 2.785.26l-.121.253a3.16 3.16 0 0 0 1.708 4.126 3.16 3.16 0 0 0 4.126-1.708 3.29 3.29 0 0 0 .095-.268 15.25 15.25 0 0 1 3.939 3.939l-.267.095c-1.612.667-2.378 2.514-1.708 4.126s2.514 2.378 4.126 1.708c.088-.037.172-.077.253-.121.169.905.26 1.832.26 2.785s-.092 1.884-.26 2.785z" fill="url(#A)"/><path d="M38.943 21.213l-.253.121a3.16 3.16 0 0 1-4.126-1.708 3.16 3.16 0 0 1 1.708-4.126 3.31 3.31 0 0 1 .267-.095 15.25 15.25 0 0 0-3.939-3.939l-.095.268c-.667 1.612-2.514 2.378-4.126 1.708s-2.378-2.514-1.708-4.126a2.69 2.69 0 0 1 .121-.253 15.17 15.17 0 0 0-2.785-.26 15.14 15.14 0 0 0-2.785.26l.121.253a3.16 3.16 0 0 1-1.711 4.126 3.16 3.16 0 0 1-4.126-1.708c-.037-.088-.066-.176-.095-.268a15.25 15.25 0 0 0-3.939 3.939l.268.095a3.16 3.16 0 0 1 1.711 4.126c-.667 1.612-2.514 2.378-4.126 1.708a2.69 2.69 0 0 1-.253-.121 15.17 15.17 0 0 0-.26 2.785 15.14 15.14 0 0 0 .26 2.785l.253-.121a3.16 3.16 0 0 1 4.126 1.711 3.16 3.16 0 0 1-1.711 4.126c-.088.037-.176.066-.268.095a15.25 15.25 0 0 0 3.939 3.939l.095-.267a3.16 3.16 0 0 1 4.126-1.711 3.16 3.16 0 0 1 1.711 4.126c-.037.088-.077.172-.121.253.905.169 1.832.26 2.785.26s1.883-.092 2.785-.26l-.121-.253a3.16 3.16 0 0 1 1.708-4.126 3.16 3.16 0 0 1 4.126 1.711 3.31 3.31 0 0 1 .095.267 15.25 15.25 0 0 0 3.939-3.939l-.267-.095c-1.612-.667-2.378-2.514-1.708-4.126a3.16 3.16 0 0 1 4.126-1.711c.088.037.172.077.253.121.169-.905.26-1.832.26-2.785s-.092-1.884-.26-2.785zm-12.1 7.71c-1.759 1.015-3.925 1.015-5.683 0s-2.844-2.891-2.844-4.925a5.69 5.69 0 0 1 2.844-4.925c1.759-1.015 3.924-1.015 5.683 0s2.844 2.891 2.844 4.925a5.69 5.69 0 0 1-2.844 4.925z" fill="#000"/><defs><linearGradient id="A" x1="34.392" y1="5.999" x2="13.608" y2="42.001" gradientUnits="userSpaceOnUse"><stop stop-color="#7790e2"/><stop offset="1" stop-color="#486ddc"/></linearGradient></defs></svg>