<?xml version="1.0" encoding="UTF-8" standalone="no"?>
<svg
   id="uuid-2536d8c0-2b7e-4bc4-8535-2c61bc4c1a61"
   data-name="Layer 2"
   width="113.44"
   height="130.99001"
   viewBox="0 0 113.44 130.99"
   version="1.1"
   sodipodi:docname="ccip-lockup.svg"
   inkscape:export-filename="../41b07e11/ccip.png"
   inkscape:export-xdpi="96"
   inkscape:export-ydpi="96"
   inkscape:version="1.2.2 (732a01da63, 2022-12-09, custom)"
   xmlns:inkscape="http://www.inkscape.org/namespaces/inkscape"
   xmlns:sodipodi="http://sodipodi.sourceforge.net/DTD/sodipodi-0.dtd"
   xmlns:xlink="http://www.w3.org/1999/xlink"
   xmlns="http://www.w3.org/2000/svg"
   xmlns:svg="http://www.w3.org/2000/svg">
  <sodipodi:namedview
     id="namedview127"
     pagecolor="#ffffff"
     bordercolor="#666666"
     borderopacity="1.0"
     inkscape:showpageshadow="2"
     inkscape:pageopacity="0.0"
     inkscape:pagecheckerboard="0"
     inkscape:deskcolor="#d1d1d1"
     showgrid="false"
     inkscape:zoom="6.903987"
     inkscape:cx="202.34685"
     inkscape:cy="67.062699"
     inkscape:window-width="3840"
     inkscape:window-height="2075"
     inkscape:window-x="1920"
     inkscape:window-y="0"
     inkscape:window-maximized="1"
     inkscape:current-layer="uuid-f8d7b0e3-f777-4319-8cda-24b0bc2e94a2" />
  <defs
     id="defs81">
    <linearGradient
       id="uuid-2b22deae-9c10-454b-bf5c-284cb5703ce5"
       x1="51.43"
       y1="74.620003"
       x2="28.35"
       y2="114.61"
       gradientUnits="userSpaceOnUse">
      <stop
         offset="0"
         stop-color="#7790e2"
         id="stop75" />
      <stop
         offset="1"
         stop-color="#486ddc"
         id="stop77" />
    </linearGradient>
    <linearGradient
       id="uuid-abcc279d-40e6-4c09-83e7-af94a5aba7b8"
       x1="85.089996"
       y1="16.379999"
       x2="61.959999"
       y2="56.450001"
       xlink:href="#uuid-2b22deae-9c10-454b-bf5c-284cb5703ce5" />
    <linearGradient
       inkscape:collect="always"
       xlink:href="#uuid-2b22deae-9c10-454b-bf5c-284cb5703ce5"
       id="linearGradient325"
       gradientUnits="userSpaceOnUse"
       x1="51.43"
       y1="74.620003"
       x2="28.35"
       y2="114.61" />
  </defs>
  <g
     id="uuid-f8d7b0e3-f777-4319-8cda-24b0bc2e94a2"
     data-name="Layer 1">
    <g
       id="g123">
      <g
         id="g121">
        <polygon
           points="41.29,92.22 41.29,74.4 25.86,83.31 25.86,59.92 0,44.93 0,98.24 56.72,130.99 102.83,104.37 77.02,89.4 56.72,101.13 56.72,83.31 "
           style="fill:url(#linearGradient325)"
           id="polygon113" />
        <polygon
           points="36.33,41.64 56.72,29.86 56.72,47.68 72.15,38.77 72.15,56.59 87.58,47.68 87.58,71.17 113.44,86.17 113.44,32.75 56.72,0 10.52,26.68 "
           style="fill:url(#uuid-abcc279d-40e6-4c09-83e7-af94a5aba7b8)"
           id="polygon115" />
        <polygon
           points="56.72,29.86 25.86,47.68 25.86,83.31 41.29,74.4 41.29,56.59 56.72,47.68 "
           id="polygon117" />
        <polygon
           points="77.42,65.28 87.59,71.17 87.59,47.68 56.73,65.49 56.73,101.13 77.03,89.4 66.89,83.52 66.89,71.36 "
           id="polygon119" />
      </g>
    </g>
  </g>
</svg>
