<?xml version="1.0" encoding="UTF-8"?>
<svg id="uuid-d3fe018e-2fd9-48cb-9a1f-2f625e02a65a" data-name="Layer 2" xmlns="http://www.w3.org/2000/svg" width="158.73" height="209" xmlns:xlink="http://www.w3.org/1999/xlink" viewBox="0 0 158.73 209">
  <defs>
    <linearGradient id="uuid-1defbd24-4c44-4ab6-8fd9-dc5c82ed9b70" x1="132.51" y1="217.52" x2="71.08" y2="28.48" gradientUnits="userSpaceOnUse">
      <stop offset="0" stop-color="#8b9cdf"/>
      <stop offset="1" stop-color="#375bd2"/>
    </linearGradient>
    <linearGradient id="uuid-7bf01ef9-cac2-48e5-979e-0fddcb9721b4" x1="88.24" y1="89.27" x2="158.03" y2="109.28" xlink:href="#uuid-1defbd24-4c44-4ab6-8fd9-dc5c82ed9b70"/>
    <symbol id="uuid-4d34026c-6288-4506-a06a-fd86a45a3263" data-name="Chainlink Functions - Main" viewBox="0 0 158.73 209">
      <g>
        <path d="m158.73,33.21V0L11.04,85.28c-14.71,8.5-14.72,29.73-.02,38.24l27.18,15.73,42.8,24.77,77.73,44.99v-33.23c0-10.05-5.36-19.35-14.06-24.38l-20.87-12.08-42.8-24.77-17.44-10.1,81.09-46.83c8.72-5.03,14.09-14.33,14.09-24.4Z" style="fill: url(#uuid-1defbd24-4c44-4ab6-8fd9-dc5c82ed9b70);"/>
        <path d="m158.73,69.65v33.22c0,10.06-5.37,19.37-14.09,24.4l-20.85,12.04-42.8-24.77,77.74-44.89Z" style="fill: url(#uuid-7bf01ef9-cac2-48e5-979e-0fddcb9721b4);"/>
        <polygon points="123.8 139.3 81 164.01 38.2 139.25 81 114.53 123.8 139.3" style="fill: #24317b;"/>
      </g>
    </symbol>
  </defs>
  <g id="uuid-3f3e20a0-2b60-4259-8a16-baaf0690783e" data-name="Layer 1">
    <use width="158.73" height="209" xlink:href="#uuid-4d34026c-6288-4506-a06a-fd86a45a3263"/>
  </g>
</svg>