<svg xmlns="http://www.w3.org/2000/svg" xmlns:xlink="http://www.w3.org/1999/xlink" width="48" height="48" fill="none" xmlns:v="https://vecta.io/nano"><g clip-path="url(#B)"><path d="M24 0L3.216 12.001v23.998L24 48l20.784-12.001V12.001L24 0zm13.053 27.498s-.11.374-.355.623l-8.582 8.582c-.348.348-.858.487-1.338.359l-11.722-3.14a1.39 1.39 0 0 1-.978-.978l-3.14-11.722a1.38 1.38 0 0 1 .359-1.338l8.582-8.582c.172-.172.388-.293.616-.355a1.38 1.38 0 0 1 .722 0l11.722 3.14a1.38 1.38 0 0 1 .946.879L37.078 26.9a1.33 1.33 0 0 1-.022.601l-.004-.004z" fill="url(#A)"/><g fill="#1a2b6b"><path d="M37.053 27.498L24.755 24.2a1.39 1.39 0 0 1-.978-.978l-3.287-12.28a1.38 1.38 0 0 0-.616.355l-8.582 8.582c-.348.348-.487.857-.359 1.337l3.14 11.722a1.39 1.39 0 0 0 .978.978l11.722 3.14a1.38 1.38 0 0 0 1.337-.359l8.582-8.582c.249-.249.356-.623.356-.623l.004.004zm-10.019-7.886c-.59-.158-.942.191-.784.777a2.1 2.1 0 0 0 1.349 1.349c.59.158.942-.191.788-.777a2.1 2.1 0 0 0-1.348-1.349h-.004z"/></g><g fill="#0c162c"><use xlink:href="#C"/><path d="M31.179 20.605c-.59-.157-.942.191-.784.777a2.1 2.1 0 0 0 1.348 1.348c.59.158.942-.191.788-.777a2.1 2.1 0 0 0-1.349-1.348h-.004zm-5.237-5.068c-.59-.158-.942.191-.784.777a2.1 2.1 0 0 0 1.348 1.349c.59.158.942-.191.788-.777a2.1 2.1 0 0 0-1.349-1.348h-.004z"/></g></g><defs><linearGradient id="A" x1="34.392" y1="5.999" x2="13.608" y2="42.001" gradientUnits="userSpaceOnUse"><stop stop-color="#7790e2"/><stop offset="1" stop-color="#486ddc"/></linearGradient><clipPath id="B"><path fill="#fff" transform="translate(3.216)" d="M0 0h41.569v48H0z"/></clipPath><path id="C" d="M30.197 16.486c-.59-.157-.942.191-.784.777a2.1 2.1 0 0 0 1.348 1.348c.59.158.942-.191.788-.777a2.1 2.1 0 0 0-1.349-1.348h-.004z"/></defs></svg>