<svg xmlns="http://www.w3.org/2000/svg" viewBox="0 0 116.33 22.75"><defs><style>.cls-1{fill:#375bd2;}.cls-2{fill:#1a2c69;}.cls-3{fill:#ddd;}</style></defs><g id="Layer_2" data-name="Layer 2"><g id="Chainlink_Symbol" data-name="Chainlink Symbol"><path class="cls-1" d="M25.43,11.23a4,4,0,0,1,3.88-4.17h.16A3.51,3.51,0,0,1,33.1,9.67l-1.29.43a2.23,2.23,0,0,0-2.34-1.76,2.68,2.68,0,0,0-2.65,2.92,2.63,2.63,0,0,0,2.67,2.88,2.41,2.41,0,0,0,2.39-1.77l1.25.41a3.61,3.61,0,0,1-3.66,2.66,4,4,0,0,1-4-3.9C25.42,11.43,25.43,11.33,25.43,11.23Z"/><path class="cls-1" d="M35.6,15.24H34.28V7H35.6v3.22a2,2,0,0,1,3.58,1.49v3.49H37.91V12a1.08,1.08,0,0,0-.9-1.22h-.24a1.15,1.15,0,0,0-1.15,1.15.34.34,0,0,0,0,.1Z"/><path class="cls-1" d="M42.12,12.08l1.41-.22c.32,0,.41-.2.41-.39,0-.47-.31-.84-1-.84a1,1,0,0,0-1.13.95v.05l-1.2-.27a2.15,2.15,0,0,1,2.32-1.81c1.7,0,2.34,1,2.34,2.09v2.74a5.22,5.22,0,0,0,.07.88H44.08a3.26,3.26,0,0,1-.06-.7,1.92,1.92,0,0,1-1.7.87,1.72,1.72,0,0,1-1.86-1.58.25.25,0,0,1,0-.08A1.71,1.71,0,0,1,42.12,12.08Zm1.82.89v-.25l-1.44.21a.76.76,0,0,0-.73.75.72.72,0,0,0,.74.72h.06A1.26,1.26,0,0,0,44,13.28,1.06,1.06,0,0,0,43.94,13Z"/><path class="cls-1" d="M47.47,6.92a.87.87,0,0,1,.87.85h0a.86.86,0,1,1-1.71,0A.86.86,0,0,1,47.47,6.92Zm-.64,8.35V9.72h1.29v5.52Z"/><path class="cls-1" d="M51.14,15.24H49.83V9.72h1.28v.74a1.82,1.82,0,0,1,1.63-.9,2,2,0,0,1,2,2.19v3.49H53.42V12c0-.68-.31-1.23-1.13-1.23a1.18,1.18,0,0,0-1.16,1.17.66.66,0,0,0,0,.14Z"/><path class="cls-1" d="M56.34,15.24V7h1.31v8.2Z"/><path class="cls-1" d="M60,6.92a.87.87,0,0,1,.86.86.86.86,0,0,1-1.71,0A.86.86,0,0,1,60,6.92Zm-.65,8.35V9.72h1.31v5.52Z"/><path class="cls-1" d="M63.67,15.24H62.36V9.72h1.27v.74a1.86,1.86,0,0,1,1.64-.9,2,2,0,0,1,2,2.19v3.49H66V12a1.07,1.07,0,0,0-.9-1.22h-.24a1.17,1.17,0,0,0-1.15,1.17s0,.09,0,.14Z"/><path class="cls-1" d="M71.76,12.06l2.32,3.18H72.47L70.84,13l-.67.71v1.57H68.86V7h1.31V12l2.11-2.24H74Z"/><path class="cls-1" d="M9.85,4.82l5.69,3.27v6.55L9.87,17.93,4.18,14.67V8.11L9.85,4.82M9.85,0,7.77,1.21,2.09,4.5,0,5.71V17.09l2.09,1.19,5.68,3.27,2.09,1.2L12,21.54l5.67-3.29L19.7,17V5.67l-2.08-1.2L11.93,1.2,9.84,0Z"/><path class="cls-2" d="M90.65,15.24V7H93.6a3.86,3.86,0,0,1,4.08,4.13,3.87,3.87,0,0,1-4.09,4.13Zm2.88-1.49A2.38,2.38,0,0,0,96,11.11a2.37,2.37,0,0,0-2.46-2.64h-1.3v5.28Z"/><path class="cls-2" d="M104.58,12.37a3,3,0,1,1-6,0,3,3,0,1,1,6,0Zm-1.55,0a1.46,1.46,0,1,0-2.91,0,1.46,1.46,0,1,0,2.91,0Z"/><path class="cls-2" d="M106.92,12.37A1.47,1.47,0,0,0,108.39,14a1.3,1.3,0,0,0,1.31-1l1.36.46a2.65,2.65,0,0,1-2.67,1.93,3,3,0,0,1-3-3,2.93,2.93,0,0,1,3-3A2.63,2.63,0,0,1,111,11.27l-1.39.46a1.24,1.24,0,0,0-1.27-1A1.45,1.45,0,0,0,106.92,12.37Z"/><path class="cls-2" d="M113.05,13.35a1,1,0,0,0,1,.87c.52,0,.76-.26.76-.57s-.17-.46-.62-.56l-.75-.17c-1.11-.25-1.61-.91-1.61-1.71A2,2,0,0,1,114,9.33,2,2,0,0,1,116.26,11l-1.29.29a.88.88,0,0,0-1-.77.66.66,0,0,0-.73.57c0,.28.21.45.52.51l.82.18c1.13.23,1.7.92,1.7,1.75a2,2,0,0,1-2.22,1.89,2.15,2.15,0,0,1-2.39-1.77Z"/><rect class="cls-3" x="82.08" width="0.58" height="22.75"/></g></g></svg>