<?xml version="1.0" encoding="UTF-8" standalone="no"?>
<!-- Created with Inkscape (http://www.inkscape.org/) -->

<svg
   width="196.29929mm"
   height="182.87407mm"
   viewBox="0 0 196.29929 182.87407"
   version="1.1"
   id="svg1021"
   inkscape:version="1.1.1 (eb90963e84, 2021-10-02)"
   sodipodi:docname="terra.svg"
   xmlns:inkscape="http://www.inkscape.org/namespaces/inkscape"
   xmlns:sodipodi="http://sodipodi.sourceforge.net/DTD/sodipodi-0.dtd"
   xmlns="http://www.w3.org/2000/svg"
   xmlns:svg="http://www.w3.org/2000/svg">
  <sodipodi:namedview
     id="namedview1023"
     pagecolor="#ffffff"
     bordercolor="#666666"
     borderopacity="1.0"
     inkscape:pageshadow="2"
     inkscape:pageopacity="0.0"
     inkscape:pagecheckerboard="0"
     inkscape:document-units="mm"
     showgrid="false"
     inkscape:zoom="0.42137346"
     inkscape:cx="364.28493"
     inkscape:cy="379.71068"
     inkscape:window-width="1920"
     inkscape:window-height="1011"
     inkscape:window-x="2360"
     inkscape:window-y="631"
     inkscape:window-maximized="1"
     inkscape:current-layer="layer1" />
  <defs
     id="defs1018" />
  <g
     inkscape:label="Layer 1"
     inkscape:groupmode="layer"
     id="layer1"
     transform="translate(-8.8692529,-47.799115)">
    <path
       class="st0"
       d="m 73.980748,53.75224 c 10.292292,-4.233333 21.484167,-5.609166 32.517292,-5.953125 16.61583,0.211667 33.62854,2.328334 48.78916,9.472084 11.90625,5.503333 21.82813,14.578541 29.65979,24.950208 -2.46062,-1.799167 -3.86291,-4.709584 -6.05895,-6.799792 -4.02167,-3.836458 -7.62,-8.440208 -12.93813,-10.530417 -5.23875,-1.799166 -10.87437,-2.248958 -16.37771,-1.984375 -13.78479,0.978959 -27.22562,4.683125 -40.21666,9.313334 -14.261042,5.609166 -28.601458,12.488333 -39.237708,23.838958 -2.116667,2.116666 -3.360208,4.921245 -5.423958,7.064375 -4.868334,-3.307292 -9.604375,-7.249584 -12.488334,-12.461875 -0.132291,-0.264584 -0.423333,-0.820209 -0.555625,-1.11125 8.942917,-4.180417 17.647709,-9.313333 24.500417,-16.51 3.545416,-3.836458 6.852708,-9.2075 5.027083,-14.578542 -1.084792,-3.095624 -4.630208,-3.492499 -7.196667,-4.709583 m 38.205832,107.39437 c 13.36146,4.92125 26.85521,9.47209 40.53416,13.41438 11.98563,3.25437 24.23584,6.42937 36.72417,6.35 -1.29646,3.14854 -2.83104,6.19125 -4.57729,9.10166 -11.00667,3.54542 -21.56354,8.41375 -31.40604,14.49917 -6.0325,3.94229 -12.17083,8.33437 -15.71625,14.76375 -1.42875,2.51354 -1.45521,5.47687 -0.68792,8.17562 -0.15875,0.18521 -0.47625,0.52917 -0.60854,0.71438 -4.28625,1.11125 -8.75771,3.4925 -13.22916,1.77271 -7.48771,-2.40771 -13.6525,-7.69938 -18.81188,-13.44084 -6.297082,-7.46125 -11.456457,-16.53645 -12.091457,-26.45833 -0.185208,-9.33979 5.635625,-17.48896 12.461877,-23.30979 2.32833,-2.01083 4.89479,-3.78354 7.40833,-5.58271 z"
       id="path4"
       style="fill:#2845ad;stroke-width:0.264583" />
    <path
       class="st1"
       d="m 65.672832,54.307865 c 2.725208,-0.661458 5.529791,-0.291041 8.307916,-0.529166 2.566459,1.217083 6.111875,1.613958 7.196667,4.683124 1.799167,5.371042 -1.481667,10.742084 -5.027083,14.578542 -6.852708,7.196667 -15.5575,12.329583 -24.500417,16.51 0.132292,0.264583 0.396875,0.820208 0.555625,1.11125 -1.031875,-0.714375 -2.301875,-0.3175 -3.33375,0.15875 -6.799791,3.042708 -13.890624,5.423958 -21.166666,7.14375 -2.804583,0.582083 -5.635625,1.190625 -8.519583,0.873125 0,-1.666875 1.164166,-2.989792 1.852083,-4.418542 6.879167,-12.461875 16.404167,-23.283333 27.887083,-31.723541 5.08,-3.65125 10.424583,-7.487708 16.748125,-8.387292 m 43.682708,17.912292 c 12.96458,-4.630209 26.40542,-8.334375 40.21666,-9.313334 5.50334,-0.264583 11.13896,0.185209 16.37771,1.984375 5.31813,2.116667 8.91646,6.720417 12.93813,10.530417 2.19604,2.090208 3.59833,5.027083 6.05895,6.799792 1.27,0.635 1.7198,2.2225 2.61938,3.280833 18.36208,25.98208 22.72771,61.17167 11.35062,90.88437 -1.11125,3.96875 -6.08541,4.1275 -9.47208,4.52438 -12.51479,0.0794 -24.73854,-3.09563 -36.72417,-6.35 -13.67895,-3.94229 -27.1727,-8.49313 -40.53416,-13.41438 -12.620624,-4.97416 -24.89729,-11.13895 -35.480623,-19.71145 -6.614583,-5.66208 -12.752917,-12.75292 -14.419792,-21.53708 -1.11125,-4.5773 -0.423333,-9.39272 1.296459,-13.70542 0.423333,-1.00542 1.11125,-1.95792 1.11125,-3.06917 2.090208,-2.14313 3.307291,-4.947709 5.423958,-7.064375 C 80.754082,84.70849 95.094498,77.829323 109.35554,72.220157 m -94.562082,35.930413 0.529166,0.21167 c 3.96875,4.84187 8.016875,9.65729 12.012083,14.44625 8.41375,9.63083 15.610417,20.21417 22.357292,31.06208 9.445625,14.55208 17.912291,30.50646 19.632083,48.02187 0.15875,9.44563 0.211667,18.97063 -1.322917,28.33688 -2.725208,0.68792 -5.423958,-1.05833 -7.858125,-2.11667 C 41.966166,218.32307 27.123041,202.5539 18.259499,183.87432 7.1205409,160.4587 5.7976239,132.5187 14.793458,108.15057 m 170.074162,81.86208 c 2.40771,-0.635 4.81542,-1.5875 7.35542,-1.48166 0.68791,1.74625 -0.635,3.22791 -1.45521,4.65666 -7.99042,12.91167 -18.89125,24.02417 -31.82938,31.98813 -4.33916,2.72521 -8.96937,5.74146 -14.28749,5.47687 -2.54,0.18521 -5.00063,-0.89958 -6.87917,-2.56646 -0.3175,0.0265 -1.00542,0.0794 -1.32292,0.10584 0.15875,-0.18521 0.47625,-0.52917 0.60854,-0.71438 -0.74083,-2.69875 -0.71437,-5.68854 0.68792,-8.17562 3.54542,-6.42938 9.68375,-10.82146 15.71625,-14.76375 9.8425,-6.11188 20.39937,-10.98021 31.40604,-14.52563 z"
       id="path6"
       style="fill:#5494f8;stroke-width:0.264583" />
  </g>
</svg>
