<?xml version="1.0" encoding="UTF-8" standalone="no"?>
<!-- Created with Inkscape (http://www.inkscape.org/) -->

<svg
   width="211.66666mm"
   height="211.66666mm"
   viewBox="0 0 211.66666 211.66666"
   version="1.1"
   id="svg851"
   inkscape:version="1.1.1 (eb90963e84, 2021-10-02)"
   sodipodi:docname="terra.svg"
   xmlns:inkscape="http://www.inkscape.org/namespaces/inkscape"
   xmlns:sodipodi="http://sodipodi.sourceforge.net/DTD/sodipodi-0.dtd"
   xmlns="http://www.w3.org/2000/svg"
   xmlns:svg="http://www.w3.org/2000/svg">
  <sodipodi:namedview
     id="namedview853"
     pagecolor="#ffffff"
     bordercolor="#666666"
     borderopacity="1.0"
     inkscape:pageshadow="2"
     inkscape:pageopacity="0.0"
     inkscape:pagecheckerboard="0"
     inkscape:document-units="mm"
     showgrid="false"
     inkscape:zoom="0.42137346"
     inkscape:cx="566.00623"
     inkscape:cy="664.49368"
     inkscape:window-width="1920"
     inkscape:window-height="1011"
     inkscape:window-x="2360"
     inkscape:window-y="631"
     inkscape:window-maximized="1"
     inkscape:current-layer="layer1" />
  <defs
     id="defs848" />
  <g
     inkscape:label="Layer 1"
     inkscape:groupmode="layer"
     id="layer1"
     transform="translate(44.29845,27.344959)">
    <path
       class="st0"
       d="m 28.488425,-6.9985017 c 10.292292,-4.2333333 21.484167,-5.6091663 32.517292,-5.9531253 16.615833,0.211667 33.628541,2.328334 48.789163,9.4720836 11.90625,5.5033332 21.82813,14.5785414 29.65979,24.9502084 -2.46062,-1.799167 -3.86291,-4.709584 -6.05895,-6.799792 -4.02167,-3.836458 -7.62,-8.4402082 -12.93813,-10.5304165 C 115.21884,2.3412898 109.58322,1.8914982 104.07988,2.1560815 90.295091,3.1350398 76.854258,6.8392064 63.863217,11.469415 49.602175,17.078581 35.261759,23.957748 24.625509,35.308373 22.508842,37.425039 21.265301,40.229623 19.201551,42.372748 14.333217,39.065456 9.5971757,35.123164 6.7132174,29.910873 6.5809257,29.646289 6.2898841,29.090664 6.1575924,28.799623 15.100509,24.619206 23.805301,19.48629 30.658009,12.289623 34.203425,8.4531647 37.510717,3.0821231 35.685092,-2.2889185 34.6003,-5.3845434 31.054884,-5.7814184 28.488425,-6.9985017 M 66.694258,100.39587 c 13.361458,4.92125 26.855208,9.47209 40.534162,13.41438 11.98563,3.25437 24.23584,6.42937 36.72417,6.35 -1.29646,3.14854 -2.83104,6.19125 -4.57729,9.10166 -11.00667,3.54542 -21.56354,8.41375 -31.40604,14.49917 -6.0325,3.94229 -12.170835,8.33437 -15.716252,14.76375 -1.42875,2.51354 -1.455208,5.47687 -0.687917,8.17562 -0.15875,0.18521 -0.47625,0.52917 -0.608541,0.71438 -4.28625,1.11125 -8.757709,3.4925 -13.229167,1.77271 -7.487708,-2.40771 -13.6525,-7.69938 -18.811875,-13.44084 -6.297083,-7.46125 -11.456458,-16.53645 -12.091458,-26.45833 -0.185208,-9.33979 5.635625,-17.48896 12.461875,-23.30979 2.328333,-2.01083 4.894792,-3.78354 7.408333,-5.58271 z"
       id="path4"
       style="fill:#2845ad;stroke-width:0.264583" />
    <path
       class="st1"
       d="m 20.180509,-6.4428767 c 2.725208,-0.6614584 5.529791,-0.2910417 8.307916,-0.5291667 2.566459,1.2170833 6.111875,1.6139583 7.196667,4.6831249 1.799167,5.3710416 -1.481667,10.7420832 -5.027083,14.5785415 -6.852708,7.196667 -15.5575,12.329583 -24.5004166,16.51 0.1322917,0.264583 0.396875,0.820208 0.555625,1.11125 -1.031875,-0.714375 -2.301875,-0.3175 -3.33375,0.15875 -6.7997915,3.042708 -13.8906244,5.423958 -21.1666664,7.14375 -2.804583,0.582083 -5.635625,1.190625 -8.519583,0.873125 0,-1.666875 1.164166,-2.989792 1.852083,-4.418542 C -17.575532,21.206081 -8.0505324,10.384623 3.4323841,1.9444148 8.512384,-1.7068351 13.856967,-5.5432934 20.180509,-6.4428767 M 63.863217,11.469415 C 76.8278,6.8392064 90.268633,3.1350398 104.07988,2.1560815 c 5.50334,-0.2645833 11.13896,0.1852083 16.37771,1.984375 5.31813,2.1166666 8.91646,6.7204165 12.93813,10.5304165 2.19604,2.090208 3.59833,5.027083 6.05895,6.799792 1.27,0.635 1.7198,2.2225 2.61938,3.280833 18.36208,25.982083 22.72771,61.171666 11.35062,90.884372 -1.11125,3.96875 -6.08541,4.1275 -9.47208,4.52438 -12.51479,0.0794 -24.73854,-3.09563 -36.72417,-6.35 C 93.549466,109.86796 80.055716,105.31712 66.694258,100.39587 54.073633,95.421705 41.796967,89.256914 31.213634,80.684414 24.599051,75.022331 18.460717,67.931497 16.793842,59.147331 c -1.11125,-4.577292 -0.423333,-9.392708 1.296459,-13.705417 0.423333,-1.005416 1.11125,-1.957916 1.11125,-3.069166 2.090208,-2.143125 3.307291,-4.947709 5.423958,-7.064375 10.63625,-11.350625 24.976666,-18.229792 39.237708,-23.838958 m -94.562082,35.930416 0.529166,0.211667 c 3.96875,4.841875 8.016875,9.657291 12.012083,14.446249 8.4137503,9.630834 15.6104169,20.214167 22.3572918,31.062083 9.4456252,14.55208 17.9122912,30.50646 19.6320832,48.02187 0.15875,9.44563 0.211667,18.97063 -1.322917,28.33688 -2.725208,0.68792 -5.423958,-1.05833 -7.858125,-2.11667 C -3.5261575,157.57233 -18.369282,141.80316 -27.232824,123.12358 -38.371782,99.707955 -39.694699,71.767956 -30.698865,47.399831 M 139.3753,129.26191 c 2.40771,-0.635 4.81542,-1.5875 7.35542,-1.48166 0.68791,1.74625 -0.635,3.22791 -1.45521,4.65666 -7.99042,12.91167 -18.89125,24.02417 -31.82938,31.98813 -4.33916,2.72521 -8.96937,5.74146 -14.287497,5.47687 -2.54,0.18521 -5.000625,-0.89958 -6.879167,-2.56646 -0.3175,0.0265 -1.005416,0.0794 -1.322916,0.10584 0.15875,-0.18521 0.47625,-0.52917 0.608541,-0.71438 -0.740833,-2.69875 -0.714375,-5.68854 0.687917,-8.17562 3.545417,-6.42938 9.683752,-10.82146 15.716252,-14.76375 9.8425,-6.11188 20.39937,-10.98021 31.40604,-14.52563 z"
       id="path6"
       style="fill:#5494f8;stroke-width:0.264583" />
    <rect
       x="-44.29845"
       y="-27.344959"
       class="st2"
       width="211.66666"
       height="211.66666"
       id="rect8"
       style="fill:none;stroke-width:0.264583" />
  </g>
</svg>
