<svg width="24" height="24" viewBox="0 0 24 24" fill="none" xmlns="http://www.w3.org/2000/svg">
<path d="M12.0022 0L1.60999 6.00046V17.9995L12.0022 24L22.3945 17.9995V6.00046L12.0022 0ZM19.4739 13.3934C19.4318 13.3714 19.3915 13.3512 19.3475 13.3329C18.5414 12.9995 17.6179 13.3824 17.2845 14.1886C16.951 14.9947 17.3339 15.9182 18.1383 16.2516C18.1822 16.2699 18.2262 16.2846 18.272 16.2993C17.7425 17.0706 17.0738 17.7394 16.3024 18.2689C16.2877 18.2249 16.2731 18.1791 16.2548 18.1351C15.9213 17.329 14.9979 16.946 14.1917 17.2795C13.3855 17.6129 13.0026 18.5364 13.3379 19.3425C13.3562 19.3865 13.3764 19.4287 13.3984 19.469C12.9458 19.5532 12.4823 19.5991 12.0059 19.5991C11.5295 19.5991 11.0641 19.5532 10.6134 19.469C10.6354 19.4268 10.6556 19.3865 10.6739 19.3425C11.0073 18.5364 10.6244 17.6129 9.81824 17.2795C9.01208 16.946 8.08865 17.329 7.75519 18.1351C7.73687 18.1791 7.72221 18.2231 7.70755 18.2689C6.93619 17.7394 6.26744 17.0706 5.73793 16.2993C5.78191 16.2846 5.82771 16.2699 5.87168 16.2516C6.67785 15.9182 7.06078 14.9947 6.72732 14.1886C6.39386 13.3824 5.47043 12.9995 4.66426 13.3329C4.62029 13.3512 4.57815 13.3714 4.53784 13.3934C4.45356 12.9408 4.40776 12.4773 4.40776 12.0009C4.40776 11.5245 4.45356 11.0592 4.53784 10.6084C4.57998 10.6304 4.62029 10.6506 4.66426 10.6689C5.47043 11.0024 6.39386 10.6194 6.72732 9.8151C7.06078 9.00893 6.67785 8.0855 5.87168 7.75204C5.82771 7.73372 5.78374 7.71906 5.73793 7.7044C6.26744 6.93305 6.93619 6.26429 7.70755 5.73479C7.72221 5.77876 7.73687 5.82457 7.75519 5.86854C8.08865 6.67471 9.01208 7.05764 9.81824 6.72234C10.6244 6.38888 11.0073 5.46546 10.6739 4.65929C10.6556 4.61531 10.6354 4.57317 10.6134 4.53287C11.066 4.44858 11.5295 4.40278 12.0059 4.40278C12.4823 4.40278 12.9476 4.44858 13.3984 4.53287C13.3764 4.57501 13.3562 4.61531 13.3379 4.65929C13.0044 5.46546 13.3874 6.38888 14.1917 6.72234C14.9979 7.05581 15.9213 6.67288 16.2548 5.86854C16.2731 5.82457 16.2877 5.78059 16.3024 5.73479C17.0738 6.26429 17.7425 6.93305 18.272 7.7044C18.228 7.71906 18.1822 7.73372 18.1383 7.75204C17.3321 8.0855 16.9492 9.00893 17.2845 9.8151C17.6179 10.6213 18.5414 11.0042 19.3475 10.6689C19.3915 10.6506 19.4336 10.6304 19.4739 10.6084C19.5582 11.061 19.604 11.5245 19.604 12.0009C19.604 12.4773 19.5582 12.9427 19.4739 13.3934Z" fill="url(#paint0_linear_2872_3516)"/>
<path d="M19.4739 10.6067C19.4318 10.6287 19.3915 10.6488 19.3475 10.6671C18.5413 11.0006 17.6179 10.6177 17.2844 9.81332C16.951 9.00715 17.3339 8.08372 18.1382 7.75026C18.1822 7.73194 18.2262 7.71728 18.272 7.70263C17.7425 6.93127 17.0737 6.26252 16.3024 5.73301C16.2877 5.77698 16.273 5.82279 16.2547 5.86676C15.9213 6.67293 14.9978 7.05586 14.1917 6.72057C13.3855 6.38711 13.0026 5.46368 13.3379 4.65751C13.3562 4.61354 13.3763 4.5714 13.3983 4.53109C12.9458 4.44681 12.4822 4.401 12.0059 4.401C11.5295 4.401 11.0641 4.44681 10.6134 4.53109C10.6354 4.57323 10.6555 4.61354 10.6738 4.65751C11.0073 5.46368 10.6244 6.38711 9.8182 6.72057C9.01203 7.05403 8.08861 6.6711 7.75515 5.86676C7.73682 5.82279 7.72217 5.77882 7.70751 5.73301C6.93615 6.26252 6.2674 6.93127 5.73789 7.70263C5.78187 7.71728 5.82767 7.73194 5.87164 7.75026C6.67781 8.08372 7.06074 9.00715 6.72728 9.81332C6.39382 10.6195 5.47039 11.0024 4.66422 10.6671C4.62025 10.6488 4.57811 10.6287 4.5378 10.6067C4.45352 11.0592 4.40771 11.5228 4.40771 11.9991C4.40771 12.4755 4.45352 12.9409 4.5378 13.3916C4.57994 13.3696 4.62025 13.3495 4.66422 13.3311C5.47039 12.9977 6.39382 13.3806 6.72728 14.1868C7.06074 14.993 6.67781 15.9164 5.87164 16.2498C5.82767 16.2682 5.7837 16.2828 5.73789 16.2975C6.2674 17.0688 6.93615 17.7376 7.70751 18.2671C7.72217 18.2231 7.73682 18.1773 7.75515 18.1333C8.08861 17.3272 9.01203 16.9442 9.8182 17.2777C10.6244 17.6112 11.0073 18.5346 10.6738 19.3408C10.6555 19.3847 10.6354 19.4269 10.6134 19.4672C11.0659 19.5515 11.5295 19.5973 12.0059 19.5973C12.4822 19.5973 12.9476 19.5515 13.3983 19.4672C13.3763 19.425 13.3562 19.3847 13.3379 19.3408C13.0044 18.5346 13.3873 17.6112 14.1917 17.2777C14.9978 16.9442 15.9213 17.3272 16.2547 18.1333C16.273 18.1773 16.2877 18.2213 16.3024 18.2671C17.0737 17.7376 17.7425 17.0688 18.272 16.2975C18.228 16.2828 18.1822 16.2682 18.1382 16.2498C17.3321 15.9164 16.9491 14.993 17.2844 14.1868C17.6179 13.3806 18.5413 12.9977 19.3475 13.3311C19.3915 13.3495 19.4336 13.3696 19.4739 13.3916C19.5582 12.9391 19.604 12.4755 19.604 11.9991C19.604 11.5228 19.5582 11.0574 19.4739 10.6067ZM13.424 14.4616C12.5445 14.9691 11.4617 14.9691 10.5822 14.4616C9.70278 13.9541 9.16044 13.016 9.16044 11.9991C9.16044 10.9823 9.70278 10.046 10.5822 9.53666C11.4617 9.02914 12.5445 9.02914 13.424 9.53666C14.3034 10.0442 14.8458 10.9823 14.8458 11.9991C14.8458 13.016 14.3034 13.9523 13.424 14.4616Z" fill="black"/>
<defs>
<linearGradient id="paint0_linear_2872_3516" x1="17.1984" y1="2.99931" x2="6.80611" y2="21.0007" gradientUnits="userSpaceOnUse">
<stop stop-color="#7790E2"/>
<stop offset="1" stop-color="#486DDC"/>
</linearGradient>
</defs>
</svg>
