<svg width="24" height="24" viewBox="0 0 24 24" fill="none" xmlns="http://www.w3.org/2000/svg">
<path d="M12.0022 18.529V15.264L9.17514 16.8965V13.6316L6.34806 15.264V10.9785L1.60999 8.23206V17.9995L12.0022 24L20.4505 19.1227L15.7216 16.3799L12.0022 18.529Z" fill="url(#paint0_linear_2872_3524)"/>
<path d="M12.0022 0L3.53748 4.88831L8.26639 7.62928L12.0022 5.47095V8.73593L14.8293 7.10344V10.3684L17.6564 8.73593V13.0398L22.3945 15.7881V6.00046L12.0022 0Z" fill="url(#paint1_linear_2872_3524)"/>
<path d="M9.17511 10.3684L12.0022 8.73593V5.47095L6.34802 8.73593V15.2641L9.17511 13.6316V10.3684Z" fill="black"/>
<path d="M13.8655 15.3026V13.0746L15.7949 11.9606L17.6582 13.0398V8.73596L12.004 11.9991V18.5291L15.7234 16.3799L13.8655 15.3026Z" fill="black"/>
<defs>
<linearGradient id="paint0_linear_2872_3524" x1="11.033" y1="13.6719" x2="6.80427" y2="20.9988" gradientUnits="userSpaceOnUse">
<stop stop-color="#7790E2"/>
<stop offset="1" stop-color="#486DDC"/>
</linearGradient>
<linearGradient id="paint1_linear_2872_3524" x1="17.2002" y1="3.00115" x2="12.9623" y2="10.3428" gradientUnits="userSpaceOnUse">
<stop stop-color="#7790E2"/>
<stop offset="1" stop-color="#486DDC"/>
</linearGradient>
</defs>
</svg>
