<svg width="102" height="24" viewBox="0 0 102 24" fill="none" xmlns="http://www.w3.org/2000/svg">
  <path
    d="M12.4552 5.08507L18.4881 8.53015V15.4478L12.4718 18.9149L6.43889 15.4753V8.55767L12.4552 5.08507ZM12.4552 0L10.2413 1.27677L4.21391 4.74937L2 6.02614V8.56868V15.4809V18.0234L4.21391 19.2892L10.2468 22.7342L12.4607 24L14.6746 22.7232L20.6909 19.2506L22.9048 17.9794V15.4368V8.51915V5.97661L20.6909 4.71085L14.658 1.26576L12.4441 0H12.4552Z"
    fill="#375BD2"
  />
  <path
    d="M38.4 18.24C35.344 18.24 32.672 16.032 32.672 12.336C32.672 8.64 35.44 6.416 38.384 6.416C41.264 6.416 42.976 8.112 43.488 10.096L41.68 10.704C41.344 9.328 40.288 8.224 38.384 8.224C36.512 8.224 34.64 9.584 34.64 12.336C34.64 14.992 36.464 16.4 38.4 16.4C40.304 16.4 41.392 15.184 41.776 13.904L43.536 14.48C43.024 16.4 41.296 18.24 38.4 18.24ZM47.0248 13.424V18H45.1688V6.416H47.0248V10.96C47.5528 10.272 48.4328 9.984 49.2488 9.984C51.1688 9.984 52.0968 11.36 52.0968 13.072V18H50.2408V13.392C50.2408 12.432 49.8088 11.664 48.6408 11.664C47.6168 11.664 47.0568 12.432 47.0248 13.424ZM53.8763 15.888C53.8763 14.496 54.9003 13.728 56.2283 13.536L58.2283 13.232C58.6763 13.168 58.8043 12.944 58.8043 12.672C58.8043 12.016 58.3563 11.488 57.3323 11.488C56.3563 11.488 55.8123 12.112 55.7323 12.896L54.0363 12.512C54.1803 11.168 55.3963 9.968 57.3163 9.968C59.7163 9.968 60.6283 11.328 60.6283 12.88V16.752C60.6283 17.456 60.7083 17.92 60.7243 18H58.9963C58.9803 17.952 58.9163 17.632 58.9163 17.008C58.5483 17.6 57.7803 18.24 56.5163 18.24C54.8843 18.24 53.8763 17.12 53.8763 15.888ZM56.8683 16.784C57.9083 16.784 58.8043 16.288 58.8043 14.768V14.416L56.7723 14.72C56.1963 14.816 55.7323 15.136 55.7323 15.776C55.7323 16.304 56.1323 16.784 56.8683 16.784ZM64.7119 18H62.8719V10.208H64.7119V18ZM62.5839 7.472C62.5839 6.8 63.1279 6.256 63.7839 6.256C64.4559 6.256 64.9999 6.8 64.9999 7.472C64.9999 8.144 64.4559 8.672 63.7839 8.672C63.1279 8.672 62.5839 8.144 62.5839 7.472ZM68.9623 13.504V18H67.1063V10.208H68.9143V11.248C69.4263 10.352 70.3543 9.984 71.2183 9.984C73.1223 9.984 74.0343 11.36 74.0343 13.072V18H72.1783V13.392C72.1783 12.432 71.7463 11.664 70.5783 11.664C69.5223 11.664 68.9623 12.48 68.9623 13.504ZM78.1498 18H76.2938V6.416H78.1498V18ZM82.3838 18H80.5438V10.208H82.3838V18ZM80.2558 7.472C80.2558 6.8 80.7998 6.256 81.4557 6.256C82.1278 6.256 82.6718 6.8 82.6718 7.472C82.6718 8.144 82.1278 8.672 81.4557 8.672C80.7998 8.672 80.2558 8.144 80.2558 7.472ZM86.6341 13.504V18H84.7781V10.208H86.5861V11.248C87.0981 10.352 88.0261 9.984 88.8901 9.984C90.7941 9.984 91.7061 11.36 91.7061 13.072V18H89.8501V13.392C89.8501 12.432 89.4181 11.664 88.2501 11.664C87.1941 11.664 86.6341 12.48 86.6341 13.504ZM101.262 10.208L98.0616 13.504L101.326 18H99.0536L96.7656 14.816L95.8056 15.824V18H93.9656V6.416H95.8056V13.36L98.7976 10.208H101.262Z"
    fill="#375BD2"
  />
</svg>
