<svg width="20" height="20" viewBox="0 0 20 20" fill="none" xmlns="http://www.w3.org/2000/svg">
<path d="M17.0438 2.98717C16.8999 2.84292 16.729 2.72848 16.5408 2.6504C16.3527 2.57232 16.151 2.53213 15.9473 2.53213C15.7436 2.53213 15.5419 2.57232 15.3538 2.6504C15.1656 2.72848 14.9947 2.84292 14.8508 2.98717L10.2342 7.60653C10.1761 7.66451 10.0974 7.69707 10.0153 7.69707C9.93325 7.69707 9.85453 7.66451 9.7964 7.60653L5.17858 2.98717C5.03627 2.83614 4.86512 2.71521 4.67527 2.63156C4.48541 2.5479 4.2807 2.50323 4.07327 2.50017C3.86585 2.49711 3.65991 2.53574 3.46768 2.61376C3.27544 2.69178 3.1008 2.80761 2.95411 2.95439C2.80742 3.10116 2.69166 3.2759 2.61369 3.46826C2.53572 3.66061 2.49711 3.86667 2.50017 4.07422C2.50322 4.28177 2.54787 4.4866 2.63148 4.67657C2.71508 4.86654 2.83593 5.0378 2.98688 5.18019L7.60347 9.79955C7.63234 9.82837 7.65525 9.86261 7.67089 9.9003C7.68652 9.938 7.69456 9.97841 7.69456 10.0192C7.69456 10.06 7.68652 10.1004 7.67089 10.1381C7.65525 10.1758 7.63234 10.2101 7.60347 10.2389L2.98688 14.8607C2.69633 15.1518 2.53314 15.5464 2.53314 15.9579C2.53314 16.3693 2.69633 16.7639 2.98688 17.055C3.28062 17.3404 3.67393 17.5 4.08335 17.5C4.49277 17.5 4.88608 17.3404 5.17982 17.055L9.7964 12.4356C9.8251 12.4068 9.85922 12.3839 9.89679 12.3683C9.93436 12.3526 9.97464 12.3446 10.0153 12.3446C10.056 12.3446 10.0963 12.3526 10.1339 12.3683C10.1714 12.3839 10.2055 12.4068 10.2342 12.4356L14.8533 17.0525C15.1475 17.337 15.5406 17.4961 15.9498 17.4961C16.3589 17.4961 16.7521 17.337 17.0463 17.0525C17.3368 16.7614 17.5 16.3668 17.5 15.9554C17.5 15.544 17.3368 15.1494 17.0463 14.8583L12.4297 10.2389C12.4008 10.2101 12.3779 10.1758 12.3622 10.1381C12.3466 10.1004 12.3386 10.06 12.3386 10.0192C12.3386 9.97841 12.3466 9.938 12.3622 9.9003C12.3779 9.86261 12.4008 9.82837 12.4297 9.79955L17.0438 5.18019C17.1878 5.03623 17.302 4.8653 17.3799 4.67715C17.4578 4.48901 17.4979 4.28734 17.4979 4.08368C17.4979 3.88002 17.4578 3.67835 17.3799 3.49021C17.302 3.30207 17.1878 3.13113 17.0438 2.98717Z" fill="#0847f7"/>
</svg>
