<svg width="24" height="24" viewBox="0 0 24 24" fill="none" xmlns="http://www.w3.org/2000/svg">
<g clip-path="url(#clip0_2872_3541)">
<path d="M1 5.91157L10.9801 0.145269C11.1487 0.0479424 11.3399 -0.0032959 11.5346 -0.0032959C11.7292 -0.0032959 11.9205 0.0479424 12.089 0.145269L22.0692 5.91157L11.5346 12.0105L1 5.91157Z" fill="url(#paint0_linear_2872_3541)"/>
<path d="M1 14.9969V5.91162L8.8588 10.4637L1 14.9969Z" fill="#23337B"/>
<path d="M11.5346 15.0911V24C11.3957 24.0005 11.2579 23.9745 11.1287 23.9235L1.42027 18.318L1.21069 18.1971L1 18.0751L1.07208 18.0341L1.14305 17.9931L8.8588 13.5497L11.5346 15.0933V15.0911Z" fill="#23337B"/>
<path d="M22.0691 9.01978V17.4796C22.0691 17.4885 22.0691 17.4985 22.0691 17.5084C22.0568 17.6905 21.9998 17.8667 21.9031 18.0215C21.8064 18.1762 21.673 18.3047 21.5147 18.3956L11.9404 23.9234C11.8758 23.9487 11.809 23.968 11.7408 23.9811C11.6727 23.9934 11.6037 23.9997 11.5345 24V15.091L22.0691 9.01978Z" fill="url(#paint1_linear_2872_3541)"/>
</g>
<defs>
<linearGradient id="paint0_linear_2872_3541" x1="19.7394" y1="10.2929" x2="3.31428" y2="1.55913" gradientUnits="userSpaceOnUse">
<stop stop-color="#8B9CDF"/>
<stop offset="1" stop-color="#375BD2"/>
</linearGradient>
<linearGradient id="paint1_linear_2872_3541" x1="1636.28" y1="3066.03" x2="1158.7" y2="1485.76" gradientUnits="userSpaceOnUse">
<stop stop-color="#8B9CDF"/>
<stop offset="1" stop-color="#375BD2"/>
</linearGradient>
<clipPath id="clip0_2872_3541">
<rect width="24" height="24" fill="white"/>
</clipPath>
</defs>
</svg>
