<svg width="24" height="24" viewBox="0 0 24 24" fill="none" xmlns="http://www.w3.org/2000/svg">
<path d="M20.15 4.04C20.0372 4.01698 19.9359 3.95576 19.863 3.86668C19.7901 3.77759 19.7502 3.66609 19.75 3.551V2C19.75 1.46957 19.5393 0.960859 19.1642 0.585786C18.7891 0.210714 18.2804 0 17.75 0L5.25 0C4.45435 0 3.69129 0.31607 3.12868 0.87868C2.56607 1.44129 2.25 2.20435 2.25 3V21C2.25 21.7956 2.56607 22.5587 3.12868 23.1213C3.69129 23.6839 4.45435 24 5.25 24H19.75C20.2804 24 20.7891 23.7893 21.1642 23.4142C21.5393 23.0391 21.75 22.5304 21.75 22V6C21.7501 5.53894 21.5909 5.09201 21.2993 4.73484C21.0078 4.37767 20.6017 4.13221 20.15 4.04ZM5.25 2H17.5C17.5663 2 17.6299 2.02634 17.6768 2.07322C17.7237 2.12011 17.75 2.1837 17.75 2.25V3.75C17.75 3.8163 17.7237 3.87989 17.6768 3.92678C17.6299 3.97366 17.5663 4 17.5 4H5.25C4.98478 4 4.73043 3.89464 4.54289 3.70711C4.35536 3.51957 4.25 3.26522 4.25 3C4.25 2.73478 4.35536 2.48043 4.54289 2.29289C4.73043 2.10536 4.98478 2 5.25 2Z" fill="url(#paint0_linear_4655_4836)"/>
<path d="M10.6787 16.8945L10.6967 16.8775C10.8342 16.7399 10.913 16.5542 10.9163 16.3596C10.9197 16.1651 10.8474 15.9768 10.7147 15.8345L8.68568 13.6605C8.6423 13.6143 8.61815 13.5534 8.61815 13.49C8.61815 13.4267 8.6423 13.3657 8.68568 13.3195L10.7137 11.1455C10.8507 11.0023 10.9255 10.8107 10.9217 10.6125C10.9179 10.4144 10.8358 10.2258 10.6933 10.0879C10.5509 9.95013 10.3597 9.87429 10.1615 9.87702C9.96333 9.87975 9.77428 9.96082 9.63568 10.1025L9.61768 10.1215L6.95168 12.9775C6.82207 13.1167 6.75 13.2998 6.75 13.49C6.75 13.6802 6.82207 13.8633 6.95168 14.0025L9.61768 16.8595C9.75393 17.0045 9.94209 17.0896 10.141 17.0962C10.3398 17.1028 10.5332 17.0302 10.6787 16.8945Z" fill="white"/>
<path d="M13.2854 15.8343C13.1483 15.9775 13.0736 16.1692 13.0774 16.3673C13.0812 16.5655 13.1633 16.7541 13.3057 16.8919C13.4482 17.0297 13.6394 17.1056 13.8376 17.1028C14.0357 17.1001 14.2248 17.019 14.3634 16.8773L14.3814 16.8593L17.0474 14.0023C17.177 13.8632 17.2491 13.68 17.2491 13.4898C17.2491 13.2996 17.177 13.1165 17.0474 12.9773L14.3814 10.1213C14.2454 9.97595 14.0573 9.89048 13.8583 9.88373C13.6594 9.87698 13.4659 9.9495 13.3204 10.0853C13.2461 10.1512 13.186 10.2314 13.1438 10.3212C13.1015 10.411 13.078 10.5084 13.0746 10.6076C13.0713 10.7068 13.0881 10.8056 13.1242 10.898C13.1603 10.9905 13.2148 11.0746 13.2844 11.1453L15.3134 13.3193C15.3568 13.3655 15.3809 13.4265 15.3809 13.4898C15.3809 13.5532 15.3568 13.6142 15.3134 13.6603L13.2854 15.8343Z" fill="white"/>
<defs>
<linearGradient id="paint0_linear_4655_4836" x1="21.75" y1="24" x2="4.91438" y2="-2.92008" gradientUnits="userSpaceOnUse">
<stop stop-color="#8B9CDF"/>
<stop offset="1" stop-color="#2F57CD"/>
</linearGradient>
</defs>
</svg>
