<svg width="16" height="16" viewBox="0 0 16 16" fill="none" xmlns="http://www.w3.org/2000/svg">
<g clip-path="url(#clip0_4805_16164)">
<path d="M15.9072 14.5846L14.6166 11.8206C15.5823 10.1752 15.9154 8.23428 15.5532 6.36108C15.1911 4.48789 14.1587 2.81088 12.6493 1.64401C11.1398 0.477136 9.25688 -0.0996052 7.35287 0.021754C5.44886 0.143113 3.65435 0.954252 2.30528 2.30332C0.956206 3.65239 0.145066 5.4469 0.0237071 7.35091C-0.0976521 9.25492 0.479089 11.1379 1.64596 12.6473C2.81284 14.1568 4.48984 15.1892 6.36303 15.5513C8.23623 15.9134 10.1772 15.5804 11.8226 14.6146L14.5879 15.9046C14.7726 15.9905 14.9793 16.0175 15.1799 15.982C15.3804 15.9465 15.5653 15.8502 15.7093 15.7061C15.8533 15.562 15.9495 15.3771 15.9849 15.1765C16.0203 14.9759 15.9932 14.7693 15.9072 14.5846ZM13.3806 4.41127C13.3964 4.4365 13.4052 4.46553 13.406 4.49532C13.4069 4.52511 13.3997 4.55457 13.3852 4.58065C13.3708 4.60672 13.3497 4.62845 13.324 4.64357C13.2983 4.65869 13.269 4.66664 13.2392 4.6666H11.6726C11.6333 4.66653 11.5952 4.65258 11.5652 4.62721C11.5352 4.60183 11.5152 4.56667 11.5086 4.52793C11.3936 3.83966 11.2292 3.16056 11.0166 2.49594C11.006 2.46349 11.0057 2.42859 11.0156 2.39595C11.0256 2.36331 11.0453 2.3345 11.0721 2.31342C11.0989 2.29234 11.1316 2.28 11.1656 2.27807C11.1997 2.27613 11.2335 2.28469 11.2626 2.3026C12.1214 2.83316 12.8462 3.55477 13.3806 4.41127ZM14.3626 7.8466C14.363 8.41903 14.2881 8.98903 14.1399 9.54193C14.1305 9.57734 14.1096 9.60864 14.0805 9.63095C14.0515 9.65325 14.0159 9.66532 13.9792 9.66527H11.8812C11.8582 9.66525 11.8355 9.66047 11.8144 9.65123C11.7933 9.642 11.7744 9.6285 11.7588 9.61159C11.7432 9.59468 11.7313 9.57473 11.7238 9.55299C11.7163 9.53125 11.7134 9.50819 11.7152 9.48527C11.7579 8.95193 11.7819 8.40327 11.7819 7.8466C11.7819 7.28994 11.7599 6.72194 11.7152 6.17993C11.7134 6.15718 11.7163 6.13428 11.7236 6.11268C11.731 6.09107 11.7428 6.07122 11.7582 6.05434C11.7735 6.03746 11.7922 6.02392 11.813 6.01457C11.8339 6.00521 11.8564 6.00023 11.8792 5.99993H13.9699C14.0063 6.00002 14.0417 6.01198 14.0707 6.034C14.0997 6.05602 14.1207 6.08689 14.1306 6.12193C14.2849 6.68382 14.3629 7.26391 14.3626 7.8466ZM1.33322 7.8466C1.33301 7.26366 1.41127 6.68333 1.56589 6.12127C1.57587 6.08635 1.59695 6.05562 1.62593 6.03373C1.65492 6.01185 1.69023 5.99998 1.72655 5.99993H3.81722C3.84025 5.99985 3.86305 6.00456 3.88416 6.01377C3.90527 6.02297 3.92423 6.03647 3.93984 6.0534C3.95545 6.07032 3.96737 6.09032 3.97484 6.1121C3.98231 6.13389 3.98516 6.15699 3.98322 6.17993C3.93989 6.7226 3.91655 7.2806 3.91655 7.8466C3.91655 8.4126 3.93855 8.95193 3.98322 9.48527C3.98486 9.50815 3.9818 9.53113 3.97422 9.55278C3.96664 9.57443 3.9547 9.59431 3.93915 9.61117C3.9236 9.62803 3.90476 9.64153 3.88379 9.65084C3.86282 9.66014 3.84016 9.66505 3.81722 9.66527H1.71855C1.68192 9.66532 1.64629 9.65325 1.61723 9.63095C1.58817 9.60864 1.5673 9.57734 1.55789 9.54193C1.40858 8.9892 1.33304 8.41915 1.33322 7.8466ZM5.25055 7.8466C5.25055 7.2706 5.27589 6.70193 5.32455 6.1506C5.32853 6.10934 5.34774 6.07105 5.37844 6.04319C5.40913 6.01533 5.4491 5.99991 5.49055 5.99993H10.2059C10.2475 5.99977 10.2876 6.01523 10.3184 6.04326C10.3491 6.07129 10.3682 6.10983 10.3719 6.15127C10.4206 6.7026 10.4459 7.27127 10.4459 7.84727C10.4459 8.4126 10.4212 8.97127 10.3746 9.51393C10.3707 9.55538 10.3516 9.59391 10.3209 9.62201C10.2902 9.65012 10.2502 9.66578 10.2086 9.66593H5.48855C5.44685 9.66608 5.40662 9.65053 5.37586 9.62236C5.3451 9.5942 5.32607 9.55549 5.32256 9.51393C5.27522 8.97127 5.25055 8.41327 5.25055 7.8466ZM9.04589 1.4466C9.06989 1.45088 9.09264 1.46047 9.11248 1.47465C9.13232 1.48884 9.14874 1.50727 9.16055 1.5286C9.63892 2.45069 9.96983 3.44205 10.1412 4.4666C10.146 4.49081 10.1454 4.51578 10.1395 4.53972C10.1335 4.56367 10.1223 4.586 10.1067 4.60511C10.0911 4.62423 10.0715 4.63965 10.0492 4.65028C10.0269 4.66091 10.0026 4.66649 9.97789 4.6666H5.71922C5.69449 4.66658 5.67006 4.66108 5.64771 4.6505C5.62535 4.63991 5.60563 4.6245 5.58994 4.60537C5.57426 4.58624 5.56301 4.56388 5.55701 4.53988C5.551 4.51589 5.55039 4.49086 5.55522 4.4666C5.72654 3.44109 6.05768 2.44881 6.53655 1.52594C6.54837 1.5046 6.56479 1.48617 6.58463 1.47199C6.60446 1.4578 6.62721 1.44822 6.65122 1.44394C7.44263 1.2964 8.25448 1.2964 9.04589 1.44394V1.4466ZM4.43389 2.30127C4.46298 2.28353 4.49679 2.27509 4.53081 2.27708C4.56483 2.27908 4.59742 2.29141 4.62424 2.31243C4.65106 2.33345 4.67082 2.36216 4.68088 2.39471C4.69095 2.42726 4.69083 2.46211 4.68055 2.4946C4.46738 3.1593 4.30294 3.83866 4.18855 4.52727C4.18208 4.56624 4.16196 4.60165 4.1318 4.62717C4.10164 4.65269 4.0634 4.66666 4.02389 4.6666H2.45722C2.42752 4.66656 2.39837 4.65859 2.37279 4.64351C2.3472 4.62843 2.32611 4.60678 2.3117 4.58081C2.29729 4.55484 2.29008 4.52549 2.29081 4.4958C2.29155 4.46611 2.30021 4.43716 2.31589 4.41193C2.85024 3.55491 3.57501 2.83264 4.43389 2.30127ZM2.30055 11.2526C2.28482 11.2274 2.27612 11.1985 2.27536 11.1688C2.27461 11.1392 2.28182 11.1098 2.29625 11.0839C2.31069 11.0579 2.33181 11.0364 2.35742 11.0214C2.38304 11.0064 2.41221 10.9985 2.44189 10.9986H4.01922C4.05855 10.9985 4.09663 11.0124 4.12667 11.0378C4.1567 11.0632 4.17674 11.0985 4.18322 11.1373C4.29868 11.836 4.46489 12.5254 4.68055 13.1999C4.69109 13.2324 4.69141 13.2673 4.68148 13.2999C4.67155 13.3326 4.65184 13.3614 4.62502 13.3824C4.5982 13.4035 4.56555 13.4159 4.53149 13.4178C4.49743 13.4197 4.46359 13.4112 4.43455 13.3933C3.56529 12.8557 2.83344 12.1227 2.29722 11.2526H2.30055ZM6.65455 14.2526C6.63055 14.2483 6.6078 14.2387 6.58796 14.2246C6.56812 14.2104 6.5517 14.1919 6.53989 14.1706C6.05637 13.2381 5.72336 12.2351 5.55322 11.1986C5.54814 11.1743 5.54856 11.1492 5.55447 11.1251C5.56037 11.101 5.5716 11.0785 5.58734 11.0593C5.60307 11.0401 5.62291 11.0247 5.64538 11.0142C5.66786 11.0037 5.69241 10.9984 5.71722 10.9986H9.98389C10.0087 10.9984 10.0332 11.0037 10.0557 11.0142C10.0782 11.0247 10.098 11.0401 10.1138 11.0593C10.1295 11.0785 10.1407 11.101 10.1466 11.1251C10.1525 11.1492 10.153 11.1743 10.1479 11.1986C9.97739 12.2351 9.64465 13.2383 9.16189 14.1713C9.15 14.1925 9.13355 14.2109 9.11373 14.2251C9.09391 14.2393 9.0712 14.2489 9.04722 14.2533C8.65253 14.3264 8.25197 14.3633 7.85055 14.3633C7.44813 14.3627 7.04663 14.3248 6.65122 14.2499L6.65455 14.2526ZM12.0626 13.2566C11.9597 13.2087 11.8463 13.1879 11.7332 13.196C11.62 13.2042 11.5108 13.2411 11.4159 13.3033C11.3652 13.3359 11.3139 13.3699 11.2632 13.3999C11.2342 13.4178 11.2003 13.4264 11.1663 13.4245C11.1322 13.4225 11.0996 13.4102 11.0728 13.3891C11.0459 13.368 11.0262 13.3392 11.0163 13.3066C11.0064 13.2739 11.0067 13.239 11.0172 13.2066C11.2336 12.5308 11.4003 11.8401 11.5159 11.1399C11.5222 11.1011 11.5422 11.0658 11.5723 11.0403C11.6024 11.0149 11.6405 11.0011 11.6799 11.0013H13.2639C13.2935 11.0012 13.3226 11.009 13.3482 11.024C13.3737 11.0389 13.3949 11.0604 13.4094 11.0862C13.4239 11.112 13.4313 11.1412 13.4308 11.1708C13.4303 11.2004 13.422 11.2293 13.4066 11.2546C13.3732 11.3079 13.3399 11.3613 13.3059 11.4133C13.2436 11.5083 13.2066 11.6176 13.1985 11.7309C13.1903 11.8442 13.2112 11.9577 13.2592 12.0606L14.1126 13.8879C14.1269 13.919 14.1314 13.9538 14.1254 13.9875C14.1195 14.0212 14.1033 14.0523 14.0792 14.0766C14.055 14.1007 14.024 14.1168 13.9904 14.1226C13.9567 14.1285 13.9221 14.1238 13.8912 14.1093L12.0626 13.2566Z" fill="#6D7380"/>
</g>
<defs>
<clipPath id="clip0_4805_16164">
<rect width="16" height="16" fill="white"/>
</clipPath>
</defs>
</svg>
