<?xml version="1.0" encoding="UTF-8" standalone="no"?>
<svg
   width="19.990259"
   height="19.989183"
   viewBox="0 0 19.990259 19.989183"
   fill="none"
   version="1.1"
   id="svg1"
   xmlns="http://www.w3.org/2000/svg"
   xmlns:svg="http://www.w3.org/2000/svg">
  <path
     d="m 19.874235,18.223426 -1.61325,-3.455 c 1.207125,-2.05675 1.6235,-4.4829 1.17075,-6.8244002 C 18.97911,5.6025383 17.68861,3.5062758 15.80186,2.0476883 13.914985,0.58909578 11.561334,-0.13183072 9.181322,0.01986828 6.8013095,0.17156698 4.558172,1.1854908 2.8718344,2.8718258 1.1854919,4.5581633 0.17156699,6.8013008 0.01986829,9.1813133 c -0.151699,2.3800127 0.5692274,4.7337377 2.02781611,6.6204877 1.4586001,1.886875 3.5548501,3.177375 5.8963376,3.63 2.3415,0.452625 4.767713,0.03637 6.824463,-1.170875 l 3.456625,1.6125 c 0.230875,0.107375 0.48925,0.141125 0.74,0.09675 0.250625,-0.04437 0.48175,-0.16475 0.66175,-0.344875 0.18,-0.180125 0.30025,-0.41125 0.3445,-0.662 0.04425,-0.25075 0.01037,-0.509 -0.09713,-0.739875 z M 16.715985,5.5067633 c 0.01975,0.031537 0.03075,0.067825 0.03175,0.1050625 0.0011,0.037238 -0.0079,0.074063 -0.026,0.1066625 -0.018,0.032587 -0.04437,0.05975 -0.0765,0.07865 -0.03213,0.0189 -0.06875,0.028837 -0.106,0.028787 h -1.95825 c -0.04913,-8.75e-5 -0.09675,-0.017525 -0.13425,-0.049238 -0.0375,-0.031725 -0.0625,-0.075675 -0.07075,-0.1241 -0.14375,-0.8603375 -0.34925,-1.7092125 -0.615,-2.5399875 -0.01325,-0.040562 -0.01363,-0.084187 -0.0013,-0.1249875 0.0125,-0.0408 0.03712,-0.076812 0.07062,-0.1031625 0.0335,-0.02635 0.07437,-0.041775 0.116875,-0.044188 0.04263,-0.00243 0.08488,0.00827 0.12125,0.030663 1.0735,0.6632 1.9795,1.5652125 2.6475,2.6358375 z m 1.2275,4.2941625 c 5e-4,0.7155372 -0.09312,1.4280372 -0.278375,2.1191622 -0.01175,0.04426 -0.03787,0.08339 -0.07425,0.111275 -0.03625,0.02787 -0.08075,0.04296 -0.126625,0.0429 h -2.6225 c -0.02875,-2.5e-5 -0.05713,-0.006 -0.0835,-0.01755 -0.02637,-0.01154 -0.05,-0.02841 -0.0695,-0.04955 -0.0195,-0.02114 -0.03438,-0.04608 -0.04375,-0.07325 -0.0094,-0.02717 -0.013,-0.056 -0.01075,-0.08465 0.05338,-0.666675 0.08338,-1.3525 0.08338,-2.0483375 0,-0.695825 -0.0275,-1.405825 -0.08338,-2.0833375 -0.0022,-0.028438 0.0014,-0.057063 0.0105,-0.084063 0.0092,-0.027012 0.024,-0.051825 0.04325,-0.072925 0.01913,-0.0211 0.0425,-0.038025 0.0685,-0.049713 0.02613,-0.0117 0.05425,-0.017925 0.08275,-0.0183 h 2.613375 c 0.0455,1.125e-4 0.08975,0.015062 0.126,0.042587 0.03625,0.027525 0.0625,0.066113 0.07488,0.1099125 0.192875,0.7023625 0.290375,1.427475 0.29,2.1558375 z m -16.2867256,0 c -2.625e-4,-0.728675 0.097562,-1.4540875 0.2908375,-2.1566625 0.012475,-0.04365 0.038825,-0.082063 0.07505,-0.109425 0.036238,-0.02735 0.080375,-0.042187 0.125775,-0.04225 h 2.6133376 c 0.028787,-1e-4 0.057287,0.00579 0.083675,0.0173 0.026387,0.0115 0.050088,0.028375 0.0696,0.049537 0.019513,0.02115 0.034413,0.04615 0.04375,0.073375 0.00934,0.027238 0.0129,0.056112 0.010475,0.084788 -0.054163,0.6783375 -0.083338,1.3758375 -0.083338,2.0833375 0,0.7075002 0.0275,1.3816622 0.083338,2.0483372 0.00205,0.0286 -0.00178,0.05732 -0.01125,0.08439 -0.00948,0.02706 -0.0244,0.05191 -0.043837,0.07299 -0.019437,0.02107 -0.042988,0.03795 -0.0692,0.04959 -0.026212,0.01163 -0.054537,0.01776 -0.083212,0.01804 H 2.1384219 c -0.045787,6.3e-5 -0.090325,-0.01502 -0.12665,-0.0429 -0.036325,-0.02789 -0.062412,-0.06701 -0.074175,-0.111274 C 1.7509594,11.229182 1.6565344,10.516619 1.6567594,9.8009317 Z m 4.8966626,0 c 0,-0.72 0.031675,-1.4308375 0.0925,-2.12 0.00497,-0.051575 0.028988,-0.099438 0.067363,-0.1342625 0.038362,-0.034825 0.088325,-0.0541 0.1401375,-0.054075 h 5.8941885 c 0.052,-2e-4 0.102125,0.019125 0.140625,0.054163 0.03838,0.035037 0.06225,0.083213 0.06687,0.1350125 0.06087,0.6891625 0.0925,1.4 0.0925,2.12 0,0.7066622 -0.03087,1.4050002 -0.08912,2.0833252 -0.0049,0.05181 -0.02875,0.09997 -0.06713,0.135099 -0.03838,0.03514 -0.08837,0.05471 -0.140375,0.0549 H 6.850922 c -0.052125,1.88e-4 -0.1024125,-0.01925 -0.1408625,-0.05446 -0.03845,-0.0352 -0.062238,-0.08359 -0.066625,-0.135537 -0.059175,-0.678325 -0.090012,-1.375825 -0.090012,-2.0841627 z m 4.744175,-8 c 0.03,0.00535 0.05844,0.017338 0.08324,0.035062 0.0248,0.017738 0.04533,0.040775 0.06009,0.067438 0.597963,1.1526125 1.0116,2.3918125 1.225813,3.6725 0.006,0.030263 0.0053,0.061475 -0.0021,0.0914 -0.0075,0.029937 -0.0215,0.05785 -0.041,0.081738 -0.0195,0.0239 -0.044,0.043175 -0.07188,0.056463 -0.02787,0.013287 -0.05825,0.020262 -0.08914,0.0204 H 7.1392595 c -0.030912,-2.5e-5 -0.06145,-0.0069 -0.089387,-0.020125 -0.02795,-0.013237 -0.0526,-0.0325 -0.072213,-0.056412 -0.0196,-0.023912 -0.033662,-0.051862 -0.041162,-0.081863 -0.00751,-0.029987 -0.00828,-0.061275 -0.00224,-0.0916 0.21415,-1.2818875 0.628075,-2.5222375 1.2266625,-3.675825 0.014775,-0.026675 0.0353,-0.049713 0.0601,-0.067438 0.024788,-0.017737 0.053225,-0.029713 0.083238,-0.035062 0.9892625,-0.184425 2.004075,-0.184425 2.993337,0 z m -5.765,1.0683375 c 0.036363,-0.022175 0.078625,-0.032725 0.12115,-0.030238 0.042525,0.0025 0.083263,0.017912 0.1167875,0.044188 0.033525,0.026275 0.058225,0.062162 0.0708,0.10285 0.012587,0.040687 0.012438,0.08425 -4.125e-4,0.1248625 -0.2664625,0.830875 -0.4720125,1.680075 -0.615,2.5408375 -0.00809,0.048712 -0.033238,0.092975 -0.070938,0.124875 -0.0377,0.0319 -0.0855,0.049362 -0.1348875,0.049288 h -1.958337 c -0.037125,-5e-5 -0.073562,-0.010013 -0.1055376,-0.028863 -0.031988,-0.01885 -0.05835,-0.045913 -0.076363,-0.078375 -0.018012,-0.032462 -0.027025,-0.06915 -0.026112,-0.1062625 9.25e-4,-0.037113 0.01175,-0.0733 0.03135,-0.1048375 C 3.5530345,4.4363133 4.458997,3.5334758 5.532597,2.8692633 Z M 2.8659219,14.058426 c -0.019662,-0.0315 -0.030537,-0.06762 -0.031487,-0.10475 -9.375e-4,-0.037 0.00807,-0.07375 0.026112,-0.106125 0.01805,-0.0325 0.04445,-0.05938 0.076462,-0.07813 0.032025,-0.01875 0.068488,-0.02862 0.1055876,-0.0285 H 5.014259 c 0.049162,-1.25e-4 0.096763,0.01725 0.1343125,0.049 0.037538,0.03175 0.062587,0.07587 0.070688,0.124375 0.144325,0.873375 0.3520875,1.735125 0.6216625,2.57825 0.013175,0.04063 0.013575,0.08425 0.00116,0.125 -0.012412,0.04087 -0.03705,0.07687 -0.070575,0.103125 -0.033525,0.02637 -0.074337,0.04187 -0.1169125,0.04425 -0.042575,0.0024 -0.084875,-0.0083 -0.121175,-0.03063 -1.086575,-0.672 -2.0013875,-1.58825 -2.6716626,-2.675875 z m 5.4425001,3.75 c -0.03,-0.0054 -0.058438,-0.01737 -0.083238,-0.035 -0.0248,-0.01775 -0.045325,-0.04087 -0.060087,-0.0675 -0.6044,-1.165625 -1.0206625,-2.419375 -1.2333375,-3.715 -0.00635,-0.03037 -0.00582,-0.06175 0.00156,-0.09187 0.00737,-0.03012 0.021412,-0.05825 0.041087,-0.08225 0.019662,-0.024 0.044462,-0.04325 0.07255,-0.05637 0.0281,-0.01313 0.058788,-0.01975 0.0898,-0.0195 h 5.3333375 c 0.03101,-2.5e-4 0.06164,0.0064 0.08976,0.0195 0.02813,0.01313 0.05288,0.03238 0.07263,0.05637 0.01962,0.024 0.03363,0.05213 0.041,0.08225 0.0074,0.03012 0.008,0.0615 0.0016,0.09187 -0.213138,1.295625 -0.629063,2.549625 -1.232513,3.715875 -0.01486,0.0265 -0.03543,0.0495 -0.0602,0.06725 -0.02477,0.01775 -0.05316,0.02975 -0.08314,0.03525 -0.493363,0.09137 -0.994063,0.1375 -1.4958375,0.1375 -0.503025,-7.5e-4 -1.0049,-0.04813 -1.4991625,-0.14175 z m 6.760063,-1.245 c -0.128625,-0.05987 -0.270375,-0.08587 -0.41175,-0.07575 -0.1415,0.01025 -0.278,0.05638 -0.396625,0.134125 -0.06338,0.04075 -0.1275,0.08325 -0.190875,0.12075 -0.03625,0.02238 -0.07862,0.03313 -0.121125,0.03075 -0.04263,-0.0025 -0.08338,-0.01788 -0.116875,-0.04425 -0.03363,-0.02637 -0.05825,-0.06237 -0.07062,-0.103125 -0.01238,-0.04087 -0.012,-0.0845 0.0011,-0.125 0.2705,-0.84475 0.478875,-1.708125 0.623375,-2.583375 0.0079,-0.0485 0.03288,-0.09262 0.0705,-0.1245 0.03762,-0.03175 0.08525,-0.049 0.1345,-0.04875 h 1.98 c 0.037,-1.25e-4 0.07338,0.0096 0.105375,0.02838 0.03187,0.01863 0.05837,0.0455 0.0765,0.07775 0.01812,0.03225 0.02737,0.06875 0.02675,0.10575 -6.25e-4,0.037 -0.011,0.07312 -0.03025,0.10475 -0.04175,0.06663 -0.08338,0.133375 -0.125875,0.198375 -0.07788,0.11875 -0.124125,0.255375 -0.13425,0.397 -0.01025,0.141625 0.01587,0.2835 0.07587,0.412125 l 1.06675,2.284125 c 0.01788,0.03888 0.0235,0.08238 0.016,0.1245 -0.0074,0.04212 -0.02763,0.081 -0.05775,0.111375 -0.03025,0.03012 -0.069,0.05025 -0.111,0.0575 -0.04213,0.0074 -0.08538,0.0015 -0.124,-0.01663 z"
     fill="#6d7380"
     id="path1"
     style="stroke-width:1.25" />
  <defs
     id="defs1" />
</svg>
