<svg width="48" height="48" viewBox="0 0 48 48" fill="none" xmlns="http://www.w3.org/2000/svg">
<g clip-path="url(#clip0_2010_15170)">
<path d="M12.3871 17.0603L24.238 10.1743V0L19.897 2.53153L8.06783 9.4217L3.72683 11.9532V17.0383V30.8737V35.9587L8.06783 38.5013L19.8645 45.4465L24.238 48V37.8277L12.3871 30.8957V17.0603Z" fill="url(#paint0_diamond_2010_15170)"/>
<path d="M36.089 17.0603L24.238 10.1743V0L28.579 2.53153L40.4082 9.4217L44.7492 11.9532V17.0383V30.8737V35.9587L40.4082 38.5013L28.6116 45.4465L24.238 48V37.8277L36.089 30.8957V17.0603Z" fill="#385CD3"/>
<path d="M31.3634 28.0998V19.8746L24.2398 15.7643L17.1162 19.8746V28.0998L24.2398 32.2101L31.3634 28.0998Z" fill="#0C162C"/>
</g>
<defs>
<radialGradient id="paint0_diamond_2010_15170" cx="0" cy="0" r="1" gradientUnits="userSpaceOnUse" gradientTransform="translate(23.4465 2.63087) rotate(113.15) scale(48.0577 25.0875)">
<stop stop-color="#174CC2"/>
<stop offset="1" stop-color="#5E8FFE"/>
</radialGradient>
<clipPath id="clip0_2010_15170">
<rect width="48" height="48" fill="white"/>
</clipPath>
</defs>
</svg>
