<svg width="16" height="16" viewBox="0 0 16 16" fill="none" xmlns="http://www.w3.org/2000/svg">
<g clip-path="url(#clip0_3210_17742)">
<path d="M8 16C12.4334 16 16 12.4334 16 8C16 3.56664 12.4334 0 8 0C3.56664 0 0 3.56664 0 8C0 12.4334 3.56664 16 8 16Z" fill="#E4E8ED"/>
<path d="M7.5502 3H6.4502V4.14158C5.12466 4.73793 4.25 6.09009 4.25 8C4.25 9.90992 5.12466 11.2621 6.4502 11.8584V13L7.5502 12.9991V12.1645C7.73345 12.1881 7.92163 12.2 8.114 12.2C8.22842 12.2 8.34051 12.1958 8.4502 12.1875V13L9.5502 12.9991V11.9426C10.7158 11.4861 11.4508 10.4647 11.618 9.224H10.37C10.178 10.4 9.29 11.084 8.102 11.084C6.566 11.084 5.51 9.956 5.51 8.204V7.796C5.51 6.044 6.566 4.916 8.102 4.916C9.29 4.916 10.178 5.6 10.37 6.776H11.618C11.4508 5.52649 10.7158 4.50926 9.5502 4.05553V3H8.4502V3.81243C8.34051 3.8042 8.22842 3.8 8.114 3.8C7.92163 3.8 7.73345 3.81194 7.5502 3.83546V3Z" fill="#6C7585"/>
</g>
<defs>
<clipPath id="clip0_3210_17742">
<rect width="16" height="16" fill="white"/>
</clipPath>
</defs>
</svg>
