<svg width="21" height="20" viewBox="0 0 21 20" fill="none" xmlns="http://www.w3.org/2000/svg">
<g clip-path="url(#clip0_8835_47758)">
<path fill-rule="evenodd" clip-rule="evenodd" d="M10.1406 0C4.61576 0 0.140625 4.47514 0.140625 10C0.140625 14.4199 3.00741 18.1645 6.97918 19.4905C7.47641 19.5826 7.66057 19.2756 7.66057 19.0055C7.66057 18.7661 7.65444 18.14 7.6483 17.3051C4.86745 17.9067 4.27813 15.9669 4.27813 15.9669C3.82387 14.8128 3.16702 14.4997 3.16702 14.4997C2.25849 13.8797 3.23455 13.892 3.23455 13.892C4.23516 13.9656 4.76923 14.9233 4.76923 14.9233C5.65935 16.4518 7.10809 16.0098 7.67899 15.752C7.77107 15.1074 8.0289 14.6654 8.31128 14.4138C6.0952 14.1682 3.76248 13.3088 3.76248 9.47821C3.76248 8.38551 4.14922 7.4954 4.79379 6.79558C4.68943 6.53775 4.34566 5.52486 4.88587 4.14979C4.88587 4.14979 5.72687 3.87968 7.63602 5.17495C8.43406 4.95396 9.28734 4.84346 10.1406 4.83732C10.9878 4.84346 11.8472 4.95396 12.6452 5.17495C14.5544 3.87968 15.3954 4.14979 15.3954 4.14979C15.9417 5.52486 15.598 6.54389 15.4936 6.79558C16.132 7.4954 16.5188 8.38551 16.5188 9.47821C16.5188 13.3211 14.1799 14.1621 11.9516 14.4138C12.3076 14.7207 12.633 15.3346 12.633 16.2676C12.633 17.6059 12.6207 18.6802 12.6207 19.0117C12.6207 19.2818 12.7987 19.5887 13.3082 19.4905C17.28 18.1645 20.1406 14.4199 20.1406 10.0061C20.1406 4.47514 15.6655 0 10.1406 0Z" fill="#0847F7"/>
</g>
<defs>
<clipPath id="clip0_8835_47758">
<rect width="20" height="20" fill="white" transform="translate(0.140625)"/>
</clipPath>
</defs>
</svg>
