<svg width="24" height="24" viewBox="0 0 24 24" fill="none" xmlns="http://www.w3.org/2000/svg">
<path d="M12.5083 2.68802C12.3663 2.56663 12.1862 2.5 12 2.5C11.8138 2.5 11.6337 2.56663 11.4917 2.68802L1.27872 11.3958C1.15567 11.5005 1.06753 11.6408 1.02625 11.7977C0.984963 11.9546 0.992525 12.1204 1.04791 12.2728C1.1033 12.4252 1.20383 12.5568 1.33589 12.6497C1.46796 12.7426 1.62517 12.7923 1.78623 12.7922H3.75027C3.85444 12.7922 3.95436 12.8339 4.02802 12.9081C4.10169 12.9824 4.14307 13.083 4.14307 13.188V20.7084C4.14307 20.9183 4.22584 21.1197 4.37317 21.2681C4.5205 21.4166 4.72033 21.5 4.92869 21.5H8.85676C9.06511 21.5 9.26494 21.4166 9.41227 21.2681C9.5596 21.1197 9.64237 20.9183 9.64237 20.7084V17.1461C9.64237 16.5163 9.89068 15.9122 10.3327 15.4668C10.7747 15.0215 11.3741 14.7713 11.9992 14.7713C12.6243 14.7713 13.2238 15.0215 13.6658 15.4668C14.1077 15.9122 14.3561 16.5163 14.3561 17.1461V20.7084C14.3561 20.9183 14.4388 21.1197 14.5862 21.2681C14.7335 21.4166 14.9333 21.5 15.1417 21.5H19.0697C19.2781 21.5 19.4779 21.4166 19.6253 21.2681C19.7726 21.1197 19.8554 20.9183 19.8554 20.7084V13.188C19.8554 13.083 19.8967 12.9824 19.9704 12.9081C20.0441 12.8339 20.144 12.7922 20.2482 12.7922H22.2122C22.3734 12.7927 22.5308 12.7431 22.6631 12.6504C22.7955 12.5576 22.8962 12.426 22.9518 12.2736C23.0074 12.1211 23.0151 11.9551 22.9739 11.7981C22.9326 11.641 22.8444 11.5006 22.7213 11.3958L12.5083 2.68802Z" fill="#23337B"/>
</svg>
