<svg width="16" height="16" viewBox="0 0 16 16" fill="none" xmlns="http://www.w3.org/2000/svg">
<g clip-path="url(#clip0_7_7829)">
<path d="M8 16C12.4183 16 16 12.4183 16 8C16 3.58172 12.4183 0 8 0C3.58172 0 0 3.58172 0 8C0 12.4183 3.58172 16 8 16Z" fill="#0847F7"/>
<path d="M8 3L7.1005 3.5275L4.65 4.9725L3.75 5.5V10.5L4.6495 11.0275L7.123 12.4725L8.0225 13L8.922 12.4725L11.3505 11.0275L12.25 10.5V5.5L11.3505 4.9725L8.8995 3.5275L8 3ZM5.549 9.445V6.555L8 5.11L10.451 6.555V9.445L8 10.89L5.549 9.445Z" fill="white"/>
</g>
<defs>
<clipPath id="clip0_7_7829">
<rect width="16" height="16" fill="white"/>
</clipPath>
</defs>
</svg>
