<svg width="34" height="18" viewBox="0 0 34 18" fill="none" xmlns="http://www.w3.org/2000/svg">
<path d="M25 0C29.9706 2.57702e-07 34 4.02944 34 9C34 13.9706 29.9706 18 25 18H9C4.02944 18 0 13.9706 0 9C0 4.02944 4.02944 2.57702e-07 9 0H25ZM7 6V11.8184H7.87793V7.55078H7.93164L10.8896 11.8184H11.6963V6H10.8271V10.2725H10.7725L7.8125 6H7ZM14.0771 6V11.8184H17.7588V11.0625H14.9541V9.28125H17.5342V8.52832H14.9541V6.75586H17.7246V6H14.0771ZM19.5225 6L21.1357 11.8184H22.0225L23.2471 7.45996H23.292L24.5166 11.8184H25.4004L27.0166 6H26.0908L24.96 10.5088H24.9062L23.7266 6H22.8125L21.6328 10.5059H21.5791L20.4453 6H19.5225Z" fill="#0847F7"/>
</svg>
