<svg width="16" height="16" viewBox="0 0 16 16" fill="none" xmlns="http://www.w3.org/2000/svg">
<g clip-path="url(#clip0_1326_46631)">
<path d="M8.79015 15.1111V7.2099H15.1111V15.1111H8.79015ZM0.888916 8.79015V0.888916H7.2099V8.79015H0.888916ZM0.888916 15.1111V10.3704H7.2099V15.1111H0.888916ZM2.46916 13.5309H5.62966V11.9506H2.46916V13.5309ZM8.79015 0.888916H15.1111V5.62966H8.79015V0.888916ZM10.3704 2.46916V4.04941H13.5309V2.46916H10.3704Z" fill="url(#paint0_linear_1326_46631)"/>
<g clip-path="url(#clip1_1326_46631)">
<path d="M0.888916 15.1111V10.3704H7.2099V15.1111H0.888916ZM2.46916 13.5309H5.62966V11.9506H2.46916V13.5309ZM8.79015 0.888916H15.1111V5.62966H8.79015V0.888916ZM10.3704 2.46916V4.04941H13.5309V2.46916H10.3704Z" fill="#23337B"/>
</g>
</g>
<defs>
<linearGradient id="paint0_linear_1326_46631" x1="13.5385" y1="13.0777" x2="0.513659" y2="9.12861" gradientUnits="userSpaceOnUse">
<stop stop-color="#8B9CDF"/>
<stop offset="1" stop-color="#375BD2"/>
</linearGradient>
<clipPath id="clip0_1326_46631">
<rect width="16" height="16" fill="white"/>
</clipPath>
<clipPath id="clip1_1326_46631">
<rect width="16" height="16" fill="white"/>
</clipPath>
</defs>
</svg>
