<svg width="24" height="24" viewBox="0 0 24 24" fill="none" xmlns="http://www.w3.org/2000/svg">
<g clip-path="url(#clip0_2872_3599)">
<mask id="mask0_2872_3599" style="mask-type:luminance" maskUnits="userSpaceOnUse" x="0" y="0" width="24" height="24">
<path d="M24 0H0V24H24V0Z" fill="white"/>
</mask>
<g mask="url(#mask0_2872_3599)">
<path fill-rule="evenodd" clip-rule="evenodd" d="M0.210205 9.57067V12.4897C0.210205 14.15 2.86807 15.5445 6.42868 15.8542V11.5103C6.42868 11.441 6.43058 11.3724 6.4343 11.3046C4.45533 11.1634 2.65781 10.7435 1.2469 10.114C0.881017 9.95078 0.532981 9.7698 0.210205 9.57067ZM15.6388 3.42857V5.9495C13.5203 6.01917 11.5305 6.43008 9.9607 7.12779C9.09902 7.51075 8.26905 8.02227 7.62549 8.69851C7.47869 8.85276 7.33752 9.02043 7.20681 9.20097C5.17236 9.12441 3.3958 8.7263 2.11999 8.15709C1.40682 7.83891 0.896905 7.48815 0.579671 7.15342C0.359326 6.92091 0.253421 6.72146 0.210205 6.55699V3.42857C0.210205 1.53502 3.66401 0 7.92449 0C12.185 0 15.6388 1.53502 15.6388 3.42857ZM7.92427 5.02509C10.8992 5.02509 13.3109 4.33154 13.3109 3.47599C13.3109 2.62046 10.8992 1.92689 7.92427 1.92689C4.94932 1.92689 2.53762 2.62046 2.53762 3.47599C2.53762 4.33154 4.94932 5.02509 7.92427 5.02509ZM8.57153 20.5714V17.6523C8.89432 17.8515 9.24235 18.0326 9.60823 18.1958C11.3662 18.9801 13.7242 19.439 16.2857 19.439C18.8471 19.439 21.2051 18.9801 22.9631 18.1958C23.3291 18.0324 23.6773 17.8514 24.0001 17.6522V20.5714C24.0001 22.4571 20.5715 24 16.2858 24C12.0001 24 8.57153 22.4571 8.57153 20.5714ZM8.941 15.2352C8.72066 15.0027 8.61475 14.8032 8.57153 14.6387V11.5103C8.57153 9.61678 12.0253 8.08176 16.2858 8.08176C20.5463 8.08176 24.0001 9.61678 24.0001 11.5103V14.6375C23.9571 14.8023 23.8511 15.0021 23.6303 15.2352C23.313 15.5699 22.8032 15.9207 22.09 16.2388C20.6663 16.874 18.619 17.2961 16.2857 17.2961C13.9523 17.2961 11.905 16.874 10.4813 16.2388C9.76816 15.9207 9.25822 15.5699 8.941 15.2352ZM21.6723 11.5577C21.6723 12.4133 19.2606 13.1068 16.2856 13.1068C13.3106 13.1068 10.899 12.4133 10.899 11.5577C10.899 10.7022 13.3106 10.0087 16.2856 10.0087C19.2606 10.0087 21.6723 10.7022 21.6723 11.5577Z" fill="#375BD2"/>
</g>
</g>
<defs>
<clipPath id="clip0_2872_3599">
<rect width="24" height="24" fill="white"/>
</clipPath>
</defs>
</svg>
