<svg width="24" height="24" viewBox="0 0 24 24" fill="none" xmlns="http://www.w3.org/2000/svg">
<path d="M12.0022 0L1.60999 6.00046V17.9995L12.0022 24L22.3945 17.9995V6.00046L12.0022 0ZM18.5285 13.7488C18.5285 13.7488 18.4736 13.9357 18.3508 14.0603L14.0598 18.3513C13.8857 18.5254 13.6311 18.595 13.391 18.5309L7.52983 16.9607C7.29164 16.8966 7.10476 16.7097 7.04063 16.4715L5.47043 10.6103C5.40631 10.3721 5.4741 10.1174 5.64999 9.94152L9.941 5.65051C10.0271 5.56439 10.1352 5.50393 10.2488 5.47278C10.3642 5.44164 10.4888 5.4398 10.6098 5.47278L16.471 7.04298C16.6927 7.10344 16.8704 7.26834 16.9437 7.48271L18.5414 13.4502C18.5615 13.551 18.556 13.6536 18.5304 13.7507L18.5285 13.7488Z" fill="url(#paint0_linear_2872_3569)"/>
<path d="M18.5286 13.7488L12.3797 12.0999C12.1415 12.0357 11.9547 11.8488 11.8905 11.6107L10.2471 5.47095C10.1316 5.50209 10.0254 5.56256 9.93924 5.64867L5.64823 9.93969C5.47417 10.1137 5.40454 10.3684 5.46867 10.6084L7.03887 16.4696C7.10299 16.7078 7.28988 16.8947 7.52806 16.9588L13.3893 18.529C13.6275 18.5932 13.8821 18.5254 14.058 18.3495L18.349 14.0585C18.4736 13.9339 18.5268 13.747 18.5268 13.747L18.5286 13.7488Z" fill="#0C162C"/>
<path d="M13.5193 9.80606C13.2243 9.72728 13.0484 9.90134 13.1272 10.1945C13.2042 10.4876 13.5065 10.79 13.8015 10.8687C14.0964 10.9475 14.2723 10.7735 14.1954 10.4803C14.1184 10.1872 13.8161 9.88485 13.5211 9.80606H13.5193Z" fill="#0C162C"/>
<path d="M15.1005 8.24307C14.8055 8.16429 14.6296 8.33835 14.7084 8.6315C14.7853 8.92465 15.0877 9.22696 15.3826 9.30575C15.6776 9.38453 15.8535 9.21047 15.7766 8.91732C15.6996 8.62417 15.3973 8.32186 15.1023 8.24307H15.1005Z" fill="#0C162C"/>
<path d="M15.5916 10.3024C15.2966 10.2236 15.1207 10.3977 15.1995 10.6908C15.2764 10.984 15.5787 11.2863 15.8737 11.3651C16.1687 11.4439 16.3446 11.2698 16.2677 10.9766C16.1907 10.6835 15.8884 10.3812 15.5934 10.3024H15.5916Z" fill="#0C162C"/>
<path d="M12.9733 7.76846C12.6783 7.68968 12.5024 7.86374 12.5812 8.15689C12.6581 8.45004 12.9605 8.75235 13.2554 8.83114C13.5504 8.90992 13.7263 8.73587 13.6494 8.44271C13.5724 8.14956 13.2701 7.84725 12.9751 7.76846H12.9733Z" fill="#0C162C"/>
<defs>
<linearGradient id="paint0_linear_2872_3569" x1="17.1984" y1="2.99931" x2="6.80611" y2="21.0007" gradientUnits="userSpaceOnUse">
<stop stop-color="#7790E2"/>
<stop offset="1" stop-color="#486DDC"/>
</linearGradient>
</defs>
</svg>
