<svg width="20" height="20" viewBox="0 0 20 20" fill="none" xmlns="http://www.w3.org/2000/svg">
<path d="M18.8832 14.8855V4.96184L10.2749 0L1.6665 4.96184V14.8855L10.2749 19.8464L18.8832 14.8855Z" fill="white"/>
<path d="M18.8832 14.8855V4.96184L10.2749 0L1.6665 4.96184V14.8855L10.2749 19.8473L18.8832 14.8855Z" fill="#0847F7"/>
<path d="M16.4647 11.076C16.4309 11.0581 16.3961 11.0413 16.3593 11.0264C15.6913 10.7505 14.9269 11.0671 14.6495 11.7329C14.3732 12.3998 14.6903 13.1629 15.3573 13.4398C15.3941 13.4547 15.4309 13.4676 15.4676 13.4785C15.0283 14.1166 14.4746 14.6693 13.8354 15.108C13.8235 15.0713 13.8116 15.0345 13.7967 14.9978C13.5203 14.3309 12.7549 14.0154 12.0869 14.2913C11.4189 14.5671 11.1028 15.3312 11.3792 15.9981C11.3941 16.0349 11.411 16.0695 11.4289 16.1033C11.0551 16.1727 10.6694 16.2104 10.2748 16.2104C9.88015 16.2104 9.49545 16.1727 9.1207 16.1033C9.13859 16.0695 9.15549 16.0349 9.17039 15.9981C9.44674 15.3312 9.12965 14.5681 8.46264 14.2913C7.79465 14.0154 7.03024 14.3319 6.7529 14.9978C6.738 15.0345 6.72507 15.0713 6.71413 15.108C6.07497 14.6693 5.52128 14.1166 5.08192 13.4785C5.1187 13.4666 5.15548 13.4547 5.19226 13.4398C5.86026 13.1639 6.17635 12.3998 5.90001 11.7329C5.62368 11.0661 4.85827 10.7505 4.19027 11.0264C4.15349 11.0413 4.1187 11.0581 4.0849 11.076C4.01531 10.7029 3.97754 10.3178 3.97754 9.92385C3.97754 9.52988 4.01531 9.14583 4.0849 8.77171C4.1187 8.78957 4.15349 8.80644 4.19027 8.82133C4.85827 9.09721 5.62267 8.78064 5.90001 8.11476C6.17635 7.44789 5.85926 6.68476 5.19226 6.40789C5.15548 6.39301 5.1187 6.38011 5.08192 6.36919C5.52128 5.7311 6.07497 5.17835 6.71413 4.73973C6.72606 4.77644 6.738 4.81316 6.7529 4.84988C7.02925 5.51675 7.79465 5.83232 8.46264 5.55644C9.13064 5.28057 9.44674 4.51644 9.17039 3.84957C9.15549 3.81286 9.13859 3.77812 9.1207 3.74438C9.49445 3.67492 9.88015 3.63721 10.2748 3.63721C10.6694 3.63721 11.0541 3.67492 11.4289 3.74438C11.411 3.77812 11.3941 3.81286 11.3792 3.84957C11.1028 4.51644 11.4199 5.27957 12.0869 5.55644C12.7549 5.83232 13.5193 5.51576 13.7967 4.84988C13.8116 4.81316 13.8245 4.77644 13.8354 4.73973C14.4746 5.17835 15.0283 5.7311 15.4676 6.36919C15.4309 6.3811 15.3941 6.39301 15.3573 6.40789C14.6893 6.68377 14.3732 7.44789 14.6495 8.11476C14.9259 8.78163 15.6913 9.09721 16.3593 8.82133C16.3961 8.80644 16.4309 8.78957 16.4647 8.77171C16.5342 9.14484 16.572 9.52988 16.572 9.92385C16.572 10.3178 16.5342 10.7019 16.4647 11.076Z" fill="white"/>
<path d="M16.4647 8.77171C16.4309 8.78957 16.3961 8.80644 16.3593 8.82133C15.6913 9.09721 14.9269 8.78064 14.6495 8.11476C14.3732 7.44789 14.6903 6.68476 15.3573 6.40789C15.3941 6.39301 15.4309 6.38011 15.4676 6.36919C15.0283 5.7311 14.4746 5.17835 13.8354 4.73973C13.8235 4.77644 13.8116 4.81316 13.7967 4.84988C13.5203 5.51675 12.7549 5.83232 12.0869 5.55644C11.4189 5.28057 11.1028 4.51644 11.3792 3.84957C11.3941 3.81286 11.411 3.77812 11.4289 3.74438C11.0551 3.67492 10.6694 3.63721 10.2748 3.63721C9.88015 3.63721 9.49545 3.67492 9.1207 3.74438C9.13859 3.77812 9.15549 3.81286 9.17039 3.84957C9.44674 4.51644 9.12965 5.27957 8.46264 5.55644C7.79465 5.83232 7.03024 5.51576 6.7529 4.84988C6.738 4.81316 6.72507 4.77644 6.71413 4.73973C6.07497 5.17835 5.52128 5.7311 5.08192 6.36919C5.1187 6.3811 5.15548 6.39301 5.19226 6.40789C5.86026 6.68377 6.17635 7.44789 5.90001 8.11476C5.62368 8.78163 4.85827 9.09721 4.19027 8.82133C4.15349 8.80644 4.1187 8.78957 4.0849 8.77171C4.01531 9.14484 3.97754 9.52988 3.97754 9.92385C3.97754 10.3178 4.01531 10.7019 4.0849 11.076C4.1187 11.0581 4.15349 11.0413 4.19027 11.0264C4.85827 10.7505 5.62267 11.0671 5.90001 11.7329C6.17635 12.3998 5.85926 13.1629 5.19226 13.4398C5.15548 13.4547 5.1187 13.4676 5.08192 13.4785C5.52128 14.1166 6.07497 14.6693 6.71413 15.108C6.72606 15.0713 6.738 15.0345 6.7529 14.9978C7.02925 14.3309 7.79465 14.0154 8.46264 14.2913C9.13064 14.5671 9.44674 15.3312 9.17039 15.9981C9.15549 16.0349 9.13859 16.0695 9.1207 16.1033C9.49445 16.1727 9.88015 16.2104 10.2748 16.2104C10.6694 16.2104 11.0541 16.1727 11.4289 16.1033C11.411 16.0695 11.3941 16.0349 11.3792 15.9981C11.1028 15.3312 11.4199 14.5681 12.0869 14.2913C12.7549 14.0154 13.5193 14.3319 13.7967 14.9978C13.8116 15.0345 13.8245 15.0713 13.8354 15.108C14.4746 14.6693 15.0283 14.1166 15.4676 13.4785C15.4309 13.4666 15.3941 13.4547 15.3573 13.4398C14.6893 13.1639 14.3732 12.3998 14.6495 11.7329C14.9259 11.0661 15.6913 10.7505 16.3593 11.0264C16.3961 11.0413 16.4309 11.0581 16.4647 11.076C16.5342 10.7029 16.572 10.3178 16.572 9.92385C16.572 9.52988 16.5342 9.14583 16.4647 8.77171ZM11.4527 11.9592C10.7241 12.379 9.82647 12.379 9.09784 11.9592C8.3692 11.5394 7.9209 10.7634 7.9209 9.92385C7.9209 9.08431 8.3692 8.30828 9.09784 7.8885C9.82647 7.46873 10.7241 7.46873 11.4527 7.8885C12.1813 8.30828 12.6297 9.08431 12.6297 9.92385C12.6297 10.7634 12.1813 11.5394 11.4527 11.9592Z" fill="white"/>
<path d="M10.2768 12.2806C11.5785 12.2806 12.6337 11.2254 12.6337 9.92376C12.6337 8.6221 11.5785 7.56689 10.2768 7.56689C8.97513 7.56689 7.91992 8.6221 7.91992 9.92376C7.91992 11.2254 8.97513 12.2806 10.2768 12.2806Z" fill="#0B101C"/>
</svg>
