<svg width="20" height="20" viewBox="0 0 20 20" fill="none" xmlns="http://www.w3.org/2000/svg">
<g clip-path="url(#clip0_9490_854)">
<path d="M19.0165 15.0012V5.00074L10.3415 0.000488281L1.6665 5.00074V15.0012L10.3415 20.0005L19.0165 15.0012Z" fill="white"/>
<path d="M10.3415 0.000488281L1.6665 5.00074V10.001L6.00402 7.50086L10.3415 5.00074L14.679 7.50086L19.0165 5.00074H19.0176L10.3415 0.000488281Z" fill="#0847F7"/>
<path d="M19.0176 10.0181L10.3426 15.0183V15.0013L6.02014 12.5102L1.68262 15.0103L3.65904 16.1503L10.3426 20.0005L17.0271 16.1503L19.0187 15.0013L19.0176 10.0181Z" fill="#0847F7"/>
<path d="M14.6809 12.5013V7.5011L10.3434 5.00098L6.00586 7.5011V12.5013L10.3434 15.0015L14.6809 12.5013Z" fill="#0B101C"/>
</g>
<defs>
<clipPath id="clip0_9490_854">
<rect width="20" height="20" fill="white"/>
</clipPath>
</defs>
</svg>
