<svg width="20" height="20" viewBox="0 0 20 20" fill="none" xmlns="http://www.w3.org/2000/svg">
<g clip-path="url(#clip0_9490_882)">
<path d="M20.8179 15.0005V5.0005L10.4083 0.000488281L0 5.0005V15.0005L10.4083 19.9994L20.8179 15.0005Z" fill="white"/>
<path d="M10.3411 0.000488281L1.6665 5.00049V15.0005L10.3411 20.0005L19.0157 15.0005V5.00049L10.3411 0.000488281ZM4.8759 12.2625V6.84949L9.57079 4.1435L11.1004 5.0245L6.40447 7.7305V13.1435L4.8759 12.2615V12.2625ZM11.1114 15.8565L9.58182 14.9755L14.2777 12.2695V6.85648L15.8063 7.73848V13.1515L11.1114 15.8565Z" fill="#0847F7"/>
<path d="M12.6952 11.3576V8.6436L10.3412 7.2876L7.98828 8.6436V11.3576L10.3412 12.7136L12.6952 11.3576Z" fill="#0B101C"/>
</g>
<defs>
<clipPath id="clip0_9490_882">
<rect width="20" height="20" fill="white"/>
</clipPath>
</defs>
</svg>
