<svg width="20" height="20" viewBox="0 0 20 20" fill="none" xmlns="http://www.w3.org/2000/svg">
<g clip-path="url(#clip0_9490_890)">
<path d="M19.0157 15.0005V5.0005L10.3411 0.000488281L1.6665 5.0005V15.0005L10.3411 19.9994L19.0157 15.0005Z" fill="white"/>
<path d="M10.3411 0.000488281L1.6665 5.00049V15.0005L10.3411 20.0005L19.0157 15.0005V5.00049L10.3411 0.000488281ZM15.7893 11.4575C15.7893 11.4575 15.7442 11.6135 15.64 11.7175L12.058 15.2935C11.9117 15.4394 11.6994 15.4965 11.5 15.4425L6.60681 14.1335C6.40748 14.0805 6.25222 13.9245 6.19813 13.7255L4.88693 8.8405C4.83384 8.6415 4.89093 8.42949 5.03618 8.28349L8.61819 4.7075C8.69031 4.6355 8.77947 4.5845 8.87564 4.5585C8.97179 4.5325 9.07598 4.5315 9.17715 4.5585L14.0694 5.8675C14.2547 5.9175 14.4029 6.05549 14.464 6.23349L15.7973 11.2065C15.8143 11.2905 15.8093 11.3755 15.7883 11.4565L15.7893 11.4575Z" fill="#0847F7"/>
<path d="M15.7886 11.4576L10.656 10.0836C10.4576 10.0306 10.3014 9.87457 10.2473 9.67557L8.87498 4.55957C8.77983 4.58557 8.69068 4.63557 8.61755 4.70857L5.03552 8.28457C4.88928 8.43057 4.83219 8.64257 4.88628 8.84157L6.19748 13.7266C6.25057 13.9256 6.40683 14.0806 6.60617 14.1346L11.4994 15.4436C11.6987 15.4965 11.9111 15.4396 12.0573 15.2946L15.6394 11.7186C15.7425 11.6156 15.7886 11.4586 15.7886 11.4586V11.4576Z" fill="#0B101C"/>
<path d="M11.6091 8.1717C11.3627 8.1057 11.2165 8.2507 11.2816 8.4957C11.3467 8.7407 11.5981 8.9927 11.8445 9.0587C12.091 9.1247 12.2372 8.9797 12.1731 8.7347C12.108 8.4897 11.8556 8.2387 11.6101 8.1727L11.6091 8.1717Z" fill="#0B101C"/>
<path d="M12.9275 6.86945C12.6811 6.80345 12.5348 6.94845 12.5999 7.19345C12.6651 7.43845 12.9165 7.69045 13.1629 7.75645C13.4093 7.82245 13.5555 7.67745 13.4914 7.43245C13.4263 7.18745 13.1739 6.93645 12.9285 6.87045L12.9275 6.86945Z" fill="#0B101C"/>
<path d="M13.3377 8.58625C13.0912 8.52025 12.945 8.66525 13.0101 8.91025C13.0752 9.15525 13.3266 9.40725 13.5731 9.47325C13.8195 9.53925 13.9657 9.39425 13.9016 9.14925C13.8365 8.90425 13.5841 8.65325 13.3387 8.58725L13.3377 8.58625Z" fill="#0B101C"/>
<path d="M11.1502 6.47443C10.9037 6.40843 10.7575 6.55343 10.8226 6.79843C10.8877 7.04343 11.1391 7.29543 11.3856 7.36143C11.632 7.42743 11.7782 7.28243 11.7141 7.03743C11.649 6.79243 11.3966 6.54143 11.1512 6.47543L11.1502 6.47443Z" fill="#0B101C"/>
</g>
<defs>
<clipPath id="clip0_9490_890">
<rect width="20" height="20" fill="white"/>
</clipPath>
</defs>
</svg>
