<svg width="32" height="32" viewBox="0 0 32 32" fill="none" xmlns="http://www.w3.org/2000/svg">
<path d="M21.4017 9H10.5964C8.60978 9 7.35096 11.1429 8.3507 12.8763L15.0186 24.4341C15.4537 25.1886 16.5444 25.1886 16.9795 24.4341L23.6494 12.8753C24.6481 11.1458 23.3883 9 21.4027 9H21.4017ZM15.0136 20.9672L13.561 18.1568L10.0565 11.8894C10.0032 11.7958 9.97563 11.6898 9.97645 11.5821C9.97728 11.4745 10.0065 11.3689 10.0612 11.2761C10.1158 11.1833 10.194 11.1066 10.2878 11.0537C10.3816 11.0008 10.4877 10.9735 10.5954 10.9748H15.0107V20.9692L15.0126 20.9672H15.0136ZM21.9386 11.8885L18.4361 18.1578L16.9834 20.9672V10.9728H21.4007C21.8852 10.9728 22.17 11.487 21.9386 11.8885Z" fill="#0098EA"/>
</svg>
