<!DOCTYPE svg PUBLIC "-//W3C//DTD SVG 1.1//EN" "http://www.w3.org/Graphics/SVG/1.1/DTD/svg11.dtd">
<!-- Uploaded to: SVG Repo, www.svgrepo.com, Transformed by: SVG Repo Mixer Tools -->
<svg width="150px" height="150px" viewBox="0 0 16 16" fill="none" xmlns="http://www.w3.org/2000/svg">
<g id="SVGRepo_bgCarrier" stroke-width="0"/>
<g id="SVGRepo_tracerCarrier" stroke-linecap="round" stroke-linejoin="round"/>
<g id="SVGRepo_iconCarrier"> <path fill-rule="nonzero" clip-rule="nonzero" d="M0 0.774194C0 0.346618 0.346618 0 0.774194 0H4.3871C4.81467 0 5.16129 0.346618 5.16129 0.774194C5.16129 1.20177 4.81467 1.54839 4.3871 1.54839H1.54839V14.4516H4.3871C4.81467 14.4516 5.16129 14.7982 5.16129 15.2258C5.16129 15.6534 4.81467 16 4.3871 16H0.774194C0.346618 16 0 15.6534 0 15.2258V0.774194ZM10.8387 0.774194C10.8387 0.346618 11.1853 0 11.6129 0H15.2258C15.6534 0 16 0.346618 16 0.774194V15.2258C16 15.6534 15.6534 16 15.2258 16H11.6129C11.1853 16 10.8387 15.6534 10.8387 15.2258C10.8387 14.7982 11.1853 14.4516 11.6129 14.4516H14.4516V1.54839H11.6129C11.1853 1.54839 10.8387 1.20177 10.8387 0.774194ZM4.12903 4.90323C4.12903 4.47565 4.47565 4.12903 4.90323 4.12903H11.0968C11.5243 4.12903 11.871 4.47565 11.871 4.90323C11.871 5.3308 11.5243 5.67742 11.0968 5.67742H8.77419V13.1613C8.77419 13.5889 8.42758 13.9355 8 13.9355C7.57242 13.9355 7.22581 13.5889 7.22581 13.1613V5.67742H4.90323C4.47565 5.67742 4.12903 5.3308 4.12903 4.90323Z" fill="#ffffff"/> </g>
</svg>