<svg xmlns="http://www.w3.org/2000/svg" width="25" height="25" viewBox="0 0 25 25" fill="none">
  <path d="M12.25 19.764H3.34375V15.8147C3.34375 15.8147 5.84375 13.6719 10.8438 13.6719C15.8437 13.6719 18.3438 15.8147 18.3438 15.8147" stroke="#6C7585" stroke-width="1.5"/>
  <path d="M7.09473 6.63969C7.09473 7.13202 7.1917 7.61953 7.38011 8.07439C7.56851 8.52925 7.84467 8.94254 8.1928 9.29068C8.54093 9.63881 8.95423 9.91496 9.40908 10.1034C9.86394 10.2918 10.3515 10.3888 10.8438 10.3888C11.3361 10.3888 11.8236 10.2918 12.2785 10.1034C12.7334 9.91496 13.1466 9.63881 13.4948 9.29068C13.8429 8.94254 14.1191 8.52925 14.3075 8.07439C14.4959 7.61953 14.5929 7.13202 14.5929 6.63969C14.5929 5.64537 14.1979 4.69179 13.4948 3.9887C12.7917 3.28561 11.8381 2.89063 10.8438 2.89062C9.84948 2.89063 8.89589 3.28561 8.1928 3.9887C7.48972 4.69179 7.09473 5.64537 7.09473 6.63969Z" stroke="#6C7585" stroke-width="1.5"/>
  <path d="M14.5938 18.8281L17.875 22.1094L23.5 15.0781" stroke="#6C7585" stroke-width="1.5"/>
</svg>
