<svg width="25" height="24" viewBox="0 0 25 24" fill="none" xmlns="http://www.w3.org/2000/svg">
<path d="M12.332 1.2998C13.3316 1.2998 14.3069 1.4441 15.2451 1.70898L15.7549 1.85352V3.81152C16.4522 4.10532 17.1091 4.48392 17.707 4.94141L18.9385 4.23047L19.3682 3.98242L19.7441 4.30469L19.7451 4.30566H19.7461L19.7471 4.30762C19.7483 4.30869 19.7502 4.30996 19.752 4.31152C19.7555 4.3146 19.7602 4.31845 19.7656 4.32324C19.7765 4.33294 19.7916 4.3473 19.8086 4.36328C19.8238 4.37756 19.8558 4.41036 19.8926 4.45117C21.2633 5.82396 22.2256 7.53796 22.6904 9.38574L22.8193 9.89844L22.3623 10.1631L21.1299 10.875C21.1769 11.2478 21.2002 11.6229 21.2002 12C21.2002 12.3804 21.1714 12.7578 21.126 13.1221L22.3623 13.8369L22.8193 14.1016L22.6904 14.6143C22.225 16.4645 21.2613 18.181 19.8877 19.5547L19.4033 20.0391L18.9385 19.7695L17.7051 19.0557C17.1097 19.5078 16.4543 19.8921 15.7549 20.1885V22.1465L15.2451 22.291C14.3069 22.5559 13.3316 22.7002 12.332 22.7002C11.3327 22.7002 10.3579 22.5558 9.41992 22.291L8.91016 22.1465V20.1875C8.21226 19.8935 7.55434 19.5156 6.95605 19.0576L5.72656 19.7695L5.29688 20.0176L4.91992 19.6953V19.6943H4.91895L4.91309 19.6885C4.90958 19.6854 4.90477 19.6815 4.89941 19.6768C4.88852 19.6671 4.87339 19.6527 4.85645 19.6367C4.83343 19.6151 4.76706 19.554 4.71191 19.4805L4.70117 19.4668C4.07926 18.8316 3.55216 18.1295 3.10938 17.3916L3.10254 17.3809L3.09766 17.3711L3.04785 17.2822C2.57339 16.4436 2.20718 15.5459 1.97363 14.6006L1.84766 14.0898L2.30273 13.8271L3.53418 13.1133C3.48725 12.741 3.46484 12.3659 3.46484 11.9893C3.46486 11.6089 3.4927 11.2314 3.53809 10.8672L2.30273 10.1523L1.84766 9.88867L1.97363 9.37891C2.20722 8.43345 2.57327 7.53509 3.04785 6.69629L3.09766 6.6084L3.10254 6.59766H3.10352C3.56121 5.8052 4.12757 5.08434 4.77734 4.43457L5.26074 3.95117L5.72656 4.21973L6.95801 4.93262C7.55064 4.48147 8.20392 4.09892 8.91016 3.80664V1.85352L9.41992 1.70898C10.3579 1.44417 11.3327 1.29984 12.332 1.2998ZM12.332 2.7002C11.6458 2.70022 10.9704 2.77998 10.3096 2.92871V4.78711L9.83789 4.94922C8.96507 5.24954 8.17009 5.72085 7.47461 6.31152L7.09863 6.63184L6.6709 6.38477L5.49805 5.70508C5.04117 6.19891 4.64353 6.72975 4.31543 7.29785L4.26953 7.38184L4.2666 7.38574C3.93725 7.96785 3.67055 8.57854 3.47363 9.21191L4.64941 9.89355L5.07227 10.1377L4.98926 10.6191C4.91222 11.0622 4.86429 11.5286 4.86426 11.9893C4.86426 12.4584 4.90256 12.9111 4.98633 13.3486L5.08008 13.8369L4.64941 14.0859L3.47363 14.7666C3.67053 15.4001 3.93722 16.0105 4.2666 16.5928L4.26953 16.5977L4.30957 16.6709L4.46582 16.9238C4.77205 17.4036 5.11802 17.8581 5.50488 18.2793L6.6709 17.6055L7.10254 17.3555L7.47949 17.6816C8.16756 18.2754 8.9716 18.7401 9.8457 19.0537L10.3096 19.2197V21.0703C10.9704 21.2191 11.6457 21.2998 12.332 21.2998C13.0182 21.2998 13.6938 21.2199 14.3545 21.0713V19.2197L14.8184 19.0537C15.6888 18.7415 16.4959 18.2668 17.1895 17.6777L17.5664 17.3584L17.9932 17.6055L19.165 18.2832C20.0959 17.2705 20.785 16.0683 21.1895 14.7754L20.0146 14.0967L19.5918 13.8516L19.6758 13.3711C19.7529 12.9279 19.7998 12.4608 19.7998 12C19.7998 11.5309 19.7615 11.0782 19.6777 10.6406L19.585 10.1523L20.0146 9.90332L21.1895 9.22363C20.7849 7.93088 20.096 6.72843 19.165 5.71582L17.9932 6.39453L17.5625 6.64453L17.1855 6.31836C16.4974 5.72451 15.6926 5.25989 14.8184 4.94629L14.3545 4.78027V2.92773C13.6939 2.77912 13.0181 2.7002 12.332 2.7002ZM16.2295 8.6875L16.7764 9.125L11.8691 15.2529L11.3809 15.8633L10.8281 15.3105L7.9707 12.4541L8.96094 11.4639L11.2646 13.7676L15.6836 8.25L16.2295 8.6875Z" fill="#6C7585"/>
</svg>
