<svg width="22" height="22" viewBox="0 0 22 22" fill="none" xmlns="http://www.w3.org/2000/svg">
<path d="M9.75 18.264H0.84375V14.3147C0.84375 14.3147 3.34375 12.1719 8.34375 12.1719C13.3437 12.1719 15.8438 14.3147 15.8438 14.3147" stroke="#141921" stroke-opacity="0.5" stroke-width="1.5"/>
<path d="M4.59473 5.13969C4.59473 5.63202 4.6917 6.11953 4.88011 6.57439C5.06851 7.02925 5.34467 7.44254 5.6928 7.79068C6.04093 8.13881 6.45423 8.41496 6.90908 8.60337C7.36394 8.79178 7.85146 8.88875 8.34379 8.88875C8.83612 8.88875 9.32364 8.79178 9.77849 8.60337C10.2334 8.41496 10.6466 8.13881 10.9948 7.79068C11.3429 7.44254 11.6191 7.02925 11.8075 6.57439C11.9959 6.11953 12.0929 5.63202 12.0929 5.13969C12.0929 4.14537 11.6979 3.19179 10.9948 2.4887C10.2917 1.78561 9.3381 1.39063 8.34379 1.39062C7.34948 1.39063 6.39589 1.78561 5.6928 2.4887C4.98972 3.19179 4.59473 4.14537 4.59473 5.13969Z" stroke="#141921" stroke-opacity="0.5" stroke-width="1.5"/>
<path d="M12.0938 17.3281L15.375 20.6094L21 13.5781" stroke="#141921" stroke-opacity="0.5" stroke-width="1.5"/>
</svg>
