<svg width="20" height="20" viewBox="0 0 20 20" fill="none" xmlns="http://www.w3.org/2000/svg">
<g clip-path="url(#clip0_9490_872)">
<path d="M19.0147 15.0005V5.0005L10.3401 0.000488281L1.6665 5.0005V15.0005L10.3401 19.9994L19.0147 15.0005Z" fill="white"/>
<path d="M10.3411 15.4404V12.7204L7.98112 14.0804V11.3604L5.62215 12.7204V9.14935L1.6665 6.86035V15.0004L10.3411 20.0004L17.3939 15.9353L13.4463 13.6504L10.3411 15.4404Z" fill="#0847F7"/>
<path d="M10.3384 0.000488281L3.27148 4.0735L7.21912 6.35749L10.3384 4.5605V7.28049L12.6983 5.9205V8.64049L15.0573 7.28049V10.8675L19.013 13.1565V5.00049L10.3384 0.000488281Z" fill="#0847F7"/>
<path d="M7.98054 8.64055L10.3405 7.28055V4.56055L5.62158 7.28055V12.7205L7.98054 11.3605V8.64055Z" fill="#0B101C"/>
<path d="M11.8964 12.7538V10.8968L13.5071 9.96776L15.0617 10.8678V7.28076L10.3418 10.0008V15.4407L13.447 13.6508L11.8964 12.7538Z" fill="#0B101C"/>
</g>
<defs>
<clipPath id="clip0_9490_872">
<rect width="20" height="20" fill="white"/>
</clipPath>
</defs>
</svg>
