<svg width="88" height="88" viewBox="0 0 88 88" fill="none" xmlns="http://www.w3.org/2000/svg">
<g opacity="0.04">
<path d="M60.011 92.6452V76.3203L45.8756 84.4828V68.1579L31.7402 76.3203V54.8927L8.0498 41.1604V89.9977L60.011 120L102.252 95.6134L78.6078 81.8994L60.011 92.6452Z" fill="url(#paint0_linear_3965_26696)"/>
<path d="M60.0113 0L17.6875 24.4416L41.3321 38.1464L60.0113 27.3548V43.6797L74.1468 35.5172V51.8421L88.2822 43.6797V65.1989L111.973 78.9404V30.0023L60.0113 0Z" fill="#1A2B6B"/>
<path d="M45.8757 51.8421L60.0111 43.6797V27.3548L31.7402 43.6797V76.3203L45.8757 68.1579V51.8421Z" fill="#1A2B6B"/>
<path d="M69.3281 76.5127V65.3729L78.9746 59.8031L88.2914 65.1989V43.6797L60.0205 59.9954V92.6453L78.6173 81.8994L69.3281 76.5127Z" fill="black"/>
</g>
<defs>
<linearGradient id="paint0_linear_3965_26696" x1="55.1648" y1="68.3594" x2="34.0212" y2="104.994" gradientUnits="userSpaceOnUse">
<stop stop-color="#7790E2"/>
<stop offset="1" stop-color="#486DDC"/>
</linearGradient>
</defs>
</svg>
