<svg width="48" height="48" viewBox="0 0 48 48" fill="none" xmlns="http://www.w3.org/2000/svg">
<path d="M24.0003 37.0581V30.5281L18.3461 33.7931V27.2632L12.692 30.5281V21.9571L3.21582 16.4642V35.9991L24.0003 48L40.8969 38.2454L31.439 32.7598L24.0003 37.0581Z" fill="url(#paint0_linear_3965_26648)"/>
<path d="M23.9998 0L7.07031 9.77662L16.5281 15.2586L23.9998 10.9419V17.4719L29.654 14.2069V20.7368L35.3082 17.4719V26.0795L44.7843 31.5761V12.0009L23.9998 0Z" fill="url(#paint1_linear_3965_26648)"/>
<path d="M18.3466 20.7368L24.0007 17.4719V10.9419L12.6924 17.4719V30.5281L18.3466 27.2631V20.7368Z" fill="black"/>
<path d="M27.7269 30.6051V26.1492L31.5856 23.9212L35.3122 26.0795V17.4719L24.0039 23.9982V37.0581L31.4426 32.7598L27.7269 30.6051Z" fill="black"/>
<defs>
<linearGradient id="paint0_linear_3965_26648" x1="22.0618" y1="27.3438" x2="13.6044" y2="41.9977" gradientUnits="userSpaceOnUse">
<stop stop-color="#7790E2"/>
<stop offset="1" stop-color="#486DDC"/>
</linearGradient>
<linearGradient id="paint1_linear_3965_26648" x1="34.3958" y1="6.00229" x2="25.92" y2="20.6855" gradientUnits="userSpaceOnUse">
<stop stop-color="#7790E2"/>
<stop offset="1" stop-color="#486DDC"/>
</linearGradient>
</defs>
</svg>
