<svg width="25" height="24" viewBox="0 0 25 24" fill="none" xmlns="http://www.w3.org/2000/svg">
<path d="M13.3564 12.1562H15.1816V19.1074H13.3564V22.0049H11.8564V19.1074H10.0439V12.1562H11.8564V8.36719H13.3564V12.1562ZM6.08301 5.79688H7.90039V17.2969H6.08301V19.2725H4.58301V17.2969H2.7627V5.79688H4.58301V2H6.08301V5.79688ZM11.5439 17.6074H13.6816V13.6562H11.5439V17.6074ZM4.2627 15.7969H6.40039V7.29688H4.2627V15.7969ZM20.1846 3.0625H20.7852C21.7059 3.06252 22.4473 3.80383 22.4473 4.72461V5.63574H20.9473V4.72461C20.9473 4.63224 20.8775 4.56252 20.7852 4.5625H18.0596C17.9673 4.56256 17.8975 4.63227 17.8975 4.72461V5.56543C17.8975 5.64978 17.9546 5.70766 18.0176 5.71973L18.0244 5.72168L21.0967 6.33789H21.0977C21.8856 6.48799 22.4365 7.17999 22.4365 7.9668V9.26367C22.4363 10.1842 21.6959 10.9246 20.7754 10.9248H20.1846V11.9932H18.6846V10.9248H18.0498C17.1291 10.9248 16.3879 10.1843 16.3877 9.26367V8.35156H17.8877V9.26367C17.8879 9.35588 17.9575 9.4248 18.0498 9.4248H20.7754C20.8675 9.4246 20.9364 9.35571 20.9365 9.26367V7.9668C20.9365 7.88242 20.8803 7.82367 20.8174 7.81152L20.8096 7.81055L17.7295 7.19238V7.19141C16.9456 7.03832 16.3975 6.34963 16.3975 5.56543V4.72461C16.3975 3.80386 17.1388 3.06256 18.0596 3.0625H18.6846V2H20.1846V3.0625Z" fill="#6C7585"/>
</svg>
