<svg width="48" height="48" viewBox="0 0 48 48" fill="none" xmlns="http://www.w3.org/2000/svg">
<g clip-path="url(#clip0_3965_21487)">
<path d="M2 11.8231L21.9603 0.290538C22.2974 0.0958848 22.6799 -0.0065918 23.0692 -0.0065918C23.4585 -0.0065918 23.8409 0.0958848 24.1781 0.290538L44.1383 11.8231L23.0692 24.0211L2 11.8231Z" fill="#8B9CDF"/>
<path d="M2 29.9936V11.8231L17.7176 20.9272L2 29.9936Z" fill="#1A2B6B"/>
<path d="M23.0692 30.1821V48C22.7913 48.001 22.5158 47.9491 22.2575 47.8469L2.84055 36.6359L2.42138 36.3942L2 36.1502L2.14416 36.0682L2.2861 35.9861L17.7176 27.0994L23.0692 30.1866V30.1821Z" fill="#1A2B6B"/>
<path d="M44.1385 18.0397V34.9593C44.1385 34.9771 44.1385 34.997 44.1385 35.017C44.1139 35.3811 43.9999 35.7336 43.8064 36.0431C43.613 36.3526 43.3462 36.6096 43.0296 36.7912L23.8811 47.847C23.7518 47.8975 23.6181 47.9361 23.4818 47.9623C23.3457 47.987 23.2077 47.9996 23.0693 48V30.1822L44.1385 18.0397Z" fill="url(#paint0_linear_3965_21487)"/>
</g>
<defs>
<linearGradient id="paint0_linear_3965_21487" x1="3272.57" y1="6132.05" x2="2317.41" y2="2971.52" gradientUnits="userSpaceOnUse">
<stop stop-color="#8B9CDF"/>
<stop offset="1" stop-color="#375BD2"/>
</linearGradient>
<clipPath id="clip0_3965_21487">
<rect width="48" height="48" fill="white"/>
</clipPath>
</defs>
</svg>
