<svg width="21" height="20" viewBox="0 0 21 20" fill="none" xmlns="http://www.w3.org/2000/svg">
<g clip-path="url(#clip0_8559_12277)">
<path d="M19.683 15.001V5.00056L11.008 0.000305176L2.33301 5.00056V15.001L11.008 20.0003L19.683 15.001Z" fill="white"/>
<path d="M11.008 0.000305176L2.33301 5.00056V10.0008L6.67052 7.50068L11.008 5.00056L15.3455 7.50068L19.683 5.00056H19.6841L11.008 0.000305176Z" fill="#0847F7"/>
<path d="M19.6841 10.0177L11.0091 15.018V15.001L6.68664 12.5098L2.34912 15.01L4.32555 16.15L11.0091 20.0001L17.6936 16.15L19.6852 15.001L19.6841 10.0177Z" fill="#0847F7"/>
<path d="M15.3474 12.501V7.50073L11.0099 5.00061L6.67236 7.50073V12.501L11.0099 15.0011L15.3474 12.501Z" fill="#0B101C"/>
</g>
<defs>
<clipPath id="clip0_8559_12277">
<rect width="20" height="20" fill="white" transform="translate(0.666504)"/>
</clipPath>
</defs>
</svg>
