<svg width="24" height="24" viewBox="0 0 24 24" fill="none" xmlns="http://www.w3.org/2000/svg">
<path d="M2 17.9955V2H22V17.9955H2Z" stroke="#141921" stroke-opacity="0.5" stroke-width="1.5"/>
<path d="M6 7V13.0012" stroke="#141921" stroke-opacity="0.5" stroke-width="1.5"/>
<path d="M11.9922 10.0006C11.9922 11.6549 13.3384 13.0012 14.9927 13.0012C16.647 13.0012 17.9933 11.6549 17.9933 10.0006C17.9933 8.34627 16.647 7 14.9927 7C13.3384 7 11.9922 8.34627 11.9922 10.0006Z" stroke="#141921" stroke-opacity="0.5" stroke-width="1.5"/>
<path d="M15 6.99658V5" stroke="#141921" stroke-opacity="0.5" stroke-width="1.5"/>
<path d="M15 12.9922V14.9888" stroke="#141921" stroke-opacity="0.5" stroke-width="1.5"/>
<path d="M12.406 8.504L10.6719 7.5" stroke="#141921" stroke-opacity="0.5" stroke-width="1.5"/>
<path d="M17.5938 11.5L19.3279 12.504" stroke="#141921" stroke-opacity="0.5" stroke-width="1.5"/>
<path d="M12.406 11.5L10.6719 12.504" stroke="#141921" stroke-opacity="0.5" stroke-width="1.5"/>
<path d="M17.5938 8.504L19.3279 7.5" stroke="#141921" stroke-opacity="0.5" stroke-width="1.5"/>
<path d="M4.5 17.9922V21.9967" stroke="#141921" stroke-opacity="0.5" stroke-width="1.5"/>
<path d="M19.5 17.9922V21.9967" stroke="#141921" stroke-opacity="0.5" stroke-width="1.5"/>
</svg>
