<svg width="88" height="88" viewBox="0 0 88 88" fill="none" xmlns="http://www.w3.org/2000/svg">
<g opacity="0.04" clip-path="url(#clip0_3965_21533)">
<path d="M5 29.5579L54.9007 0.726346C55.7435 0.239712 56.6996 -0.0164795 57.6729 -0.0164795C58.6462 -0.0164795 59.6023 0.239712 60.4452 0.726346L110.346 29.5579L57.6729 60.0527L5 29.5579Z" fill="url(#paint0_linear_3965_21533)"/>
<path d="M5 74.984V29.5578L44.294 52.318L5 74.984Z" fill="#1A2B6B"/>
<path d="M57.6729 75.4553V120C56.9783 120.003 56.2896 119.873 55.6436 119.617L7.10137 91.5899L6.05346 90.9855L5 90.3756L5.36039 90.1705L5.71524 89.9653L44.294 67.7485L57.6729 75.4664V75.4553Z" fill="#1A2B6B"/>
<path d="M110.346 45.0991V87.3983C110.346 87.4426 110.346 87.4925 110.346 87.5424C110.284 88.4528 109.999 89.3339 109.516 90.1077C109.032 90.8814 108.365 91.5239 107.574 91.978L59.7021 119.617C59.3789 119.744 59.0449 119.84 58.7041 119.906C58.3638 119.967 58.0187 119.999 57.6729 120V75.4554L110.346 45.0991Z" fill="url(#paint1_linear_3965_21533)"/>
</g>
<defs>
<linearGradient id="paint0_linear_3965_21533" x1="98.6968" y1="51.4643" x2="16.5714" y2="7.79566" gradientUnits="userSpaceOnUse">
<stop stop-color="#8B9CDF"/>
<stop offset="1" stop-color="#375BD2"/>
</linearGradient>
<linearGradient id="paint1_linear_3965_21533" x1="8181.42" y1="15330.1" x2="5793.52" y2="7428.8" gradientUnits="userSpaceOnUse">
<stop stop-color="#8B9CDF"/>
<stop offset="1" stop-color="#375BD2"/>
</linearGradient>
<clipPath id="clip0_3965_21533">
<rect width="120" height="120" fill="white"/>
</clipPath>
</defs>
</svg>
