<svg width="25" height="24" viewBox="0 0 25 24" fill="none" xmlns="http://www.w3.org/2000/svg">
<path d="M19.0645 11.5801L23.6426 13.9834L24.0439 14.1943V20.1934L23.6445 20.4043L19.0654 22.8193L18.7158 23.0039L18.3652 22.8193L13.7871 20.4043L13.3867 20.1934V14.1943L13.7881 13.9834L18.3672 11.5801L18.7158 11.3975L19.0645 11.5801ZM14.8867 15.1006V19.2881L18.7148 21.3066L22.5439 19.2881V15.1006L18.7148 13.0908L14.8867 15.1006ZM19.4629 18.2119H17.9629V16.1797H19.4629V18.2119ZM19.7432 0.150391C22.13 0.150645 24.0557 2.07699 24.0557 4.46387C24.0554 6.8505 22.1298 8.77611 19.7432 8.77637C18.2764 8.77629 16.9839 8.04973 16.207 6.93164L8.62598 10.4707C8.72347 10.8309 8.77633 11.2092 8.77637 11.5967C8.77633 11.9025 8.74168 12.1972 8.68262 12.4795L11.8701 13.7588L11.3115 15.1514L8.12793 13.874C7.36718 15.098 6.01573 15.909 4.46387 15.9092C2.07698 15.9092 0.150625 13.9835 0.150391 11.5967C0.150592 9.20983 2.07695 7.2832 4.46387 7.2832C5.92357 7.28338 7.21038 8.00333 7.98828 9.1123L15.5752 5.57129C15.4807 5.21672 15.4297 4.84482 15.4297 4.46387C15.4297 2.07693 17.3562 0.150525 19.7432 0.150391ZM4.46387 8.7832C2.9054 8.7832 1.65059 10.0382 1.65039 11.5967C1.65062 13.1551 2.90541 14.4092 4.46387 14.4092C5.65148 14.409 6.65668 13.6869 7.07422 12.6533C7.20231 12.3059 7.27631 11.9554 7.27637 11.5967C7.27631 11.1699 7.18123 10.765 7.01367 10.4111L7.01074 10.4033C6.56826 9.44345 5.59843 8.78341 4.46387 8.7832ZM19.7432 1.65039C18.1847 1.65052 16.9297 2.90534 16.9297 4.46387C16.9298 4.83725 17.0024 5.19347 17.1328 5.51367L17.1924 5.64844L17.1953 5.65625C17.6378 6.61641 18.6083 7.27627 19.7432 7.27637C21.3014 7.27611 22.5554 6.02207 22.5557 4.46387C22.5557 2.90543 21.3016 1.65064 19.7432 1.65039Z" fill="#6C7585"/>
</svg>
