<svg width="25" height="24" viewBox="0 0 25 24" fill="none" xmlns="http://www.w3.org/2000/svg">
<path d="M23.8408 18.3066L24.3379 18.8262L23.8408 19.3447L20.4385 22.8945L19.8975 22.375L19.3564 21.8564L21.54 19.5762H15.2305L17.416 21.8564L16.874 22.375L16.333 22.8945L12.9316 19.3447L12.4336 18.8262L12.9316 18.3066L16.333 14.7578L16.874 15.2764L17.416 15.7949L15.2285 18.0762H21.542L19.3564 15.7949L19.8975 15.2764L20.4395 14.7578L23.8408 18.3066ZM10.5996 1.35059C13.2441 1.35061 15.6698 1.70706 17.46 2.30371C18.3508 2.60067 19.1265 2.97062 19.6943 3.41797C20.2537 3.85883 20.7167 4.46343 20.7168 5.22266V11.4668H19.2168V7.35645C18.7201 7.65953 18.122 7.92091 17.46 8.1416C15.6698 8.73827 13.2441 9.09471 10.5996 9.09473C7.95519 9.09469 5.52936 8.73826 3.73926 8.1416C3.0778 7.92109 2.47985 7.66014 1.9834 7.35742V10.4268L1.99902 10.5244C2.03461 10.6432 2.14231 10.8231 2.43359 11.0527C2.81363 11.3521 3.41033 11.655 4.21387 11.9229C5.8136 12.456 8.0716 12.7988 10.5996 12.7988C11.6621 12.7988 12.6807 12.7387 13.624 12.6279L13.7109 13.373L13.7988 14.1172C12.7953 14.235 11.7183 14.2988 10.5996 14.2988C7.95522 14.2988 5.52935 13.9424 3.73926 13.3457C3.07764 13.1251 2.47992 12.8634 1.9834 12.5605V16.1504C1.98341 16.2532 2.0453 16.4703 2.43359 16.7764C2.81362 17.0758 3.4102 17.3786 4.21387 17.6465C5.8136 18.1797 8.07154 18.5224 10.5996 18.5225V20.0225C7.95516 20.0224 5.52936 19.666 3.73926 19.0693C2.84832 18.7723 2.07269 18.4025 1.50488 17.9551C0.945463 17.5142 0.483414 16.9097 0.483398 16.1504V5.22266C0.483453 4.46333 0.94546 3.85884 1.50488 3.41797C2.07271 2.97049 2.84826 2.60074 3.73926 2.30371C5.52937 1.70703 7.95514 1.35062 10.5996 1.35059ZM10.5996 2.85059C8.07151 2.85062 5.81361 3.19334 4.21387 3.72656C3.41012 3.99449 2.81362 4.2972 2.43359 4.59668C2.04538 4.90266 1.98345 5.11983 1.9834 5.22266C1.98347 5.32549 2.04555 5.54274 2.43359 5.84863C2.81362 6.14806 3.41028 6.45087 4.21387 6.71875C5.8136 7.25195 8.07156 7.59469 10.5996 7.59473C13.1279 7.59471 15.3865 7.25201 16.9863 6.71875C17.7899 6.45084 18.3866 6.14808 18.7666 5.84863C19.1545 5.54281 19.2167 5.32548 19.2168 5.22266C19.2167 5.11985 19.1545 4.90253 18.7666 4.59668C18.3866 4.29724 17.7899 3.99447 16.9863 3.72656C15.3865 3.1933 13.1279 2.85061 10.5996 2.85059Z" fill="#6C7585"/>
</svg>
