<svg width="48" height="48" viewBox="0 0 48 48" fill="none" xmlns="http://www.w3.org/2000/svg">
<g clip-path="url(#clip0_3965_21541)">
<path d="M12.3864 17.0603L24.2373 10.1743V0L19.8963 2.53153L8.06709 9.4217L3.7261 11.9532V17.0383V30.8737V35.9587L8.06709 38.5013L19.8637 45.4465L24.2373 48V37.8277L12.3864 30.8957V17.0603Z" fill="url(#paint0_linear_3965_21541)"/>
<path d="M36.0882 17.0603L24.2373 10.1743V0L28.5783 2.53153L40.4075 9.4217L44.7485 11.9532V17.0383V30.8737V35.9587L40.4075 38.5013L28.6109 45.4465L24.2373 48V37.8277L36.0882 30.8957V17.0603Z" fill="#385CD3"/>
<path d="M31.3634 28.0998V19.8745L24.2398 15.7642L17.1162 19.8745V28.0998L24.2398 32.2101L31.3634 28.0998Z" fill="#0C162C"/>
</g>
<defs>
<linearGradient id="paint0_linear_3965_21541" x1="8.8539" y1="5.99863" x2="32.562" y2="26.2621" gradientUnits="userSpaceOnUse">
<stop stop-color="#7790E2"/>
<stop offset="1" stop-color="#486DDC"/>
</linearGradient>
<clipPath id="clip0_3965_21541">
<rect width="48" height="48" fill="white"/>
</clipPath>
</defs>
</svg>
