<svg width="24" height="24" viewBox="0 0 24 24" fill="none" xmlns="http://www.w3.org/2000/svg">
<path d="M12.2483 22.0161L13.658 22.5287L14.0937 21.3305C13.5454 21.4536 12.9844 21.5287 12.4165 21.5534L12.2483 22.0161Z" fill="#141921" fill-opacity="0.5"/>
<path fill-rule="evenodd" clip-rule="evenodd" d="M12 0.9375C9.06604 0.9375 6.25225 2.10301 4.17763 4.17763C2.10301 6.25225 0.9375 9.06604 0.9375 12C0.9375 14.934 2.10301 17.7477 4.17763 19.8224C6.25225 21.897 9.06604 23.0625 12 23.0625C14.934 23.0625 17.7477 21.897 19.8224 19.8224C21.897 17.7477 23.0625 14.934 23.0625 12C23.0625 9.06604 21.897 6.25225 19.8224 4.17763C17.7477 2.10301 14.934 0.9375 12 0.9375ZM1.6875 12.75V11.25H2.46693C2.64478 8.98833 3.62259 6.85399 5.23829 5.23829C6.5302 3.94638 8.15371 3.06231 9.90877 2.66893L10.3418 1.47807L11.7515 1.99068L11.5858 2.44647C11.7235 2.4405 11.8616 2.4375 12 2.4375C12.1383 2.4375 12.2764 2.4405 12.414 2.44646L12.2483 1.99069L13.658 1.47806L14.091 2.66888C15.8461 3.06223 17.4697 3.94632 18.7617 5.23829C20.3309 6.80744 21.2984 8.86579 21.5157 11.0549C21.5222 11.1198 21.5279 11.1848 21.5331 11.25H22.3125V12.75H21.5331C21.3552 15.0117 20.3774 17.146 18.7617 18.7617C17.4704 20.053 15.8478 20.9369 14.0937 21.3305L13.658 22.5287L12.2483 22.0161L12.4165 21.5534C12.278 21.5595 12.1392 21.5625 12 21.5625C11.8613 21.5625 11.7229 21.5595 11.5849 21.5535L11.5833 21.5534L11.7515 22.0161L10.3418 22.5287L9.9061 21.3305C8.15206 20.9368 6.52955 20.053 5.23829 18.7617C3.62259 17.146 2.64478 15.0117 2.46693 12.75H1.6875Z" fill="#141921" fill-opacity="0.5"/>
<path d="M10.3418 22.5287L11.7515 22.0161L11.5833 21.5534C11.0154 21.5287 10.4543 21.4535 9.9061 21.3305L10.3418 22.5287Z" fill="#141921" fill-opacity="0.5"/>
<path fill-rule="evenodd" clip-rule="evenodd" d="M6.78841 11.25H2.46693C2.44738 11.4986 2.4375 11.7488 2.4375 12C2.4375 12.2512 2.44738 12.5014 2.46693 12.75H6.78595L9.9061 21.3305C10.4543 21.4535 11.0154 21.5287 11.5833 21.5534L8.38204 12.75H15.6178L12.4165 21.5534C12.9844 21.5287 13.5454 21.4536 14.0937 21.3305L17.2139 12.75H21.5331H22.3125V11.25H21.5331H17.2115L14.091 2.66888L13.658 1.47806L12.2483 1.99069L12.414 2.44646L15.6154 11.25H8.3845L11.5858 2.44647L11.7515 1.99068L10.3418 1.47807L9.90877 2.66893L6.78841 11.25Z" fill="#141921" fill-opacity="0.5"/>
<path d="M1.6875 11.25V12.75H2.46693C2.44738 12.5014 2.4375 12.2512 2.4375 12C2.4375 11.7488 2.44738 11.4986 2.46693 11.25H1.6875Z" fill="#141921" fill-opacity="0.5"/>
</svg>
