<svg width="88" height="88" viewBox="0 0 88 88" fill="none" xmlns="http://www.w3.org/2000/svg">
<g opacity="0.04" clip-path="url(#clip0_3965_21590)">
<path d="M115.049 35.2675L55.183 0.806203C54.2738 0.281899 53.2426 0.00587126 52.193 0.00579835C51.1434 0.00572544 50.1122 0.28161 49.2029 0.805787C48.2936 1.32996 47.538 2.08401 47.012 2.99231C46.486 3.90061 46.2081 4.93123 46.2061 5.98084V49.8766L54.6742 45.005L63.1423 40.1277C64.0119 39.6256 64.9984 39.3614 66.0026 39.3617C67.0067 39.3619 67.9931 39.6266 68.8625 40.1291C69.7319 40.6316 70.4536 41.3542 70.955 42.2242C71.4565 43.0942 71.72 44.0809 71.719 45.0851V70.1234L115.049 45.1708C115.919 44.6693 116.642 43.9474 117.145 43.0776C117.648 42.2078 117.912 41.2209 117.912 40.2163C117.912 39.2117 117.648 38.2248 117.145 37.3551C116.642 36.4853 115.919 35.7633 115.049 35.2618V35.2675Z" fill="url(#paint0_linear_3965_21590)"/>
<path d="M34.77 56.4635L2.85882 74.8234C1.98698 75.3245 1.26271 76.0467 0.759071 76.917C0.255431 77.7874 -0.00976563 78.7752 -0.00976562 79.7808C-0.00976562 80.7864 0.255431 81.7742 0.759071 82.6445C1.26271 83.5149 1.98698 84.2371 2.85882 84.7381L34.7643 103.098L34.77 56.4635Z" fill="#1A2B6B"/>
<path d="M71.7131 45.0851C71.7141 44.0809 71.4506 43.0942 70.9492 42.2242C70.4477 41.3542 69.726 40.6316 68.8566 40.1291C67.9872 39.6266 67.0008 39.3619 65.9967 39.3617C64.9925 39.3614 64.006 39.6256 63.1364 40.1277L46.2002 49.848V109.679L62.7247 119.194C63.6323 119.717 64.6611 119.992 65.7084 119.993C66.7558 119.995 67.7852 119.721 68.694 119.201C69.6028 118.68 70.3593 117.93 70.888 117.026C71.4167 116.122 71.6992 115.095 71.7074 114.048L71.7131 45.0851Z" fill="#1A2B6B"/>
</g>
<defs>
<linearGradient id="paint0_linear_3965_21590" x1="46.2061" y1="35.0617" x2="117.919" y2="35.0617" gradientUnits="userSpaceOnUse">
<stop stop-color="#8B9CDF"/>
<stop offset="1" stop-color="#375BD2"/>
</linearGradient>
<clipPath id="clip0_3965_21590">
<rect width="120" height="120" fill="white"/>
</clipPath>
</defs>
</svg>
