<svg width="24" height="24" viewBox="0 0 24 24" fill="none" xmlns="http://www.w3.org/2000/svg">
<path d="M2.57812 16.7656L11.9948 21.9969L21.4116 16.7656" stroke="#141921" stroke-opacity="0.5" stroke-width="1.5"/>
<path d="M11.9922 11.8828V13.7625" stroke="#141921" stroke-opacity="0.5" stroke-width="1.5"/>
<path d="M11.9922 3.87967V2" stroke="#141921" stroke-opacity="0.5" stroke-width="1.5"/>
<path d="M14.8516 10.2344V12.114" stroke="#141921" stroke-opacity="0.5" stroke-width="1.5"/>
<path d="M14.8516 5.5203V3.64062" stroke="#141921" stroke-opacity="0.5" stroke-width="1.5"/>
<path d="M9.14062 10.2344V12.114" stroke="#141921" stroke-opacity="0.5" stroke-width="1.5"/>
<path d="M9.14062 5.5203V3.64062" stroke="#141921" stroke-opacity="0.5" stroke-width="1.5"/>
<path d="M17.6953 8.58594V10.4656" stroke="#141921" stroke-opacity="0.5" stroke-width="1.5"/>
<path d="M17.6953 7.16874V5.28906" stroke="#141921" stroke-opacity="0.5" stroke-width="1.5"/>
<path d="M6.28906 8.58594V10.4656" stroke="#141921" stroke-opacity="0.5" stroke-width="1.5"/>
<path d="M6.28906 7.16874V5.28906" stroke="#141921" stroke-opacity="0.5" stroke-width="1.5"/>
<path d="M20.5469 6.92969V8.80933" stroke="#141921" stroke-opacity="0.5" stroke-width="1.5"/>
<path d="M3.4375 6.92969V8.80933" stroke="#141921" stroke-opacity="0.5" stroke-width="1.5"/>
<path d="M11.9922 16.5312V18.4109" stroke="#141921" stroke-opacity="0.5" stroke-width="1.5"/>
<path d="M14.8516 14.8906V16.7703" stroke="#141921" stroke-opacity="0.5" stroke-width="1.5"/>
<path d="M9.14062 14.8906V16.7703" stroke="#141921" stroke-opacity="0.5" stroke-width="1.5"/>
<path d="M17.6953 13.2422V15.1218" stroke="#141921" stroke-opacity="0.5" stroke-width="1.5"/>
<path d="M6.28906 13.2422V15.1218" stroke="#141921" stroke-opacity="0.5" stroke-width="1.5"/>
<path d="M20.5469 11.5938V13.4734" stroke="#141921" stroke-opacity="0.5" stroke-width="1.5"/>
<path d="M3.4375 11.5938V13.4734" stroke="#141921" stroke-opacity="0.5" stroke-width="1.5"/>
</svg>
