<svg width="20" height="20" viewBox="0 0 20 20" fill="none" xmlns="http://www.w3.org/2000/svg">
<g clip-path="url(#clip0_9490_913)">
<path d="M18.9874 15V5L10.3269 0L1.6665 5V15L10.3269 20L18.9874 15Z" fill="#0847F7"/>
<path d="M7.77457 13.0116C7.77457 13.8185 7.1193 14.4738 6.31233 14.4738C5.50536 14.4738 4.8501 13.8185 4.8501 13.0116C4.8501 12.2046 5.50536 11.5493 6.31233 11.5493C7.1193 11.5493 7.77457 12.2046 7.77457 13.0116Z" fill="#0C0F1C"/>
<path d="M6.31338 15.1194C5.15134 15.1194 4.20557 14.1737 4.20557 13.0116C4.20557 11.8496 5.15134 10.9038 6.31338 10.9038C7.47542 10.9038 8.42119 11.8496 8.42119 13.0116C8.42119 14.1737 7.47542 15.1194 6.31338 15.1194ZM6.31338 12.195C5.86147 12.195 5.49672 12.5629 5.49672 13.0116C5.49672 13.4603 5.8647 13.8283 6.31338 13.8283C6.76205 13.8283 7.13003 13.4603 7.13003 13.0116C7.13003 12.5629 6.76205 12.195 6.31338 12.195Z" fill="white"/>
<path d="M11.6745 5.6971C11.6745 6.50407 11.0192 7.15933 10.2122 7.15933C9.40526 7.15933 8.75 6.50407 8.75 5.6971C8.75 4.89012 9.40526 4.23486 10.2122 4.23486C11.0192 4.23486 11.6745 4.89012 11.6745 5.6971Z" fill="#0C0F1C"/>
<path d="M10.2133 7.80498C9.05124 7.80498 8.10547 6.85921 8.10547 5.69717C8.10547 4.53513 9.05124 3.58936 10.2133 3.58936C11.3753 3.58936 12.3211 4.53513 12.3211 5.69717C12.3211 6.85921 11.3753 7.80498 10.2133 7.80498ZM10.2133 4.88051C9.76138 4.88051 9.39662 5.24849 9.39662 5.69717C9.39662 6.14584 9.7646 6.51382 10.2133 6.51382C10.662 6.51382 11.0299 6.14584 11.0299 5.69717C11.0299 5.24849 10.662 4.88051 10.2133 4.88051Z" fill="white"/>
<path d="M15.5773 13.0116C15.5773 13.8185 14.922 14.4738 14.1151 14.4738C13.3081 14.4738 12.6528 13.8185 12.6528 13.0116C12.6528 12.2046 13.3081 11.5493 14.1151 11.5493C14.922 11.5493 15.5773 12.2046 15.5773 13.0116Z" fill="#0C0F1C"/>
<path d="M14.1161 15.1194C12.9541 15.1194 12.0083 14.1737 12.0083 13.0116C12.0083 11.8496 12.9541 10.9038 14.1161 10.9038C15.2782 10.9038 16.2239 11.8496 16.2239 13.0116C16.2239 14.1737 15.2782 15.1194 14.1161 15.1194ZM14.1161 12.195C13.6642 12.195 13.2995 12.5629 13.2995 13.0116C13.2995 13.4603 13.6674 13.8283 14.1161 13.8283C14.5648 13.8283 14.9328 13.4603 14.9328 13.0116C14.9328 12.5629 14.5648 12.195 14.1161 12.195Z" fill="white"/>
<path d="M10.8581 7.15967H9.56689V10.8169H10.8581V7.15967Z" fill="white"/>
<path d="M9.90718 10.2499L7.34668 11.6494L7.96593 12.7824L10.5264 11.3829L9.90718 10.2499Z" fill="white"/>
<path d="M10.5241 10.2506L9.90527 11.3838L12.4663 12.7824L13.0851 11.6492L10.5241 10.2506Z" fill="white"/>
</g>
<defs>
<clipPath id="clip0_9490_913">
<rect width="17.3209" height="20" fill="white" transform="translate(1.6665)"/>
</clipPath>
</defs>
</svg>
