<svg width="48" height="48" viewBox="0 0 48 48" fill="none" xmlns="http://www.w3.org/2000/svg">
<g clip-path="url(#clip0_4038_23311)">
<path d="M32.4375 47.25C33.9908 47.25 35.25 45.9908 35.25 44.4375C35.25 42.8842 33.9908 41.625 32.4375 41.625C30.8842 41.625 29.625 42.8842 29.625 44.4375C29.625 45.9908 30.8842 47.25 32.4375 47.25Z" fill="white"/>
<path d="M15.5625 47.25C17.1158 47.25 18.375 45.9908 18.375 44.4375C18.375 42.8842 17.1158 41.625 15.5625 41.625C14.0092 41.625 12.75 42.8842 12.75 44.4375C12.75 45.9908 14.0092 47.25 15.5625 47.25Z" fill="white"/>
<path d="M32.4375 6.375C33.9908 6.375 35.25 5.1158 35.25 3.5625C35.25 2.0092 33.9908 0.75 32.4375 0.75C30.8842 0.75 29.625 2.0092 29.625 3.5625C29.625 5.1158 30.8842 6.375 32.4375 6.375Z" fill="white"/>
<path d="M15.5625 6.375C17.1158 6.375 18.375 5.1158 18.375 3.5625C18.375 2.0092 17.1158 0.75 15.5625 0.75C14.0092 0.75 12.75 2.0092 12.75 3.5625C12.75 5.1158 14.0092 6.375 15.5625 6.375Z" fill="white"/>
<path d="M44.4375 35.25C45.9908 35.25 47.25 33.9908 47.25 32.4375C47.25 30.8842 45.9908 29.625 44.4375 29.625C42.8842 29.625 41.625 30.8842 41.625 32.4375C41.625 33.9908 42.8842 35.25 44.4375 35.25Z" fill="white"/>
<path d="M44.4375 18.375C45.9908 18.375 47.25 17.1158 47.25 15.5625C47.25 14.0092 45.9908 12.75 44.4375 12.75C42.8842 12.75 41.625 14.0092 41.625 15.5625C41.625 17.1158 42.8842 18.375 44.4375 18.375Z" fill="white"/>
<path d="M3.5625 18.375C5.1158 18.375 6.375 17.1158 6.375 15.5625C6.375 14.0092 5.1158 12.75 3.5625 12.75C2.0092 12.75 0.75 14.0092 0.75 15.5625C0.75 17.1158 2.0092 18.375 3.5625 18.375Z" fill="white"/>
<path d="M3.5625 35.25C5.1158 35.25 6.375 33.9908 6.375 32.4375C6.375 30.8842 5.1158 29.625 3.5625 29.625C2.0092 29.625 0.75 30.8842 0.75 32.4375C0.75 33.9908 2.0092 35.25 3.5625 35.25Z" fill="white"/>
<path d="M45.1875 28.9547V19.0453C45.9833 18.8727 46.6961 18.4332 47.2077 17.7997C47.7193 17.1662 47.9988 16.3768 48 15.5625C48 12.7425 44.8716 11.0625 42.5241 12.5625L35.4375 5.47594C36.9375 3.13219 35.25 0 32.4375 0C28.9688 0 27.5381 4.5 30.4163 6.49406L27.2419 14.1816L21.8438 8.77875L27.4547 6.44719C27.6383 6.37036 27.7839 6.22373 27.8594 6.03956C27.9349 5.8554 27.9342 5.64878 27.8573 5.46516C27.7805 5.28154 27.6339 5.13596 27.4497 5.06044C27.2656 4.98493 27.0589 4.98567 26.8753 5.0625L20.6878 7.63219L18.5541 5.49375C20.0794 3.13875 18.3834 0 15.5625 0C12.7556 0 11.0503 3.11531 12.5625 5.47594L5.47594 12.5625C3.13219 11.0625 0 12.75 0 15.5625C5.26352e-05 16.0849 0.114976 16.6008 0.336629 17.0738C0.558282 17.5468 0.88124 17.9653 1.28262 18.2996C1.68401 18.6339 2.15399 18.8758 2.65928 19.0082C3.16458 19.1407 3.69281 19.1604 4.20656 19.0659L6.25688 24L4.20656 28.9341C3.69281 28.8396 3.16458 28.8593 2.65928 28.9918C2.15399 29.1242 1.68401 29.3661 1.28262 29.7004C0.88124 30.0347 0.558282 30.4532 0.336629 30.9262C0.114976 31.3992 5.26352e-05 31.9151 0 32.4375C0 35.2575 3.12937 36.9375 5.47594 35.4375L12.5625 42.5241C11.0466 44.8894 12.7594 48 15.5625 48C16.3767 47.999 17.166 47.7194 17.7994 47.2078C18.4328 46.6962 18.8721 45.9833 19.0444 45.1875H28.9547C29.1399 46.0473 29.6365 46.8083 30.3491 47.3238C31.0617 47.8394 31.9399 48.0731 32.8145 47.98C33.6891 47.8869 34.4983 47.4735 35.0864 46.8195C35.6745 46.1655 35.9998 45.317 35.9998 44.4375C35.9998 43.558 35.6745 42.7095 35.0864 42.0555C34.4983 41.4015 33.6891 40.9881 32.8145 40.895C31.9399 40.8019 31.0617 41.0356 30.3491 41.5512C29.6365 42.0667 29.1399 42.8277 28.9547 43.6875H19.3219L41.5116 34.4662C43.5159 37.3491 48 35.8837 48 32.4375C47.9988 31.6232 47.7193 30.8338 47.2077 30.2003C46.6961 29.5668 45.9833 29.1273 45.1875 28.9547ZM40.9331 16.1981L38.8575 17.055L34.5619 6.71906L41.4572 13.6144C40.9563 14.376 40.7685 15.3015 40.9331 16.1981ZM41.5069 17.5837C42.0217 18.3303 42.8013 18.8528 43.6875 19.0453V28.6781L39.4331 18.4406L41.5069 17.5837ZM42.2934 29.2322L33.8184 20.7581L38.0466 19.0125L42.2934 29.2322ZM46.5 15.5625C46.5 15.9704 46.379 16.3692 46.1524 16.7084C45.9258 17.0475 45.6037 17.3119 45.2268 17.468C44.8499 17.6241 44.4352 17.6649 44.0351 17.5854C43.635 17.5058 43.2675 17.3094 42.9791 17.0209C42.6906 16.7325 42.4942 16.365 42.4146 15.9649C42.335 15.5648 42.3759 15.1501 42.532 14.7732C42.6881 14.3963 42.9525 14.0742 43.2916 13.8476C43.6308 13.621 44.0296 13.5 44.4375 13.5C44.9845 13.5 45.5091 13.7173 45.8959 14.1041C46.2827 14.4909 46.5 15.0155 46.5 15.5625ZM32.4375 1.5C32.8454 1.5 33.2442 1.62096 33.5834 1.84759C33.9225 2.07422 34.1869 2.39634 34.343 2.77322C34.4991 3.15009 34.54 3.56479 34.4604 3.96487C34.3808 4.36496 34.1844 4.73246 33.8959 5.02091C33.6075 5.30935 33.24 5.50579 32.8399 5.58537C32.4398 5.66495 32.0251 5.62411 31.6482 5.468C31.2713 5.3119 30.9492 5.04754 30.7226 4.70836C30.496 4.36919 30.375 3.97042 30.375 3.5625C30.375 3.01549 30.5923 2.49089 30.9791 2.10409C31.3659 1.7173 31.8905 1.5 32.4375 1.5ZM31.8019 7.06687C32.2249 7.14468 32.6585 7.14468 33.0816 7.06687L37.4709 17.625L32.67 19.6069L28.3913 15.3281L31.8019 7.06687ZM31.1681 20.2294L25.3819 22.6181L27.7706 16.8319L31.1681 20.2294ZM14.9194 7.06594C15.8114 7.23102 16.7327 7.04782 17.4938 6.55406L19.1934 8.25469L13.4297 10.65L14.9194 7.06594ZM11.4656 11.4656L6.72 13.4344L13.4381 6.71531L11.4656 11.4656ZM15.5625 1.5C15.9704 1.5 16.3692 1.62096 16.7084 1.84759C17.0475 2.07422 17.3119 2.39634 17.468 2.77322C17.6241 3.15009 17.665 3.56479 17.5854 3.96487C17.5058 4.36496 17.3094 4.73246 17.0209 5.02091C16.7325 5.30935 16.365 5.50579 15.9649 5.58537C15.5648 5.66495 15.1501 5.62411 14.7732 5.468C14.3963 5.3119 14.0742 5.04754 13.8476 4.70836C13.621 4.36919 13.5 3.97042 13.5 3.5625C13.5 3.01549 13.7173 2.49089 14.1041 2.10409C14.4909 1.7173 15.0155 1.5 15.5625 1.5ZM1.5 15.5625C1.5 15.1546 1.62096 14.7558 1.84759 14.4166C2.07422 14.0775 2.39634 13.8131 2.77322 13.657C3.15009 13.5009 3.56479 13.46 3.96487 13.5396C4.36496 13.6192 4.73246 13.8156 5.02091 14.1041C5.30935 14.3925 5.50579 14.76 5.58537 15.1601C5.66495 15.5602 5.62411 15.9749 5.468 16.3518C5.3119 16.7287 5.04754 17.0508 4.70836 17.2774C4.36919 17.504 3.97042 17.625 3.5625 17.625C3.01549 17.625 2.49089 17.4077 2.10409 17.0209C1.7173 16.6341 1.5 16.1095 1.5 15.5625ZM5.59125 18.4884C6.15499 18.0988 6.59411 17.5546 6.85574 16.9212C7.11737 16.2878 7.19037 15.5923 7.06594 14.9184L10.65 13.4297L7.06875 22.0453L5.59125 18.4884ZM7.06875 25.9547L8.56875 29.5594L6.495 30.4162C6.25068 30.063 5.94489 29.7566 5.59219 29.5116L7.06875 25.9547ZM7.06875 31.8019L9.14531 30.945L13.44 41.2809L6.54281 34.3856C7.04374 33.624 7.23146 32.6985 7.06687 31.8019H7.06875ZM1.5 32.4375C1.5 32.0296 1.62096 31.6308 1.84759 31.2916C2.07422 30.9525 2.39634 30.6881 2.77322 30.532C3.15009 30.3759 3.56479 30.335 3.96487 30.4146C4.36496 30.4942 4.73246 30.6906 5.02091 30.9791C5.30935 31.2675 5.50579 31.635 5.58537 32.0351C5.66495 32.4352 5.62411 32.8499 5.468 33.2268C5.3119 33.6037 5.04754 33.9258 4.70836 34.1524C4.36919 34.379 3.97042 34.5 3.5625 34.5C3.01549 34.5 2.49089 34.2827 2.10409 33.8959C1.7173 33.5091 1.5 32.9845 1.5 32.4375ZM15.5625 46.5C15.1546 46.5 14.7558 46.379 14.4166 46.1524C14.0775 45.9258 13.8131 45.6037 13.657 45.2268C13.5009 44.8499 13.46 44.4352 13.5396 44.0351C13.6192 43.635 13.8156 43.2675 14.1041 42.9791C14.3925 42.6906 14.76 42.4942 15.1601 42.4146C15.5602 42.335 15.9749 42.3759 16.3518 42.532C16.7287 42.6881 17.0508 42.9525 17.2774 43.2916C17.504 43.6308 17.625 44.0296 17.625 44.4375C17.625 44.9845 17.4077 45.5091 17.0209 45.8959C16.6341 46.2827 16.1095 46.5 15.5625 46.5ZM32.4375 42.375C32.8454 42.375 33.2442 42.496 33.5834 42.7226C33.9225 42.9492 34.1869 43.2713 34.343 43.6482C34.4991 44.0251 34.54 44.4398 34.4604 44.8399C34.3808 45.24 34.1844 45.6075 33.8959 45.8959C33.6075 46.1843 33.24 46.3808 32.8399 46.4604C32.4398 46.5399 32.0251 46.4991 31.6482 46.343C31.2713 46.1869 30.9492 45.9225 30.7226 45.5834C30.496 45.2442 30.375 44.8454 30.375 44.4375C30.375 43.8905 30.5923 43.3659 30.9791 42.9791C31.3659 42.5923 31.8905 42.375 32.4375 42.375ZM18.4884 42.4087C18.0991 41.845 17.555 41.4058 16.9217 41.1442C16.2885 40.8826 15.5931 40.8096 14.9194 40.9341L10.53 30.375L13.4522 29.1684C13.6334 29.0908 13.7768 28.945 13.8514 28.7624C13.9259 28.5798 13.9255 28.3753 13.8503 28.193C13.7751 28.0107 13.6312 27.8654 13.4497 27.7885C13.2681 27.7115 13.0636 27.7091 12.8803 27.7819L9.95438 28.9875L7.88156 24L12.6131 12.6131L20.3438 9.40219L26.625 15.6834L23.4281 23.4262L18.3291 25.5319C17.5706 25.845 17.8013 26.9747 18.6159 26.9747C18.8269 26.9747 18.5934 27.0459 22.6209 25.3809L17.2678 38.3437C17.1921 38.5279 17.1926 38.7345 17.2693 38.9182C17.3459 39.102 17.4924 39.2477 17.6766 39.3234C17.8607 39.3991 18.0673 39.3986 18.2511 39.322C18.4348 39.2453 18.5805 39.0988 18.6562 38.9147L24.5766 24.5709L32.3166 21.375L41.4459 30.5034C40.9516 31.2642 40.7684 32.1858 40.9341 33.0778L18.4884 42.4087ZM44.4375 34.5C44.0296 34.5 43.6308 34.379 43.2916 34.1524C42.9525 33.9258 42.6881 33.6037 42.532 33.2268C42.3759 32.8499 42.335 32.4352 42.4146 32.0351C42.4942 31.635 42.6906 31.2675 42.9791 30.9791C43.2675 30.6906 43.635 30.4942 44.0351 30.4146C44.4352 30.335 44.8499 30.3759 45.2268 30.532C45.6037 30.6881 45.9258 30.9525 46.1524 31.2916C46.379 31.6308 46.5 32.0296 46.5 32.4375C46.5 32.9845 46.2827 33.5091 45.8959 33.8959C45.5091 34.2827 44.9845 34.5 44.4375 34.5Z" fill="#375BD2"/>
<path d="M15.5967 26.6578C14.6911 27.0328 15.2302 28.4287 16.1742 28.0425C16.2651 28.0046 16.3477 27.9491 16.4172 27.8793C16.4867 27.8095 16.5417 27.7266 16.5792 27.6355C16.6167 27.5444 16.6359 27.4468 16.6356 27.3483C16.6354 27.2498 16.6157 27.1523 16.5778 27.0614C16.5399 26.9705 16.4844 26.8879 16.4146 26.8184C16.3448 26.7489 16.262 26.6939 16.1709 26.6564C16.0798 26.6189 15.9822 26.5998 15.8837 26.6C15.7851 26.6002 15.6876 26.6199 15.5967 26.6578Z" fill="#375BD2"/>
<path d="M35.8336 25.8137C36.8349 19.645 32.6459 13.8325 26.4772 12.8312C20.3085 11.8299 14.496 16.0189 13.4947 22.1876C12.4934 28.3563 16.6824 34.1687 22.8511 35.17C29.0198 36.1714 34.8322 31.9824 35.8336 25.8137Z" fill="white"/>
<path d="M24.6633 13.4813C27.0971 13.4813 29.4556 14.3252 31.3369 15.8692C33.2183 17.4133 34.506 19.5619 34.9808 21.9489C35.4555 24.336 35.0879 26.8138 33.9406 28.9602C32.7932 31.1066 30.9371 32.7887 28.6885 33.72C26.4399 34.6513 23.938 34.7741 21.609 34.0675C19.28 33.3609 17.2681 31.8686 15.9161 29.8449C14.564 27.8212 13.9555 25.3913 14.1942 22.9692C14.4329 20.5471 15.5041 18.2827 17.2252 16.5619C18.1998 15.5822 19.359 14.8055 20.6357 14.2767C21.9125 13.7479 23.2814 13.4776 24.6633 13.4813ZM24.6633 11.8875C22.2677 11.8875 19.9258 12.5979 17.9339 13.9288C15.9421 15.2598 14.3896 17.1515 13.4728 19.3648C12.556 21.578 12.3162 24.0134 12.7835 26.363C13.2509 28.7126 14.4045 30.8709 16.0985 32.5648C17.7924 34.2588 19.9507 35.4124 22.3003 35.8798C24.6498 36.3471 27.0853 36.1073 29.2985 35.1905C31.5118 34.2737 33.4035 32.7212 34.7345 30.7294C36.0654 28.7375 36.7758 26.3956 36.7758 24C36.7758 20.7876 35.4997 17.7067 33.2281 15.4352C30.9566 13.1636 27.8757 11.8875 24.6633 11.8875Z" fill="#375BD2"/>
<path d="M35.8336 25.8137C36.8349 19.645 32.6459 13.8325 26.4772 12.8312C20.3085 11.8299 14.496 16.0189 13.4947 22.1876C12.4934 28.3563 16.6824 34.1687 22.8511 35.17C29.0198 36.1714 34.8322 31.9824 35.8336 25.8137Z" fill="#8B9CDF"/>
<path d="M24.6633 13.4813C27.0971 13.4813 29.4556 14.3252 31.3369 15.8692C33.2183 17.4133 34.506 19.5619 34.9808 21.9489C35.4555 24.336 35.0879 26.8138 33.9406 28.9602C32.7932 31.1066 30.9371 32.7887 28.6885 33.72C26.4399 34.6513 23.938 34.7741 21.609 34.0675C19.28 33.3609 17.2681 31.8686 15.9161 29.8449C14.564 27.8212 13.9555 25.3913 14.1942 22.9692C14.4329 20.5471 15.5041 18.2827 17.2252 16.5619C18.1998 15.5822 19.359 14.8055 20.6357 14.2767C21.9125 13.7479 23.2814 13.4776 24.6633 13.4813ZM24.6633 11.8875C22.2677 11.8875 19.9258 12.5979 17.9339 13.9288C15.9421 15.2598 14.3896 17.1515 13.4728 19.3648C12.556 21.578 12.3162 24.0134 12.7835 26.363C13.2509 28.7126 14.4045 30.8709 16.0985 32.5648C17.7924 34.2588 19.9507 35.4124 22.3003 35.8798C24.6498 36.3471 27.0853 36.1073 29.2985 35.1905C31.5118 34.2737 33.4035 32.7212 34.7345 30.7294C36.0654 28.7375 36.7758 26.3956 36.7758 24C36.7758 20.7876 35.4997 17.7067 33.2281 15.4352C30.9566 13.1636 27.8757 11.8875 24.6633 11.8875Z" fill="#375BD2"/>
<path d="M30.1554 29.4916C33.1887 26.4583 33.1887 21.5404 30.1554 18.5072C27.1221 15.4739 22.2042 15.4739 19.1709 18.5072C16.1377 21.5404 16.1377 26.4583 19.1709 29.4916C22.2042 32.5249 27.1221 32.5249 30.1554 29.4916Z" fill="white"/>
<path d="M24.6637 17.0297C26.0423 17.0297 27.3899 17.4385 28.5362 18.2044C29.6824 18.9703 30.5758 20.0589 31.1034 21.3326C31.631 22.6062 31.769 24.0077 31.5001 25.3598C31.2311 26.712 30.5672 27.9539 29.5924 28.9288C28.6176 29.9036 27.3756 30.5674 26.0235 30.8364C24.6714 31.1053 23.2699 30.9673 21.9963 30.4397C20.7226 29.9122 19.634 29.0188 18.8681 27.8725C18.1022 26.7262 17.6934 25.3786 17.6934 24C17.6956 22.1521 18.4307 20.3804 19.7374 19.0737C21.0441 17.767 22.8157 17.0319 24.6637 17.0297ZM24.6637 15.4359C22.9699 15.4359 21.3141 15.9382 19.9057 16.8792C18.4974 17.8203 17.3997 19.1578 16.7515 20.7227C16.1033 22.2876 15.9337 24.0095 16.2642 25.6708C16.5946 27.332 17.4103 28.858 18.608 30.0557C19.8057 31.2534 21.3316 32.0691 22.9929 32.3995C24.6542 32.73 26.3761 32.5604 27.941 31.9122C29.5059 31.264 30.8434 30.1663 31.7844 28.7579C32.7255 27.3496 33.2277 25.6938 33.2277 24C33.2277 21.7287 32.3255 19.5504 30.7194 17.9443C29.1133 16.3382 26.935 15.4359 24.6637 15.4359Z" fill="#375BD2"/>
<path d="M27.8426 25.8351V22.1649L24.664 20.3308L21.4854 22.1649V25.8351L24.664 27.6692L27.8426 25.8351Z" fill="#375BD2"/>
</g>
<defs>
<clipPath id="clip0_4038_23311">
<rect width="48" height="48" fill="white"/>
</clipPath>
</defs>
</svg>
