<svg width="20" height="20" viewBox="0 0 20 20" fill="none" xmlns="http://www.w3.org/2000/svg">
<path d="M9.99978 3L12.0354 4.175V6.526L9.99978 7.701L7.96418 6.526V4.175L9.99978 3ZM9.99978 0L5.3667 2.675V8.026L9.99978 10.701L14.6329 8.026V2.675L9.99978 0Z" fill="#0847F7"/>
<path d="M15.367 12.2988L17.4026 13.4738V15.8248L15.367 16.9998L13.3314 15.8248V13.4738L15.367 12.2988ZM15.367 9.29883L10.7339 11.9738V17.3248L15.367 19.9998L20 17.3248V11.9738L15.367 9.29883Z" fill="#0847F7"/>
<path d="M4.63307 12.2988L6.66866 13.4738V15.8248L4.63307 16.9998L2.59748 15.8248V13.4738L4.63307 12.2988ZM4.63307 9.29883L0 11.9738V17.3248L4.63307 19.9998L9.26614 17.3248V11.9738L4.63307 9.29883Z" fill="#141921"/>
</svg>
