<svg width="20" height="20" viewBox="0 0 20 20" fill="none" xmlns="http://www.w3.org/2000/svg">
<g clip-path="url(#clip0_9490_945)">
<path d="M5.16124 7.10846L10.0991 4.23931V0L8.29037 1.0548L3.36153 3.92571L1.55278 4.98051V7.09929V12.864V14.9828L3.36153 16.0422L8.27681 18.936L10.0991 20V15.7616L5.16124 12.8732V7.10846Z" fill="#0847F7"/>
<path d="M15.037 7.10846L10.0991 4.23931V0L11.9079 1.0548L16.8367 3.92571L18.6455 4.98051V7.09929V12.864V14.9828L16.8367 16.0422L11.9214 18.936L10.0991 20V15.7616L15.037 12.8732V7.10846Z" fill="#0847F7"/>
<path d="M13.0682 11.7082V8.28099L10.1 6.56836L7.13184 8.28099V11.7082L10.1 13.4208L13.0682 11.7082Z" fill="#0C162C"/>
</g>
<defs>
<clipPath id="clip0_9490_945">
<rect width="20" height="20" fill="white"/>
</clipPath>
</defs>
</svg>
