<svg width="88" height="88" viewBox="0 0 88 88" fill="none" xmlns="http://www.w3.org/2000/svg">
<g opacity="0.04">
<path d="M60.011 0L8.0498 30.0023V89.9977L60.011 120L111.972 89.9977V30.0023L60.011 0ZM92.6425 68.7442C92.6425 68.7442 92.3677 69.6786 91.7539 70.3015L70.2988 91.7566C69.4285 92.6269 68.1552 92.975 66.9551 92.6544L37.649 84.8034C36.4581 84.4828 35.5237 83.5484 35.203 82.3574L27.352 53.0514C27.0314 51.8604 27.3704 50.5871 28.2498 49.7076L49.7049 28.2525C50.1355 27.822 50.676 27.5197 51.2439 27.3639C51.8211 27.2082 52.444 27.199 53.0487 27.3639L82.3547 35.2149C83.4632 35.5172 84.3518 36.3417 84.7182 37.4135L92.7066 67.2509C92.8074 67.7548 92.7799 68.2678 92.6517 68.7533L92.6425 68.7442Z" fill="url(#paint0_linear_3965_20513)"/>
<path d="M92.6426 68.7442L61.8983 60.4993C60.7074 60.1786 59.7729 59.2442 59.4523 58.0533L51.2349 27.3548C50.6577 27.5105 50.1264 27.8128 49.6958 28.2434L28.2408 49.6985C27.3705 50.5688 27.0224 51.8421 27.343 53.0422L35.194 82.3483C35.5146 83.5392 36.449 84.4736 37.64 84.7943L66.946 92.6452C68.1369 92.9659 69.4103 92.6269 70.2898 91.7475L91.7449 70.2924C92.3678 69.6694 92.6335 68.735 92.6335 68.735L92.6426 68.7442Z" fill="#1A2B6B"/>
<path d="M67.5965 49.0297C66.1216 48.6358 65.2421 49.5061 65.6361 50.9718C66.0208 52.4376 67.5324 53.9492 69.0073 54.3431C70.4822 54.737 71.3617 53.8667 70.9769 52.4009C70.5922 50.9352 69.0806 49.4236 67.6057 49.0297H67.5965Z" fill="#1A2B6B"/>
<path d="M75.5028 41.2154C74.0278 40.8214 73.1484 41.6917 73.5423 43.1575C73.9271 44.6233 75.4386 46.1348 76.9136 46.5287C78.3885 46.9227 79.2679 46.0524 78.8832 44.5866C78.4984 43.1208 76.9869 41.6093 75.5119 41.2154H75.5028Z" fill="#0C162C"/>
<path d="M77.9579 51.5123C76.4829 51.1184 75.6035 51.9887 75.9974 53.4545C76.3822 54.9202 77.8937 56.4318 79.3686 56.8257C80.8436 57.2196 81.723 56.3493 81.3383 54.8836C80.9535 53.4178 79.4419 51.9063 77.967 51.5123H77.9579Z" fill="#0C162C"/>
<path d="M64.867 38.8427C63.3921 38.4487 62.5127 39.319 62.9066 40.7848C63.2913 42.2505 64.8029 43.7621 66.2778 44.156C67.7527 44.55 68.6322 43.6797 68.2474 42.2139C67.8627 40.7481 66.3511 39.2366 64.8762 38.8427H64.867Z" fill="#0C162C"/>
</g>
<defs>
<linearGradient id="paint0_linear_3965_20513" x1="85.9916" y1="14.9966" x2="34.0304" y2="105.003" gradientUnits="userSpaceOnUse">
<stop stop-color="#7790E2"/>
<stop offset="1" stop-color="#486DDC"/>
</linearGradient>
</defs>
</svg>
