<svg width="32" height="32" viewBox="0 0 32 32" fill="none" xmlns="http://www.w3.org/2000/svg">
<rect width="32" height="32" rx="4" fill="#6BE5FF"/>
<path d="M14.0976 19.8464C12.0796 21.8644 8.84581 21.9257 6.75396 20.0302L8.45353 18.3306L11.4598 15.3244L12.025 15.8896L9.15162 18.7631C10.2251 19.2336 11.5231 19.0295 12.4019 18.1507C13.5465 17.006 13.5465 15.1502 12.4019 14.0055C11.2572 12.8608 9.40134 12.8608 8.25668 14.0055C7.24071 15.0215 7.12648 16.5977 7.91401 17.7397L6.20269 19.451C4.48747 17.3576 4.60687 14.2637 6.56091 12.3097C8.64212 10.2285 12.0164 10.2285 14.0976 12.3097C16.1788 14.3909 16.1788 17.7652 14.0976 19.8464Z" fill="white"/>
<path d="M21.6769 21.2512C24.5309 21.2512 26.8608 19.0079 26.9996 16.1885H20.3446V16.9878H24.4082C23.9818 18.0796 22.9198 18.8531 21.677 18.8531C20.0581 18.8531 18.7458 17.5408 18.7458 15.9219C18.7458 14.3032 20.0581 12.9909 21.677 12.9909C23.1137 12.9909 24.3091 14.0247 24.5597 15.3891H26.9799C26.7125 12.696 24.4403 10.5927 21.6769 10.5927C18.7337 10.5927 16.3477 12.9786 16.3477 15.9219C16.3477 18.8652 18.7337 21.2512 21.6769 21.2512Z" fill="white"/>
</svg>
