<?xml version="1.0" encoding="UTF-8"?>
<svg version="1.1" xmlns="http://www.w3.org/2000/svg" width="500" height="500">
<path d="M0 0 C165 0 330 0 500 0 C500 165 500 330 500 500 C335 500 170 500 0 500 C0 335 0 170 0 0 Z " fill="#B75FFF" transform="translate(0,0)"/>
<path d="M0 0 C12.45052678 9.89312128 21.90807356 23.14082499 26.890625 38.296875 C27.28121094 39.4725 27.67179688 40.648125 28.07421875 41.859375 C33.05571124 58.25626231 32.19280446 75.13042588 26.890625 91.296875 C26.51679688 92.44800781 26.14296875 93.59914063 25.7578125 94.78515625 C18.81032983 114.36233424 4.17237374 130.57638012 -14.546875 139.609375 C-34.04933861 148.0580957 -55.86408045 151.14799141 -76.109375 143.296875 C-85.9686453 139.14206815 -94.73375029 133.96898282 -103.109375 127.296875 C-101.82601744 124.50413974 -100.46599466 122.37530552 -98.36328125 120.13891602 C-97.50005249 119.21803444 -97.50005249 119.21803444 -96.61938477 118.27854919 C-95.97670654 117.60526077 -95.33402832 116.93197235 -94.671875 116.23828125 C-93.98085693 115.50952286 -93.28983887 114.78076447 -92.57788086 114.02992249 C-81.88686653 102.83363672 -70.87216454 91.94926025 -59.90551758 81.02435303 C-56.87261499 78.00185968 -53.84270216 74.9763721 -50.8125 71.95117188 C-44.9143001 66.06355261 -39.01291936 60.17913533 -33.109375 54.296875 C-29.34449458 56.01842288 -26.95873603 58.28921614 -24.109375 61.296875 C-25.47165222 64.34860377 -27.00500506 66.43396594 -29.37817383 68.77685547 C-30.04258987 69.43789276 -30.70700592 70.09893005 -31.39155579 70.77999878 C-32.10925644 71.48423981 -32.82695709 72.18848083 -33.56640625 72.9140625 C-34.30638351 73.6488382 -35.04636078 74.38361389 -35.8087616 75.14065552 C-38.17510212 77.489193 -40.54800417 79.83095121 -42.921875 82.171875 C-45.28418901 84.50648212 -47.645001 86.84255782 -50.00285339 89.18167114 C-51.46922736 90.63588869 -52.93826636 92.08742539 -54.41035461 93.53585815 C-57.42217924 96.51849333 -60.32302992 99.47986343 -62.9753418 102.78955078 C-63.67957275 103.61696777 -64.38380371 104.44438477 -65.109375 105.296875 C-65.769375 105.296875 -66.429375 105.296875 -67.109375 105.296875 C-67.109375 105.956875 -67.109375 106.616875 -67.109375 107.296875 C-53.66889676 110.9154653 -40.54793806 110.90957003 -28.109375 104.296875 C-16.77140054 97.32099148 -9.70350281 86.68980479 -6.4921875 73.82421875 C-4.42032182 60.14567694 -7.63667593 48.75266367 -15.109375 37.296875 C-21.83987881 28.68578924 -32.28946096 22.65778573 -43.109375 21.296875 C-56.66261647 20.36898754 -67.48731189 22.56534422 -78.109375 31.296875 C-84.37858623 37.10128033 -88.16126982 43.31192615 -91.109375 51.296875 C-91.35558594 51.96332031 -91.60179687 52.62976563 -91.85546875 53.31640625 C-95.98902812 66.8573766 -91.45856138 78.94316663 -86.109375 91.296875 C-86.52711182 91.709375 -86.94484863 92.121875 -87.37524414 92.546875 C-97.4563492 102.41759233 -97.4563492 102.41759233 -106.91015625 112.87890625 C-108.109375 114.296875 -108.109375 114.296875 -110.109375 116.296875 C-111.9921875 116.26953125 -111.9921875 116.26953125 -114.109375 115.296875 C-119.19535061 109.02691722 -122.64117891 101.61789126 -125.484375 94.109375 C-125.72269043 93.481521 -125.96100586 92.85366699 -126.20654297 92.20678711 C-133.25751093 72.49716799 -132.14652888 49.96483897 -123.37304688 31.05639648 C-113.31891308 10.50499149 -97.60947487 -4.6283158 -76.109375 -12.703125 C-49.73892472 -21.70835324 -22.26424583 -16.34173709 0 0 Z " fill="#FEFDFF" transform="translate(214.109375,184.703125)"/>
<path d="M0 0 C16.91650265 13.58767387 27.52063833 32.51969745 31.30175781 53.71386719 C31.30175781 55.03386719 31.30175781 56.35386719 31.30175781 57.71386719 C19.09175781 57.71386719 6.88175781 57.71386719 -5.69824219 57.71386719 C-7.01824219 53.75386719 -8.33824219 49.79386719 -9.69824219 45.71386719 C-11.62358655 42.41938906 -13.3620007 39.65264297 -15.69824219 36.71386719 C-16.17648437 36.09898437 -16.65472656 35.48410156 -17.14746094 34.85058594 C-23.55216272 27.57471565 -34.50735006 22.13914244 -44.16699219 21.47558594 C-58.1270758 21.0865031 -69.12340542 24.02304674 -79.69824219 33.71386719 C-89.86478707 45.44885672 -92.73540719 57.58389743 -91.69824219 72.71386719 C-89.81007256 84.81599379 -83.54690433 95.65371662 -73.63574219 102.90136719 C-63.92631075 108.95758445 -53.0137927 111.14228465 -41.69824219 109.71386719 C-29.43212809 106.6828085 -20.08995378 100.99582107 -12.69824219 90.71386719 C-11.04824219 87.74386719 -9.39824219 84.77386719 -7.69824219 81.71386719 C-27.82824219 81.71386719 -47.95824219 81.71386719 -68.69824219 81.71386719 C-68.69824219 77.75386719 -68.69824219 73.79386719 -68.69824219 69.71386719 C-35.69824219 69.71386719 -2.69824219 69.71386719 31.30175781 69.71386719 C29.23078781 94.56550726 20.18163227 113.85910502 1.29394531 130.36621094 C-16.01922739 143.95004487 -37.67612077 149.80683041 -59.50292969 147.40527344 C-61.94572262 146.95275606 -64.30351247 146.37487302 -66.69824219 145.71386719 C-67.70113281 145.45734375 -68.70402344 145.20082031 -69.73730469 144.93652344 C-82.33554079 141.43367259 -92.94445332 135.37455902 -102.69824219 126.71386719 C-103.72691406 125.82634766 -103.72691406 125.82634766 -104.77636719 124.92089844 C-118.6859953 112.07913547 -128.32750925 91.83645353 -129.16699219 73.01464844 C-129.20129117 70.68545059 -129.21109502 68.3557821 -129.19824219 66.02636719 C-129.19179687 64.79829346 -129.18535156 63.57021973 -129.17871094 62.30493164 C-128.75159762 40.96472072 -120.12435107 22.43212597 -105.20605469 7.16308594 C-75.89525512 -20.83085162 -32.57589158 -24.67075861 0 0 Z " fill="#FEFDFF" transform="translate(384.6982421875,184.2861328125)"/>
</svg>
