<svg width="32" height="32" viewBox="0 0 32 32" fill="none" xmlns="http://www.w3.org/2000/svg">
<path d="M0 4C0 1.79086 1.79086 0 4 0H28C30.2091 0 32 1.79086 32 4V28C32 30.2091 30.2091 32 28 32H4C1.79086 32 0 30.2091 0 28V4Z" fill="url(#paint0_linear_13473_11877)"/>
<path d="M24.5622 17.133C24.2887 16.6154 23.9977 16.2145 23.6987 15.9423C23.5177 15.7774 23.3139 15.6045 23.09 15.4261L23.3448 15.2451C23.7349 15.0051 24.0406 14.5278 24.278 13.7849C24.4483 13.2352 24.4925 12.6761 24.4121 12.1223C24.3316 11.5793 24.16 11.0778 23.9025 10.6326C23.6424 10.1808 23.3206 9.8134 22.9465 9.54121C22.5751 9.2717 22.1608 9.06789 21.7143 8.93515C21.2691 8.80107 20.7931 8.73268 20.3011 8.73268H20.238V7.94427H18.4574V8.73268H16.7666H15.3601H15.0155L11.7318 14.6873H9.41216V16.7978H10.568L7.13945 23.0152L7 23.2673H8.75113L12.3177 16.7978H15.3588V23.2673H18.4561V24.0557H20.2367V23.2633C21.1136 23.2445 21.8149 23.1547 22.319 22.9924C22.905 22.8047 23.4024 22.5084 23.7966 22.1088C24.1788 21.72 24.4617 21.3285 24.6387 20.9437C24.8894 20.3939 25.0101 19.749 24.9993 19.0263C24.9913 18.3022 24.8438 17.6653 24.5622 17.133ZM23.0994 19.7798C23.0243 20.418 22.7923 20.8659 22.4102 21.1099C21.9798 21.3848 21.5547 21.5537 21.1444 21.6141C20.7033 21.6798 20.1804 21.7079 19.5877 21.7012H17.0764V16.712H20.1831C20.6698 16.7187 21.0841 16.7442 21.4153 16.7844C21.6902 16.8193 21.9691 16.9506 22.2412 17.1786C22.5255 17.4159 22.7508 17.7096 22.9103 18.0488C23.1168 18.5167 23.1798 19.0987 23.0994 19.7798ZM17.0764 14.6873V10.3283H20.0101C20.3399 10.3283 20.6859 10.3658 21.0399 10.4422C21.3791 10.5133 21.6768 10.63 21.9275 10.7882C22.1595 10.9357 22.3606 11.1864 22.5242 11.531C22.6931 11.9131 22.7521 12.3543 22.6971 12.8423C22.6435 13.321 22.5014 13.6978 22.2721 13.9619C22.0428 14.2274 21.7398 14.4151 21.3751 14.5184C20.9768 14.631 20.5022 14.6887 19.9659 14.6887H17.0764V14.6873ZM13.4829 14.6873L15.3601 11.2816V14.6873H13.4829Z" fill="white"/>
<defs>
<linearGradient id="paint0_linear_13473_11877" x1="7.99866" y1="29.8587" x2="24.0013" y2="2.14128" gradientUnits="userSpaceOnUse">
<stop stop-color="#343DD5"/>
<stop offset="0.5" stop-color="#1167C0"/>
<stop offset="0.7572" stop-color="#2484AE"/>
<stop offset="1" stop-color="#339CA0"/>
</linearGradient>
</defs>
</svg>
