<svg width="32" height="32" viewBox="0 0 32 32" fill="none" xmlns="http://www.w3.org/2000/svg">
<rect width="32" height="32" rx="4" fill="#32D77E"/>
<path d="M22.459 22.2576L18.849 18.7348H13.1482L9.53809 22.2576L11.232 23.9106L14.8421 20.3877C15.1516 20.0857 15.5596 19.9209 15.9986 19.9209C16.4375 19.9209 16.8455 20.0857 17.155 20.3877L20.7652 23.9106L22.459 22.2576Z" fill="white"/>
<path d="M19.4518 17.7188L24.3815 19.0066L25.0006 16.7469L20.0708 15.4591C19.6488 15.3493 19.297 15.0857 19.0775 14.715C18.8581 14.347 18.8018 13.916 18.9144 13.5041L20.234 8.69352L17.9183 8.08945L16.5986 12.9L19.449 17.7162L19.4518 17.7188Z" fill="white"/>
<path d="M7.61904 19.0066L12.5488 17.7188L12.5516 17.7161L15.402 12.9L14.0823 8.08944L11.7666 8.69351L13.0862 13.5041C13.1988 13.916 13.1425 14.347 12.923 14.715C12.7036 15.0857 12.3518 15.3493 11.9298 15.4591L7 16.7469L7.61904 19.0066Z" fill="white"/>
</svg>
