<svg width="32" height="32" viewBox="0 0 32 32" fill="none" xmlns="http://www.w3.org/2000/svg">
<path d="M0 4C0 1.79086 1.79086 0 4 0H28C30.2091 0 32 1.79086 32 4V28C32 30.2091 30.2091 32 28 32H4C1.79086 32 0 30.2091 0 28V4Z" fill="#010820"/>
<path d="M22.3855 15.8015C22.4595 15.9234 22.4595 16.076 22.3855 16.1978L16.5491 25.8153C16.3997 26.0615 16.0416 26.0615 15.8922 25.8154L10.0555 16.1985C9.98152 16.0766 9.98152 15.924 10.0554 15.8022L15.8922 6.18457C16.0416 5.93846 16.3997 5.93846 16.5491 6.18457L22.3855 15.8015ZM12.7997 15.4169C12.6448 15.672 12.829 15.9978 13.128 15.9978H19.3135C19.6126 15.9978 19.7968 15.672 19.6419 15.4169L16.549 10.3226C16.3997 10.0765 16.0417 10.0765 15.8923 10.3226L12.7997 15.4169ZM16.2207 12.72C16.8222 12.72 17.3099 13.2071 17.3099 13.8079C17.3098 14.4087 16.8221 14.8955 16.2207 14.8955C15.6192 14.8955 15.1315 14.4087 15.1314 13.8079C15.1314 13.2071 15.6191 12.72 16.2207 12.72Z" fill="url(#paint0_linear_15369_3000)"/>
<defs>
<linearGradient id="paint0_linear_15369_3000" x1="16.2205" y1="13.7487" x2="16.2205" y2="22.7539" gradientUnits="userSpaceOnUse">
<stop stop-color="#FE7109"/>
<stop offset="1" stop-color="#003BFF"/>
</linearGradient>
</defs>
</svg>
