<svg width="32" height="32" viewBox="0 0 32 32" fill="none" xmlns="http://www.w3.org/2000/svg">
<rect width="32" height="32" rx="4" fill="#0054FA"/>
<path d="M8.46189 9.96861H10.713L12.1659 22.0224H10.2556L10.0404 19.3946H9.02691L8.81167 22.0224H7L8.45293 9.96861H8.46189ZM9.35875 15.3318L9.16144 17.8072H9.9148L9.69956 15.3318L9.55605 13.2422H9.51121L9.36772 15.3318H9.35875ZM16.157 22.0224H14.2197V9.96861H16.7668C18.148 9.96861 19 10.7848 19 12.2466V15.2152C19 16.6682 18.157 17.4843 16.7668 17.4843H16.1659V22.0314L16.157 22.0224ZM16.1749 16.0314H16.5964C16.9193 16.0314 17.0538 15.7354 17.0538 15.2152V12.2466C17.0538 11.7085 16.9282 11.4126 16.5964 11.4126H16.1749V16.0224V16.0314ZM21.2242 22.0224V9.96861H25V11.565H23.1614V15.1345H24.8027V16.7309H23.1614V20.426H25V22.0224H21.2242Z" fill="white"/>
</svg>
