<svg width="32" height="32" viewBox="0 0 32 32" fill="none" xmlns="http://www.w3.org/2000/svg">
<rect width="32" height="32" rx="4" fill="#081318"/>
<path d="M21.4689 12.6911H19.7066C19.5012 12.6911 19.3059 12.6029 19.17 12.4496L18.4551 11.642C18.3487 11.5214 18.1953 11.4529 18.0348 11.4529C17.8744 11.4529 17.721 11.5218 17.6146 11.642L17.0016 12.3348C16.8008 12.5614 16.5128 12.6915 16.2102 12.6915H6.56346C6.28872 13.4745 6.10958 14.3017 6.03809 15.1596H15.1449C15.3049 15.1596 15.4583 15.0943 15.5688 14.9788L16.4167 14.0939C16.5227 13.9833 16.669 13.9209 16.822 13.9209H16.8569C17.0178 13.9209 17.1707 13.9899 17.2771 14.1105L17.9916 14.9181C18.1275 15.0719 18.3229 15.1596 18.5282 15.1596H25.9616C25.8901 14.3013 25.711 13.4741 25.4362 12.6915H21.4685L21.4689 12.6911Z" fill="white"/>
<path d="M11.5487 20.3493C11.7087 20.3493 11.8621 20.284 11.9726 20.1685L12.8205 19.2836C12.9265 19.173 13.0728 19.1107 13.2258 19.1107H13.2607C13.4216 19.1107 13.5745 19.1797 13.6809 19.2998L14.3954 20.1074C14.5313 20.2612 14.7267 20.3489 14.932 20.3489H25.0056C25.383 19.5691 25.6594 18.7324 25.824 17.8559H16.1549C15.9495 17.8559 15.7542 17.7677 15.6183 17.6144L14.9038 16.8068C14.7974 16.6862 14.644 16.6176 14.4835 16.6176C14.3231 16.6176 14.1697 16.6866 14.0633 16.8068L13.4503 17.4996C13.2495 17.7262 12.9615 17.8563 12.6584 17.8563H6.1748C6.3394 18.7329 6.61622 19.5696 6.99321 20.3493H11.5483H11.5487Z" fill="white"/>
<path d="M18.6953 9.99352C18.8553 9.99352 19.0087 9.92826 19.1192 9.81271L19.9671 8.9278C20.0731 8.81724 20.2194 8.75489 20.3724 8.75489H20.4073C20.5682 8.75489 20.7211 8.82389 20.8275 8.94443L21.542 9.75203C21.6779 9.90581 21.8733 9.99352 22.0786 9.99352H23.9943C22.1701 7.56864 19.2684 6 15.9998 6C12.7312 6 9.82956 7.56864 8.00488 9.99352H18.6953Z" fill="white"/>
<path d="M14.8464 22.8199H12.2266C12.0213 22.8199 11.8259 22.7318 11.69 22.5784L10.9755 21.7708C10.8691 21.6503 10.7157 21.5817 10.5553 21.5817C10.3948 21.5817 10.2415 21.6507 10.1351 21.7708L9.52199 22.4637C9.32123 22.6902 9.03319 22.8203 8.73019 22.8203H8.68945C10.5145 24.7759 13.1136 26 15.9994 26C18.8852 26 21.4838 24.7759 23.3093 22.8203H14.8464V22.8199Z" fill="white"/>
</svg>
