<svg width="32" height="32" viewBox="0 0 32 32" fill="none" xmlns="http://www.w3.org/2000/svg">
<rect width="32" height="32" rx="4" fill="#2F374A"/>
<path d="M18.6313 15.1919L20.4253 12.1478L25.2608 19.6793L25.2631 21.1248L25.2474 11.1787C25.2359 10.9356 25.1068 10.7132 24.9008 10.582L16.195 5.57428C15.9915 5.47415 15.7331 5.4753 15.5299 5.57745C15.5024 5.59113 15.4765 5.60613 15.452 5.62248L15.4216 5.64155L6.9713 10.5384L6.93855 10.5533C6.89638 10.5727 6.85371 10.5973 6.81376 10.626C6.65351 10.7408 6.54714 10.9108 6.51272 11.1013C6.50754 11.1302 6.50371 11.1596 6.50195 11.1894L6.51524 19.2944L11.0193 12.3133C11.5864 11.3876 12.8219 11.0895 13.9688 11.1057L15.3149 11.1412L7.38334 23.8612L8.31831 24.3994L16.3448 11.1541L19.8926 11.1412L11.8868 24.7208L15.223 26.6398L15.6216 26.869C15.7903 26.9375 15.9891 26.941 16.1591 26.8796L24.9872 21.7635L23.2994 22.7416L18.6313 15.1919ZM19.3157 25.0502L15.9461 19.7616L18.0031 16.2711L22.4285 23.2463L19.3157 25.0502Z" fill="#2D374B"/>
<path d="M15.9463 19.7639L19.3159 25.0526L22.4287 23.2487L18.0032 16.2734L15.9463 19.7639Z" fill="#28A0F0"/>
<path d="M25.2636 21.1254L25.2613 19.68L20.4258 12.1484L18.6318 15.1926L23.2999 22.7422L24.9877 21.7641C25.1532 21.6296 25.2534 21.4323 25.2639 21.2194L25.2636 21.1254Z" fill="#28A0F0"/>
<path d="M5 22.4882L7.38342 23.8616L15.315 11.1416L13.9688 11.1061C12.8219 11.0899 11.5864 11.3881 11.0193 12.3137L6.51527 19.2948L5 21.623V22.4882Z" fill="white"/>
<path d="M19.8927 11.1406L16.3449 11.1535L8.31836 24.3988L11.1239 26.0141L11.8868 24.7202L19.8927 11.1406Z" fill="white"/>
<path d="M26.7583 11.124C26.7286 10.382 26.3269 9.70279 25.6976 9.30735L16.8777 4.23524C16.2553 3.92182 15.4777 3.92142 14.8541 4.23504C14.7804 4.27222 6.27697 9.20385 6.27697 9.20385C6.15928 9.26031 6.04592 9.32753 5.9393 9.40386C5.37757 9.80644 5.03517 10.4321 5 11.1194V21.6236L6.51527 19.2955L6.50204 11.1904C6.5038 11.1607 6.50752 11.1316 6.5128 11.1028C6.54707 10.9121 6.65354 10.742 6.81385 10.627C6.85385 10.5984 15.5025 5.59216 15.53 5.57843C15.7333 5.47634 15.9917 5.47513 16.1952 5.57526L24.901 10.5829C25.1069 10.714 25.236 10.9364 25.2475 11.1796V21.2197C25.237 21.4326 25.1528 21.6299 24.9873 21.7644L23.2995 22.7425L22.4286 23.2472L19.3158 25.0511L16.1592 26.8805C15.9891 26.9419 15.7903 26.9384 15.6217 26.8699L11.8869 24.7217L11.1239 26.0157L14.4803 27.9482C14.5913 28.0113 14.6902 28.0673 14.7713 28.1128C14.897 28.1832 14.9826 28.2304 15.0129 28.2451C15.2514 28.361 15.5947 28.4284 15.904 28.4284C16.1875 28.4284 16.4641 28.3763 16.7257 28.2738L25.8946 22.9639C26.4208 22.5561 26.7304 21.9412 26.7583 21.2751V11.124Z" fill="#96BEDC"/>
</svg>