<svg width="32" height="32" viewBox="0 0 32 32" fill="none" xmlns="http://www.w3.org/2000/svg">
<rect width="32" height="32" rx="4" fill="url(#paint0_linear_13530_5298)"/>
<path d="M15.9993 8C18.2886 8 20.3236 9.98314 21.7298 13.5848C22.4611 15.4577 22.999 17.6834 23.318 20.1045C23.3467 20.3204 23.3708 20.5404 23.396 20.7594C23.4042 20.7727 23.4088 20.7855 23.4073 20.7958C23.4073 20.7958 23.5944 21.9661 23.6344 23.9995H23.6134C23.3355 23.7713 20.0579 21.1963 14.6249 21.942C14.707 21.0225 14.8198 20.1281 14.9654 19.2706C14.9731 19.227 14.9813 19.1845 14.989 19.1409C17.1199 19.0768 18.9851 19.324 20.4154 19.6486C20.4102 19.6147 20.4056 19.5799 20.4 19.546C20.1061 17.7152 19.6723 16.0392 19.1128 14.6069C18.1984 12.2648 17.005 10.8098 15.9993 10.8098C14.9937 10.8098 13.8003 12.2653 12.8859 14.6069C12.6643 15.1736 12.4628 15.7777 12.2823 16.4146C12.0284 17.3075 11.8151 18.2649 11.6443 19.2706C11.392 20.7563 11.2346 22.3492 11.1766 24H8.36523C8.49498 20.083 9.15911 16.4274 10.2689 13.5848C11.6751 9.98314 13.7105 8 15.9993 8Z" fill="url(#paint1_linear_13530_5298)"/>
<defs>
<linearGradient id="paint0_linear_13530_5298" x1="16" y1="0" x2="16" y2="32" gradientUnits="userSpaceOnUse">
<stop offset="0.475962" stop-color="#021431"/>
<stop offset="1" stop-color="#20456B"/>
</linearGradient>
<linearGradient id="paint1_linear_13530_5298" x1="14.5524" y1="8" x2="18.1727" y2="36.9107" gradientUnits="userSpaceOnUse">
<stop offset="0.288462" stop-color="white"/>
<stop offset="1" stop-color="white" stop-opacity="0"/>
</linearGradient>
</defs>
</svg>
