<svg width="32" height="32" viewBox="0 0 32 32" fill="none" xmlns="http://www.w3.org/2000/svg">
<g clip-path="url(#clip0_5325_221832)">
<rect width="32" height="32" rx="4" fill="#004DE5"/>
<path d="M32 0H0V32H32V0Z" fill="#EFF8FF"/>
<g clip-path="url(#clip1_5325_221832)">
<path d="M4.04048 16.7994C4.48047 23.3994 10.2005 28.3994 16.8405 27.9594C20.1205 27.7594 23.0005 26.1994 25.0005 23.9194L25.0405 23.8794C27.0405 21.5594 28.1605 18.4794 27.9605 15.1994C27.9205 14.8794 27.9205 14.5594 27.8405 14.2794V14.2394C27.8005 14.0394 27.7605 13.8394 27.7205 13.6394C27.6805 13.4394 27.6405 13.2794 27.6005 13.0794C26.2405 7.55938 21.0805 3.63938 15.2005 4.03938C8.56048 4.47938 3.56047 10.1994 4.04048 16.7994ZM6.64047 16.6394C6.60048 15.8394 6.64048 15.0394 6.80048 14.2794C7.68048 16.3994 9.40048 17.9594 10.9205 18.7994C10.6005 22.3994 11.8405 23.9194 13.2405 24.1594C14.3205 24.3594 15.3605 23.6394 15.5605 22.5594C15.5605 22.5194 15.5605 22.4794 15.5605 22.4394C15.7205 21.3594 14.9205 20.3194 13.8405 20.1994C13.7605 20.1994 13.6405 20.1994 13.5605 20.1994C13.5605 20.0794 13.5605 19.9594 13.5605 19.7994C14.8405 20.1194 16.0405 20.1994 17.1205 20.0794C17.5205 20.0394 17.9205 19.9994 18.3605 19.9194C18.2405 21.1194 17.7605 22.5194 16.8805 23.5194C16.0405 24.4794 14.7605 25.0394 13.3605 24.8794C13.0805 24.8394 12.8005 24.7994 12.5605 24.7194H12.5205C9.28048 23.3594 6.88048 20.3194 6.64047 16.6394ZM15.0005 14.7994C15.3205 14.3594 15.6405 13.9594 16.0405 13.5994C16.6005 14.1994 17.1205 14.8794 17.4805 15.6394C17.4805 15.6794 17.5205 15.7194 17.5205 15.7594C17.7605 16.2394 17.9205 16.7594 18.0405 17.2394C17.2005 17.4394 16.3605 17.5194 15.5605 17.4794H15.4405C14.9205 17.4394 14.4005 17.3594 13.8805 17.1994C14.1605 16.3594 14.5205 15.5194 15.0005 14.7994ZM19.1205 24.8394C20.5205 22.9994 21.0005 20.7594 21.0005 19.0394C24.2805 17.5194 24.9605 15.6794 24.4805 14.3594C24.4805 14.3194 24.4405 14.2794 24.4405 14.2394C24.0005 13.1994 22.8405 12.7194 21.8005 13.1594C20.7605 13.5994 20.2805 14.7594 20.7205 15.7994C20.7605 15.8794 20.8005 15.9594 20.8405 16.0394C20.7205 16.1194 20.6405 16.1594 20.5205 16.2394C20.1605 14.9594 19.6005 13.9194 19.0005 12.9994C18.7605 12.6794 18.5205 12.3194 18.2405 12.0394C19.3605 11.5594 20.7605 11.2794 22.0805 11.5194C23.3605 11.7594 24.4405 12.5994 25.0405 13.8794C25.1605 14.1194 25.2405 14.3994 25.2805 14.6394C25.3205 14.8794 25.3205 15.1194 25.3605 15.3194C25.6405 19.6794 23.0005 23.4794 19.1205 24.8394ZM15.3605 6.63938C17.9205 6.47938 20.2805 7.31938 22.1205 8.87938C19.8405 8.55938 17.6405 9.27938 16.1605 10.1594C13.2005 8.07938 11.2805 8.39938 10.3605 9.47938C9.64048 10.3194 9.72048 11.5994 10.5605 12.3194C10.6005 12.3594 10.6405 12.3594 10.6405 12.3994C11.5205 13.0794 12.7605 12.9194 13.4405 12.0394C13.4805 11.9594 13.5605 11.8794 13.6005 11.7994C13.7205 11.8394 13.8405 11.9194 13.9605 11.9994C13.1205 12.8794 12.4405 13.8394 11.9205 14.9594C11.7205 15.3194 11.5605 15.7194 11.4405 16.0794C10.4405 15.3594 9.48048 14.2794 9.08048 12.9994C8.68048 11.7594 8.84048 10.3994 9.64047 9.27938C9.80048 9.07938 10.0005 8.83938 10.2005 8.67938C11.6805 7.43938 13.4805 6.75938 15.3605 6.63938Z" fill="url(#paint0_linear_5325_221832)"/>
<path opacity="0.9" d="M13.1999 24.1595C13.4399 24.1995 13.6399 24.1995 13.8799 24.1595C12.7199 23.5195 11.8799 21.7995 12.3199 18.3595C12.4799 17.2395 12.7999 16.1595 13.2799 15.1595C13.7199 14.2395 14.2799 13.3995 14.9199 12.5995C14.5999 12.3595 14.2799 12.1595 13.9199 11.9595C13.0799 12.8395 12.3999 13.7995 11.8799 14.9195C11.3999 15.9195 11.0399 16.9995 10.9199 18.1195C10.4399 22.1995 11.7199 23.8795 13.1999 24.1595Z" fill="url(#paint1_radial_5325_221832)"/>
<path opacity="0.8" d="M12.3201 18.3602C11.8801 21.8002 12.7201 23.5202 13.8801 24.1602C13.9201 24.1602 13.9601 24.1602 14.0001 24.1202C12.8801 23.4802 12.0801 21.7202 12.5201 18.3602C12.6801 17.2402 13.0001 16.1602 13.4801 15.1602C13.8801 14.2802 14.4401 13.4402 15.0801 12.6802C15.0401 12.6402 15.0001 12.6402 14.9601 12.6002C14.2801 13.3602 13.7201 14.2402 13.3201 15.1602C12.8001 16.1602 12.4801 17.2402 12.3201 18.3602Z" fill="white"/>
<path opacity="0.5" d="M16.6804 10.5608C16.8004 10.6408 16.8804 10.7208 17.0004 10.8008C18.6804 10.0808 21.0404 9.64078 23.3604 10.2008C23.0004 9.72078 22.5604 9.28078 22.0804 8.88078C19.8004 8.56078 17.6004 9.28078 16.1204 10.1608C16.3204 10.3208 16.5204 10.4408 16.6804 10.5608Z" fill="url(#paint2_radial_5325_221832)"/>
<path opacity="0.6" d="M16.9996 10.8409C17.0396 10.8809 17.1196 10.9209 17.1596 10.9609C18.8796 10.2809 21.2396 9.88094 23.5596 10.4409C23.5196 10.3609 23.4396 10.2809 23.3996 10.2009C21.0396 9.68094 18.7196 10.1209 16.9996 10.8409Z" fill="url(#paint3_linear_5325_221832)"/>
<path opacity="0.9" d="M24.4801 14.3606C24.4801 14.3206 24.4401 14.2806 24.4401 14.2406C24.3601 14.0406 24.2801 13.8806 24.1601 13.7606C24.2001 15.0806 23.1201 16.6806 19.9201 18.0006C18.8801 18.4406 17.7601 18.6806 16.6401 18.7606C15.6401 18.8406 14.6001 18.8006 13.6001 18.6006C13.5601 19.0406 13.5201 19.4406 13.5201 19.8006C14.6801 20.0806 15.8801 20.2006 17.0801 20.0806C18.2001 20.0006 19.3201 19.7606 20.3601 19.3206C24.1601 17.7206 24.9601 15.7606 24.4801 14.3606Z" fill="url(#paint4_radial_5325_221832)"/>
<path opacity="0.8" d="M19.88 17.9992C23.08 16.6792 24.16 15.0792 24.12 13.7592C24.08 13.7192 24.08 13.6792 24.04 13.6392C24.04 14.9192 22.96 16.5192 19.8 17.8392C18.76 18.2792 17.64 18.5192 16.52 18.5992C15.56 18.6792 14.56 18.6392 13.6 18.4392C13.6 18.4792 13.6 18.5192 13.6 18.5592C14.6 18.7592 15.6 18.7992 16.64 18.7192C17.72 18.6792 18.84 18.4392 19.88 17.9992Z" fill="white"/>
<path opacity="0.4" d="M10.96 18.1208C10.96 18.0008 11 17.8408 11.04 17.7208C9.60004 16.6008 8.04004 14.8008 7.32004 12.5208C7.08004 13.0808 6.92004 13.6808 6.80004 14.2808C7.68004 16.4008 9.40004 17.9208 10.92 18.8008C10.92 18.5608 10.92 18.3608 10.96 18.1208Z" fill="url(#paint5_radial_5325_221832)"/>
<path opacity="0.5" d="M11.0401 17.7207C11.0401 17.6407 11.0801 17.6007 11.0801 17.5207C9.64008 16.4007 8.12008 14.5607 7.44008 12.2407C7.40008 12.3207 7.36008 12.4007 7.32008 12.5207C8.00008 14.8007 9.56008 16.6007 11.0401 17.7207Z" fill="url(#paint6_linear_5325_221832)"/>
<path opacity="0.9" d="M10.3595 9.48078C10.1995 9.64078 10.0795 9.84078 9.99953 10.0808C11.1195 9.40078 13.0395 9.56078 15.7995 11.6408C16.6795 12.3208 17.4795 13.1608 18.0795 14.0808C18.6795 14.9208 19.1195 15.8408 19.4395 16.8008C19.8395 16.6408 20.1995 16.4408 20.5195 16.2808C20.1995 15.1208 19.6795 14.0408 18.9595 13.0408C18.3595 12.1208 17.5595 11.2808 16.6795 10.6008C13.3995 8.08078 11.3195 8.36078 10.3595 9.48078Z" fill="url(#paint7_radial_5325_221832)"/>
<path opacity="0.8" d="M15.8004 11.6398C13.0404 9.55984 11.1204 9.39984 10.0004 10.0798C10.0004 10.1198 9.96043 10.1598 9.96043 10.1998C11.0804 9.55984 13.0004 9.71984 15.7204 11.7998C16.6004 12.4798 17.4004 13.3198 18.0004 14.2398C18.5604 15.0398 19.0004 15.9198 19.3204 16.8398C19.3604 16.8398 19.4004 16.7998 19.4404 16.7998C19.1204 15.8398 18.6404 14.9198 18.0804 14.0798C17.4804 13.1598 16.7204 12.3198 15.8004 11.6398Z" fill="white"/>
<path opacity="0.3" d="M20.3597 19.3203C20.2397 19.3603 20.1197 19.4003 19.9997 19.4803C19.7597 21.2803 18.9597 23.5603 17.3597 25.3203C17.9597 25.2403 18.5597 25.0803 19.1597 24.8803C20.5597 23.0803 21.0397 20.8003 20.9997 19.0803C20.7597 19.1203 20.5597 19.2403 20.3597 19.3203Z" fill="url(#paint8_radial_5325_221832)"/>
<path opacity="0.4" d="M19.96 19.4403C19.88 19.4803 19.84 19.4803 19.76 19.5203C19.48 21.3603 18.68 23.6003 17 25.3203C17.08 25.3203 17.2 25.2803 17.28 25.2803C18.96 23.5203 19.76 21.2803 19.96 19.4403Z" fill="url(#paint9_linear_5325_221832)"/>
<path opacity="0.4" d="M16.8 27.9606C20.12 27.7606 23 26.2006 25 23.9206L25.04 23.8806C24.64 23.4806 23.36 22.7206 22.84 22.4006C21.8 23.5206 20.52 24.3606 19.08 24.8806C18.96 25.0006 18.88 25.1606 18.76 25.2806C17.4 26.8006 15.56 27.6006 13.4 27.6006C13.16 27.6006 12.68 27.5606 12.68 27.5606C14.04 27.9206 15.44 28.0806 16.8 27.9606Z" fill="url(#paint10_linear_5325_221832)"/>
<path opacity="0.4" d="M15.3597 6.64008C17.9197 6.48008 20.2797 7.32008 22.1197 8.88008C22.2797 8.92008 22.4397 8.92008 22.6397 8.96008C24.6397 9.36008 26.2797 10.5601 27.3597 12.4401C27.4797 12.6401 27.5997 12.8401 27.6797 13.0801C26.2397 7.56008 21.0797 3.64008 15.1997 4.04008C15.1597 4.64008 15.3197 6.04008 15.3597 6.64008Z" fill="url(#paint11_linear_5325_221832)"/>
<path opacity="0.4" d="M4.03969 16.8003C4.39969 16.8403 6.19969 16.6803 6.63969 16.6403C6.59969 15.8403 6.63969 15.0403 6.79969 14.2803C6.71969 14.1203 6.67969 13.9603 6.63969 13.8003C5.99969 11.8803 6.19969 9.84027 7.27969 8.00028C7.39969 7.80027 7.51969 7.60028 7.67969 7.40028C5.19969 9.76027 3.79969 13.1603 4.03969 16.8003Z" fill="url(#paint12_linear_5325_221832)"/>
<path opacity="0.5" d="M13.3202 24.8799C13.0402 24.8399 12.7602 24.7999 12.5202 24.7199H12.4802C11.4402 24.2799 10.5202 23.7199 9.68023 22.9599C9.28023 23.3999 8.52023 23.9199 8.52023 23.9199C8.52023 23.9199 9.68023 25.1199 11.4402 25.4799C12.6802 25.7199 15.4802 25.9999 17.2402 22.9599C17.1202 23.1599 16.9602 23.3599 16.8002 23.5199C15.9602 24.4799 14.6802 25.0399 13.3202 24.8799Z" fill="url(#paint13_linear_5325_221832)"/>
<path opacity="0.5" d="M9.64016 9.24062C9.80015 9.04062 10.0002 8.80062 10.2002 8.64062C10.2002 8.64062 10.2002 8.64062 10.2402 8.60063C11.1202 7.92063 12.1202 7.40063 13.1602 7.08063C12.9602 6.52063 12.9202 5.60063 12.9202 5.60063C12.9202 5.60063 11.3202 6.00063 10.1202 7.36063C9.28016 8.32063 7.64016 10.6006 9.36016 13.6406C9.36016 13.6406 9.36016 13.6406 9.36016 13.6006C9.24016 13.4006 9.16016 13.1606 9.08016 12.9606C8.68016 11.7606 8.84016 10.3606 9.64016 9.24062Z" fill="url(#paint14_linear_5325_221832)"/>
<path opacity="0.5" d="M25.0403 13.8795C25.1603 14.1195 25.2403 14.3995 25.2803 14.6395V14.6795C25.4403 15.7995 25.4003 16.9195 25.1603 17.9995C25.7603 18.1195 26.5603 18.5195 26.5603 18.5195C26.5603 18.5195 27.0003 16.9195 26.4403 15.1995C26.0403 13.9995 24.8403 11.4395 21.3603 11.3995C21.3603 11.3995 21.3603 11.3995 21.4003 11.3995C21.6403 11.3995 21.8803 11.4395 22.1203 11.4795C23.3603 11.7995 24.4803 12.5995 25.0403 13.8795Z" fill="url(#paint15_linear_5325_221832)"/>
<path opacity="0.6" d="M13.7998 20.1999C13.7198 20.1999 13.5998 20.1999 13.5198 20.1999C13.5198 20.1999 13.5998 21.4399 13.7198 22.0799C13.8798 22.7199 14.1198 23.1599 14.3598 23.3999C14.5198 23.5599 15.0798 23.7999 15.5198 22.4799C15.6798 21.3599 14.9198 20.3199 13.7998 20.1999Z" fill="url(#paint16_linear_5325_221832)"/>
<path opacity="0.5" d="M20.7197 15.7991C20.7597 15.8791 20.7997 15.9591 20.8397 16.0391C20.8397 16.0391 21.8797 15.3591 22.3597 14.9191C22.8397 14.4791 23.0797 14.0391 23.1597 13.7191C23.1997 13.4791 23.1197 12.8791 21.7597 13.1591C20.7597 13.5991 20.2797 14.7591 20.7197 15.7991Z" fill="url(#paint17_linear_5325_221832)"/>
<path opacity="0.6" d="M13.4796 12.0006C13.5196 11.9206 13.5996 11.8406 13.6396 11.7606C13.6396 11.7606 12.5196 11.2006 11.8796 11.0006C11.2396 10.8006 10.7596 10.8006 10.4396 10.8806C10.1996 10.9606 9.71965 11.3206 10.6396 12.3606C11.5196 13.0806 12.7996 12.8806 13.4796 12.0006Z" fill="url(#paint18_linear_5325_221832)"/>
<path opacity="0.3" d="M13.88 17.1992C14.12 16.3592 14.48 15.5992 14.92 14.9192C14.96 14.8792 14.96 14.8392 15 14.7992C15.32 14.3592 15.64 13.9592 16.04 13.5992C15.76 13.3192 15.48 13.0392 15.16 12.7592C14.8 12.4792 14.4 12.1992 14 11.9592C13.16 12.8392 12.48 13.7992 11.96 14.9192C11.76 15.2792 11.64 15.6792 11.48 16.0392C11.92 16.3592 12.32 16.5992 12.72 16.7592C13.08 16.9192 13.48 17.0792 13.88 17.1992Z" fill="url(#paint19_linear_5325_221832)"/>
<path opacity="0.3" d="M22.1203 8.88063C19.8403 8.56063 17.6403 9.28063 16.1603 10.1606C16.3603 10.2806 16.5203 10.4006 16.7203 10.5606C17.2803 11.0006 17.8003 11.4806 18.2803 12.0406C19.4003 11.5606 20.8003 11.2806 22.1203 11.5206C23.4003 11.7606 24.4803 12.6006 25.0803 13.8806C25.2003 14.1206 25.2803 14.4006 25.3203 14.6406C24.9603 12.3606 23.8003 10.3206 22.1203 8.88063Z" fill="url(#paint20_linear_5325_221832)"/>
<path opacity="0.3" d="M16.0405 13.6002C16.6005 14.2002 17.1205 14.8802 17.4805 15.6402C17.4805 15.6802 17.5205 15.7202 17.5205 15.7602C17.7605 16.2402 17.9205 16.7602 18.0405 17.2402C18.4405 17.1602 18.8405 17.0402 19.2005 16.8802C19.6405 16.7202 20.0805 16.4802 20.4805 16.2802C20.1205 15.0002 19.5605 13.9602 18.9605 13.0402C18.7205 12.7202 18.4805 12.3602 18.2005 12.0802C17.7205 12.2802 17.2805 12.5202 16.9605 12.8002C16.6405 13.0002 16.3205 13.2802 16.0405 13.6002Z" fill="url(#paint21_linear_5325_221832)"/>
<path opacity="0.3" d="M19.1196 24.8409C20.5196 23.0409 20.9996 20.7609 20.9596 19.0409C20.7596 19.1209 20.5596 19.2409 20.3596 19.3209C19.7196 19.6009 18.9996 19.8009 18.3196 19.9209C18.1996 21.1209 17.7196 22.5209 16.8396 23.5209C15.9996 24.4809 14.7196 25.0409 13.3196 24.8809C13.0396 24.8409 12.7596 24.8009 12.5196 24.7209H12.4796C13.7996 25.2409 15.2396 25.4809 16.6396 25.4009C17.5196 25.3209 18.3196 25.1209 19.1196 24.8409Z" fill="url(#paint22_linear_5325_221832)"/>
<path opacity="0.3" d="M6.80043 14.2808C7.64043 16.4008 9.36043 17.9208 10.8804 18.8008C10.8804 18.6008 10.9204 18.3608 10.9604 18.1208C11.0404 17.4008 11.2004 16.7208 11.4404 16.0408C10.4404 15.3208 9.48043 14.2408 9.08043 12.9608C8.68043 11.7208 8.84043 10.3608 9.64043 9.24078C9.80043 9.04078 10.0004 8.80078 10.2004 8.64078C8.44043 10.0008 7.20043 12.0008 6.80043 14.2808Z" fill="url(#paint23_linear_5325_221832)"/>
<path opacity="0.3" d="M18.3204 18.4798C18.2804 18.0798 18.2004 17.6398 18.0804 17.2398C17.2404 17.4398 16.4004 17.5198 15.6004 17.4798H15.4804C14.9604 17.4398 14.4404 17.3598 13.9204 17.1998C13.8004 17.5998 13.7204 17.9998 13.6404 18.3998C13.5604 18.9198 13.5604 19.3998 13.5604 19.7998C14.8404 20.1198 16.0404 20.1998 17.1204 20.0798C17.5204 20.0398 17.9204 19.9998 18.3604 19.9198C18.3604 19.3998 18.3604 18.9198 18.3204 18.4798Z" fill="url(#paint24_linear_5325_221832)"/>
</g>
</g>
<defs>
<linearGradient id="paint0_linear_5325_221832" x1="24.1901" y1="7.81022" x2="8.89048" y2="23.1118" gradientUnits="userSpaceOnUse">
<stop stop-color="#E6007A"/>
<stop offset="0.21" stop-color="#703AC2"/>
<stop offset="0.46" stop-color="#0070EB"/>
<stop offset="0.77" stop-color="#0297FB"/>
<stop offset="1" stop-color="#0AE2FF"/>
</linearGradient>
<radialGradient id="paint1_radial_5325_221832" cx="0" cy="0" r="1" gradientUnits="userSpaceOnUse" gradientTransform="translate(12.5799 18.4294) rotate(180) scale(4.5632)">
<stop stop-color="white"/>
<stop offset="1" stop-color="white" stop-opacity="0"/>
</radialGradient>
<radialGradient id="paint2_radial_5325_221832" cx="0" cy="0" r="1" gradientUnits="userSpaceOnUse" gradientTransform="translate(19.3257 9.96695) rotate(180) scale(2.65536)">
<stop stop-color="white"/>
<stop offset="1" stop-color="white" stop-opacity="0"/>
</radialGradient>
<linearGradient id="paint3_linear_5325_221832" x1="23.3079" y1="10.4153" x2="20.7487" y2="10.4505" gradientUnits="userSpaceOnUse">
<stop stop-color="white" stop-opacity="0"/>
<stop offset="1" stop-color="white"/>
</linearGradient>
<radialGradient id="paint4_radial_5325_221832" cx="0" cy="0" r="1" gradientUnits="userSpaceOnUse" gradientTransform="translate(19.8112 17.751) rotate(60) scale(4.56319)">
<stop stop-color="white"/>
<stop offset="1" stop-color="white" stop-opacity="0"/>
</radialGradient>
<radialGradient id="paint5_radial_5325_221832" cx="0" cy="0" r="1" gradientUnits="userSpaceOnUse" gradientTransform="translate(9.10879 16.1399) rotate(59.9999) scale(2.65535)">
<stop stop-color="white"/>
<stop offset="1" stop-color="white" stop-opacity="0"/>
</radialGradient>
<linearGradient id="paint6_linear_5325_221832" x1="7.51108" y1="12.4663" x2="8.82108" y2="14.6647" gradientUnits="userSpaceOnUse">
<stop stop-color="white" stop-opacity="0"/>
<stop offset="1" stop-color="white"/>
</linearGradient>
<radialGradient id="paint7_radial_5325_221832" cx="0" cy="0" r="1" gradientUnits="userSpaceOnUse" gradientTransform="translate(15.8263 12.0347) rotate(-60) scale(4.56319)">
<stop stop-color="white"/>
<stop offset="1" stop-color="white" stop-opacity="0"/>
</radialGradient>
<radialGradient id="paint8_radial_5325_221832" cx="0" cy="0" r="1" gradientUnits="userSpaceOnUse" gradientTransform="translate(19.567 21.8934) rotate(-59.9999) scale(2.65535)">
<stop stop-color="white"/>
<stop offset="1" stop-color="white" stop-opacity="0"/>
</radialGradient>
<linearGradient id="paint9_linear_5325_221832" x1="17.1897" y1="25.1242" x2="18.4373" y2="22.8894" gradientUnits="userSpaceOnUse">
<stop stop-color="white" stop-opacity="0"/>
<stop offset="1" stop-color="white"/>
</linearGradient>
<linearGradient id="paint10_linear_5325_221832" x1="16.6294" y1="26.2584" x2="20.5398" y2="25.1208" gradientUnits="userSpaceOnUse">
<stop stop-color="#231F20"/>
<stop offset="1" stop-color="white"/>
</linearGradient>
<linearGradient id="paint11_linear_5325_221832" x1="24.017" y1="11.3482" x2="20.7474" y2="7.9354" gradientUnits="userSpaceOnUse">
<stop stop-color="#231F20"/>
<stop offset="1" stop-color="white"/>
</linearGradient>
<linearGradient id="paint12_linear_5325_221832" x1="6.46985" y1="11.8627" x2="5.33225" y2="15.3211" gradientUnits="userSpaceOnUse">
<stop stop-color="#231F20"/>
<stop offset="1" stop-color="white"/>
</linearGradient>
<linearGradient id="paint13_linear_5325_221832" x1="14.8492" y1="24.2794" x2="9.60795" y2="23.0798" gradientUnits="userSpaceOnUse">
<stop stop-color="#231F20"/>
<stop offset="1" stop-color="white"/>
</linearGradient>
<linearGradient id="paint14_linear_5325_221832" x1="9.40584" y1="10.8643" x2="13.0678" y2="6.92434" gradientUnits="userSpaceOnUse">
<stop stop-color="#231F20"/>
<stop offset="1" stop-color="white"/>
</linearGradient>
<linearGradient id="paint15_linear_5325_221832" x1="23.7475" y1="12.8545" x2="25.3275" y2="17.9941" gradientUnits="userSpaceOnUse">
<stop stop-color="#231F20"/>
<stop offset="1" stop-color="white"/>
</linearGradient>
<linearGradient id="paint16_linear_5325_221832" x1="13.7035" y1="22.3469" x2="15.3607" y2="20.6873" gradientUnits="userSpaceOnUse">
<stop stop-color="#231F20"/>
<stop offset="1" stop-color="white"/>
</linearGradient>
<linearGradient id="paint17_linear_5325_221832" x1="22.6446" y1="14.8158" x2="20.3798" y2="14.2074" gradientUnits="userSpaceOnUse">
<stop stop-color="#231F20"/>
<stop offset="1" stop-color="white"/>
</linearGradient>
<linearGradient id="paint18_linear_5325_221832" x1="11.6548" y1="10.8391" x2="12.2616" y2="13.1031" gradientUnits="userSpaceOnUse">
<stop stop-color="#231F20"/>
<stop offset="1" stop-color="white"/>
</linearGradient>
<linearGradient id="paint19_linear_5325_221832" x1="15.1049" y1="12.8528" x2="14.1089" y2="14.2264" gradientUnits="userSpaceOnUse">
<stop stop-color="#231F20"/>
<stop offset="1" stop-color="white"/>
</linearGradient>
<linearGradient id="paint20_linear_5325_221832" x1="18.5294" y1="13.4491" x2="20.5194" y2="12.5003" gradientUnits="userSpaceOnUse">
<stop stop-color="#231F20"/>
<stop offset="1" stop-color="white"/>
</linearGradient>
<linearGradient id="paint21_linear_5325_221832" x1="19.2501" y1="16.7617" x2="18.6341" y2="15.4821" gradientUnits="userSpaceOnUse">
<stop stop-color="#231F20"/>
<stop offset="1" stop-color="white"/>
</linearGradient>
<linearGradient id="paint22_linear_5325_221832" x1="16.3878" y1="20.7121" x2="16.813" y2="22.1805" gradientUnits="userSpaceOnUse">
<stop stop-color="#231F20"/>
<stop offset="1" stop-color="white"/>
</linearGradient>
<linearGradient id="paint23_linear_5325_221832" x1="11.7909" y1="13.9875" x2="10.5589" y2="13.7039" gradientUnits="userSpaceOnUse">
<stop stop-color="#231F20"/>
<stop offset="1" stop-color="white"/>
</linearGradient>
<linearGradient id="paint24_linear_5325_221832" x1="13.7237" y1="18.1489" x2="15.2865" y2="18.4325" gradientUnits="userSpaceOnUse">
<stop stop-color="#231F20"/>
<stop offset="1" stop-color="white"/>
</linearGradient>
<clipPath id="clip0_5325_221832">
<rect width="32" height="32" rx="4" fill="white"/>
</clipPath>
<clipPath id="clip1_5325_221832">
<rect width="24" height="24" fill="white" transform="matrix(-1 0 0 -1 28 28)"/>
</clipPath>
</defs>
</svg>
