<svg width="32" height="32" viewBox="0 0 32 32" fill="none" xmlns="http://www.w3.org/2000/svg">
<rect width="32" height="32" rx="4" fill="#0075FF"/>
<path d="M25.9728 15.3217C25.5982 9.8111 20.8294 5.64905 15.3215 6.02384C12.577 6.21038 10.1678 7.48878 8.48585 9.4038L8.48073 9.40038C8.46875 9.41577 8.45848 9.43119 8.44822 9.44659C6.77822 11.3736 5.83885 13.9338 6.02535 16.6788C6.04247 16.9407 6.07327 17.1974 6.11092 17.4524C6.11092 17.4644 6.11434 17.4746 6.11604 17.4866C6.14171 17.6543 6.17081 17.8221 6.2033 17.9863C6.2033 17.9898 6.2033 17.9932 6.20502 17.9949C6.23582 18.1438 6.26833 18.2927 6.30596 18.4399C7.46094 23.0452 11.7745 26.3071 16.6784 25.9733C22.1862 25.5985 26.3493 20.8289 25.9746 15.3183L25.9728 15.3217ZM23.7964 15.4706C23.8425 16.1483 23.7998 16.8123 23.6784 17.4524C23.6784 17.449 23.675 17.4455 23.675 17.4421C22.9495 15.6708 21.5156 14.3907 20.2562 13.6839C20.5112 10.6822 19.4931 9.41577 18.3398 9.21041C18.309 9.20357 18.2765 9.19843 18.2457 9.19501C17.3303 9.07693 16.4936 9.72384 16.3772 10.6394C16.2592 11.555 16.906 12.3919 17.8214 12.5082C17.9018 12.5185 17.9805 12.5219 18.0575 12.5202C18.0626 12.6212 18.0661 12.729 18.0661 12.842C17.0001 12.5784 16.0042 12.5254 15.0957 12.6075C14.7552 12.6297 14.4164 12.6725 14.0776 12.7359C14.1905 11.7227 14.5721 10.5829 15.3096 9.75121C16.0231 8.94516 17.0839 8.4848 18.2406 8.60288C18.4596 8.62514 18.694 8.67989 18.9045 8.75005C18.9148 8.75347 18.925 8.75691 18.9336 8.75861C21.6131 9.85048 23.586 12.3953 23.7948 15.4706H23.7964ZM16.8273 16.9972C16.8273 16.9972 16.8273 16.9989 16.8255 17.0006C16.5877 17.3446 16.3037 17.6834 15.97 18.012C15.4704 17.4815 15.07 16.9082 14.7654 16.316C14.75 16.2835 14.7329 16.2544 14.7175 16.2219C14.7175 16.2219 14.7175 16.2202 14.7175 16.2185C14.5396 15.8403 14.3873 15.4244 14.2692 14.9709C14.9793 14.8032 15.6757 14.7416 16.3413 14.7741C16.3772 14.7758 16.4115 14.7775 16.4474 14.7792H16.4508C16.8683 14.8135 17.3029 14.8905 17.7529 15.0137C17.5425 15.7119 17.2482 16.3468 16.8871 16.9065C16.8683 16.9356 16.8495 16.9647 16.829 16.9955L16.8273 16.9972ZM13.412 8.62342C13.412 8.62342 13.4086 8.62856 13.4069 8.63025C12.2348 10.1431 11.8447 12.0239 11.8618 13.4683C9.13435 14.7484 8.54916 16.263 8.94613 17.3651C8.95641 17.3959 8.96838 17.425 8.98036 17.4541C9.33626 18.3047 10.315 18.7068 11.1654 18.3509C12.0158 17.9949 12.4179 17.016 12.062 16.1654C12.0312 16.0919 11.9935 16.0217 11.9542 15.9549C12.0397 15.8985 12.1321 15.842 12.2314 15.7838C12.5359 16.8397 12.9859 17.7314 13.5112 18.4775C13.7012 18.7599 13.9065 19.032 14.1306 19.2938C13.1964 19.7029 12.0192 19.9424 10.9292 19.72C9.87524 19.5043 8.94613 18.8164 8.46875 17.7553C8.37807 17.5534 8.3079 17.324 8.26343 17.1067C8.23604 16.9167 8.2138 16.7251 8.2001 16.53C7.95715 12.9481 10.1781 9.75977 13.412 8.62342ZM16.5295 23.7982C14.4027 23.9436 12.4144 23.218 10.9121 21.9276C12.808 22.1861 14.632 21.5837 15.8742 20.8461C18.3467 22.5694 19.9516 22.3195 20.7079 21.4245C20.7285 21.4005 20.749 21.3749 20.7678 21.3492C21.3273 20.615 21.1853 19.5676 20.4513 19.008C19.7172 18.4484 18.6701 18.5905 18.1106 19.3246C18.0626 19.388 18.0199 19.4564 17.9822 19.5249C17.8915 19.4787 17.7957 19.4273 17.6982 19.3708C18.4613 18.5785 19.0037 17.7416 19.387 16.9133C19.5376 16.607 19.6693 16.2921 19.784 15.9669C20.6053 16.5727 21.4026 17.4712 21.7551 18.5271C22.0957 19.5471 21.9655 20.6972 21.2846 21.6401C21.1562 21.8181 20.992 21.9944 20.826 22.1416C20.8243 22.1433 20.8209 22.1467 20.8191 22.1484C19.6283 23.0845 18.1533 23.6869 16.5312 23.7965L16.5295 23.7982Z" fill="white"/>
<path style="mix-blend-mode:multiply" opacity="0.4" d="M15.3216 6.02374C12.577 6.21028 10.1679 7.48867 8.48588 9.4037C8.4739 9.41739 8.46022 9.43279 8.44824 9.44649C8.77504 9.77165 9.84617 10.4117 10.2791 10.6787C11.1312 9.76309 12.2006 9.04774 13.4137 8.62332C13.4976 8.51378 13.5865 8.40598 13.6789 8.30158C14.8082 7.0266 16.3499 6.35403 18.1397 6.35403C18.3381 6.35403 18.7437 6.38655 18.7522 6.38655C17.6674 6.07508 16.5124 5.94159 15.3216 6.02374Z" fill="url(#paint0_linear_6599_2424)"/>
<path style="mix-blend-mode:multiply" opacity="0.4" d="M16.5292 23.7997C14.4024 23.9451 12.4141 23.2195 10.9118 21.9291C10.7715 21.9103 10.6312 21.8881 10.4909 21.859C8.82263 21.5184 7.46747 20.519 6.5743 18.9702C6.47505 18.7973 6.38609 18.6228 6.30566 18.4431C7.46064 23.0484 11.7742 26.3103 16.6764 25.9765C16.6986 25.4717 16.5498 24.2994 16.5275 23.7997H16.5292Z" fill="url(#paint1_linear_6599_2424)"/>
<path style="mix-blend-mode:multiply" opacity="0.4" d="M25.973 15.3217C25.6651 15.2909 24.1661 15.409 23.7966 15.4706C23.8428 16.1483 23.8 16.8123 23.6786 17.4524C23.7298 17.579 23.7794 17.7091 23.824 17.8409C24.3629 19.4564 24.1747 21.1284 23.2815 22.6789C23.1841 22.8483 23.0779 23.0109 22.9668 23.1667C22.965 23.1701 22.9616 23.1735 22.96 23.1752C22.96 23.1752 22.965 23.1718 22.9668 23.1684C24.9978 21.1917 26.1802 18.3714 25.973 15.3234V15.3217Z" fill="url(#paint2_linear_6599_2424)"/>
<path style="mix-blend-mode:multiply" opacity="0.5" d="M18.242 8.60108C18.4611 8.62333 18.6955 8.67811 18.9059 8.74827C18.9162 8.75169 18.9264 8.75511 18.935 8.75683C19.7974 9.10765 20.5862 9.6108 21.2672 10.232C21.2672 10.232 21.2706 10.2337 21.2723 10.2354C21.6008 9.86065 22.2321 9.44823 22.2321 9.44823C22.2321 9.44823 21.2655 8.45904 19.7854 8.151C18.7502 7.93536 16.4146 7.72829 14.9414 10.2354C14.9414 10.2354 14.9465 10.2303 14.9551 10.2218C15.0646 10.0575 15.1792 9.89661 15.311 9.74941C16.0245 8.94336 17.0854 8.483 18.242 8.60108Z" fill="url(#paint3_linear_6599_2424)"/>
<path style="mix-blend-mode:multiply" opacity="0.5" d="M21.2848 21.6418C21.1565 21.8198 20.9922 21.996 20.8262 22.1432C20.8194 22.1501 20.8108 22.1569 20.804 22.1638C20.0682 22.7354 19.2384 23.1666 18.3606 23.4456C18.3589 23.4456 18.3572 23.4456 18.3555 23.4473C18.5163 23.9196 18.5574 24.6726 18.5574 24.6726C18.5574 24.6726 19.8971 24.3304 20.9032 23.2026C21.6065 22.4136 22.9548 20.4935 21.5209 17.9641C21.5209 17.9641 21.5226 17.9726 21.5261 17.9829C21.6151 18.1592 21.6954 18.3405 21.757 18.5271C22.0976 19.5471 21.9676 20.6971 21.2865 21.6401L21.2848 21.6418Z" fill="url(#paint4_linear_6599_2424)"/>
<path style="mix-blend-mode:multiply" opacity="0.5" d="M8.47255 17.7587C8.38187 17.5568 8.31172 17.3275 8.26723 17.1101C8.26551 17.0999 8.26209 17.0896 8.26039 17.0793C8.13377 16.1569 8.17482 15.2225 8.37161 14.3223C8.37161 14.3206 8.37161 14.3189 8.37161 14.3172C7.88224 14.2213 7.2098 13.8791 7.2098 13.8791C7.2098 13.8791 6.83678 15.2122 7.31074 16.6463C7.6427 17.6509 8.62996 19.7781 11.5371 19.8004C11.5371 19.8004 11.5285 19.7987 11.5182 19.7953C11.3215 19.7833 11.1247 19.7628 10.9313 19.7234C9.87734 19.5078 8.94822 18.8198 8.47085 17.7587H8.47255Z" fill="url(#paint5_linear_6599_2424)"/>
<path style="mix-blend-mode:multiply" opacity="0.6" d="M17.8213 12.5064C17.9018 12.5166 17.9805 12.5201 18.0574 12.5184C18.0574 12.5184 18.0044 11.4795 17.8778 10.9456C17.7495 10.4134 17.5613 10.0591 17.3559 9.85888C17.2071 9.71512 16.7399 9.53714 16.3772 10.6358C16.2591 11.5514 16.9059 12.3883 17.8213 12.5047V12.5064Z" fill="url(#paint6_linear_6599_2424)"/>
<path style="mix-blend-mode:multiply" opacity="0.5" d="M12.0634 16.1687C12.0326 16.0951 11.9949 16.0249 11.9556 15.9582C11.9556 15.9582 11.0812 16.5229 10.6843 16.8994C10.2873 17.2759 10.0751 17.6165 10.005 17.8954C9.95533 18.0957 10.0341 18.5885 11.1668 18.3541C12.0172 17.9981 12.4193 17.0192 12.0634 16.1687Z" fill="url(#paint7_linear_6599_2424)"/>
<path style="mix-blend-mode:multiply" opacity="0.6" d="M18.1127 19.3227C18.0648 19.386 18.022 19.4544 17.9844 19.5229C17.9844 19.5229 18.91 19.9968 19.4354 20.1526C19.9606 20.3082 20.361 20.3219 20.6365 20.2432C20.835 20.1868 21.2217 19.8702 20.4534 19.0079C19.7194 18.4483 18.6722 18.5904 18.1127 19.3244V19.3227Z" fill="url(#paint8_linear_6599_2424)"/>
<path style="mix-blend-mode:multiply" opacity="0.3" d="M17.7529 15.0154C17.5424 15.7136 17.2481 16.3485 16.8871 16.9081C16.8683 16.9372 16.8495 16.9663 16.8289 16.9971C16.8289 16.9971 16.8289 16.9988 16.8272 17.0006C16.5894 17.3445 16.3053 17.6834 15.9717 18.012C16.201 18.255 16.4474 18.4912 16.7194 18.7154C17.0616 18.984 17.3953 19.2014 17.6981 19.3725C18.4613 18.5802 19.0037 17.7433 19.387 16.915C19.5375 16.6087 19.6693 16.2938 19.7839 15.9686C19.4314 15.7102 19.0755 15.5031 18.747 15.3628C18.4082 15.2173 18.0763 15.1043 17.7512 15.0154H17.7529Z" fill="url(#paint9_linear_6599_2424)"/>
<path style="mix-blend-mode:multiply" opacity="0.3" d="M10.9121 21.9293C12.808 22.1877 14.632 21.5853 15.8742 20.8477C15.7271 20.745 15.5765 20.6355 15.4225 20.5191C14.9434 20.1529 14.5122 19.7422 14.1289 19.2955C13.1947 19.7045 12.0175 19.9441 10.9275 19.7216C9.87353 19.506 8.94442 18.818 8.46704 17.7569C8.37636 17.555 8.30619 17.3257 8.26172 17.1083C8.53719 19.0422 9.51249 20.7296 10.9104 21.9293H10.9121Z" fill="url(#paint10_linear_6599_2424)"/>
<path style="mix-blend-mode:multiply" opacity="0.3" d="M15.972 18.012C15.4724 17.4814 15.072 16.9081 14.7675 16.316C14.7521 16.2835 14.7349 16.2544 14.7196 16.2219C14.7196 16.2219 14.7196 16.2202 14.7196 16.2184C14.5416 15.8402 14.3893 15.4244 14.2713 14.9709C13.9461 15.0479 13.6193 15.1437 13.2908 15.2669C12.887 15.4278 12.5328 15.6092 12.2334 15.7837C12.538 16.8397 12.988 17.7313 13.5133 18.4774C13.7032 18.7598 13.9085 19.0319 14.1327 19.2938C14.533 19.1192 14.8907 18.9121 15.1764 18.6982C15.4707 18.4774 15.7342 18.2464 15.9738 18.0102L15.972 18.012Z" fill="url(#paint11_linear_6599_2424)"/>
<path style="mix-blend-mode:multiply" opacity="0.3" d="M13.4069 8.63015C12.2349 10.143 11.8447 12.0238 11.8619 13.4682C12.0244 13.3912 12.1955 13.3159 12.3735 13.2406C12.9296 13.0078 13.501 12.8401 14.0777 12.7323C14.1906 11.7192 14.5722 10.5794 15.3096 9.74767C16.0232 8.94162 17.084 8.48126 18.2407 8.59934C18.4597 8.62159 18.6941 8.67636 18.9046 8.74653C18.9148 8.74995 18.9251 8.75337 18.9337 8.75509C17.8677 8.32039 16.6905 8.11503 15.4671 8.19889C14.7484 8.24852 14.0606 8.39398 13.4104 8.62331C13.4087 8.62501 13.4069 8.62843 13.4052 8.63015H13.4069Z" fill="url(#paint12_linear_6599_2424)"/>
<path style="mix-blend-mode:multiply" opacity="0.3" d="M23.6772 17.4388C22.9517 15.6676 21.5177 14.3874 20.2584 13.6806C20.243 13.8603 20.2242 14.0452 20.1985 14.2385C20.1215 14.8358 19.9812 15.4143 19.7861 15.9688C20.6074 16.5746 21.4048 17.473 21.7573 18.529C22.0978 19.549 21.9677 20.699 21.2867 21.642C21.1584 21.8199 20.9941 21.9962 20.8282 22.1434C20.8265 22.1451 20.823 22.1485 20.8213 22.1502C22.2894 20.9968 23.328 19.3333 23.6839 17.4508C23.6839 17.4474 23.6806 17.4439 23.6806 17.4405L23.6772 17.4388Z" fill="url(#paint13_linear_6599_2424)"/>
<path style="mix-blend-mode:multiply" opacity="0.3" d="M14.0724 13.9371C14.1169 14.3033 14.1836 14.6456 14.2692 14.9707C14.9793 14.803 15.6757 14.7414 16.3413 14.7739C16.3772 14.7756 16.4114 14.7773 16.4474 14.779H16.4508C16.8683 14.8133 17.3029 14.8903 17.7529 15.0135C17.8487 14.6935 17.9291 14.3615 17.9873 14.0158C18.0506 13.5845 18.0694 13.1858 18.0677 12.8384C17.0017 12.5748 16.0059 12.5218 15.0973 12.6039C14.7568 12.6262 14.418 12.6689 14.0793 12.7323C14.0313 13.1669 14.0296 13.5794 14.0741 13.9353L14.0724 13.9371Z" fill="url(#paint14_linear_6599_2424)"/>
<defs>
<linearGradient id="paint0_linear_6599_2424" x1="15.4756" y1="7.45102" x2="12.2176" y2="8.3988" gradientUnits="userSpaceOnUse">
<stop stop-color="#0070EB"/>
<stop offset="1" stop-color="white"/>
</linearGradient>
<linearGradient id="paint1_linear_6599_2424" x1="9.32054" y1="19.8755" x2="12.0451" y2="22.7193" gradientUnits="userSpaceOnUse">
<stop stop-color="#0070EB"/>
<stop offset="1" stop-color="white"/>
</linearGradient>
<linearGradient id="paint2_linear_6599_2424" x1="23.9404" y1="19.4478" x2="24.8886" y2="16.566" gradientUnits="userSpaceOnUse">
<stop stop-color="#0070EB"/>
<stop offset="1" stop-color="white"/>
</linearGradient>
<linearGradient id="paint3_linear_6599_2424" x1="16.9587" y1="9.10081" x2="21.3254" y2="10.0999" gradientUnits="userSpaceOnUse">
<stop stop-color="#0070EB"/>
<stop offset="1" stop-color="white"/>
</linearGradient>
<linearGradient id="paint4_linear_6599_2424" x1="21.4947" y1="20.2801" x2="18.443" y2="23.5628" gradientUnits="userSpaceOnUse">
<stop stop-color="#0070EB"/>
<stop offset="1" stop-color="white"/>
</linearGradient>
<linearGradient id="paint5_linear_6599_2424" x1="9.54572" y1="18.6205" x2="8.22881" y2="14.3377" gradientUnits="userSpaceOnUse">
<stop stop-color="#0070EB"/>
<stop offset="1" stop-color="white"/>
</linearGradient>
<linearGradient id="paint6_linear_6599_2424" x1="17.9137" y1="10.7111" x2="16.5326" y2="12.0937" gradientUnits="userSpaceOnUse">
<stop stop-color="#0070EB"/>
<stop offset="1" stop-color="white"/>
</linearGradient>
<linearGradient id="paint7_linear_6599_2424" x1="10.4635" y1="16.9837" x2="12.3507" y2="17.4906" gradientUnits="userSpaceOnUse">
<stop stop-color="#0070EB"/>
<stop offset="1" stop-color="white"/>
</linearGradient>
<linearGradient id="paint8_linear_6599_2424" x1="19.6199" y1="20.3007" x2="19.1145" y2="18.4145" gradientUnits="userSpaceOnUse">
<stop stop-color="#0070EB"/>
<stop offset="1" stop-color="white"/>
</linearGradient>
<linearGradient id="paint9_linear_6599_2424" x1="16.7468" y1="18.6229" x2="17.5769" y2="17.4782" gradientUnits="userSpaceOnUse">
<stop stop-color="#0070EB"/>
<stop offset="1" stop-color="white"/>
</linearGradient>
<linearGradient id="paint10_linear_6599_2424" x1="13.8928" y1="18.1266" x2="12.2347" y2="18.917" gradientUnits="userSpaceOnUse">
<stop stop-color="#0070EB"/>
<stop offset="1" stop-color="white"/>
</linearGradient>
<linearGradient id="paint11_linear_6599_2424" x1="13.2908" y1="15.3662" x2="13.8043" y2="16.4323" gradientUnits="userSpaceOnUse">
<stop stop-color="#0070EB"/>
<stop offset="1" stop-color="white"/>
</linearGradient>
<linearGradient id="paint12_linear_6599_2424" x1="15.6775" y1="12.0734" x2="15.3232" y2="10.8498" gradientUnits="userSpaceOnUse">
<stop stop-color="#0070EB"/>
<stop offset="1" stop-color="white"/>
</linearGradient>
<linearGradient id="paint13_linear_6599_2424" x1="19.5072" y1="17.6784" x2="20.5339" y2="17.9145" gradientUnits="userSpaceOnUse">
<stop stop-color="#0070EB"/>
<stop offset="1" stop-color="white"/>
</linearGradient>
<linearGradient id="paint14_linear_6599_2424" x1="17.8966" y1="14.2092" x2="16.5945" y2="13.9731" gradientUnits="userSpaceOnUse">
<stop stop-color="#0070EB"/>
<stop offset="1" stop-color="white"/>
</linearGradient>
</defs>
</svg>
