<svg width="32" height="32" viewBox="0 0 32 32" fill="none" xmlns="http://www.w3.org/2000/svg">
<g clip-path="url(#clip0_1460_57378)">
<rect width="32" height="32" rx="4" fill="#E84142"/>
<g clip-path="url(#clip1_1460_57378)">
<path d="M26 4H6V25H26V4Z" fill="white"/>
<path fill-rule="evenodd" clip-rule="evenodd" d="M31.9574 15.9787C31.9574 24.8036 24.8036 31.9574 15.9787 31.9574C7.15392 31.9574 0 24.8036 0 15.9787C0 7.15392 7.15392 0 15.9787 0C24.8036 0 31.9574 7.15392 31.9574 15.9787ZM11.4508 22.3374H8.34979C7.69817 22.3374 7.3763 22.3374 7.18004 22.2119C6.96806 22.0745 6.83853 21.8468 6.82283 21.5955C6.81104 21.364 6.972 21.0813 7.29387 20.5161L14.9507 7.01989C15.2765 6.44679 15.4413 6.16023 15.6494 6.05426C15.8731 5.94043 16.1401 5.94043 16.3638 6.05426C16.5719 6.16023 16.7367 6.44679 17.0625 7.01989L18.6366 9.76764L18.6446 9.78166C18.9965 10.3965 19.175 10.7083 19.2529 11.0355C19.3392 11.3927 19.3392 11.7696 19.2529 12.1268C19.1744 12.4565 18.9977 12.7705 18.6405 13.3947L14.6186 20.5043L14.6082 20.5225C14.254 21.1424 14.0744 21.4566 13.8257 21.6936C13.5548 21.9528 13.229 22.1411 12.8718 22.2472C12.546 22.3374 12.1809 22.3374 11.4508 22.3374ZM19.2819 22.3374H23.7253C24.3809 22.3374 24.7106 22.3374 24.907 22.2081C25.1189 22.0706 25.2523 21.8389 25.2643 21.5879C25.2755 21.3638 25.1181 21.0921 24.8096 20.5597C24.7989 20.5416 24.7883 20.5231 24.7774 20.5044L22.5517 16.6968L22.5264 16.6539C22.2136 16.125 22.0557 15.858 21.853 15.7547C21.6294 15.6409 21.3662 15.6409 21.1425 15.7547C20.9384 15.8607 20.7736 16.1394 20.4477 16.7007L18.2299 20.5083L18.2223 20.5214C17.8977 21.0819 17.7354 21.3619 17.7471 21.5917C17.7628 21.843 17.8923 22.0745 18.1043 22.2119C18.2967 22.3374 18.6264 22.3374 19.2819 22.3374Z" fill="#E84142"/>
</g>
</g>
<defs>
<clipPath id="clip0_1460_57378">
<rect width="32" height="32" rx="4" fill="white"/>
</clipPath>
<clipPath id="clip1_1460_57378">
<rect width="32" height="32" fill="white"/>
</clipPath>
</defs>
</svg>
