<svg width="32" height="32" viewBox="0 0 32 32" fill="none" xmlns="http://www.w3.org/2000/svg">
<g clip-path="url(#clip0_5337_221847)">
<rect width="32" height="32" rx="4" fill="#F47226"/>
<path d="M32 0H0V32H32V0Z" fill="#F47226"/>
<g clip-path="url(#clip1_5337_221847)">
<path d="M13.3321 14.5556C13.3142 14.4993 13.3018 14.4416 13.2921 14.3833C13.2877 14.3563 13.2826 14.3294 13.2767 14.3028C13.2641 14.2448 13.2499 14.1872 13.2347 14.1298C13.4873 13.7447 14.6951 11.7357 13.3207 10.4464C11.7953 9.01538 10.013 10.891 10.013 10.891L10.0185 10.8994C9.21742 10.6542 8.34885 10.6254 7.50376 10.8909C7.49332 10.88 5.71685 9.01959 4.19593 10.4464C2.67452 11.8736 4.3174 14.1827 4.32599 14.1948C4.30848 14.249 4.29436 14.3046 4.28504 14.3608C4.12046 15.3489 3 15.6539 3 17.375C3 19.0962 4.17216 20.5119 6.56466 20.5119H7.5464C7.55082 20.5182 7.95512 21.0951 8.78509 21.0945C9.5556 21.0939 10.0645 20.5168 10.0689 20.5119H11.0056C13.3981 20.5119 14.5703 19.1294 14.5703 17.375C14.5703 15.7722 13.5985 15.3975 13.3321 14.5556Z" fill="#F9F4D6"/>
<path d="M28.8783 12.0479C28.8783 12.0479 29.0807 10.1618 27.5428 9.75648V9H26.3519V9.73756C24.7296 10.099 24.9387 12.0479 24.9387 12.0479V12.3713C24.9387 12.3713 24.7295 14.3208 26.3524 14.6817L26.3523 16.3009C24.6423 16.6146 24.8584 18.6276 24.8584 18.6276V18.951C24.8584 18.951 24.6493 20.9 26.2716 21.2613V21.999H27.4625V21.2424C29.0005 20.8372 28.7981 18.951 28.7981 18.951C28.8653 18.951 28.9198 18.8961 28.9198 18.8285V18.7502C28.9198 18.6825 28.8653 18.6276 28.7981 18.6276C28.7981 18.6276 28.9987 16.7578 27.4825 16.3416V14.6817H27.4646C29.0874 14.3208 28.8783 12.3713 28.8783 12.3713C28.9455 12.3713 29 12.3164 29 12.2487V12.1705C29 12.1028 28.9456 12.0479 28.8783 12.0479ZM27.9078 18.6276H27.7988C27.7317 18.6276 27.6771 18.6825 27.6771 18.7502V18.8285C27.6771 18.8961 27.7317 18.951 27.7988 18.951H27.9078C27.9078 20.121 27.5219 20.3179 27.3921 20.351C27.3708 20.3565 27.3501 20.3405 27.3501 20.3184V19.9454C27.3501 19.7393 27.2196 19.6263 27.0891 19.5649C26.9242 19.4873 26.7322 19.4873 26.5673 19.5649C26.4368 19.6263 26.3063 19.7393 26.3063 19.9454V20.3184C26.3063 20.3402 26.286 20.3565 26.265 20.3512C26.1359 20.3186 25.7486 20.1233 25.7486 18.951V18.6276C25.7486 17.4576 26.1344 17.2608 26.2643 17.2276C26.2856 17.2222 26.3063 17.2381 26.3063 17.2603V17.6332C26.3063 17.8394 26.4368 17.9523 26.5673 18.0138C26.7322 18.0914 26.9242 18.0914 27.0891 18.0138C27.2196 17.9523 27.3501 17.8394 27.3501 17.6332V17.2603C27.3501 17.2384 27.3703 17.2221 27.3914 17.2274C27.5205 17.26 27.9078 17.4554 27.9078 18.6276ZM27.8791 12.3713H27.9881C27.9881 13.5436 27.6008 13.739 27.4717 13.7715C27.4506 13.7768 27.4303 13.7605 27.4303 13.7387V13.3657C27.4303 13.1596 27.2999 13.0466 27.1694 12.9852C27.0045 12.9076 26.8125 12.9076 26.6475 12.9852C26.5171 13.0466 26.3866 13.1596 26.3866 13.3657V13.7387C26.3866 13.7608 26.3659 13.7768 26.3446 13.7713C26.2147 13.7382 25.8289 13.5413 25.8289 12.3713V12.0479C25.8289 10.8756 26.2162 10.6802 26.3453 10.6477C26.3663 10.6424 26.3866 10.6588 26.3866 10.6806V11.0535C26.3866 11.2597 26.5171 11.3726 26.6475 11.4341C26.8125 11.5117 27.0045 11.5117 27.1694 11.4341C27.2999 11.3726 27.4303 11.2597 27.4303 11.0535V10.6806C27.4303 10.6584 27.451 10.6425 27.4724 10.6479C27.6022 10.681 27.9881 10.8779 27.9881 12.0479H27.8791C27.8119 12.0479 27.7574 12.1028 27.7574 12.1705V12.2487C27.7574 12.3164 27.8119 12.3713 27.8791 12.3713Z" fill="#F9F4D6"/>
<path d="M22.9936 15.3788C22.9936 15.3788 23.2038 13.4185 21.5662 13.0655V11.3043C23.1602 10.9281 22.9534 9 22.9534 9C22.9534 9 22.0594 9 22.0632 9C22.0632 10.1723 21.6758 10.3677 21.5468 10.4002C21.5257 10.4055 21.5054 10.3891 21.5054 10.3674V9.99441C21.5054 9.78826 21.3749 9.67531 21.2445 9.61387C21.0796 9.53626 20.8875 9.53626 20.7226 9.61387C20.5922 9.67531 20.4617 9.78826 20.4617 9.99441V10.3674C20.4617 10.3895 20.441 10.4054 20.4196 10.4C20.2898 10.3669 19.9039 10.17 19.9039 9C19.9077 9 19.0137 9 19.0137 9C19.0137 9 18.7991 11.0008 20.4921 11.3237V13.063C18.8426 13.4097 19.0538 15.3787 19.0538 15.3787V15.7021C19.0538 15.7021 18.8426 17.6711 20.4921 18.0178V19.6763C18.7991 19.9993 19.0137 22 19.0137 22C19.0137 22 19.9077 22 19.9039 22C19.9039 20.8277 20.2913 20.6323 20.4203 20.5998C20.4414 20.5945 20.4617 20.6108 20.4617 20.6326V21.0056C20.4617 21.2117 20.5922 21.3247 20.7226 21.3861C20.8875 21.4638 21.0796 21.4638 21.2445 21.3861C21.3749 21.3247 21.5054 21.2117 21.5054 21.0056V20.6326C21.5054 20.6105 21.5261 20.5946 21.5475 20.6C21.6773 20.6331 22.0632 20.83 22.0632 22C22.0594 22 22.9534 22 22.9534 22C22.9534 22 23.1602 20.0719 21.5662 19.6957V18.0154C23.2038 17.6623 22.9936 15.702 22.9936 15.702C23.0608 15.702 23.1153 15.6472 23.1153 15.5795V15.5012C23.1153 15.4335 23.0608 15.3788 22.9936 15.3788ZM21.9943 15.7022H22.1033C22.1033 16.8745 21.716 17.0699 21.5869 17.1024C21.5659 17.1077 21.5455 17.0914 21.5455 17.0696V16.6966C21.5455 16.4905 21.4151 16.3775 21.2846 16.3161C21.1197 16.2384 20.9277 16.2384 20.7628 16.3161C20.6323 16.3775 20.5019 16.4905 20.5019 16.6966V17.0696C20.5019 17.0917 20.4811 17.1076 20.4598 17.1022C20.33 17.0691 19.9441 16.8722 19.9441 15.7022V15.3788C19.9441 14.2065 20.3314 14.0111 20.4605 13.9786C20.4815 13.9733 20.5019 13.9897 20.5019 14.0115V14.3844C20.5019 14.5906 20.6323 14.7035 20.7628 14.7649C20.9277 14.8425 21.1197 14.8425 21.2846 14.7649C21.4151 14.7035 21.5455 14.5906 21.5455 14.3844V14.0115C21.5455 13.9893 21.5663 13.9734 21.5876 13.9788C21.7174 14.0119 22.1033 14.2088 22.1033 15.3788H21.9943C21.9271 15.3788 21.8726 15.4337 21.8726 15.5014V15.5796C21.8726 15.6473 21.9271 15.7022 21.9943 15.7022Z" fill="#F9F4D6"/>
</g>
</g>
<defs>
<clipPath id="clip0_5337_221847">
<rect width="32" height="32" rx="4" fill="white"/>
</clipPath>
<clipPath id="clip1_5337_221847">
<rect width="26" height="13" fill="white" transform="translate(3 9)"/>
</clipPath>
</defs>
</svg>
