<svg width="32" height="32" viewBox="0 0 32 32" fill="none" xmlns="http://www.w3.org/2000/svg">
<g clip-path="url(#clip0_5337_229707)">
<rect width="32" height="32" rx="4" fill="#D67534"/>
<path d="M32 0H0V32H32V0Z" fill="#F47226"/>
<path d="M5 6.47287V10.4845C5.91056 10.0045 6.81416 10.0629 7.7108 9.96502V6C6.72695 6 5.91056 6.00847 5 6.47287Z" fill="black"/>
<path d="M12.9463 6.91656C12.0905 6.60931 11.2277 6.34018 10.3584 6.16797V10.0869C11.2277 10.2445 12.09 10.4986 12.9463 10.7908V6.91656Z" fill="black"/>
<path d="M10.3591 14.0057V10.0868C9.48335 9.92821 8.60062 9.86751 7.71094 9.96491V13.9299C8.60062 13.817 9.48335 13.8622 10.3591 14.0057Z" fill="black"/>
<path d="M5 14.4962V18.5078C5.91056 17.9963 6.81416 18.0236 7.7108 17.8947V13.9297C6.78215 14.0059 5.91056 14.0003 5 14.4962Z" fill="black"/>
<path d="M10.3584 14.0059V17.9248C11.2277 18.0523 12.09 18.2768 12.9463 18.5393V14.6651C12.0905 14.3875 11.2277 14.148 10.3584 14.0059Z" fill="black"/>
<path d="M7.71094 17.8947V21.8597C8.60062 21.7162 9.48335 21.7313 10.3591 21.8442V17.9253C9.48335 17.7968 8.60062 17.7667 7.71094 17.8947Z" fill="black"/>
<path d="M24.9664 16.1902C25.9743 15.3513 26.5416 14.0032 26.5416 12.6162C26.5416 10.4668 25.2173 9.58699 22.4615 9.31409V7.44145C21.8752 7.41133 21.2861 7.3464 20.6933 7.25512V9.12542C20.1399 9.04496 19.5842 8.94097 19.0252 8.82005V6.93517C18.4199 6.79872 17.8118 6.64204 17.1995 6.47266C17.1995 7.10597 17.1995 7.73975 17.1995 8.37306C16.628 8.21967 16.0542 8.05546 15.4767 7.88655V11.717C14.6399 11.4084 13.7971 11.0804 12.9473 10.7906V14.6648C13.7966 14.9405 14.6399 15.2538 15.4767 15.548V19.3784C14.6399 19.0989 13.7971 18.8001 12.9473 18.539V22.4132C13.7966 22.6593 14.6399 22.9435 15.4767 23.2088C16.0537 23.3377 16.628 23.4624 17.1995 23.5763C17.1995 24.2096 17.1995 24.8434 17.1995 25.4767C17.8113 25.5934 18.4199 25.6974 19.0252 25.7816V23.8967C19.5842 23.9791 20.1404 24.0445 20.6933 24.0868V25.9571C21.2861 25.9971 21.8752 26.0107 22.4615 25.9905V24.1325C25.5174 23.9654 27.1057 21.5568 27.1057 19.1549C27.1057 17.382 26.2916 16.5228 24.9664 16.1902ZM19.0303 11.901C19.5874 12.0139 20.1417 12.1094 20.6928 12.1818C20.9391 12.2143 21.1849 12.2421 21.4299 12.2647C21.4767 12.2689 21.5226 12.2741 21.5676 12.2797C21.5788 12.2812 21.5899 12.2826 21.6011 12.284C21.6428 12.2892 21.6841 12.2948 21.7239 12.3014C21.7267 12.3014 21.7295 12.3023 21.7323 12.3028C21.7764 12.3098 21.8191 12.3178 21.8608 12.3258C21.8682 12.3273 21.8756 12.3287 21.8826 12.3305C21.9225 12.3385 21.9615 12.347 21.9995 12.3564C22.0009 12.3564 22.0023 12.3569 22.0037 12.3574C22.0454 12.3677 22.0858 12.3785 22.1247 12.3903C22.1271 12.3913 22.1298 12.3917 22.1326 12.3927C22.2523 12.4289 22.3618 12.4712 22.4606 12.5216C22.9244 12.7554 23.1605 13.1563 23.1605 13.7477C23.1605 14.3505 22.9244 14.7791 22.4606 14.9965C22.3618 15.0426 22.2518 15.0788 22.1322 15.1047C22.1298 15.1052 22.1271 15.1056 22.1247 15.1066C22.0853 15.1151 22.0449 15.1221 22.0032 15.1282C22.0018 15.1282 22.0004 15.1282 21.9991 15.1287C21.961 15.1344 21.9221 15.1386 21.8822 15.1419C21.8747 15.1423 21.8678 15.1433 21.8604 15.1437C21.8186 15.1471 21.7759 15.1494 21.7318 15.1503C21.7291 15.1503 21.7263 15.1503 21.7235 15.1503C21.6836 15.1513 21.6423 15.1508 21.6006 15.1503C21.5895 15.1503 21.5783 15.1499 21.5667 15.1494C21.5217 15.148 21.4763 15.1456 21.4289 15.1419C21.1836 15.1226 20.9382 15.0981 20.6919 15.069C20.1404 15.004 19.5865 14.9156 19.0294 14.8102V11.9024L19.0303 11.901ZM22.4611 21.069C22.4253 21.0746 22.3887 21.0797 22.3516 21.084C22.3409 21.0854 22.3298 21.0864 22.3191 21.0873C22.2917 21.0901 22.2644 21.0925 22.2365 21.0948C22.2235 21.0957 22.2106 21.0967 22.1976 21.0972C22.1697 21.0991 22.1414 21.1 22.1127 21.101C22.1006 21.101 22.0886 21.1019 22.0761 21.1019C22.0352 21.1028 21.9944 21.1028 21.9522 21.1019C21.5338 21.0934 21.114 21.0685 20.6928 21.0304C20.1413 20.9805 19.5874 20.9075 19.0303 20.8177V17.7593C19.5874 17.8572 20.1417 17.9377 20.6928 17.9955C21.1145 18.0398 21.5343 18.0704 21.9522 18.0845C21.9944 18.0859 22.0357 18.0877 22.0761 18.0901C22.0886 18.0911 22.1006 18.0915 22.1127 18.0925C22.141 18.0944 22.1697 18.0962 22.1971 18.0986C22.2101 18.0995 22.2231 18.101 22.2361 18.1019C22.2639 18.1042 22.2913 18.1075 22.3186 18.1104C22.3293 18.1117 22.3404 18.1127 22.3511 18.1141C22.3882 18.1188 22.4248 18.1235 22.4606 18.1292C23.3034 18.2562 23.7432 18.6768 23.7432 19.5346C23.7432 20.3853 23.3034 20.9268 22.4606 21.0685L22.4611 21.069Z" fill="black"/>
</g>
<defs>
<clipPath id="clip0_5337_229707">
<rect width="32" height="32" rx="4" fill="white"/>
</clipPath>
</defs>
</svg>