<svg width="32" height="32" viewBox="0 0 32 32" fill="none" xmlns="http://www.w3.org/2000/svg">
<rect width="32" height="32" rx="4" fill="black"/>
<path d="M7 8.24234V11.5089C7.74144 11.1181 8.47721 11.1656 9.20732 11.0859V7.8573C8.40621 7.8573 7.74144 7.8642 7 8.24234Z" fill="#DC6529"/>
<path d="M13.4715 8.60329C12.7746 8.35311 12.0721 8.13396 11.3643 7.99374V11.1848C12.0721 11.3131 12.7743 11.52 13.4715 11.7579V8.60329Z" fill="#DC6529"/>
<path d="M11.3643 14.3766V11.1855C10.6512 11.0564 9.93245 11.007 9.20801 11.0863V14.3149C9.93245 14.223 10.6512 14.2597 11.3643 14.3766Z" fill="#DC6529"/>
<path d="M7 14.7755V18.042C7.74144 17.6255 8.47721 17.6478 9.20732 17.5428V14.3142C8.45115 14.3763 7.74144 14.3717 7 14.7755Z" fill="#DC6529"/>
<path d="M11.3643 14.3761V17.5672C12.0721 17.671 12.7743 17.8538 13.4715 18.0676V14.9129C12.7746 14.6869 12.0721 14.4919 11.3643 14.3761Z" fill="#DC6529"/>
<path d="M9.20801 17.5426V20.7712C9.93245 20.6544 10.6512 20.6667 11.3643 20.7586V17.5675C10.6512 17.4629 9.93245 17.4384 9.20801 17.5426Z" fill="#DC6529"/>
<path d="M23.2585 16.155C24.0792 15.4719 24.5412 14.3742 24.5412 13.2448C24.5412 11.4947 23.4628 10.7782 21.2189 10.556V9.03119C20.7414 9.00667 20.2617 8.9538 19.779 8.87947V10.4024C19.3284 10.3369 18.8759 10.2522 18.4208 10.1538V8.61895C17.9279 8.50784 17.4327 8.38026 16.9341 8.24234C16.9341 8.75802 16.9341 9.27409 16.9341 9.78978C16.4688 9.66488 16.0016 9.53117 15.5313 9.39363V12.5127C14.8499 12.2613 14.1636 11.9943 13.4717 11.7583V14.9129C14.1633 15.1374 14.8499 15.3926 15.5313 15.6321V18.7511C14.8499 18.5235 14.1636 18.2802 13.4717 18.0676V21.2223C14.1633 21.4226 14.8499 21.654 15.5313 21.8701C16.0012 21.9751 16.4688 22.0766 16.9341 22.1693C16.9341 22.685 16.9341 23.2011 16.9341 23.7168C17.4323 23.8118 17.9279 23.8964 18.4208 23.965V22.4302C18.8759 22.4973 19.3288 22.5505 19.779 22.585V24.1079C20.2617 24.1405 20.7414 24.1516 21.2189 24.1352V22.6222C23.7072 22.4862 25.0005 20.5249 25.0005 18.5691C25.0005 17.1255 24.3376 16.4259 23.2585 16.155ZM18.4249 12.6624C18.8786 12.7544 19.3299 12.8322 19.7786 12.8912C19.9792 12.9176 20.1794 12.9402 20.3788 12.9586C20.417 12.962 20.4543 12.9663 20.491 12.9709C20.5001 12.972 20.5091 12.9732 20.5182 12.9743C20.5522 12.9785 20.5858 12.9831 20.6183 12.9885C20.6205 12.9885 20.6228 12.9893 20.6251 12.9896C20.661 12.9954 20.6957 13.0019 20.7297 13.0084C20.7357 13.0096 20.7418 13.0107 20.7475 13.0122C20.78 13.0187 20.8117 13.0256 20.8427 13.0333C20.8438 13.0333 20.8449 13.0337 20.8461 13.0341C20.88 13.0425 20.9129 13.0513 20.9446 13.0609C20.9465 13.0617 20.9488 13.0621 20.9511 13.0628C21.0485 13.0923 21.1376 13.1268 21.2181 13.1678C21.5958 13.3582 21.788 13.6846 21.788 14.1662C21.788 14.657 21.5958 15.006 21.2181 15.183C21.1376 15.2206 21.0481 15.2501 20.9507 15.2711C20.9488 15.2715 20.9465 15.2719 20.9446 15.2727C20.9125 15.2796 20.8797 15.2853 20.8457 15.2903C20.8446 15.2903 20.8434 15.2903 20.8423 15.2907C20.8113 15.2953 20.7796 15.2987 20.7471 15.3014C20.7411 15.3018 20.7354 15.3026 20.7294 15.3029C20.6953 15.3056 20.6606 15.3076 20.6247 15.3083C20.6224 15.3083 20.6202 15.3083 20.6179 15.3083C20.5854 15.3091 20.5518 15.3087 20.5178 15.3083C20.5088 15.3083 20.4997 15.308 20.4903 15.3076C20.4536 15.3064 20.4166 15.3045 20.3781 15.3014C20.1783 15.2857 19.9785 15.2658 19.7779 15.242C19.3288 15.1892 18.8778 15.1172 18.4242 15.0313V12.6636L18.4249 12.6624ZM21.2185 20.1277C21.1894 20.1322 21.1595 20.1364 21.1293 20.1399C21.1206 20.1411 21.1116 20.1418 21.1029 20.1426C21.0806 20.1449 21.0583 20.1468 21.0356 20.1487C21.0251 20.1495 21.0145 20.1502 21.0039 20.1506C20.9813 20.1522 20.9582 20.1529 20.9348 20.1537C20.925 20.1537 20.9152 20.1545 20.905 20.1545C20.8717 20.1552 20.8385 20.1552 20.8041 20.1545C20.4634 20.1476 20.1216 20.1273 19.7786 20.0962C19.3295 20.0556 18.8786 19.9962 18.4249 19.9231V17.4327C18.8786 17.5124 19.3299 17.578 19.7786 17.6251C20.122 17.6611 20.4638 17.686 20.8041 17.6975C20.8385 17.6987 20.8721 17.7002 20.905 17.7021C20.9152 17.7029 20.925 17.7032 20.9348 17.704C20.9579 17.7056 20.9813 17.7071 21.0036 17.709C21.0141 17.7098 21.0247 17.7109 21.0353 17.7117C21.0579 17.7136 21.0802 17.7163 21.1025 17.7186C21.1112 17.7197 21.1202 17.7205 21.1289 17.7216C21.1592 17.7254 21.189 17.7293 21.2181 17.7339C21.9044 17.8373 22.2625 18.1798 22.2625 18.8783C22.2625 19.571 21.9044 20.012 21.2181 20.1273L21.2185 20.1277Z" fill="#DC6529"/>
</svg>
