<svg width="32" height="32" viewBox="0 0 32 32" fill="none" xmlns="http://www.w3.org/2000/svg">
<rect width="32" height="32" rx="4" fill="black"/>
<path d="M17.2759 19.868V14.5961C17.2718 13.9611 17.0168 13.3535 16.5665 12.9057C16.1163 12.458 15.5072 12.2063 14.8722 12.2057V20.6309C14.8687 20.9307 14.9263 21.228 15.0415 21.5047C15.1567 21.7814 15.3271 22.0317 15.5423 22.2404C15.7574 22.4491 16.0128 22.6118 16.2929 22.7185C16.573 22.8252 16.872 22.8737 17.1714 22.8611C17.7552 22.9008 18.3343 22.733 18.8064 22.3873C17.4188 22.2404 17.2765 21.4043 17.2765 19.868H17.2759Z" fill="white"/>
<path d="M12.1918 10C11.6092 10.0038 11.0517 10.238 10.6411 10.6513C10.2304 11.0647 9.99999 11.6237 10 12.2063H19.8082C20.3908 12.2025 20.9483 11.9683 21.3589 11.555C21.7696 11.1416 22 10.5826 22 10H12.1918Z" fill="white"/>
</svg>
