<svg width="658" height="136" viewBox="0 0 658 136" fill="none" xmlns="http://www.w3.org/2000/svg">
<path d="M654.268 38.1092L629.068 19.5596H535.828L529.762 38.1092H578.948L552.536 118.185H572.882L599.202 38.1092H654.268Z" fill="#F8F836"/>
<path d="M306.321 19.5596L281.027 38.1092H376.415L382.575 19.5596H306.321Z" fill="#F8F836"/>
<path d="M281.025 38.1094L254.613 118.185H274.959L297.453 49.9554L281.025 38.1094Z" fill="#F8F836"/>
<path d="M382.575 19.5596L355.041 103.033L364.655 102.298L325.175 72.8208H295.867L354.387 118.185H370.347L399.001 31.4056L382.575 19.5596Z" fill="#F8F836"/>
<path d="M135.053 67.9538L159.04 56.2916L167.253 31.4056L150.826 19.5596H41.0663L15.6797 38.1092H144.666L137.853 59.0464H86.1463L81.1063 74.1984H132.813L118.346 118.185L142.52 106.339L151.2 79.9836L134.96 68.2294L135.053 67.9538Z" fill="#F8F836"/>
<path d="M52.1748 99.2678L67.108 53.5366L50.4948 41.3232L25.668 118.185H118.348L124.508 99.2678H52.1748Z" fill="#F8F836"/>
<path d="M198.426 29.7528L182 17.9067L155.4 98.4416L153.066 105.512L170.52 118.185H244.254L250.506 99.268H175.466L198.426 29.7528Z" fill="#F8F836"/>
<path d="M421.774 59.5058L425.04 49.8636L408.706 38.1094L399.374 66.2094L415.614 77.8716V77.9636H488.414L481.414 99.268H388.734L382.574 118.185H475.16L499.426 106.339L511.374 70.158L496.346 59.322L421.774 59.5058Z" fill="#F8F836"/>
<path d="M433.907 19.5596L408.707 38.1092H519.681L525.841 19.5596H433.907Z" fill="#F8F836"/>
</svg>
