<svg width="32" height="32" viewBox="0 0 32 32" fill="none" xmlns="http://www.w3.org/2000/svg">
<g clip-path="url(#clip0_1460_57417)">
<rect width="32" height="32" rx="4" fill="#F0B90B"/>
<path d="M8.25679 15.7892L8.26923 20.3497L12.1443 22.63V25.3L6.00138 21.6972V14.4556L8.25679 15.7892ZM8.25679 11.2286V13.8862L6 12.5512V9.8936L8.25679 8.55859L10.5246 9.8936L8.25679 11.2286ZM13.7626 9.8936L16.0194 8.55859L18.2873 9.8936L16.0194 11.2286L13.7626 9.8936Z" fill="white"/>
<path d="M9.8877 19.4045V16.7345L12.1445 18.0695V20.727L9.8877 19.4045ZM13.7628 23.5864L16.0196 24.9214L18.2874 23.5864V26.2439L16.0196 27.5789L13.7628 26.2439V23.5864ZM21.5241 9.8936L23.7809 8.55859L26.0487 9.8936V12.5512L23.7809 13.8862V11.2286L21.5241 9.8936ZM23.7809 20.3497L23.7933 15.7892L26.0501 14.4542V21.6958L19.9071 25.2987V22.6287L23.7809 20.3497Z" fill="white"/>
<path d="M22.1621 19.4063L19.9053 20.7289V18.0713L22.1621 16.7363V19.4063Z" fill="white"/>
<path d="M22.1625 12.1745L22.175 14.8445L18.2888 17.1248V21.6964L16.032 23.019L13.7752 21.6964V17.1248L9.88908 14.8445V12.1745L12.1555 10.8395L16.0182 13.1308L19.9044 10.8395L22.1722 12.1745H22.1625ZM9.8877 7.61529L16.0196 4L22.1625 7.61529L19.9058 8.95029L16.0196 6.65895L12.1445 8.95029L9.8877 7.61529Z" fill="white"/>
</g>
<defs>
<clipPath id="clip0_1460_57417">
<rect width="32" height="32" rx="4" fill="white"/>
</clipPath>
</defs>
</svg>