<svg width="32" height="32" viewBox="0 0 32 32" fill="none" xmlns="http://www.w3.org/2000/svg">
<g clip-path="url(#clip0_5337_229723)">
<rect width="32" height="32" rx="4" fill="#F25D00"/>
<path d="M32 0H0V32H32V0Z" fill="#F47226"/>
<path d="M9 12.3325V17.6675C9 17.8511 9.1488 18 9.33246 18H14.6675C14.8511 18 15 17.8511 15 17.6675V12.3325C15 12.1488 14.8511 12 14.6675 12H9.33246C9.1488 12 9 12.1488 9 12.3325Z" fill="white"/>
<path d="M9 20.3325V25.6675C9 25.8512 9.14887 26 9.33252 26H14.6675C14.8511 26 15 25.8512 15 25.6675V20.3325C15 20.1489 14.8511 20 14.6675 20H9.33252C9.14887 20 9 20.1489 9 20.3325Z" fill="white"/>
<path d="M17 20.3325V25.6675C17 25.8511 17.1488 26 17.3325 26H22.6675C22.8511 26 23 25.8511 23 25.6675V20.3325C23 20.1489 22.8511 20 22.6675 20H17.3325C17.1488 20 17 20.1489 17 20.3325Z" fill="white"/>
<path d="M17 12.3325V17.6675C17 17.8511 17.1488 18 17.3325 18H22.6675C22.8511 18 23 17.8511 23 17.6675V12.3325C23 12.1489 22.8511 12 22.6675 12H17.3325C17.1488 12 17 12.1489 17 12.3325Z" fill="white"/>
<path d="M14.6675 5H9.33246C9.1488 5 9 5.14885 9 5.33246V10.6675C9 10.8511 9.1488 11 9.33246 11H14.6675C14.8511 11 15 10.8511 15 10.6675V5.33246C15 5.14885 14.8511 5 14.6675 5Z" fill="white"/>
</g>
<defs>
<clipPath id="clip0_5337_229723">
<rect width="32" height="32" rx="4" fill="white"/>
</clipPath>
</defs>
</svg>
