<svg width="32" height="32" viewBox="0 0 32 32" fill="none" xmlns="http://www.w3.org/2000/svg">
<rect width="32" height="32" rx="4" fill="#010000"/>
<path fill-rule="evenodd" clip-rule="evenodd" d="M21.5566 21.7474L19.9071 20.1116C19.7007 20.7483 19.1832 21.273 18.4863 21.4597L15.6518 22.2192C14.5636 22.5108 13.4407 21.8699 13.1509 20.7883L12.7795 19.4024L10.4449 21.7474C10.3662 21.8255 10.3235 21.9284 10.3235 22.0395V26.586H8.8472V22.0395C8.8472 21.5379 9.04407 21.0636 9.40341 20.7093L12.3489 17.7882L12.2258 17.3287L8.00842 18.4496L7.9997 18.4507C7.88656 18.4646 7.78308 18.5264 7.71507 18.6181L5.20652 23.0486L4 22.2023L6.50136 17.7811L6.50523 17.7757C6.80868 17.35 7.28054 17.0664 7.80096 16.9988L12.2274 15.842C12.4543 15.2525 12.9527 14.774 13.6115 14.5975L16.446 13.838C17.5342 13.5464 18.6571 14.1872 18.9469 15.2689L18.9786 15.3871L19.0493 15.6521L24.1989 16.9988C24.719 17.0683 25.1908 17.3517 25.4943 17.7755L25.4982 17.781L27.9997 22.2023L26.7932 23.0487L24.2864 18.6181C24.2191 18.5273 24.1156 18.4661 24.0003 18.4505L23.9924 18.4494L19.4755 17.2489L19.6082 17.7442L22.5983 20.7095L22.5986 20.7097C22.9552 21.0653 23.1543 21.5374 23.1543 22.0395V26.586H21.6781V22.0395C21.6781 21.9284 21.6354 21.8255 21.5566 21.7474ZM18.513 19.3534C18.5931 19.6522 18.4129 19.9635 18.1091 20.0449L15.2746 20.8044C14.9709 20.8858 14.6591 20.7063 14.5791 20.4075L13.587 16.705C13.507 16.4063 13.6872 16.095 13.9909 16.0136L16.8254 15.2541C17.1292 15.1727 17.4409 15.3522 17.521 15.6509L18.513 19.3534Z" fill="white"/>
<path fill-rule="evenodd" clip-rule="evenodd" d="M26.793 8.53731L27.9997 9.38368L25.4982 13.805L25.4943 13.8105C25.1908 14.2342 24.719 14.5176 24.1989 14.5871L19.5125 15.8119V15.8777C19.5125 16.9975 18.5937 17.9071 17.4671 17.9071H14.5326C13.406 17.9071 12.4872 16.9975 12.4872 15.8777V15.8119L7.80096 14.5872C7.28054 14.5196 6.80868 14.2359 6.50523 13.8103L6.50136 13.8049L4 9.38368L5.20652 8.53735L7.71507 12.9678C7.78308 13.0596 7.89528 13.1225 8.00842 13.1363L12.4891 14.3272V13.9368L9.40347 10.8768C9.04414 10.5224 8.8472 10.048 8.8472 9.5465V5H10.3235V9.5465C10.3235 9.65756 10.3662 9.76047 10.4449 9.83857L12.4966 11.8715C12.5864 10.8335 13.4672 10.017 14.5345 10.017H17.4689C18.5362 10.017 19.417 10.8334 19.5068 11.8714L21.5566 9.83857C21.6354 9.76049 21.6781 9.65756 21.6781 9.5465V5H23.1543V9.5465C23.1543 10.0486 22.9552 10.5207 22.5986 10.8763L22.5983 10.8765L19.5125 13.9368V14.3272L23.9924 13.1365C24.1076 13.121 24.2191 13.0587 24.2864 12.9678L26.793 8.53731ZM18.0381 15.8796C18.0381 16.1889 17.7834 16.4429 17.4689 16.4429H14.5345C14.22 16.4429 13.9653 16.1889 13.9653 15.8796V12.0465C13.9653 11.7372 14.22 11.4831 14.5345 11.4831H17.4689C17.7834 11.4831 18.0381 11.7372 18.0381 12.0465V15.8796Z" fill="#FCCD0C"/>
<path d="M18.4856 21.4597L18.1084 20.0449C18.4122 19.9635 18.5924 19.6522 18.5124 19.3534L17.5203 15.6509C17.4402 15.3522 17.1285 15.1727 16.8248 15.2541L16.4453 13.838C17.5335 13.5464 18.6564 14.1872 18.9462 15.2689L18.978 15.3873L19.0615 15.6562L24.1983 16.9988C24.7184 17.0683 25.1901 17.3517 25.4936 17.7755L25.4975 17.781L27.9989 22.2023L26.7924 23.0487L24.2858 18.6181C24.2184 18.5273 24.1149 18.4661 23.9996 18.4505L23.9917 18.4494L19.4749 17.2489L19.6076 17.7442L22.5979 20.7097C22.9545 21.0653 23.1537 21.5374 23.1537 22.0395V26.586H21.6774V22.0395C21.6774 21.9284 21.6347 21.8255 21.556 21.7474L19.9064 20.1116C19.7 20.7483 19.1825 21.273 18.4856 21.4597Z" fill="white"/>
</svg>
