<svg width="32" height="32" viewBox="0 0 32 32" fill="none" xmlns="http://www.w3.org/2000/svg">
<rect width="32" height="32" rx="4" fill="#FFB852"/>
<g clip-path="url(#clip0_5337_229755)">
<path d="M28.2303 15.9999C28.2303 22.7546 22.7546 28.2303 15.9999 28.2303C9.24527 28.2303 3.76953 22.7546 3.76953 15.9999C3.76953 9.24524 9.24527 3.76953 15.9999 3.76953C22.7546 3.76953 28.2303 9.24524 28.2303 15.9999Z" fill="#FFB852"/>
<path fill-rule="evenodd" clip-rule="evenodd" d="M28.7397 15.9998C28.7397 23.0359 23.0359 28.7398 15.9997 28.7398C8.96367 28.7398 3.25977 23.0359 3.25977 15.9998C3.25977 8.96364 8.96367 3.25977 15.9997 3.25977C23.0359 3.25977 28.7397 8.96364 28.7397 15.9998ZM15.9997 28.2302C22.7544 28.2302 28.2301 22.7544 28.2301 15.9998C28.2301 9.24512 22.7544 3.76937 15.9997 3.76937C9.2451 3.76937 3.76937 9.24512 3.76937 15.9998C3.76937 22.7544 9.2451 28.2302 15.9997 28.2302Z" fill="black"/>
<path d="M11.6502 19.5407C11.6518 19.622 11.653 19.6696 11.5406 19.6709L10.084 19.6855L10.1003 21.0065L12.6391 20.979L12.6629 22.8988L13.9251 22.8838L13.9013 20.9641L14.6859 20.9558L14.709 22.8729L15.9097 22.86L15.8885 20.9395L16.7916 20.9313C17.3929 20.9231 19.5398 20.3886 19.5112 18.3968C19.5281 17.8578 19.3621 17.3289 19.0403 16.8962C18.7185 16.4634 18.2598 16.1522 17.7387 16.0132C17.7387 16.0132 18.9523 15.2637 18.8202 14.0068C18.6882 12.7499 17.6992 12.4085 17.1301 12.2278C16.688 12.1066 16.2335 12.0365 15.7754 12.0188L15.7513 10.0117L14.5976 10.0321L14.6243 12.0272L13.6968 12.0391L13.6786 10.0333L12.5118 10.0571L12.5352 12.0616L10.0895 12.0907L10.1003 13.2722L11.4412 13.2563C11.5762 13.2548 11.577 13.3222 11.5775 13.3672L11.6502 19.5407ZM13.707 13.2293L15.1326 13.2137C15.3774 13.2116 16.5691 13.4012 16.5747 14.4121C16.5839 14.6892 16.4937 14.9605 16.3201 15.1767C16.1465 15.3929 15.9012 15.5397 15.6287 15.5906C15.5195 15.619 15.4078 15.636 15.2952 15.6413L13.7233 15.6586L13.707 13.2293ZM13.768 16.9158L15.9961 16.8958C16.1574 16.8969 16.3168 16.9309 16.4645 16.9956C16.6122 17.0604 16.7451 17.1546 16.8552 17.2725C16.9653 17.3904 17.0502 17.5295 17.1047 17.6813C17.1592 17.8331 17.1822 17.9944 17.1723 18.1554C17.1827 18.9592 16.4848 19.3197 16.1181 19.4158C16.0643 19.4317 16.0089 19.4405 15.953 19.4422L13.803 19.4699L13.768 16.9158Z" fill="#FFE3BD"/>
<path fill-rule="evenodd" clip-rule="evenodd" d="M11.1364 19.1643L9.56836 19.18L9.59727 21.5206L12.1361 21.4932L12.1599 23.4134L14.4412 23.3863L14.4412 23.3845L16.4251 23.363L16.404 21.4435L16.7965 21.4398H16.7988C17.1882 21.4345 17.9678 21.2742 18.6597 20.838C19.3728 20.3883 20.0342 19.6125 20.0211 18.4C20.0388 17.7502 19.8376 17.113 19.4495 16.5911C19.2344 16.3019 18.969 16.0574 18.6683 15.868C18.6858 15.848 18.7034 15.8275 18.7208 15.8065C19.0584 15.4012 19.4128 14.7668 19.3273 13.9526C19.2459 13.1779 18.89 12.657 18.4556 12.3131C18.0406 11.9847 17.57 11.8317 17.2846 11.7411L17.2749 11.738L17.265 11.7353C16.9417 11.6467 16.6122 11.5832 16.2796 11.5454L16.2549 9.49219L14.1839 9.52874L14.1838 9.51226L11.9966 9.55693L12.02 11.5571L9.57559 11.5861L9.59561 13.7868L11.0728 13.7693L11.1364 19.1643ZM12.5355 12.0606L10.0898 12.0897L10.1005 13.2712L11.4415 13.2553C11.5764 13.2538 11.5772 13.3213 11.5777 13.3662L11.6504 19.5397V19.5403C11.6521 19.6213 11.6529 19.6686 11.5408 19.6699L10.0843 19.6845L10.1006 21.0056L12.6394 20.9781L12.6631 22.8978L13.9253 22.8828L13.9016 20.9631L14.6861 20.9548L14.7092 22.8719L15.91 22.859L15.8888 20.9385L16.7918 20.9303C17.3932 20.9221 19.54 20.3876 19.5114 18.3958C19.5283 17.8568 19.3624 17.3279 19.0406 16.8952C18.8384 16.6233 18.5822 16.3995 18.2905 16.2361C18.1178 16.1394 17.9327 16.0639 17.739 16.0123C17.739 16.0123 17.9562 15.8781 18.1969 15.6281C18.525 15.2872 18.8966 14.731 18.8205 14.0058C18.6884 12.7489 17.6994 12.4075 17.1304 12.2268C16.6882 12.1056 16.2337 12.0355 15.7756 12.0178L15.7515 10.0107L14.5979 10.0311L14.6245 12.0263L13.697 12.0381L13.6789 10.0323L12.512 10.0561L12.5355 12.0606ZM16.5749 14.4111C16.5694 13.4002 15.3776 13.2106 15.1328 13.2127L13.7072 13.2283L13.7236 15.6576L15.2954 15.6404C15.408 15.635 15.5198 15.618 15.6289 15.5896C15.9015 15.5387 16.1468 15.3919 16.3203 15.1757C16.4939 14.9595 16.5842 14.6882 16.5749 14.4111ZM15.2795 15.1309C15.3542 15.1268 15.4283 15.1152 15.5007 15.0964L15.5179 15.0919L15.5354 15.0886C15.6882 15.0601 15.8256 14.9779 15.9229 14.8567C16.0202 14.7355 16.0708 14.5835 16.0656 14.4282L16.0653 14.4211L16.0653 14.4139C16.0639 14.1579 15.9312 14.0015 15.706 13.8829C15.5901 13.8218 15.4621 13.7799 15.3476 13.7538C15.2913 13.741 15.2414 13.7328 15.2021 13.7279C15.1825 13.7255 15.1665 13.724 15.1545 13.7232C15.1437 13.7224 15.1381 13.7223 15.1373 13.7223C15.1371 13.7223 15.1371 13.7223 15.1373 13.7223L14.2202 13.7323L14.2297 15.1424L15.2795 15.1309ZM17.1725 18.1544C17.1824 17.9934 17.1594 17.8321 17.1049 17.6803C17.0504 17.5285 16.9655 17.3894 16.8555 17.2715C16.7454 17.1537 16.6124 17.0594 16.4648 16.9946C16.317 16.9299 16.1576 16.8959 15.9964 16.8948L13.7682 16.9148L13.8032 19.4686L15.9532 19.4412C16.0091 19.4395 16.0646 19.4307 16.1183 19.4148C16.485 19.3187 17.1829 18.9582 17.1725 18.1544ZM15.9408 18.9317C15.952 18.9312 15.9633 18.9293 15.9741 18.9261L15.9816 18.9239L15.9891 18.9219C16.1114 18.8898 16.2967 18.8092 16.4408 18.6759C16.5729 18.5537 16.666 18.3945 16.6629 18.161L16.6627 18.142L16.6639 18.123C16.6695 18.0312 16.6564 17.9391 16.6253 17.8525C16.5942 17.766 16.5458 17.6866 16.483 17.6193C16.4202 17.5521 16.3443 17.4983 16.2601 17.4613C16.1769 17.4249 16.0872 17.4055 15.9963 17.4044L14.2848 17.4198L14.3058 18.9528L15.9408 18.9317Z" fill="black"/>
<path d="M15.2343 5.95496C17.2228 5.80331 19.2096 6.24525 20.944 7.22183L20.646 7.72107C19.0147 6.80585 17.1474 6.39195 15.2785 6.53448C13.3249 6.68347 11.4652 7.43324 9.95445 8.68094C8.44375 9.92863 7.35605 11.6131 6.84053 13.5034C6.32502 15.3937 6.40694 17.3972 7.07506 19.2391C7.74318 21.081 8.96479 22.6711 10.5723 23.7913C12.1798 24.9115 14.0945 25.5069 16.0538 25.4959C18.0132 25.4849 19.9211 24.868 21.5159 23.7298C23.0416 22.6411 24.2092 21.1263 24.8744 19.378L25.4232 19.5701C24.7182 21.4316 23.4768 23.0444 21.8535 24.2029C20.1611 25.4107 18.1363 26.0654 16.0571 26.0771C13.9779 26.0888 11.9459 25.4569 10.24 24.2682C8.53412 23.0794 7.23772 21.3919 6.5287 19.4373C5.81968 17.4827 5.73274 15.3565 6.27981 13.3505C6.82688 11.3445 7.98117 9.55688 9.58437 8.23281C11.1875 6.90874 13.1611 6.11308 15.2343 5.95496Z" fill="black"/>
<path d="M25.6406 16.3722H21.6865V15.2914L22.9892 13.9703C23.4511 13.496 23.7714 13.1326 23.9499 12.8801C24.1347 12.6276 24.2271 12.3597 24.2271 12.0764C24.2271 11.7869 24.1501 11.5837 23.9962 11.4667C23.8483 11.3497 23.6358 11.2912 23.3587 11.2912C22.946 11.2912 22.4964 11.3281 22.0099 11.402L21.7882 11.4297L21.7235 10.4412C22.3271 10.2565 22.9522 10.1641 23.5989 10.1641C24.8923 10.1641 25.5389 10.7461 25.5389 11.9101C25.5389 12.3658 25.4404 12.7601 25.2433 13.0926C25.0462 13.4252 24.689 13.8286 24.1717 14.3028L23.1092 15.2637H25.6406V16.3722Z" fill="#FFDFB6"/>
<path fill-rule="evenodd" clip-rule="evenodd" d="M26.1499 16.8817H21.1768V15.0822L22.6239 13.6146L22.625 13.6134C23.0837 13.1424 23.3797 12.8034 23.5337 12.5857L23.5361 12.5824L23.5385 12.579C23.6664 12.4043 23.7173 12.24 23.7173 12.0762C23.7173 11.9739 23.7033 11.9156 23.6926 11.8872C23.689 11.8778 23.6862 11.8726 23.6846 11.87L23.6836 11.8692L23.6796 11.8661C23.6555 11.847 23.5729 11.8006 23.3585 11.8006C22.9757 11.8006 22.5521 11.8349 22.0862 11.9057L22.0796 11.9067L21.3147 12.0023L21.1885 10.0719L21.5741 9.95376C22.2272 9.75382 22.9027 9.6543 23.5987 9.6543C24.3114 9.6543 24.9411 9.81352 25.3946 10.2216C25.8583 10.6389 26.0483 11.2347 26.0483 11.91C26.0483 12.4406 25.9329 12.928 25.6815 13.3523C25.4461 13.7495 25.0452 14.1931 24.5158 14.6783L24.5133 14.6807L24.4323 14.7539H26.1499V16.8817ZM23.109 15.2635L24.1714 14.3027C24.6888 13.8284 25.046 13.425 25.2431 13.0925C25.4402 12.7599 25.5387 12.3657 25.5387 11.91C25.5387 10.7459 24.8921 10.1639 23.5987 10.1639C22.952 10.1639 22.3268 10.2563 21.7233 10.4411L21.788 11.4296L22.0097 11.4019C22.106 11.3872 22.2008 11.374 22.2942 11.3623C22.6727 11.3148 23.0275 11.291 23.3585 11.291C23.6356 11.291 23.8481 11.3495 23.9959 11.4665C24.1499 11.5835 24.2269 11.7868 24.2269 12.0762C24.2269 12.3595 24.1345 12.6274 23.9498 12.88C23.7711 13.1325 23.4509 13.4958 22.989 13.9701L21.6864 15.2912V16.3721H25.6403V15.2635H23.109Z" fill="black"/>
</g>
<defs>
<clipPath id="clip0_5337_229755">
<rect width="26" height="26" fill="white" transform="translate(3 3)"/>
</clipPath>
</defs>
</svg>
