<?xml version="1.0" encoding="UTF-8"?>
<svg version="1.1" xmlns="http://www.w3.org/2000/svg" width="256" height="256">
<path d="M0 0 C2.52096309 2.2275585 4.98034211 4.50638231 7.42578125 6.81640625 C8.17601562 7.5021875 8.92625 8.18796875 9.69921875 8.89453125 C25.98970564 24.32762409 36.54719771 45.38249626 42.42578125 66.81640625 C42.93431641 68.57791016 42.93431641 68.57791016 43.453125 70.375 C51.37949267 103.7241875 43.69917207 138.85763396 26.42578125 167.81640625 C21.49702501 175.46447627 15.66316104 182.21338695 9.42578125 188.81640625 C8.74 189.56664062 8.05421875 190.316875 7.34765625 191.08984375 C-8.08543659 207.38033064 -29.14030876 217.93782271 -50.57421875 223.81640625 C-51.74855469 224.15542969 -52.92289063 224.49445313 -54.1328125 224.84375 C-87.482 232.77011767 -122.61544646 225.08979707 -151.57421875 207.81640625 C-159.22228877 202.88765001 -165.97119945 197.05378604 -172.57421875 190.81640625 C-173.32445312 190.130625 -174.0746875 189.44484375 -174.84765625 188.73828125 C-191.13814314 173.30518841 -201.69563521 152.25031624 -207.57421875 130.81640625 C-207.91324219 129.64207031 -208.25226563 128.46773437 -208.6015625 127.2578125 C-216.52793017 93.908625 -208.84760957 58.77517854 -191.57421875 29.81640625 C-186.64546251 22.16833623 -180.81159854 15.41942555 -174.57421875 8.81640625 C-173.8884375 8.06617188 -173.20265625 7.3159375 -172.49609375 6.54296875 C-157.06300091 -9.74751814 -136.00812874 -20.30501021 -114.57421875 -26.18359375 C-113.39988281 -26.52261719 -112.22554688 -26.86164062 -111.015625 -27.2109375 C-72.53579317 -36.35674638 -29.92130312 -25.38089294 0 0 Z " fill="#FCB651" transform="translate(210.57421875,29.18359375)"/>
<path d="M0 0 C3.96 0 7.92 0 12 0 C12 6.6 12 13.2 12 20 C14.97 20 17.94 20 21 20 C21 13.4 21 6.8 21 0 C24.96 0 28.92 0 33 0 C33 6.6 33 13.2 33 20 C34.423125 20.0825 35.84625 20.165 37.3125 20.25 C46.31651267 21.18100981 54.95411152 23.94940119 61 31 C64.26180057 36.09725444 63.7942663 42.20253487 63 48 C61.43570658 51.42466761 59.41815907 54.13468743 57 57 C55.99446085 58.32916094 54.99283007 59.66131922 54 61 C54.886875 61.226875 55.77375 61.45375 56.6875 61.6875 C62.64085971 64.04637837 65.7454092 68.65317226 69 74 C71.16798741 80.50396222 71.30781164 89.18286114 68.4375 95.5 C63.29652337 103.81420014 55.26296884 107.57398435 46 110 C41.88766494 110.36177558 38.13891309 110.24933211 34 110 C34 116.27 34 122.54 34 129 C30.04 129 26.08 129 22 129 C22 122.73 22 116.46 22 110 C19.36 110 16.72 110 14 110 C14 116.27 14 122.54 14 129 C9.71 129 5.42 129 1 129 C1 122.73 1 116.46 1 110 C-7.25 110 -15.5 110 -24 110 C-24 105.71 -24 101.42 -24 97 C-19.05 97 -14.1 97 -9 97 C-9 75.88 -9 54.76 -9 33 C-13.95 33 -18.9 33 -24 33 C-24 29.04 -24 25.08 -24 21 C-16.08 21 -8.16 21 0 21 C0 14.07 0 7.14 0 0 Z " fill="#FBDFBA" transform="translate(93,68)"/>
<path d="M0 0 C2.52096309 2.2275585 4.98034211 4.50638231 7.42578125 6.81640625 C8.17601562 7.5021875 8.92625 8.18796875 9.69921875 8.89453125 C25.98970564 24.32762409 36.54719771 45.38249626 42.42578125 66.81640625 C42.93431641 68.57791016 42.93431641 68.57791016 43.453125 70.375 C51.37949267 103.7241875 43.69917207 138.85763396 26.42578125 167.81640625 C21.49702501 175.46447627 15.66316104 182.21338695 9.42578125 188.81640625 C8.74 189.56664062 8.05421875 190.316875 7.34765625 191.08984375 C-8.08543659 207.38033064 -29.14030876 217.93782271 -50.57421875 223.81640625 C-51.74855469 224.15542969 -52.92289063 224.49445313 -54.1328125 224.84375 C-87.482 232.77011767 -122.61544646 225.08979707 -151.57421875 207.81640625 C-159.22228877 202.88765001 -165.97119945 197.05378604 -172.57421875 190.81640625 C-173.32445312 190.130625 -174.0746875 189.44484375 -174.84765625 188.73828125 C-191.13814314 173.30518841 -201.69563521 152.25031624 -207.57421875 130.81640625 C-207.91324219 129.64207031 -208.25226563 128.46773437 -208.6015625 127.2578125 C-216.52793017 93.908625 -208.84760957 58.77517854 -191.57421875 29.81640625 C-186.64546251 22.16833623 -180.81159854 15.41942555 -174.57421875 8.81640625 C-173.8884375 8.06617188 -173.20265625 7.3159375 -172.49609375 6.54296875 C-157.06300091 -9.74751814 -136.00812874 -20.30501021 -114.57421875 -26.18359375 C-113.39988281 -26.52261719 -112.22554688 -26.86164062 -111.015625 -27.2109375 C-72.53579317 -36.35674638 -29.92130312 -25.38089294 0 0 Z M-177.57421875 19.81640625 C-198.94060919 45.2839285 -207.82851212 77.92697361 -205.57421875 110.81640625 C-201.63057152 144.06398152 -185.63487425 173.81972543 -159.86572266 195.23632812 C-133.78990502 215.76330711 -100.52241758 225.36869933 -67.48681641 221.45019531 C-34.1134053 216.30924712 -4.09097332 199.82617724 16.48730469 172.72705078 C35.42187056 146.64583183 44.48233159 112.56283043 39.7421875 80.53515625 C34.00537134 47.72448285 16.66604383 18.19060572 -10.44921875 -1.55859375 C-64.04105912 -38.9814593 -134.82645592 -28.34990318 -177.57421875 19.81640625 Z " fill="#050301" transform="translate(210.57421875,29.18359375)"/>
<path d="M0 0 C1.81177734 0.58007812 1.81177734 0.58007812 3.66015625 1.171875 C10.03324224 3.3431472 16.07673831 5.80143869 22 9 C21.42655063 11.86724686 21.1385485 12.8614515 19 15 C18.22398437 14.61328125 17.44796875 14.2265625 16.6484375 13.828125 C-7.04675721 2.40466598 -34.27846265 0.1559847 -59.375 8.5625 C-73.39962472 13.60419616 -84.57616236 21.47087107 -95 32 C-95.80050781 32.77859375 -96.60101563 33.5571875 -97.42578125 34.359375 C-106.34330226 43.53872306 -113.10398575 55.82269035 -117 68 C-117.36996094 69.0725 -117.73992187 70.145 -118.12109375 71.25 C-120.7411078 79.95316087 -121.36208172 88.1658678 -121.375 97.25 C-121.37661133 98.32636719 -121.37822266 99.40273437 -121.37988281 100.51171875 C-121.03295565 125.70633992 -110.941294 148.46879272 -93 166 C-92.22140625 166.79921875 -91.4428125 167.5984375 -90.640625 168.421875 C-74.37448584 184.25133928 -51.07827376 192.45127305 -28.6875 192.25 C-27.58027588 192.24178223 -26.47305176 192.23356445 -25.33227539 192.22509766 C0.35947134 191.87333727 23.02900732 182.39136677 41 164 C41.79921875 163.22140625 42.5984375 162.4428125 43.421875 161.640625 C51.68897947 153.14546248 56.79807426 142.53471754 62 132 C63.65 132.33 65.3 132.66 67 133 C66.45125438 137.86455579 64.93452672 141.7380319 62.625 146 C62.2741333 146.64864014 61.9232666 147.29728027 61.56176758 147.96557617 C47.13660337 173.72858855 23.62075359 188.98341126 -4.1328125 197.2734375 C-27.72169105 203.25100073 -52.64698681 198.79581343 -74 188 C-75.05832031 187.46503906 -76.11664063 186.93007812 -77.20703125 186.37890625 C-100.36567174 173.722087 -116.43321032 151.99920486 -124.28515625 127.05078125 C-131.84227213 101.12906117 -129.10884167 74.95004857 -117 51 C-116.46503906 49.94167969 -115.93007812 48.88335937 -115.37890625 47.79296875 C-101.97165106 23.26122845 -78.73876855 7.00295483 -52.26391602 -0.83666992 C-35.96874054 -5.19245389 -16.0906293 -5.16539947 0 0 Z " fill="#0C0904" transform="translate(155,30)"/>
<path d="M0 0 C0.928125 0.5775 1.85625 1.155 2.8125 1.75 C7.46079092 6.53109923 9.24897569 11.13871578 9.5 17.8125 C8.95774919 30.50754846 3.57595771 37.31120075 -5 46 C-0.05 46.33 4.9 46.66 10 47 C10 54.26 10 61.52 10 69 C-6.5 69 -23 69 -40 69 C-40 50 -40 50 -35.51171875 43.69140625 C-33.61705339 41.93011278 -31.67383463 40.21972244 -29.6875 38.5625 C-27.75318783 36.81459679 -25.81956468 35.06593071 -23.88671875 33.31640625 C-23.02264404 32.57849854 -22.15856934 31.84059082 -21.26831055 31.08032227 C-16.74584809 26.93266296 -15.59218345 24.15870784 -15 18 C-17.31266404 18.14320845 -19.62512435 18.28970805 -21.9375 18.4375 C-23.22527344 18.51871094 -24.51304687 18.59992188 -25.83984375 18.68359375 C-30.23575859 19.01793094 -34.61835349 19.51315039 -39 20 C-39.33 13.4 -39.66 6.8 -40 0 C-12.43902439 -7.80487805 -12.43902439 -7.80487805 0 0 Z " fill="#0C0905" transform="translate(220,68)"/>
<path d="M0 0 C14.19 0 28.38 0 43 0 C43 6.93 43 13.86 43 21 C45.31 21 47.62 21 50 21 C59.37829869 23.10000847 65.52417006 27.74210832 71.5 35.0625 C74.26047513 40.57107146 73.77993101 47.05705462 73 53 C71.68797922 56.89520357 70.03743063 60.4344964 68 64 C69.0828125 64.7734375 69.0828125 64.7734375 70.1875 65.5625 C76.64825412 71.16182024 79.48770668 77.01188086 80.37109375 85.61328125 C80.54137781 95.09910526 79.53316127 101.67117994 73.30859375 108.98828125 C65.40015707 116.69859425 54.7598072 120 44 120 C44 126.27 44 132.54 44 139 C29.81 139 15.62 139 1 139 C1 132.73 1 126.46 1 120 C-7.25 120 -15.5 120 -24 120 C-24 112.41 -24 104.82 -24 97 C-19.05 97 -14.1 97 -9 97 C-9 79.18 -9 61.36 -9 43 C-14.28 43 -19.56 43 -25 43 C-25.02682987 39.35411831 -25.04675569 35.70843154 -25.0625 32.0625 C-25.07087891 31.02158203 -25.07925781 29.98066406 -25.08789062 28.90820312 C-25.09272461 27.42416992 -25.09272461 27.42416992 -25.09765625 25.91015625 C-25.10289307 24.99371338 -25.10812988 24.07727051 -25.11352539 23.13305664 C-25 21 -25 21 -24 20 C-22.21928754 19.91273777 -20.4351686 19.89300959 -18.65234375 19.90234375 C-17.57275391 19.90556641 -16.49316406 19.90878906 -15.38085938 19.91210938 C-13.67639648 19.92467773 -13.67639648 19.92467773 -11.9375 19.9375 C-10.22723633 19.94426758 -10.22723633 19.94426758 -8.48242188 19.95117188 C-5.65492582 19.9630024 -2.82745655 19.9809385 0 20 C0 13.4 0 6.8 0 0 Z M5 5 C5 11.93 5 18.86 5 26 C-2.92 26 -10.84 26 -19 26 C-19 29.96 -19 33.92 -19 38 C-14.05 38 -9.1 38 -4 38 C-4 59.12 -4 80.24 -4 102 C-8.95 102 -13.9 102 -19 102 C-19 106.29 -19 110.58 -19 115 C-10.75 115 -2.5 115 6 115 C6 121.27 6 127.54 6 134 C10.29 134 14.58 134 19 134 C19 127.73 19 121.46 19 115 C21.64 115 24.28 115 27 115 C27 121.27 27 127.54 27 134 C30.96 134 34.92 134 39 134 C39 127.73 39 121.46 39 115 C40.711875 115.103125 42.42375 115.20625 44.1875 115.3125 C53.42566296 115.30158019 62.94241339 112.24390394 69.6328125 105.63671875 C74.92480858 99.30144344 75.64156196 93.56415271 75.38671875 85.34765625 C74.56448463 78.22993259 71.42468269 73.63082669 66 69 C62.76338106 66.66915279 62.76338106 66.66915279 59 66 C59.56589844 65.22914063 60.13179688 64.45828125 60.71484375 63.6640625 C61.81505859 62.15972656 61.81505859 62.15972656 62.9375 60.625 C64.03384766 59.12839844 64.03384766 59.12839844 65.15234375 57.6015625 C69.04952635 52.11419756 68.57652787 46.57401914 68 40 C64.93807971 33.53594605 60.32849135 30.37300928 53.8125 27.8125 C48.50572081 25.97387406 43.59403206 25.32429171 38 25 C38 18.4 38 11.8 38 5 C34.04 5 30.08 5 26 5 C26 11.6 26 18.2 26 25 C23.03 25 20.06 25 17 25 C17 18.4 17 11.8 17 5 C13.04 5 9.08 5 5 5 Z " fill="#0A0805" transform="translate(88,63)"/>
<path d="M0 0 C4.03073839 4.8605963 4.58283278 8.46284671 4.42578125 14.6953125 C3.13158055 27.03223866 -7.30415096 35.37934371 -16.02734375 43.1640625 C-17.875 44.5625 -17.875 44.5625 -19.875 44.5625 C-19.875 45.2225 -19.875 45.8825 -19.875 46.5625 C-11.625 46.5625 -3.375 46.5625 5.125 46.5625 C5.125 50.1925 5.125 53.8225 5.125 57.5625 C-8.075 57.5625 -21.275 57.5625 -34.875 57.5625 C-34.875 45.5625 -34.875 45.5625 -33.10253906 42.45947266 C-31.8838916 41.35418213 -31.8838916 41.35418213 -30.640625 40.2265625 C-29.75632813 39.38996094 -28.87203125 38.55335937 -27.9609375 37.69140625 C-27.02507812 36.86511719 -26.08921875 36.03882813 -25.125 35.1875 C-23.292878 33.49650785 -21.46462166 31.80131591 -19.640625 30.1015625 C-18.79443604 29.31668457 -17.94824707 28.53180664 -17.07641602 27.72314453 C-12.0477874 22.78764899 -9.98895837 18.62791906 -9.875 11.5625 C-10.96701011 9.26620042 -10.96701011 9.26620042 -12.875 7.5625 C-15.18590728 7.01336421 -15.18590728 7.01336421 -17.76171875 7.171875 C-18.69951172 7.18476562 -19.63730469 7.19765625 -20.60351562 7.2109375 C-21.57998047 7.24445313 -22.55644531 7.27796875 -23.5625 7.3125 C-24.55056641 7.33054687 -25.53863281 7.34859375 -26.55664062 7.3671875 C-28.99650686 7.41433467 -31.43587519 7.48607833 -33.875 7.5625 C-33.875 4.2625 -33.875 0.9625 -33.875 -2.4375 C-23.47091563 -7.31441455 -9.01006616 -7.63896913 0 0 Z " fill="#F6D7B0" transform="translate(219.875,74.4375)"/>
<path d="M0 0 C6.0328125 -0.0928125 6.0328125 -0.0928125 12.1875 -0.1875 C14.07698364 -0.22846802 14.07698364 -0.22846802 16.00463867 -0.27026367 C17.50861206 -0.28150269 17.50861206 -0.28150269 19.04296875 -0.29296875 C20.06414795 -0.3086792 21.08532715 -0.32438965 22.13745117 -0.34057617 C26.66994332 0.19868409 30.09895026 2.51874031 33 6 C34.20643566 9.61930698 34.32268559 12.19231005 34 16 C31.68511818 20.54072972 28.79637871 24.08664315 24 26 C19.85933966 26.48294156 15.78629296 26.37645586 11.625 26.25 C7.78875 26.1675 3.9525 26.085 0 26 C0 17.42 0 8.84 0 0 Z " fill="#0A0806" transform="translate(106,137)"/>
<path d="M0 0 C2.805 -0.0825 5.61 -0.165 8.5 -0.25 C9.8003418 -0.30462402 9.8003418 -0.30462402 11.12695312 -0.36035156 C16.85276526 -0.44081402 21.26752965 0.67977023 26 4 C28.52861959 7.37149279 29.2409869 9.93462758 29 14.0625 C28.27467966 18.26935799 26.36300927 20.35763557 23 23 C20.11734851 23.96088383 18.32337729 24.11670941 15.33203125 24.09765625 C14.52741455 24.09515869 13.72279785 24.09266113 12.89379883 24.09008789 C11.36855591 24.07643188 11.36855591 24.07643188 9.8125 24.0625 C4.9553125 24.0315625 4.9553125 24.0315625 0 24 C0 16.08 0 8.16 0 0 Z " fill="#080604" transform="translate(105,100)"/>
<path d="M0 0 C3.06398451 -0.13530844 6.12197126 -0.2342407 9.1875 -0.3125 C10.05181641 -0.35439453 10.91613281 -0.39628906 11.80664062 -0.43945312 C16.33905388 -0.52628097 18.35453644 -0.47800072 22.1015625 2.296875 C24 5 24 5 24.1875 8.5625 C22.64450487 13.02906484 21.1647554 13.84517145 17 16 C14.01688515 16.45321541 11.13319391 16.38256448 8.125 16.25 C6.949375 16.22292969 6.949375 16.22292969 5.75 16.1953125 C3.83279811 16.14855148 1.91623285 16.07682003 0 16 C0 10.72 0 5.44 0 0 Z " fill="#F4B04E" transform="translate(111,142)"/>
<path d="M0 0 C12.2920399 -0.40523208 12.2920399 -0.40523208 17 3 C19 5 19 5 19.4375 7.375 C19 10 19 10 16.9296875 12.1484375 C11.66825988 15.47365976 6.06982536 14.22690936 0 14 C0 9.38 0 4.76 0 0 Z " fill="#F6B24F" transform="translate(110,105)"/>
</svg>
