<svg width="32" height="32" viewBox="0 0 32 32" fill="none" xmlns="http://www.w3.org/2000/svg">
<path d="M0 4C0 1.79086 1.79086 0 4 0H28C30.2091 0 32 1.79086 32 4V28C32 30.2091 30.2091 32 28 32H4C1.79086 32 0 30.2091 0 28V4Z" fill="#030206"/>
<path d="M22.2622 8.21136L19.665 10.8085L22.2622 13.4056L24.8593 10.8085L22.2622 8.21136Z" fill="#030206"/>
<path d="M22.2629 8.27656L24.7948 10.8085L22.2629 13.3404L19.731 10.8085L22.2629 8.27656ZM22.2629 8.14616L19.6006 10.8085L22.2629 13.4708L24.9252 10.8085L22.2629 8.14616Z" fill="#F3FF97"/>
<path d="M22.0014 7.96686L19.4043 10.564L22.0014 13.1611L24.5985 10.564L22.0014 7.96686Z" fill="#030206"/>
<path d="M22.0012 8.03206L24.5331 10.564L22.0012 13.0959L19.4693 10.564L22.0012 8.03206ZM22.0012 7.90166L19.3389 10.564L22.0012 13.2263L24.6635 10.564L22.0012 7.90166Z" fill="#F3FF97"/>
<path d="M21.7348 7.73323L19.1377 10.3303L21.7348 12.9275L24.3319 10.3303L21.7348 7.73323Z" fill="#030206"/>
<path d="M21.7356 7.79842L24.2675 10.3303L21.7356 12.8623L19.2036 10.3303L21.7356 7.79299V7.79842ZM21.7356 7.66802L19.0732 10.3303L21.7356 12.9927L24.3979 10.3303L21.7356 7.66802Z" fill="#F3FF97"/>
<path d="M21.4584 7.5159L18.8613 10.113L21.4584 12.7101L24.0556 10.113L21.4584 7.5159Z" fill="#030206"/>
<path d="M21.4514 7.58108L23.9833 10.113L21.4514 12.6449L18.9195 10.113L21.4514 7.58108ZM21.4514 7.45068L18.7891 10.113L21.4514 12.7753L24.1137 10.113L21.4514 7.45068Z" fill="#F3FF97"/>
<path d="M21.1752 7.31486L18.5781 9.91198L21.1752 12.5091L23.7724 9.91198L21.1752 7.31486Z" fill="#030206"/>
<path d="M21.1701 7.37464L23.7021 9.90656L21.1701 12.4385L18.6382 9.90656L21.1701 7.37464ZM21.1701 7.24967L18.5078 9.91199L21.1701 12.5743L23.8325 9.91199L21.1701 7.24967Z" fill="#F3FF97"/>
<path d="M20.8764 7.1247L18.2793 9.72182L20.8764 12.3189L23.4735 9.72182L20.8764 7.1247Z" fill="#030206"/>
<path d="M20.883 7.1899L23.4149 9.72182L20.883 12.2537L18.3511 9.72182L20.883 7.1899ZM20.883 7.06493L18.2207 9.72725L20.883 12.3896L23.5453 9.72725L20.883 7.06493Z" fill="#F3FF97"/>
<path d="M20.5776 6.95083L17.9805 9.54795L20.5776 12.1451L23.1747 9.54795L20.5776 6.95083Z" fill="#030206"/>
<path d="M20.5822 7.01603L23.1142 9.54795L20.5822 12.0799L18.0503 9.54795L20.5822 7.01603ZM20.5822 6.89107L17.9199 9.55339L20.5822 12.2157L23.2446 9.55339L20.5822 6.89107Z" fill="#F3FF97"/>
<path d="M20.2729 6.7987L17.6758 9.39582L20.2729 11.9929L22.87 9.39582L20.2729 6.7987Z" fill="#030206"/>
<path d="M20.2795 6.8639L22.8114 9.39582L20.2795 11.9277L17.7476 9.39582L20.2795 6.8639ZM20.2795 6.7335L17.6172 9.39582L20.2795 12.0581L22.9418 9.39582L20.2795 6.7335Z" fill="#F3FF97"/>
<path d="M19.9653 6.652L17.3682 9.24912L19.9653 11.8462L22.5624 9.24912L19.9653 6.652Z" fill="#030206"/>
<path d="M19.9699 6.72263L22.5019 9.25455L19.9699 11.7865L17.438 9.25455L19.9699 6.72263ZM19.9699 6.59223L17.3076 9.25455L19.9699 11.9169L22.6323 9.25455L19.9699 6.59223Z" fill="#F3FF97"/>
<path d="M19.6479 6.52703L17.0508 9.12415L19.6479 11.7213L22.245 9.12415L19.6479 6.52703Z" fill="#030206"/>
<path d="M19.6486 6.59222L22.1806 9.12414L19.6486 11.6615L17.1167 9.12958L19.6486 6.59222ZM19.6486 6.46726L16.9863 9.12958L19.6486 11.7919L22.311 9.12958L19.6486 6.46726Z" fill="#F3FF97"/>
<path d="M19.3334 6.41837L16.7363 9.01549L19.3334 11.6126L21.9306 9.01549L19.3334 6.41837Z" fill="#030206"/>
<path d="M19.3332 6.48357L21.8651 9.01549L19.3332 11.5474L16.8013 9.01549L19.3332 6.48357ZM19.3332 6.35317L16.6709 9.01549L19.3332 11.6778L21.9955 9.01549L19.3332 6.35317Z" fill="#F3FF97"/>
<path d="M19.0073 6.32056L16.4102 8.91768L19.0073 11.5148L21.6044 8.91768L19.0073 6.32056Z" fill="#030206"/>
<path d="M19.009 6.38577L21.5409 8.91769L19.009 11.4496L16.4771 8.91769L19.009 6.38577ZM19.009 6.2608L16.3467 8.92312L19.009 11.5854L21.6713 8.92312L19.009 6.2608Z" fill="#F3FF97"/>
<path d="M18.6811 6.24451L16.084 8.84163L18.6811 11.4387L21.2782 8.84163L18.6811 6.24451Z" fill="#030206"/>
<path d="M18.6828 6.30427L21.2147 8.83619L18.6828 11.3735L16.1509 8.84162L18.6828 6.30427ZM18.6828 6.1793L16.0205 8.84162L18.6828 11.5039L21.3451 8.84162L18.6828 6.1793Z" fill="#F3FF97"/>
<path d="M18.3491 6.17387L15.752 8.77099L18.3491 11.3681L20.9462 8.77099L18.3491 6.17387Z" fill="#030206"/>
<path d="M18.3498 6.23906L20.8817 8.77098L18.3498 11.3029L15.8179 8.77098L18.3498 6.23906ZM18.3498 6.1141L15.6875 8.77642L18.3498 11.4387L21.0121 8.77642L18.3498 6.1141Z" fill="#F3FF97"/>
<path d="M18.019 6.12497L15.4219 8.72209L18.019 11.3192L20.6161 8.72209L18.019 6.12497Z" fill="#030206"/>
<path d="M18.0188 6.19017L20.5507 8.72209L18.0188 11.254L15.4868 8.72209L18.0188 6.19017ZM18.0188 6.05977L15.3564 8.72209L18.0188 11.3844L20.6811 8.72209L18.0188 6.05977Z" fill="#F3FF97"/>
<path d="M17.6879 6.09237L15.0908 8.68949L17.6879 11.2866L20.2851 8.68949L17.6879 6.09237Z" fill="#030206"/>
<path d="M17.6877 6.15214L20.2196 8.68406L17.6877 11.2214L15.1558 8.6895L17.6877 6.15214ZM17.6877 6.02718L15.0254 8.6895L17.6877 11.3518L20.35 8.6895L17.6877 6.02718Z" fill="#F3FF97"/>
<path d="M17.3559 6.07064L14.7588 8.66776L17.3559 11.2649L19.953 8.66776L17.3559 6.07064Z" fill="#030206"/>
<path d="M17.3557 6.1304L19.8876 8.66232L17.3557 11.1942L14.8238 8.66232L17.3557 6.1304ZM17.3557 6.00544L14.6934 8.66776L17.3557 11.3301L20.018 8.66776L17.3557 6.00544Z" fill="#F3FF97"/>
<path d="M17.019 6.0652L14.4219 8.66232L17.019 11.2594L19.6161 8.66232L17.019 6.0652Z" fill="#030206"/>
<path d="M17.0178 6.1304L19.5497 8.66232L17.0178 11.1942L14.4859 8.66232L17.0178 6.1304ZM17.0178 6L14.3555 8.66232L17.0178 11.3246L19.6801 8.66232L17.0178 6Z" fill="#F3FF97"/>
<path d="M16.6821 6.07607L14.085 8.67319L16.6821 11.2703L19.2792 8.67319L16.6821 6.07607Z" fill="#030206"/>
<path d="M16.6828 6.14126L19.2147 8.67318L16.6828 11.2051L14.1509 8.67318L16.6828 6.14126ZM16.6828 6.01086L14.0205 8.67318L16.6828 11.3355L19.3451 8.67318L16.6828 6.01086Z" fill="#F3FF97"/>
<path d="M16.351 6.0978L13.7539 8.69492L16.351 11.292L18.9481 8.69492L16.351 6.0978Z" fill="#030206"/>
<path d="M16.3508 6.16299L18.8827 8.69491L16.3508 11.2268L13.8189 8.69491L16.3508 6.16299ZM16.3508 6.03803L13.6885 8.70035L16.3508 11.3627L19.0131 8.70035L16.3508 6.03803Z" fill="#F3FF97"/>
<path d="M16.0151 6.14127L13.418 8.73839L16.0151 11.3355L18.6122 8.73839L16.0151 6.14127Z" fill="#030206"/>
<path d="M16.0139 6.20647L18.5458 8.73839L16.0139 11.2703L13.482 8.73839L16.0139 6.20647ZM16.0139 6.07607L13.3516 8.73839L16.0139 11.4007L18.6762 8.73839L16.0139 6.07607Z" fill="#F3FF97"/>
<path d="M15.6889 6.1956L13.0918 8.79272L15.6889 11.3898L18.286 8.79272L15.6889 6.1956Z" fill="#030206"/>
<path d="M15.6828 6.2608L18.2147 8.79273L15.6828 11.3246L13.1509 8.79273L15.6828 6.2608ZM15.6828 6.13041L13.0205 8.79273L15.6828 11.455L18.3451 8.79273L15.6828 6.13041Z" fill="#F3FF97"/>
<path d="M15.3569 6.26624L12.7598 8.86336L15.3569 11.4605L17.954 8.86336L15.3569 6.26624Z" fill="#030206"/>
<path d="M15.3567 6.33144L17.8886 8.86336L15.3567 11.3953L12.8247 8.86336L15.3567 6.33144ZM15.3567 6.20104L12.6943 8.86336L15.3567 11.5257L18.019 8.86336L15.3567 6.20104Z" fill="#F3FF97"/>
<path d="M15.0307 6.35317L12.4336 8.95029L15.0307 11.5474L17.6278 8.95029L15.0307 6.35317Z" fill="#030206"/>
<path d="M15.0305 6.41837L17.5624 8.95029L15.0305 11.4822L12.4986 8.95029L15.0305 6.41837ZM15.0305 6.28797L12.3682 8.95029L15.0305 11.6126L17.6928 8.95029L15.0305 6.28797Z" fill="#F3FF97"/>
<path d="M14.7114 6.4564L12.1143 9.05352L14.7114 11.6506L17.3085 9.05352L14.7114 6.4564Z" fill="#030206"/>
<path d="M14.7102 6.51616L17.2421 9.04808L14.7102 11.5854L12.1783 9.05351L14.7102 6.51616ZM14.7102 6.39119L12.0479 9.05351L14.7102 11.7158L17.3725 9.05351L14.7102 6.39119Z" fill="#F3FF97"/>
<path d="M14.394 6.5705L11.7969 9.16762L14.394 11.7647L16.9911 9.16762L14.394 6.5705Z" fill="#030206"/>
<path d="M14.3947 6.63027L16.9267 9.16219L14.3947 11.6941L11.8628 9.16219L14.3947 6.63027ZM14.3947 6.5053L11.7324 9.16762L14.3947 11.8299L17.0571 9.16762L14.3947 6.5053Z" fill="#F3FF97"/>
<path d="M14.0795 6.7009L11.4824 9.29802L14.0795 11.8951L16.6767 9.29802L14.0795 6.7009Z" fill="#030206"/>
<path d="M14.0793 6.7661L16.6112 9.29802L14.0793 11.8299L11.5474 9.29802L14.0793 6.7661ZM14.0793 6.64114L11.417 9.30346L14.0793 11.9658L16.7416 9.30346L14.0793 6.64114Z" fill="#F3FF97"/>
<path d="M13.769 6.8476L11.1719 9.44472L13.769 12.0418L16.3661 9.44472L13.769 6.8476Z" fill="#030206"/>
<path d="M13.7707 6.9128L16.3081 9.44472L13.7762 11.9766L11.2388 9.44472L13.7707 6.9128ZM13.7707 6.7824L11.1084 9.44472L13.7707 12.107L16.433 9.44472L13.7707 6.7824Z" fill="#F3FF97"/>
<path d="M13.4653 7.0106L10.8682 9.60772L13.4653 12.2048L16.0624 9.60772L13.4653 7.0106Z" fill="#030206"/>
<path d="M13.466 7.07036L15.998 9.60228L13.466 12.1342L10.9341 9.60228L13.466 7.07036ZM13.466 6.94539L10.8037 9.60771L13.466 12.27L16.1284 9.60771L13.466 6.94539Z" fill="#F3FF97"/>
<path d="M13.1723 7.18446L10.5752 9.78158L13.1723 12.3787L15.7694 9.78158L13.1723 7.18446Z" fill="#030206"/>
<path d="M13.1721 7.24966L15.704 9.78158L13.1721 12.3189L10.6402 9.78702L13.1721 7.24966ZM13.1721 7.1247L10.5098 9.78702L13.1721 12.4493L15.8344 9.78702L13.1721 7.1247Z" fill="#F3FF97"/>
<path d="M12.8793 7.38007L10.2822 9.97719L12.8793 12.5743L15.4765 9.97719L12.8793 7.38007Z" fill="#030206"/>
<path d="M12.8791 7.44526L15.411 9.97718L12.8791 12.5091L10.3472 9.97718L12.8791 7.44526ZM12.8791 7.31486L10.2168 9.97718L12.8791 12.6395L15.5414 9.97718L12.8737 7.31486H12.8791Z" fill="#F3FF97"/>
<path d="M12.5961 7.58653L9.99902 10.1837L12.5961 12.7808L15.1933 10.1837L12.5961 7.58653Z" fill="#030206"/>
<path d="M12.6018 7.65173L15.1337 10.1836L12.6018 12.721L10.0699 10.1891L12.6018 7.65173ZM12.6018 7.52133L9.93945 10.1836L12.6018 12.846L15.2641 10.1836L12.6018 7.52133Z" fill="#F3FF97"/>
<path d="M12.3237 7.8093L9.72656 10.4064L12.3237 13.0035L14.9208 10.4064L12.3237 7.8093Z" fill="#030206"/>
<path d="M12.3244 7.87449L14.8563 10.4064L12.3244 12.9383L9.79251 10.4064L12.3244 7.87449ZM12.3244 7.74409L9.66211 10.4064L12.3244 13.0687L14.9867 10.4064L12.3244 7.74409Z" fill="#F3FF97"/>
<path d="M12.0581 8.04836L9.46094 10.6455L12.0581 13.2426L14.6552 10.6455L12.0581 8.04836Z" fill="#030206"/>
<path d="M12.0588 8.10813L14.5907 10.64L12.0588 13.1774L9.52688 10.6455L12.0588 8.10813ZM12.0588 7.98316L9.39648 10.6455L12.0588 13.3078L14.7211 10.6455L12.0588 7.98316Z" fill="#F3FF97"/>
<path d="M11.8032 8.29829L9.20605 10.8954L11.8032 13.4925L14.4003 10.8954L11.8032 8.29829Z" fill="#030206"/>
<path d="M11.8029 8.36349L14.3349 10.8954L11.8029 13.4273L9.27102 10.8954L11.8029 8.36349ZM11.8029 8.23853L9.14062 10.9008L11.8029 13.5632L14.4653 10.9008L11.8029 8.23853Z" fill="#F3FF97"/>
<path d="M11.559 8.55909L8.96191 11.1562L11.559 13.7533L14.1562 11.1562L11.559 8.55909Z" fill="#030206"/>
<path d="M11.5588 8.62429L14.0907 11.1562L11.5588 13.6936L9.02688 11.1616L11.5588 8.62429ZM11.5588 8.49932L8.89648 11.1616L11.5588 13.824L14.2211 11.1616L11.5588 8.49932Z" fill="#F3FF97"/>
<path d="M11.3305 8.83618L8.7334 11.4333L11.3305 14.0304L13.9276 11.4333L11.3305 8.83618Z" fill="#030206"/>
<path d="M11.3303 8.9014L13.8622 11.4333L11.3303 13.9652L8.79837 11.4333L11.3303 8.9014ZM11.3303 8.771L8.66797 11.4333L11.3303 14.0956L13.9926 11.4333L11.3303 8.771Z" fill="#F3FF97"/>
<path d="M11.1186 9.11329L8.52148 11.7104L11.1186 14.3075L13.7157 11.7104L11.1186 9.11329Z" fill="#030206"/>
<path d="M11.1194 9.17848L13.6513 11.7104L11.1194 14.2423L8.58743 11.7104L11.1194 9.17848ZM11.1194 9.04808L8.45703 11.7104L11.1194 14.3727L13.7817 11.7104L11.1194 9.04808Z" fill="#F3FF97"/>
<path d="M10.9233 9.40125L8.32617 11.9984L10.9233 14.5955L13.5204 11.9984L10.9233 9.40125Z" fill="#030206"/>
<path d="M10.9231 9.46646L13.455 11.9984L10.9231 14.5303L8.39114 11.9984L10.9231 9.46646ZM10.9231 9.33606L8.26074 11.9984L10.9231 14.6607L13.5854 11.9984L10.9231 9.33606Z" fill="#F3FF97"/>
<path d="M10.7377 9.69464L8.14062 12.2918L10.7377 14.8889L13.3349 12.2918L10.7377 9.69464Z" fill="#030206"/>
<path d="M10.7385 9.75985L13.2704 12.2918L10.7385 14.8237L8.20657 12.2918L10.7385 9.75985ZM10.7385 9.62945L8.07617 12.2918L10.7385 14.9541L13.4008 12.2918L10.7385 9.62945Z" fill="#F3FF97"/>
<path d="M10.5698 9.99891L7.97266 12.596L10.5698 15.1931L13.1669 12.596L10.5698 9.99891Z" fill="#030206"/>
<path d="M10.5695 10.0587L13.1015 12.5906L10.5695 15.1225L8.03763 12.5906L10.5695 10.0587ZM10.5695 9.93372L7.90723 12.596L10.5695 15.2584L13.2319 12.596L10.5695 9.93372Z" fill="#F3FF97"/>
<path d="M10.4174 10.3032L7.82031 12.9003L10.4174 15.4974L13.0146 12.9003L10.4174 10.3032Z" fill="#030206"/>
<path d="M10.4217 10.3684L12.9536 12.9003L10.4217 15.4322L7.88431 12.9003L10.4162 10.3684H10.4217ZM10.4217 10.238L7.75391 12.9057L10.4162 15.5681L13.0785 12.9057L10.4162 10.2434L10.4217 10.238Z" fill="#F3FF97"/>
<path d="M10.2875 10.6129L7.69043 13.21L10.2875 15.8071L12.8847 13.21L10.2875 10.6129Z" fill="#030206"/>
<path d="M10.2873 10.6781L12.8192 13.21L10.2873 15.7419L7.74997 13.21L10.2873 10.6781ZM10.2873 10.5477L7.625 13.21L10.2873 15.8723L12.9496 13.21L10.2873 10.5477Z" fill="#F3FF97"/>
<path d="M10.1625 10.928L7.56543 13.5251L10.1625 16.1222L12.7597 13.5251L10.1625 10.928Z" fill="#030206"/>
<path d="M10.1623 10.9986L12.6942 13.5306L10.1623 16.0625L7.62497 13.5306L10.1623 10.9986ZM10.1623 10.8682L7.5 13.5306L10.1623 16.1929L12.8246 13.5306L10.1623 10.8682Z" fill="#F3FF97"/>
<path d="M10.0586 11.254L7.45605 13.8511L10.0532 16.4482L12.6503 13.8511L10.0532 11.254H10.0586Z" fill="#030206"/>
<path d="M10.0539 11.3138L12.5858 13.8457L10.0539 16.3776L7.522 13.8457L10.0539 11.3138ZM10.0539 11.1888L7.3916 13.8511L10.0539 16.5134L12.7162 13.8511L10.0539 11.1888Z" fill="#F3FF97"/>
<path d="M9.96583 11.5746L7.36328 14.1771L9.9604 16.7742L12.5575 14.1771L9.9604 11.58L9.96583 11.5746Z" fill="#030206"/>
<path d="M9.96701 11.6398L12.4989 14.1717L9.96701 16.7036L7.42965 14.1771L9.96157 11.6452L9.96701 11.6398ZM9.96701 11.5094L7.30469 14.1771L9.96701 16.8394L12.6293 14.1771L9.96701 11.5148V11.5094Z" fill="#F3FF97"/>
<path d="M9.89204 11.906L7.29492 14.5031L9.89204 17.1002L12.4892 14.5031L9.89204 11.906Z" fill="#030206"/>
<path d="M9.89084 11.9712L12.4228 14.5031L9.89084 17.0405L7.35891 14.5031L9.89084 11.9712ZM9.89084 11.8408L7.22852 14.5031L9.89084 17.1654L12.5532 14.5031L9.89084 11.8408Z" fill="#F3FF97"/>
<path d="M9.8315 12.2374L7.23438 14.8346L9.8315 17.4317L12.4286 14.8346L9.8315 12.2374Z" fill="#030206"/>
<path d="M9.83029 12.2972L12.3622 14.8291L9.83029 17.361L7.29293 14.8346L9.82485 12.3026L9.83029 12.2972ZM9.83029 12.1722L7.16797 14.8346L9.83029 17.4969L12.4926 14.8346L9.83029 12.1722Z" fill="#F3FF97"/>
<path d="M9.78712 12.5634L7.18457 15.166L9.78169 17.7631L12.3788 15.166L9.78169 12.5689L9.78712 12.5634Z" fill="#030206"/>
<path d="M9.78689 12.6286L12.3188 15.1606L9.78689 17.6925L7.24954 15.166L9.78146 12.6341L9.78689 12.6286ZM9.78689 12.5037L7.11914 15.166L9.78146 17.8283L12.4438 15.166L9.78146 12.5037H9.78689Z" fill="#F3FF97"/>
<path d="M9.75435 12.9003L7.15723 15.4974L9.75435 18.0945L12.3515 15.4974L9.75435 12.9003Z" fill="#030206"/>
<path d="M9.75607 12.9655L12.288 15.4974L9.75607 18.0348L7.22415 15.5029L9.75607 12.9655ZM9.75607 12.8351L7.09375 15.5029L9.75607 18.1652L12.4184 15.5029L9.75607 12.8405V12.8351Z" fill="#F3FF97"/>
<path d="M9.73872 13.2317L7.1416 15.8343L9.73872 18.4314L12.3358 15.8343L9.73872 13.2372V13.2317Z" fill="#030206"/>
<path d="M9.73849 13.2969L12.2704 15.8289L9.73849 18.3608L7.20657 15.8343L9.73849 13.3024V13.2969ZM9.73849 13.172L7.07617 15.8343L9.73849 18.4966L12.4008 15.8343L9.73849 13.172Z" fill="#F3FF97"/>
<path d="M9.73872 13.5686L7.1416 16.1711L9.73872 18.7683L12.3358 16.1711L9.73872 13.574V13.5686Z" fill="#030206"/>
<path d="M9.73849 13.6338L12.2704 16.1657L9.73849 18.6976L7.20657 16.1657L9.73849 13.6338ZM9.73849 13.5034L7.07617 16.1711L9.73849 18.8335L12.4008 16.1711L9.73849 13.5088V13.5034Z" fill="#F3FF97"/>
<path d="M9.7549 13.9L7.15234 16.5026L9.74946 19.0997L12.3466 16.5026L9.74946 13.9055L9.7549 13.9Z" fill="#030206"/>
<path d="M9.75607 13.9652L12.288 16.4971L9.75607 19.0291L7.22415 16.5026L9.75607 13.9707V13.9652ZM9.75607 13.8403L7.09375 16.5026L9.75607 19.1649L12.4184 16.5026L9.75607 13.8403Z" fill="#F3FF97"/>
<path d="M9.78169 14.2369L7.18457 16.834L9.78169 19.4311L12.3788 16.834L9.78169 14.2369Z" fill="#030206"/>
<path d="M9.78689 14.3021L12.3188 16.834L9.78689 19.3659L7.24954 16.834L9.78146 14.3021H9.78689ZM9.78689 14.1717L7.11914 16.834L9.78146 19.4963L12.4438 16.834L9.78146 14.1717H9.78689Z" fill="#F3FF97"/>
<path d="M9.83107 14.5683L7.22852 17.1655L9.82564 19.7626L12.4228 17.1655L9.82564 14.5683H9.83107Z" fill="#030206"/>
<path d="M9.83029 14.6335L12.3622 17.1655L9.83029 19.6974L7.29293 17.1655L9.82485 14.6335H9.83029ZM9.83029 14.5031L7.16797 17.1655L9.83029 19.8278L12.4926 17.1655L9.83029 14.5031Z" fill="#F3FF97"/>
<path d="M9.89204 14.8998L7.29492 17.4969L9.89204 20.094L12.4892 17.4969L9.89204 14.8998Z" fill="#030206"/>
<path d="M9.89084 14.9595L12.4228 17.4914L9.89084 20.0234L7.35891 17.4969L9.89084 14.9595ZM9.89084 14.8346L7.22852 17.4969L9.89084 20.1592L12.5532 17.4969L9.89084 14.8346Z" fill="#F3FF97"/>
<path d="M9.96626 15.2258L7.36914 17.8283L9.96626 20.4254L12.5634 17.8283L9.96626 15.2312V15.2258Z" fill="#030206"/>
<path d="M9.96701 15.291L12.4989 17.8229L9.96701 20.3548L7.42965 17.8229L9.96157 15.291H9.96701ZM9.96701 15.166L7.30469 17.8283L9.96701 20.4906L12.6293 17.8283L9.96701 15.166Z" fill="#F3FF97"/>
<path d="M10.0532 15.5518L7.45605 18.1489L10.0532 20.746L12.6503 18.1489L10.0532 15.5518Z" fill="#030206"/>
<path d="M10.0539 15.6169L12.5858 18.1489L10.0539 20.6862L7.522 18.1543L10.0539 15.6169ZM10.0539 15.4865L7.3916 18.1543L10.0539 20.8166L12.7162 18.1543L10.0539 15.492V15.4865Z" fill="#F3FF97"/>
<path d="M10.1625 15.8723L7.56543 18.4694L10.1625 21.0666L12.7597 18.4694L10.1625 15.8723Z" fill="#030206"/>
<path d="M10.1623 15.9321L12.6942 18.464L10.1623 20.9959L7.62497 18.464L10.1623 15.9267V15.9321ZM10.1623 15.8071L7.5 18.4694L10.1623 21.1318L12.8246 18.4694L10.1623 15.8071Z" fill="#F3FF97"/>
<path d="M10.2875 16.1874L7.69043 18.7846L10.2875 21.3817L12.8847 18.7846L10.2875 16.1874Z" fill="#030206"/>
<path d="M10.2873 16.2527L12.8192 18.7846L10.2873 21.3165L7.74997 18.7846L10.2873 16.2527ZM10.2873 16.1223L7.625 18.7846L10.2873 21.4469L12.9496 18.7846L10.2873 16.1223Z" fill="#F3FF97"/>
<path d="M10.4233 16.5026L7.82617 19.0997L10.4233 21.6968L13.0204 19.0997L10.4233 16.5026Z" fill="#030206"/>
<path d="M10.4231 16.5623L12.955 19.0943L10.4231 21.6262L7.89114 19.0943L10.4231 16.5623ZM10.4231 16.4374L7.76074 19.0997L10.4231 21.762L13.0854 19.0997L10.4231 16.4374Z" fill="#F3FF97"/>
<path d="M10.5698 16.8068L7.97266 19.404L10.5698 22.0011L13.1669 19.404L10.5698 16.8068Z" fill="#030206"/>
<path d="M10.5695 16.872L13.1015 19.404L10.5695 21.9359L8.03763 19.404L10.5695 16.872ZM10.5695 16.7416L7.90723 19.404L10.5695 22.0663L13.2319 19.404L10.5695 16.7416Z" fill="#F3FF97"/>
<path d="M10.7377 17.1057L8.14062 19.7028L10.7377 22.2999L13.3349 19.7028L10.7377 17.1057Z" fill="#030206"/>
<path d="M10.7385 17.1709L13.2704 19.7028L10.7385 22.2347L8.20657 19.7028L10.7385 17.1709ZM10.7385 17.0459L8.07617 19.7082L10.7385 22.3706L13.4008 19.7082L10.7385 17.0459Z" fill="#F3FF97"/>
<path d="M10.9233 17.4045L8.32617 20.0016L10.9233 22.5988L13.5204 20.0016L10.9233 17.4045Z" fill="#030206"/>
<path d="M10.9231 17.4643L13.455 19.9962L10.9231 22.5281L8.39114 19.9962L10.9231 17.4643ZM10.9231 17.3393L8.26074 20.0016L10.9231 22.664L13.5854 20.0016L10.9231 17.3393Z" fill="#F3FF97"/>
<path d="M11.1186 17.687L8.52148 20.2842L11.1186 22.8813L13.7157 20.2842L11.1186 17.687Z" fill="#030206"/>
<path d="M11.1194 17.7522L13.6513 20.2842L11.1194 22.8215L8.58743 20.2896L11.1194 17.7522ZM11.1194 17.6273L8.45703 20.2896L11.1194 22.9519L13.7817 20.2896L11.1194 17.6273Z" fill="#F3FF97"/>
<path d="M11.3305 17.9696L8.7334 20.5667L11.3305 23.1638L13.9276 20.5667L11.3305 17.9696Z" fill="#030206"/>
<path d="M11.3303 18.0348L13.8622 20.5667L11.3303 23.0986L8.79837 20.5667L11.3303 18.0348ZM11.3303 17.9044L8.66797 20.5667L11.3303 23.229L13.9926 20.5667L11.3303 17.9044Z" fill="#F3FF97"/>
<path d="M11.559 18.2412L8.96191 20.8384L11.559 23.4355L14.1562 20.8384L11.559 18.2412Z" fill="#030206"/>
<path d="M11.5588 18.3064L14.0907 20.8384L11.5588 23.3703L9.02688 20.8384L11.5588 18.3064ZM11.5588 18.176L8.89648 20.8384L11.5588 23.5007L14.2211 20.8384L11.5588 18.176Z" fill="#F3FF97"/>
<path d="M11.7963 18.502L9.19922 21.0992L11.7963 23.6963L14.3935 21.0992L11.7963 18.502Z" fill="#030206"/>
<path d="M11.8029 18.5672L14.3349 21.0992L11.8029 23.6365L9.27102 21.1046L11.8029 18.5672ZM11.8029 18.4423L9.14062 21.1046L11.8029 23.7669L14.4653 21.1046L11.8029 18.4423Z" fill="#F3FF97"/>
<path d="M12.0581 18.7574L9.46094 21.3545L12.0581 23.9516L14.6552 21.3545L12.0581 18.7574Z" fill="#030206"/>
<path d="M12.0588 18.8226L14.5907 21.3545L12.0588 23.8919L9.52688 21.36L12.0588 18.8226ZM12.0588 18.6922L9.39648 21.3545L12.0588 24.0168L14.7211 21.3545L12.0588 18.6922Z" fill="#F3FF97"/>
<path d="M12.3237 18.991L9.72656 21.5882L12.3237 24.1853L14.9208 21.5882L12.3237 18.991Z" fill="#030206"/>
<path d="M12.3244 19.0617L14.8563 21.5936L12.3244 24.1255L9.79251 21.5936L12.3244 19.0617ZM12.3244 18.9313L9.66211 21.5936L12.3244 24.2559L14.9867 21.5936L12.3244 18.9313Z" fill="#F3FF97"/>
<path d="M12.602 19.2138L10.0049 21.8109L12.602 24.408L15.1991 21.8109L12.602 19.2138Z" fill="#030206"/>
<path d="M12.6018 19.279L15.1337 21.8109L12.6018 24.3483L10.0699 21.8164L12.6018 19.279ZM12.6018 19.154L9.93945 21.8164L12.6018 24.4787L15.2641 21.8164L12.6018 19.154Z" fill="#F3FF97"/>
<path d="M12.8793 19.4257L10.2822 22.0228L12.8793 24.6199L15.4765 22.0228L12.8793 19.4257Z" fill="#030206"/>
<path d="M12.8791 19.4855L15.411 22.0174L12.8791 24.5493L10.3472 22.0174L12.8791 19.4855ZM12.8791 19.3605L10.2168 22.0228L12.8791 24.6851L15.5414 22.0228L12.8737 19.3605H12.8791Z" fill="#F3FF97"/>
<path d="M13.1723 19.6159L10.5752 22.213L13.1723 24.8101L15.7694 22.213L13.1723 19.6159Z" fill="#030206"/>
<path d="M13.1721 19.6811L15.704 22.213L13.1721 24.7503L10.6402 22.2184L13.1721 19.6811ZM13.1721 19.5561L10.5098 22.2184L13.1721 24.8807L15.8344 22.2184L13.1721 19.5561Z" fill="#F3FF97"/>
<path d="M13.4653 19.7952L10.8682 22.3923L13.4653 24.9894L16.0624 22.3923L13.4653 19.7952Z" fill="#030206"/>
<path d="M13.466 19.8604L15.998 22.3923L13.466 24.9242L10.9341 22.3923L13.466 19.8604ZM13.466 19.73L10.8037 22.3923L13.466 25.0546L16.1284 22.3923L13.466 19.73Z" fill="#F3FF97"/>
<path d="M13.769 19.9582L11.1719 22.5553L13.769 25.1524L16.3661 22.5553L13.769 19.9582Z" fill="#030206"/>
<path d="M13.7707 20.0179L16.3081 22.5553L13.7762 25.0872L11.2388 22.5553L13.7707 20.0179ZM13.7707 19.893L11.1084 22.5553L13.7707 25.2176L16.433 22.5553L13.7653 19.893H13.7707Z" fill="#F3FF97"/>
<path d="M14.0795 20.0994L11.4824 22.6965L14.0795 25.2937L16.6767 22.6965L14.0795 20.0994Z" fill="#030206"/>
<path d="M14.0793 20.1646L16.6112 22.6966L14.0793 25.2339L11.5474 22.702L14.0793 20.1646ZM14.0793 20.0397L11.417 22.702L14.0793 25.3643L16.7416 22.702L14.0793 20.0397Z" fill="#F3FF97"/>
<path d="M14.3891 20.2298L11.792 22.8269L14.3891 25.4241L16.9862 22.8269L14.3891 20.2298Z" fill="#030206"/>
<path d="M14.3947 20.3005L16.9267 22.8324L14.3947 25.3643L11.8628 22.8324L14.3947 20.3005ZM14.3947 20.1701L11.7324 22.8324L14.3947 25.4947L17.0571 22.8324L14.3947 20.1701Z" fill="#F3FF97"/>
<path d="M14.7114 20.3494L12.1143 22.9465L14.7114 25.5436L17.3085 22.9465L14.7114 20.3494Z" fill="#030206"/>
<path d="M14.7102 20.4146L17.2421 22.9465L14.7102 25.4838L12.1783 22.9519L14.7102 20.4146ZM14.7102 20.2842L12.0479 22.9465L14.7102 25.6088L17.3725 22.9465L14.7102 20.2842Z" fill="#F3FF97"/>
<path d="M15.0307 20.4526L12.4336 23.0497L15.0307 25.6468L17.6278 23.0497L15.0307 20.4526Z" fill="#030206"/>
<path d="M15.0305 20.5124L17.5624 23.0443L15.0305 25.5762L12.4986 23.0443L15.0305 20.5124ZM15.0305 20.3874L12.3682 23.0497L15.0305 25.712L17.6928 23.0497L15.0305 20.3874Z" fill="#F3FF97"/>
<path d="M15.3569 20.5395L12.7598 23.1366L15.3569 25.7338L17.954 23.1366L15.3569 20.5395Z" fill="#030206"/>
<path d="M15.3567 20.5993L17.8886 23.1312L15.3567 25.6631L12.8247 23.1312L15.3567 20.5993ZM15.3567 20.4743L12.6943 23.1367L15.3567 25.799L18.019 23.1367L15.3567 20.4743Z" fill="#F3FF97"/>
<path d="M15.6821 20.6102L13.085 23.2073L15.6821 25.8044L18.2792 23.2073L15.6821 20.6102Z" fill="#030206"/>
<path d="M15.6828 20.6699L18.2147 23.2018L15.6828 25.7338L13.1509 23.2018L15.6828 20.6699ZM15.6828 20.5395L13.0205 23.2018L15.6828 25.8642L18.3451 23.2018L15.6828 20.5395Z" fill="#F3FF97"/>
<path d="M16.019 20.6645L13.4219 23.2616L16.019 25.8587L18.6161 23.2616L16.019 20.6645Z" fill="#030206"/>
<path d="M16.0139 20.7243L18.5458 23.2562L16.0139 25.7881L13.482 23.2562L16.0139 20.7243ZM16.0139 20.5993L13.3516 23.2616L16.0139 25.9239L18.6762 23.2616L16.0139 20.5993Z" fill="#F3FF97"/>
<path d="M16.351 20.7025L13.7539 23.2996L16.351 25.8968L18.9481 23.2996L16.351 20.7025Z" fill="#030206"/>
<path d="M16.3508 20.7677L18.8827 23.2996L16.3508 25.837L13.8189 23.3051L16.3508 20.7677ZM16.3508 20.6373L13.6885 23.2996L16.3508 25.962L19.0131 23.2996L16.3508 20.6373Z" fill="#F3FF97"/>
<path d="M16.6821 20.7297L14.085 23.3268L16.6821 25.9239L19.2792 23.3268L16.6821 20.7297Z" fill="#030206"/>
<path d="M16.6828 20.7895L19.2147 23.3214L16.6828 25.8533L14.1509 23.3214L16.6828 20.7895ZM16.6828 20.6645L14.0205 23.3268L16.6828 25.9891L19.3451 23.3268L16.6828 20.6645Z" fill="#F3FF97"/>
<path d="M17.019 20.7406L14.4219 23.3377L17.019 25.9348L19.6161 23.3377L17.019 20.7406Z" fill="#030206"/>
<path d="M17.0178 20.8003L19.5497 23.3323L17.0178 25.8642L14.4859 23.3323L17.0178 20.7949V20.8003ZM17.0178 20.6754L14.3555 23.3377L17.0178 26L19.6801 23.3377L17.0178 20.6754Z" fill="#F3FF97"/>
<path d="M17.351 20.7297L14.7539 23.3268L17.351 25.9239L19.9481 23.3268L17.351 20.7297Z" fill="#030206"/>
<path d="M17.3557 20.8003L19.8876 23.3322L17.3557 25.8696L14.8238 23.3377L17.3557 20.8003ZM17.3557 20.6699L14.6934 23.3322L17.3557 25.9946L20.018 23.3322L17.3557 20.6699Z" fill="#F3FF97"/>
<path d="M17.6879 20.7134L15.0908 23.3105L17.6879 25.9076L20.2851 23.3105L17.6879 20.7134Z" fill="#030206"/>
<path d="M17.6877 20.7786L20.2196 23.3105L17.6877 25.8424L15.1558 23.3105L17.6877 20.7786ZM17.6877 20.6482L15.0254 23.3105L17.6877 25.9728L20.35 23.3105L17.6877 20.6482Z" fill="#F3FF97"/>
<path d="M18.019 20.6808L15.4219 23.2779L18.019 25.875L20.6161 23.2779L18.019 20.6808Z" fill="#030206"/>
<path d="M18.0188 20.7406L20.5507 23.2779L18.0188 25.8098L15.4868 23.2779L18.0188 20.7406ZM18.0188 20.6156L15.3564 23.2779L18.0188 25.9402L20.6811 23.2779L18.0188 20.6156Z" fill="#F3FF97"/>
<path d="M18.3491 20.6265L15.752 23.2236L18.3491 25.8207L20.9462 23.2236L18.3491 20.6265Z" fill="#030206"/>
<path d="M18.3498 20.6917L20.8817 23.2236L18.3498 25.7555L15.8179 23.2236L18.3498 20.6917ZM18.3498 20.5613L15.6875 23.2236L18.3498 25.8859L21.0121 23.2236L18.3498 20.5613Z" fill="#F3FF97"/>
<path d="M18.6811 20.5613L16.084 23.1584L18.6811 25.7555L21.2782 23.1584L18.6811 20.5613Z" fill="#030206"/>
<path d="M18.6828 20.6265L21.2147 23.1584L18.6828 25.6903L16.1509 23.1584L18.6828 20.6265ZM18.6828 20.4961L16.0205 23.1584L18.6828 25.8207L21.3451 23.1584L18.6828 20.4961Z" fill="#F3FF97"/>
<path d="M19.0073 20.4798L16.4102 23.0769L19.0073 25.674L21.6044 23.0769L19.0073 20.4798Z" fill="#030206"/>
<path d="M19.009 20.545L21.5409 23.0769L19.009 25.6088L16.4771 23.0769L19.009 20.545ZM19.009 20.4146L16.3467 23.0769L19.009 25.7392L21.6713 23.0769L19.009 20.4146Z" fill="#F3FF97"/>
<path d="M19.3286 20.382L16.7314 22.9791L19.3286 25.5762L21.9257 22.9791L19.3286 20.382Z" fill="#030206"/>
<path d="M19.3332 20.4472L21.8651 22.9791L19.3332 25.511L16.8013 22.9791L19.3332 20.4472ZM19.3332 20.3222L16.6709 22.9845L19.3332 25.6468L21.9955 22.9845L19.3332 20.3222Z" fill="#F3FF97"/>
<path d="M19.6479 20.2733L17.0508 22.8704L19.6479 25.4675L22.245 22.8704L19.6479 20.2733Z" fill="#030206"/>
<path d="M19.6486 20.3385L22.1806 22.8704L19.6486 25.4078L17.1167 22.8759L19.6486 20.3385ZM19.6486 20.2081L16.9863 22.8704L19.6486 25.5327L22.311 22.8704L19.6486 20.2081Z" fill="#F3FF97"/>
<path d="M19.9692 20.1483L17.3721 22.7455L19.9692 25.3426L22.5663 22.7455L19.9692 20.1483Z" fill="#030206"/>
<path d="M19.9699 20.2081L22.5019 22.74L19.9699 25.2719L17.438 22.74L19.9699 20.2081ZM19.9699 20.0831L17.3076 22.7455L19.9699 25.4078L22.6323 22.7455L19.9699 20.0831Z" fill="#F3FF97"/>
<path d="M20.2788 20.0071L17.6816 22.6042L20.2788 25.2013L22.8759 22.6042L20.2788 20.0071Z" fill="#030206"/>
<path d="M20.2795 20.0668L22.8114 22.5988L20.2795 25.1307L17.7476 22.5988L20.2795 20.0668ZM20.2795 19.9419L17.6172 22.6042L20.2795 25.2665L22.9418 22.6042L20.2795 19.9419Z" fill="#F3FF97"/>
<path d="M20.5834 19.8495L17.9863 22.4466L20.5834 25.0438L23.1806 22.4466L20.5834 19.8495Z" fill="#030206"/>
<path d="M20.5822 19.9147L23.1142 22.4466L20.5822 24.9785L18.0503 22.4466L20.5822 19.9147ZM20.5822 19.7843L17.9199 22.4466L20.5822 25.1089L23.2446 22.4466L20.5822 19.7843Z" fill="#F3FF97"/>
<path d="M20.8823 19.6756L18.2852 22.2728L20.8823 24.8699L23.4794 22.2728L20.8823 19.6756Z" fill="#030206"/>
<path d="M20.883 19.7408L23.4149 22.2728L20.883 24.8047L18.3511 22.2728L20.883 19.7408ZM20.883 19.6159L18.2207 22.2782L20.883 24.9405L23.5453 22.2782L20.883 19.6159Z" fill="#F3FF97"/>
<path d="M21.1704 19.4909L18.5732 22.088L21.1704 24.6851L23.7675 22.088L21.1704 19.4909Z" fill="#030206"/>
<path d="M21.1701 19.5561L23.7021 22.088L21.1701 24.6199L18.6382 22.088L21.1701 19.5561ZM21.1701 19.4257L18.5078 22.088L21.1701 24.7503L23.8325 22.088L21.1701 19.4257Z" fill="#F3FF97"/>
<path d="M21.4536 19.2899L18.8564 21.887L21.4536 24.4841L24.0507 21.887L21.4536 19.2899Z" fill="#030206"/>
<path d="M21.4514 19.3496L23.9833 21.8816L21.4514 24.4189L18.9195 21.887L21.4514 19.3496ZM21.4514 19.2247L18.7891 21.887L21.4514 24.5493L24.1137 21.887L21.4514 19.2247Z" fill="#F3FF97"/>
<path d="M21.7299 19.0725L19.1328 21.6696L21.7299 24.2668L24.3271 21.6696L21.7299 19.0725Z" fill="#030206"/>
<path d="M21.7356 19.1323L24.2675 21.6642L21.7356 24.1961L19.2036 21.6642L21.7356 19.1323ZM21.7356 19.0073L19.0732 21.6697L21.7356 24.332L24.3979 21.6697L21.7356 19.0073Z" fill="#F3FF97"/>
<path d="M22.0014 18.8389L19.4043 21.436L22.0014 24.0331L24.5985 21.436L22.0014 18.8389Z" fill="#030206"/>
<path d="M22.0012 18.9041L24.5331 21.436L22.0012 23.9679L19.4693 21.436L22.0012 18.9041ZM22.0012 18.7737L19.3389 21.436L22.0012 24.0983L24.6635 21.436L22.0012 18.7737Z" fill="#F3FF97"/>
<path d="M22.2622 18.589L19.665 21.1861L22.2622 23.7832L24.8593 21.1861L22.2622 18.589Z" fill="#F3FF97"/>
<path d="M22.2629 18.6542L24.7948 21.1861L22.2629 23.718L19.731 21.1861L22.2629 18.6542ZM22.2629 18.5238L19.6006 21.1861L22.2629 23.8484L24.9252 21.1861L22.2629 18.5238Z" fill="#F3FF97"/>
</svg>
