<svg width="32" height="32" viewBox="0 0 32 32" fill="none" xmlns="http://www.w3.org/2000/svg">
<rect width="32" height="32" rx="4" fill="#002D74"/>
<path d="M7.33887 11.0008V21.0008L15.9982 26L24.6592 21.0008V11.0008L15.9982 6.00001L7.33887 11.0008Z" fill="url(#paint0_linear_7706_11088)"/>
<path d="M20.1545 13.381L11.7861 18.4493V23.569L15.9961 25.9995V20.9537L24.657 15.9995V11.0003L20.1545 8.40108V13.381Z" fill="#002D74"/>
<path d="M11.8413 18.6201L20.2097 13.5518V8.43209L15.9982 6.00001V11.0458L7.33887 16V21.0008L11.8413 23.6V18.6201Z" fill="#002D74"/>
<path d="M20.278 8.47066L15.999 6V11.0458L20.278 13.5325" fill="url(#paint1_linear_7706_11088)"/>
<path d="M15.997 20.9539L11.7196 18.4977L11.71 23.5242L15.997 25.9996" fill="url(#paint2_linear_7706_11088)"/>
<path d="M20.2746 18.4982L15.9988 20.9801L11.7197 18.4982V13.5328L15.9988 11.0461L20.2746 13.5328L18.4919 14.5664L15.9988 13.1181L13.5024 14.5664V17.4647L15.9988 18.913L18.4919 17.4647L20.2746 18.4982Z" fill="white"/>
<path d="M7.33984 11.0008V21.0008L15.9992 26L24.6602 21.0008V11.0008L15.9992 6.00003L7.33984 11.0008Z" stroke="url(#paint3_linear_7706_11088)" stroke-width="0.343555" stroke-miterlimit="10"/>
<defs>
<linearGradient id="paint0_linear_7706_11088" x1="7.33887" y1="16" x2="24.6592" y2="16" gradientUnits="userSpaceOnUse">
<stop stop-color="#14DCFF"/>
<stop offset="0.02" stop-color="#11C9F0"/>
<stop offset="0.07" stop-color="#0DA0CF"/>
<stop offset="0.13" stop-color="#097CB3"/>
<stop offset="0.19" stop-color="#055F9C"/>
<stop offset="0.25" stop-color="#03498A"/>
<stop offset="0.32" stop-color="#01397D"/>
<stop offset="0.4" stop-color="#002F76"/>
<stop offset="0.5" stop-color="#002D74"/>
<stop offset="0.56" stop-color="#003479"/>
<stop offset="0.64" stop-color="#034889"/>
<stop offset="0.74" stop-color="#0668A3"/>
<stop offset="0.85" stop-color="#0C96C7"/>
<stop offset="0.97" stop-color="#12D0F5"/>
<stop offset="0.99" stop-color="#14DCFF"/>
</linearGradient>
<linearGradient id="paint1_linear_7706_11088" x1="17.3798" y1="12.4073" x2="19.6817" y2="4.39897" gradientUnits="userSpaceOnUse">
<stop stop-color="#E344FF"/>
<stop offset="0.04" stop-color="#CD41F1"/>
<stop offset="0.13" stop-color="#9D3CD4"/>
<stop offset="0.23" stop-color="#7338BA"/>
<stop offset="0.33" stop-color="#4F35A4"/>
<stop offset="0.44" stop-color="#323293"/>
<stop offset="0.55" stop-color="#1C2F85"/>
<stop offset="0.67" stop-color="#0C2E7B"/>
<stop offset="0.81" stop-color="#022D75"/>
<stop offset="1" stop-color="#002D74"/>
</linearGradient>
<linearGradient id="paint2_linear_7706_11088" x1="12.4815" y1="24.4999" x2="15.2174" y2="20.028" gradientUnits="userSpaceOnUse">
<stop stop-color="#002D74"/>
<stop offset="0.2" stop-color="#002F73"/>
<stop offset="0.34" stop-color="#033973"/>
<stop offset="0.46" stop-color="#084973"/>
<stop offset="0.58" stop-color="#0E5F73"/>
<stop offset="0.69" stop-color="#177C72"/>
<stop offset="0.8" stop-color="#22A071"/>
<stop offset="0.9" stop-color="#2ECA70"/>
<stop offset="0.99" stop-color="#3CFA70"/>
<stop offset="1" stop-color="#3EFF70"/>
</linearGradient>
<linearGradient id="paint3_linear_7706_11088" x1="15.9992" y1="26.1864" x2="15.9992" y2="5.81517" gradientUnits="userSpaceOnUse">
<stop stop-color="#14DCFF"/>
<stop offset="0.5" stop-color="#3EFF70"/>
<stop offset="1" stop-color="#14DCFF"/>
</linearGradient>
</defs>
</svg>
