<svg width="32" height="32" viewBox="0 0 32 32" fill="none" xmlns="http://www.w3.org/2000/svg">
<rect width="32" height="32" rx="4" fill="#010000"/>
<path fill-rule="evenodd" clip-rule="evenodd" d="M15.9652 6.48924L7.7373 11.2446V20.7554L15.9652 25.5108L24.1931 20.7554V11.2446L15.9652 6.48924ZM16.3107 4.09269C16.0969 3.9691 15.8335 3.9691 15.6196 4.09269L5.83674 9.74676C5.62291 9.87037 5.49121 10.0988 5.49121 10.3459V21.6541C5.49121 21.9012 5.62291 22.1296 5.83674 22.2532L15.6196 27.9073C15.8335 28.0309 16.0969 28.0309 16.3107 27.9073L26.0936 22.2532C26.3075 22.1296 26.4392 21.9012 26.4392 21.6541V10.3459C26.4392 10.0988 26.3075 9.87037 26.0936 9.74676L16.3107 4.09269Z" fill="#FF9211"/>
<path d="M15.9651 9.93443L10.7173 12.9674V19.0333L15.9305 22.0463C15.9519 22.0587 15.9651 22.0815 15.9651 22.1062V23.1448C15.9651 23.198 15.9075 23.2313 15.8614 23.2047L9.93985 19.7822C9.77948 19.6896 9.68066 19.5183 9.68066 19.3329V12.6678C9.68066 12.4824 9.77948 12.3111 9.93985 12.2184L15.7059 8.8859C15.8663 8.79324 16.0639 8.79324 16.2242 8.8859L22.1694 12.3096C22.2152 12.3359 22.2156 12.4018 22.1702 12.4287C21.8194 12.637 21.6397 12.7297 21.2472 12.9482C21.2259 12.96 21.1999 12.9599 21.1788 12.9478L15.9651 9.93443Z" fill="#FF9211"/>
<path d="M16.8291 16.1267C16.8291 16.1012 16.8432 16.0777 16.8658 16.0657L22.0836 13.2855C22.1296 13.261 22.1851 13.2944 22.1851 13.3466V20.1099C22.1851 20.1346 22.1721 20.1574 22.1507 20.1697L16.9329 23.2026C16.8868 23.2294 16.8291 23.1961 16.8291 23.1428V16.1267Z" fill="#FF9211"/>
</svg>