<svg width="32" height="32" viewBox="0 0 32 32" fill="none" xmlns="http://www.w3.org/2000/svg">
<rect width="32" height="32" rx="4" fill="#FF931E"/>
<path d="M16.6751 12.1065L19.0393 12.8816C19.6121 13.0711 19.9245 13.6844 19.7336 14.2529C19.5427 14.8213 18.9247 15.1314 18.3519 14.9419L15.9877 14.1667C15.4149 13.9772 15.1025 13.364 15.2934 12.7955C15.4843 12.227 16.1023 11.917 16.6751 12.1065Z" fill="white"/>
<path d="M15.7376 14.9072L18.1018 15.6824C18.6746 15.8719 18.987 16.4852 18.7961 17.0536C18.6052 17.6221 17.9872 17.9322 17.4144 17.7427L15.0502 16.9675C14.4774 16.778 14.165 16.1648 14.3559 15.5963C14.5468 15.0278 15.1648 14.7177 15.7376 14.9072Z" fill="white"/>
<path d="M17.8724 9.38771L19.7054 9.99063C20.2782 10.1801 20.5906 10.7934 20.3997 11.3618C20.2088 11.9303 19.5908 12.2404 19.018 12.0509L17.185 11.448C16.6122 11.2585 16.2997 10.6452 16.4907 10.0768C16.6816 9.50829 17.2996 9.19822 17.8724 9.38771Z" fill="white"/>
<path d="M19.3372 6.7588L20.1114 7.01375C20.6842 7.20324 20.9966 7.8165 20.8057 8.38497C20.6148 8.95344 19.9968 9.26351 19.424 9.07402L18.6498 8.81907C18.077 8.62958 17.7646 8.01633 17.9555 7.44786C18.1465 6.87939 18.7644 6.56931 19.3372 6.7588Z" fill="white"/>
<path d="M20.2259 4.08302L21.0001 4.33797C21.5729 4.52746 21.8853 5.14072 21.6944 5.70919C21.5034 6.27766 20.8855 6.58773 20.3127 6.39824L19.5385 6.14329C18.9657 5.9538 18.6532 5.34054 18.8442 4.77207C19.0351 4.2036 19.6531 3.89353 20.2259 4.08302Z" fill="white"/>
<path d="M21.3336 13.6221L20.2955 13.281C20.2574 13.2672 20.2157 13.2569 20.1775 13.25C20.6774 13.4774 20.6705 13.9597 20.4934 14.4903C20.3164 15.0209 20.0317 15.4102 19.4971 15.2999C19.5353 15.3172 19.5734 15.3309 19.6116 15.3447L20.6496 15.6858C21.2225 15.8753 21.8439 15.5652 22.0313 14.9968C22.2223 14.4283 21.9098 13.8116 21.337 13.6255L21.3336 13.6221Z" fill="white"/>
<path d="M20.5669 16.626L19.5289 16.2849C19.4908 16.2711 19.4491 16.2608 19.4109 16.2539C19.9108 16.4813 19.9039 16.9636 19.7268 17.4942C19.5498 18.0248 19.2651 18.4141 18.7305 18.3038C18.7687 18.3211 18.8068 18.3349 18.845 18.3486L19.883 18.6897C20.4559 18.8792 21.0773 18.5691 21.2647 18.0007C21.4557 17.4322 21.1432 16.8155 20.5704 16.6294L20.5669 16.626Z" fill="white"/>
<path d="M22.0396 10.7432L21.0016 10.4021C20.9634 10.3883 20.9217 10.378 20.8836 10.3711C21.3835 10.5985 21.3765 11.0808 21.1995 11.6114C21.0224 12.142 20.7378 12.5313 20.2031 12.421C20.2413 12.4383 20.2795 12.452 20.3177 12.4658L21.3557 12.8069C21.9285 12.9964 22.5499 12.6863 22.7374 12.1178C22.9283 11.5494 22.6159 10.9327 22.0431 10.7466L22.0396 10.7432Z" fill="white"/>
<path d="M22.314 7.72365L21.276 7.38257C21.2378 7.36879 21.1962 7.35845 21.158 7.35156C21.6579 7.57895 21.6509 8.06129 21.4739 8.59186C21.2968 9.12243 21.0122 9.51175 20.4775 9.4015C20.5157 9.41873 20.5539 9.43251 20.5921 9.44629L21.6301 9.78737C22.2029 9.97686 22.8243 9.66679 23.0118 9.09832C23.2028 8.52985 22.8903 7.91314 22.3175 7.7271L22.314 7.72365Z" fill="white"/>
<path d="M16.5088 8.10768L17.5468 8.44876C17.585 8.46254 17.6266 8.47288 17.6648 8.47977C17.1649 8.25238 17.1719 7.77004 17.3489 7.23947C17.526 6.7089 17.8106 6.31958 18.3453 6.42983C18.3071 6.4126 18.2689 6.39882 18.2307 6.38504L17.1927 6.04396C16.6199 5.85447 15.9985 6.16454 15.811 6.73301C15.62 7.30148 15.9325 7.91819 16.5053 8.10423L16.5088 8.10768Z" fill="white"/>
<path d="M14.998 10.7249L16.036 11.0659C16.0742 11.0797 16.1159 11.0901 16.1541 11.097C15.6542 10.8696 15.6611 10.3872 15.8382 9.85666C16.0152 9.32608 16.2999 8.93677 16.8345 9.04702C16.7963 9.02979 16.7581 9.01601 16.72 9.00223L15.6819 8.66115C15.1091 8.47166 14.4877 8.78173 14.3002 9.3502C14.1093 9.91867 14.4217 10.5354 14.9946 10.7214L14.998 10.7249Z" fill="white"/>
<path d="M13.707 13.4124L14.745 13.7534C14.7832 13.7672 14.8249 13.7776 14.8631 13.7845C14.3632 13.5571 14.3701 13.0747 14.5472 12.5442C14.7242 12.0136 15.0089 11.6243 15.5435 11.7345C15.5053 11.7173 15.4671 11.7035 15.4289 11.6897L14.3909 11.3486C13.8181 11.1592 13.1967 11.4692 13.0092 12.0377C12.8183 12.6062 13.1307 13.2229 13.7035 13.4089L13.707 13.4124Z" fill="white"/>
<path d="M14.408 27.9707C14.0262 27.9707 13.5992 27.9087 13.1409 27.7916C12.0474 27.5091 11.3461 26.9923 11.0545 26.2619C10.7976 25.621 10.9364 25.0009 11.0892 24.6116C9.7179 22.7959 9.05482 21.4661 8.9472 20.336C8.83611 19.1612 9.3395 18.3963 9.82899 17.6556C10.0789 17.28 10.3358 16.8907 10.5198 16.4291C10.9295 15.4058 10.4539 13.2732 10.256 12.9321C10.2872 12.9838 9.64847 11.8951 9.88454 11.9123H10.7524C12.2799 12.0157 13.4707 12.6117 14.29 13.6901C15.4495 15.2163 15.5849 17.3731 15.5016 18.8855C15.8383 18.6478 16.2202 18.4135 16.6333 18.193C17.8901 17.5212 19.1433 17.094 20.0772 17.1353C21.011 17.1767 20.4556 17.1526 20.6257 17.1836C21.4901 17.3455 21.9102 17.7934 22.115 18.1379C22.5906 18.9544 22.2886 19.8916 22.2504 19.9949L21.9414 20.8804L21.2506 20.2602C21.1673 20.1913 20.8791 19.9984 20.6257 19.9984C20.2195 19.9984 19.8724 20.6185 19.671 21.6969C19.3377 23.4884 18.4733 24.4531 17.8068 24.9458C17.47 25.1938 17.1506 25.3523 16.8937 25.4522C16.8937 25.9656 16.7757 26.6615 16.2931 27.2128C15.9876 27.5573 15.4183 27.9707 14.4185 27.9707H14.408Z" fill="#FF931E"/>
<path d="M11.8112 24.535C11.8112 24.535 10.5822 26.4851 13.2935 27.1913C16.0049 27.8976 16.3798 26.1026 16.2271 25.0002C16.2271 25.0002 18.4697 24.6763 19.0425 21.5893C19.6917 18.0993 21.6462 19.7978 21.6462 19.7978C21.6462 19.7978 22.2017 18.2888 20.4624 18.0028C18.7231 17.7168 15.2064 19.877 14.519 21.0622C14.519 21.0622 15.7514 13.2552 10.6968 12.5352C10.9328 12.5558 11.6376 15.2914 11.0891 16.6591C10.1552 18.9916 7.79451 19.3568 11.8077 24.5385H11.8112V24.535Z" fill="white"/>
<path d="M14.0049 24.5718C14.0049 24.5718 15.3762 25.2884 18.2125 24.7751C21.0488 24.2617 21.4931 24.9577 21.4931 24.9577L18.2125 25.4882C18.2125 25.4882 15.0637 26.136 14.0049 24.5684V24.5718Z" fill="#FF931E"/>
<path d="M15.5426 18.0059L16.4383 18.2987L15.4385 19.0119L15.5426 18.0059Z" fill="white"/>
</svg>
