<?xml version="1.0" encoding="UTF-8"?>
<svg xmlns="http://www.w3.org/2000/svg" version="1.1" viewBox="0 0 1063.3 1080">
  <defs>
    <style>
      .cls-1 {
        fill: #ff931e;
      }

      .cls-2 {
        fill: #fff;
      }
    </style>
  </defs>
  <!-- Generator: Adobe Illustrator 28.6.0, SVG Export Plug-In . SVG Version: 1.2.0 Build 709)  -->
  <g>
    <g id="Layer_1">
      <g id="Layer_1-2" data-name="Layer_1">
        <g id="Layer_1-2">
          <g>
            <circle class="cls-1" cx="526.8" cy="538" r="469.3"/>
            <g>
              <path class="cls-2" d="M516.2,455.4l68.1,22.5c16.5,5.5,25.5,23.3,20,39.8h0c-5.5,16.5-23.3,25.5-39.8,20l-68.1-22.5c-16.5-5.5-25.5-23.3-20-39.8h0c5.5-16.5,23.3-25.5,39.8-20h0Z"/>
              <path class="cls-2" d="M489.2,536.7l68.1,22.5c16.5,5.5,25.5,23.3,20,39.8h0c-5.5,16.5-23.3,25.5-39.8,20l-68.1-22.5c-16.5-5.5-25.5-23.3-20-39.8h0c5.5-16.5,23.3-25.5,39.8-20h0Z"/>
              <path class="cls-2" d="M550.7,376.5l52.8,17.5c16.5,5.5,25.5,23.3,20,39.8h0c-5.5,16.5-23.3,25.5-39.8,20l-52.8-17.5c-16.5-5.5-25.5-23.3-20-39.8h0c5.5-16.5,23.3-25.5,39.8-20Z"/>
              <path class="cls-2" d="M592.9,300.2l22.3,7.4c16.5,5.5,25.5,23.3,20,39.8h0c-5.5,16.5-23.3,25.5-39.8,20l-22.3-7.4c-16.5-5.5-25.5-23.3-20-39.8h0c5.5-16.5,23.3-25.5,39.8-20Z"/>
              <path class="cls-2" d="M618.5,222.5l22.3,7.4c16.5,5.5,25.5,23.3,20,39.8h0c-5.5,16.5-23.3,25.5-39.8,20l-22.3-7.4c-16.5-5.5-25.5-23.3-20-39.8h0c5.5-16.5,23.3-25.5,39.8-20h0Z"/>
              <path class="cls-2" d="M650.4,499.4l-29.9-9.9c-1.1-.4-2.3-.7-3.4-.9,14.4,6.6,14.2,20.6,9.1,36h0c-5.1,15.4-13.3,26.7-28.7,23.5,1.1.5,2.2.9,3.3,1.3l29.9,9.9c16.5,5.5,34.4-3.5,39.8-20h0c5.5-16.5-3.5-34.4-20-39.8h0Z"/>
              <path class="cls-2" d="M628.3,586.6l-29.9-9.9c-1.1-.4-2.3-.7-3.4-.9,14.4,6.6,14.2,20.6,9.1,36h0c-5.1,15.4-13.3,26.7-28.7,23.5,1.1.5,2.2.9,3.3,1.3l29.9,9.9c16.5,5.5,34.4-3.5,39.8-20h0c5.5-16.5-3.5-34.4-20-39.8h0Z"/>
              <path class="cls-2" d="M670.7,415.8l-29.9-9.9c-1.1-.4-2.3-.7-3.4-.9,14.4,6.6,14.2,20.6,9.1,36h0c-5.1,15.4-13.3,26.7-28.7,23.5,1.1.5,2.2.9,3.3,1.3l29.9,9.9c16.5,5.5,34.4-3.5,39.8-20h0c5.5-16.5-3.5-34.4-20-39.8h0Z"/>
              <path class="cls-2" d="M678.6,328.2l-29.9-9.9c-1.1-.4-2.3-.7-3.4-.9,14.4,6.6,14.2,20.6,9.1,36h0c-5.1,15.4-13.3,26.7-28.7,23.5,1.1.5,2.2.9,3.3,1.3l29.9,9.9c16.5,5.5,34.4-3.5,39.8-20h0c5.5-16.5-3.5-34.4-20-39.8h0Z"/>
              <path class="cls-2" d="M511.4,339.3l29.9,9.9c1.1.4,2.3.7,3.4.9-14.4-6.6-14.2-20.6-9.1-36h0c5.1-15.4,13.3-26.7,28.7-23.5-1.1-.5-2.2-.9-3.3-1.3l-29.9-9.9c-16.5-5.5-34.4,3.5-39.8,20h0c-5.5,16.5,3.5,34.4,20,39.8h0Z"/>
              <path class="cls-2" d="M467.9,415.3l29.9,9.9c1.1.4,2.3.7,3.4.9-14.4-6.6-14.2-20.6-9.1-36h0c5.1-15.4,13.3-26.7,28.7-23.5-1.1-.5-2.2-.9-3.3-1.3l-29.9-9.9c-16.5-5.5-34.4,3.5-39.8,20h0c-5.5,16.5,3.5,34.4,20,39.8h0Z"/>
              <path class="cls-2" d="M430.7,493.3l29.9,9.9c1.1.4,2.3.7,3.4.9-14.4-6.6-14.2-20.6-9.1-36h0c5.1-15.4,13.3-26.7,28.7-23.5-1.1-.5-2.2-.9-3.3-1.3l-29.9-9.9c-16.5-5.5-34.4,3.5-39.8,20h0c-5.5,16.5,3.5,34.4,20,39.8h0Z"/>
            </g>
            <path class="cls-1" d="M450.9,915.8c-11,0-23.3-1.8-36.5-5.2-31.5-8.2-51.7-23.2-60.1-44.4-7.4-18.6-3.4-36.6,1-47.9-39.5-52.7-58.6-91.3-61.7-124.1-3.2-34.1,11.3-56.3,25.4-77.8,7.2-10.9,14.6-22.2,19.9-35.6,11.8-29.7-1.9-91.6-7.6-101.5.9,1.5-17.5-30.1-10.7-29.6h25c44,3,78.3,20.3,101.9,51.6,33.4,44.3,37.3,106.9,34.9,150.8,9.7-6.9,20.7-13.7,32.6-20.1,36.2-19.5,72.3-31.9,99.2-30.7s10.9.5,15.8,1.4c24.9,4.7,37,17.7,42.9,27.7,13.7,23.7,5,50.9,3.9,53.9l-8.9,25.7-19.9-18c-2.4-2-10.7-7.6-18-7.6-11.7,0-21.7,18-27.5,49.3-9.6,52-34.5,80-53.7,94.3-9.7,7.2-18.9,11.8-26.3,14.7,0,14.9-3.4,35.1-17.3,51.1-8.8,10-25.2,22-54,22h-.3,0Z"/>
            <path class="cls-2" d="M376.1,816.1s-35.4,56.6,42.7,77.1,88.9-31.6,84.5-63.6c0,0,64.6-9.4,81.1-99,18.7-101.3,75-52,75-52,0,0,16-43.8-34.1-52.1s-151.4,54.4-171.2,88.8c0,0,35.5-226.6-110.1-247.5,6.8.6,27.1,80,11.3,119.7-26.9,67.7-94.9,78.3,20.7,228.7h.1,0Z"/>
            <path class="cls-1" d="M439.3,817.2s39.5,20.8,121.2,5.9,94.5,5.3,94.5,5.3l-94.5,15.4s-90.7,18.8-121.2-26.7h0Z"/>
            <polygon class="cls-2" points="483.6 626.6 509.4 635.1 480.6 655.8 483.6 626.6"/>
          </g>
        </g>
      </g>
    </g>
  </g>
</svg>