<?xml version="1.0" encoding="UTF-8"?>
<svg version="1.1" xmlns="http://www.w3.org/2000/svg" width="200" height="200">
<path d="M0 0 C1.25296875 0.4125 2.5059375 0.825 3.796875 1.25 C28.74462541 10.06760046 48.21993996 28.50355897 60.08447266 52.01074219 C70.70512729 75.08730057 73.09510894 102.81586203 65 127 C64.5875 128.25296875 64.175 129.5059375 63.75 130.796875 C54.93239954 155.74462541 36.49644103 175.21993996 12.98925781 187.08447266 C-10.08730057 197.70512729 -37.81586203 200.09510894 -62 192 C-63.87945312 191.38125 -63.87945312 191.38125 -65.796875 190.75 C-90.74462541 181.93239954 -110.21993996 163.49644103 -122.08447266 139.98925781 C-132.70512729 116.91269943 -135.09510894 89.18413797 -127 65 C-126.5875 63.74703125 -126.175 62.4940625 -125.75 61.203125 C-116.93239954 36.25537459 -98.49644103 16.78006004 -74.98925781 4.91552734 C-51.91269943 -5.70512729 -24.18413797 -8.09510894 0 0 Z " fill="#FDFDFD" transform="translate(131,4)"/>
<path d="M0 0 C7.57900731 5.83360995 13.69268287 11.63205417 18.52734375 19.9453125 C16.34217276 22.35106857 14.26814704 23.74066831 11.33984375 25.1328125 C10.26669922 25.64908203 10.26669922 25.64908203 9.171875 26.17578125 C8.62917969 26.42972656 8.08648437 26.68367188 7.52734375 26.9453125 C7.11484375 26.37683594 6.70234375 25.80835938 6.27734375 25.22265625 C-2.1871347 13.9051951 -12.60171703 5.43848669 -26.98046875 3.1875 C-41.50357322 1.77616383 -54.27985057 4.19516662 -66.20703125 12.953125 C-75.81500115 21.07622682 -83.2456454 32.18439967 -84.47265625 44.9453125 C-85.1988892 60.55932094 -82.1793575 74.16134563 -71.47265625 85.9453125 C-63.02595758 94.84809641 -51.85254923 100.35827158 -39.6015625 101.125 C-25.12704705 101.45689972 -12.2608864 97.87288607 -1.47265625 87.9453125 C0.43457084 85.93068815 2.25049568 83.87870389 4.01953125 81.7421875 C5.42996231 80.06136292 6.97581434 78.49684191 8.52734375 76.9453125 C11.82734375 78.9253125 15.12734375 80.9053125 18.52734375 82.9453125 C11.87033445 97.32361785 -1.56691931 106.41931479 -16.03125 111.91796875 C-31.43973963 116.61701169 -49.18267256 115.31884358 -63.640625 108.4375 C-79.54607333 99.76913146 -90.98942055 85.99789933 -96.28515625 68.6328125 C-100.23167594 51.05492306 -98.03087576 33.07198347 -88.44921875 17.76171875 C-79.03221351 4.34341681 -65.23967741 -6.33781066 -48.92456055 -9.6730957 C-31.66015934 -12.35996806 -14.509876 -10.08054543 0 0 Z " fill="#040404" transform="translate(135.47265625,48.0546875)"/>
<path d="M0 0 C2.96912882 1.38980498 4.69657028 2.69657028 7 5 C9.26267725 5.33085773 9.26267725 5.33085773 11.90869141 5.31884766 C12.92959869 5.33871735 13.95050598 5.35858704 15.00234985 5.37905884 C16.10759003 5.39061005 17.2128302 5.40216125 18.3515625 5.4140625 C20.04531509 5.44311172 20.04531509 5.44311172 21.77328491 5.4727478 C25.39044572 5.53267069 29.00763813 5.57898002 32.625 5.625 C35.07293078 5.66316805 37.52084796 5.70221908 39.96875 5.7421875 C45.97905662 5.83838276 51.98942611 5.92236684 58 6 C58 9.96 58 13.92 58 18 C56.48647949 18.00410889 54.97295898 18.00821777 53.41357422 18.01245117 C47.78871788 18.03425163 42.16456012 18.08855232 36.54003906 18.15258789 C34.10749007 18.17575965 31.67484087 18.19016164 29.2421875 18.19555664 C25.74155282 18.20485163 22.2424926 18.24585813 18.7421875 18.29296875 C17.65759247 18.2890361 16.57299744 18.28510345 15.45553589 18.28105164 C8.75327489 18.41004683 5.69117598 19.17145914 1 24 C-3.07171372 25.05516971 -7.20002672 24.98509604 -10.94140625 22.9375 C-13.86697988 20.56884279 -15.798411 18.60119265 -16.2734375 14.828125 C-16.58137554 7.01123631 -16.58137554 7.01123631 -13.625 3.4375 C-9.29147956 -0.58648326 -5.73211646 -0.57519508 0 0 Z " fill="#010101" transform="translate(104,88)"/>
</svg>
