<svg width="32" height="32" viewBox="0 0 32 32" fill="none" xmlns="http://www.w3.org/2000/svg">
<rect width="32" height="32" rx="4" fill="#002D74"/>
<path d="M16.0041 5.99999L7.49023 11.002V21.0019L16.0041 26L24.5103 21.0019V11.002L16.0041 5.99999ZM21.9916 19.5196L16.0041 23.0353L10.0147 19.5196V12.4804L16.0041 8.9647L21.9916 12.4804V19.5196Z" fill="white"/>
<path d="M16.0039 26L24.5101 21.0019V11.002L16.0039 5.99999V8.96666L21.9914 12.4823V19.5216L16.0039 23.0353V25.998V26Z" fill="white"/>
<path d="M15.9964 5.99999L7.49023 10.9981V20.998L15.9964 26V23.0333L10.0089 19.5176V12.4784L15.9964 8.9647V5.99999Z" fill="white"/>
<path d="M19.9736 18.337L16 20.6703L12.0225 18.337V13.6664L16 11.3292L19.9736 13.6664L18.3202 14.639L16 13.2743L13.6798 14.639V17.3606L16 18.7253L18.3202 17.3606L19.9736 18.337Z" fill="white"/>
</svg>
