<svg width="32" height="32" viewBox="0 0 32 32" fill="none" xmlns="http://www.w3.org/2000/svg">
<rect width="32" height="32" rx="4" fill="#262626"/>
<path d="M17.8256 15.1193C17.5762 15.1193 17.3271 15.0242 17.1369 14.8339C16.7564 14.4535 16.7564 13.837 17.1369 13.4566L19.6554 10.9381C20.0359 10.5576 20.6523 10.5576 21.0328 10.9381C21.4133 11.3185 21.4133 11.935 21.0328 12.3154L18.5143 14.8339C18.3241 15.0242 18.075 15.1193 17.8256 15.1193Z" fill="#38FF9C"/>
<path d="M16 26C10.4859 26 6 21.5141 6 16C6 10.4859 10.4859 6.00001 16 6.00001C21.5141 6.00001 26 10.4859 26 16C26 21.5141 21.5141 26 16 26ZM16 7.94782C11.5602 7.94782 7.94782 11.5599 7.94782 16C7.94782 20.4401 11.5599 24.0522 16 24.0522C20.4401 24.0522 24.0522 20.4401 24.0522 16C24.0522 11.5599 20.4401 7.94782 16 7.94782Z" fill="#38FF9C"/>
<path d="M11.6557 21.2705C11.4063 21.2705 11.1572 21.1753 10.967 20.9851C10.5865 20.6046 10.5865 19.9879 10.967 19.6077L13.4855 17.0892C13.866 16.7088 14.4827 16.7088 14.8629 17.0892C15.2433 17.4697 15.2433 18.0864 14.8629 18.4666L12.3444 20.9851C12.1541 21.1753 11.9048 21.2705 11.6557 21.2705Z" fill="#38FF9C"/>
<path d="M15.7818 12.4941C14.0407 12.619 12.6332 14.019 12.5152 15.7615C12.5088 15.8558 12.4676 15.9447 12.4005 16.0116L10.9859 17.4283C10.9057 17.5088 10.7674 17.4725 10.7386 17.3627C10.6237 16.9239 10.5527 16.4532 10.5527 15.9856C10.5527 12.9746 13.0023 10.5247 16.0137 10.5247C16.5044 10.5247 16.9802 10.5897 17.4332 10.7118C17.5247 10.7365 17.555 10.8514 17.488 10.9185L16.0257 12.3815C15.9604 12.4468 15.8738 12.4874 15.7818 12.4941Z" fill="#38FF9C"/>
<path d="M19.5855 15.9496L21.0485 14.4874C21.1156 14.4203 21.2305 14.4507 21.2551 14.5422C21.3772 14.9949 21.4423 15.4707 21.4423 15.9617C21.4423 18.9728 18.9927 21.4226 15.9814 21.4226C15.5138 21.4226 15.0431 21.3517 14.6042 21.2368C14.4945 21.208 14.4582 21.0699 14.5387 20.9895L15.9554 19.5748C16.0225 19.508 16.1112 19.4666 16.2055 19.4602C17.9479 19.3422 19.3479 17.9345 19.4729 16.1936C19.4796 16.1013 19.5202 16.0149 19.5855 15.9496Z" fill="#38FF9C"/>
</svg>
