<svg width="32" height="32" viewBox="0 0 32 32" fill="none" xmlns="http://www.w3.org/2000/svg">
<rect width="32" height="32" rx="4" fill="#F3F5F9"/>
<path d="M14.0222 8.58268L13.0816 9.12575C13.0543 9.14149 13.0322 9.17976 13.0322 9.21123V15.423C13.0322 15.4545 13.0543 15.4673 13.0816 15.4515L14.0222 14.9084C14.0495 14.8927 14.0716 14.8544 14.0716 14.823V8.61118C14.0716 8.5797 14.0495 8.56694 14.0222 8.58268Z" fill="#1E152A"/>
<path d="M18.4788 6.00675L15.0162 8.00591C14.9889 8.02164 14.9668 8.05992 14.9668 8.09139V9.17753C14.9668 9.20901 14.9889 9.22176 15.0162 9.20603L18.4788 7.20687C18.506 7.19113 18.5282 7.15286 18.5282 7.12139V6.03525C18.5282 6.00377 18.506 5.99101 18.4788 6.00675Z" fill="#1E152A"/>
<path d="M18.4788 8.57071L15.0162 10.5699C14.9889 10.5856 14.9668 10.6239 14.9668 10.6554V11.7415C14.9668 11.773 14.9889 11.7857 15.0162 11.77L18.4788 9.77084C18.506 9.7551 18.5281 9.71683 18.5281 9.68534V8.5992C18.5281 8.56773 18.506 8.55498 18.4788 8.57071Z" fill="#1E152A"/>
<path d="M18.4788 11.1348L15.0162 13.134C14.9889 13.1497 14.9668 13.188 14.9668 13.2195V14.3056C14.9668 14.3371 14.9889 14.3498 15.0162 14.3341L18.4788 12.335C18.506 12.3192 18.5281 12.2809 18.5281 12.2495V11.1633C18.5281 11.1319 18.506 11.1191 18.4788 11.1348Z" fill="#1E152A"/>
<path d="M23.4186 17.9977V16.9116C23.4186 16.8801 23.3966 16.8419 23.3694 16.8261L17.9898 13.7202C17.9625 13.7045 17.9404 13.7172 17.9404 13.7487V14.8349C17.9404 14.8663 17.9625 14.9046 17.9898 14.9203L23.3694 18.0262C23.3966 18.042 23.4186 18.0292 23.4186 17.9977Z" fill="#1E152A"/>
<path d="M23.4202 23.1456V19.1473C23.4202 19.1158 23.3981 19.0775 23.3708 19.0618L22.4303 18.5187C22.4029 18.503 22.3809 18.5157 22.3809 18.5472V22.5456C22.3809 22.577 22.4029 22.6153 22.4303 22.631L23.3708 23.1741C23.3981 23.1898 23.4202 23.177 23.4202 23.1456Z" fill="#1E152A"/>
<path d="M21.2004 21.8635V17.8652C21.2004 17.8337 21.1783 17.7954 21.1511 17.7797L20.2104 17.2366C20.1832 17.2209 20.1611 17.2336 20.1611 17.2651V21.2635C20.1611 21.2949 20.1832 21.3332 20.2104 21.3489L21.1511 21.8919C21.1783 21.9077 21.2004 21.8949 21.2004 21.8635Z" fill="#1E152A"/>
<path d="M18.9798 20.5814V16.5831C18.9798 16.5516 18.9577 16.5133 18.9304 16.4976L17.9898 15.9545C17.9625 15.9388 17.9404 15.9516 17.9404 15.983V19.9814C17.9404 20.0128 17.9625 20.0511 17.9898 20.0668L18.9304 20.6099C18.9577 20.6256 18.9798 20.6129 18.9798 20.5814Z" fill="#1E152A"/>
<path d="M21.4355 10.5834L20.4948 10.0403C20.4675 10.0245 20.4233 10.0245 20.3961 10.0403L15.0165 13.1462C14.9893 13.1619 14.9893 13.1874 15.0165 13.2032L15.9572 13.7462C15.9844 13.762 16.0286 13.762 16.0559 13.7462L21.4355 10.6404C21.4627 10.6246 21.4627 10.5991 21.4355 10.5834Z" fill="#1E152A"/>
<path d="M25.8954 13.1552L22.4328 11.1561C22.4055 11.1403 22.3614 11.1403 22.334 11.1561L21.3935 11.6991C21.3662 11.7149 21.3662 11.7404 21.3935 11.7561L24.8561 13.7553C24.8833 13.771 24.9276 13.771 24.9548 13.7553L25.8954 13.2122C25.9227 13.1965 25.9227 13.171 25.8954 13.1552Z" fill="#1E152A"/>
<path d="M23.6748 14.4374L20.2121 12.4382C20.1849 12.4225 20.1407 12.4225 20.1134 12.4382L19.1728 12.9813C19.1455 12.997 19.1455 13.0225 19.1728 13.0383L22.6354 15.0374C22.6626 15.0532 22.7069 15.0532 22.7341 15.0374L23.6748 14.4943C23.702 14.4786 23.702 14.4531 23.6748 14.4374Z" fill="#1E152A"/>
<path d="M21.454 15.7193L17.9914 13.7202C17.9642 13.7044 17.92 13.7044 17.8927 13.7202L16.9521 14.2632C16.9248 14.279 16.9248 14.3045 16.9521 14.3202L20.4148 16.3194C20.442 16.3351 20.4862 16.3351 20.5134 16.3194L21.454 15.7763C21.4814 15.7606 21.4814 15.7351 21.454 15.7193Z" fill="#1E152A"/>
<path d="M17.979 23.4172L18.9197 22.8741C18.9469 22.8585 18.969 22.8202 18.969 22.7887V16.5769C18.969 16.5455 18.9469 16.5327 18.9197 16.5484L17.979 17.0915C17.9518 17.1072 17.9297 17.1455 17.9297 17.177V23.3888C17.9297 23.4202 17.9518 23.433 17.979 23.4172Z" fill="#1E152A"/>
<path d="M13.522 25.9932L16.9846 23.9941C17.0119 23.9783 17.034 23.94 17.034 23.9086V22.8224C17.034 22.791 17.0119 22.7783 16.9846 22.7939L13.522 24.7931C13.4947 24.8089 13.4727 24.8471 13.4727 24.8786V25.9648C13.4727 25.9962 13.4947 26.009 13.522 25.9932Z" fill="#1E152A"/>
<path d="M13.522 23.4292L16.9846 21.4301C17.0119 21.4143 17.034 21.376 17.034 21.3446V20.2584C17.034 20.227 17.0119 20.2142 16.9846 20.23L13.522 22.2291C13.4947 22.2449 13.4727 22.2831 13.4727 22.3146V23.4008C13.4727 23.4322 13.4947 23.445 13.522 23.4292Z" fill="#1E152A"/>
<path d="M13.522 20.8649L16.9846 18.8658C17.0119 18.85 17.034 18.8118 17.034 18.7803V17.6941C17.034 17.6627 17.0119 17.6499 16.9846 17.6657L13.522 19.6648C13.4947 19.6806 13.4727 19.7188 13.4727 19.7503V20.8365C13.4727 20.8679 13.4947 20.8807 13.522 20.8649Z" fill="#1E152A"/>
<path d="M10.5654 21.4352L11.506 21.9783C11.5333 21.994 11.5774 21.994 11.6047 21.9783L16.9843 18.8724C17.0115 18.8567 17.0115 18.8312 16.9843 18.8154L16.0436 18.2723C16.0164 18.2566 15.9722 18.2566 15.9449 18.2723L10.5654 21.3782C10.5381 21.394 10.5381 21.4195 10.5654 21.4352Z" fill="#1E152A"/>
<path d="M6.1054 18.8633L9.56804 20.8625C9.5953 20.8782 9.63949 20.8782 9.66675 20.8625L10.6074 20.3193C10.6346 20.3037 10.6346 20.2781 10.6074 20.2625L7.14474 18.2632C7.11748 18.2475 7.07329 18.2475 7.04603 18.2632L6.1054 18.8063C6.07815 18.8221 6.07815 18.8476 6.1054 18.8633Z" fill="#1E152A"/>
<path d="M8.3261 17.5813L11.7887 19.5804C11.816 19.5962 11.8602 19.5962 11.8875 19.5804L12.8281 19.0373C12.8553 19.0216 12.8553 18.9961 12.8281 18.9804L9.36544 16.9812C9.33818 16.9655 9.294 16.9655 9.26673 16.9812L8.3261 17.5243C8.29885 17.54 8.29885 17.5655 8.3261 17.5813Z" fill="#1E152A"/>
<path d="M10.5468 16.2992L14.0095 18.2984C14.0367 18.3141 14.0809 18.3141 14.1082 18.2984L15.0488 17.7553C15.076 17.7396 15.076 17.714 15.0488 17.6983L11.5861 15.6992C11.5589 15.6834 11.5147 15.6834 11.4874 15.6992L10.5468 16.2422C10.5196 16.258 10.5196 16.2835 10.5468 16.2992Z" fill="#1E152A"/>
<path d="M8.59277 14.0208V15.1069C8.59277 15.1384 8.61487 15.1767 8.64213 15.1924L14.0217 18.2983C14.0489 18.3141 14.071 18.3013 14.071 18.2698V17.1837C14.071 17.1522 14.0489 17.1139 14.0217 17.0982L8.64213 13.9923C8.61487 13.9766 8.59277 13.9893 8.59277 14.0208Z" fill="#1E152A"/>
<path d="M8.59082 8.87298V12.8713C8.59082 12.9028 8.61293 12.941 8.64018 12.9568L9.58081 13.4998C9.60806 13.5156 9.63016 13.5028 9.63016 13.4714V9.47305C9.63016 9.44157 9.60806 9.40329 9.58081 9.38756L8.64018 8.84449C8.61293 8.82874 8.59082 8.84151 8.59082 8.87298Z" fill="#1E152A"/>
<path d="M10.8115 10.155V14.1533C10.8115 14.1848 10.8336 14.2231 10.8609 14.2388L11.8015 14.7819C11.8288 14.7976 11.8509 14.7849 11.8509 14.7534V10.7551C11.8509 10.7236 11.8288 10.6853 11.8015 10.6696L10.8609 10.1265C10.8336 10.1108 10.8115 10.1236 10.8115 10.155Z" fill="#1E152A"/>
<path d="M13.0322 11.4371V15.4354C13.0322 15.4669 13.0543 15.5051 13.0816 15.5209L14.0222 16.0639C14.0495 16.0797 14.0716 16.0669 14.0716 16.0354V12.0371C14.0716 12.0056 14.0495 11.9674 14.0222 11.9516L13.0816 11.4086C13.0543 11.3928 13.0322 11.4056 13.0322 11.4371Z" fill="#1E152A"/>
</svg>
