<svg width="32" height="32" viewBox="0 0 32 32" fill="none" xmlns="http://www.w3.org/2000/svg">
<rect width="32" height="32" rx="4" fill="#3368F6"/>
<path fill-rule="evenodd" clip-rule="evenodd" d="M15.1316 6.19168L10.1565 8.79834C9.85682 8.95536 9.70288 9.17862 9.68068 9.41776H9.67734V22.4826V22.4831V22.5201H9.67795C9.68558 22.7771 9.83817 23.0353 10.156 23.2018L15.1311 25.8085C15.6186 26.064 16.3605 26.064 16.8481 25.8085L21.8231 23.2018C22.1423 23.0346 22.3051 22.7782 22.3114 22.5201H22.312V9.50534C22.3121 9.49895 22.3121 9.49259 22.312 9.48623V9.41776H22.3073C22.2783 9.18121 22.117 8.95212 21.8235 8.79834L16.8485 6.19168C16.361 5.93623 15.6191 5.93623 15.1316 6.19168ZM10.4604 22.4939L15.1311 24.9281C15.4124 25.0772 15.705 25.2223 15.9896 25.2233C16.2516 25.2241 16.5064 25.1002 16.764 24.9749L16.8137 24.9507L21.5289 22.473V16.7284L16.848 19.1809C16.3604 19.4364 15.6185 19.4364 15.131 19.1809L10.4604 16.7338V22.4939ZM10.4604 15.0199L14.9145 12.6862L10.4604 10.3525V15.0199ZM21.5289 10.3476V15.0253L17.065 12.6865L21.5289 10.3476ZM16.4819 6.87791L21.457 9.48457L21.4683 9.49067L21.4761 9.49512L21.4719 9.49754C21.4672 9.50022 21.4622 9.50292 21.457 9.50565L16.4819 12.1123C16.2232 12.2479 15.7552 12.2479 15.4964 12.1123L10.5214 9.50565L10.5101 9.49954L10.5022 9.49512L10.5065 9.4927C10.5112 9.49003 10.5162 9.4873 10.5214 9.48457L15.4964 6.87791C15.7552 6.74236 16.2232 6.74236 16.4819 6.87791ZM16.4819 13.259L21.4569 15.8656L21.4683 15.8717L21.4761 15.8762L21.4719 15.8786C21.4688 15.8804 21.4656 15.8821 21.4622 15.8839L21.4569 15.8867L16.4819 18.4934C16.4508 18.5097 16.4166 18.524 16.3801 18.5364V13.2159C16.4166 13.2283 16.4508 13.2427 16.4819 13.259ZM15.597 13.2163C15.561 13.2286 15.5272 13.2428 15.4964 13.259L10.5213 15.8656C10.5161 15.8684 10.5111 15.8711 10.5064 15.8738L10.5022 15.8762L10.51 15.8806L10.5213 15.8867L15.4964 18.4934C15.5272 18.5095 15.561 18.5238 15.597 18.5361V13.2163ZM22.2628 7.16533L21.8575 7.83001L22.14 7.99917L22.2321 8.05508C22.3101 8.103 22.3742 8.14378 22.4324 8.18269L22.4475 8.19287C22.7127 8.37203 22.8579 8.51926 22.9547 8.71194C23.0715 8.94438 23.1303 9.27434 23.1303 9.77635H23.9134L23.9133 9.74141C23.9077 8.59508 23.6259 8.04402 22.8701 7.53858C22.7994 7.4913 22.7236 7.44319 22.6322 7.38719L22.579 7.35482L22.2628 7.16533ZM10.1419 24.1814L9.73657 24.8461L9.42029 24.6566L9.36713 24.6242C9.27568 24.5682 9.19989 24.5201 9.12919 24.4728C8.37344 23.9674 8.09158 23.4163 8.08602 22.27L8.08594 22.2351H8.86902C8.86902 22.7371 8.92783 23.067 9.04461 23.2995C9.14139 23.4921 9.28662 23.6394 9.55179 23.8185L9.56693 23.8287C9.62512 23.8676 9.68923 23.9084 9.76727 23.9563L9.85929 24.0122L10.1419 24.1814Z" fill="#F5F5F5"/>
</svg>
