<svg width="32" height="32" viewBox="0 0 32 32" fill="none" xmlns="http://www.w3.org/2000/svg">
<rect width="32" height="32" rx="4" fill="black"/>
<path d="M8.56641 19.7109C8.63112 19.8444 8.70083 19.9753 8.77539 20.1035C8.88281 20.291 8.93555 20.4102 8.91992 20.4355C8.9082 20.459 8.24805 21.1641 7.45312 22.0059C6.6582 22.8477 6.00781 23.5391 6 23.5566C6.79899 24.3608 7.61094 25.1519 8.43555 25.9297L8.51953 26L9.7793 24.668L11.2207 23.1406L11.4043 22.9512L11.5781 23.0625C11.8186 23.2178 12.0677 23.3593 12.3242 23.4863C12.4824 22.6562 12.7676 21.8457 13.1133 21.0586L12.9922 21C11.9434 20.457 11.2988 19.3203 10.916 18.1172C10.628 18.2295 10.3492 18.364 10.082 18.5195C9.52539 18.8965 9.10156 19.3398 8.56641 19.7109ZM13.1094 9.94531C12.957 9.71484 12.791 9.49414 12.627 9.27148C12.2633 9.18168 11.9405 8.97179 11.7109 8.67578L11.5156 8.79688L11.293 8.57617C10.893 8.187 10.4913 7.79962 10.0879 7.41406C9.54883 6.89453 8.99805 6.36523 8.86719 6.23438L8.62891 6L7.4375 7.26562C6.7832 7.96094 6.24414 8.54297 6.23828 8.55469C6.23242 8.56641 6.82227 9.1543 7.54688 9.85156L8.94727 11.2051L9.03125 11.2832L8.88086 11.5332C8.82617 11.6243 8.77409 11.7168 8.72461 11.8105C9.48633 12.3125 10.2676 12.7812 11.0645 13.25C11.5801 12.2813 12.5566 11.4453 13.666 10.9043C13.5422 10.7192 13.4152 10.5362 13.2852 10.3555C13.1875 10.2188 13.1875 10.082 13.1094 9.94531ZM23.1914 11.582L23.0879 11.4004L24.4883 9.91602C25.2578 9.10352 25.8828 8.42578 25.877 8.41211C25.8594 8.36133 23.4043 6.01367 23.373 6.01367C23.3535 6.01367 22.7324 6.65039 22 7.42969C21.2637 8.20703 20.6523 8.84961 20.6387 8.85547C20.625 8.86133 20.5605 8.82617 20.4902 8.77734C20.3516 8.68359 19.6543 8.99219 19.2012 9.10352C18.9473 9.66992 18.7266 10.25 18.502 10.8242C18.7462 10.9513 18.9812 11.0955 19.2051 11.2559C19.5684 11.5156 20.4336 12.1973 20.6895 12.5645C20.752 12.6543 20.8105 12.748 20.8672 12.8438C21.6816 12.5 22.5137 12.1875 23.3281 11.832C23.2793 11.7383 23.2344 11.6543 23.1934 11.584L23.1914 11.582ZM23.3496 20.8457L23.0176 20.5254L23.168 20.2715C23.2266 20.1738 23.2832 20.0742 23.3379 19.9727C22.6426 19.3633 21.9902 18.7578 21.2441 18.1797C20.9746 18.9902 20.5605 19.7109 20.0039 20.2383C19.7129 20.5117 19.3555 20.7461 18.9512 20.9355L18.9883 21.1172C19.1445 21.8594 19.5742 22.4258 19.8867 23.0898C19.9259 23.1718 19.9585 23.2567 19.9844 23.3438C20.0859 23.2878 20.1855 23.2305 20.2832 23.1719L20.5371 23.0156L20.8047 23.2852C21.7277 24.184 22.6554 25.0779 23.5879 25.9668C23.6133 25.9746 26.0039 23.4434 26 23.4141C25.998 23.3984 24.3535 21.8047 23.3496 20.8477V20.8457Z" fill="#F8FAFC"/>
<path d="M16.0101 24.5586C14.0377 24.5578 12.1262 23.8751 10.5995 22.6262C9.07285 21.3773 8.02488 19.639 7.6332 17.7058C7.24151 15.7727 7.53019 13.7636 8.45032 12.0189C9.37045 10.2742 10.8654 8.90134 12.682 8.13281C14.7711 7.25013 17.1253 7.2335 19.2266 8.08657C21.328 8.93964 23.0044 10.5925 23.8871 12.6816C24.7697 14.7707 24.7864 17.1249 23.9333 19.2263C23.0802 21.3276 21.4273 23.004 19.3382 23.8867C18.2854 24.3323 17.1534 24.5608 16.0101 24.5586ZM16.0101 10.8086C13.1429 10.8086 10.8089 13.1426 10.8089 16.0098C10.8089 18.8769 13.1429 21.2109 16.0101 21.2109C18.8773 21.2109 21.2113 18.8769 21.2113 16.0098C21.2113 13.1426 18.8773 10.8086 16.0101 10.8086Z" fill="#F8FAFC"/>
</svg>
