<svg width="32" height="32" viewBox="0 0 32 32" fill="none" xmlns="http://www.w3.org/2000/svg">
<path d="M0 4C0 1.79086 1.79086 0 4 0H28C30.2091 0 32 1.79086 32 4V28C32 30.2091 30.2091 32 28 32H4C1.79086 32 0 30.2091 0 28V4Z" fill="#121212"/>
<path d="M10.2851 9.0853C10.4797 8.84199 10.8323 8.80148 11.0913 8.97453C12.3842 9.83826 14.0264 10.3995 15.9491 10.3995C17.8992 10.3995 19.6268 9.84122 20.9166 8.98101C21.1782 8.8065 21.5351 8.84598 21.7309 9.09211L23.9587 11.8926C24.0242 11.975 24.0105 12.095 23.9269 12.1589C21.798 13.7844 18.9796 14.7329 15.9491 14.7329C12.8865 14.7329 10.1575 13.718 8.07469 12.1589C7.98962 12.0952 7.97529 11.9739 8.04165 11.8909L10.2851 9.0853Z" fill="white"/>
<path d="M10.2851 22.9147C10.4797 23.158 10.8323 23.1985 11.0913 23.0255C12.3842 22.1617 14.0264 21.6005 15.9491 21.6005C17.8992 21.6005 19.6268 22.1588 20.9166 23.019C21.1782 23.1935 21.5351 23.154 21.7309 22.9079L23.9587 20.1074C24.0242 20.0251 24.0105 19.905 23.9269 19.8411C21.798 18.2156 18.9796 17.2671 15.9491 17.2671C12.8865 17.2671 10.1575 18.282 8.07469 19.8411C7.98962 19.9048 7.97529 20.0261 8.04165 20.1091L10.2851 22.9147Z" fill="white"/>
</svg>
