<svg width="32" height="32" viewBox="0 0 32 32" fill="none" xmlns="http://www.w3.org/2000/svg">
<rect width="32" height="32" rx="4" fill="#3E6956"/>
<g clip-path="url(#clip0_4902_309868)">
<path d="M8.7025 14.901C8.69224 14.2491 8.90424 13.613 9.30362 13.0977L13.4032 17.1972C12.8865 17.5941 12.2513 17.8058 11.5998 17.7983C10.8324 17.7952 10.0973 17.4889 9.55462 16.9463C9.01195 16.4036 8.70567 15.6684 8.7025 14.901Z" fill="#F1EBDD"/>
<path d="M20.8988 17.794C21.2826 17.7956 21.6629 17.7212 22.0179 17.5751C22.3729 17.4291 22.6954 17.2142 22.9669 16.9429C23.2385 16.6717 23.4537 16.3493 23.6001 15.9945C23.7465 15.6397 23.8213 15.2594 23.8201 14.8756C23.8273 14.2241 23.6157 13.5891 23.219 13.0723L19.1074 17.1839C19.6185 17.5837 20.2499 17.7987 20.8988 17.794Z" fill="#F1EBDD"/>
<path d="M24.0702 12.2404C24.7023 12.9826 25.0496 13.9255 25.05 14.9003C25.0492 15.9966 24.6132 17.0477 23.8377 17.8227C23.0622 18.5976 22.0107 19.0329 20.9144 19.0329C19.9446 19.034 19.0057 18.6923 18.2635 18.0681L16.2738 20.0578L14.2842 18.0681C13.5414 18.6934 12.6012 19.0353 11.6303 19.0329C11.0861 19.0349 10.547 18.9295 10.0437 18.7227C9.54039 18.516 9.08285 18.2119 8.69727 17.828C8.31169 17.4441 8.00564 16.9879 7.79669 16.4855C7.58774 15.9831 7.47998 15.4444 7.47959 14.9003C7.48036 13.93 7.82182 12.9907 8.44437 12.2464L7.51565 11.3177L6.62903 10.416C5.56096 12.1721 4.99733 14.1884 5.00001 16.2438C4.99961 17.7211 5.29036 19.184 5.85561 20.5489C6.42086 21.9138 7.24954 23.1539 8.2943 24.1984C9.33905 25.2429 10.5794 26.0712 11.9444 26.6361C13.3095 27.201 14.7725 27.4913 16.2498 27.4905C19.2311 27.4898 22.0902 26.3059 24.1995 24.1989C26.3087 22.092 27.4956 19.2341 27.4995 16.2528C27.5181 14.1978 26.96 12.1788 25.8886 10.425L24.0702 12.2404Z" fill="#F1EBDD"/>
<path d="M24.3977 8.48644C23.3486 7.38345 22.086 6.50552 20.6867 5.90614C19.2875 5.30676 17.7809 4.99845 16.2586 5.00001C14.7361 4.99927 13.2293 5.30793 11.8297 5.90725C10.43 6.50657 9.1668 7.38406 8.11661 8.48644C7.84311 8.787 7.57563 9.08755 7.32617 9.40915L16.2496 18.3296L25.1731 9.40013C24.9375 9.07687 24.6783 8.77148 24.3977 8.48644ZM16.2586 16.2467L9.34589 9.33401C10.2497 8.42057 11.3266 7.69652 12.5135 7.20419C13.7005 6.71186 14.9737 6.46115 16.2586 6.46672C17.5438 6.45964 18.8175 6.70966 20.0047 7.20207C21.1918 7.69448 22.2685 8.41934 23.1714 9.33401L16.2586 16.2467Z" fill="#F1EBDD"/>
</g>
<defs>
<clipPath id="clip0_4902_309868">
<rect width="22.5" height="22.5" fill="white" transform="translate(5 5)"/>
</clipPath>
</defs>
</svg>
