<?xml version="1.0" encoding="UTF-8"?>
<svg version="1.1" xmlns="http://www.w3.org/2000/svg" width="80" height="80">
<path d="M0 0 C0.87173859 -0.00902847 1.74347717 -0.01805695 2.64163208 -0.02735901 C4.48582524 -0.04186487 6.3300699 -0.05074908 8.17431641 -0.05444336 C10.99079483 -0.0663344 13.80507816 -0.11550966 16.62109375 -0.16601562 C18.41405182 -0.17548071 20.20702333 -0.18271534 22 -0.1875 C22.83973358 -0.20703232 23.67946716 -0.22656464 24.54464722 -0.24668884 C28.83176478 -0.21373873 30.5781278 -0.06950356 34.03857422 2.67919922 C34.72967285 3.56752441 35.42077148 4.45584961 36.1328125 5.37109375 C36.86032715 6.30223999 36.86032715 6.30223999 37.60253906 7.25219727 C38.18213379 8.11735962 38.18213379 8.11735962 38.7734375 9 C39.20398438 9.64259766 39.63453125 10.28519531 40.078125 10.94726562 C40.50867188 11.60275391 40.93921875 12.25824219 41.3828125 12.93359375 C41.82882813 13.59294922 42.27484375 14.25230469 42.734375 14.93164062 C43.15976563 15.57294922 43.58515625 16.21425781 44.0234375 16.875 C44.59626465 17.73847046 44.59626465 17.73847046 45.18066406 18.61938477 C46.28633259 20.65353136 46.93246368 22.04894261 47.1328125 24.37109375 C44.97585881 29.28677133 40.95486754 32.90640574 37.234375 36.67578125 C36.56240082 37.35915558 35.89042664 38.04252991 35.1980896 38.74661255 C33.78038755 40.18314739 32.35980186 41.61684143 30.93652344 43.04785156 C28.75808403 45.24581978 26.60187319 47.46418247 24.4453125 49.68359375 C23.06382229 51.07813407 21.68105275 52.47140845 20.296875 53.86328125 C19.33257065 54.86462601 19.33257065 54.86462601 18.3487854 55.88619995 C13.93018665 60.26136264 13.93018665 60.26136264 10.65087891 60.71264648 C6.6906333 58.60274251 3.8089966 55.59576158 0.6796875 52.4140625 C-0.02113953 51.7146907 -0.72196655 51.01531891 -1.44403076 50.29475403 C-2.92130324 48.81582347 -4.39363373 47.33194221 -5.86132812 45.84350586 C-8.11066112 43.56520418 -10.37807674 41.30615497 -12.6484375 39.04882812 C-14.08184529 37.60918334 -15.51417441 36.16846359 -16.9453125 34.7265625 C-17.62442688 34.05038376 -18.30354126 33.37420502 -19.00323486 32.67753601 C-19.62768494 32.04040176 -20.25213501 31.40326752 -20.89550781 30.74682617 C-21.44668274 30.19024826 -21.99785767 29.63367035 -22.56573486 29.06022644 C-24.04031468 27.14639501 -24.531105 25.75229954 -24.8671875 23.37109375 C-20.45456689 11.41120401 -13.10599633 0.08329585 0 0 Z " fill="#30A1F5" transform="translate(28.8671875,11.62890625)"/>
<path d="M0 0 C0.99 0 1.98 0 3 0 C3.33 1.258125 3.66 2.51625 4 3.8125 C4.97661861 6.50415617 5.50494872 7.70023522 7.98046875 9.19921875 C10.42652106 10.12477753 10.42652106 10.12477753 14 11 C14 11.99 14 12.98 14 14 C12.741875 14.33 11.48375 14.66 10.1875 15 C7.49584383 15.97661861 6.29976478 16.50494872 4.80078125 18.98046875 C3.87522247 21.42652106 3.87522247 21.42652106 3 25 C2.01 24.67 1.02 24.34 0 24 C-0.391875 22.88625 -0.78375 21.7725 -1.1875 20.625 C-2.12825481 18.13506744 -2.62804333 17.21328468 -4.96875 15.87109375 C-6.94645039 15.15034731 -8.97232913 14.5650886 -11 14 C-11 13.01 -11 12.02 -11 11 C-9.741875 10.67 -8.48375 10.34 -7.1875 10 C-4.49584383 9.02338139 -3.29976478 8.49505128 -1.80078125 6.01953125 C-0.87522247 3.57347894 -0.87522247 3.57347894 0 0 Z " fill="#F6FBFE" transform="translate(47,21)"/>
</svg>
