<svg width="32" height="32" viewBox="0 0 32 32" fill="none" xmlns="http://www.w3.org/2000/svg">
<rect width="32" height="32" rx="4" fill="url(#paint0_linear_7919_12125)"/>
<path d="M26.9244 9.71866C26.7664 9.44566 26.4143 9.35576 26.1448 9.51965L11.6662 18.3132C11.2972 17.6239 11.0881 16.8363 11.0881 16C11.0881 13.2845 13.2921 11.0832 16.0107 11.0832C17.1781 11.0832 18.2498 11.4901 19.0937 12.1682L16.0135 14.2801L24.0182 9.66387C24.1907 9.5646 24.2498 9.34405 24.1499 9.1722C24.0449 8.99051 23.8073 8.93666 23.6337 9.05559L21.6736 10.3995C20.2292 8.94228 18.226 8.03946 16.0107 8.03946C11.609 8.03946 8.04078 11.6034 8.04078 16C8.04078 17.4155 8.41114 18.7445 9.05952 19.8964L5 22.3619L9.16781 20.0828C10.5597 22.4054 13.1031 23.9605 16.0107 23.9605C20.4125 23.9605 23.9807 20.3966 23.9807 16C23.9807 15.7518 23.9807 15.7942 23.9807 15.0494C23.9807 14.3047 24.2833 13.3519 25.3553 12.7783C25.4471 12.7291 25.4805 12.614 25.4285 12.5236C25.3773 12.4355 25.2648 12.4051 25.1767 12.4561L15.6722 17.9372C16.7332 17.4867 17.5442 17.2128 18.6193 16.9971C20.8588 16.5478 20.9158 17.6141 20.0509 18.8169C19.4718 19.6224 18.1636 20.9159 16.0117 20.9159C14.2569 20.9159 12.7173 19.999 11.8452 18.6186L26.7074 10.4927C26.9844 10.3415 27.0824 9.99166 26.9244 9.71866Z" fill="white"/>
<defs>
<linearGradient id="paint0_linear_7919_12125" x1="-9.95134e-10" y1="2.8403" x2="23.7685" y2="2.85753" gradientUnits="userSpaceOnUse">
<stop stop-color="#F36621"/>
<stop offset="1" stop-color="#FFAC43"/>
</linearGradient>
</defs>
</svg>
