<svg width="32" height="32" viewBox="0 0 32 32" fill="none" xmlns="http://www.w3.org/2000/svg">
<rect width="32" height="32" rx="4" fill="url(#paint0_linear_7919_12122)"/>
<path d="M21.117 7.02466C20.0889 7.02386 19.1025 7.43103 18.3743 8.15678C17.6461 8.88253 17.2356 9.86757 17.233 10.8957V15.1877C16.833 15.2147 16.424 15.2317 16 15.2317C15.576 15.2317 15.169 15.2487 14.767 15.2727V10.8957C14.7506 9.87648 14.3343 8.90458 13.6078 8.18963C12.8813 7.47468 11.9028 7.07398 10.8835 7.07398C9.86419 7.07398 8.88574 7.47468 8.15922 8.18963C7.4327 8.90458 7.01636 9.87648 7 10.8957V21.1537C7.01636 22.1728 7.4327 23.1447 8.15922 23.8597C8.88574 24.5746 9.86419 24.9753 10.8835 24.9753C11.9028 24.9753 12.8813 24.5746 13.6078 23.8597C14.3343 23.1447 14.7506 22.1728 14.767 21.1537V16.8617C15.167 16.8347 15.576 16.8177 16 16.8177C16.424 16.8177 16.831 16.8007 17.233 16.7767V21.1537C17.2494 22.1728 17.6657 23.1447 18.3922 23.8597C19.1187 24.5746 20.0972 24.9753 21.1165 24.9753C22.1358 24.9753 23.1143 24.5746 23.8408 23.8597C24.5673 23.1447 24.9836 22.1728 25 21.1537V10.8957C24.9974 9.86774 24.587 8.88286 23.859 8.15713C23.1311 7.43141 22.1449 7.02413 21.117 7.02466ZM10.883 8.61066C11.4897 8.61039 12.0718 8.85082 12.5015 9.2792C12.9312 9.70758 13.1734 10.2889 13.175 10.8957V15.4407C12.0388 15.6053 10.9292 15.919 9.875 16.3737C9.41823 16.5741 8.98825 16.8308 8.595 17.1377V10.8957C8.59659 10.2896 8.83825 9.70888 9.26707 9.28061C9.6959 8.85235 10.2769 8.61145 10.883 8.61066ZM13.175 21.1537C13.175 21.7615 12.9335 22.3445 12.5037 22.7743C12.0739 23.2042 11.4909 23.4457 10.883 23.4457C10.2751 23.4457 9.69214 23.2042 9.26231 22.7743C8.83248 22.3445 8.591 21.7615 8.591 21.1537V20.1247C8.591 19.2157 9.311 18.3547 10.518 17.8187C11.3685 17.4517 12.2608 17.1908 13.175 17.0417V21.1537ZM21.117 23.4387C20.5103 23.4389 19.9282 23.1985 19.4985 22.7701C19.0688 22.3417 18.8266 21.7604 18.825 21.1537V16.6087C19.9612 16.444 21.0708 16.1303 22.125 15.6757C22.5818 15.4752 23.0118 15.2185 23.405 14.9117V21.1537C23.4034 21.7597 23.1618 22.3404 22.7329 22.7687C22.3041 23.197 21.7231 23.4379 21.117 23.4387ZM21.482 14.2247C20.6315 14.5916 19.7392 14.8525 18.825 15.0017V10.8957C18.825 10.2878 19.0665 9.7048 19.4963 9.27497C19.9261 8.84514 20.5091 8.60366 21.117 8.60366C21.7249 8.60366 22.3079 8.84514 22.7377 9.27497C23.1675 9.7048 23.409 10.2878 23.409 10.8957V11.9247C23.409 12.8297 22.689 13.6907 21.482 14.2247Z" fill="white"/>
<defs>
<linearGradient id="paint0_linear_7919_12122" x1="2.02667" y1="29.6159" x2="29.8672" y2="1.7759" gradientUnits="userSpaceOnUse">
<stop stop-color="#00AEE9"/>
<stop offset="1" stop-color="#69FABD"/>
</linearGradient>
</defs>
</svg>
