<svg width="32" height="32" viewBox="0 0 32 32" fill="none" xmlns="http://www.w3.org/2000/svg">
<rect width="32" height="32" rx="4" fill="#2354E6"/>
<path fill-rule="evenodd" clip-rule="evenodd" d="M6.17537 6.00338L11.471 7.13721C11.5362 7.1487 11.5812 7.20254 11.5812 7.26398V24.8357C11.5812 24.8972 11.5326 24.9547 11.4674 24.9663L6.17102 25.9967C6.08189 26.0158 6 25.9501 6 25.866V6.13405C6 6.04949 6.08551 5.98416 6.17537 6.00338ZM25.8254 6.00338L20.529 7.13721C20.4638 7.1487 20.4188 7.20254 20.4188 7.26398V24.8357C20.4188 24.8972 20.4681 24.9547 20.5333 24.9663L25.829 25.9967C25.9188 26.0158 26 25.9501 26 25.866V6.13405C26 6.04949 25.9145 5.98416 25.8254 6.00338ZM18.7906 13.4173V18.4559V18.5712H18.6688H13.3319H13.2094V18.4559V13.4173V13.3019H13.3319H18.6688H18.7906V13.4173Z" fill="white"/>
</svg>
