<svg width="32" height="32" viewBox="0 0 32 32" fill="none" xmlns="http://www.w3.org/2000/svg">
<rect width="32" height="32" rx="4" fill="#FF6C15"/>
<path d="M17.9225 6.0092C17.8196 5.99071 17.7227 6.05849 17.7045 6.16323L16.4632 13.329H15.5368L14.2955 6.15707C14.2773 6.05233 14.1804 5.98455 14.0775 6.00303C9.66939 6.8718 6.29064 10.6981 6.01211 15.3623C6.01211 15.3685 6 15.5656 6 15.6642V15.9908C6 20.9446 9.47563 25.0666 14.0836 25.9785C14.1865 25.997 14.2834 25.9292 14.3015 25.8244L15.5428 18.6587H16.4693L17.7045 25.8429C17.7227 25.9477 17.8196 26.0155 17.9225 25.997C22.3306 25.122 25.7033 21.3019 25.9879 16.6315C25.9879 16.6254 26 16.4282 26 16.3296V16.0031C26.006 11.0431 22.5304 6.92109 17.9225 6.0092Z" fill="#1A1B1B"/>
</svg>
