<svg width="32" height="32" viewBox="0 0 32 32" fill="none" xmlns="http://www.w3.org/2000/svg">
<path d="M0 4C0 1.79086 1.79086 0 4 0H28C30.2091 0 32 1.79086 32 4V28C32 30.2091 30.2091 32 28 32H4C1.79086 32 0 30.2091 0 28V4Z" fill="#041E57"/>
<path d="M19.8694 11.6751C18.8243 10.5482 18.0269 9.21152 17.3082 7.01912C17.0896 6.35294 16.5662 6.00163 15.9992 6.00163C15.4321 6.00163 14.9088 6.35294 14.6902 7.01912C14.3345 8.10365 13.9598 8.97683 13.5459 9.72026L17.2893 16.0001L19.868 11.6751H19.8694Z" fill="#30EFA6"/>
<path d="M13.5475 9.72045C13.0913 10.5411 12.5869 11.2029 12.0053 11.8093C10.8362 13.0295 9.34788 13.9391 7.01846 14.6912C6.35229 14.907 6.00098 15.4332 6.00098 16.0003C6.00098 16.5674 6.35229 17.0935 7.01846 17.3093C9.34788 18.0629 10.8362 18.9711 12.0053 20.1912C12.5855 20.7962 13.0899 21.4594 13.5461 22.2786L17.2895 16.0003L13.5461 9.72045H13.5475Z" fill="#669DFF"/>
<path d="M24.9828 14.6924C22.6534 13.9388 21.1651 13.0306 19.996 11.8105C19.9537 11.7668 19.9115 11.7202 19.8707 11.6764L17.292 16.0014L19.8707 20.3279C19.9129 20.2827 19.9537 20.2376 19.996 20.1939C21.1651 18.9737 22.6534 18.0641 24.9828 17.3119C25.6491 17.0962 26.0004 16.57 26.0004 16.0029C26.0004 15.4359 25.6491 14.9096 24.9828 14.6939V14.6924Z" fill="#FF76FF"/>
<path d="M13.5469 22.2782C13.9609 23.0231 14.337 23.8963 14.6927 24.9808C14.9113 25.647 15.4347 25.9983 16.0017 25.9983C16.5687 25.9983 17.092 25.647 17.3107 24.9808C18.0293 22.7885 18.8268 21.4517 19.8719 20.3249L17.2932 15.9984L13.5498 22.2768L13.5469 22.2782Z" fill="#C24DFF"/>
</svg>
