<svg width="32" height="32" viewBox="0 0 32 32" fill="none" xmlns="http://www.w3.org/2000/svg">
<rect width="32" height="32" rx="4" fill="#4D3DFF"/>
<path d="M18.1 6.23L18.04 6.35C20.12 7.25 21.3 9.11 21.3 11.15C21.3 13.35 19.86 15.35 17.06 17.05L16.6 17.33C14.5 18.61 13.44 20.05 13.44 21.79C13.44 24.03 15.2 25.67 17.62 25.67C21.5 25.67 26 21.53 26 16.01C26 15.11 25.88 14.23 25.66 13.39L25.52 13.43C25.58 13.89 25.6 14.23 25.6 14.55C25.6 17.81 23.76 20.61 20.68 22.47L20.38 22.65C19.72 23.03 19.16 23.25 18.6 23.25C17.86 23.25 17.3 22.77 17.3 22.07C17.3 21.47 17.7 20.87 19 20.11L19.38 19.89C22.26 18.21 23.86 15.85 23.86 13.23C23.86 9.91 21.38 7.17 18.1 6.23ZM13.9 25.77L13.96 25.65C11.88 24.75 10.7 22.89 10.7 20.85C10.7 18.65 12.14 16.65 14.94 14.95L15.4 14.67C17.5 13.39 18.56 11.95 18.56 10.21C18.56 7.97 16.8 6.33 14.38 6.33C10.5 6.33 6 10.47 6 15.99C6 16.89 6.12 17.77 6.34 18.61L6.48 18.57C6.42 18.11 6.4 17.77 6.4 17.45C6.4 14.19 8.24 11.39 11.32 9.53L11.62 9.35C12.28 8.97 12.84 8.75 13.4 8.75C14.14 8.75 14.7 9.23 14.7 9.93C14.7 10.53 14.3 11.13 13 11.89L12.62 12.11C9.74 13.79 8.14 16.15 8.14 18.77C8.14 22.09 10.62 24.83 13.9 25.77Z" fill="white"/>
</svg>
