<svg width="32" height="32" viewBox="0 0 32 32" fill="none" xmlns="http://www.w3.org/2000/svg">
<rect width="32" height="32" rx="4" fill="#7132F5"/>
<g clip-path="url(#clip0_5525_229919)">
<path fill-rule="evenodd" clip-rule="evenodd" d="M28 16C28 9.37258 22.6274 4 16 4C9.37258 4 4 9.37258 4 16C4 22.6274 9.37258 28 16 28C22.6274 28 28 22.6274 28 16ZM17.7127 24.981C17.7127 25.7951 17.0446 26.4568 16.0962 26.4758C16.0699 26.476 16.0436 26.4761 16.0173 26.4762H15.9827C10.2048 26.4669 5.52381 21.7801 5.52381 16C5.52381 10.2142 10.2142 5.52383 16 5.52383C16.0312 5.52383 16.0624 5.52397 16.0935 5.52424C17.1637 5.5433 17.7127 6.20498 17.7127 7.01902C17.7127 7.8475 16.9803 8.45715 16.2045 8.45715C15.4285 8.45715 15.3905 8.45715 14.6478 8.51666C13.905 8.57618 13.137 9.18582 13.137 10.0119C13.137 10.8428 13.8121 11.512 14.6478 11.512H21.2346C22.0679 11.512 22.7429 12.1811 22.7429 13.0072C22.7429 13.8332 22.0679 14.5023 21.2346 14.5023H11.0891C10.2534 14.5023 9.57843 15.174 9.57843 16.0024C9.57843 16.8285 10.2534 17.4977 11.0891 17.4977H16.2045C17.0378 17.4977 17.7127 18.1668 17.7127 18.9953C17.7127 19.8213 17.0378 20.4905 16.2045 20.4905H14.6478C13.8121 20.4905 13.137 21.1597 13.137 21.9857C13.137 22.8142 13.8288 23.419 14.6478 23.4809C14.7123 23.4858 14.7714 23.4903 14.8257 23.4945C15.1139 23.5164 15.2714 23.5284 15.4291 23.535C15.619 23.5429 15.8092 23.5429 16.2286 23.5429C17.0618 23.5429 17.7127 24.1549 17.7127 24.981Z" fill="white"/>
</g>
<defs>
<clipPath id="clip0_5525_229919">
<rect width="24" height="24" fill="white" transform="translate(4 4)"/>
</clipPath>
</defs>
</svg>

