<svg width="30" height="30" viewBox="0 0 30 30" fill="none" xmlns="http://www.w3.org/2000/svg">
<g clip-path="url(#clip0_11775_7129)">
<path fill-rule="evenodd" clip-rule="evenodd" d="M30 15C30 6.71572 23.2843 -3.62117e-07 15 0C6.71572 3.62117e-07 -3.62117e-07 6.71572 0 15C3.62117e-07 23.2843 6.71572 30 15 30C23.2843 30 30 23.2843 30 15ZM17.1409 26.2262C17.1409 27.2438 16.3057 28.0709 15.1202 28.0947C15.0874 28.0951 15.0545 28.0952 15.0216 28.0953H14.9784C7.75603 28.0836 1.90476 22.2251 1.90476 15C1.90476 7.76772 7.7677 1.90478 15 1.90478C15.0389 1.90478 15.078 1.90496 15.1168 1.90529C16.4546 1.92912 17.1409 2.75623 17.1409 3.77377C17.1409 4.80937 16.2254 5.57144 15.2556 5.57144C14.2857 5.57144 14.2381 5.57144 13.3097 5.64583C12.3813 5.72023 11.4213 6.48228 11.4213 7.51483C11.4213 8.5535 12.2651 9.38995 13.3097 9.38995H21.5433C22.5849 9.38995 23.4286 10.2264 23.4286 11.2589C23.4286 12.2915 22.5849 13.1279 21.5433 13.1279H8.86143C7.81679 13.1279 6.97304 13.9675 6.97304 15.0031C6.97304 16.0356 7.81679 16.8721 8.86143 16.8721H15.2556C16.2972 16.8721 17.1409 17.7085 17.1409 18.7441C17.1409 19.7767 16.2972 20.6132 15.2556 20.6132H13.3097C12.2651 20.6132 11.4213 21.4496 11.4213 22.4821C11.4213 23.5177 12.286 24.2737 13.3097 24.3512C13.3904 24.3573 13.4642 24.3628 13.5322 24.3681C13.8924 24.3955 14.0892 24.4105 14.2863 24.4187C14.5237 24.4286 14.7615 24.4286 15.2857 24.4286C16.3273 24.4286 17.1409 25.1937 17.1409 26.2262Z" fill="#7132F5"/>
</g>
<defs>
<clipPath id="clip0_11775_7129">
<rect width="30" height="30" fill="white"/>
</clipPath>
</defs>
</svg>
