<svg width="32" height="32" viewBox="0 0 32 32" fill="none" xmlns="http://www.w3.org/2000/svg">
<rect width="32" height="32" rx="4" fill="#326CFF"/>
<path d="M15.3796 17.6992C15.3177 17.6992 15.2623 17.6604 15.242 17.6018L14.0248 14.1692C14.0031 14.1055 14.0507 14.0394 14.1181 14.0394H14.6533C14.6957 14.0394 14.7336 14.0667 14.7465 14.1073L15.8769 17.333L16.9943 14.1073C17.0072 14.0667 17.0451 14.0394 17.088 14.0394H17.6297C17.6971 14.0394 17.7442 14.1055 17.7229 14.1692L16.5058 17.6018C16.485 17.6599 16.4301 17.6992 16.3682 17.6992H15.38H15.3796Z" fill="white"/>
<path d="M23.7959 17.5704L22.2855 14.2075C22.2509 14.1281 22.3091 14.0394 22.3954 14.0394H22.9237C22.9717 14.0394 23.0156 14.0681 23.034 14.1124L24.1685 16.7138L25.2218 14.1142C25.2402 14.069 25.2841 14.0394 25.333 14.0394H25.8802C25.9661 14.0394 26.0243 14.1272 25.9906 14.2061L23.9289 19.0756C23.91 19.12 23.8666 19.1491 23.8185 19.1491H23.2931C23.2063 19.1491 23.1485 19.0604 23.1832 18.981L23.7959 17.5704Z" fill="white"/>
<path d="M21.5176 14.0667H21.1186C21.0166 14.0667 20.9515 14.1225 20.9515 14.2292V14.5261C20.6685 14.243 20.2787 14.0436 19.7921 14.0482C18.7347 14.0389 17.9414 14.8922 17.9414 15.885C17.9414 16.8777 18.7347 17.7264 19.7921 17.7264C20.2515 17.7356 20.65 17.5408 20.9515 17.2624V17.55C20.9515 17.6567 21.0166 17.7172 21.1186 17.7172H21.5176C21.6243 17.7172 21.6847 17.6567 21.6847 17.55V14.2287C21.6847 14.1221 21.6243 14.0662 21.5176 14.0662V14.0667ZM19.7921 17.086C19.1567 17.086 18.6183 16.5481 18.6183 15.8845C18.6183 15.221 19.1562 14.6785 19.7921 14.6785C20.4787 14.6785 21.0212 15.2256 21.0212 15.8845C21.0212 16.5434 20.4787 17.086 19.7921 17.086Z" fill="white"/>
<path d="M7.73257 17.7666C8.85645 17.7666 9.45209 16.9622 9.45209 15.9362V13.1473C9.45209 13.066 9.3856 13 9.3048 13H6.71674C6.65394 13 6.60361 13.0508 6.60361 13.1131V13.5804C6.60361 13.6432 6.6544 13.6935 6.71674 13.6935H8.70915V15.8009C8.70915 16.4765 8.49398 17.0601 7.73257 17.0601C7.2579 17.0601 6.87004 16.7923 6.75552 16.3241C6.74306 16.2733 6.69781 16.2368 6.64563 16.2368H6.1137C6.04537 16.2368 5.9918 16.2968 6.00104 16.3647C6.11601 17.2088 6.84926 17.7661 7.73257 17.7661V17.7666Z" fill="white"/>
<path d="M10.9089 17.3349C10.8156 17.3349 10.7224 17.2993 10.6513 17.2282C9.90739 16.4843 9.8963 15.2857 10.6259 14.5561C11.3531 13.8293 12.5495 13.8427 13.2929 14.5866C13.4351 14.7288 13.4351 14.9601 13.2929 15.1023C13.1507 15.2446 12.9198 15.2446 12.7771 15.1023C12.3177 14.6429 11.584 14.6295 11.1416 15.0719C10.6993 15.5142 10.7076 16.2535 11.167 16.7124C11.3092 16.8546 11.3092 17.086 11.167 17.2282C11.0959 17.2993 11.0026 17.3349 10.9094 17.3349H10.9089Z" fill="url(#paint0_linear_12483_78)"/>
<path d="M11.9315 17.7449C11.4619 17.7449 10.9965 17.5731 10.6516 17.2282C10.5094 17.086 10.5094 16.8551 10.6516 16.7124C10.7938 16.5702 11.0247 16.5702 11.1673 16.7124C11.5815 17.1266 12.3222 17.1123 12.7525 16.682C13.1875 16.247 13.199 15.5234 12.7779 15.1019C12.6357 14.9597 12.6357 14.7283 12.7779 14.5861C12.9201 14.4439 13.151 14.4439 13.2937 14.5861C13.9946 15.287 13.983 16.4829 13.2683 17.1977C12.904 17.562 12.4154 17.7449 11.9315 17.7449Z" fill="url(#paint1_linear_12483_78)"/>
<defs>
<linearGradient id="paint0_linear_12483_78" x1="12.356" y1="14.0209" x2="10.4356" y2="17.6087" gradientUnits="userSpaceOnUse">
<stop stop-color="white"/>
<stop offset="0.22" stop-color="white"/>
<stop offset="1" stop-color="white" stop-opacity="0"/>
</linearGradient>
<linearGradient id="paint1_linear_12483_78" x1="11.4772" y1="17.72" x2="13.7743" y2="14.2121" gradientUnits="userSpaceOnUse">
<stop stop-color="white"/>
<stop offset="0.22" stop-color="white"/>
<stop offset="1" stop-color="white" stop-opacity="0"/>
</linearGradient>
</defs>
</svg>
