<svg width="32" height="32" viewBox="0 0 32 32" fill="none" xmlns="http://www.w3.org/2000/svg">
<rect width="32" height="32" rx="4" fill="black"/>
<path d="M16.156 11.4684C16.156 10.7511 16.7235 10.1668 17.4201 10.1668H19.6818V7H17.4201C15.0238 7 13.0807 9.00089 13.0807 11.4684C13.0807 12.1123 13.2139 12.7243 13.4519 13.2768C11.5909 14.0869 10.3551 15.808 10.0673 17.9862C9.73112 20.3775 10.6617 22.9572 12.6881 24.2035C14.4967 25.3763 17.3246 25.2987 18.852 23.6717V24.7518H22V12.77H17.4214C16.7248 12.77 16.1573 12.1857 16.1573 11.4684H16.156ZM18.9219 15.9382V18.9458C18.9219 20.6074 17.6136 21.9534 16.0013 21.9534C14.3891 21.9534 13.0807 20.606 13.0807 18.9458C13.0807 17.2855 14.3891 15.9382 16.0013 15.9382H18.9219Z" fill="#BFF009"/>
</svg>
