<svg width="32" height="32" viewBox="0 0 32 32" fill="none" xmlns="http://www.w3.org/2000/svg">
<rect width="32" height="32" rx="4" fill="#ABFD2C"/>
<path fill-rule="evenodd" clip-rule="evenodd" d="M21.2367 12.44C22.0407 11.6902 23.0956 11.2254 24.2712 11.225C26.8836 11.2259 29 13.3606 29 15.9952C29 18.2744 26.7619 20.2236 26.2025 20.6724C23.5861 22.7722 20.1781 24 16.5 24C12.8219 24 9.41391 22.7722 6.79756 20.6724C6.24123 20.2236 4 18.2712 4 15.9952C4 13.36 6.11724 11.225 8.72723 11.225C9.90348 11.225 10.9589 11.6898 11.7632 12.44L11.8459 12.3983C12.0303 9.93949 14.014 8 16.5 8C18.986 8 20.9697 9.93949 21.1541 12.3983L21.2367 12.44ZM22.181 17.1823C22.5402 17.5445 22.7977 17.9805 22.9407 18.4582H22.9439C23.0107 18.6762 22.8612 18.9038 22.6387 18.9422C22.4511 18.9743 22.27 18.8557 22.2127 18.6698C22.1047 18.3171 21.9139 17.9933 21.6468 17.7241C21.2145 17.2881 20.6391 17.0476 20.0256 17.0476C20.0017 17.0476 19.9787 17.0492 19.9556 17.0509C19.9326 17.0524 19.9095 17.0541 19.8856 17.0541C20.229 17.2143 20.4706 17.5638 20.4706 17.9709C20.4706 18.5319 20.0224 18.9839 19.466 18.9839C18.9097 18.9839 18.4615 18.5287 18.4615 17.9709C18.4615 17.8427 18.4869 17.7177 18.5314 17.6055C18.4869 17.6439 18.4424 17.6824 18.4011 17.7241C18.134 17.9933 17.9433 18.3171 17.8352 18.6698C17.7812 18.8557 17.5999 18.9743 17.4092 18.9422C17.1867 18.9038 17.0373 18.6762 17.104 18.4582C17.2471 17.9805 17.5046 17.5445 17.8638 17.1823C18.4392 16.602 19.2086 16.2815 20.0224 16.2815C20.8362 16.2815 21.6055 16.602 22.181 17.1823ZM12.911 17.0509C12.934 17.0493 12.9571 17.0477 12.9809 17.0477C13.5945 17.0477 14.1699 17.2881 14.6022 17.7241C14.8693 17.9934 15.06 18.3172 15.1681 18.6699C15.2253 18.8558 15.4065 18.9744 15.5941 18.9423C15.8166 18.9039 15.9661 18.6763 15.8993 18.4582C15.7562 17.9806 15.4987 17.5446 15.1395 17.1824C14.5641 16.6021 13.7948 16.2816 12.9809 16.2816C12.1671 16.2816 11.3977 16.6021 10.8223 17.1824C10.4631 17.5446 10.2056 17.9806 10.0625 18.4582C9.99578 18.6763 10.1452 18.9039 10.3677 18.9423C10.5585 18.9744 10.7397 18.8558 10.7937 18.6699C10.9018 18.3172 11.0926 17.9934 11.3596 17.7241C11.4009 17.6824 11.4454 17.6439 11.4899 17.6055C11.4454 17.7177 11.42 17.8428 11.42 17.971C11.42 18.5287 11.8682 18.984 12.4246 18.984C12.9809 18.984 13.4292 18.532 13.4292 17.971C13.4292 17.5638 13.1876 17.2144 12.8442 17.0542H12.841C12.8649 17.0542 12.8879 17.0525 12.911 17.0509ZM16.5035 20.7534C17.0884 20.7534 17.6225 20.5291 18.0294 20.1636C18.1789 20.0321 18.3982 20.0257 18.5444 20.1572C18.7098 20.3047 18.7193 20.5707 18.554 20.7214C18.0135 21.2183 17.2919 21.5228 16.5035 21.5228C15.7151 21.5228 14.9966 21.2183 14.453 20.7214C14.2877 20.5707 14.2972 20.3079 14.4625 20.1572C14.612 20.0225 14.8313 20.0321 14.9775 20.1636C15.3813 20.5291 15.9186 20.7534 16.5035 20.7534Z" fill="#2C2D30"/>
</svg>
