<svg width="32" height="32" viewBox="0 0 32 32" fill="none" xmlns="http://www.w3.org/2000/svg">
<g clip-path="url(#clip0_5315_228879)">
<rect width="32" height="32" rx="4" fill="#00D2FF"/>
<path d="M32 0H0V32H32V0Z" fill="#121212"/>
<g clip-path="url(#clip1_5315_228879)">
<mask id="mask0_5315_228879" style="mask-type:luminance" maskUnits="userSpaceOnUse" x="7" y="6" width="19" height="19">
<path d="M25.5704 6.28516H7.04883V24.8735H25.5704V6.28516Z" fill="white"/>
</mask>
<g mask="url(#mask0_5315_228879)">
<path d="M22.431 24.8728H7.04883V9.30078H10.5683V21.8549H22.431V24.8712V24.8728Z" fill="white"/>
<path d="M22.4314 12.3177C24.1652 12.3177 25.5708 10.9673 25.5708 9.30143C25.5708 7.63559 24.1652 6.28516 22.4314 6.28516C20.6976 6.28516 19.292 7.63559 19.292 9.30143C19.292 10.9673 20.6976 12.3177 22.4314 12.3177Z" fill="white"/>
</g>
</g>
</g>
<defs>
<clipPath id="clip0_5315_228879">
<rect width="32" height="32" rx="4" fill="white"/>
</clipPath>
<clipPath id="clip1_5315_228879">
<rect width="19" height="19" fill="white" transform="translate(7 6)"/>
</clipPath>
</defs>
</svg>