<svg width="32" height="32" viewBox="0 0 32 32" fill="none" xmlns="http://www.w3.org/2000/svg">
<g clip-path="url(#clip0_5315_228900)">
<rect width="32" height="32" rx="4" fill="#00D2FF"/>
<path d="M32 0H0V32H32V0Z" fill="black"/>
<g clip-path="url(#clip1_5315_228900)">
<path d="M15.9964 26.8539L15.9978 23.1692C15.6221 23.1692 15.2435 23.1396 14.8729 23.0811L14.2945 26.721C14.8555 26.8092 15.4281 26.8539 15.9971 26.8539H15.9964ZM17.6982 26.7225C18.2607 26.6343 18.8195 26.5021 19.3601 26.328L18.2193 22.8224C17.8632 22.9373 17.494 23.0247 17.1227 23.0825L17.6982 26.7225ZM12.6319 26.3258L13.7757 22.821C13.4189 22.7061 13.0693 22.5616 12.7358 22.3925L11.0514 25.6748C11.5578 25.932 12.0898 26.151 12.6319 26.3258ZM20.9399 25.6792C21.4471 25.4227 21.9376 25.1236 22.3983 24.7905L20.2176 21.8109C19.9146 22.0306 19.5919 22.2271 19.2584 22.3954L20.9399 25.6792ZM9.59366 24.7847L11.7766 21.8066C11.475 21.5884 11.1873 21.3427 10.9198 21.0776L8.29729 23.6815L8.29946 23.6836C8.70204 24.0839 9.13732 24.4545 9.59366 24.7847ZM23.6773 23.706L23.6998 23.6829C24.1009 23.2841 24.473 22.852 24.8058 22.399L21.8112 20.2279C21.5917 20.527 21.3454 20.8131 21.0794 21.0783L21.0424 21.1159L22.3024 22.2986L23.6773 23.706ZM7.18838 22.3918L10.1844 20.2229C9.96355 19.9216 9.76589 19.6008 9.59584 19.2692L6.29385 20.9417C6.55182 21.4453 6.85266 21.933 7.18838 22.3911V22.3918ZM25.7018 20.949C25.9605 20.4454 26.1807 19.9165 26.3572 19.3775L22.8322 18.2396C22.7166 18.5943 22.5713 18.9419 22.4013 19.2735L25.7018 20.949ZM5.64057 19.3696L9.16639 18.2345C9.05084 17.8805 8.96292 17.5135 8.90404 17.1443L5.24308 17.718C5.33174 18.2772 5.46544 18.8328 5.64057 19.3703V19.3696ZM26.7555 17.7259C26.8441 17.1681 26.8892 16.5988 26.8899 16.0338L23.1839 16.0316C23.1839 16.4052 23.1541 16.7816 23.0952 17.1508L26.7555 17.7259ZM8.81612 16.0259C8.81612 15.6523 8.84593 15.2752 8.90404 14.9067L5.24308 14.333C5.15443 14.8908 5.1101 15.4601 5.10938 16.0252H8.81541L8.81612 16.0259ZM23.0967 14.9125L26.7576 14.341C26.6697 13.7818 26.536 13.2262 26.3616 12.6886L22.8351 13.8215C22.9506 14.1763 23.0385 14.5426 23.0967 14.9118V14.9125ZM9.16639 13.8172C9.28192 13.4624 9.42725 13.1142 9.59657 12.7826L6.29458 11.1093C6.03661 11.6128 5.81643 12.1417 5.64057 12.6807L9.16566 13.8172H9.16639ZM22.4056 12.7876L25.7091 11.1172C25.4511 10.6129 25.1503 10.1252 24.8153 9.66715L21.8177 11.8346C22.0379 12.1359 22.2356 12.4567 22.4056 12.7884V12.7876ZM10.1859 11.8289C10.4061 11.5283 10.6531 11.2407 10.9206 10.9756L10.9278 10.9684L8.30745 8.36304L8.3002 8.37026C7.89762 8.77054 7.52411 9.20476 7.19057 9.65921L10.1859 11.8289ZM21.0925 10.9886L21.8839 10.1859L23.7056 8.37531L23.6998 8.36954C23.2994 7.97144 22.8656 7.60226 22.4107 7.27207L20.2263 10.2488C20.5272 10.467 20.8142 10.7112 21.0794 10.9756L21.0925 10.9886ZM11.7853 10.2408C12.0883 10.0219 12.411 9.82537 12.7445 9.65703L11.0652 6.37256C10.5579 6.62905 10.0675 6.92743 9.60676 7.26051L11.7853 10.2408ZM19.2679 9.6628L20.9544 6.38195C20.448 6.12474 19.9168 5.9051 19.3747 5.73025L18.2287 9.23437C18.5855 9.34996 18.935 9.49374 19.2686 9.66353L19.2679 9.6628ZM13.7851 9.23005C14.1419 9.11588 14.5111 9.02845 14.8817 8.97066L14.3083 5.32999C13.7466 5.41741 13.1871 5.54963 12.6464 5.72375L13.7851 9.23005ZM17.1321 8.97283L17.712 5.33288C17.1511 5.24474 16.5784 5.19922 16.0102 5.19922L16.0065 8.88395C16.3822 8.88395 16.7608 8.91431 17.1321 8.97283Z" fill="white"/>
<path d="M15.9989 23.3315V19.6282C15.6859 19.6282 15.3735 19.5876 15.0715 19.5084L14.1044 23.0861C14.7217 23.2488 15.3588 23.3315 15.9989 23.3315ZM17.8934 23.0861C18.5129 22.9227 19.1088 22.6795 19.6629 22.3629L17.7876 19.1562C17.5179 19.3102 17.2283 19.4285 16.927 19.5077L17.8934 23.0861ZM12.3342 22.3622L14.2103 19.1562C13.9413 19.0023 13.6922 18.8128 13.4688 18.5927L13.4343 18.5593L12.2504 19.7909L10.7976 21.1901L10.8189 21.2105C11.273 21.6592 11.783 22.0463 12.3349 22.3622H12.3342ZM21.1789 21.2119H21.1797C21.6331 20.7624 22.0248 20.2592 22.3437 19.7146L19.1 17.8601C18.9442 18.1258 18.7524 18.372 18.5297 18.592L21.1789 21.2119ZM9.64974 19.7066L12.8963 17.8564C12.7406 17.5899 12.6215 17.3038 12.5414 17.0054L8.91929 17.9574C9.08389 18.5695 9.33006 19.1584 9.64974 19.7066ZM23.0771 17.9668C23.2417 17.3568 23.3255 16.7273 23.3262 16.0948L19.5784 16.0934C19.5784 16.4034 19.5372 16.712 19.4564 17.0105L23.0771 17.9668ZM12.4209 16.089C12.4209 15.7789 12.462 15.4703 12.5436 15.1719L8.92369 14.2134C8.75834 14.8233 8.67383 15.4529 8.67383 16.0854L12.4216 16.089H12.4209ZM19.4572 15.1763L23.0785 14.2228C22.9132 13.6107 22.667 13.0218 22.3474 12.4743L19.1015 14.3259C19.2573 14.5924 19.3771 14.8785 19.4572 15.1763ZM12.9 14.3216C13.0536 14.0595 13.2432 13.8162 13.4622 13.5983L13.4717 13.5889L12.1313 12.2644L10.8424 10.9508L10.8189 10.9733C10.3662 11.4206 9.97526 11.9224 9.65707 12.4656L12.9 14.3216ZM18.532 13.5933L19.8591 12.2819L21.2135 11.0068L21.1797 10.9726C20.727 10.5253 20.2177 10.1383 19.6673 9.82313L17.7898 13.0283C18.055 13.1801 18.3019 13.3674 18.5224 13.5838L18.532 13.5933ZM14.2125 13.0262C14.4814 12.8722 14.771 12.7546 15.073 12.6747L14.1088 9.09628C13.4886 9.25965 12.8934 9.50219 12.3386 9.81879L14.2125 13.0262ZM16.9292 12.6761L17.8985 9.09845C17.2812 8.93506 16.6441 8.85229 16.004 8.85156L16.0018 12.5549C16.3156 12.5549 16.628 12.5955 16.93 12.6754L16.9292 12.6761Z" fill="white"/>
</g>
</g>
<defs>
<clipPath id="clip0_5315_228900">
<rect width="32" height="32" rx="4" fill="white"/>
</clipPath>
<clipPath id="clip1_5315_228900">
<rect width="22" height="22" fill="white" transform="translate(5 5)"/>
</clipPath>
</defs>
</svg>