<svg width="32" height="32" viewBox="0 0 32 32" fill="none" xmlns="http://www.w3.org/2000/svg">
<rect width="32" height="32" rx="4" fill="#DFD9D9"/>
<path d="M16.0566 16.5709H16.0353L14.3425 11.6057H12.1045V18.7205C12.4896 18.5172 12.9269 18.3442 13.4031 18.2058V13.7639L13.4249 13.193L15.4075 17.8814C15.6629 17.8598 15.7364 17.8511 16.0004 17.8511C16.2648 17.8511 16.3338 17.8641 16.5891 17.8814L18.5722 13.1411L18.5935 13.712V18.2058C19.0657 18.3442 19.5025 18.5172 19.8922 18.7205V11.6057H17.6542L16.0525 16.5709H16.0566Z" fill="black"/>
<path d="M14.2034 21.428C14.6838 21.428 15.0734 21.0388 15.0734 20.5586C15.0734 20.0785 14.6838 19.6893 14.2034 19.6893C13.7226 19.6893 13.333 20.0785 13.333 20.5586C13.333 21.0388 13.7226 21.428 14.2034 21.428Z" fill="black"/>
<path d="M17.7968 21.428C18.2771 21.428 18.6667 21.0388 18.6667 20.5586C18.6667 20.0785 18.2771 19.6893 17.7968 19.6893C17.316 19.6893 16.9268 20.0785 16.9268 20.5586C16.9268 21.0388 17.316 21.428 17.7968 21.428Z" fill="black"/>
<path d="M16.0002 6.00906C10.4846 6.00906 6 10.4898 6 16C6 21.5102 10.4846 25.991 16.0002 25.991C21.5154 25.991 26 21.5102 26 16C26 10.4898 21.5154 6.00906 16.0002 6.00906ZM16.0002 24.6588C11.2208 24.6588 7.33312 20.7749 7.33312 16C7.33312 11.2251 11.2208 7.34119 16.0002 7.34119C20.7792 7.34119 24.6669 11.2251 24.6669 16C24.6669 20.7749 20.7792 24.6588 16.0002 24.6588Z" fill="black"/>
</svg>
