<svg width="32" height="32" viewBox="0 0 32 32" fill="none" xmlns="http://www.w3.org/2000/svg">
<rect width="32" height="32" rx="4" fill="#121212"/>
<path d="M11.3619 10.9421C9.10399 13.2025 7.22453 15.0996 7.18416 15.1627C7.14128 15.2258 7.08325 15.3242 7.05298 15.3822L7 15.4882V19.6381V23.7856L7.07568 23.8512C7.15137 23.9142 7.29516 23.9672 7.39103 23.9672C7.42383 23.9672 8.86685 22.5418 11.6924 19.7163L15.9432 15.4655L15.9559 19.57C15.9685 23.6569 15.9685 23.6771 16.0214 23.7654C16.0896 23.8814 16.2107 23.9596 16.3519 23.9823L16.4655 24L20.5725 19.8904C23.5898 16.8732 24.7074 15.7379 24.783 15.6193C24.8385 15.5336 24.9117 15.3973 24.942 15.3166L25 15.1753V11.1767C25 7.18823 25 7.17813 24.947 7.08984C24.8789 6.97379 24.7578 6.89558 24.6165 6.87288L24.503 6.85522L20.242 11.1162L15.9811 15.3772V11.3155C15.9811 8.44457 15.9735 7.22354 15.9533 7.15291C15.9054 6.97884 15.7086 6.83756 15.5144 6.83756C15.4816 6.83756 14.0991 8.2049 11.3619 10.9421Z" fill="url(#paint0_linear_11925_172870)"/>
<defs>
<linearGradient id="paint0_linear_11925_172870" x1="7" y1="24" x2="7" y2="6.83756" gradientUnits="userSpaceOnUse">
<stop stop-color="#0058BC"/>
<stop offset="1" stop-color="#4FBAFF"/>
</linearGradient>
</defs>
</svg>
