<svg width="32" height="32" viewBox="0 0 32 32" fill="none" xmlns="http://www.w3.org/2000/svg">
<rect width="32" height="32" rx="4" fill="url(#paint0_linear_7706_11085)"/>
<path fill-rule="evenodd" clip-rule="evenodd" d="M16 28C22.6274 28 28 22.6274 28 16C28 9.37256 22.6274 4 16 4C9.37258 4 4 9.37256 4 16C4 19.0203 5.11578 21.7799 6.95763 23.8892L13.0578 18.2328C13.2961 17.8905 13.4898 17.5187 13.634 17.1263L10.1691 16.6112C9.76048 16.5506 9.76048 15.9613 10.1691 15.9006L13.2817 15.4379L9.67867 10.5767C9.43267 10.2449 9.84934 9.82827 10.1812 10.0742L15.0431 13.6779L15.5061 10.5635C15.5669 10.1549 16.1561 10.1549 16.2168 10.5635L16.6794 13.6764L21.5393 10.0742C21.8712 9.82827 22.2879 10.2449 22.0419 10.5767L18.4391 15.4376L21.5538 15.9006C21.9625 15.9613 21.9625 16.5506 21.5538 16.6112L18.4391 17.0742L22.0419 21.9349C22.2879 22.2667 21.8712 22.6834 21.5393 22.4375L16.6795 18.8353L16.2168 21.9484C16.1561 22.3569 15.5669 22.3569 15.5061 21.9484L14.9881 18.4634C14.6576 18.5633 14.3479 18.7191 14.0718 18.923L8.28134 25.1885C10.3678 26.943 13.0605 28 16 28Z" fill="white"/>
<defs>
<linearGradient id="paint0_linear_7706_11085" x1="1.90476" y1="2.28571" x2="32" y2="24.381" gradientUnits="userSpaceOnUse">
<stop stop-color="#2A2CBF"/>
<stop offset="1" stop-color="#AA68FF"/>
</linearGradient>
</defs>
</svg>
