<svg width="32" height="32" viewBox="0 0 32 32" fill="none" xmlns="http://www.w3.org/2000/svg">
<rect width="32" height="32" rx="4" fill="#F5F5F5"/>
<path d="M14.4989 8.49509C14.4989 7.67009 15.17 6.99998 15.9998 6.99998C16.8296 6.99998 17.5007 7.66851 17.5007 8.49509V17.2651C17.5007 18.0901 16.8296 18.7602 15.9998 18.7602C15.1716 18.7602 14.4989 18.0917 14.4989 17.2651V8.49509Z" fill="url(#paint0_linear_10010_35819)"/>
<path d="M7.55469 8.4952C7.55469 7.66862 8.2274 7.00009 9.05559 7.00009C9.88538 7.00009 10.5581 7.66862 10.5565 8.4952V21.9981H17.8202C18.6452 21.9981 19.3153 22.6692 19.3153 23.499C19.3153 24.3288 18.6468 24.9999 17.8202 24.9999H9.07331C9.06741 24.9999 9.06151 25 9.05559 25C9.04468 25 9.03378 24.9999 9.02292 24.9996C8.67721 24.9934 8.35993 24.8693 8.10949 24.6656C7.77107 24.3916 7.55469 23.9737 7.55469 23.5049V8.4952Z" fill="url(#paint1_linear_10010_35819)"/>
<path d="M22.9449 6.99998C22.1152 6.99998 21.444 7.67009 21.444 8.49509V17.2651C21.444 18.0917 22.1167 18.7602 22.9449 18.7602C23.7747 18.7602 24.4458 18.0901 24.4458 17.2651V8.49509C24.4458 7.66851 23.7747 6.99998 22.9449 6.99998Z" fill="url(#paint2_linear_10010_35819)"/>
<defs>
<linearGradient id="paint0_linear_10010_35819" x1="7.55469" y1="16" x2="24.4457" y2="6.99963" gradientUnits="userSpaceOnUse">
<stop stop-color="#4400E2"/>
<stop offset="0.421875" stop-color="#F94E6C"/>
<stop offset="1" stop-color="#FFCB00"/>
</linearGradient>
<linearGradient id="paint1_linear_10010_35819" x1="7.55469" y1="16" x2="24.4457" y2="6.99963" gradientUnits="userSpaceOnUse">
<stop stop-color="#4400E2"/>
<stop offset="0.421875" stop-color="#F94E6C"/>
<stop offset="1" stop-color="#FFCB00"/>
</linearGradient>
<linearGradient id="paint2_linear_10010_35819" x1="7.55469" y1="16" x2="24.4457" y2="6.99963" gradientUnits="userSpaceOnUse">
<stop stop-color="#4400E2"/>
<stop offset="0.421875" stop-color="#F94E6C"/>
<stop offset="1" stop-color="#FFCB00"/>
</linearGradient>
</defs>
</svg>
