<svg width="32" height="32" viewBox="0 0 32 32" fill="none" xmlns="http://www.w3.org/2000/svg">
<rect width="32" height="32" rx="4" fill="#00D2FF"/>
<path d="M25.9957 14.338C25.9957 14.3039 25.3699 13.9076 25.0404 13.7006C24.8979 13.6121 24.7655 13.5084 24.6457 13.3914C24.3993 13.1498 23.9884 12.7276 23.8544 12.4678C23.7686 12.3016 23.8039 12.0026 23.8706 11.7172C23.9862 11.2165 23.8987 10.6908 23.6268 10.2535L23.1985 9.56185C23.0013 9.24642 22.8427 8.90875 22.7264 8.55604C22.5785 8.10264 22.3212 7.69189 21.9768 7.35952C21.28 6.68552 19.351 6.35371 17.7486 6.30064C17.6495 6.27127 17.5488 6.24759 17.447 6.22969C16.7332 6.10913 15.9726 5.91469 15.2898 6.04112C14.2758 6.22782 13.2507 6.54309 12.4859 7.32138C12.3314 7.47822 12.0906 7.55236 11.9244 7.70093C11.5951 7.99566 11.1514 7.99566 10.8587 8.32319C10.6873 8.5139 10.6082 9.13723 10.1592 9.37541C9.41637 9.77016 8.8678 10.2049 8.68647 10.4271C8.55033 10.5938 8.44433 10.789 8.31223 10.9605C8.17771 11.1355 7.53712 11.4316 7.35095 11.6167C7.16477 11.8018 6.91564 12.2525 7.0281 12.7852C7.03859 12.8337 7.0472 12.8737 7.055 12.9063C7.12818 13.177 7.32727 13.6678 7.28127 13.8932C7.22746 14.1599 6.53683 16.1446 8.08059 16.6735C8.40343 16.7839 8.53795 16.9986 8.57347 17.3253C8.60519 17.59 8.68149 17.8475 8.79919 18.0871C8.93963 18.3805 9.21648 18.5405 9.23907 18.5603C9.33216 18.6403 9.76532 19.09 9.8011 19.1553C10.3489 20.159 10.195 20.6604 11.2434 21.0016C11.5128 21.0898 11.7716 21.2074 12.0148 21.3523C12.3113 21.5288 12.6287 21.6683 12.9599 21.7673C12.9696 21.77 12.9841 21.7751 13.0013 21.7812C13.2343 21.2232 13.4705 20.694 13.706 20.1958C11.8184 18.2773 12.3147 16.1278 12.4953 15.5519C12.5005 15.5347 12.5101 15.5192 12.523 15.5066C12.536 15.4941 12.5519 15.485 12.5693 15.4802C12.5868 15.4754 12.6052 15.475 12.6228 15.4791C12.6404 15.4832 12.6567 15.4916 12.6702 15.5036C13.0662 15.8477 14.2704 17.0885 14.1292 19.329C14.5456 18.5042 14.9505 17.7793 15.3205 17.16C13.9586 14.8718 14.9734 12.8657 15.2936 12.3371C15.3027 12.3213 15.3159 12.308 15.3317 12.2987C15.3475 12.2893 15.3655 12.2841 15.3839 12.2836C15.4023 12.2831 15.4205 12.2873 15.4368 12.2958C15.4532 12.3042 15.467 12.3167 15.4771 12.332C15.7547 12.7406 16.5094 14.0804 16.042 16.0104C16.3808 15.4972 16.6557 15.1171 16.8354 14.8787C17.3229 11.6882 19.7535 10.6402 20.3922 10.4194C20.4093 10.4132 20.4277 10.4114 20.4457 10.4142C20.4637 10.417 20.4807 10.4243 20.4951 10.4354C20.5095 10.4465 20.5208 10.461 20.5279 10.4776C20.5351 10.4942 20.5379 10.5123 20.5361 10.5303C20.4772 11.1899 20.0669 13.731 17.2479 15.0355C16.9089 15.478 16.5825 15.9437 16.2705 16.4225C17.3485 15.5874 18.8589 15.1956 20.1145 15.4962C20.1322 15.5001 20.1487 15.5084 20.1623 15.5203C20.176 15.5322 20.1864 15.5473 20.1927 15.5642C20.1991 15.5811 20.201 15.5993 20.1984 15.6171C20.1959 15.6349 20.1888 15.6519 20.178 15.6663C19.8172 16.14 18.3819 17.7374 15.6778 17.3715C15.2204 18.1351 14.802 18.9091 14.4302 19.649C15.5981 18.7734 17.3041 18.4378 18.6272 18.8787C18.6449 18.8843 18.6608 18.8942 18.6736 18.9075C18.6864 18.9208 18.6956 18.937 18.7004 18.9548C18.7052 18.9725 18.7054 18.9911 18.701 19.009C18.6967 19.0268 18.6879 19.0433 18.6754 19.0569C18.2643 19.4954 16.6815 20.9352 14.0791 20.3638C13.8351 20.8749 13.4714 21.7153 13.2938 22.1306C13.2327 22.2736 13.1765 22.4179 13.1264 22.5648C13.0113 22.903 12.8561 23.325 12.6712 23.7475C12.6452 23.8077 12.6319 23.8726 12.6322 23.9382C12.6325 24.0038 12.6463 24.0686 12.6729 24.1286C12.6996 24.1887 12.7384 24.2426 12.7869 24.2872C12.8354 24.3317 12.8926 24.3659 12.9551 24.3876C15.0087 25.1144 17.2382 25.1964 19.3405 24.6223C19.4099 24.6028 19.4741 24.568 19.528 24.5204C19.582 24.4729 19.6245 24.4139 19.6523 24.3479C19.6961 24.2449 19.7395 24.1473 19.7395 24.1473C19.7395 24.1473 20.6483 22.0559 20.782 21.1445C20.8201 20.8573 20.9102 20.5792 21.0478 20.3236C21.1187 20.1958 21.2212 20.0881 21.3457 20.0106C21.4702 19.933 21.6126 19.8882 21.7594 19.8803C22.4511 19.844 23.9241 19.7482 24.4601 19.5799C25.1722 19.3556 24.8636 18.0695 24.8251 17.9311C24.7867 17.7926 25.1679 17.4702 25.2462 17.2821C25.3245 17.0941 25.0536 17.0295 24.943 16.8228C24.8324 16.6161 25.2177 16.4681 25.2726 16.2806C25.3274 16.0931 25.1472 15.8872 25.0743 15.7487C25.0256 15.6501 24.9915 15.545 24.9731 15.4367C24.9731 15.4367 25.4942 15.0585 25.7711 14.8197C26.0479 14.581 25.9965 14.3845 25.9957 14.338Z" fill="black"/>
</svg>