<svg width="32" height="32" viewBox="0 0 32 32" fill="none" xmlns="http://www.w3.org/2000/svg">
<rect width="32" height="32" rx="4" fill="#FF004C"/>
<path d="M10.7165 17.9823L12.6729 16.0041V15.9953L14.62 17.9735C15.1827 18.5425 15.8708 18.7956 16.5497 18.7956C17.9701 18.7956 19.3364 17.6758 19.3364 15.9953L21.2835 17.9735C21.8462 18.5425 22.5344 18.7956 23.2132 18.7956C24.6336 18.7956 26 17.6758 26 15.9953H24.3293L22.3822 14.0265C21.8195 13.4575 21.1227 13.2044 20.4438 13.2044C19.0234 13.2044 17.6658 14.3154 17.6658 15.9953L15.7186 14.0265C15.156 13.4575 14.4591 13.2044 13.7803 13.2044C12.3599 13.2044 11.0022 14.3154 11.0022 15.9953L6 16.0041C6 17.6934 7.38439 18.7862 8.80479 18.7862C9.48363 18.7862 10.1718 18.5331 10.7165 17.9823Z" fill="white"/>
</svg>
