<svg width="32" height="32" viewBox="0 0 32 32" fill="none" xmlns="http://www.w3.org/2000/svg">
<rect width="32" height="32" rx="4" fill="#06353D"/>
<path d="M24.2857 21.0874C24.288 20.6403 25.9978 20.6594 25.9866 20.2392C25.9798 19.9894 25.5261 19.9378 25.4308 19.6095C25.4151 19.549 25.4095 19.4795 25.4196 19.3978C25.4263 19.3496 25.4387 19.2969 25.4588 19.2398C25.8095 18.2202 26 17.1266 26 15.9894C26 10.4667 21.5227 5.98935 16 5.98935C10.4773 5.98935 6 10.4667 6 15.9894C6 17.121 6.18823 18.2078 6.53445 19.2218C6.53669 19.2308 6.54006 19.2409 6.54342 19.251C6.5535 19.2779 6.56134 19.3025 6.56919 19.3272C6.69244 19.7709 6.00224 19.9468 6.00224 20.2146C6.00224 20.6381 7.48908 20.5821 7.48908 21.0751C7.48908 21.5042 6.01793 21.6375 6.01793 22.0711C6.01793 22.6695 9.27619 22.4622 9.31653 22.9765C9.3479 23.3742 8.19608 23.3978 8.18936 23.8224C8.17815 24.5003 12.6353 24.2784 12.6353 24.73C12.6353 25.0717 10.6084 24.9473 10.6084 25.3518C10.6084 25.7563 13.2773 26.0106 16.2185 26.0106C19.1597 26.0106 21.1877 25.6835 21.1877 25.3294C21.1877 24.9753 19.2941 25.0493 19.3333 24.73C19.4017 24.1731 23.6034 24.4577 23.6034 23.8134C23.6034 23.4739 22.4471 23.3944 22.4852 23.0291C22.5378 22.5126 25.9978 22.5888 25.9978 22.0521C25.9978 21.6297 24.2835 21.5266 24.2857 21.0874ZM19.8062 23.6151C19.8062 23.9109 18.4661 24.0454 15.8936 24.0454C13.7894 24.0454 11.6997 23.9132 11.6997 23.5692C11.6997 23.2252 14.1927 23.195 15.9059 23.1972C18.1882 23.2017 19.8073 23.307 19.8062 23.614V23.6151ZM16 8.60111C19.1541 8.60111 21.8465 10.5776 22.9064 13.3597C23.0286 13.7204 22.5849 13.698 22.2711 13.698H21.4196C20.8112 13.698 20.0459 13.7709 20.0459 13.9378C20.0459 14.1462 21.9048 14.1339 22.1098 14.1339C22.7092 14.1339 23.1798 14.1787 23.2482 14.5473C23.3401 15.0134 23.3894 15.4952 23.3894 15.9882C23.3894 16.9787 23.1933 17.9244 22.8392 18.7871C22.7238 19.0415 22.5737 19.1725 22.3899 19.2823C21.5104 19.7709 19.9171 19.6835 19.9171 19.9781C19.9171 20.4062 22.6017 20.2235 22.605 20.5955C22.6106 21.1636 17.8151 20.8263 17.8162 21.3384C17.8162 21.8459 21.6739 21.6095 21.6739 22.1417C21.6739 22.4095 20.4347 22.5081 19.0846 22.5417C16.986 22.5697 13.2773 22.5529 11.879 22.5059C11.879 22.5059 11.879 22.5059 11.8801 22.507C10.9345 22.4734 10.1289 22.3434 9.81289 22.2078C9.72549 22.1709 9.72213 22.0644 9.80504 22.0218C10.7608 21.53 16.5938 21.9221 16.5938 21.3507C16.5938 20.7793 10.8303 21.1748 10.8347 20.6795C10.8381 20.3277 13.3535 20.358 15.3479 20.358C17.9317 20.358 18.7249 20.2291 18.7238 20.042C18.7216 19.6678 15.5462 19.8874 15.535 19.4672C15.5238 19.0594 20.5613 19.3574 20.5613 18.9585C20.5613 18.7053 18.3731 18.6807 16.1849 18.6896C13.9966 18.6975 11.8084 18.702 11.8084 18.9731C11.8084 19.2801 14.3978 19.1613 14.3978 19.4683C14.3978 19.7115 12.9748 19.7619 11.488 19.7619C10.5076 19.7619 9.74678 19.6879 9.37367 19.2252C9.34342 19.1871 9.31204 19.1311 9.2874 19.0818C8.8549 18.1406 8.61064 17.0941 8.61064 15.9905C8.61064 11.9098 11.9182 8.60223 15.9989 8.60223L16 8.60111Z" fill="white"/>
<path d="M15.8509 18.1171C19.033 18.1171 22.131 18.163 22.1321 17.8079C22.1321 17.3776 17.6884 17.428 15.3803 17.428C13.5495 17.428 10.2666 17.3709 10.2666 17.7798C10.2666 18.1888 13.9417 18.1182 15.8509 18.1182V18.1171Z" fill="white"/>
<path d="M17.9037 16.8957C19.9956 16.8957 21.0432 16.8711 21.0432 16.619C21.0432 16.2537 18.195 16.4565 18.195 16.0946C18.195 15.7775 19.9945 15.9557 19.9945 15.614C19.9945 15.345 17.9788 15.3708 16.8807 15.3708C15.6617 15.3708 14.4628 15.4168 14.4628 15.6453C14.4628 15.9411 17.534 15.7753 17.534 16.0789C17.534 16.5137 12.6611 16.1999 12.6611 16.619C12.6611 17.0156 15.8286 16.8957 17.9037 16.8957Z" fill="white"/>
<path d="M19.9592 14.9574C20.4074 14.9574 21.7216 14.9294 21.7216 14.7501C21.7216 14.5709 20.748 14.5126 19.7362 14.5137C19.0404 14.5137 17.623 14.5261 17.623 14.7289C17.623 14.9317 18.6987 14.9586 19.9592 14.9574Z" fill="white"/>
<path d="M20.7168 15.6207C20.7168 15.7911 21.4686 15.8605 22.0456 15.8605C22.3784 15.8605 23.0137 15.7911 23.0137 15.6566C23.0137 15.493 22.3616 15.4437 21.965 15.4381C21.4507 15.4314 20.7168 15.474 20.7168 15.6207Z" fill="white"/>
</svg>
