<svg width="32" height="32" viewBox="0 0 32 32" fill="none" xmlns="http://www.w3.org/2000/svg">
<rect width="32" height="32" rx="4" fill="#181E41"/>
<path d="M20.2973 17.9042C19.1499 17.9043 17.693 17.5653 16.0403 16.4229C14.3752 15.2722 12.6611 14.9661 10.9453 15.5133C9.66036 15.923 8.86818 16.6669 8.86035 16.6744C8.68025 16.8455 8.39553 16.8384 8.22446 16.6584C8.05323 16.4784 8.06042 16.1936 8.24043 16.0225C8.27861 15.9862 9.19235 15.128 10.672 14.6562C12.0437 14.2189 14.1775 14.0419 16.5517 15.6829C20.4873 18.403 23.037 16.1181 23.1437 16.0195C23.3257 15.8514 23.6099 15.8611 23.7788 16.0423C23.9477 16.2234 23.9392 16.5064 23.7588 16.676C23.7261 16.7067 22.9437 17.432 21.5921 17.7541C21.2234 17.8421 20.7887 17.9042 20.2973 17.9042Z" fill="#55CFC7"/>
<path d="M16.4303 14.6185C20.1017 17.156 22.5667 15.3381 22.9678 15.0026C23.0783 14.4931 23.1371 13.9642 23.1371 13.4216C23.1371 9.32276 19.8143 6 15.7155 6C11.6167 6 8.29395 9.32276 8.29395 13.4216C8.29395 13.8633 8.33272 14.2959 8.40672 14.7164C8.78979 14.419 9.53745 13.9149 10.5506 13.5918C11.9223 13.1545 14.056 12.9774 16.4303 14.6185Z" fill="#F1B606"/>
<path d="M22.2447 21.0614C21.9963 21.0614 21.7949 20.8601 21.7949 20.6116V18.8705C21.7949 18.622 21.9963 18.4207 22.2447 18.4207C22.4931 18.4207 22.6945 18.622 22.6945 18.8705V20.6116C22.6945 20.8601 22.4931 21.0614 22.2447 21.0614Z" fill="#55CFC7"/>
<path d="M14.9137 21.0615C14.6653 21.0615 14.4639 20.8601 14.4639 20.6117V17.4567C14.4639 17.2083 14.6653 17.0069 14.9137 17.0069C15.1621 17.0069 15.3635 17.2083 15.3635 17.4567V20.6117C15.3635 20.8601 15.1621 21.0615 14.9137 21.0615Z" fill="#55CFC7"/>
<path d="M16.7496 19.7318C16.5012 19.7318 16.2998 19.5304 16.2998 19.282V18.5064C16.2998 18.258 16.5012 18.0566 16.7496 18.0566C16.998 18.0566 17.1994 18.258 17.1994 18.5064V19.282C17.1994 19.5304 16.998 19.7318 16.7496 19.7318Z" fill="#55CFC7"/>
<path d="M18.5865 24.1955C18.3381 24.1955 18.1367 23.9941 18.1367 23.7457V19.187C18.1367 18.9386 18.3381 18.7372 18.5865 18.7372C18.8349 18.7372 19.0363 18.9386 19.0363 19.187V23.7457C19.0363 23.9941 18.8349 24.1955 18.5865 24.1955Z" fill="#55CFC7"/>
<path d="M13.109 26C12.8606 26 12.6592 25.7986 12.6592 25.5502V16.6149C12.6592 16.3664 12.8606 16.1651 13.109 16.1651C13.3574 16.1651 13.5588 16.3664 13.5588 16.6149V25.5502C13.5588 25.7986 13.3574 26 13.109 26Z" fill="#55CFC7"/>
<path d="M20.3902 23.5624C20.1419 23.5624 19.9404 23.361 19.9404 23.1126V19.377C19.9404 19.1286 20.1419 18.9272 20.3902 18.9272C20.6386 18.9272 20.84 19.1286 20.84 19.377V23.1126C20.84 23.361 20.6386 23.5624 20.3902 23.5624Z" fill="#55CFC7"/>
<path d="M9.37265 21.3147C9.12427 21.3147 8.92285 21.1133 8.92285 20.8649V17.7308C8.92285 17.4824 9.12427 17.281 9.37265 17.281C9.62104 17.281 9.82246 17.4824 9.82246 17.7308V20.8649C9.82246 21.1133 9.62104 21.3147 9.37265 21.3147Z" fill="#55CFC7"/>
<path d="M11.273 21.6946C11.0247 21.6946 10.8232 21.4932 10.8232 21.2448V16.8761C10.8232 16.6276 11.0247 16.4263 11.273 16.4263C11.5214 16.4263 11.7228 16.6276 11.7228 16.8761V21.2448C11.7228 21.4932 11.5214 21.6946 11.273 21.6946Z" fill="#55CFC7"/>
</svg>
