<svg width="32" height="32" viewBox="0 0 32 32" fill="none" xmlns="http://www.w3.org/2000/svg">
<rect width="32" height="32" rx="4" fill="black"/>
<path fill-rule="evenodd" clip-rule="evenodd" d="M21.8662 21.6024C22.4871 22.3869 22.24 23.5429 21.3526 24.005L19.7878 24.8198C19.0926 25.1817 18.2373 24.9844 17.771 24.3544L14.8031 20.3447L12.6243 22.9429C11.9781 23.7134 10.7708 23.6386 10.2248 22.7941L9.47025 21.6272C9.13159 21.1034 9.15398 20.4244 9.52636 19.924L12.0418 16.5443L9.19653 12.5541C8.87683 12.1058 8.81123 11.5243 9.02291 11.016L9.71723 9.34951C10.0983 8.43482 11.3236 8.26964 11.9332 9.05076L14.8484 12.7858L18.8596 7.61668C19.4536 6.85097 20.588 6.78853 21.2627 7.4843L22.6507 8.91588C23.2211 9.50416 23.2524 10.4293 22.723 11.0547L17.9662 16.6751L21.866 21.6023L21.8662 21.6024ZM20.6193 8.10841C20.3241 7.80399 19.8279 7.83126 19.5678 8.16623L15.0074 14.0431C14.9279 14.1457 14.7729 14.1459 14.693 14.0436L11.2265 9.60229C11.039 9.3619 10.662 9.41274 10.5447 9.69424L9.85041 11.3607C9.7578 11.583 9.78652 11.8374 9.92628 12.0337L13.0663 16.4373C13.1165 16.5078 13.1156 16.6025 13.064 16.6719L10.2453 20.4591C10.0963 20.6592 10.0874 20.9309 10.2229 21.1404L10.9773 22.3074C11.1957 22.6451 11.6786 22.6751 11.9371 22.3669L14.6843 19.0909C14.7671 18.9923 14.9203 18.9969 14.9971 19.1004L18.4913 23.821C18.6953 24.0966 19.0694 24.183 19.3737 24.0247L20.9384 23.2099C21.3266 23.0078 21.4348 22.5021 21.1632 22.1588L16.9091 16.7842C16.8502 16.7097 16.852 16.6042 16.9132 16.5318L22.0387 10.4756C22.2703 10.202 22.2566 9.79725 22.0071 9.53986L20.6191 8.10828L20.6193 8.10841Z" fill="#00E599"/>
</svg>
