<svg width="32" height="32" viewBox="0 0 32 32" fill="none" xmlns="http://www.w3.org/2000/svg">
<rect width="32" height="32" rx="4" fill="black"/>
<path d="M9.41131 15.9997L9.42186 19.8681L12.7088 21.8023V24.067L7.49824 21.011V14.8686L9.41131 15.9997ZM9.41131 12.1314V14.3856L7.49707 13.2532V10.999L9.41131 9.86667L11.3349 10.999L9.41131 12.1314ZM14.0815 10.999L15.9957 9.86667L17.9193 10.999L15.9957 12.1314L14.0815 10.999Z" fill="#F0B90B"/>
<path d="M10.7939 19.0663V16.8016L12.7082 17.9339V20.1881L10.7939 19.0663ZM14.0809 22.6134L15.9951 23.7458L17.9187 22.6134V24.8676L15.9951 26L14.0809 24.8676V22.6134ZM20.6641 10.999L22.5783 9.86667L24.5019 10.999V13.2532L22.5783 14.3856V12.1314L20.6641 10.999ZM22.5783 19.8681L22.5889 15.9997L24.5031 14.8674V21.0098L19.2926 24.0658V21.8011L22.5783 19.8681Z" fill="#F0B90B"/>
<path d="M21.2053 19.0679L19.291 20.1897V17.9355L21.2053 16.8031V19.0679Z" fill="#F0B90B"/>
<path d="M21.2056 12.9337L21.2162 15.1984L17.9199 17.1326V21.0103L16.0057 22.1322L14.0914 21.0103V17.1326L10.7951 15.1984V12.9337L12.7176 11.8013L15.9939 13.7449L19.2902 11.8013L21.2139 12.9337H21.2056ZM10.7939 9.06654L15.9951 6L21.2056 9.06654L19.2914 10.1989L15.9951 8.25536L12.7082 10.1989L10.7939 9.06654Z" fill="#F0B90B"/>
</svg>
