<svg width="32" height="32" viewBox="0 0 32 32" fill="none" xmlns="http://www.w3.org/2000/svg">
<rect width="32" height="32" rx="4" fill="#FF0420"/>
<path d="M16 4C9.4 4 4 9.4 4 16C4 22.6 9.4 28 16 28C22.6 28 28 22.6 28 16C28 9.4 22.6 4 16 4ZM16 22.12V26.62C11.38 26.62 7.66 22.9 7.66 18.28C7.66 13.66 11.38 9.94 16 9.94V5.44C20.62 5.44 24.34 9.16 24.34 13.78C24.34 18.4 20.62 22.12 16 22.12Z" fill="white"/>
<path d="M16.0365 11H15.9635C14.8686 13.1739 13.1898 14.8406 11 15.9275C13.1898 17.087 14.8686 18.7536 15.9635 21H16.0365C17.1314 18.8261 18.8102 17.1594 21 16.0725C18.8102 14.913 17.1314 13.2464 16.0365 11Z" fill="white"/>
</svg>
