<svg width="32" height="32" viewBox="0 0 32 32" fill="none" xmlns="http://www.w3.org/2000/svg">
<path d="M0 4C0 1.79086 1.79086 0 4 0H28C30.2091 0 32 1.79086 32 4V28C32 30.2091 30.2091 32 28 32H4C1.79086 32 0 30.2091 0 28V4Z" fill="#31249F"/>
<path d="M13.0807 21.0082L13.0176 20.8924L13.0025 20.8642L12.9875 20.8341L12.9432 20.7475L12.915 20.691L12.9009 20.6609L12.8877 20.6326L12.8736 20.6034L12.8472 20.5451L12.834 20.5168L12.7719 20.3728L12.7135 20.2288L12.6919 20.1713L12.6815 20.1431L12.6702 20.1149L12.6608 20.0866L12.6495 20.0574L12.6401 20.0292L12.6194 19.9727L12.61 19.9445L12.6015 19.9162L12.5921 19.888L12.5827 19.8597L12.5648 19.8032L12.5572 19.775L12.5234 19.6639L12.5083 19.6074L12.5008 19.5801L12.4942 19.5519L12.4866 19.5255L12.4791 19.4973L12.4725 19.4691L12.465 19.4427L12.4584 19.4145L12.4518 19.3881L12.4452 19.3608L12.4386 19.3325L12.4273 19.2798L12.4207 19.2525L12.416 19.2252L12.4038 19.1716L12.3991 19.1462L12.3934 19.1189L12.3878 19.0915L12.3831 19.0661L12.3784 19.0388L12.3737 19.0125L12.369 18.9871L12.3643 18.9598L12.3511 18.8816L12.3473 18.8562L12.3379 18.8044L12.3351 18.7781L12.3313 18.7526L12.3275 18.7282L12.3247 18.7018L12.3144 18.6265L12.3115 18.6011L12.3087 18.5757L12.3059 18.5502L12.3021 18.5258L12.2993 18.5013L12.2974 18.4759L12.2946 18.4514L12.2918 18.426L12.2899 18.4024L12.288 18.378L12.2824 18.329L12.2777 18.2556L12.2748 18.2321L12.2729 18.2085V18.2019L12.2475 18.185L12.1882 18.1436L12.1675 18.1294L12.1487 18.1163L12.1289 18.1012L12.1101 18.088L12.0894 18.073L12.0696 18.0579L12.0489 18.0438L12.0301 18.0287L12.0094 18.0146L11.9905 17.9986L11.9698 17.9845L11.95 17.9685L11.9293 17.9534L11.9105 17.9374L11.8493 17.8913L11.8305 17.8753L11.8088 17.8583L11.7891 17.8433L11.7684 17.8273L11.7495 17.8103L11.7288 17.7934L11.7081 17.7774L11.6479 17.7256L11.629 17.7086L11.5876 17.6738L11.4869 17.5844L11.4671 17.5655L11.3664 17.4714L11.3457 17.4526L11.3259 17.4337L11.3061 17.414L11.2657 17.3744L11.2459 17.3537L11.2252 17.3349L11.2063 17.3142L11.1659 17.2728L11.1263 17.2313L11.1075 17.2097L11.0868 17.189L11.0077 17.1024L10.9691 17.0581L10.9493 17.0355L10.9305 17.0129L10.8335 16.8981L10.795 16.851L10.7761 16.8265L10.7385 16.7795L10.7196 16.7541L10.7008 16.7296L10.682 16.7051L10.6632 16.6806L10.6443 16.6562L10.553 16.5281L10.5342 16.5018L10.5163 16.4754L10.4984 16.449L10.4636 16.3963L10.4448 16.37L10.3751 16.2608L10.3581 16.2325L10.3412 16.2043L10.3243 16.177L10.3073 16.1487L10.2904 16.1205L10.2734 16.0923L10.2574 16.064L10.2499 16.0518L10.2452 16.0612L10.2282 16.0894L10.2122 16.1196L10.1953 16.1478L10.1783 16.1779L10.1633 16.208L10.1473 16.2391L10.1313 16.2683L10.1153 16.2994L10.0993 16.3295L10.0842 16.3596L10.0682 16.3916L10.0531 16.4217L10.0381 16.4538L10.023 16.4848L9.99288 16.5479L9.97876 16.5799L9.9637 16.6119L9.92134 16.7089L9.90721 16.7409L9.89309 16.7748L9.87991 16.8068L9.86579 16.8397L9.85355 16.8736L9.84038 16.9066L9.8272 16.9405L9.81496 16.9743L9.78954 17.0421L9.7773 17.076L9.76506 17.1108L9.75283 17.1447L9.74059 17.1796L9.73023 17.2144L9.71799 17.2492L9.7067 17.2831L9.69634 17.3189L9.68504 17.3547L9.67469 17.3904L9.66339 17.4253L9.64268 17.4968L9.63327 17.5335L9.62385 17.5693L9.61444 17.6051L9.60503 17.6418L9.59561 17.6785L9.5862 17.7152L9.56925 17.7887L9.56078 17.8254L9.55231 17.863L9.54478 17.9007L9.53725 17.9374L9.52877 17.9751L9.52218 18.0127L9.51559 18.0504L9.50806 18.088L9.50147 18.1266L9.49488 18.1643L9.48264 18.2415L9.46099 18.3949L9.45628 18.4345L9.45252 18.4721L9.44311 18.5512L9.43557 18.6303L9.43275 18.6689L9.42898 18.7084L9.42334 18.7884L9.41486 18.9466L9.4111 19.068L9.41016 19.1895L9.41204 19.3514L9.41298 19.3919L9.41392 19.4333L9.41675 19.4738L9.41863 19.5142L9.42239 19.5971L9.43181 19.7195L9.44216 19.8437L9.44405 19.8597L9.45534 19.8682L9.52124 19.9153L9.58902 19.9623L9.62291 19.9859L9.65586 20.0085L9.69069 20.032L9.72364 20.0546L9.86109 20.1403L9.96464 20.2033L9.99947 20.2222L10.0334 20.2429L10.0691 20.2626L10.103 20.2815L10.1379 20.3022L10.1727 20.321L10.2075 20.3398L10.3139 20.3944L10.3845 20.4293L10.4193 20.4462L10.4551 20.4632L10.4899 20.4801L10.5257 20.4961L10.6321 20.5432L10.6679 20.5592L10.7036 20.5743L10.7394 20.5893L10.7752 20.6034L10.811 20.6176L10.8816 20.6458L10.9183 20.6599L10.9531 20.6731L10.9898 20.6863L11.0256 20.6995L11.0971 20.7239L11.1329 20.7362L11.1687 20.7484L11.2412 20.771L11.3118 20.7927L11.3485 20.803L11.3833 20.8143L11.42 20.8237L11.4906 20.8444L11.5274 20.8538L11.598 20.8727L11.6347 20.8802L11.6705 20.8887L11.7053 20.8981L11.7411 20.9047L11.7768 20.9141L11.8832 20.9357L11.9905 20.9546L12.0254 20.9621L12.0602 20.9678L12.095 20.9734L12.1308 20.9791L12.1656 20.9847L12.2014 20.9894L12.2711 20.9988L12.3059 21.0035L12.3417 21.0082L12.3765 21.012L12.4113 21.0158L12.4452 21.0195L12.5497 21.0289L12.5836 21.0327L12.6184 21.0346L12.6872 21.0393L12.7211 21.0412L12.7549 21.0431L12.8576 21.0478L13.0251 21.0515H13.1061L13.0986 21.0365L13.0816 21.0082H13.0807ZM10.28 16.0009L10.297 15.9727L10.3139 15.9445L10.3308 15.9162L10.3836 15.8315L10.4014 15.8042L10.4184 15.7759L10.4372 15.7486L10.4542 15.7213L10.473 15.695L10.4899 15.6677L10.5813 15.5359L10.6001 15.5095L10.6189 15.4841L10.6377 15.4587L10.6566 15.4333L10.7705 15.2845L10.8081 15.2365L10.8288 15.213L10.8477 15.1885L10.8674 15.1659L10.8863 15.1414L10.907 15.1189L10.9258 15.0953L10.9446 15.0727L10.9653 15.0501L10.9851 15.0275L11.0444 14.9607L11.0642 14.939L11.084 14.9165L11.1235 14.8741L11.1442 14.8524L11.164 14.8308L11.1838 14.811L11.2045 14.7903L11.2242 14.7687L11.244 14.7479L11.2647 14.7291L11.3457 14.6482L11.3664 14.6293L11.3852 14.6096L11.4069 14.5898L11.4473 14.5521L11.4671 14.5333L11.549 14.458L11.6102 14.4043L11.63 14.3874L11.6507 14.3686L11.6912 14.3347L11.7109 14.3177L11.7524 14.2829L11.7731 14.2669L11.7928 14.2499L11.8126 14.233L11.854 14.2L11.8729 14.185L11.8936 14.169L11.9143 14.153L11.934 14.137L11.9745 14.1059L11.9943 14.0899L12.015 14.0748L12.0338 14.0598L12.0555 14.0447L12.0753 14.0297L12.095 14.0146L12.1157 14.0005L12.1553 13.9713L12.175 13.9562L12.1939 13.9421L12.2155 13.9289L12.2343 13.9139L12.2937 13.8724L12.2955 13.863L12.2974 13.8404L12.304 13.7679L12.3059 13.7435L12.3078 13.719L12.3106 13.6945L12.3144 13.67L12.3163 13.6456L12.3191 13.6201L12.3219 13.5966L12.3247 13.5712L12.3407 13.446L12.3445 13.4196L12.3473 13.3952L12.3511 13.3688L12.3558 13.3443L12.3586 13.318L12.3633 13.2916L12.3671 13.2671L12.3793 13.189L12.384 13.1626L12.3897 13.1363L12.3934 13.1108L12.4029 13.0572L12.4085 13.0318L12.4132 13.0045L12.4189 12.9781L12.4245 12.9518L12.4471 12.8444L12.4537 12.8162L12.4603 12.7908L12.4659 12.7625L12.4725 12.7362L12.4857 12.6806L12.4923 12.6543L12.4989 12.626L12.5064 12.5997L12.513 12.5714L12.5205 12.5432L12.5299 12.5159L12.5365 12.4876L12.5441 12.4594L12.5535 12.433L12.5601 12.4048L12.577 12.3483L12.5864 12.321L12.594 12.2928L12.6034 12.2645L12.6128 12.2363L12.6222 12.208L12.641 12.1516L12.6504 12.1233L12.6599 12.0951L12.6693 12.0668L12.6806 12.0367L12.7003 11.9802L12.7116 11.952L12.722 11.9237L12.7333 11.8936L12.7446 11.8654L12.7559 11.8371L12.7672 11.8089L12.7907 11.7505L12.8039 11.7213L12.8152 11.6931L12.8528 11.6056L12.9197 11.4606L12.9338 11.4314L12.947 11.4022L12.9621 11.374L12.9903 11.3147L13.0204 11.2572L13.0355 11.2271L13.0515 11.1989L13.0665 11.1687L13.0986 11.1113L13.1155 11.0821L13.1315 11.0539L13.1475 11.0238L13.155 11.0125H13.1174L13.0844 11.0134H13.0496L12.9837 11.0153L12.9489 11.0172L12.9159 11.0191L12.882 11.02L12.8481 11.0219L12.7794 11.0257L12.7116 11.0313L12.6768 11.0341L12.642 11.0379L12.6081 11.0398L12.5742 11.0435L12.5384 11.0473L12.5045 11.0511L12.4697 11.0548L12.4339 11.0595L12.4 11.0642L12.3652 11.069L12.3294 11.0737L12.2946 11.0784L12.2598 11.084L12.224 11.0897L12.1186 11.1085L12.0828 11.1141L12.048 11.1207L12.0131 11.1273L11.9764 11.1349L11.9416 11.1424L11.9058 11.1499L11.87 11.1574L11.8343 11.1659L11.7985 11.1735L11.7627 11.1819L11.7279 11.1904L11.6554 11.2092L11.6206 11.2186L11.5838 11.2281L11.5123 11.2478L11.4765 11.2582L11.4408 11.2685L11.3683 11.2902L11.3334 11.3015L11.2242 11.3373L11.1894 11.3495L11.1169 11.3749L11.0811 11.3881L11.0086 11.4154L10.9738 11.4286L10.9371 11.4427L10.9013 11.4568L10.8656 11.4719L10.8298 11.486L10.794 11.5011L10.7582 11.5161L10.7225 11.5321L10.6858 11.5481L10.6151 11.5801L10.5794 11.5971L10.473 11.6479L10.4014 11.6827L10.3657 11.7016L10.3308 11.7195L10.296 11.7383L10.2602 11.7571L10.2245 11.7759L10.1896 11.7948L10.1548 11.8155L10.12 11.8343L10.0503 11.8757L10.0145 11.8964L9.9797 11.9172L9.94487 11.9379L9.91098 11.9595L9.87615 11.9812L9.84132 12.0038L9.80743 12.0254L9.77259 12.048L9.7387 12.0706L9.70481 12.0941L9.67092 12.1167L9.6022 12.1638L9.56925 12.1883L9.53536 12.2128L9.50241 12.2363L9.4817 12.2523V12.257L9.47229 12.3389L9.46852 12.3813L9.46476 12.4217L9.46193 12.4632L9.45817 12.5036L9.45534 12.5451L9.45346 12.5865L9.4497 12.627L9.44781 12.6684L9.44687 12.7089L9.44499 12.7503L9.44311 12.7908V12.8313L9.44216 12.8717L9.44122 12.9527V13.0732L9.44499 13.1946L9.44687 13.2342L9.44875 13.2737L9.4497 13.3132L9.45252 13.3528L9.4544 13.3933L9.46099 13.4723L9.46382 13.51L9.47135 13.5891L9.47888 13.6672L9.48359 13.7058L9.493 13.7839L9.49865 13.8216L9.509 13.8988L9.51465 13.9365L9.54007 14.0871L9.54666 14.1247L9.55419 14.1624L9.56172 14.2L9.56831 14.2377L9.59279 14.3488L9.60032 14.3846L9.60973 14.4222L9.63609 14.5305L9.65492 14.603L9.68504 14.7093L9.71611 14.8157L9.72741 14.8496L9.77259 14.988L9.78389 15.0219L9.79613 15.0567L9.83379 15.1574L9.84602 15.1904L9.8592 15.2233L9.87144 15.2572L9.8978 15.3231L9.91098 15.3551L9.92416 15.3881L9.98064 15.5171L9.99476 15.5481L10.039 15.6423L10.0531 15.6733L10.0691 15.7044L10.0983 15.7656L10.1143 15.7957L10.1303 15.8258L10.1454 15.856L10.1925 15.9454L10.2094 15.9746L10.2254 16.0028L10.2508 16.0499L10.2621 16.0311L10.28 16.0009ZM18.7808 21.0129L18.618 21.0101L18.4881 21.0035L18.456 21.0016L18.424 20.9998L18.393 20.9979L18.36 20.996L18.329 20.9932L18.297 20.9903L18.2659 20.9875L18.2339 20.9847L18.2038 20.9819L18.1717 20.9781L18.1407 20.9743L18.1096 20.9715L17.9872 20.9555L17.9571 20.9518L17.926 20.947L17.8969 20.9433L17.8658 20.9376L17.8376 20.9329L17.8065 20.9282L17.7773 20.9226L17.7472 20.9179L17.718 20.9122L17.6888 20.9066L17.6587 20.9019L17.6304 20.8953L17.5721 20.8849L17.5438 20.8783L17.5156 20.8727L17.4864 20.8661L17.4017 20.8473L17.3734 20.8397L17.3452 20.8331L17.317 20.8256L17.2906 20.819L17.2624 20.8124L17.1532 20.7832L17.1268 20.7748L17.0995 20.7682L17.0468 20.7522L17.0204 20.7446L16.9413 20.7202L16.9159 20.7108L16.8896 20.7032L16.8641 20.6957L16.8378 20.6863L16.8124 20.6787L16.787 20.6693L16.7625 20.6599L16.7371 20.6514L16.7126 20.643L16.6862 20.6336L16.6128 20.6072L16.5883 20.5978L16.5638 20.5884L16.5403 20.5799L16.5158 20.5705L16.4914 20.5611L16.4678 20.5517L16.4452 20.5422L16.4207 20.5328L16.3972 20.5234L16.3501 20.5046L16.3275 20.4952L16.2579 20.466L16.2362 20.4547L16.2127 20.4453L16.191 20.4359L16.1685 20.4255L16.1242 20.4067L16.1016 20.3954L16.08 20.386L16.0574 20.3756L16.0367 20.3662L16.0141 20.3549L15.9934 20.3455L15.9877 20.3427L15.9858 20.3436L15.9632 20.354L15.9425 20.3643L15.8766 20.3963L15.854 20.4057L15.8314 20.4161L15.8088 20.4265L15.7872 20.4368L15.7646 20.4472L15.7411 20.4566L15.6959 20.4782L15.6733 20.4876L15.6497 20.498L15.6271 20.5074L15.6027 20.5178L15.5556 20.5366L15.5321 20.5479L15.485 20.5667L15.436 20.5855L15.4125 20.595L15.3636 20.6147L15.3381 20.6241L15.3137 20.6336L15.2892 20.643L15.2647 20.6514L15.2139 20.6703L15.163 20.6882L15.1376 20.6966L15.1122 20.706L14.9813 20.7494L14.9559 20.7569L14.9286 20.7654L14.875 20.7814L14.8477 20.7898L14.794 20.8058L14.7658 20.8134L14.7394 20.82L14.6839 20.836L14.6293 20.8501L14.601 20.8576L14.5445 20.8717L14.5163 20.8783L14.4881 20.8849L14.4598 20.8924L14.4306 20.8981L14.4024 20.9047L14.3732 20.9113L14.2847 20.9301L14.2565 20.9348L14.2263 20.9405L14.1981 20.9461L14.1068 20.9621L14.0776 20.9678L14.0475 20.9725L14.0164 20.9772L13.9863 20.9819L13.9552 20.9856L13.9251 20.9913L13.894 20.9951L13.8639 20.9988L13.8328 21.0026L13.8018 21.0073L13.7698 21.0111L13.7387 21.0139L13.7076 21.0177L13.6766 21.0205L13.6446 21.0242L13.5504 21.0327L13.5175 21.0346L13.4855 21.0365L13.4196 21.0412L13.3885 21.0431L13.3556 21.045H13.3226L13.2906 21.0478H13.2567L13.2238 21.0497H13.1908L13.1579 21.0506L13.1061 21.0515L13.1136 21.0657L13.1306 21.0939L13.1484 21.1231L13.1645 21.1513L13.2172 21.2389L13.2718 21.3255L13.2906 21.3537L13.3094 21.382L13.3273 21.4102L13.3461 21.4385L13.3659 21.4676L13.3847 21.4959L13.4054 21.5241L13.445 21.5806L13.4657 21.6088L13.5288 21.6936L13.5495 21.7218L13.5711 21.7501L13.5928 21.7774L13.6361 21.8338L13.6587 21.8611L13.6813 21.8894L13.7048 21.9157L13.7274 21.944L13.7745 21.9986L13.798 22.0268L13.8206 22.0532L13.8451 22.0814L13.8696 22.1068L13.8931 22.1351L13.9185 22.1605L13.9439 22.1887L13.9938 22.2415L14.071 22.3205L14.0974 22.346L14.1237 22.3723L14.1501 22.3987L14.1765 22.425L14.2047 22.4505L14.2311 22.4759L14.2593 22.5013L14.2857 22.5267L14.3139 22.5512L14.3421 22.5775L14.3986 22.6274L14.4269 22.6519L14.456 22.6764L14.4852 22.7009L14.5144 22.7253L14.5747 22.7734L14.6038 22.7978L14.6349 22.8223L14.665 22.8449L14.6952 22.8694L14.7262 22.892L14.7573 22.9155L14.7884 22.9381L14.8194 22.9616L14.8514 22.9842L14.9145 23.0294L14.9475 23.052L14.9795 23.0737L15.0124 23.0953L15.0783 23.1386L15.1113 23.1603L15.1452 23.181L15.1781 23.2026L15.212 23.2233L15.2459 23.2441L15.2807 23.2648L15.3146 23.2855L15.3494 23.3043L15.3843 23.325L15.4191 23.3448L15.4888 23.3834L15.5255 23.4032L15.5603 23.422L15.5961 23.4408L15.7043 23.4954L15.742 23.5142L15.8521 23.567L15.8898 23.583L15.9651 23.6169L15.9717 23.6197L15.9905 23.6112L16.0291 23.5943L16.0668 23.5764L16.1797 23.5237L16.2155 23.5048L16.2532 23.486L16.289 23.4672L16.3247 23.4483L16.3605 23.4295L16.3972 23.4107L16.433 23.3919L16.4688 23.3711L16.5036 23.3514L16.5394 23.3316L16.609 23.2911L16.6439 23.2695L16.6787 23.2497L16.7465 23.2073L16.7804 23.1847L16.8143 23.164L16.8481 23.1424L16.914 23.0981L16.9479 23.0755L16.9799 23.053L17.1089 22.9616L17.1409 22.939L17.204 22.892L17.2341 22.8684L17.2661 22.8449L17.2972 22.8195L17.3273 22.796L17.3574 22.7715L17.3876 22.7479L17.4177 22.7225L17.4469 22.698L17.477 22.6736L17.5052 22.6491L17.5645 22.5983L17.5928 22.5728L17.621 22.5474L17.6493 22.522L17.7331 22.4448L17.7877 22.3921L17.894 22.2867L17.9204 22.2594L17.9458 22.2339L17.9976 22.1793L18.0974 22.0701L18.1454 22.0165L18.1699 21.9882L18.1943 21.9609L18.2414 21.9044L18.264 21.8781L18.377 21.7369L18.3977 21.7086L18.4419 21.6522L18.4626 21.6239L18.4833 21.5957L18.5041 21.5665L18.5248 21.5382L18.5445 21.51L18.5662 21.4818L18.585 21.4526L18.6048 21.4243L18.6236 21.3942L18.6443 21.366L18.6632 21.3377L18.7008 21.2794L18.7385 21.2219L18.7554 21.1928L18.7742 21.1645L18.826 21.077L18.8599 21.0186L18.8637 21.0129H18.7808ZM18.9305 11.0078L18.9465 11.0369L18.9936 11.1236L19.0086 11.1518L19.0247 11.181L19.0397 11.2092L19.0538 11.2393L19.0689 11.2676L19.1254 11.3834L19.1395 11.4126L19.179 11.4992L19.1913 11.5274L19.2045 11.5566L19.2167 11.5848L19.2299 11.615L19.2412 11.6432L19.2534 11.6724L19.3005 11.7872L19.3099 11.8155L19.3212 11.8437L19.3541 11.9303L19.3636 11.9586L19.3749 11.9868L19.3843 12.0151L19.3937 12.0433L19.4031 12.0715L19.4125 12.0998L19.4219 12.128L19.4313 12.1563L19.4408 12.1845L19.4492 12.2128L19.4577 12.241L19.4671 12.2692L19.4831 12.3248L19.4906 12.353L19.4991 12.3803L19.5283 12.4914L19.5358 12.5187L19.5434 12.547L19.5509 12.5733L19.5641 12.6289L19.5707 12.6552L19.5763 12.6835L19.5829 12.7098L19.5886 12.7362L19.5942 12.7644L19.6064 12.8181L19.6121 12.8444L19.6168 12.8708L19.6224 12.8981L19.6281 12.9254L19.6375 12.9772L19.6432 13.0045L19.6469 13.0299L19.6516 13.0562L19.6563 13.0826L19.6601 13.109L19.6657 13.1353L19.6695 13.1617L19.6733 13.1862L19.6817 13.2389L19.6846 13.2634L19.6893 13.2897L19.6959 13.3405L19.6987 13.366L19.7015 13.3914L19.7081 13.4422L19.7109 13.4667L19.7147 13.4912L19.7194 13.542L19.7251 13.591L19.7269 13.6154L19.7298 13.6399L19.7316 13.6644L19.7345 13.6889L19.7354 13.7133L19.7382 13.7378L19.7401 13.7623L19.742 13.7849L19.7439 13.8094L19.7448 13.8244L19.7599 13.8348L19.7787 13.848L19.8578 13.9035L19.8776 13.9176L19.8964 13.9317L19.9171 13.9468L19.9369 13.9609L19.9566 13.9751L19.9773 13.9901L19.9962 14.0052L20.0169 14.0193L20.0357 14.0344L20.0564 14.0494L20.1167 14.0965L20.1364 14.1116L20.1769 14.1426L20.1958 14.1586L20.2372 14.1916L20.256 14.2076L20.2974 14.2405L20.3172 14.2575L20.3379 14.2735L20.3784 14.3083L20.3972 14.3262L20.4386 14.3601L20.5394 14.4505L20.5601 14.4693L20.5789 14.4881L20.6194 14.5258L20.6401 14.5446L20.6599 14.5634L20.6806 14.5832L20.7003 14.602L20.7201 14.6209L20.7606 14.6613L20.7804 14.6811L20.7992 14.7018L20.8199 14.7216L20.8406 14.7423L20.9395 14.8468L21.0185 14.9343L21.076 15.0002L21.0967 15.0238L21.1155 15.0464L21.1541 15.0916L21.1729 15.116L21.1927 15.1386L21.2115 15.1631L21.2303 15.1866L21.268 15.2337L21.2868 15.2582L21.3057 15.2827L21.3245 15.3071L21.3433 15.3316L21.3621 15.357L21.381 15.3824L21.3998 15.4069L21.4177 15.4323L21.4365 15.4587L21.4723 15.5095L21.4911 15.5359L21.5081 15.5622L21.5269 15.5886L21.5438 15.615L21.5627 15.6423L21.5796 15.6696L21.5984 15.6959L21.6154 15.7232L21.6323 15.7515L21.6493 15.7778L21.6841 15.8343L21.701 15.8626L21.7171 15.8908L21.7349 15.919L21.7679 15.9755L21.7792 15.9548L21.7961 15.9266L21.8131 15.8964L21.8291 15.8673L21.8451 15.8371L21.8611 15.807L21.8771 15.7769L21.8931 15.7468L21.9402 15.6545L21.9562 15.6234L21.9712 15.5924L21.9863 15.5613L22.0164 15.4982L22.0305 15.4672L22.0456 15.4342L22.0607 15.4032L22.0748 15.3702L22.088 15.3382L22.1021 15.3062L22.1162 15.2723L22.1303 15.2403L22.1435 15.2073L22.1567 15.1735L22.184 15.1076L22.1962 15.0737L22.2216 15.0059L22.2339 14.972L22.2461 14.9372L22.2584 14.9033L22.2697 14.8684L22.2819 14.8345L22.2932 14.7997L22.3045 14.7639L22.3271 14.6943L22.3365 14.6585L22.3478 14.6237L22.3789 14.5164L22.3883 14.4787L22.3986 14.4439L22.408 14.4081L22.4175 14.3704L22.4523 14.2245L22.4608 14.1869L22.4683 14.1492L22.4843 14.0748L22.4909 14.0372L22.4994 13.9995L22.5059 13.9619L22.5116 13.9242L22.5191 13.8866L22.538 13.7708L22.554 13.6559L22.5587 13.6164L22.5634 13.5778L22.5681 13.5382L22.5728 13.5006L22.5841 13.382L22.5869 13.3424L22.5907 13.3029L22.5935 13.2634L22.5954 13.2238L22.5982 13.1843L22.602 13.1043L22.6076 12.9442V12.7399L22.6067 12.6995V12.658L22.6048 12.6185L22.6029 12.5771L22.601 12.5357L22.5991 12.4952L22.5963 12.4547L22.5944 12.4133L22.5888 12.3314L22.585 12.2899L22.5822 12.2495L22.5775 12.208L22.5737 12.1666L22.5427 12.144L22.5097 12.1205L22.4768 12.097L22.4429 12.0725L22.409 12.0499L22.376 12.0273L22.3412 12.0047L22.3082 11.9821L22.2734 11.9595L22.1369 11.8729L22.0682 11.8315L22.0334 11.8117L21.9985 11.792L21.9637 11.7722L21.9289 11.7515L21.894 11.7326L21.8592 11.7138L21.8244 11.695L21.7538 11.6573L21.7189 11.6394L21.6832 11.6225L21.6126 11.5867L21.4713 11.5208L21.4356 11.5048L21.365 11.4738L21.3283 11.4587L21.2576 11.4286L21.2219 11.4144L21.1861 11.4003L21.1503 11.3862L21.1146 11.3721L21.0788 11.3589L21.043 11.3457L21.0072 11.3325L20.9715 11.3194L20.9357 11.3071L20.8999 11.2949L20.8641 11.2836L20.8284 11.2714L20.7917 11.2601L20.7568 11.2488L20.7201 11.2375L20.6843 11.2271L20.6486 11.2158L20.6128 11.2064L20.577 11.197L20.5055 11.1763L20.4697 11.1669L20.3982 11.149L20.3275 11.133L20.2908 11.1245L20.2551 11.116L20.1139 11.0868L20.0781 11.0803L20.0075 11.0671L19.9717 11.0614L19.9369 11.0558L19.9011 11.0501L19.8663 11.0445L19.8305 11.0388L19.7269 11.0247L19.6902 11.0209L19.6206 11.0125L19.5867 11.0087L19.4831 10.9993L19.4483 10.9955L19.4135 10.9936L19.3796 10.9899L19.3457 10.988L19.3099 10.9861L19.276 10.9842L19.1753 10.9795H19.1404L19.1066 10.9776L19.0397 10.9758H18.9126L18.9136 10.9776L18.9305 11.0059V11.0078ZM13.2162 11.0134H13.2821L13.348 11.0153L13.381 11.0172H13.413L13.5429 11.0238L13.5749 11.0257L13.6069 11.0275L13.7331 11.0369L13.8272 11.0464L13.8583 11.0492L13.8893 11.0539L13.9204 11.0567L14.0127 11.069L14.0428 11.0727L14.0729 11.0774L14.104 11.0812L14.2226 11.1L14.2527 11.1057L14.2828 11.1104L14.3403 11.1217L14.3704 11.1273L14.457 11.1443L14.4852 11.1509L14.5135 11.1574L14.5417 11.1631L14.5709 11.1697L14.5991 11.1763L14.6556 11.1895L14.6839 11.197L14.7112 11.2026L14.7394 11.2102L14.8477 11.2384L14.8759 11.2478L14.9013 11.2544L14.9296 11.2619L15.0877 11.31L15.1386 11.326L15.1649 11.3354L15.1903 11.3429L15.2148 11.3523L15.2402 11.3617L15.2657 11.3693L15.2911 11.3787L15.3165 11.3871L15.3654 11.4041L15.3899 11.4135L15.4153 11.4229L15.4389 11.4323L15.4633 11.4418L15.4878 11.4512L15.5114 11.4606L15.5349 11.4691L15.582 11.4879L15.6064 11.4973L15.63 11.5067L15.6535 11.5161L15.7458 11.5557L15.7684 11.5651L15.791 11.5754L15.8135 11.5848L15.8361 11.5943L15.8578 11.6056L15.8804 11.615L15.902 11.6253L15.9246 11.6347L15.9472 11.6451L15.9679 11.6545L15.9905 11.6658L16.0112 11.6752L16.0301 11.6846L16.0414 11.678L16.063 11.6686L16.1289 11.6366L16.1506 11.6272L16.1722 11.6169L16.1948 11.6056L16.2174 11.5961L16.24 11.5848L16.2626 11.5754L16.3087 11.5547L16.3313 11.5453L16.3539 11.5349L16.3774 11.5255L16.4 11.5142L16.4471 11.4954L16.4706 11.4851L16.5177 11.4662L16.5431 11.4568L16.5667 11.4474L16.689 11.3984L16.7135 11.39L16.738 11.3806L16.7634 11.3711L16.8152 11.3523L16.8406 11.3429L16.8651 11.3335L16.9178 11.3165L16.9432 11.3081L17.0214 11.2817L17.0477 11.2742L17.0741 11.2648L17.1014 11.2572L17.1277 11.2488L17.2351 11.2177L17.2633 11.2092L17.2897 11.2017L17.3179 11.1951L17.3461 11.1866L17.3725 11.18L17.4007 11.1735L17.429 11.165L17.4572 11.1584L17.4855 11.1509L17.5137 11.1452L17.5702 11.1311L17.5994 11.1245L17.6286 11.1189L17.6568 11.1123L17.7745 11.0878L17.8037 11.0831L17.8338 11.0774L17.863 11.0718L17.8931 11.0661L17.9232 11.0614L17.9835 11.052L18.0136 11.0464L18.0447 11.0426L18.0748 11.0379L18.168 11.0247L18.2292 11.0172L18.2612 11.0144L18.2922 11.0106L18.3243 11.0068L18.3544 11.004L18.3864 11.0002L18.4184 10.9974L18.4504 10.9946L18.4824 10.9927L18.5144 10.9908L18.5464 10.988L18.5794 10.9861L18.6114 10.9842L18.6434 10.9823L18.6763 10.9814L18.7093 10.9795L18.7742 10.9767H18.8401L18.8731 10.9748H18.9136L18.8976 10.9475L18.8646 10.8901L18.8467 10.8618L18.8298 10.8336L18.8119 10.8044L18.7931 10.7762L18.7761 10.747L18.7394 10.6886L18.7206 10.6604L18.7018 10.6321L18.6829 10.6039L18.6641 10.5757L18.6453 10.5465L18.6255 10.5182L18.6057 10.49L18.585 10.4618L18.5643 10.4335L18.5455 10.4053L18.5229 10.377L18.4815 10.3205L18.4598 10.2923L18.4382 10.2641L18.3949 10.2085L18.3723 10.1803L18.328 10.1266L18.3054 10.0984L18.2358 10.0165L18.2113 9.98823L18.1878 9.96187L18.1633 9.93363L18.0898 9.85361L18.0145 9.77359L17.9373 9.69452L17.911 9.6691L17.8837 9.64274L17.8037 9.56554L17.7218 9.48835L17.5796 9.36409L17.5504 9.33867L17.5212 9.31513L17.4921 9.28971L17.4017 9.21817L17.3716 9.19463L17.3414 9.1711L17.2181 9.07696L17.1861 9.05531L17.1541 9.03177L17.123 9.01012L17.0901 8.98753L17.0581 8.96493L16.9602 8.89998L16.8604 8.83502L16.7926 8.7936L16.7587 8.77289L16.7239 8.75312L16.69 8.73241L16.6552 8.71264L16.6203 8.69193L16.5855 8.6731L16.5497 8.65333L16.4801 8.61567L16.4433 8.5959L16.3351 8.5413L16.2984 8.52248L16.2626 8.50459L16.1882 8.46976L16.1506 8.45281L16.1139 8.43587L16.0762 8.41798L16.047 8.4048L16.0423 8.40762L16.0046 8.42457L15.967 8.44246L15.9293 8.4594L15.8917 8.47635L15.855 8.49517L15.8173 8.51306L15.7448 8.55072L15.709 8.56955L15.6714 8.58837L15.6356 8.6072L15.565 8.64674L15.5292 8.66651L15.4935 8.68534L15.4586 8.70605L15.4229 8.7277L15.389 8.74747L15.3541 8.76912L15.3203 8.78889L15.2854 8.8096L15.2515 8.8322L15.2176 8.85291L15.1838 8.8755L15.0849 8.9414L15.052 8.96305L15.019 8.98564L14.922 9.05437L14.891 9.07696L14.7968 9.1485L14.7347 9.19557L14.7036 9.22005L14.6735 9.24359L14.554 9.34243L14.5248 9.36785L14.4956 9.39233L14.4372 9.44316L14.3243 9.54483L14.2697 9.59661L14.2414 9.62203L14.2151 9.64839L14.1878 9.67475L14.1614 9.70299L14.135 9.72841L14.1087 9.75477L14.0833 9.78207L14.0578 9.80842L14.0315 9.83573L14.007 9.86303L13.9806 9.88939L13.9562 9.91763L13.9317 9.94399L13.9063 9.97129L13.8827 9.99859L13.8583 10.0268L13.8347 10.0532L13.8112 10.0814L13.7877 10.1097L13.7641 10.137L13.7415 10.1652L13.718 10.1935L13.6737 10.249L13.6521 10.2772L13.6295 10.3055L13.6079 10.3337L13.5862 10.362L13.5645 10.3902L13.5438 10.4185L13.5231 10.4467L13.5024 10.4759L13.4817 10.5041L13.4412 10.5615L13.4215 10.5898L13.4026 10.619L13.3819 10.6472L13.3631 10.6773L13.3443 10.7056L13.252 10.8496L13.1993 10.9372L13.1823 10.9654L13.1654 10.9946L13.156 11.0134H13.2172H13.2162ZM22.5436 19.7025L22.5483 19.662L22.5521 19.6206L22.5549 19.5801L22.5587 19.5378L22.5643 19.4559L22.5709 19.3335L22.5756 19.1706L22.5775 19.0482L22.5756 18.9277L22.5728 18.8477V18.8082L22.5709 18.7677L22.5662 18.6896L22.5643 18.6491L22.5549 18.5305L22.5521 18.4928L22.5492 18.4523L22.5445 18.4147L22.5408 18.3742L22.537 18.3365L22.5323 18.297L22.5267 18.2594L22.5219 18.2198L22.5163 18.1812L22.5106 18.1436L22.505 18.105L22.5003 18.0673L22.4815 17.9534L22.4664 17.8781L22.4523 17.8037L22.4448 17.7661L22.4363 17.7293L22.4287 17.6926L22.4193 17.655L22.4118 17.6192L22.4033 17.5815L22.3854 17.51L22.376 17.4733L22.3666 17.4385L22.3572 17.4017L22.3468 17.3669L22.3374 17.3311L22.3261 17.2954L22.3167 17.2605L22.3054 17.2248L22.2951 17.1909L22.2838 17.1551L22.2499 17.0515L22.2386 17.0177L22.2263 16.9828L22.2151 16.9499L22.1906 16.8821L22.1774 16.8491L22.1652 16.8152L22.1124 16.6835L22.0993 16.6514L22.0851 16.6185L22.0428 16.5225L22.0287 16.4905L22.0145 16.4594L22.0004 16.4274L21.9854 16.3963L21.9703 16.3653L21.9552 16.3342L21.926 16.273L21.879 16.1817L21.8159 16.0631L21.799 16.0339L21.7829 16.0056L21.7669 15.9765L21.7613 15.9831L21.7283 16.0414L21.7105 16.0697L21.6945 16.0979L21.6239 16.2109L21.589 16.2655L21.5702 16.2937L21.5532 16.3201L21.5344 16.3464L21.5165 16.3747L21.4619 16.4538L21.4431 16.4792L21.4243 16.5055L21.4054 16.5309L21.3876 16.5573L21.3687 16.5827L21.3499 16.6072L21.3311 16.6326L21.2746 16.7079L21.2558 16.7315L21.236 16.7559L21.2172 16.7795L21.1974 16.804L21.1786 16.8275L21.1597 16.8501L21.139 16.8746L21.1193 16.8972L21.1004 16.9207L21.0609 16.9668L21.0006 17.0327L20.9818 17.0553L20.963 17.0779L20.9413 17.1005L20.8623 17.1852L20.8416 17.2059L20.8227 17.2276L20.8011 17.2483L20.7822 17.269L20.7606 17.2897L20.7418 17.3095L20.7201 17.3293L20.7013 17.349L20.6806 17.3688L20.6608 17.3886L20.5789 17.4667L20.5582 17.4855L20.5394 17.5044L20.4979 17.542L20.4772 17.5599L20.4575 17.5778L20.3953 17.6314L20.3756 17.6484L20.3558 17.6672L20.2937 17.719L20.2748 17.7359L20.2541 17.7529L20.2127 17.7858L20.1939 17.8018L20.1524 17.8348L20.1327 17.8508L20.112 17.8668L20.0913 17.8828L20.0715 17.8988L20.0517 17.9139L20.031 17.9299L20.0122 17.9449L19.9915 17.96L19.9708 17.9751L19.9519 17.9901L19.9303 18.0042L19.9114 18.0193L19.8907 18.0344L19.871 18.0485L19.8521 18.0635L19.8305 18.0777L19.7919 18.1059L19.7712 18.121L19.7524 18.1341L19.7326 18.1473L19.7232 18.1539L19.7213 18.1756L19.7194 18.2L19.7175 18.2245L19.7053 18.345L19.7034 18.3704L19.6996 18.3949L19.6949 18.4448L19.6912 18.4702L19.6883 18.4947L19.6817 18.5446L19.678 18.57L19.6723 18.6199L19.6676 18.6463L19.6648 18.6717L19.6554 18.7235L19.6526 18.7479L19.645 18.7997L19.6394 18.8261L19.6356 18.8524L19.6309 18.8788L19.6262 18.9042L19.6215 18.9315L19.6168 18.9569L19.6074 19.0106L19.6008 19.0369L19.5961 19.0633L19.5838 19.116L19.5791 19.1443L19.5735 19.1706L19.5669 19.1979L19.5612 19.2252L19.5547 19.2516L19.5481 19.2798L19.5415 19.3062L19.5217 19.3881L19.5066 19.4436L19.5001 19.4709L19.485 19.5255L19.4765 19.5538L19.469 19.582L19.4605 19.6093L19.452 19.6376L19.4445 19.6658L19.4276 19.7223L19.4182 19.7505L19.4087 19.7778L19.4003 19.8061L19.3909 19.8343L19.3814 19.8626L19.372 19.8908L19.3419 19.9765L19.3325 20.0056L19.3099 20.0621L19.3005 20.0913L19.2892 20.1196L19.2779 20.1478L19.2666 20.177L19.2431 20.2353L19.2318 20.2636L19.2205 20.2918L19.195 20.3511L19.1828 20.3794L19.1696 20.4076L19.1574 20.4368L19.0906 20.5827L19.0472 20.6693L19.0322 20.6995L19.0181 20.7277L18.9879 20.787L18.9729 20.8153L18.9578 20.8444L18.9098 20.932L18.8929 20.9612L18.8759 20.9903L18.8627 21.0139H18.9145L18.9493 21.012H18.9823L19.0152 21.0111L19.0501 21.0101L19.083 21.0082L19.1169 21.0073L19.1508 21.0054L19.1847 21.0035L19.2195 21.0007L19.2534 20.9988L19.356 20.9903L19.3909 20.9875L19.4596 20.98L19.4944 20.9762L19.5292 20.9734L19.5989 20.964L19.6328 20.9602L19.774 20.9395L19.8088 20.9329L19.8437 20.9282L19.8794 20.9226L19.9152 20.915L19.95 20.9084L19.9858 20.9028L20.0216 20.8953L20.0564 20.8877L20.0922 20.8802L20.128 20.8727L20.1628 20.8651L20.1995 20.8576L20.2343 20.8482L20.3059 20.8322L20.3417 20.8228L20.4142 20.804L20.449 20.7936L20.4857 20.7842L20.5215 20.7748L20.5563 20.7635L20.593 20.7531L20.6646 20.7305L20.7013 20.7192L20.7361 20.707L20.8453 20.6712L20.8801 20.659L20.9169 20.6449L20.9526 20.6326L20.9884 20.6194L21.0609 20.5912L21.0957 20.578L21.1324 20.563L21.1682 20.5479L21.204 20.5338L21.2398 20.5187L21.2755 20.5027L21.3113 20.4867L21.3471 20.4716L21.3829 20.4547L21.4186 20.4387L21.525 20.3879L21.5608 20.37L21.5966 20.354L21.6323 20.3351L21.6672 20.3173L21.7029 20.2984L21.7378 20.2796L21.8084 20.2419L21.8432 20.2231L21.879 20.2024L22.0183 20.1214L22.0531 20.1007L22.088 20.0781L22.1228 20.0574L22.1567 20.0348L22.2263 19.9915L22.328 19.9228L22.4297 19.8522L22.4636 19.8277L22.4975 19.8032L22.5304 19.7788L22.5361 19.7741L22.5398 19.7449L22.5445 19.7025H22.5436Z" fill="white"/>
<path opacity="0.5" d="M9.40315 19.6988L9.40598 19.5274L9.40786 19.486L9.41069 19.4427L9.41539 19.3156L9.42104 19.2328L9.42386 19.1895L9.42763 19.149L9.43045 19.1076L9.43799 19.0247L9.44175 18.9833L9.46434 18.7799L9.49259 18.5804L9.50482 18.5013L9.51047 18.4636L9.51706 18.4241L9.52459 18.3846L9.53118 18.345L9.53777 18.3074L9.55189 18.2302L9.56037 18.1925L9.5679 18.1549L9.57637 18.1172L9.5839 18.0795L9.59991 18.0042L9.60932 17.9666L9.64321 17.8197L9.66204 17.7472L9.67145 17.7096L9.68181 17.6747L9.69122 17.639L9.70064 17.6032L9.71099 17.5674L9.7204 17.5317L9.72982 17.4968L9.74112 17.462L9.75147 17.4272L9.76183 17.3923L9.78348 17.3236L9.79289 17.2888L9.80607 17.2549L9.82772 17.1871L9.83902 17.1542L9.84938 17.1203L9.86161 17.0864L9.87291 17.0544L9.88421 17.0205L9.89645 16.9885L9.90774 16.9555L9.91998 16.9216L9.9567 16.8256L9.96799 16.7945L9.99247 16.7305L10.0056 16.6985L10.0169 16.6675L10.0301 16.6373L10.0433 16.6053L10.081 16.514L10.0941 16.4839L10.1064 16.4528L10.1205 16.4227L10.1327 16.3926L10.1459 16.3634L10.1591 16.3333L10.1723 16.305L10.1855 16.2739L10.1986 16.2457L10.2128 16.2165L10.2382 16.1582L10.2796 16.0725L10.2928 16.0442L10.306 16.016L10.3097 16.0094L10.2909 15.9727L10.2514 15.888L10.2372 15.8588L10.2241 15.8305L10.2109 15.8014L10.1977 15.7731L10.1845 15.743L10.1713 15.7138L10.1582 15.6837L10.145 15.6545L10.1318 15.6244L10.1196 15.5943L10.1054 15.5641L10.0932 15.534L10.08 15.5029L10.0678 15.4728L10.0282 15.3806L10.0169 15.3495L10.0047 15.3175L9.99153 15.2874L9.97929 15.2554L9.96705 15.2243L9.95575 15.1913L9.94257 15.1593L9.9068 15.0614L9.8955 15.0294L9.87197 14.9635L9.81549 14.7969L9.80419 14.763L9.75053 14.5907L9.74112 14.5559L9.72982 14.5211L9.7204 14.4862L9.69969 14.4156L9.69028 14.3789L9.67992 14.3431L9.67051 14.3074L9.65168 14.2349L9.6338 14.1624L9.62532 14.1247L9.61591 14.089L9.58296 13.9383L9.5679 13.863L9.55848 13.8254L9.55189 13.7877L9.51612 13.5947L9.50388 13.5166L9.49823 13.4771L9.48506 13.398L9.48035 13.3584L9.4747 13.318L9.46999 13.2784L9.4634 13.2379L9.4587 13.1975L9.43704 12.9941L9.43328 12.9527L9.43045 12.9113L9.42669 12.8699L9.42104 12.787L9.41822 12.7446L9.4088 12.5761V12.5338L9.40692 12.4905L9.40598 12.4481L9.40409 12.4057V12.2768L9.40315 12.2579L9.39092 12.2655L9.35326 12.2871L9.3156 12.3097L9.27795 12.3314L9.23841 12.354L9.20075 12.3775L9.1631 12.401L9.12544 12.4246L9.08779 12.449L9.05013 12.4716L9.01247 12.4961L8.97388 12.5215L8.93622 12.546L8.89856 12.5714L8.86091 12.5968L8.7856 12.6477L8.74794 12.675L8.71123 12.7004L8.59826 12.7823L8.56249 12.8096L8.52483 12.8378L8.48717 12.8651L8.45046 12.8934L8.41469 12.9226L8.37703 12.9508L8.3422 12.9828L8.30548 13.0111L8.23205 13.0713L8.19628 13.1024L8.15957 13.1325L8.12379 13.1626L8.08708 13.1946L8.05131 13.2257L8.01459 13.2577L7.97976 13.2888L7.94399 13.3217L7.90821 13.3537L7.87338 13.3876L7.83761 13.4196L7.76795 13.4865L7.73311 13.5213L7.69828 13.5552L7.66439 13.5891L7.62956 13.6249L7.59567 13.6597L7.56084 13.6955L7.49306 13.7661L7.46011 13.8028L7.42622 13.8395L7.39233 13.8771L7.35938 13.9129L7.32643 13.9506L7.29442 13.9882L7.26053 14.0259L7.22852 14.0635L7.19652 14.1031L7.16357 14.1407L7.09955 14.2189L6.97529 14.3789L6.94422 14.4194L6.9141 14.4599L6.85291 14.5427L6.79266 14.6265L6.76442 14.6689L6.73429 14.7103L6.67592 14.796L6.56296 14.9701L6.48011 15.1028L6.39915 15.2393L6.2956 15.4229L6.27018 15.47L6.24476 15.5171L6.22029 15.5641L6.19675 15.6112L6.1478 15.7053L6.07719 15.8503L6.00941 15.9972L6 16.0169L6.00753 16.0329L6.05272 16.1309L6.09885 16.2269L6.12238 16.2758L6.14592 16.3229L6.16945 16.3719L6.19299 16.4189L6.29372 16.6072L6.36997 16.7446L6.39821 16.7898L6.42363 16.835L6.45093 16.8811L6.47729 16.9254L6.50553 16.9706L6.53189 17.0139L6.56013 17.0581L6.64486 17.1899L6.70228 17.2747L6.73147 17.317L6.76065 17.3603L6.78983 17.4017L6.8209 17.4441L6.91033 17.5665L6.94234 17.6079L6.97246 17.6493L7.00353 17.6898L7.0346 17.7284L7.0666 17.7689L7.12968 17.8461L7.16169 17.8866L7.19275 17.9242L7.2257 17.9628L7.25865 18.0005L7.32455 18.0758L7.35655 18.1134L7.3895 18.1492L7.45728 18.2236L7.52412 18.2942L7.55895 18.33L7.5919 18.3657L7.62768 18.4006L7.69546 18.4702L7.73029 18.5051L7.79995 18.5719L7.83573 18.6048L7.87056 18.6378L7.90539 18.6717L7.94116 18.7028L7.97599 18.7357L8.08331 18.8308L8.19252 18.923L8.22829 18.9532L8.26594 18.9833L8.30078 19.0125L8.33843 19.0426L8.37421 19.0708L8.41186 19.101L8.48435 19.1574L8.52201 19.1847L8.55966 19.213L8.59638 19.2412L8.63403 19.2676L8.6698 19.2949L8.78277 19.374L8.82043 19.4003L8.85808 19.4257L8.9334 19.4756L8.97105 19.5001L9.00871 19.5246L9.12168 19.5971L9.31184 19.711L9.38715 19.7543L9.40315 19.7637V19.6988ZM9.46905 12.2212L9.50765 12.1996L9.5453 12.1798L9.58296 12.1591L9.69875 12.0979L9.73641 12.0791L9.77406 12.0593L9.8136 12.0405L9.85126 12.0217L9.88892 12.0028L9.92657 11.984L10.1177 11.8946L10.1553 11.8786L10.193 11.8616L10.2325 11.8456L10.2702 11.8287L10.4971 11.7364L10.5724 11.7082L10.61 11.694L10.6477 11.6799L10.6853 11.6667L10.723 11.6526L10.7606 11.6394L10.7974 11.6263L10.835 11.6131L10.8727 11.6008L10.9103 11.5877L11.0214 11.5519L11.0572 11.5406L11.0948 11.5293L11.1664 11.5067L11.204 11.4964L11.2417 11.4851L11.2765 11.4756L11.3142 11.4662L11.35 11.454L11.3867 11.4446L11.4225 11.4352L11.5674 11.3975L11.6032 11.39L11.638 11.3806L11.6747 11.3721L11.7463 11.357L11.7811 11.3486L11.9223 11.3175L12.0278 11.2977L12.0617 11.2911L12.0974 11.2845L12.1662 11.2723L12.2 11.2657L12.2688 11.2544L12.3036 11.2497L12.3375 11.2431L12.3704 11.2384L12.4392 11.2281L12.4712 11.2233L12.5051 11.2186L12.539 11.2149L12.5719 11.2092L12.6387 11.2008L12.6717 11.196L12.7046 11.1923L12.7366 11.1885L12.7705 11.1847L12.8035 11.181L12.8355 11.1782L12.8684 11.1744L12.9325 11.1678L12.9645 11.164L12.9965 11.1612L13.0285 11.1593L13.0605 11.1556L13.1546 11.1471L13.1622 11.1396L13.1791 11.1141L13.2356 11.0369L13.2525 11.0106L13.2714 10.9852L13.2902 10.9579L13.31 10.9325L13.3288 10.907L13.3476 10.8807L13.3664 10.8553L13.3853 10.8289L13.4869 10.698L13.5076 10.6717L13.5265 10.6453L13.5491 10.619L13.5698 10.5936L13.5905 10.5663L13.6121 10.5399L13.6329 10.5145L13.6988 10.4345L13.7213 10.4081L13.7439 10.3827L13.7656 10.3554L13.8117 10.3017L13.8343 10.2763L13.8569 10.2499L13.8814 10.2236L13.904 10.1963L14 10.0918L14.0254 10.0635L14.0499 10.0391L14.0744 10.0108L14.0998 9.98541L14.1506 9.93269L14.176 9.90727L14.2015 9.87997L14.2278 9.85455L14.2542 9.82631L14.2805 9.80089L14.3078 9.77548L14.3342 9.74912L14.3615 9.72182L14.3888 9.6964L14.4152 9.67098L14.4716 9.61826L14.4999 9.59284L14.5281 9.56649L14.5564 9.54107L14.5846 9.51471L14.6147 9.48929L14.6722 9.43751L14.7023 9.4121L14.7305 9.38668L14.7616 9.36126L14.7927 9.33584L14.852 9.28501L14.884 9.25959L14.9141 9.23417L14.9461 9.20875L14.9781 9.18522L15.0092 9.15886L15.0412 9.13533L15.1052 9.08543L15.1391 9.06001L15.1702 9.03648L15.2709 8.96305L15.4413 8.84349L15.4761 8.81996L15.5109 8.79548L15.5467 8.77289L15.6173 8.72582L15.6898 8.68063L15.7265 8.6571L15.7632 8.6345L15.799 8.61191L15.8734 8.56766L15.911 8.54601L15.9487 8.52342L15.9863 8.50176L16.0014 8.49329L15.9967 8.49047L15.959 8.46882L15.9205 8.4481L15.8809 8.42551L15.8037 8.38409L15.7642 8.36338L15.7246 8.34361L15.6851 8.3229L15.6456 8.30313L15.5646 8.26265L15.4836 8.22311L15.4422 8.20428L15.4008 8.18545L15.3594 8.16569L15.318 8.14686L15.2756 8.12803L15.2342 8.1092L15.1918 8.09037L15.1485 8.07249L15.1061 8.05648L15.0628 8.03766L15.0195 8.02071L14.9772 8.00188L14.9329 7.98588L14.8896 7.96893L14.7578 7.91998L14.7117 7.90398L14.6675 7.88797L14.6232 7.87197L14.5771 7.85691L14.5328 7.84184L14.4858 7.82678L14.4415 7.81266L14.3944 7.79854L14.3493 7.78348L14.3022 7.76936L14.257 7.75618L14.1629 7.72982L14.1158 7.71664L14.0687 7.70346L13.9727 7.67898L13.9256 7.66769L13.8786 7.65545L13.7816 7.63285L13.7345 7.62156L13.5867 7.59049L13.5387 7.58108L13.4389 7.56225L13.3909 7.55378L13.2902 7.53683L13.2412 7.52836L13.1904 7.52083L13.1414 7.51236L13.0906 7.50671L13.0398 7.49918L12.9899 7.49259L12.9381 7.486L12.8892 7.47941L12.8364 7.47376L12.7338 7.46434L12.682 7.4587L12.5277 7.44552L12.4232 7.43893L12.3704 7.43704L12.3187 7.43328L12.2669 7.4314L12.2132 7.42951L12.1605 7.42763L12.1087 7.42669H12.0551L12.0024 7.42386H11.7896L11.7359 7.42669L11.6832 7.42951H11.6296L11.575 7.43328L11.5213 7.43516L11.4676 7.4361L11.414 7.43987L11.3594 7.44363L11.3057 7.4474L11.1975 7.45587L11.1438 7.46152L11.0892 7.46623L11.0355 7.47188L11.0016 7.47564L10.9988 7.48129L10.9348 7.56696L10.9028 7.61214L10.8717 7.65545L10.8426 7.69969L10.8115 7.74394L10.7814 7.78818L10.7522 7.83243L10.7221 7.87668L10.6929 7.92186L10.6646 7.96705L10.6354 8.01224L10.6072 8.05648L10.5808 8.10261L10.5526 8.14686L10.4989 8.23723L10.4735 8.28336L10.4462 8.32855L10.4208 8.37373L10.3464 8.51212L10.322 8.55731L10.2984 8.60438L10.2739 8.64956L10.2514 8.69569L10.2278 8.74276L10.1836 8.83502L10.1619 8.88021L10.1186 8.97435L10.0772 9.0666L10.0565 9.11367L10.0169 9.20687L9.99812 9.25394L9.96046 9.34808L9.94163 9.39327L9.87197 9.58061L9.85597 9.62768L9.83996 9.67475L9.82302 9.72182L9.80701 9.76794L9.76277 9.90915L9.74771 9.95528L9.73358 10.0024L9.69405 10.1426L9.66863 10.2368L9.63285 10.3751L9.59991 10.5164L9.58955 10.5615L9.55189 10.747L9.54248 10.7931L9.53307 10.8402L9.50953 10.9776L9.502 11.0228L9.49541 11.0699L9.48882 11.116L9.47564 11.2073L9.46999 11.2516L9.4634 11.2977L9.44363 11.4794L9.43893 11.5237L9.42951 11.6583L9.42481 11.7025L9.42198 11.7486L9.41633 11.8362L9.41445 11.8814L9.41257 11.9247L9.41069 11.9699L9.40692 12.1007V12.145L9.40598 12.1883L9.40504 12.257L9.4314 12.2429L9.46905 12.2212ZM15.9063 23.4521L15.7218 23.3401L15.5778 23.2478L15.543 23.2252L15.5072 23.2017L15.4723 23.1791L15.4366 23.1546L15.4027 23.1311L15.3688 23.1076L15.334 23.084L15.3001 23.0595L15.2671 23.036L15.2332 23.0115L15.2003 22.9871L15.1664 22.9626L15.0365 22.8647L15.0054 22.8402L14.9734 22.8148L14.9423 22.7903L14.9103 22.7649L14.8802 22.7404L14.8482 22.715L14.819 22.6896L14.7879 22.6651L14.7578 22.6387L14.7286 22.6133L14.6976 22.5888L14.6693 22.5625L14.61 22.5116L14.5818 22.4862L14.5526 22.4608L14.5244 22.4345L14.4396 22.3573L14.4123 22.3309L14.3841 22.3055L14.3577 22.2782L14.3304 22.2537L14.3031 22.2264L14.1977 22.1229L14.1732 22.0956L14.1459 22.0701L14.097 22.0174L14.0715 21.992L13.9962 21.912L13.9736 21.8856L13.9482 21.8593L13.9247 21.8329L13.9012 21.8065L13.8776 21.7802L13.8541 21.7538L13.8315 21.7275L13.808 21.7011L13.7854 21.6747L13.7628 21.6484L13.695 21.5693L13.6733 21.5439L13.6517 21.5156L13.63 21.4912L13.6093 21.4639L13.5867 21.4385L13.566 21.4112L13.5462 21.3857L13.5246 21.3594L13.5039 21.333L13.4643 21.2812L13.4427 21.2549L13.3834 21.1767L13.3646 21.1504L13.3448 21.124L13.326 21.0986L13.3071 21.0723L13.2695 21.0214L13.2506 20.9951L13.2318 20.9696L13.213 20.9433L13.1951 20.9188L13.1763 20.8924L13.1593 20.8661L13.1546 20.8614L13.1518 20.8604L13.1198 20.8576L13.0887 20.8557L12.9927 20.8473L12.9598 20.8444L12.9287 20.8407L12.8957 20.8378L12.8637 20.835L12.8317 20.8313L12.7988 20.8275L12.7329 20.8209L12.7009 20.8171L12.667 20.8134L12.635 20.8087L12.6011 20.8049L12.5352 20.7955L12.5013 20.7917L12.4354 20.7823L12.3667 20.7719L12.3337 20.7672L12.265 20.7569L12.2302 20.7512L12.1963 20.7446L12.1614 20.739L12.1276 20.7324L12.0579 20.7211L11.9882 20.707L11.9534 20.7004L11.9186 20.6929L11.7416 20.6562L11.7068 20.6486L11.67 20.6402L11.5985 20.6232L11.5627 20.6147L11.4912 20.5978L11.4535 20.5884L11.4187 20.579L11.3453 20.5601L11.2728 20.5385L11.2361 20.5291L11.1617 20.5074L11.1259 20.498L11.0892 20.4858L11.0515 20.4745L11.0148 20.4622L10.9772 20.4509L10.9414 20.4396L10.8284 20.402L10.7917 20.3888L10.7541 20.3766L10.7173 20.3634L10.6044 20.322L10.5667 20.3088L10.5291 20.2947L10.4914 20.2796L10.4538 20.2645L10.4161 20.2495L10.3784 20.2353L10.3408 20.2193L10.3022 20.2033L10.2645 20.1873L10.2269 20.1723L10.1883 20.1553L10.1506 20.1384L10.112 20.1224L10.0744 20.1045L10.0367 20.0875L9.92186 20.0348L9.88421 20.016L9.84655 19.9972L9.76936 19.9595L9.7317 19.9407L9.69216 19.9209L9.65451 19.9002L9.61685 19.8814L9.5792 19.8607L9.53966 19.84L9.502 19.8193L9.46434 19.7985L9.42669 19.7769L9.40315 19.7637V19.8296L9.40504 19.8729V19.9162L9.40786 20.048L9.41445 20.1817L9.41633 20.225L9.4201 20.2702L9.42198 20.3144L9.42575 20.3587L9.42951 20.4048L9.43328 20.449L9.43704 20.4942L9.44646 20.5837L9.45022 20.6307L9.46717 20.7654L9.47282 20.8115L9.47847 20.8567L9.486 20.9019L9.49918 20.9941L9.50671 21.0393L9.51424 21.0864L9.52365 21.1316L9.53024 21.1786L9.54813 21.2699L9.55754 21.317L9.56696 21.3622L9.57637 21.4093L9.58673 21.4554L9.59614 21.5015L9.60744 21.5486L9.61873 21.5957L9.64133 21.687L9.67804 21.8282L9.69122 21.8743L9.70346 21.9214L9.71758 21.9675L9.73076 22.0146L9.74488 22.0617L9.759 22.1087L9.77406 22.1539L9.78913 22.201L9.80513 22.2481L9.81925 22.2951L9.8522 22.3883L9.86915 22.4354L9.88515 22.4825L9.90304 22.5286L9.91998 22.5757L9.95764 22.6698L9.97458 22.715L9.99435 22.7621L10.0132 22.8091L10.032 22.8562L10.0527 22.9023L10.0734 22.9494L10.0941 22.9946L10.1139 23.0417L10.1356 23.0887L10.1789 23.18L10.2015 23.2271L10.225 23.2732L10.2476 23.3203L10.2937 23.4107L10.3173 23.4578L10.3427 23.5029L10.3662 23.5491L10.3907 23.5943L10.417 23.6404L10.4425 23.6856L10.4688 23.7317L10.4952 23.7759L10.5215 23.8221L10.5479 23.8673L10.6034 23.9567L10.6317 24.0028L10.6599 24.0461L10.6882 24.0913L10.7767 24.2241L10.8068 24.2692L10.8981 24.401L10.9301 24.4443L10.9941 24.5309L11.0007 24.5404L11.0289 24.5432L11.0826 24.5488L11.1381 24.5545L11.2991 24.5677L11.3528 24.5705L11.4074 24.5743L11.461 24.5771L11.5157 24.579L11.5684 24.5818L11.622 24.5837L11.6757 24.5855H11.7293L11.783 24.5874H12.0485L12.1539 24.5846L12.2066 24.5818L12.2594 24.5799L12.3121 24.578L12.4156 24.5724L12.4693 24.5677L12.5201 24.5648L12.7272 24.546L12.7781 24.5413L12.8816 24.53L12.9315 24.5234L12.9833 24.5178L13.0341 24.5102L13.085 24.5036L13.1349 24.4952L13.1838 24.4886L13.2356 24.4792L13.2855 24.4716L13.3354 24.4632L13.3843 24.4547L13.4841 24.4359L13.5331 24.4265L13.583 24.417L13.631 24.4057L13.7769 24.3737L13.8739 24.3511L14.0631 24.3022L14.1101 24.289L14.1572 24.2758L14.2514 24.2495L14.4359 24.193L14.5272 24.1629L14.5724 24.1469L14.6176 24.1327L14.7079 24.0998L14.7522 24.0847L14.9715 24L15.0158 23.9821L15.1014 23.9482L15.1447 23.9294L15.1862 23.9106L15.2295 23.8917L15.2709 23.8748L15.3132 23.855L15.3547 23.8362L15.3961 23.8174L15.4375 23.7976L15.478 23.7778L15.5194 23.759L15.559 23.7383L15.6409 23.6988L15.7209 23.6573L15.7585 23.6366L15.799 23.6159L15.9157 23.5528L15.992 23.5095L15.9995 23.5048L15.9816 23.4945L15.9063 23.4512V23.4521ZM22.5978 12.2834V12.3276L22.595 12.4556L22.5931 12.498V12.5404L22.5912 12.5827L22.5874 12.626L22.5856 12.6684L22.5761 12.835L22.5724 12.8774L22.5611 12.9998L22.5564 13.0412L22.5535 13.0817L22.5488 13.1221L22.5432 13.1636L22.5375 13.204L22.5338 13.2445L22.5112 13.4046L22.5055 13.4441L22.4989 13.4818L22.4801 13.6004L22.4726 13.639L22.4669 13.6776L22.4594 13.7162L22.4509 13.7548L22.4443 13.7924L22.4359 13.8301L22.4293 13.8687L22.4208 13.9063L22.4123 13.944L22.4048 13.9816L22.3954 14.0193L22.3879 14.057L22.37 14.1294L22.3606 14.1662L22.3521 14.2029L22.3144 14.3478L22.305 14.3827L22.2937 14.4185L22.2843 14.4542L22.2645 14.5248L22.2542 14.5597L22.2429 14.5936L22.2335 14.6284L22.2222 14.6632L22.2109 14.698L22.1892 14.7658L22.1789 14.7997L22.1666 14.8327L22.1563 14.8675L22.144 14.9004L22.1214 14.9663L22.1101 14.9993L22.0979 15.0322L22.0866 15.0642L22.0734 15.0972L22.0612 15.1292L22.0499 15.1622L22.0377 15.1942L22.0254 15.2252L22.0009 15.2892L21.9887 15.3194L21.9765 15.3514L21.951 15.4126L21.9379 15.4446L21.9247 15.4747L21.8993 15.5359L21.8861 15.566L21.8739 15.5952L21.8466 15.6554L21.8211 15.7138L21.807 15.7439L21.7948 15.7722L21.7807 15.8014L21.7675 15.8305L21.7534 15.8588L21.7411 15.888L21.727 15.9162L21.7138 15.9445L21.6997 15.9727L21.6912 15.9915L21.7006 16.0122L21.7157 16.0395L21.7684 16.1525L21.7825 16.1826L21.7957 16.2109L21.808 16.241L21.8221 16.2702L21.8353 16.2984L21.8484 16.3295L21.8607 16.3587L21.8748 16.3888L21.888 16.418L21.9002 16.4481L21.9388 16.5404L21.951 16.5705L21.9774 16.6326L21.9887 16.6637L22.0141 16.7268L22.0254 16.7588L22.0508 16.8218L22.0631 16.8548L22.0753 16.8859L22.0998 16.9518L22.1092 16.9847L22.1337 17.0506L22.1902 17.2182L22.2015 17.2521L22.2118 17.285L22.2335 17.3547L22.2438 17.3895L22.2542 17.4243L22.2645 17.4592L22.2758 17.494L22.2852 17.5288L22.305 17.5994L22.3144 17.6361L22.3238 17.6719L22.3333 17.7077L22.3436 17.7435L22.3888 17.927L22.4217 18.0777L22.4443 18.1906L22.4528 18.2283L22.4603 18.2659L22.4745 18.3441L22.4801 18.3836L22.4876 18.4213L22.4942 18.4618L22.4989 18.4994L22.5121 18.5794L22.5178 18.618L22.5234 18.6585L22.5281 18.698L22.5347 18.7385L22.5394 18.779L22.5432 18.8195L22.5479 18.859L22.5526 18.9004L22.5564 18.9419L22.5658 19.0238L22.5686 19.0652L22.5714 19.1057L22.5752 19.148L22.578 19.1885L22.5808 19.2309L22.5837 19.2742L22.5865 19.3147L22.5884 19.357L22.5903 19.4003L22.5921 19.4418L22.595 19.5274L22.5959 19.5698V19.6131L22.5978 19.6564V19.743L22.6251 19.7261L22.6627 19.7044L22.7013 19.6818L22.739 19.6592L22.7767 19.6366L22.8143 19.614L22.8529 19.5896L22.8906 19.567L23.0054 19.4945L23.0431 19.47L23.0807 19.4446L23.1184 19.4192L23.1937 19.3683L23.2304 19.342L23.2681 19.3156L23.3057 19.2892L23.3434 19.2619L23.3791 19.2346L23.4168 19.2073L23.4545 19.1791L23.4921 19.1518L23.5288 19.1236L23.5646 19.0944L23.639 19.0379L23.6747 19.0078L23.7482 18.9485L23.7839 18.9174L23.8216 18.8873L23.8564 18.8571L23.8932 18.8251L23.9289 18.7941L23.9647 18.763L24.0005 18.731L24.072 18.667L24.1068 18.6331L24.1417 18.6011L24.2471 18.5004L24.2819 18.4655L24.3168 18.4316L24.3516 18.3968L24.3855 18.362L24.5211 18.2198L24.555 18.1822L24.5879 18.1464L24.6547 18.072L24.6877 18.0344L24.7206 17.9976L24.7536 17.96L24.7856 17.9205L24.8176 17.8828L24.9136 17.7651L25.0078 17.6456L25.0388 17.6051L25.069 17.5655L25.1 17.5241L25.1301 17.4836L25.2205 17.3584L25.2488 17.3161L25.2789 17.2728L25.3081 17.2304L25.3363 17.188L25.3655 17.1438L25.422 17.0572L25.5331 16.8793L25.5858 16.7898L25.6385 16.6976L25.6658 16.6514L25.6903 16.6053L25.7166 16.5582L25.7411 16.5131L25.7656 16.465L25.791 16.418L25.8155 16.3709L25.8381 16.3238L25.8626 16.2758L25.9096 16.1789L25.9322 16.1299L25.9558 16.0828L25.9774 16.0329L26 15.984L25.9793 15.9388L25.9576 15.8899L25.935 15.8418L25.9115 15.792L25.8889 15.7439L25.8654 15.6969L25.8409 15.6489L25.8174 15.6018L25.7929 15.5538L25.6922 15.3655L25.6413 15.2742L25.615 15.229L25.5877 15.1838L25.5623 15.1386L25.534 15.0934L25.5067 15.0482L25.4803 15.004L25.4521 14.9598L25.3956 14.8722L25.3683 14.8289L25.3391 14.7856L25.2808 14.6999L25.1631 14.5324L25.132 14.4909L25.0718 14.409L25.0407 14.3686L24.9795 14.2885L24.9475 14.2481L24.9165 14.2095L24.8844 14.1699L24.8534 14.1304L24.8204 14.0927L24.7884 14.0541L24.7555 14.0146L24.7235 13.9769L24.6905 13.9393L24.6576 13.9016L24.6246 13.8658L24.5917 13.8291L24.5578 13.7924L24.5248 13.7557L24.49 13.7199L24.457 13.6842L24.4222 13.6484L24.3883 13.6145L24.3535 13.5787L24.2857 13.51L24.2499 13.4761L24.1803 13.4093L24.1097 13.3434L24.0739 13.3104L24.0391 13.2775L23.896 13.1513L23.8602 13.1203L23.7877 13.0591L23.7501 13.0289L23.7143 13.0007L23.6776 12.9706L23.6418 12.9405L23.6041 12.9122L23.4949 12.8275L23.4573 12.7992L23.382 12.7437L23.3462 12.7173L23.2332 12.6373L23.1956 12.6119L23.1579 12.5855L23.1212 12.5601L23.0835 12.5347L23.045 12.5102L23.0073 12.4858L22.8943 12.4133L22.8567 12.3907L22.819 12.3662L22.7428 12.321L22.7051 12.2994L22.6674 12.2768L22.6289 12.2542L22.5978 12.2372V12.2834ZM16.072 8.53471L16.1097 8.55731L16.1473 8.57896L16.2217 8.62415L16.2575 8.64674L16.2951 8.66839L16.4382 8.76065L16.4731 8.78418L16.5088 8.80772L16.6463 8.90186L16.7489 8.97435L16.7809 8.99788L16.8138 9.02236L16.8477 9.04683L16.9456 9.12026L16.9767 9.14474L17.0087 9.17016L17.0407 9.19463L17.165 9.29442L17.1951 9.32078L17.2262 9.34526L17.2845 9.39609L17.3147 9.42245L17.4032 9.49776L17.4314 9.52412L17.4596 9.54954L17.4879 9.57496L17.5171 9.60132L17.5453 9.62768L17.6008 9.67945L17.6272 9.70581L17.6554 9.73123L17.6818 9.75759L17.7872 9.86114L17.8136 9.88939L17.839 9.91386L17.8654 9.94022L18.0141 10.0984L18.0621 10.1502L18.0866 10.1784L18.1101 10.2038L18.1327 10.2302L18.1563 10.2565L18.1798 10.2829L18.2024 10.3083L18.2259 10.3356L18.2702 10.3883L18.2928 10.4147L18.3144 10.441L18.3361 10.4665L18.3587 10.4947L18.3794 10.5192L18.4001 10.5465L18.4217 10.5719L18.4641 10.6246L18.4848 10.651L18.5055 10.6764L18.5262 10.7028L18.6063 10.8063L18.6251 10.8345L18.6439 10.86L18.6646 10.8854L18.6835 10.9108L18.7023 10.9372L18.7211 10.9626L18.7399 10.9889L18.7588 11.0144L18.7776 11.0407L18.7945 11.0661L18.8134 11.0925L18.8313 11.117L18.8463 11.1386L18.8633 11.1405L18.8943 11.1424L18.9904 11.1499L19.0214 11.1537L19.0534 11.1565L19.0864 11.1603L19.1184 11.1622L19.1504 11.1659L19.1833 11.1697L19.2492 11.1763L19.2812 11.181L19.3142 11.1838L19.3471 11.1885L19.3801 11.1913L19.446 11.2008L19.4799 11.2045L19.5458 11.2139L19.5806 11.2196L19.6136 11.2243L19.7839 11.2506L19.8188 11.2572L19.8527 11.2629L19.8875 11.2685L19.9572 11.2817L19.992 11.2883L20.0268 11.2949L20.0974 11.309L20.1323 11.3165L20.2386 11.3382L20.2735 11.3476L20.3092 11.3542L20.345 11.3636L20.3817 11.3711L20.5248 11.406L20.5615 11.4154L20.5973 11.4248L20.6331 11.4342L20.6707 11.4436L20.7065 11.4549L20.7442 11.4653L20.7799 11.4747L20.8167 11.4851L20.8534 11.4964L20.8901 11.5076L20.9645 11.5293L21.0002 11.5415L21.0379 11.5538L21.0746 11.5651L21.2252 11.615L21.261 11.6281L21.2987 11.6423L21.3363 11.6545L21.374 11.6686L21.4116 11.6827L21.4869 11.711L21.5246 11.7261L21.5623 11.7411L21.5999 11.7562L21.7148 11.8023L21.7901 11.8343L21.8277 11.8513L21.8654 11.8673L21.9049 11.8842L21.9416 11.9021L21.9793 11.9181L22.0179 11.9369L22.0574 11.9548L22.0951 11.9727L22.1327 11.9915L22.1713 12.0104L22.209 12.0292L22.2466 12.048L22.2852 12.0668L22.3229 12.0866L22.3624 12.1064L22.4377 12.1469L22.4763 12.1676L22.514 12.1892L22.5526 12.2099L22.5903 12.2316L22.5978 12.2372V12.1083L22.5959 12.064L22.595 12.0217L22.594 11.9774L22.5912 11.9332V11.8889L22.5865 11.8004L22.5827 11.7562L22.5808 11.7119L22.578 11.6667L22.5743 11.6225L22.5705 11.5764L22.5667 11.5331L22.563 11.4869L22.5582 11.4427L22.5535 11.3975L22.5488 11.3523L22.5432 11.3052L22.5319 11.2149L22.5253 11.1697L22.5187 11.1245L22.5055 11.0332L22.4989 10.9861L22.4829 10.8957L22.4754 10.8487L22.449 10.7112L22.4396 10.6642L22.4302 10.618L22.4208 10.571L22.3888 10.4316L22.3549 10.2932L22.3182 10.152L22.305 10.1068L22.2918 10.0598L22.2504 9.91951L22.2062 9.7783L22.1261 9.54577L22.1083 9.4987L22.0913 9.45164L22.0744 9.40457L22.0179 9.2643L21.9991 9.21817L21.9802 9.1711L21.8993 8.98564L21.8776 8.93951L21.8569 8.89244L21.8353 8.84632L21.8127 8.79925L21.791 8.75406L21.7213 8.61662L21.6489 8.47729L21.5999 8.38691L21.5745 8.33984L21.5481 8.2956L21.5218 8.24947L21.4935 8.20428L21.4681 8.1591L21.4399 8.11485L21.4135 8.06872L21.357 7.97929L21.3288 7.9341L21.2412 7.80136L21.2111 7.75618L21.1819 7.71287L21.1198 7.62532L21.0887 7.58108L21.0567 7.53777L21.0257 7.49259L21.0002 7.4587H20.9936L20.939 7.45305L20.8844 7.4474L20.8308 7.44269L20.7771 7.43798L20.7225 7.43422L20.6689 7.42951L20.5615 7.42386L20.5069 7.42198L20.4533 7.41822L20.4015 7.41727L20.2951 7.41445H20.2415L20.1878 7.41257H20.0278L19.9751 7.41445H19.9214L19.8687 7.41539L19.816 7.41822L19.7632 7.41916L19.7105 7.42198L19.5533 7.4314L19.5025 7.43422L19.4498 7.43798L19.2944 7.45116L19.2436 7.45681L19.0892 7.4747L18.9885 7.48788L18.9376 7.49447L18.8868 7.50106L18.6863 7.53307L18.6364 7.54248L18.5874 7.55189L18.4876 7.57072L18.2928 7.61026L18.1958 7.6338L18.1487 7.64415L18.1007 7.65639L18.0518 7.66769L18.0047 7.68087L17.9567 7.6931L17.9096 7.70534L17.8626 7.71946L17.8155 7.7317L17.7684 7.74582L17.7223 7.75994L17.6752 7.77312L17.6291 7.78724L17.5839 7.80231L17.5378 7.81643L17.4926 7.83149L17.4465 7.84655L17.4022 7.86256L17.3561 7.87762L17.3118 7.89362L17.2676 7.90963L17.2233 7.92657L17.1782 7.94257L17.0906 7.97552L17.0473 7.99341L17.004 8.01035L16.9598 8.02918L16.9165 8.04613L16.875 8.06401L16.8317 8.08284L16.7903 8.10073L16.747 8.11956L16.7056 8.13744L16.6218 8.17604L16.5804 8.19487L16.5399 8.2137L16.4985 8.23347L16.457 8.25418L16.4175 8.273L16.2179 8.37656L16.1012 8.43869L16.0635 8.46034L16.024 8.482L16.0014 8.49612L16.0344 8.51494L16.072 8.53471ZM21.0548 24.4481L21.0868 24.4048L21.117 24.3615L21.1471 24.3172L21.1791 24.273L21.2394 24.1845L21.326 24.0508L21.4389 23.8701L21.5189 23.7345L21.5961 23.5971L21.646 23.5048L21.6696 23.4596L21.695 23.4135L21.7421 23.3222L21.7647 23.2751L21.8324 23.1367L21.8531 23.0897L21.8748 23.0445L21.8964 22.9974L21.9162 22.9503L21.9379 22.9052L21.9567 22.8581L21.9755 22.811L21.9962 22.7639L22.0151 22.7169L22.0339 22.6707L22.0527 22.6237L22.0715 22.5775L22.1233 22.4373L22.1563 22.3431L22.1883 22.2499L22.2033 22.2029L22.2184 22.1558L22.2335 22.1097L22.2476 22.0626L22.2627 22.0155L22.2768 21.9685L22.3031 21.8753L22.3163 21.8282L22.3276 21.7821L22.3417 21.735L22.3521 21.6879L22.3643 21.6427L22.3756 21.5947L22.3869 21.5495L22.3973 21.5025L22.4076 21.4554L22.4189 21.4093L22.4472 21.2699L22.4566 21.2248L22.4651 21.1777L22.4745 21.1325L22.4895 21.0402L22.4961 20.9941L22.5046 20.948L22.53 20.7654L22.5357 20.7202L22.5413 20.674L22.5564 20.5375L22.5611 20.4933L22.5639 20.4481L22.5695 20.4029L22.5724 20.3577L22.5752 20.3144L22.579 20.2692L22.5846 20.1807L22.5903 20.0471L22.5959 19.872V19.7844L22.5968 19.7421L22.5865 19.7468L22.5112 19.7901L22.4716 19.8108L22.434 19.8324L22.2805 19.9124L22.2052 19.951L22.1666 19.9699L22.129 19.9887L22.0913 20.0075L22.0518 20.0264L21.9379 20.0791L21.9002 20.096L21.8626 20.1139L21.823 20.1299L21.7854 20.1469L21.7477 20.1629L21.7101 20.1789L21.6724 20.1949L21.5575 20.2419L21.5199 20.2551L21.4822 20.2711L21.4446 20.2852L21.4069 20.2994L21.3693 20.3135L21.3335 20.3267L21.2949 20.3408L21.2572 20.354L21.2196 20.3671L21.1443 20.3935L21.0332 20.4293L20.9974 20.4415L20.9598 20.4538L20.9221 20.465L20.7762 20.5093L20.7385 20.5187L20.7028 20.53L20.6651 20.5394L20.6293 20.5498L20.5926 20.5592L20.5568 20.5695L20.5201 20.579L20.4853 20.5884L20.4486 20.5959L20.4137 20.6053L20.2697 20.6402L20.2339 20.6467L20.1991 20.6552L20.1276 20.6703L20.0927 20.6769L20.0588 20.6844L19.9525 20.7051L19.9186 20.7108L19.8837 20.7183L19.7802 20.7362L19.7463 20.7418L19.7115 20.7484L19.6437 20.7578L19.6107 20.7635L19.543 20.7729L19.51 20.7795L19.4761 20.7832L19.4422 20.7879L19.4083 20.7917L19.3763 20.7964L19.3424 20.8011L19.3104 20.8049L19.2775 20.8087L19.2436 20.8124L19.2116 20.8162L19.1786 20.819L19.1466 20.8228L19.1137 20.8265L19.0817 20.8294L19.0506 20.8331L19.0177 20.836L18.9546 20.8416L18.9216 20.8454L18.8906 20.8473L18.8595 20.8491L18.8444 20.851L18.8284 20.8736L18.8096 20.9L18.7927 20.9263L18.6995 21.0544L18.6806 21.0817L18.6618 21.1061L18.6232 21.1598L18.6025 21.1862L18.5837 21.2116L18.5432 21.2634L18.5225 21.2907L18.482 21.3424L18.4603 21.3688L18.4406 21.3952L18.3973 21.4479L18.3775 21.4742L18.3342 21.5269L18.3116 21.5524L18.289 21.5806L18.2664 21.606L18.2457 21.6324L18.2222 21.6597L18.1996 21.6851L18.1534 21.7388L18.129 21.7651L18.1064 21.7905L18.0593 21.8433L18.0348 21.8715L18.0113 21.8969L17.9859 21.9233L17.9614 21.9506L17.9379 21.976L17.9115 22.0033L17.887 22.0287L17.8098 22.1087L17.7571 22.1605L17.7317 22.1869L17.679 22.2396L17.6507 22.265L17.6244 22.2914L17.5961 22.3168L17.5679 22.3431L17.5415 22.3686L17.4851 22.4222L17.4568 22.4476L17.4286 22.4721L17.4003 22.4994L17.3702 22.5239L17.341 22.5502L17.3118 22.5766L17.2215 22.6519L17.1913 22.6783L17.1301 22.7282L17.0991 22.7545L17.069 22.779L17.036 22.8044L17.0049 22.8289L16.9409 22.8788L16.9089 22.9033L16.8769 22.9277L16.8101 22.9767L16.7781 23.0021L16.7442 23.0257L16.7103 23.0501L16.5399 23.1697L16.4345 23.2393L16.3968 23.2629L16.3629 23.2864L16.2904 23.3325L16.2528 23.3542L16.217 23.3768L16.1059 23.4436L16.0683 23.4662L16.0297 23.4879L15.9995 23.5048L16.0193 23.5161L16.057 23.5387L16.0974 23.5594L16.1351 23.5811L16.1737 23.6018L16.2142 23.6234L16.2528 23.6423L16.2923 23.6649L16.3318 23.6837L16.3723 23.7044L16.4128 23.7242L16.4533 23.7449L16.5757 23.8032L16.618 23.8221L16.7009 23.8597L16.7432 23.8786L16.7837 23.8974L16.8703 23.9332L16.9117 23.951L17.0859 24.0198L17.1301 24.0358L17.1735 24.0537L17.2177 24.0697L17.2629 24.0857L17.3071 24.1007L17.3514 24.1177L17.3984 24.1327L17.4418 24.1478L17.4879 24.1619L17.534 24.177L17.5792 24.192L17.6253 24.2071L17.6705 24.2203L17.7647 24.2485L17.8108 24.2617L17.9049 24.2881L17.952 24.2994L17.9991 24.3125L18.0461 24.3248L18.0941 24.3361L18.1422 24.3483L18.2391 24.3709L18.2881 24.3803L18.3361 24.3907L18.4829 24.4217L18.5319 24.4312L18.5818 24.4396L18.6317 24.449L18.6806 24.4566L18.7814 24.4745L18.8313 24.4811L18.8811 24.4886L18.9329 24.4952L18.9828 24.5027L19.0337 24.5093L19.0845 24.5149L19.1353 24.5206L19.1862 24.5272L19.2379 24.5319L19.2897 24.5375L19.4441 24.5507L19.4968 24.5535L19.5477 24.5582L19.6004 24.5601L19.6531 24.5639L19.7058 24.5667L19.7576 24.5677L19.864 24.5714L19.9157 24.5733H20.2339L20.2885 24.5714L20.3413 24.5695L20.3949 24.5677L20.5032 24.5639L20.6632 24.5545L20.8261 24.5413L20.8807 24.5357L20.9353 24.53L20.9889 24.5244L20.9984 24.5234L21.0219 24.4923L21.0548 24.4481Z" fill="white"/>
<path d="M18.3164 14.6971C18.3343 14.7065 18.307 14.7206 18.3164 14.7376C18.3268 14.7545 18.3164 14.7734 18.3164 14.7922V17.2172C18.3174 17.2568 18.3513 17.2925 18.3164 17.3114L15.9921 18.4796C15.9752 18.4891 16.0119 18.4938 15.9921 18.4938C15.9723 18.4938 16.01 18.4872 15.9921 18.4778L13.664 17.2201C13.6471 17.2106 13.6744 17.1965 13.664 17.1796C13.6546 17.1626 13.664 17.1438 13.664 17.124V14.6915C13.664 14.6726 13.6546 14.6538 13.664 14.6369C13.6734 14.6208 13.6471 14.6067 13.664 14.5973L15.9921 13.4234C16.0091 13.414 15.9723 13.4093 15.9921 13.4093C16.0119 13.4093 15.9752 13.4159 15.9921 13.4253L18.3174 14.6962L18.3164 14.6971Z" fill="#EA5CF7"/>
</svg>
