<svg width="32" height="32" viewBox="0 0 32 32" fill="none" xmlns="http://www.w3.org/2000/svg">
<rect width="32" height="32" rx="4" fill="#0007B8"/>
<path d="M19.9937 11.3559L15.8343 9.46597L13.0049 10.1247V10.3164L16.5747 12.2162L19.9937 11.3559Z" fill="url(#paint0_linear_11924_172856)"/>
<path d="M21.2495 17.4206L16.1093 15.0484L11.9355 16.1778V16.4541L16.3265 18.8777L21.2495 17.4242V17.4206Z" fill="url(#paint1_linear_11924_172856)"/>
<path d="M13.0049 10.3155L15.8343 9.65405L18.9949 8.91789V7.0001L13.0049 8.32302V10.3155Z" fill="white"/>
<path d="M19.9949 11.3559L16.575 12.2153L11.9355 13.3853V16.4523L16.1093 15.3238L19.9949 14.2726V11.3559Z" fill="white"/>
<path d="M21.2499 17.4252L16.3251 18.8787L11 20.4499V25.0001L21.2499 21.664V17.4252Z" fill="white"/>
<defs>
<linearGradient id="paint0_linear_11924_172856" x1="13.0049" y1="10.8402" x2="19.9937" y2="10.8402" gradientUnits="userSpaceOnUse">
<stop offset="0.17" stop-color="white"/>
<stop offset="0.84" stop-color="white" stop-opacity="0"/>
</linearGradient>
<linearGradient id="paint1_linear_11924_172856" x1="11.9355" y1="16.9643" x2="21.2495" y2="16.9643" gradientUnits="userSpaceOnUse">
<stop offset="0.17" stop-color="white"/>
<stop offset="0.84" stop-color="white" stop-opacity="0"/>
</linearGradient>
</defs>
</svg>
