<svg width="32" height="32" viewBox="0 0 32 32" fill="none" xmlns="http://www.w3.org/2000/svg">
<rect width="32" height="32" rx="4" fill="#001A19"/>
<path fill-rule="evenodd" clip-rule="evenodd" d="M25.9997 16.0541C25.9997 16.1559 25.9982 16.2573 25.9952 16.3584H25.9842L25.9841 16.3595H21.1314V16.1381H16.449C16.4502 16.092 16.4507 16.0458 16.4507 15.9994C16.4507 15.9535 16.4502 15.9076 16.449 15.8619H21.1314V15.6416H21.1387V15.6405H25.9914C25.9969 15.7776 25.9997 15.9156 25.9997 16.0541ZM16.3676 15.0563L20.9487 14.4927L20.9756 14.7124L25.8139 14.1171C25.7677 13.8796 25.7132 13.6451 25.6506 13.4139L20.8883 13.9999L20.9152 14.2197L16.3121 14.7861C16.3329 14.8753 16.3514 14.9654 16.3676 15.0563ZM16.1285 14.1694L20.5079 13.0751L20.5613 13.29L25.2074 12.1291C25.1121 11.904 25.0089 11.683 24.8982 11.4665L20.3881 12.5934L20.4415 12.8082L16.0266 13.9114C16.0627 13.9963 16.0967 14.0823 16.1285 14.1694ZM15.741 13.3392L19.8345 11.7935L19.9124 12.0007L24.2429 10.3655C24.1022 10.16 23.9541 9.96006 23.7989 9.76597L19.6598 11.3289L19.7377 11.5361L15.5948 13.1005C15.6456 13.1787 15.6943 13.2583 15.741 13.3392ZM15.2031 12.5715L18.8183 10.6874L18.9202 10.8838L22.9185 8.7999C22.7344 8.62243 22.5436 8.45193 22.3465 8.28883L18.5897 10.2469L18.6916 10.4433L15.0151 12.3595C15.0796 12.4285 15.1423 12.4992 15.2031 12.5715ZM14.3308 11.7438L17.6035 9.66255L17.7219 9.8495L21.3344 7.5522C21.1076 7.40781 20.8746 7.27228 20.6359 7.1461L17.3381 9.24334L17.4564 9.4303L14.0891 11.5717C14.1713 11.6269 14.2519 11.6842 14.3308 11.7438ZM13.5585 11.2589L16.3017 9.00891L16.4416 9.18025L19.5318 6.6456C19.269 6.54522 19.0009 6.45559 18.728 6.37723L15.9879 8.6247L16.1278 8.79605L13.2847 11.128C13.3774 11.1691 13.4687 11.2127 13.5585 11.2589ZM12.5343 10.8613L14.7015 8.70513L14.8571 8.86227L17.6087 6.12463C17.3103 6.07513 17.0075 6.03881 16.7008 6.01629L14.3524 8.3528L14.5081 8.50993L12.2203 10.7861C12.3262 10.808 12.4308 10.8331 12.5343 10.8613ZM11.3357 10.6792L13.0633 8.58557L13.2336 8.72667L15.4836 5.99998C15.1421 6.01584 14.805 6.04879 14.4731 6.09801L12.6816 8.26917L12.8518 8.41028L10.9807 10.6779C11.033 10.6763 11.0855 10.6756 11.1382 10.6756C11.2044 10.6756 11.2702 10.6768 11.3357 10.6792ZM10.301 10.7413L11.6316 8.68149L11.8171 8.80182L13.4261 6.31111C13.0583 6.40674 12.6988 6.52273 12.3487 6.6578L11.2157 8.41168L11.4012 8.532L9.92664 10.8146C10.0498 10.7858 10.1747 10.7613 10.301 10.7413ZM9.14984 11.061L10.1076 9.26708L10.3025 9.37154L11.5703 6.99689C11.1638 7.19494 10.7727 7.41966 10.3991 7.66879L9.6708 9.03286L9.86563 9.13732L8.73851 11.2484C8.87245 11.1803 9.00967 11.1178 9.14984 11.061ZM8.32443 11.4828L8.73113 10.3278L8.93949 10.4015L9.73023 8.15569C9.3288 8.4739 8.95222 8.82219 8.60385 9.19716L8.26393 10.1626L8.47229 10.2362L7.93997 11.7481C8.064 11.6542 8.19227 11.5657 8.32443 11.4828ZM7.30894 12.3093L7.4884 11.4707L7.70444 11.5171L8.06653 9.82512C7.6856 10.309 7.34805 10.8288 7.05976 11.3786L7.22003 11.413L6.89036 12.8018C7.01995 12.6292 7.15978 12.4647 7.30894 12.3093ZM6.56272 13.2925V12.1816C6.29368 12.8922 6.10262 13.7753 6 14.6419C6.12583 14.1623 6.31675 13.7092 6.56272 13.2925ZM6.00716 17.3839C6.11274 18.1235 6.29856 18.8372 6.5555 19.5158V18.6941C6.31761 18.2886 6.13176 17.8489 6.00716 17.3839ZM6.92518 19.2429L7.2128 20.587L7.05253 20.6214C7.34083 21.1712 7.67838 21.691 8.05931 22.1749L7.69722 20.4829L7.48117 20.5293L7.29932 19.6795C7.167 19.5409 7.04208 19.3952 6.92518 19.2429ZM7.92958 20.2429L8.46507 21.7638L8.25671 21.8374L8.59663 22.8028C8.945 23.1778 9.32158 23.5261 9.723 23.8443L8.93226 21.5985L8.7239 21.6722L8.31464 20.5099C8.18224 20.4265 8.05377 20.3373 7.92958 20.2429ZM8.72776 20.745L9.85841 22.8627L9.66359 22.9671L10.3919 24.3312C10.7654 24.5803 11.1566 24.805 11.5631 25.0031L10.2952 22.6284L10.1004 22.7329L9.13985 20.9338C8.99939 20.8766 8.86193 20.8136 8.72776 20.745ZM9.91727 21.182L11.394 23.468L11.2085 23.5883L12.3415 25.3422C12.6916 25.4772 13.0511 25.5933 13.4189 25.6889L11.8099 23.1981L11.6244 23.3185L10.2921 21.2561C10.1656 21.2359 10.0406 21.2111 9.91727 21.182ZM10.9723 21.3207L12.8446 23.5897L12.6743 23.7308L14.4659 25.902C14.7977 25.9512 15.1348 25.9841 15.4764 26L13.2264 23.2733L13.0561 23.4144L11.3278 21.32C11.2649 21.3222 11.2017 21.3233 11.1382 21.3233C11.0827 21.3233 11.0274 21.3224 10.9723 21.3207ZM12.2134 21.2142L14.5008 23.4901L14.3452 23.6472L16.6936 25.9837C17.0003 25.9612 17.3031 25.9248 17.6015 25.8754L14.8499 23.1377L14.6943 23.2949L12.5277 21.1393C12.4241 21.1674 12.3193 21.1924 12.2134 21.2142ZM13.2791 20.8733L16.1206 23.204L15.9807 23.3753L18.7208 25.6228C18.9936 25.5444 19.2618 25.4547 19.5246 25.3544L16.4344 22.8197L16.2944 22.9911L13.5532 20.7427C13.4633 20.7887 13.3719 20.8323 13.2791 20.8733ZM14.0847 20.43L17.4492 22.5697L17.3309 22.7566L20.6287 24.8539C20.8674 24.7277 21.1003 24.5922 21.3271 24.4478L17.7147 22.1505L17.5963 22.3374L14.3267 20.2582C14.2477 20.3176 14.167 20.375 14.0847 20.43ZM15.012 19.6427L18.6844 21.5567L18.5824 21.7531L22.3393 23.7112C22.5364 23.5481 22.7272 23.3775 22.9113 23.2001L18.913 21.1162L18.811 21.3126L15.2003 19.4307C15.1394 19.503 15.0766 19.5737 15.012 19.6427ZM15.5928 18.9014L19.7305 20.4639L19.6526 20.6711L23.7917 22.234C23.9468 22.0399 24.095 21.84 24.2357 21.6345L19.9052 19.9992L19.8273 20.2065L15.7392 18.6628C15.6924 18.7437 15.6436 18.8233 15.5928 18.9014ZM16.0254 18.0901L20.4343 19.1917L20.3808 19.4066L24.891 20.5335C25.0017 20.317 25.1049 20.0961 25.2002 19.8709L20.5541 18.71L20.5007 18.9248L16.1275 17.8322C16.0957 17.9192 16.0616 18.0053 16.0254 18.0901ZM16.3117 17.2148L20.908 17.7803L20.881 18.0001L25.6434 18.5861C25.706 18.3549 25.7605 18.1204 25.8067 17.8829L20.9684 17.2875L20.9415 17.5073L16.3673 16.9445C16.351 17.0354 16.3324 17.1255 16.3117 17.2148Z" fill="#009393"/>
</svg>
