<?xml version="1.0" encoding="UTF-8"?>
<svg version="1.1" xmlns="http://www.w3.org/2000/svg" width="512" height="512">
<path d="M0 0 C168.96 0 337.92 0 512 0 C512 168.96 512 337.92 512 512 C343.04 512 174.08 512 0 512 C0 343.04 0 174.08 0 0 Z " fill="#11162E" transform="translate(0,0)"/>
<path d="M0 0 C20.79 0 41.58 0 63 0 C63.33 35.31 63.66 70.62 64 107 C68.95 98.09 73.9 89.18 79 80 C85.9375 68.0625 85.9375 68.0625 89.41015625 62.14453125 C93.27959927 55.54032602 97.08266599 48.89865487 100.875 42.25 C101.2031369 41.67480621 101.5312738 41.09961243 101.86935425 40.50698853 C103.20536421 38.16473464 104.54103897 35.82229018 105.87617493 33.47953796 C109.91114637 26.39942334 113.95607007 19.32500016 118 12.25 C121.465 6.18625 121.465 6.18625 125 0 C145.79 0 166.58 0 188 0 C186.10460723 7.58157109 184.16975184 15.04499204 181.89648438 22.50561523 C181.60160126 23.4818132 181.30671814 24.45801117 181.00289917 25.46379089 C180.03584969 28.66287236 179.06478955 31.8607214 178.09375 35.05859375 C177.40666529 37.32926716 176.71986272 39.60002596 176.0333252 41.87086487 C174.22508988 47.8496181 172.41357851 53.82737333 170.60119629 59.80487061 C167.73640904 69.25523879 164.87646679 78.70707471 162.01657104 88.1589241 C160.97457826 91.60183625 159.93175813 95.04449712 158.88891602 98.4871521 C155.74916602 108.8586763 152.62318845 119.23379234 149.55078125 129.62548828 C149.28855019 130.51183614 149.02631912 131.39818399 148.75614166 132.31139088 C147.55205419 136.38414236 146.35215637 140.45805833 145.15905762 144.53404236 C144.74737723 145.93164895 144.33563815 147.32923825 143.92382812 148.72680664 C143.57324341 149.92439102 143.22265869 151.1219754 142.8614502 152.35585022 C142 155 142 155 141 156 C139.58882298 156.12209924 138.17179541 156.17770872 136.75561523 156.20532227 C135.85475693 156.22526749 134.95389862 156.24521271 134.02574158 156.26576233 C132.5570034 156.29083107 132.5570034 156.29083107 131.05859375 156.31640625 C129.56248314 156.3475779 129.56248314 156.3475779 128.03614807 156.37937927 C124.83667157 156.44498637 121.63711018 156.50381134 118.4375 156.5625 C116.27407961 156.60567462 114.11066794 156.64928855 111.94726562 156.69335938 C106.63161831 156.80150882 101.31582934 156.90128901 96 157 C96.57042054 157.27031949 97.14084108 157.54063898 97.7285471 157.81914997 C112.94907146 165.04166039 128.06046709 172.46222439 143.12109375 180.01171875 C145.33015736 181.11718658 147.53931141 182.22247369 149.74855042 183.32759094 C155.47842513 186.19440994 161.20709325 189.06363151 166.93548584 191.93341064 C172.81496645 194.87832574 178.69562314 197.82089041 184.57617188 200.76367188 C196.0519127 206.50685614 207.52641648 212.25250724 219 218 C218.29508876 221.04627908 217.41576888 223.19430462 215.68457031 225.81079102 C215.19660477 226.554142 214.70863922 227.29749298 214.20588684 228.06336975 C213.66872543 228.8687468 213.13156403 229.67412384 212.578125 230.50390625 C212.01401413 231.35911362 211.44990326 232.21432098 210.86869812 233.09544373 C209.00175022 235.92178506 207.12622781 238.742312 205.25 241.5625 C203.95102099 243.52263256 202.6522773 245.48292107 201.35375977 247.44335938 C197.24702997 253.63638366 193.12518522 259.81925845 189 266 C188.31307068 267.02986023 187.62614136 268.05972046 186.918396 269.12078857 C182.90339487 275.13837558 178.88071605 281.15072129 174.84729004 287.15597534 C173.57788666 289.04634781 172.30973079 290.93755861 171.04284668 292.82962036 C169.27153201 295.47293583 167.49416268 298.11206805 165.71484375 300.75 C164.93230476 301.92048134 164.93230476 301.92048134 164.13395691 303.11460876 C161.6716476 306.7503276 159.28093378 310.03550641 156 313 C151.45046727 308.0417622 146.98409949 303.04424445 142.75 297.8125 C137.53613562 291.37451094 132.08958747 285.14836434 126.65087891 278.90087891 C119.74910915 270.95394318 112.93312714 262.93322101 106.1418457 254.8918457 C102.79782204 250.93513994 99.43525315 246.99473788 96.0625 243.0625 C95.56580811 242.48330811 95.06911621 241.90411621 94.55737305 241.30737305 C92.00489582 238.33243959 89.44930018 235.3602292 86.890625 232.390625 C81.52460852 226.15652662 76.2164073 219.88921132 71.03515625 213.5 C68.71320769 210.64770234 66.35454279 207.82545135 64 205 C63.67 230.08 63.34 255.16 63 281 C27.03 281 -8.94 281 -46 281 C-43.74997703 269.74988513 -43.74997703 269.74988513 -42.56483459 265.83384705 C-42.16333443 264.49488625 -42.16333443 264.49488625 -41.75372314 263.12887573 C-41.32274323 261.71724655 -41.32274323 261.71724655 -40.88305664 260.27709961 C-40.57546921 259.2562175 -40.26788177 258.23533539 -39.95097351 257.18351746 C-38.94185965 253.83841679 -37.92611415 250.4953715 -36.91015625 247.15234375 C-36.20238208 244.81176294 -35.49498558 242.47106789 -34.78794861 240.13026428 C-33.30880726 235.23661629 -31.82665087 230.34389601 -30.34204102 225.4519043 C-28.44380504 219.19687432 -26.55072941 212.94029864 -24.65961552 206.68311214 C-22.84904513 200.69315964 -21.0359703 194.70396614 -19.22265625 188.71484375 C-18.70769435 187.01295552 -18.70769435 187.01295552 -18.18232918 185.27668571 C-17.20503474 182.04854203 -16.22597149 178.82094035 -15.24633789 175.59350586 C-14.96104218 174.65039551 -14.67574646 173.70728516 -14.38180542 172.7355957 C-14.11131882 171.84577499 -13.84083221 170.95595428 -13.56214905 170.03916931 C-13.21622507 168.89857512 -13.21622507 168.89857512 -12.86331272 167.73493862 C-11.6236621 163.80777727 -10.30227992 159.90683977 -9 156 C-21.21 156 -33.42 156 -46 156 C-45.34607569 152.07645414 -44.76088436 148.90999832 -43.546875 145.234375 C-43.26005859 144.35394531 -42.97324219 143.47351563 -42.67773438 142.56640625 C-42.37158203 141.63699219 -42.06542969 140.70757812 -41.75 139.75 C-39.51820061 132.86823976 -37.37937321 125.98643475 -35.5 119 C-33.42656116 111.31200724 -31.03449808 103.74776329 -28.5859375 96.171875 C-26.75728343 90.47919537 -25.05732722 84.77249288 -23.5 79 C-21.42594189 71.31215792 -19.03450929 63.74779796 -16.5859375 56.171875 C-14.52964491 49.77054676 -12.66980489 43.34104587 -10.9206543 36.85009766 C-8.96976387 29.69976081 -6.70882011 22.65463047 -4.41015625 15.609375 C-4.1265625 14.73539063 -3.84296875 13.86140625 -3.55078125 12.9609375 C-3.29981689 12.19571777 -3.04885254 11.43049805 -2.7902832 10.64208984 C-1.73936095 7.12862656 -0.88944338 3.55777351 0 0 Z " fill="#F5FE0D" transform="translate(186,116)"/>
<path d="M0 0 C0.33 0 0.66 0 1 0 C1 10.23 1 20.46 1 31 C-9.23 31 -19.46 31 -30 31 C-27.90091082 29.95045541 -25.79818896 28.90670042 -23.66796875 27.921875 C-13.59588015 23.16340794 -6.22404096 16.99950012 -1.9609375 6.421875 C-1.24456917 4.29285511 -0.58442927 2.1685402 0 0 Z " fill="#000000" transform="translate(511,481)"/>
<path d="M0 0 C1.04954459 2.09908918 2.09329958 4.20181104 3.078125 6.33203125 C7.83659206 16.40411985 14.00049988 23.77595904 24.578125 28.0390625 C26.70714489 28.75543083 28.8314598 29.41557073 31 30 C31 30.33 31 30.66 31 31 C20.77 31 10.54 31 0 31 C0 20.77 0 10.54 0 0 Z " fill="#000000" transform="translate(0,481)"/>
<path d="M0 0 C10.23 0 20.46 0 31 0 C31 10.23 31 20.46 31 31 C29.95045541 28.90091082 28.90670042 26.79818896 27.921875 24.66796875 C23.16340794 14.59588015 16.99950012 7.22404096 6.421875 2.9609375 C4.29285511 2.24456917 2.1685402 1.58442927 0 1 C0 0.67 0 0.34 0 0 Z " fill="#000000" transform="translate(481,0)"/>
<path d="M0 0 C10.23 0 20.46 0 31 0 C28.90091082 1.04954459 26.79818896 2.09329958 24.66796875 3.078125 C14.59588015 7.83659206 7.22404096 14.00049988 2.9609375 24.578125 C2.24456917 26.70714489 1.58442927 28.8314598 1 31 C0.67 31 0.34 31 0 31 C0 20.77 0 10.54 0 0 Z " fill="#000000" transform="translate(0,0)"/>
</svg>
