<svg width="24" height="24" viewBox="0 0 24 24" fill="none" xmlns="http://www.w3.org/2000/svg">
<g clip-path="url(#clip0_6937_160305)">
<mask id="mask0_6937_160305" style="mask-type:luminance" maskUnits="userSpaceOnUse" x="2" y="2" width="20" height="20">
<path d="M11.9995 21.7959C17.4099 21.7959 21.7959 17.4099 21.7959 11.9995C21.7959 6.58912 17.4099 2.20312 11.9995 2.20312C6.58912 2.20312 2.20312 6.58912 2.20312 11.9995C2.20312 17.4099 6.58912 21.7959 11.9995 21.7959Z" fill="white"/>
</mask>
<g mask="url(#mask0_6937_160305)">
<path d="M22.7234 1.27344H1.27539V22.7214H22.7234V1.27344Z" fill="url(#paint0_linear_6937_160305)"/>
</g>
<path d="M14.8328 14.1168L17.6044 12.5164C17.7512 12.4316 17.842 12.274 17.842 12.1044V8.90398C17.842 8.73478 17.7508 8.57677 17.6044 8.49197L14.8328 6.89158C14.686 6.80678 14.504 6.80718 14.3572 6.89158L11.5856 8.49197C11.4388 8.57677 11.348 8.73478 11.348 8.90398V14.6236L9.40443 15.7456L7.46083 14.6236V12.3792L9.40443 11.2572L10.6864 11.9972V10.4916L9.64203 9.88877C9.57003 9.84717 9.48763 9.82518 9.40403 9.82518C9.32043 9.82518 9.23803 9.84717 9.16643 9.88877L6.39483 11.4892C6.24803 11.574 6.15723 11.7316 6.15723 11.9012V15.1016C6.15723 15.2708 6.24843 15.4288 6.39483 15.5136L9.16643 17.114C9.31283 17.1984 9.49523 17.1984 9.64203 17.114L12.4136 15.514C12.5604 15.4292 12.6512 15.2712 12.6512 15.102V9.38238L12.6864 9.36238L14.5948 8.26038L16.5384 9.38238V11.6268L14.5948 12.7488L13.3148 12.0096V13.5152L14.3572 14.1172C14.504 14.2016 14.686 14.2016 14.8328 14.1172V14.1168Z" fill="white"/>
</g>
<defs>
<linearGradient id="paint0_linear_6937_160305" x1="-2.6442" y1="3.03624" x2="19.4974" y2="16.5858" gradientUnits="userSpaceOnUse">
<stop stop-color="#A229C5"/>
<stop offset="1" stop-color="#7B3FE4"/>
</linearGradient>
<clipPath id="clip0_6937_160305">
<rect width="20" height="20" fill="white" transform="translate(2 2)"/>
</clipPath>
</defs>
</svg>
