<?xml version="1.0" encoding="UTF-8" standalone="no"?>
<svg
   width="25.041941"
   height="22.18055"
   viewBox="0 0 25.041941 22.18055"
   fill="none"
   version="1.1"
   id="svg43"
   sodipodi:docname="polygon.svg"
   inkscape:version="1.2.2 (732a01da63, 2022-12-09, custom)"
   xmlns:inkscape="http://www.inkscape.org/namespaces/inkscape"
   xmlns:sodipodi="http://sodipodi.sourceforge.net/DTD/sodipodi-0.dtd"
   xmlns="http://www.w3.org/2000/svg"
   xmlns:svg="http://www.w3.org/2000/svg">
  <sodipodi:namedview
     id="namedview45"
     pagecolor="#ffffff"
     bordercolor="#666666"
     borderopacity="1.0"
     inkscape:showpageshadow="2"
     inkscape:pageopacity="0.0"
     inkscape:pagecheckerboard="0"
     inkscape:deskcolor="#d1d1d1"
     showgrid="false"
     inkscape:zoom="12.432432"
     inkscape:cx="51.8"
     inkscape:cy="11.26087"
     inkscape:window-width="3840"
     inkscape:window-height="2075"
     inkscape:window-x="1920"
     inkscape:window-y="0"
     inkscape:window-maximized="1"
     inkscape:current-layer="svg43" />
  <path
     d="m 18.59264,15.62065 5.9398,-3.4298 c 0.3149,-0.1822 0.5095,-0.5201 0.5095,-0.8827 V 4.4484896 c 0,-0.36262 -0.1946,-0.70047 -0.5095,-0.88267 l -5.9398,-3.42984004 c -0.3149,-0.18219 -0.7058,-0.18042 -1.0189,0 l -5.9399,3.42984004 c -0.3148,0.1822 -0.5094,0.52005 -0.5094,0.88267 V 16.70675 l -4.1657,2.4039 -4.16569,-2.4039 v -4.8095 L 6.95874,9.4933496 9.70584,11.07995 V 7.8535496 l -2.2377,-1.29303 c -0.1539,-0.08844 -0.3307,-0.1362 -0.5094,-0.1362 -0.1787,0 -0.3555,0.04776 -0.5094,0.1362 l -5.9399,3.42983 C 0.19458,10.17255 0,10.51045 0,10.87305 v 6.8597 c 0,0.3626 0.19458,0.7004 0.50944,0.8826 l 5.9399,3.4299 c 0.3148,0.1804 0.704,0.1804 1.0188,0 l 5.9399,-3.4299 c 0.3149,-0.1822 0.5094,-0.52 0.5094,-0.8826 V 5.4726696 l 0.0743,-0.04246 4.0897,-2.36144 4.1657,2.4039 V 10.28225 l -4.1657,2.4039 -2.7436,-1.5832 v 3.2265 l 2.2341,1.2895 c 0.3149,0.1804 0.7058,0.1804 1.0189,0 z"
     fill="url(#paint0_linear_5033_61058)"
     id="path32"
     style="fill:url(#paint0_linear_5033_61058)" />
  <defs
     id="defs41">
    <linearGradient
       id="paint0_linear_5033_61058"
       x1="3.6285901"
       y1="21.177799"
       x2="27.676399"
       y2="7.2196698"
       gradientUnits="userSpaceOnUse"
       gradientTransform="translate(-3.70996,-2.7729504)">
      <stop
         stop-color="#A726C1"
         id="stop34" />
      <stop
         offset="0.88"
         stop-color="#803BDF"
         id="stop36" />
      <stop
         offset="1"
         stop-color="#7B3FE4"
         id="stop38" />
    </linearGradient>
  </defs>
</svg>
