<svg width="32" height="32" viewBox="0 0 32 32" fill="none" xmlns="http://www.w3.org/2000/svg">
<g clip-path="url(#clip0_1460_57450)">
<rect width="32" height="32" rx="4" fill="#8247E5"/>
<path d="M21.6959 12.3767C21.3122 12.1535 20.8133 12.1535 20.3912 12.3767L17.3978 14.0884L15.3638 15.2047L12.3705 16.9163C11.9867 17.1395 11.4878 17.1395 11.0657 16.9163L8.68634 15.5767C8.30259 15.3535 8.03397 14.9442 8.03397 14.4977V11.8558C8.03397 11.4093 8.26422 11 8.68634 10.7768L11.0273 9.47441C11.4111 9.25116 11.91 9.25116 12.3321 9.47441L14.6731 10.7768C15.0568 11 15.3255 11.4093 15.3255 11.8558V13.5674L17.3594 12.414V10.7023C17.3594 10.2558 17.1292 9.8465 16.707 9.62325L12.3705 7.16744C11.9867 6.94419 11.4878 6.94419 11.0657 7.16744L6.65241 9.62325C6.23025 9.8465 6 10.2558 6 10.7023V15.6512C6 16.0977 6.23025 16.507 6.65241 16.7302L11.0657 19.1861C11.4495 19.4093 11.9483 19.4093 12.3705 19.1861L15.3638 17.5116L17.3978 16.3581L20.3912 14.6837C20.7749 14.4605 21.2738 14.4605 21.6959 14.6837L24.0369 15.9861C24.4207 16.2093 24.6893 16.6186 24.6893 17.0651V19.707C24.6893 20.1535 24.459 20.5628 24.0369 20.7861L21.6959 22.1256C21.3122 22.3488 20.8133 22.3488 20.3912 22.1256L18.0502 20.8232C17.6664 20.6 17.3978 20.1907 17.3978 19.7442V18.0326L15.3638 19.1861V20.8977C15.3638 21.3442 15.5941 21.7535 16.0163 21.9767L20.4295 24.4326C20.8133 24.6558 21.3122 24.6558 21.7343 24.4326L26.1476 21.9767C26.5314 21.7535 26.8 21.3442 26.8 20.8977V15.9488C26.8 15.5023 26.5698 15.093 26.1476 14.8698L21.6959 12.3767Z" fill="white"/>
</g>
<defs>
<clipPath id="clip0_1460_57450">
<rect width="32" height="32" rx="4" fill="white"/>
</clipPath>
</defs>
</svg>