<svg width="32" height="32" viewBox="0 0 32 32" fill="none" xmlns="http://www.w3.org/2000/svg">
<path d="M0 4C0 1.79086 1.79086 0 4 0H28C30.2091 0 32 1.79086 32 4V28C32 30.2091 30.2091 32 28 32H4C1.79086 32 0 30.2091 0 28V4Z" fill="#CCFF00"/>
<path d="M17.9177 11.0598H14.2823C14.1508 11.0598 14.0312 11.108 13.9475 11.2284L11.3405 14.4787C10.9579 14.9602 10.8622 15.4056 10.8622 16.0436V19.3662C10.0132 21.7618 9.47504 23.3869 9.08041 24.8555C9.04454 24.9518 9.09237 25 9.17608 25H9.57071C9.64245 25 9.70225 24.9639 9.73812 24.9037C12.7158 17.2715 15.9565 13.4916 17.9894 11.2284C18.0731 11.1321 18.0373 11.0598 17.9177 11.0598Z" fill="#1C180D"/>
<path d="M18.0269 7.31628C17.7997 7.42463 17.6801 7.4487 17.4409 7.66539C16.3647 8.59232 15.6472 9.32665 14.9655 10.0489C14.8818 10.1332 14.9177 10.2175 15.0373 10.2175H19.0673C19.438 10.2175 19.6532 10.4342 19.6532 10.8073V15.3818C19.6532 15.5022 19.7489 15.5383 19.8206 15.43L22.2482 12.2399C22.6428 11.7222 22.7624 11.5657 22.87 10.8435C23.0135 9.78409 22.9298 8.15895 22.296 7.48482C21.734 6.88291 19.1988 6.85883 18.0269 7.31628Z" fill="#1C180D"/>
<path d="M18.6352 11.9748C16.1359 14.7797 14.1866 17.729 12.3809 21.2803C12.3331 21.3766 12.3929 21.4488 12.5005 21.4127L16.2315 20.257C16.6501 20.1487 16.8892 19.9561 17.0925 19.619L18.7548 16.8623C18.7906 16.79 18.8026 16.7058 18.8026 16.6456V12.047C18.8026 11.9266 18.7189 11.8785 18.6352 11.9748Z" fill="#1C180D"/>
</svg>
