<svg width="32" height="32" viewBox="0 0 32 32" fill="none" xmlns="http://www.w3.org/2000/svg">
<g clip-path="url(#clip0_5315_228914)">
<rect width="32" height="32" rx="4" fill="#004DE5"/>
<path d="M32 0H0V32H32V0Z" fill="#004DE5"/>
<g clip-path="url(#clip1_5315_228914)">
<path fill-rule="evenodd" clip-rule="evenodd" d="M8 6.75788V20.8561C8.00016 21.1194 8.05853 21.3793 8.17081 21.6167C8.28308 21.854 8.44638 22.0627 8.64865 22.2272L15.1892 27.5624C15.4193 27.7496 15.7052 27.8516 16 27.8516C16.2948 27.8516 16.5807 27.7496 16.8108 27.5624L23.3513 22.2272C23.5536 22.0627 23.7169 21.854 23.8292 21.6167C23.9415 21.3793 23.9999 21.1194 24 20.8561V6.75788C24 6.29166 23.8177 5.84454 23.4934 5.51487C23.169 5.1852 22.729 5 22.2703 5H9.72973C9.27097 5 8.83101 5.1852 8.50663 5.51487C8.18224 5.84454 8 6.29166 8 6.75788Z" fill="white"/>
<path d="M20.6645 13.1442V10.0715C20.6645 9.66404 20.5072 9.27326 20.2273 8.98515C19.9473 8.69702 19.5676 8.53516 19.1717 8.53516H12.8269C12.4309 8.53516 12.0512 8.69702 11.7712 8.98515C11.4913 9.27326 11.334 9.66404 11.334 10.0715V18.9871C11.3341 19.2172 11.3845 19.4444 11.4814 19.6519C11.5783 19.8593 11.7192 20.0416 11.8938 20.1855L14.2041 22.0944C14.2315 22.1173 14.2647 22.1317 14.2997 22.1359C14.3348 22.1403 14.3703 22.1342 14.4022 22.1185C14.434 22.1028 14.4609 22.0782 14.4797 22.0474C14.4985 22.0166 14.5083 21.981 14.5082 21.9446V15.6407C14.5082 15.5899 14.5279 15.541 14.5629 15.505C14.5979 15.469 14.6453 15.4487 14.6948 15.4487H16.3743C16.6713 15.4487 16.9561 15.5701 17.1661 15.7862C17.376 16.0023 17.494 16.2954 17.494 16.601V21.9446C17.4941 21.9808 17.5039 22.0162 17.5227 22.0468C17.5414 22.0774 17.5682 22.102 17.5999 22.1176C17.6315 22.1333 17.6669 22.1394 17.7018 22.1353C17.7367 22.1312 17.7698 22.117 17.7973 22.0944L20.1075 20.1855C20.2821 20.0416 20.423 19.8593 20.5199 19.6519C20.6168 19.4444 20.6671 19.2172 20.6673 18.9871V16.2169C20.6673 15.8095 20.5101 15.4187 20.2301 15.1305C19.9501 14.8424 19.5703 14.6805 19.1744 14.6805C19.5699 14.6798 19.9489 14.5176 20.2282 14.2296C20.5076 13.9415 20.6645 13.5512 20.6645 13.1442ZM16.3725 13.9124H14.693C14.6435 13.9124 14.596 13.8922 14.561 13.8562C14.526 13.8201 14.5064 13.7713 14.5064 13.7203V10.2635C14.5064 10.2126 14.526 10.1638 14.561 10.1278C14.596 10.0917 14.6435 10.0715 14.693 10.0715H17.3055C17.355 10.0715 17.4025 10.0917 17.4375 10.1278C17.4725 10.1638 17.4922 10.2126 17.4922 10.2635V12.7601C17.4922 13.0657 17.3742 13.3588 17.1642 13.5749C16.9542 13.791 16.6694 13.9124 16.3725 13.9124Z" fill="#004DE5"/>
</g>
</g>
<defs>
<clipPath id="clip0_5315_228914">
<rect width="32" height="32" rx="4" fill="white"/>
</clipPath>
<clipPath id="clip1_5315_228914">
<rect width="16" height="23" fill="white" transform="translate(8 5)"/>
</clipPath>
</defs>
</svg>
