<svg width="32" height="32" viewBox="0 0 32 32" fill="none" xmlns="http://www.w3.org/2000/svg">
<rect width="32" height="32" rx="4" fill="black"/>
<path d="M16.0039 11.9473C17.3701 11.9473 18.4776 10.8398 18.4776 9.47367C18.4776 8.1075 17.3701 7 16.0039 7C14.6378 7 13.5303 8.1075 13.5303 9.47367C13.5303 10.8398 14.6378 11.9473 16.0039 11.9473Z" fill="#FF931E"/>
<path d="M22.8817 17.1205C21.6979 16.4381 20.1855 16.8445 19.5031 18.0284C19.2682 18.4357 19.1626 18.8817 19.1727 19.3196C19.1975 20.4099 18.2171 20.9772 17.2849 20.4142C17.2482 20.3917 17.2104 20.3697 17.1722 20.3492C16.2296 19.823 16.23 18.7022 17.1732 18.1764C17.9454 17.7581 18.4702 16.94 18.4702 16.0002C18.4702 15.9811 18.4692 15.9625 18.4688 15.9439L18.4697 15.9453C18.4454 14.8537 19.4281 14.2868 20.3613 14.8541C21.1086 15.3078 22.0742 15.3503 22.8846 14.8818C24.0675 14.1985 24.4724 12.6851 23.7891 11.5023C23.1057 10.3194 21.5924 9.91443 20.4095 10.5978C19.5996 11.0658 19.155 11.922 19.1736 12.7954C19.198 13.8847 18.2185 14.4516 17.2873 13.8895C16.9115 13.6593 16.4702 13.5266 15.9975 13.5266C15.5247 13.5266 15.0835 13.6593 14.7081 13.889C13.7788 14.4492 12.8022 13.8833 12.8271 12.7964C12.8462 11.9211 12.3992 11.0629 11.5869 10.5954C10.4026 9.91443 8.89021 10.3223 8.20924 11.5066C7.52826 12.6909 7.93608 14.2032 9.12039 14.8842C9.92982 15.3498 10.8925 15.3064 11.6385 14.8541C12.5692 14.2892 13.5496 14.8556 13.5248 15.9444L13.5257 15.9429C13.5257 15.962 13.5243 15.9811 13.5243 16.0007C13.5243 16.941 14.0486 17.7585 14.8213 18.1769C15.7649 18.7031 15.7644 19.8253 14.8203 20.3506C14.7821 20.3712 14.7449 20.3931 14.7081 20.4156C13.7788 20.9748 12.8027 20.4084 12.8275 19.3215C12.8381 18.8817 12.7316 18.4333 12.4952 18.0245C11.8104 16.8421 10.2971 16.4391 9.11466 17.1234C7.92987 17.8077 7.52683 19.3211 8.21115 20.5035C8.89594 21.6859 10.4093 22.0889 11.5917 21.4046C11.607 21.3955 11.6218 21.386 11.637 21.3769L11.6356 21.3788C12.5673 20.8134 13.5477 21.3802 13.5224 22.4695L13.5233 22.4681C13.5233 22.4881 13.5219 22.5087 13.5219 22.5287C13.5233 23.895 14.6317 25.0014 15.998 25C17.3642 24.9986 18.4707 23.8902 18.4692 22.5239C18.4692 22.5058 18.4683 22.4876 18.4678 22.4695L18.4688 22.4709C18.4439 21.3788 19.4272 20.8115 20.3608 21.3788L20.3594 21.3764C20.3765 21.3869 20.3928 21.3974 20.41 21.4074C21.5938 22.0899 23.1062 21.6835 23.7886 20.4996C24.471 19.3158 24.0646 17.8034 22.8808 17.121L22.8817 17.1205Z" fill="#FF931E"/>
</svg>
