<svg width="32" height="32" viewBox="0 0 32 32" fill="none" xmlns="http://www.w3.org/2000/svg">
<g clip-path="url(#clip0_5313_228800)">
<rect width="32" height="32" rx="4" fill="#FFE4C6"/>
<path d="M32 0H0V32H32V0Z" fill="#FEEFDF"/>
<path d="M24.7734 19.8076V6.51863C24.7557 5.40669 23.8909 4.51172 22.8055 4.51172H9.26835C6.34737 4.55692 4 7.0068 4 10.0081C4 11.0206 4.26474 11.8885 4.67068 12.6479C5.01484 13.2807 5.55315 13.8773 6.08263 14.3203C6.23265 14.4468 6.16206 14.3926 6.62094 14.6819C7.25632 15.0796 7.97994 15.2785 7.97994 15.2785L7.97112 23.2248C7.98877 23.6045 8.02407 23.9661 8.12114 24.3006C8.42118 25.4216 9.1801 26.2804 10.2126 26.6962C10.645 26.868 11.1304 26.9855 11.651 26.9946L22.4613 27.0307C24.6145 27.0307 26.3618 25.2408 26.3618 23.0259C26.3706 21.7151 25.7353 20.5399 24.7734 19.8076Z" fill="#FFEEDA"/>
<path d="M25.0385 23.1273C24.9944 24.5466 23.856 25.6856 22.4617 25.6856L15.0225 25.6586C15.6137 24.9535 15.9755 24.0403 15.9755 23.0459C15.9755 21.482 15.0666 20.4062 15.0666 20.4062H22.4705C23.8913 20.4062 25.0473 21.5904 25.0473 23.0459L25.0385 23.1273Z" fill="#EBC28E"/>
<path d="M6.78861 13.2C5.93261 12.3683 5.33253 11.2926 5.33253 10.0179V9.88229C5.40313 7.70361 7.15042 5.94982 9.27718 5.88654H22.8143C23.1673 5.90462 23.4497 6.15775 23.4497 6.52839V18.2625C23.7585 18.3168 23.9085 18.362 24.2086 18.4705C24.4469 18.5609 24.7734 18.7507 24.7734 18.7507V6.52839C24.7557 5.41645 23.8909 4.52148 22.8055 4.52148H9.26835C6.34737 4.56668 4 7.01656 4 10.0179C4 11.7626 4.77658 13.2543 6.04733 14.3029C6.13558 14.3753 6.215 14.4657 6.44445 14.4657C6.84156 14.4657 7.12395 14.1402 7.1063 13.7876C7.09747 13.4893 6.97393 13.3808 6.78861 13.2Z" fill="#101010"/>
<path d="M22.4611 19.0321H11.845C11.1302 19.0411 10.5565 19.6288 10.5565 20.361V21.9249C10.5742 22.6482 11.1743 23.2629 11.8891 23.2629H12.6745V21.9249H11.8891V20.3972C11.8891 20.3972 12.0832 20.3972 12.3215 20.3972C13.6628 20.3972 14.6513 21.6718 14.6513 23.0369C14.6513 24.2483 13.5746 25.7941 11.7744 25.6676C10.1771 25.5591 9.31227 24.1036 9.31227 23.0369V9.78404C9.31227 9.18739 8.83574 8.69922 8.25331 8.69922H7.19434V10.0552H7.97974V23.0459C7.93562 25.6857 9.81528 27.0146 11.7744 27.0146L22.47 27.0507C24.6232 27.0507 26.3705 25.2608 26.3705 23.0459C26.3705 20.8311 24.6144 19.0321 22.4611 19.0321ZM25.0379 23.1273C24.9938 24.5466 23.8554 25.6857 22.4611 25.6857L15.0219 25.6585C15.6132 24.9534 15.975 24.0403 15.975 23.0459C15.975 21.482 15.066 20.4062 15.066 20.4062H22.47C23.8907 20.4062 25.0468 21.5905 25.0468 23.0459L25.0379 23.1273Z" fill="#101010"/>
<path d="M19.6017 10.2994H11.5977V8.94336H19.6017C19.9635 8.94336 20.2636 9.24168 20.2636 9.62137C20.2636 9.99201 19.9724 10.2994 19.6017 10.2994Z" fill="#101010"/>
<path d="M19.6017 16.6803H11.5977V15.3242H19.6017C19.9635 15.3242 20.2636 15.6226 20.2636 16.0023C20.2636 16.3729 19.9724 16.6803 19.6017 16.6803Z" fill="#101010"/>
<path d="M21.0137 13.4888H11.5977V12.1328H21.0048C21.3667 12.1328 21.6667 12.4311 21.6667 12.8108C21.6755 13.1815 21.3755 13.4888 21.0137 13.4888Z" fill="#101010"/>
</g>
<defs>
<clipPath id="clip0_5313_228800">
<rect width="32" height="32" rx="4" fill="white"/>
</clipPath>
</defs>
</svg>