<svg width="32" height="32" viewBox="0 0 32 32" fill="none" xmlns="http://www.w3.org/2000/svg">
<path d="M0 4C0 1.79086 1.79086 0 4 0H28C30.2091 0 32 1.79086 32 4V28C32 30.2091 30.2091 32 28 32H4C1.79086 32 0 30.2091 0 28V4Z" fill="#F1F1F1"/>
<path d="M15.7773 6L15.5458 9.67588L9.01855 18.351L15.7773 6Z" fill="url(#paint0_linear_15855_7755)"/>
<path d="M15.7784 5.99997L21.2181 8.42487L20.5236 16.1766L15.5469 9.67585L15.7784 5.99997Z" fill="url(#paint1_linear_15855_7755)"/>
<path d="M21.218 8.42487L22.9818 19.1249L20.5234 16.1766L21.218 8.42487Z" fill="url(#paint2_linear_15855_7755)"/>
<path d="M22.9824 19.1248L20.1143 25.9998L20.1221 25.8231L13.8838 25.9861L20.5244 16.1766L22.9824 19.1248Z" fill="url(#paint3_linear_15855_7755)"/>
<path d="M15.5468 9.67584L20.5235 16.1766L13.8835 25.9863L9.01953 18.351L15.5468 9.67584Z" fill="url(#paint4_linear_15855_7755)"/>
<defs>
<linearGradient id="paint0_linear_15855_7755" x1="12.3979" y1="18.351" x2="7.12569" y2="7.42941" gradientUnits="userSpaceOnUse">
<stop stop-color="#D0A0B7"/>
<stop offset="1" stop-color="#6A525D"/>
</linearGradient>
<linearGradient id="paint1_linear_15855_7755" x1="18.3825" y1="16.1766" x2="14.0878" y2="7.1165" gradientUnits="userSpaceOnUse">
<stop stop-color="#D0A0B7"/>
<stop offset="1" stop-color="#6A525D"/>
</linearGradient>
<linearGradient id="paint2_linear_15855_7755" x1="21.7526" y1="19.1249" x2="15.9757" y2="14.1006" gradientUnits="userSpaceOnUse">
<stop stop-color="#D0A0B7"/>
<stop offset="1" stop-color="#6A525D"/>
</linearGradient>
<linearGradient id="paint3_linear_15855_7755" x1="17.2039" y1="25.9861" x2="13.5816" y2="16.7041" gradientUnits="userSpaceOnUse">
<stop stop-color="#8D6477"/>
<stop offset="0.600962" stop-color="#6A525D"/>
</linearGradient>
<linearGradient id="paint4_linear_15855_7755" x1="14.7715" y1="25.9863" x2="8.93021" y2="10.3903" gradientUnits="userSpaceOnUse">
<stop stop-color="#D0A0B7"/>
<stop offset="1" stop-color="#6A525D"/>
</linearGradient>
</defs>
</svg>
