<svg width="32" height="32" viewBox="0 0 32 32" fill="none" xmlns="http://www.w3.org/2000/svg">
<rect width="32" height="32" rx="16" fill="#161B27"/>
<path d="M21.5721 6.00162C20.9477 6.62601 20.3757 7.30276 19.8672 8.02437L19.7064 7.97202C18.7792 7.66917 17.8183 7.48223 16.8499 7.41866C16.5582 7.39623 15.4702 7.39623 15.115 7.41866C14.042 7.4897 13.2194 7.65048 12.2847 7.97576C12.2473 7.99072 12.2136 8.00193 12.18 8.01315C11.6528 7.29528 11.0658 6.62228 10.4189 6.00535C13.5222 4.41632 17.1527 4.22563 20.4018 5.47817C20.7496 5.60903 21.0898 5.76233 21.4226 5.92684L21.5721 6.00162Z" fill="#F00500"/>
<path d="M27.3594 20.1838C26.8883 21.5261 26.1817 22.7711 25.2656 23.8554C24.7684 24.4387 24.2188 24.9733 23.628 25.4594C22.2446 26.5736 20.6294 27.37 18.9058 27.7887C16.9989 28.2486 15.0098 28.2486 13.103 27.7887C11.3756 27.37 9.76411 26.5736 8.38071 25.4594C7.78996 24.9733 7.24034 24.4387 6.74306 23.8554C4.10713 20.7409 3.307 16.4636 4.64927 12.6087C4.90352 11.8946 5.22133 11.2066 5.6027 10.5523C5.77842 10.2532 5.99528 9.91672 6.09997 9.77838C6.45891 11.3226 6.9001 12.6798 7.06461 13.1696C7.05339 13.1957 7.03844 13.2257 7.02348 13.2518C6.15232 15.0166 5.68121 16.7178 5.56905 18.5274C5.56905 18.5499 5.56531 18.576 5.56531 18.5985C5.5354 19.1406 5.55035 19.3986 5.64008 19.7388C5.9205 20.8044 6.78419 21.9785 8.13768 23.13C10.3549 25.0145 13.3609 26.3754 15.6379 26.5325C18.0122 26.6932 21.5155 25.3061 23.8486 23.2796C24.215 22.9543 24.559 22.6103 24.8805 22.2439C25.1124 21.9747 25.4563 21.5111 25.4302 21.5111C25.4227 21.5111 25.4302 21.5036 25.4451 21.4961C25.4563 21.4887 25.4675 21.4774 25.4601 21.47C25.4563 21.4662 25.4638 21.455 25.475 21.4513C25.4862 21.4475 25.4937 21.4401 25.49 21.4326C25.4862 21.4251 25.49 21.4176 25.5049 21.4139C25.5162 21.4101 25.5199 21.3989 25.5162 21.3914C25.5124 21.384 25.5162 21.3765 25.5236 21.3765C25.5311 21.3765 25.5386 21.3653 25.5386 21.3578C25.5386 21.3503 25.5461 21.3391 25.5535 21.3391C25.561 21.3391 25.5685 21.3316 25.5685 21.3241C25.5797 21.2942 25.5984 21.2643 25.6171 21.2382C25.6732 21.1522 25.8975 20.7521 25.9274 20.6848C26.1406 20.2025 26.2752 19.7725 26.3387 19.3425C26.3686 19.1369 26.3873 18.7593 26.3724 18.6695C26.3686 18.6546 26.3686 18.6284 26.3649 18.5873C26.3574 18.5125 26.3537 18.4003 26.3462 18.2882C26.3387 18.1199 26.3238 17.8843 26.3125 17.7684C26.1518 16.071 25.7181 14.6838 24.8955 13.2144C24.8618 13.1584 24.8319 13.1023 24.8132 13.0574C24.8058 13.0462 24.802 13.035 24.7983 13.0275C24.9142 12.6798 25.389 11.2253 25.7667 9.56152L25.7741 9.569L25.8302 9.64378C25.9274 9.77464 26.1854 10.1635 26.3013 10.3504C26.8285 11.2104 27.2398 12.1339 27.5314 13.0985C28.2082 15.4204 28.1521 17.8956 27.3594 20.1838Z" fill="#F00500"/>
<path d="M22.5061 15.7154C22.4949 15.7752 22.3192 15.9547 22.1435 16.0855C21.6275 16.4632 20.704 16.8146 19.7655 16.9829C19.2309 17.0801 18.6962 17.095 18.5354 17.0165C18.4307 16.9642 18.4158 16.9231 18.4532 16.7885C18.5317 16.508 18.7859 16.2014 19.1822 15.9136C19.3841 15.7677 20.203 15.2705 20.5843 15.0611C21.2125 14.7171 21.721 14.5115 22.0649 14.4629C22.1734 14.4479 22.3042 14.4442 22.3454 14.4629C22.4127 14.489 22.4874 14.6872 22.5174 14.9265C22.5323 15.0536 22.5248 15.6144 22.5061 15.7154Z" fill="black"/>
<path d="M13.6974 16.9532C13.675 16.9981 13.5628 17.0467 13.4357 17.0654C13.3086 17.0841 12.9198 17.0728 12.6992 17.0467C11.9065 16.942 11.0653 16.699 10.4521 16.3998C10.1081 16.2316 9.86132 16.0633 9.67811 15.8801L9.57343 15.7717L9.56221 15.6296C9.54351 15.3829 9.54725 14.994 9.57716 14.8557C9.59586 14.7398 9.63699 14.6276 9.69307 14.5266C9.72298 14.4893 9.72298 14.4893 9.85758 14.4893C10.0221 14.4893 10.1604 14.5154 10.3848 14.5865C10.8447 14.7285 11.5289 15.0725 12.3627 15.5735C13.0506 15.9848 13.3086 16.1867 13.5068 16.4634C13.6414 16.6354 13.7311 16.8784 13.6974 16.9532Z" fill="black"/>
<path d="M18.991 22.1573C18.991 22.1685 18.9462 22.348 18.8901 22.5611C18.834 22.7742 18.7891 22.9462 18.7891 22.9537C18.748 22.9575 18.7106 22.9612 18.6695 22.9575H18.5499L18.3853 23.3463C18.2956 23.5594 18.2133 23.7576 18.2021 23.7875L18.1797 23.8398L18.1012 23.7127L18.0227 23.5856V22.5499L17.9928 22.5574C17.9292 22.5723 17.4768 22.6322 17.2786 22.6509C16.4598 22.7331 15.6372 22.7144 14.8222 22.5985C14.6913 22.5798 14.5791 22.5649 14.5754 22.5686C14.5716 22.5723 14.5754 22.8116 14.5829 23.107L14.5941 23.6379L14.5305 23.7351C14.4969 23.7875 14.4632 23.8324 14.4632 23.8361C14.452 23.8473 14.4146 23.7875 14.3286 23.6155C14.2351 23.436 14.1678 23.2453 14.1192 23.0472L14.0931 22.9388L13.9772 22.9462L13.8613 22.9575L13.8313 22.8191C13.8164 22.7443 13.7977 22.6284 13.7902 22.5649L13.779 22.4452L13.6818 22.3592C13.6257 22.3106 13.5696 22.262 13.5584 22.2545C13.5397 22.2396 13.5322 22.2134 13.5322 22.191V22.1461L13.9996 22.1498L14.467 22.1536L14.4819 22.2022L14.4969 22.2508L14.6576 22.2583C14.7474 22.262 15.0315 22.2695 15.2858 22.277L15.7531 22.2882L15.8728 22.1012L15.9962 21.9143H16.1532L16.1495 21.5254L16.1457 21.1366L15.9401 21.0469C15.2783 20.7552 14.8895 20.4225 14.7436 20.0187C14.7137 19.9364 14.7137 19.9065 14.7062 19.5326C14.7025 19.1625 14.7025 19.1288 14.7287 19.0465C14.781 18.8596 14.9268 18.7138 15.1138 18.6652C15.1774 18.6465 15.3456 18.6465 16.228 18.6465L17.2674 18.6502L17.3833 18.7063C17.5216 18.7736 17.5852 18.8222 17.6637 18.9269C17.7535 19.0465 17.7796 19.14 17.7796 19.3681C17.7796 19.6934 17.7572 19.9738 17.7236 20.086C17.6749 20.2393 17.6002 20.3851 17.5067 20.5159C17.3197 20.7552 16.9795 20.9945 16.6692 21.103L16.5794 21.1366L16.5832 21.5292L16.5869 21.9218L16.6692 21.9293L16.7514 21.9367L16.8636 22.105L16.972 22.2732H17.473C17.7497 22.2732 17.9928 22.277 18.0152 22.2807C18.0526 22.2882 18.0601 22.2844 18.0974 22.2209L18.1423 22.1536H18.5723C18.8938 22.1386 18.991 22.1461 18.991 22.1573Z" fill="black"/>
<path d="M17.0174 23.2309C16.9464 23.272 16.8978 23.2907 16.8866 23.2832C16.8754 23.2795 16.823 23.2346 16.7669 23.1935L16.666 23.1112L16.5613 23.2234C16.3332 23.4702 16.3257 23.4814 16.2584 23.4851C16.1538 23.4964 16.1313 23.4777 16.0042 23.287C15.9369 23.1898 15.8846 23.1075 15.8846 23.1075C15.8846 23.1075 15.836 23.1 15.7799 23.0963L15.6752 23.0851L15.6266 23.186L15.578 23.287L15.492 23.2608C15.4247 23.2384 15.3574 23.2122 15.2938 23.1823L15.1816 23.1262V22.9131L16.1762 22.9168L17.1707 22.9206L17.1745 23.0215C17.1782 23.1412 17.182 23.1374 17.0174 23.2309Z" fill="black"/>
<path d="M26.3653 18.6689C26.3616 18.6539 26.3616 18.6277 26.3579 18.5866C25.4605 18.4894 22.8994 18.4296 20.5214 20.3925C20.5214 20.3925 19.7549 16.8779 16.1656 16.8779C12.5762 16.8779 11.2452 20.3925 11.2452 20.3925C9.23363 18.2277 6.54162 18.3847 5.5695 18.5268C5.5695 18.5492 5.56576 18.5754 5.56576 18.5978C5.53585 19.14 5.5508 19.398 5.64054 19.7382C5.92095 20.8038 6.78465 21.9778 8.13813 23.1294C10.3553 25.0138 13.3614 26.3748 15.6384 26.5318C18.0126 26.6926 21.516 25.3054 23.849 23.279C24.2155 22.9537 24.5594 22.6097 24.881 22.2433C25.1128 21.9741 25.4568 21.5104 25.4306 21.5104C25.4231 21.5104 25.4306 21.503 25.4456 21.4955C25.4568 21.488 25.468 21.4768 25.4605 21.4693C25.4568 21.4656 25.4643 21.4544 25.4755 21.4506C25.4867 21.4469 25.4942 21.4394 25.4904 21.4319C25.4867 21.4244 25.4904 21.417 25.5054 21.4132C25.5166 21.4095 25.5203 21.3983 25.5166 21.3908C25.5129 21.3833 25.5166 21.3758 25.5241 21.3758C25.5316 21.3758 25.539 21.3646 25.539 21.3571C25.539 21.3497 25.5465 21.3385 25.554 21.3385C25.5615 21.3385 25.569 21.331 25.569 21.3235C25.5802 21.2936 25.5989 21.2637 25.6176 21.2375C25.6736 21.1515 25.898 20.7514 25.9279 20.6841C26.141 20.2018 26.2756 19.7719 26.3392 19.3419C26.3616 19.1362 26.3803 18.7586 26.3653 18.6689ZM17.0181 23.2303C16.947 23.2715 16.8984 23.2902 16.8872 23.2827C16.876 23.279 16.8236 23.2341 16.7675 23.193L16.6666 23.1107L16.5619 23.2229C16.3338 23.4696 16.3264 23.4809 16.2591 23.4846C16.1544 23.4958 16.1319 23.4771 16.0048 23.2864C15.9375 23.1892 15.8852 23.107 15.8852 23.107C15.8852 23.107 15.8366 23.0995 15.7805 23.0957L15.6758 23.0845L15.6272 23.1855L15.5786 23.2864L15.4926 23.2603C15.4253 23.2378 15.358 23.2116 15.2944 23.1817L15.1822 23.1257V22.9125L16.1768 22.9163L17.1713 22.92L17.1751 23.021C17.1788 23.1406 17.1826 23.1369 17.0181 23.2303ZM18.8875 22.5573C18.8314 22.7705 18.7866 22.9424 18.7866 22.9499C18.7454 22.9537 18.708 22.9574 18.6669 22.9537H18.5473L18.3865 23.3463C18.2968 23.5594 18.2145 23.7575 18.2033 23.7874L18.1809 23.8398L18.1023 23.7127L18.0238 23.5855V22.5499L17.9939 22.5573C17.9303 22.5723 17.4779 22.6321 17.2798 22.6508C16.461 22.7331 15.6384 22.7144 14.8233 22.5985C14.6924 22.5798 14.5803 22.5648 14.5765 22.5686C14.5728 22.5723 14.5765 22.8116 14.584 23.107L14.5952 23.6379L14.5317 23.7351C14.498 23.7874 14.4644 23.8323 14.4644 23.836C14.4532 23.8473 14.4158 23.7874 14.3298 23.6155C14.2363 23.436 14.169 23.2453 14.1204 23.0471L14.0942 22.9387L13.9783 22.9462L13.8624 22.9574L13.8325 22.8191C13.8175 22.7443 13.7988 22.6284 13.7914 22.5648L13.7802 22.4452L13.6829 22.3592C13.6269 22.3106 13.5708 22.262 13.5596 22.2545C13.5409 22.2395 13.5334 22.2134 13.5334 22.1909V22.1461L14.0007 22.1498L14.4681 22.1535L14.4831 22.2021L14.498 22.2508L14.6588 22.2582C14.7485 22.262 15.0327 22.2694 15.2869 22.2769L15.7543 22.2881L15.8739 22.1012L15.9973 21.9142H16.1544L16.1506 21.5254L16.1469 21.1366L15.9412 21.0468C15.2795 20.7552 14.8906 20.4224 14.7448 20.0186C14.7149 19.9364 14.7149 19.9065 14.7074 19.5326C14.7037 19.1624 14.7037 19.1288 14.7298 19.0465C14.7822 18.8596 14.928 18.7137 15.1149 18.6651C15.1785 18.6464 15.3468 18.6464 16.2291 18.6464L17.2686 18.6502L17.3845 18.7063C17.5228 18.7736 17.5864 18.8222 17.6649 18.9269C17.7546 19.0465 17.7808 19.14 17.7808 19.368C17.7808 19.6933 17.7584 19.9738 17.7247 20.0859C17.6761 20.2392 17.6013 20.385 17.5079 20.5159C17.3209 20.7552 16.9807 20.9945 16.6703 21.1029L16.5806 21.1366L16.5843 21.5291L16.5881 21.9217L16.6703 21.9292L16.7526 21.9367L16.8648 22.1049L16.9732 22.2732H17.4742C17.7509 22.2732 17.9939 22.2769 18.0163 22.2807C18.0537 22.2881 18.0612 22.2844 18.0986 22.2208L18.1435 22.1535H18.5734C18.9062 22.1535 19.0034 22.1573 19.0034 22.1685C18.9922 22.1648 18.9436 22.348 18.8875 22.5573Z" fill="white"/>
<path d="M26.3349 18.2876C26.3275 18.1194 26.3125 17.8838 26.3013 17.7679C26.1405 16.0704 25.7068 14.6833 24.8842 13.2139C24.8506 13.1578 24.8207 13.1018 24.802 13.0569C24.7945 13.0457 24.7908 13.0345 24.787 13.027C24.9029 12.6793 25.3778 11.2248 25.7554 9.561C26.2676 7.3027 26.5929 4.66302 25.5984 3.87037C25.5984 3.87037 23.8785 3.74325 21.5753 6.00155C20.9509 6.62595 20.3788 7.3027 19.8703 8.02431L19.7096 7.97196C18.7823 7.66911 17.8214 7.48216 16.853 7.4186C16.5614 7.39617 15.4734 7.39617 15.1182 7.4186C14.0451 7.48964 13.2226 7.65041 12.2878 7.9757C12.2504 7.99066 12.2168 8.00187 12.1831 8.01309C11.656 7.29522 11.0689 6.62221 10.4221 6.00529C8.02547 3.73577 6.24201 3.86663 6.24201 3.86663C5.18763 4.68546 5.54657 7.44477 6.09245 9.77786C6.45139 11.322 6.89258 12.6793 7.05709 13.1691C7.04587 13.1952 7.03092 13.2251 7.01596 13.2513C6.1448 15.0161 5.67369 16.7173 5.56152 18.5269C6.53738 18.3848 9.22566 18.2241 11.2409 20.3926C11.2409 20.3926 12.572 16.8781 16.1613 16.8781C19.7507 16.8781 20.5172 20.3926 20.5172 20.3926C22.8951 18.4297 25.4563 18.4933 26.3536 18.5867C26.3499 18.512 26.3424 18.3998 26.3349 18.2876ZM7.76374 11.7595C7.76374 11.7595 6.36539 8.2636 6.72432 6.26702C6.78415 5.93051 6.89632 5.63514 7.07205 5.4108C7.07205 5.4108 8.65734 5.56784 11.2148 8.40941C11.2148 8.40941 10.7287 8.64497 10.0781 9.14598C10.0781 9.14598 10.0744 9.14972 10.0707 9.14972C9.364 9.69186 8.45918 10.5518 7.76374 11.7595ZM13.6974 16.9528C13.675 16.9977 13.5628 17.0463 13.4357 17.065C13.3086 17.0837 12.9197 17.0725 12.6991 17.0463C11.9065 16.9416 11.0652 16.6986 10.452 16.3995C10.108 16.2312 9.86127 16.063 9.67807 15.8798L9.57338 15.7713L9.56216 15.6293C9.54347 15.3825 9.54721 14.9936 9.57712 14.8553C9.59581 14.7394 9.63694 14.6272 9.69302 14.5263C9.72294 14.4889 9.72294 14.4889 9.85754 14.4889C10.022 14.4889 10.1604 14.5151 10.3847 14.5861C10.8446 14.7282 11.5288 15.0722 12.3626 15.5732C13.0506 15.9845 13.3086 16.1864 13.5067 16.463C13.6413 16.635 13.7311 16.8781 13.6974 16.9528ZM22.5063 15.7153C22.4951 15.7751 22.3193 15.9545 22.1436 16.0854C21.6276 16.463 20.7041 16.8145 19.7657 16.9827C19.231 17.08 18.6963 17.0949 18.5356 17.0164C18.4309 16.9641 18.4159 16.9229 18.4533 16.7883C18.5318 16.5079 18.7861 16.2013 19.1824 15.9134C19.3843 15.7676 20.2031 15.2703 20.5845 15.0609C21.2126 14.717 21.7211 14.5113 22.0651 14.4627C22.1735 14.4478 22.3044 14.444 22.3455 14.4627C22.4128 14.4889 22.4876 14.6871 22.5175 14.9263C22.5325 15.0535 22.525 15.6143 22.5063 15.7153ZM21.8856 9.14598L21.8781 9.14224C21.25 8.64123 20.7789 8.40567 20.7789 8.40567C23.2503 5.5641 24.7795 5.40707 24.7795 5.40707C24.9478 5.63514 25.0562 5.92678 25.116 6.26328C25.4638 8.25986 24.114 11.7595 24.114 11.7595C23.5494 10.7537 22.7904 9.86385 21.8856 9.14598Z" fill="#FFA409"/>
<path d="M25.1192 6.26148C24.8276 6.2241 23.4479 6.21662 21.885 9.14419L21.8776 9.14045C21.2494 8.63943 20.7783 8.40388 20.7783 8.40388C23.2497 5.56231 24.779 5.40527 24.779 5.40527C24.9509 5.63335 25.0594 5.92498 25.1192 6.26148Z" fill="#FF9300"/>
<path d="M24.1169 11.7585C23.5486 10.749 22.7933 9.86288 21.8848 9.14501C23.4476 6.21744 24.8236 6.22492 25.1189 6.26231C25.4666 8.26263 24.1169 11.7585 24.1169 11.7585Z" fill="#FF8300"/>
<path d="M25.1752 6.27294C25.1565 6.2692 25.1378 6.26546 25.1191 6.26172L25.1752 6.27294Z" fill="#FF8300"/>
<path d="M11.2159 8.40388C11.2159 8.40388 10.7298 8.63943 10.0792 9.14045C10.0792 9.14045 10.0755 9.14419 10.0717 9.14419C8.4528 6.21288 7.02827 6.2241 6.72168 6.26148C6.7815 5.92498 6.89367 5.62961 7.0694 5.40527C7.07314 5.40527 8.65844 5.56231 11.2159 8.40388Z" fill="#FF9300"/>
<path d="M10.075 9.14501C9.36461 9.69089 8.45979 10.5471 7.76435 11.7585C7.76435 11.7585 6.366 8.26263 6.72493 6.26231C7.02779 6.22492 8.45605 6.21744 10.075 9.14501Z" fill="#FF8300"/>
<path d="M6.72486 6.26172C6.70617 6.26546 6.68373 6.2692 6.66504 6.27294L6.72486 6.26172Z" fill="#FF8300"/>
<path d="M20.3342 13.7007C20.3342 13.7007 19.1378 13.7755 19.2874 12.8408C19.4369 11.906 20.3716 11.7939 20.6334 11.8313C20.8951 11.8686 21.942 12.2425 21.755 13.0277C21.5681 13.8129 21.3064 13.6633 21.1568 13.7007C21.0073 13.7381 20.3342 13.7007 20.3342 13.7007Z" fill="white"/>
<path d="M11.511 13.7007C11.511 13.7007 10.3146 13.7755 10.4641 12.8408C10.6137 11.906 11.5484 11.7939 11.8101 11.8313C12.0718 11.8686 13.1187 12.2425 12.9318 13.0277C12.7448 13.8129 12.4831 13.6633 12.3336 13.7007C12.184 13.7381 11.511 13.7007 11.511 13.7007Z" fill="white"/>
</svg>
