<svg width="32" height="32" viewBox="0 0 32 32" fill="none" xmlns="http://www.w3.org/2000/svg">
<rect width="32" height="32" rx="4" fill="#161B27"/>
<path d="M21.5721 6.00064C20.9477 6.62504 20.3757 7.30178 19.8672 8.02339L19.7064 7.97105C18.7792 7.66819 17.8183 7.48125 16.8499 7.41769C16.5582 7.39525 15.4702 7.39525 15.115 7.41769C14.042 7.48873 13.2194 7.6495 12.2847 7.97479C12.2473 7.98974 12.2136 8.00096 12.18 8.01217C11.6528 7.2943 11.0658 6.6213 10.4189 6.00438C13.5222 4.41534 17.1527 4.22465 20.4018 5.47719C20.7496 5.60805 21.0898 5.76135 21.4226 5.92586L21.5721 6.00064Z" fill="#F00500"/>
<path d="M27.3594 20.1828C26.8883 21.5251 26.1817 22.7701 25.2656 23.8544C24.7684 24.4377 24.2188 24.9724 23.628 25.4584C22.2446 26.5726 20.6294 27.369 18.9058 27.7878C16.9989 28.2476 15.0098 28.2476 13.103 27.7878C11.3756 27.369 9.76411 26.5726 8.38071 25.4584C7.78996 24.9724 7.24034 24.4377 6.74306 23.8544C4.10713 20.7399 3.307 16.4626 4.64927 12.6078C4.90352 11.8936 5.22133 11.2057 5.6027 10.5514C5.77842 10.2522 5.99528 9.91574 6.09997 9.7774C6.45891 11.3216 6.9001 12.6788 7.06461 13.1686C7.05339 13.1948 7.03844 13.2247 7.02348 13.2509C6.15232 15.0156 5.68121 16.7168 5.56905 18.5265C5.56905 18.5489 5.56531 18.5751 5.56531 18.5975C5.5354 19.1396 5.55035 19.3976 5.64008 19.7379C5.9205 20.8035 6.78419 21.9775 8.13768 23.1291C10.3549 25.0135 13.3609 26.3744 15.6379 26.5315C18.0122 26.6923 21.5155 25.3051 23.8486 23.2786C24.215 22.9533 24.559 22.6094 24.8805 22.2429C25.1124 21.9737 25.4563 21.5101 25.4302 21.5101C25.4227 21.5101 25.4302 21.5026 25.4451 21.4952C25.4563 21.4877 25.4675 21.4765 25.4601 21.469C25.4563 21.4653 25.4638 21.454 25.475 21.4503C25.4862 21.4466 25.4937 21.4391 25.49 21.4316C25.4862 21.4241 25.49 21.4166 25.5049 21.4129C25.5162 21.4092 25.5199 21.398 25.5162 21.3905C25.5124 21.383 25.5162 21.3755 25.5236 21.3755C25.5311 21.3755 25.5386 21.3643 25.5386 21.3568C25.5386 21.3493 25.5461 21.3381 25.5535 21.3381C25.561 21.3381 25.5685 21.3307 25.5685 21.3232C25.5797 21.2933 25.5984 21.2633 25.6171 21.2372C25.6732 21.1512 25.8975 20.7511 25.9274 20.6838C26.1406 20.2015 26.2752 19.7715 26.3387 19.3415C26.3686 19.1359 26.3873 18.7583 26.3724 18.6685C26.3686 18.6536 26.3686 18.6274 26.3649 18.5863C26.3574 18.5115 26.3537 18.3993 26.3462 18.2872C26.3387 18.1189 26.3238 17.8834 26.3125 17.7675C26.1518 16.07 25.7181 14.6829 24.8955 13.2135C24.8618 13.1574 24.8319 13.1013 24.8132 13.0564C24.8058 13.0452 24.802 13.034 24.7983 13.0265C24.9142 12.6788 25.389 11.2244 25.7667 9.56055L25.7741 9.56803L25.8302 9.6428C25.9274 9.77367 26.1854 10.1625 26.3013 10.3495C26.8285 11.2094 27.2398 12.1329 27.5314 13.0976C28.2082 15.4194 28.1521 17.8946 27.3594 20.1828Z" fill="#F00500"/>
<path d="M22.5061 15.7144C22.4949 15.7742 22.3192 15.9537 22.1435 16.0846C21.6275 16.4622 20.704 16.8137 19.7655 16.9819C19.2309 17.0791 18.6962 17.0941 18.5354 17.0156C18.4307 16.9632 18.4158 16.9221 18.4532 16.7875C18.5317 16.5071 18.7859 16.2005 19.1822 15.9126C19.3841 15.7668 20.203 15.2695 20.5843 15.0601C21.2125 14.7161 21.721 14.5105 22.0649 14.4619C22.1734 14.4469 22.3042 14.4432 22.3454 14.4619C22.4127 14.488 22.4874 14.6862 22.5174 14.9255C22.5323 15.0526 22.5248 15.6135 22.5061 15.7144Z" fill="black"/>
<path d="M13.6974 16.9522C13.675 16.9971 13.5628 17.0457 13.4357 17.0644C13.3086 17.0831 12.9198 17.0719 12.6992 17.0457C11.9065 16.941 11.0653 16.698 10.4521 16.3989C10.1081 16.2306 9.86132 16.0624 9.67811 15.8792L9.57343 15.7707L9.56221 15.6287C9.54351 15.3819 9.54725 14.993 9.57716 14.8547C9.59586 14.7388 9.63699 14.6266 9.69307 14.5257C9.72298 14.4883 9.72298 14.4883 9.85758 14.4883C10.0221 14.4883 10.1604 14.5145 10.3848 14.5855C10.8447 14.7276 11.5289 15.0716 12.3627 15.5726C13.0506 15.9838 13.3086 16.1858 13.5068 16.4624C13.6414 16.6344 13.7311 16.8774 13.6974 16.9522Z" fill="black"/>
<path d="M18.991 22.1554C18.991 22.1666 18.9462 22.3461 18.8901 22.5592C18.834 22.7723 18.7891 22.9443 18.7891 22.9518C18.748 22.9555 18.7106 22.9592 18.6695 22.9555H18.5499L18.3853 23.3443C18.2956 23.5575 18.2133 23.7556 18.2021 23.7855L18.1797 23.8379L18.1012 23.7108L18.0227 23.5836V22.548L17.9928 22.5554C17.9292 22.5704 17.4768 22.6302 17.2786 22.6489C16.4598 22.7312 15.6372 22.7125 14.8222 22.5966C14.6913 22.5779 14.5791 22.5629 14.5754 22.5667C14.5716 22.5704 14.5754 22.8097 14.5829 23.1051L14.5941 23.636L14.5305 23.7332C14.4969 23.7855 14.4632 23.8304 14.4632 23.8341C14.452 23.8454 14.4146 23.7855 14.3286 23.6135C14.2351 23.4341 14.1678 23.2434 14.1192 23.0452L14.0931 22.9368L13.9772 22.9443L13.8613 22.9555L13.8313 22.8172C13.8164 22.7424 13.7977 22.6265 13.7902 22.5629L13.779 22.4433L13.6818 22.3573C13.6257 22.3087 13.5696 22.2601 13.5584 22.2526C13.5397 22.2376 13.5322 22.2115 13.5322 22.189V22.1442L13.9996 22.1479L14.467 22.1516L14.4819 22.2002L14.4969 22.2488L14.6576 22.2563C14.7474 22.2601 15.0315 22.2675 15.2858 22.275L15.7531 22.2862L15.8728 22.0993L15.9962 21.9123H16.1532L16.1495 21.5235L16.1457 21.1346L15.9401 21.0449C15.2783 20.7533 14.8895 20.4205 14.7436 20.0167C14.7137 19.9345 14.7137 19.9045 14.7062 19.5307C14.7025 19.1605 14.7025 19.1269 14.7287 19.0446C14.781 18.8576 14.9268 18.7118 15.1138 18.6632C15.1774 18.6445 15.3456 18.6445 16.228 18.6445L17.2674 18.6483L17.3833 18.7044C17.5216 18.7717 17.5852 18.8203 17.6637 18.9249C17.7535 19.0446 17.7796 19.1381 17.7796 19.3661C17.7796 19.6914 17.7572 19.9718 17.7236 20.084C17.6749 20.2373 17.6002 20.3831 17.5067 20.514C17.3197 20.7533 16.9795 20.9926 16.6692 21.101L16.5794 21.1346L16.5832 21.5272L16.5869 21.9198L16.6692 21.9273L16.7514 21.9348L16.8636 22.103L16.972 22.2713H17.473C17.7497 22.2713 17.9928 22.275 18.0152 22.2788C18.0526 22.2862 18.0601 22.2825 18.0974 22.2189L18.1423 22.1516H18.5723C18.8938 22.1367 18.991 22.1442 18.991 22.1554Z" fill="black"/>
<path d="M17.0174 23.2299C16.9464 23.271 16.8978 23.2897 16.8866 23.2823C16.8754 23.2785 16.823 23.2337 16.7669 23.1925L16.666 23.1103L16.5613 23.2224C16.3332 23.4692 16.3257 23.4804 16.2584 23.4842C16.1538 23.4954 16.1313 23.4767 16.0042 23.286C15.9369 23.1888 15.8846 23.1065 15.8846 23.1065C15.8846 23.1065 15.836 23.0991 15.7799 23.0953L15.6752 23.0841L15.6266 23.185L15.578 23.286L15.492 23.2598C15.4247 23.2374 15.3574 23.2112 15.2938 23.1813L15.1816 23.1252V22.9121L16.1762 22.9158L17.1707 22.9196L17.1745 23.0205C17.1782 23.1402 17.182 23.1364 17.0174 23.2299Z" fill="black"/>
<path d="M26.3653 18.6698C26.3616 18.6549 26.3616 18.6287 26.3579 18.5876C25.4605 18.4904 22.8994 18.4306 20.5214 20.3935C20.5214 20.3935 19.7549 16.8789 16.1656 16.8789C12.5762 16.8789 11.2452 20.3935 11.2452 20.3935C9.23363 18.2287 6.54162 18.3857 5.5695 18.5278C5.5695 18.5502 5.56576 18.5764 5.56576 18.5988C5.53585 19.1409 5.5508 19.3989 5.64054 19.7392C5.92095 20.8048 6.78465 21.9788 8.13813 23.1304C10.3553 25.0148 13.3614 26.3757 15.6384 26.5328C18.0126 26.6936 21.516 25.3064 23.849 23.2799C24.2155 22.9546 24.5594 22.6107 24.881 22.2442C25.1128 21.975 25.4568 21.5114 25.4306 21.5114C25.4231 21.5114 25.4306 21.5039 25.4456 21.4965C25.4568 21.489 25.468 21.4778 25.4605 21.4703C25.4568 21.4666 25.4643 21.4553 25.4755 21.4516C25.4867 21.4479 25.4942 21.4404 25.4904 21.4329C25.4867 21.4254 25.4904 21.4179 25.5054 21.4142C25.5166 21.4105 25.5203 21.3993 25.5166 21.3918C25.5129 21.3843 25.5166 21.3768 25.5241 21.3768C25.5316 21.3768 25.539 21.3656 25.539 21.3581C25.539 21.3506 25.5465 21.3394 25.554 21.3394C25.5615 21.3394 25.569 21.332 25.569 21.3245C25.5802 21.2946 25.5989 21.2647 25.6176 21.2385C25.6736 21.1525 25.898 20.7524 25.9279 20.6851C26.141 20.2028 26.2756 19.7728 26.3392 19.3429C26.3616 19.1372 26.3803 18.7596 26.3653 18.6698ZM17.0181 23.2313C16.947 23.2725 16.8984 23.2911 16.8872 23.2837C16.876 23.2799 16.8236 23.2351 16.7675 23.1939L16.6666 23.1117L16.5619 23.2238C16.3338 23.4706 16.3264 23.4818 16.2591 23.4856C16.1544 23.4968 16.1319 23.4781 16.0048 23.2874C15.9375 23.1902 15.8852 23.1079 15.8852 23.1079C15.8852 23.1079 15.8366 23.1005 15.7805 23.0967L15.6758 23.0855L15.6272 23.1865L15.5786 23.2874L15.4926 23.2612C15.4253 23.2388 15.358 23.2126 15.2944 23.1827L15.1822 23.1266V22.9135L16.1768 22.9173L17.1713 22.921L17.1751 23.0219C17.1788 23.1416 17.1826 23.1378 17.0181 23.2313ZM18.8875 22.5583C18.8314 22.7714 18.7866 22.9434 18.7866 22.9509C18.7454 22.9546 18.708 22.9584 18.6669 22.9546H18.5473L18.3865 23.3472C18.2968 23.5603 18.2145 23.7585 18.2033 23.7884L18.1809 23.8408L18.1023 23.7136L18.0238 23.5865V22.5508L17.9939 22.5583C17.9303 22.5733 17.4779 22.6331 17.2798 22.6518C16.461 22.734 15.6384 22.7154 14.8233 22.5994C14.6924 22.5808 14.5803 22.5658 14.5765 22.5695C14.5728 22.5733 14.5765 22.8126 14.584 23.1079L14.5952 23.6389L14.5317 23.7361C14.498 23.7884 14.4644 23.8333 14.4644 23.837C14.4532 23.8482 14.4158 23.7884 14.3298 23.6164C14.2363 23.437 14.169 23.2463 14.1204 23.0481L14.0942 22.9397L13.9783 22.9472L13.8624 22.9584L13.8325 22.82C13.8175 22.7453 13.7988 22.6294 13.7914 22.5658L13.7802 22.4462L13.6829 22.3602C13.6269 22.3115 13.5708 22.2629 13.5596 22.2555C13.5409 22.2405 13.5334 22.2143 13.5334 22.1919V22.147L14.0007 22.1508L14.4681 22.1545L14.4831 22.2031L14.498 22.2517L14.6588 22.2592C14.7485 22.2629 15.0327 22.2704 15.2869 22.2779L15.7543 22.2891L15.8739 22.1022L15.9973 21.9152H16.1544L16.1506 21.5264L16.1469 21.1375L15.9412 21.0478C15.2795 20.7562 14.8906 20.4234 14.7448 20.0196C14.7149 19.9373 14.7149 19.9074 14.7074 19.5335C14.7037 19.1634 14.7037 19.1297 14.7298 19.0475C14.7822 18.8605 14.928 18.7147 15.1149 18.6661C15.1785 18.6474 15.3468 18.6474 16.2291 18.6474L17.2686 18.6512L17.3845 18.7072C17.5228 18.7745 17.5864 18.8231 17.6649 18.9278C17.7546 19.0475 17.7808 19.1409 17.7808 19.369C17.7808 19.6943 17.7584 19.9747 17.7247 20.0869C17.6761 20.2402 17.6013 20.386 17.5079 20.5169C17.3209 20.7562 16.9807 20.9955 16.6703 21.1039L16.5806 21.1375L16.5843 21.5301L16.5881 21.9227L16.6703 21.9302L16.7526 21.9377L16.8648 22.1059L16.9732 22.2742H17.4742C17.7509 22.2742 17.9939 22.2779 18.0163 22.2816C18.0537 22.2891 18.0612 22.2854 18.0986 22.2218L18.1435 22.1545H18.5734C18.9062 22.1545 19.0034 22.1583 19.0034 22.1695C18.9922 22.1657 18.9436 22.3489 18.8875 22.5583Z" fill="white"/>
<path d="M26.3349 18.2876C26.3275 18.1194 26.3125 17.8838 26.3013 17.7679C26.1405 16.0704 25.7068 14.6833 24.8842 13.2139C24.8506 13.1578 24.8207 13.1018 24.802 13.0569C24.7945 13.0457 24.7908 13.0345 24.787 13.027C24.9029 12.6793 25.3778 11.2248 25.7554 9.561C26.2676 7.3027 26.5929 4.66302 25.5984 3.87037C25.5984 3.87037 23.8785 3.74325 21.5753 6.00155C20.9509 6.62595 20.3788 7.3027 19.8703 8.02431L19.7096 7.97196C18.7823 7.66911 17.8214 7.48216 16.853 7.4186C16.5614 7.39617 15.4734 7.39617 15.1182 7.4186C14.0451 7.48964 13.2226 7.65041 12.2878 7.9757C12.2504 7.99066 12.2168 8.00187 12.1831 8.01309C11.656 7.29522 11.0689 6.62221 10.4221 6.00529C8.02547 3.73577 6.24201 3.86663 6.24201 3.86663C5.18763 4.68546 5.54657 7.44477 6.09245 9.77786C6.45139 11.322 6.89258 12.6793 7.05709 13.1691C7.04587 13.1952 7.03092 13.2251 7.01596 13.2513C6.1448 15.0161 5.67369 16.7173 5.56152 18.5269C6.53738 18.3848 9.22566 18.2241 11.2409 20.3926C11.2409 20.3926 12.572 16.8781 16.1613 16.8781C19.7507 16.8781 20.5172 20.3926 20.5172 20.3926C22.8951 18.4297 25.4563 18.4933 26.3536 18.5867C26.3499 18.512 26.3424 18.3998 26.3349 18.2876ZM7.76374 11.7595C7.76374 11.7595 6.36539 8.2636 6.72432 6.26702C6.78415 5.93051 6.89632 5.63514 7.07205 5.4108C7.07205 5.4108 8.65734 5.56784 11.2148 8.40941C11.2148 8.40941 10.7287 8.64497 10.0781 9.14598C10.0781 9.14598 10.0744 9.14972 10.0707 9.14972C9.364 9.69186 8.45918 10.5518 7.76374 11.7595ZM13.6974 16.9528C13.675 16.9977 13.5628 17.0463 13.4357 17.065C13.3086 17.0837 12.9197 17.0725 12.6991 17.0463C11.9065 16.9416 11.0652 16.6986 10.452 16.3995C10.108 16.2312 9.86127 16.063 9.67807 15.8798L9.57338 15.7713L9.56216 15.6293C9.54347 15.3825 9.54721 14.9936 9.57712 14.8553C9.59581 14.7394 9.63694 14.6272 9.69302 14.5263C9.72294 14.4889 9.72294 14.4889 9.85754 14.4889C10.022 14.4889 10.1604 14.5151 10.3847 14.5861C10.8446 14.7282 11.5288 15.0722 12.3626 15.5732C13.0506 15.9845 13.3086 16.1864 13.5067 16.463C13.6413 16.635 13.7311 16.8781 13.6974 16.9528ZM22.5063 15.7153C22.4951 15.7751 22.3193 15.9545 22.1436 16.0854C21.6276 16.463 20.7041 16.8145 19.7657 16.9827C19.231 17.08 18.6963 17.0949 18.5356 17.0164C18.4309 16.9641 18.4159 16.9229 18.4533 16.7883C18.5318 16.5079 18.7861 16.2013 19.1824 15.9134C19.3843 15.7676 20.2031 15.2703 20.5845 15.0609C21.2126 14.717 21.7211 14.5113 22.0651 14.4627C22.1735 14.4478 22.3044 14.444 22.3455 14.4627C22.4128 14.4889 22.4876 14.6871 22.5175 14.9263C22.5325 15.0535 22.525 15.6143 22.5063 15.7153ZM21.8856 9.14598L21.8781 9.14224C21.25 8.64123 20.7789 8.40567 20.7789 8.40567C23.2503 5.5641 24.7795 5.40707 24.7795 5.40707C24.9478 5.63514 25.0562 5.92678 25.116 6.26328C25.4638 8.25986 24.114 11.7595 24.114 11.7595C23.5494 10.7537 22.7904 9.86385 21.8856 9.14598Z" fill="#FFA409"/>
<path d="M25.1192 6.26051C24.8276 6.22312 23.4479 6.21564 21.885 9.14321L21.8776 9.13947C21.2494 8.63846 20.7783 8.40291 20.7783 8.40291C23.2497 5.56133 24.779 5.4043 24.779 5.4043C24.9509 5.63237 25.0594 5.92401 25.1192 6.26051Z" fill="#FF9300"/>
<path d="M24.1169 11.7575C23.5486 10.748 22.7933 9.86191 21.8848 9.14404C23.4476 6.21647 24.8236 6.22394 25.1189 6.26133C25.4666 8.26165 24.1169 11.7575 24.1169 11.7575Z" fill="#FF8300"/>
<path d="M25.1752 6.27294C25.1565 6.2692 25.1378 6.26546 25.1191 6.26172L25.1752 6.27294Z" fill="#FF8300"/>
<path d="M11.2159 8.40291C11.2159 8.40291 10.7298 8.63846 10.0792 9.13947C10.0792 9.13947 10.0755 9.14321 10.0717 9.14321C8.4528 6.2119 7.02827 6.22312 6.72168 6.26051C6.7815 5.92401 6.89367 5.62863 7.0694 5.4043C7.07314 5.4043 8.65844 5.56133 11.2159 8.40291Z" fill="#FF9300"/>
<path d="M10.075 9.14404C9.36461 9.68992 8.45979 10.5461 7.76435 11.7575C7.76435 11.7575 6.366 8.26165 6.72493 6.26133C7.02779 6.22394 8.45605 6.21647 10.075 9.14404Z" fill="#FF8300"/>
<path d="M6.72486 6.26172C6.70617 6.26546 6.68373 6.2692 6.66504 6.27294L6.72486 6.26172Z" fill="#FF8300"/>
<path d="M20.3342 13.6997C20.3342 13.6997 19.1378 13.7745 19.2874 12.8398C19.4369 11.9051 20.3716 11.7929 20.6334 11.8303C20.8951 11.8677 21.942 12.2416 21.755 13.0267C21.5681 13.8119 21.3064 13.6623 21.1568 13.6997C21.0073 13.7371 20.3342 13.6997 20.3342 13.6997Z" fill="white"/>
<path d="M11.511 13.6997C11.511 13.6997 10.3146 13.7745 10.4641 12.8398C10.6137 11.9051 11.5484 11.7929 11.8101 11.8303C12.0718 11.8677 13.1187 12.2416 12.9318 13.0267C12.7448 13.8119 12.4831 13.6623 12.3336 13.6997C12.184 13.7371 11.511 13.6997 11.511 13.6997Z" fill="white"/>
</svg>
