<svg width="32" height="32" viewBox="0 0 32 32" fill="none" xmlns="http://www.w3.org/2000/svg">
<rect width="32" height="32" rx="4" fill="#121212"/>
<path d="M24.9073 20.5235L21.9359 23.628C21.8713 23.6954 21.7931 23.7492 21.7063 23.7859C21.6194 23.8227 21.5257 23.8416 21.4311 23.8416H7.34496C7.27775 23.8416 7.212 23.8224 7.1558 23.7866C7.09959 23.7506 7.05538 23.6995 7.02859 23.6395C7.0018 23.5794 6.9936 23.5131 7.005 23.4485C7.0164 23.384 7.04689 23.3241 7.09275 23.2762L10.0664 20.1717C10.1309 20.1045 10.2088 20.0508 10.2953 20.0141C10.3819 19.9773 10.4753 19.9583 10.5697 19.9581H24.655C24.7222 19.9581 24.788 19.9773 24.8442 20.0132C24.9004 20.0491 24.9446 20.1002 24.9715 20.1603C24.9982 20.2203 25.0064 20.2867 24.995 20.3512C24.9836 20.4157 24.9531 20.4756 24.9073 20.5235ZM21.9359 14.2719C21.8713 14.2044 21.7931 14.1507 21.7063 14.1139C21.6194 14.0772 21.5257 14.0582 21.4311 14.0583H7.34496C7.27775 14.0583 7.212 14.0774 7.1558 14.1133C7.09959 14.1492 7.05538 14.2004 7.02859 14.2604C7.0018 14.3205 6.9936 14.3868 7.005 14.4514C7.0164 14.5159 7.04689 14.5757 7.09275 14.6236L10.0664 17.7282C10.1309 17.7954 10.2088 17.8491 10.2953 17.8858C10.3819 17.9225 10.4753 17.9416 10.5697 17.9417H24.655C24.7222 17.9417 24.788 17.9226 24.8442 17.8867C24.9004 17.8508 24.9446 17.7997 24.9715 17.7396C24.9982 17.6796 25.0064 17.6132 24.995 17.5487C24.9836 17.4842 24.9531 17.4243 24.9073 17.3764L21.9359 14.2719ZM7.34496 12.0419H21.4311C21.5257 12.0419 21.6194 12.023 21.7063 11.9862C21.7931 11.9495 21.8713 11.8957 21.9359 11.8283L24.9073 8.72377C24.9531 8.6759 24.9836 8.61602 24.995 8.55149C25.0064 8.48696 24.9982 8.4206 24.9715 8.36055C24.9446 8.30049 24.9004 8.24938 24.8442 8.21347C24.788 8.17756 24.7222 8.15843 24.655 8.15843H10.5697C10.4753 8.15859 10.3819 8.17763 10.2953 8.21437C10.2088 8.2511 10.1309 8.30476 10.0664 8.37202L7.09351 11.4765C7.04771 11.5244 7.01722 11.5842 7.0058 11.6486C6.99437 11.7131 7.00251 11.7794 7.0292 11.8394C7.0559 11.8995 7.09999 11.9506 7.15608 11.9865C7.21217 12.0225 7.27782 12.0417 7.34496 12.0419Z" fill="url(#paint0_linear_7706_11113)"/>
<defs>
<linearGradient id="paint0_linear_7706_11113" x1="8.51941" y1="24.2154" x2="22.8602" y2="7.62089" gradientUnits="userSpaceOnUse">
<stop offset="0.08" stop-color="#9945FF"/>
<stop offset="0.3" stop-color="#8752F3"/>
<stop offset="0.5" stop-color="#5497D5"/>
<stop offset="0.6" stop-color="#43B4CA"/>
<stop offset="0.72" stop-color="#28E0B9"/>
<stop offset="0.97" stop-color="#19FB9B"/>
</linearGradient>
</defs>
</svg>
