<?xml version="1.0" encoding="UTF-8" standalone="no"?>
<svg
   width="39.412186"
   height="39.412186"
   viewBox="0 0 43.616151 39.412186"
   fill="none"
   version="1.1"
   id="svg11"
   xmlns="http://www.w3.org/2000/svg"
   xmlns:svg="http://www.w3.org/2000/svg">
  <defs
     id="defs11" />
  <circle
     style="fill:#000000;stroke-width:1.2708"
     id="path3"
     cx="21.808075"
     cy="19.815834"
     r="21.808075" />
  <path
     d="m 24.44766,29.40003 c -1.66,0.3987 -3.3945,0.3652 -5.0379,-0.0972 -1.6435,-0.4624 -3.141,-1.3383 -4.3498,-2.5442 -1.60037,-1.5283 -2.62913,-3.5588 -2.91501,-5.7535 -0.28587,-2.1947 0.18837,-4.4211 1.34379,-6.3086 0.75882,-1.2304 1.67302,-2.3578 2.71992,-3.3545 3.3229,-3.3104689 9.4229,-9.3327289 9.4229,-9.3327289 -4.5348,-0.8993681 -9.2416,-0.01955 -13.14565,2.4572099 -3.9040101,2.4767601 -6.7059801,6.36062 -7.8255011,10.847219 -1.119526,4.4865 -0.470821,9.2319 1.811741,13.2531 2.28257,4.0213 6.0240701,7.0103 10.4495101,8.3478 z"
     fill="#ffffff"
     id="path8" />
  <path
     d="m 19.81326,9.9378511 c 1.66,-0.39912 3.3946,-0.36589 5.0381,0.09654 1.6435,0.46242 3.1411,1.338539 4.3496,2.544839 3.2921,3.2928 3.9346,8.1793 1.558,12.0445 -0.7601,1.2308 -1.6741,2.3595 -2.7199,3.3589 -3.3229,3.3061 -9.4229,9.3327 -9.4229,9.3327 4.5389,0.9083 9.2531,0.0332 13.164,-2.4436 3.9108,-2.4769 6.7177,-6.3651 7.838,-10.8574 1.1202,-4.4923 0.4678,-9.2436 -1.822,-13.267399 -2.2897,-4.0237997 -6.0409,-7.0109698 -10.4745,-8.3412997 z"
     fill="#ffffff"
     id="path9" />
</svg>
