<svg width="32" height="32" viewBox="0 0 32 32" fill="none" xmlns="http://www.w3.org/2000/svg">
<g clip-path="url(#clip0_5315_228854)">
<rect width="32" height="32" rx="4" fill="#00D2FF"/>
<path d="M32 0H0V32H32V0Z" fill="black"/>
<path d="M17.2844 21.5232C16.281 21.7606 15.2326 21.7407 14.2392 21.4653C13.2458 21.1898 12.3407 20.668 11.61 19.9496C10.6426 19.039 10.0208 17.8293 9.848 16.5218C9.67521 15.2143 9.96186 13.888 10.6603 12.7635C11.1189 12.0304 11.6715 11.3587 12.3043 10.765C14.3129 8.79273 18 5.20492 18 5.20492C15.259 4.66912 12.4139 5.19328 10.0541 6.66882C7.6943 8.14438 6.00066 10.4582 5.32396 13.1312C4.64725 15.804 5.03937 18.6311 6.41907 21.0268C7.79878 23.4224 10.0603 25.2032 12.7353 26L17.2844 21.5232Z" fill="white"/>
<path d="M14.7227 10.4861C15.7246 10.2483 16.7716 10.2681 17.7636 10.5436C18.7556 10.819 19.6596 11.3408 20.389 12.0592C22.3761 14.0203 22.764 16.9307 21.3294 19.2327C20.8706 19.9657 20.319 20.6381 19.6877 21.2332C17.682 23.2022 14 26.7916 14 26.7916C16.7397 27.3325 19.5853 26.8114 21.9458 25.3363C24.3064 23.861 26.0007 21.5453 26.6768 18.8698C27.3531 16.1942 26.9592 13.3644 25.5772 10.9679C24.1951 8.57142 21.9308 6.79232 19.2547 6L14.7227 10.4861Z" fill="white"/>
</g>
<defs>
<clipPath id="clip0_5315_228854">
<rect width="32" height="32" rx="4" fill="white"/>
</clipPath>
</defs>
</svg>
