<svg width="32" height="32" viewBox="0 0 32 32" fill="none" xmlns="http://www.w3.org/2000/svg">
<rect width="32" height="32" rx="4" fill="url(#paint0_linear_5515_222747)"/>
<path d="M18.4323 18.805C13.9288 20.1159 10.2035 22.0279 7.87151 24.2682L7.76855 24.3676C8.38864 24.9364 9.06861 25.445 9.8036 25.8773L9.96164 25.6901C10.5985 24.9364 11.2809 24.2081 11.9919 23.5214C13.9001 21.6788 16.0836 20.0836 18.4347 18.8027L18.4323 18.805Z" fill="url(#paint1_radial_5515_222747)"/>
<path d="M18.4323 18.805C13.9288 20.1159 10.2035 22.0279 7.87151 24.2682L7.76855 24.3676C8.38864 24.9364 9.06861 25.445 9.8036 25.8773L9.96164 25.6901C10.5985 24.9364 11.2809 24.2081 11.9919 23.5214C13.9001 21.6788 16.0836 20.0836 18.4347 18.8027L18.4323 18.805Z" fill="#F5F5F5"/>
<path d="M4.08594 16.8633C4.2655 19.2007 5.16093 21.3439 6.56633 23.0871L6.63097 23.0247C8.07466 21.6444 9.95412 20.389 12.2214 19.2955C14.2086 18.336 16.4903 17.5129 18.9491 16.8633H4.08594Z" fill="url(#paint2_radial_5515_222747)"/>
<path d="M4.08594 16.8633C4.2655 19.2007 5.16093 21.3439 6.56633 23.0871L6.63097 23.0247C8.07466 21.6444 9.95412 20.389 12.2214 19.2955C14.2086 18.336 16.4903 17.5129 18.9491 16.8633H4.08594Z" fill="#F5F5F5"/>
<path d="M13.2512 7.25737C17.2807 11.1484 22.3516 13.7216 27.9133 14.6973C27.2429 8.92891 22.1768 4.44141 16.0213 4.44141C14.3957 4.44141 12.8466 4.75583 11.4316 5.32226C12.0062 5.99273 12.6192 6.6447 13.2512 7.25737Z" fill="url(#paint3_radial_5515_222747)"/>
<path d="M13.2512 7.25737C17.2807 11.1484 22.3516 13.7216 27.9133 14.6973C27.2429 8.92891 22.1768 4.44141 16.0213 4.44141C14.3957 4.44141 12.8466 4.75583 11.4316 5.32226C12.0062 5.99273 12.6192 6.6447 13.2512 7.25737Z" fill="#F5F5F5"/>
<path d="M7.87151 7.73413C10.2035 9.97675 13.9288 11.8864 18.4323 13.1996C16.0812 11.9165 13.8977 10.3235 11.9895 8.48091C11.2809 7.79655 10.5985 7.06828 9.95925 6.31227L9.80125 6.125C9.06621 6.55734 8.38625 7.06597 7.76855 7.63471L7.87151 7.73413Z" fill="url(#paint4_radial_5515_222747)"/>
<path d="M7.87151 7.73413C10.2035 9.97675 13.9288 11.8864 18.4323 13.1996C16.0812 11.9165 13.8977 10.3235 11.9895 8.48091C11.2809 7.79655 10.5985 7.06828 9.95925 6.31227L9.80125 6.125C9.06621 6.55734 8.38625 7.06597 7.76855 7.63471L7.87151 7.73413Z" fill="#F5F5F5"/>
<path d="M13.2512 24.7449C12.6168 25.3576 12.0039 26.0096 11.4316 26.68C12.8442 27.2465 14.3957 27.5609 16.0213 27.5609C22.1768 27.5609 27.2429 23.0734 27.9157 17.3027C22.354 18.2784 17.2831 20.8516 13.2536 24.7426L13.2512 24.7449Z" fill="url(#paint5_radial_5515_222747)"/>
<path d="M13.2512 24.7449C12.6168 25.3576 12.0039 26.0096 11.4316 26.68C12.8442 27.2465 14.3957 27.5609 16.0213 27.5609C22.1768 27.5609 27.2429 23.0734 27.9157 17.3027C22.354 18.2784 17.2831 20.8516 13.2536 24.7426L13.2512 24.7449Z" fill="#F5F5F5"/>
<path d="M12.2214 12.7057C9.95412 11.6121 8.07466 10.3567 6.63097 8.97649L6.56633 8.91406C5.16093 10.6573 4.2655 12.8005 4.08594 15.1379H18.9467C16.4879 14.4882 14.2086 13.6651 12.219 12.7034L12.2214 12.7057Z" fill="url(#paint6_radial_5515_222747)"/>
<path d="M12.2214 12.7057C9.95412 11.6121 8.07466 10.3567 6.63097 8.97649L6.56633 8.91406C5.16093 10.6573 4.2655 12.8005 4.08594 15.1379H18.9467C16.4879 14.4882 14.2086 13.6651 12.219 12.7034L12.2214 12.7057Z" fill="#F5F5F5"/>
<defs>
<linearGradient id="paint0_linear_5515_222747" x1="0" y1="0" x2="32" y2="0" gradientUnits="userSpaceOnUse">
<stop stop-color="#102D3C"/>
<stop offset="0.161465" stop-color="#214E81"/>
<stop offset="0.363625" stop-color="#506179"/>
<stop offset="0.651499" stop-color="#ED5409"/>
<stop offset="1" stop-color="#FFCB67"/>
</linearGradient>
<radialGradient id="paint1_radial_5515_222747" cx="0" cy="0" r="1" gradientUnits="userSpaceOnUse" gradientTransform="translate(16.001 16.0006) rotate(90) scale(11.5598 11.9147)">
<stop stop-color="#1C294B"/>
<stop offset="0.317213" stop-color="#FF4433"/>
<stop offset="0.597213" stop-color="#FE9A4C"/>
<stop offset="1" stop-color="#E0E0E0"/>
</radialGradient>
<radialGradient id="paint2_radial_5515_222747" cx="0" cy="0" r="1" gradientUnits="userSpaceOnUse" gradientTransform="translate(16.0007 16.0009) rotate(90) scale(11.5598 11.9147)">
<stop stop-color="#1C294B"/>
<stop offset="0.317213" stop-color="#FF4433"/>
<stop offset="0.597213" stop-color="#FE9A4C"/>
<stop offset="1" stop-color="#E0E0E0"/>
</radialGradient>
<radialGradient id="paint3_radial_5515_222747" cx="0" cy="0" r="1" gradientUnits="userSpaceOnUse" gradientTransform="translate(16.001 16.0012) rotate(90) scale(11.5598 11.9147)">
<stop stop-color="#1C294B"/>
<stop offset="0.317213" stop-color="#FF4433"/>
<stop offset="0.597213" stop-color="#FE9A4C"/>
<stop offset="1" stop-color="#E0E0E0"/>
</radialGradient>
<radialGradient id="paint4_radial_5515_222747" cx="0" cy="0" r="1" gradientUnits="userSpaceOnUse" gradientTransform="translate(16.001 16.0017) rotate(90) scale(11.5598 11.9147)">
<stop stop-color="#1C294B"/>
<stop offset="0.317213" stop-color="#FF4433"/>
<stop offset="0.597213" stop-color="#FE9A4C"/>
<stop offset="1" stop-color="#E0E0E0"/>
</radialGradient>
<radialGradient id="paint5_radial_5515_222747" cx="0" cy="0" r="1" gradientUnits="userSpaceOnUse" gradientTransform="translate(16.001 16.0011) rotate(90) scale(11.5598 11.9147)">
<stop stop-color="#1C294B"/>
<stop offset="0.317213" stop-color="#FF4433"/>
<stop offset="0.597213" stop-color="#FE9A4C"/>
<stop offset="1" stop-color="#E0E0E0"/>
</radialGradient>
<radialGradient id="paint6_radial_5515_222747" cx="0" cy="0" r="1" gradientUnits="userSpaceOnUse" gradientTransform="translate(16.0007 16.0002) rotate(90) scale(11.5598 11.9147)">
<stop stop-color="#1C294B"/>
<stop offset="0.317213" stop-color="#FF4433"/>
<stop offset="0.597213" stop-color="#FE9A4C"/>
<stop offset="1" stop-color="#E0E0E0"/>
</radialGradient>
</defs>
</svg>
