<svg width="32" height="32" viewBox="0 0 32 32" fill="none" xmlns="http://www.w3.org/2000/svg">
<path d="M0 4C0 1.79086 1.79086 0 4 0H28C30.2091 0 32 1.79086 32 4V28C32 30.2091 30.2091 32 28 32H4C1.79086 32 0 30.2091 0 28V4Z" fill="url(#paint0_linear_13955_128882)"/>
<path d="M15.9875 16.9177C16.8129 16.4173 17.99 15.725 18.9156 15.725C20.3969 15.725 21.6355 16.7737 21.6355 18.7661C21.6355 21.9445 17.857 24.8748 12.5178 23.5984C12.5001 23.5942 12.4829 23.6076 12.4829 23.6256V25.0548V25.2288V25.3438C12.4829 25.3554 12.4899 25.3657 12.5008 25.3699C13.2369 25.6452 14.0143 25.8361 14.8209 25.9306C21.0766 26.666 26.4814 21.448 25.9659 15.1703C25.818 13.3702 25.209 11.7149 24.2273 10.3146C24.2199 10.304 24.2068 10.2973 24.1885 10.3069L15.9925 15.0443C15.0609 15.5757 13.9896 16.2405 13.0658 16.2405C11.5845 16.2405 10.3459 15.1918 10.3459 13.1994C10.3459 10.0207 14.1248 7.09072 19.464 8.36744C19.4816 8.37168 19.4985 8.35862 19.4985 8.34027V6.64856C19.4985 6.63692 19.4915 6.62633 19.4806 6.62245C18.3962 6.22017 17.224 5.99997 15.9999 5.99997C10.4772 5.99997 6 10.477 6 15.9999C6 18.0949 6.64469 20.0393 7.74598 21.646C7.75445 21.658 7.77068 21.6618 7.78339 21.6544L15.9875 16.9177Z" fill="#E8FBF7"/>
<defs>
<linearGradient id="paint0_linear_13955_128882" x1="19" y1="17.5" x2="10.5" y2="36" gradientUnits="userSpaceOnUse">
<stop offset="0.0689475" stop-color="#02201F"/>
<stop offset="0.971058" stop-color="#064131"/>
</linearGradient>
</defs>
</svg>
