<svg width="32" height="32" viewBox="0 0 32 32" fill="none" xmlns="http://www.w3.org/2000/svg">
<rect width="32" height="32" rx="4" fill="#0C0C4F"/>
<path fill-rule="evenodd" clip-rule="evenodd" d="M10.7799 13.104L11.0901 12.1458C11.1531 11.9509 11.3069 11.7993 11.5025 11.7395L12.4654 11.4433C12.5987 11.4026 12.5998 11.2146 12.4676 11.1717L11.509 10.8616C11.3145 10.7985 11.1628 10.6447 11.1027 10.4491L10.8069 9.48617C10.7662 9.35324 10.5782 9.3518 10.5353 9.48442L10.2252 10.4426C10.1621 10.6371 10.0083 10.7888 9.8127 10.849L8.8498 11.1447C8.71652 11.1857 8.71508 11.3735 8.84764 11.4163L9.80621 11.7264C10.0007 11.7895 10.1524 11.9437 10.2125 12.1393L10.5083 13.1018C10.549 13.2351 10.737 13.2365 10.7799 13.104Z" fill="#FAFAFA"/>
<path fill-rule="evenodd" clip-rule="evenodd" d="M25.9994 12.5464C25.6024 12.1025 24.9829 11.8525 24.3806 11.7501C23.7734 11.6516 23.1369 11.6607 22.5376 11.7672C21.3249 11.9724 20.2232 12.4745 19.2623 13.0939C18.7633 13.398 18.3378 13.7497 17.8969 14.108C17.6845 14.2892 17.4908 14.4822 17.2891 14.6723L16.738 15.2207C16.1391 15.8467 15.5489 16.4168 14.9778 16.8894C14.4044 17.3598 13.8683 17.717 13.34 17.9665C12.812 18.2173 12.247 18.3647 11.5107 18.3883C10.7809 18.4141 9.91729 18.2824 8.99359 18.0649C8.06493 17.8485 7.08975 17.5399 6 17.2744C6.38024 18.3293 6.95284 19.2615 7.68798 20.1136C8.43175 20.9509 9.36048 21.7142 10.5536 22.2161C11.7294 22.7292 13.2071 22.9133 14.5888 22.6354C15.9741 22.3688 17.1898 21.7277 18.1725 20.9864C19.1576 20.2374 19.9547 19.3842 20.6267 18.4973C20.8122 18.2523 20.9103 18.1151 21.0445 17.9236L21.4155 17.374C21.6734 17.034 21.9081 16.647 22.1633 16.3102C22.6636 15.6048 23.1569 14.9003 23.7302 14.2511C24.0187 13.9219 24.3228 13.6069 24.682 13.3043C24.8611 13.1566 25.0547 13.012 25.269 12.8818C25.4866 12.7413 25.7164 12.6314 25.9994 12.5464Z" fill="url(#paint0_linear_7919_12121)"/>
<path fill-rule="evenodd" clip-rule="evenodd" d="M26.0004 12.5461C25.5739 11.47 24.7811 10.5642 23.717 9.89578C22.6593 9.23473 21.1903 8.89736 19.7347 9.18495C19.0156 9.32404 18.3189 9.59179 17.7074 9.94836C17.0988 10.3036 16.5534 10.7311 16.0813 11.1898C15.8456 11.4198 15.6316 11.6599 15.4191 11.9013L14.8682 12.6036L14.0173 13.7342C12.9326 15.1889 11.7645 16.8937 9.84759 17.3988C7.96573 17.8948 7.14953 17.4556 6.00098 17.2741C6.21098 17.8164 6.47113 18.3429 6.82379 18.8061C7.16989 19.2787 7.57868 19.7226 8.08692 20.1031C8.34377 20.2858 8.61493 20.4662 8.91611 20.6191C9.2159 20.7669 9.53922 20.897 9.88431 20.9949C10.5708 21.1831 11.3435 21.249 12.0918 21.1478C12.8404 21.0479 13.556 20.8107 14.1814 20.4956C14.8114 20.1835 15.3603 19.8034 15.8504 19.4022C16.8246 18.5932 17.5824 17.6993 18.2225 16.7956C18.5445 16.3439 18.8367 15.8835 19.107 15.4231L19.4252 14.875C19.5224 14.7147 19.6208 14.5535 19.7207 14.4034C20.1238 13.8001 20.5181 13.3164 20.997 12.9534C21.4692 12.5809 22.1268 12.3057 23.0055 12.2418C23.8806 12.1771 24.8909 12.2966 26.0004 12.5461Z" fill="#FAFAFA"/>
<path fill-rule="evenodd" clip-rule="evenodd" d="M21.2656 21.4869C21.2656 22.2773 21.9067 22.9183 22.697 22.9183C23.4874 22.9183 24.1276 22.2773 24.1276 21.4869C24.1276 20.6966 23.4874 20.0555 22.697 20.0555C21.9067 20.0555 21.2656 20.6966 21.2656 21.4869Z" fill="#EC796B"/>
<defs>
<linearGradient id="paint0_linear_7919_12121" x1="25.8924" y1="12.1688" x2="-6.79146" y2="29.1736" gradientUnits="userSpaceOnUse">
<stop stop-color="#EC796B"/>
<stop offset="1" stop-color="#D672EF"/>
</linearGradient>
</defs>
</svg>
