<svg width="32" height="32" viewBox="0 0 32 32" fill="none" xmlns="http://www.w3.org/2000/svg">
<path d="M0 4C0 1.79086 1.79086 0 4 0H28C30.2091 0 32 1.79086 32 4V28C32 30.2091 30.2091 32 28 32H4C1.79086 32 0 30.2091 0 28V4Z" fill="#0F0F0F"/>
<path d="M26 11.7763V13.4969L25.2723 13.8671C24.7196 14.149 24.3904 14.7347 24.4371 15.3528C24.4532 15.5674 24.4617 15.7846 24.4617 16.0018C24.4606 19.1786 22.6758 22.0865 19.8416 23.5288C17.0075 24.9711 13.6028 24.7041 11.0288 22.8377L12.5231 22.0771L12.6077 22.0324C14.7523 23.2333 17.3735 23.209 19.4954 21.9685C21.6172 20.7281 22.9218 18.4573 22.9233 16.0018C22.9232 15.6977 22.9035 15.394 22.8641 15.0925L11.2234 21.0166L8.8152 22.2419L6 23.6744V21.9495L8.83466 20.507L10.2122 19.8047L26 11.7763ZM12.1563 8.47223C14.9905 7.02894 18.3957 7.29529 20.9704 9.16164L20.7648 9.26643L19.3864 9.96785C17.2424 8.77196 14.6247 8.79905 12.5059 10.0391C10.3872 11.2791 9.08413 13.5467 9.08089 15.9993C9.08102 16.3014 9.1008 16.6031 9.14013 16.9027L20.769 10.987L23.1772 9.76165L26 8.32331V10.049L23.1526 11.4983L21.7751 12.1989L9.51582 18.4373L8.83297 18.7847L8.13996 19.1379L6 20.2272V18.5007L6.72686 18.1306C7.28004 17.8491 7.60972 17.2632 7.56287 16.6449C7.54651 16.4314 7.53833 16.217 7.53833 16.0018C7.538 12.8245 9.32211 9.91551 12.1563 8.47223Z" fill="white"/>
</svg>
