<svg width="32" height="32" viewBox="0 0 32 32" fill="none" xmlns="http://www.w3.org/2000/svg">
<rect width="32" height="32" rx="4" fill="#4DA2FF"/>
<path fill-rule="evenodd" clip-rule="evenodd" d="M20.6973 14.3406C21.5131 15.3649 22.001 16.6603 22.001 18.0694C22.001 19.4785 21.4983 20.8134 20.6611 21.8435L20.5885 21.9325L20.5696 21.8196C20.5531 21.724 20.5342 21.6268 20.5119 21.5296C20.0924 19.687 18.7262 18.1073 16.4774 16.8275C14.9586 15.9656 14.0893 14.9289 13.861 13.7497C13.7135 12.9875 13.8231 12.222 14.0349 11.566C14.2467 10.9109 14.5614 10.3613 14.8293 10.0308L15.7044 8.96121C15.8577 8.77332 16.1453 8.77332 16.2985 8.96121L20.6981 14.3406H20.6973ZM22.0809 13.2718L16.217 6.10259C16.1049 5.9658 15.8956 5.9658 15.7835 6.10259L9.92043 13.2718L9.90149 13.2957C8.82281 14.6348 8.17676 16.3364 8.17676 18.1889C8.17676 22.5027 11.6798 26 16.0002 26C20.3207 26 23.8237 22.5027 23.8237 18.1889C23.8237 16.3364 23.1777 14.6348 22.099 13.2965L22.08 13.2726L22.0809 13.2718ZM11.3238 14.3175L11.8479 13.6756L11.8635 13.7942C11.8759 13.8882 11.8916 13.9821 11.9097 14.0769C12.2492 15.8576 13.4614 17.3418 15.4877 18.4913C17.2495 19.4941 18.2754 20.647 18.5704 21.9111C18.694 22.4385 18.7155 22.9576 18.6619 23.4117L18.6586 23.4397L18.633 23.452C17.8379 23.8401 16.9438 24.0585 15.9994 24.0585C12.6859 24.0585 9.99955 21.3771 9.99955 18.0686C9.99955 16.6479 10.4948 15.3434 11.3221 14.3158L11.3238 14.3175Z" fill="white"/>
</svg>
