<svg width="32" height="32" viewBox="0 0 32 32" fill="none" xmlns="http://www.w3.org/2000/svg">
<rect width="32" height="32" rx="4" fill="#93D0CF"/>
<path d="M18.2309 16.0219H18.0889L18.6038 15.9073C18.5456 15.9348 18.2599 16.0219 18.2309 16.0219ZM18.8055 15.9073H18.6618L18.8055 15.8218C18.6618 15.8218 18.5456 15.8218 18.4311 15.7637C17.8 15.8783 17.1431 15.9073 16.5411 16.0219C16.5121 16.0219 16.4556 16.08 16.4556 16.08C16.4556 16.1075 16.4556 16.1075 16.4831 16.1365C16.7703 16.1365 17.056 16.193 17.3723 16.193C17.6289 16.193 17.9162 16.1075 18.1744 16.08C17.9452 16.2511 17.1431 16.222 16.8268 16.222C16.7123 16.222 16.6267 16.2511 16.5411 16.2801C16.5977 16.4512 16.7978 16.5093 16.8559 16.6803C17.4853 17.3113 18.0598 18.199 18.5166 18.9446C18.5166 19.0301 18.5456 19.1737 18.6038 19.2302V19.3448C18.6038 19.4029 18.6909 19.4884 18.7474 19.5174H18.7764C18.7764 19.5449 18.7474 19.5739 18.7474 19.603C18.7474 19.7176 19.0056 19.8031 19.0056 19.8903C19.0056 19.9177 19.0056 19.9467 18.9765 19.9467C18.7183 19.9177 18.6618 19.7757 18.5456 19.5739C18.289 19.4029 18.2309 19.0301 17.9162 18.8864C17.8597 18.6573 17.7145 18.6863 17.6289 18.4572L17.3723 17.8843C17.4853 17.9133 17.5724 17.9989 17.5724 18.1134C17.7435 18.5153 18.0308 18.7719 18.2309 19.1447C18.3165 19.1737 18.3165 19.2883 18.4311 19.3173C18.2599 18.83 17.9743 18.199 17.5144 17.8843C17.5144 17.7987 17.4853 17.6842 17.3723 17.6842C17.3142 17.6842 17.3142 17.7987 17.3433 17.8262C17.2287 17.6551 17.1722 17.4824 16.9979 17.3679L17.027 17.3113C17.027 17.1677 16.9414 17.0532 16.8268 17.0241C16.7703 16.824 16.5412 17.0241 16.4266 16.7949C16.341 16.5948 16.0812 16.5383 15.9101 16.5383C15.3937 17.3113 13.5038 19.1156 13.2456 19.8903C13.0745 19.9177 12.9583 20.0323 12.7872 20.0323C12.7582 20.0323 12.6436 20.0323 12.6436 19.9758C12.6436 19.9177 12.7582 19.8612 12.7872 19.7757C13.0745 19.3173 15.6245 16.6513 15.6245 16.3076C15.6245 16.222 15.4227 16.1656 15.3372 16.1656C15.25 16.1365 15.1371 16.1075 15.0499 16.1075C14.7933 16.1075 14.5625 16.1656 14.3059 16.1656C13.7039 16.1656 13.0745 16.2801 12.4434 16.2801C12.3289 16.2801 12.387 16.1656 12.2998 16.08C12.4999 16.051 12.6726 15.9073 12.8727 15.9073C12.9293 15.9073 13.0454 15.9348 13.131 15.9929C13.3037 15.9929 13.4747 16.0219 13.6458 16.0219C14.2768 16.0219 15.1645 15.9929 15.7665 15.8492C15.7955 15.8218 15.8246 15.8218 15.8246 15.7928C15.8246 15.7637 15.6809 15.7346 15.71 15.6491C15.71 15.5345 15.0499 14.9616 15.0499 14.789C15.0789 14.789 15.0789 14.7599 15.0789 14.7599C15.0789 14.4468 14.0767 13.272 13.8185 12.9847V12.9557C13.8185 12.7846 13.6748 12.6975 13.6748 12.5554C13.6748 12.4974 13.7604 12.4408 13.8185 12.4408C13.9057 12.4408 13.9621 12.5554 14.0186 12.612C13.9912 12.641 13.9621 12.67 13.9621 12.6975C13.9621 12.8411 14.5916 13.6432 14.6497 13.6432C14.6787 13.6432 14.6787 13.5577 14.7078 13.5577C15.3646 13.9579 15.5389 14.7034 15.9666 15.2763C16.3975 15.2763 17.3433 12.9557 17.8888 12.7555H17.9452C17.4578 13.4721 16.9124 14.1596 16.5121 14.9326L16.5686 14.9907C16.8268 14.8761 16.7703 14.5889 16.8833 14.5033C16.9414 14.4178 17.2287 14.2451 17.2287 14.1596C17.2287 14.1015 17.9452 13.2139 18.0889 12.8992C18.2309 12.7555 18.3165 12.5829 18.4601 12.4118L18.2599 12.4683C18.3165 12.2391 18.8055 11.9535 19.033 11.9825C18.7764 12.4408 18.289 12.6975 18.0889 13.1848C17.8291 13.7303 17.5434 14.045 17.1722 14.5033V14.5324C17.1722 14.6179 16.9979 14.7034 16.9979 14.789C16.8268 15.0762 16.2829 15.3909 16.2829 15.7928C16.3685 15.8218 16.4831 15.8218 16.5686 15.8218C17.3142 15.8218 18.0889 15.6491 18.8329 15.6491C19.0911 15.6491 19.4639 15.6201 19.6931 15.7346C19.4059 15.8492 19.0911 15.8783 18.8055 15.9073Z" fill="white" stroke="white" stroke-width="0.249644" stroke-miterlimit="10"/>
<path d="M20.4827 20.4662C20.5505 20.2484 20.6102 20.0176 20.6684 19.7803C20.7264 19.7045 20.7861 19.6303 20.841 19.5528C20.841 19.9078 20.6538 20.1822 20.4827 20.4662ZM18.722 23.2484C18.6929 23.3921 18.5783 23.4195 18.4638 23.4485C18.5735 23.1403 18.7171 22.8498 18.8559 22.561C19.1335 22.4545 19.382 22.2156 19.6484 22.0752C19.3643 22.4835 19.0577 22.8789 18.722 23.2484ZM20.26 20.3081C20.0857 20.6776 19.871 21.0843 19.6096 21.5862C19.3885 21.6798 19.2804 21.9073 19.1287 22.0704C19.1561 21.9848 19.1852 21.8961 19.2368 21.8444C19.4837 21.2747 19.8694 20.7938 20.26 20.3081ZM17.0597 24.4814C16.8579 24.8526 16.0558 25.3109 15.6846 25.3109C15.2827 25.3109 14.939 24.9397 14.5371 24.9107C14.4516 24.6234 14.1369 24.7671 13.9367 24.6234C13.4493 24.2797 12.7893 23.5922 12.5036 23.0758C12.0162 22.1591 11.5869 20.9568 11.3286 19.9821C11.2141 19.5819 11.2141 17.2596 11.2141 16.7738C11.2141 15.0551 11.156 13.7075 11.8726 12.1308C11.8726 11.7871 12.2179 11.587 12.2179 11.3288V11.2142C12.418 10.985 12.418 10.6139 12.6763 10.4122C12.9329 9.58104 13.7059 9.06622 14.1078 8.29158C14.4225 8.14958 14.5096 7.7187 14.7969 7.51858C15.4264 7.11676 16.0848 6.54547 16.887 6.54547C16.9725 6.60194 17.0597 6.65841 17.1742 6.65841C17.2323 6.65841 17.2598 6.631 17.3179 6.631L17.4325 6.54547C17.5471 6.57288 17.6891 6.68747 17.7472 6.48735C18.2636 6.60194 18.9802 6.34371 19.2949 6.91664C20.4133 7.63317 20.068 9.15175 20.5263 10.183C20.6135 11.0996 20.699 12.0163 20.7264 12.962C20.7555 14.2514 20.9265 15.5409 20.9265 16.8593C20.9265 17.9212 20.8539 18.6023 20.6764 19.2284C20.5618 19.4479 20.4424 19.6625 20.3262 19.8966C20.0115 20.0676 19.9534 20.5259 19.6096 20.6405C19.3901 21.0585 19.1238 21.6459 18.8204 22.2398C18.814 22.2414 18.8124 22.2447 18.8075 22.2447C18.7704 22.2156 18.7623 22.172 18.7414 22.1365C18.6639 22.2301 18.588 22.3237 18.4993 22.4076C18.5428 22.469 18.5848 22.5335 18.6364 22.5835C18.1813 23.4243 17.652 24.2151 17.0597 24.4814ZM14.968 25.7692C14.0804 25.7692 13.0781 25.4545 12.5617 24.7089C12.1598 24.1941 11.6159 23.7068 11.3577 23.0758C11.0995 22.7901 10.2393 19.3511 10.2393 18.8363C10.2393 18.8072 10.2393 18.6926 10.3264 18.6926C10.6702 18.6926 11.2996 20.5259 11.3577 20.7841C11.6159 21.6443 12.1017 22.561 12.5036 23.363C12.7328 23.7648 13.0491 24.0505 13.2783 24.4524C13.5639 24.5379 13.7059 24.8526 14.0223 24.9107C14.1659 25.1689 14.4516 25.1963 14.6242 25.3981C14.7388 25.3981 15.0536 25.4836 15.0536 25.6272C15.0536 25.6837 15.0536 25.7692 14.968 25.7692ZM21.7868 17.0595C21.6431 17.174 21.3865 17.3467 21.4156 17.5759V17.6614C21.1864 18.0052 21.1574 18.407 20.9265 18.7507C20.904 18.7862 20.8894 18.8266 20.8685 18.8621C21.2219 16.9303 21.3301 14.7114 21.3301 13.4494C21.3301 12.2745 20.9265 11.1287 20.8136 9.95381C20.7555 9.03716 20.7264 8.0334 20.1244 7.28941C19.5241 6.60194 18.6929 6.08553 17.7472 6.08553C17.6035 6.08553 17.4615 6.08553 17.3179 6.11454C17.2033 6.02901 17.0597 6 16.916 6C16.4867 6 16.1413 6.31465 15.7411 6.31465C15.6281 6.31465 15.5135 6.28724 15.4264 6.25818L15.2827 6.40183L15.7992 6.42924C15.8282 6.48735 15.8847 6.54547 15.8847 6.60194C15.8847 6.773 15.3973 6.71653 15.3392 7.00377C14.4225 7.48952 13.4493 8.6644 12.9038 9.52457C12.5891 10.0394 12.3034 10.6704 12.0162 11.2142C11.9871 11.2433 11.787 11.6726 11.7305 11.6726C11.7305 11.8743 11.6724 12.0453 11.645 12.218C11.4158 12.4472 11.5578 12.8764 11.3286 13.1056C10.9849 14.1933 10.6992 15.5409 10.6992 16.6592C10.6992 16.7448 10.6411 16.7738 10.5556 16.8012C10.5265 16.543 10.4394 16.2574 10.4685 15.9718V15.7991C10.5847 13.2202 10.6411 11.0432 12.1598 8.80804C13.3057 7.11676 14.7679 6.85852 15.1972 6.34371C15.1116 6.34371 15.0536 6.31465 14.968 6.31465C14.7388 6.31465 14.5096 6.42924 14.3951 6.631C12.7618 7.17482 11.9597 8.6644 11.2706 10.0975C11.156 10.2702 11.0139 10.3831 10.9849 10.6139C10.8703 11.1287 10.7848 11.6161 10.5847 12.1308C10.5265 12.3326 10.4119 12.6473 10.4119 12.8474C10.4119 13.0201 10.4975 13.1911 10.4975 13.3638C10.4975 13.593 10.4685 13.7931 10.4119 14.0222C10.0972 15.5989 10.0117 17.3177 10.0117 18.9218C10.0117 20.2113 10.5847 21.357 10.9849 22.5319C11.4158 23.7923 12.3325 24.8251 13.3057 25.6837L14.0223 25.7983C14.1949 25.9419 14.3951 26 14.6242 26C14.939 26 15.2537 25.8838 15.57 25.9129H15.6846C16.0848 25.6562 16.7724 25.4836 17.0887 25.1398C17.1742 25.0818 17.2323 24.8816 17.3469 24.8816C17.3744 24.8816 17.4034 24.8816 17.4325 24.9107C18.0345 24.2506 18.7801 23.7068 19.3223 23.0193C19.6096 22.6755 19.7823 22.2447 20.0389 21.8735C20.1244 21.7589 20.1244 21.5862 20.2681 21.5007C20.6135 20.6405 21.9885 17.8906 21.9885 17.1466V17.0595H21.7868Z" fill="white"/>
<path d="M20.4827 20.4662C20.5505 20.2484 20.6102 20.0176 20.6684 19.7803C20.7264 19.7045 20.7861 19.6303 20.841 19.5528C20.841 19.9078 20.6538 20.1822 20.4827 20.4662ZM18.722 23.2484C18.6929 23.3921 18.5783 23.4195 18.4638 23.4485C18.5735 23.1403 18.7171 22.8498 18.8559 22.561C19.1335 22.4545 19.382 22.2156 19.6484 22.0752C19.3643 22.4835 19.0577 22.8789 18.722 23.2484ZM20.26 20.3081C20.0857 20.6776 19.871 21.0843 19.6096 21.5862C19.3885 21.6798 19.2804 21.9073 19.1287 22.0704C19.1561 21.9848 19.1852 21.8961 19.2368 21.8444C19.4837 21.2747 19.8694 20.7938 20.26 20.3081ZM17.0597 24.4814C16.8579 24.8526 16.0558 25.3109 15.6846 25.3109C15.2827 25.3109 14.939 24.9397 14.5371 24.9107C14.4516 24.6234 14.1369 24.7671 13.9367 24.6234C13.4493 24.2797 12.7893 23.5922 12.5036 23.0758C12.0162 22.1591 11.5869 20.9568 11.3286 19.9821C11.2141 19.5819 11.2141 17.2596 11.2141 16.7738C11.2141 15.0551 11.156 13.7075 11.8726 12.1308C11.8726 11.7871 12.2179 11.587 12.2179 11.3288V11.2142C12.418 10.985 12.418 10.6139 12.6763 10.4122C12.9329 9.58104 13.7059 9.06622 14.1078 8.29158C14.4225 8.14958 14.5096 7.7187 14.7969 7.51858C15.4264 7.11676 16.0848 6.54547 16.887 6.54547C16.9725 6.60194 17.0597 6.65841 17.1742 6.65841C17.2323 6.65841 17.2598 6.631 17.3179 6.631L17.4325 6.54547C17.5471 6.57288 17.6891 6.68747 17.7472 6.48735C18.2636 6.60194 18.9802 6.34371 19.2949 6.91664C20.4133 7.63317 20.068 9.15175 20.5263 10.183C20.6135 11.0996 20.699 12.0163 20.7264 12.962C20.7555 14.2514 20.9265 15.5409 20.9265 16.8593C20.9265 17.9212 20.8539 18.6023 20.6764 19.2284C20.5618 19.4479 20.4424 19.6625 20.3262 19.8966C20.0115 20.0676 19.9534 20.5259 19.6096 20.6405C19.3901 21.0585 19.1238 21.6459 18.8204 22.2398C18.814 22.2414 18.8124 22.2447 18.8075 22.2447C18.7704 22.2156 18.7623 22.172 18.7414 22.1365C18.6639 22.2301 18.588 22.3237 18.4993 22.4076C18.5428 22.469 18.5848 22.5335 18.6364 22.5835C18.1813 23.4243 17.652 24.2151 17.0597 24.4814ZM14.968 25.7692C14.0804 25.7692 13.0781 25.4545 12.5617 24.7089C12.1598 24.1941 11.6159 23.7068 11.3577 23.0758C11.0995 22.7901 10.2393 19.3511 10.2393 18.8363C10.2393 18.8072 10.2393 18.6926 10.3264 18.6926C10.6702 18.6926 11.2996 20.5259 11.3577 20.7841C11.6159 21.6443 12.1017 22.561 12.5036 23.363C12.7328 23.7648 13.0491 24.0505 13.2783 24.4524C13.5639 24.5379 13.7059 24.8526 14.0223 24.9107C14.1659 25.1689 14.4516 25.1963 14.6242 25.3981C14.7388 25.3981 15.0536 25.4836 15.0536 25.6272C15.0536 25.6837 15.0536 25.7692 14.968 25.7692ZM21.7868 17.0595C21.6431 17.174 21.3865 17.3467 21.4156 17.5759V17.6614C21.1864 18.0052 21.1574 18.407 20.9265 18.7507C20.904 18.7862 20.8894 18.8266 20.8685 18.8621C21.2219 16.9303 21.3301 14.7114 21.3301 13.4494C21.3301 12.2745 20.9265 11.1287 20.8136 9.95381C20.7555 9.03716 20.7264 8.0334 20.1244 7.28941C19.5241 6.60194 18.6929 6.08553 17.7472 6.08553C17.6035 6.08553 17.4615 6.08553 17.3179 6.11454C17.2033 6.02901 17.0597 6 16.916 6C16.4867 6 16.1413 6.31465 15.7411 6.31465C15.6281 6.31465 15.5135 6.28724 15.4264 6.25818L15.2827 6.40183L15.7992 6.42924C15.8282 6.48735 15.8847 6.54547 15.8847 6.60194C15.8847 6.773 15.3973 6.71653 15.3392 7.00377C14.4225 7.48952 13.4493 8.6644 12.9038 9.52457C12.5891 10.0394 12.3034 10.6704 12.0162 11.2142C11.9871 11.2433 11.787 11.6726 11.7305 11.6726C11.7305 11.8743 11.6724 12.0453 11.645 12.218C11.4158 12.4472 11.5578 12.8764 11.3286 13.1056C10.9849 14.1933 10.6992 15.5409 10.6992 16.6592C10.6992 16.7448 10.6411 16.7738 10.5556 16.8012C10.5265 16.543 10.4394 16.2574 10.4685 15.9718V15.7991C10.5847 13.2202 10.6411 11.0432 12.1598 8.80804C13.3057 7.11676 14.7679 6.85852 15.1972 6.34371C15.1116 6.34371 15.0536 6.31465 14.968 6.31465C14.7388 6.31465 14.5096 6.42924 14.3951 6.631C12.7618 7.17482 11.9597 8.6644 11.2706 10.0975C11.156 10.2702 11.0139 10.3831 10.9849 10.6139C10.8703 11.1287 10.7848 11.6161 10.5847 12.1308C10.5265 12.3326 10.4119 12.6473 10.4119 12.8474C10.4119 13.0201 10.4975 13.1911 10.4975 13.3638C10.4975 13.593 10.4685 13.7931 10.4119 14.0222C10.0972 15.5989 10.0117 17.3177 10.0117 18.9218C10.0117 20.2113 10.5847 21.357 10.9849 22.5319C11.4158 23.7923 12.3325 24.8251 13.3057 25.6837L14.0223 25.7983C14.1949 25.9419 14.3951 26 14.6242 26C14.939 26 15.2537 25.8838 15.57 25.9129H15.6846C16.0848 25.6562 16.7724 25.4836 17.0887 25.1398C17.1742 25.0818 17.2323 24.8816 17.3469 24.8816C17.3744 24.8816 17.4034 24.8816 17.4325 24.9107C18.0345 24.2506 18.7801 23.7068 19.3223 23.0193C19.6096 22.6755 19.7823 22.2447 20.0389 21.8735C20.1244 21.7589 20.1244 21.5862 20.2681 21.5007C20.6135 20.6405 21.9885 17.8906 21.9885 17.1466V17.0595H21.7868Z" stroke="white" stroke-width="0.249644" stroke-miterlimit="10"/>
<path d="M15.8247 25.5159C15.7956 25.5159 15.7666 25.5449 15.7666 25.5739H15.8247C15.8247 25.5449 15.8247 25.5449 15.8521 25.5449C15.8521 25.5159 15.8521 25.5159 15.8247 25.5159Z" fill="white"/>
<path d="M15.8252 25.5159V25.5739" stroke="white" stroke-width="0.249644" stroke-miterlimit="10"/>
</svg>
