<svg width="32" height="32" viewBox="0 0 32 32" fill="none" xmlns="http://www.w3.org/2000/svg">
<rect width="32" height="32" rx="4" fill="#E81899"/>
<path d="M24.6218 19.9589L21.5374 15.7683C21.2023 15.3129 20.7061 15.0401 20.1777 14.98C20.0574 14.966 19.95 14.8962 19.8899 14.791C19.8287 14.6857 19.8222 14.5579 19.8706 14.4462C20.0821 13.9586 20.095 13.3926 19.8673 12.875L17.7806 8.10876C17.4713 7.40102 16.7722 6.94458 16 6.94458C15.2278 6.94458 14.5287 7.40209 14.2193 8.10876L12.1326 12.875C11.906 13.3926 11.9178 13.9586 12.1294 14.4462C12.1777 14.5579 12.1702 14.6857 12.1101 14.791C12.0489 14.8962 11.9426 14.966 11.8223 14.98C11.2939 15.0401 10.7977 15.3129 10.4626 15.7683L7.37822 19.9589C6.92071 20.5807 6.87453 21.414 7.26008 22.0832C7.64671 22.7512 8.39203 23.1281 9.15884 23.0433L14.33 22.4676C14.8917 22.4054 15.376 22.1121 15.6918 21.6847C15.7637 21.587 15.8786 21.529 16 21.529C16.1214 21.529 16.2352 21.587 16.3082 21.6847C16.624 22.1121 17.1083 22.4054 17.67 22.4676L22.8411 23.0433C23.6079 23.1292 24.3532 22.7523 24.7399 22.0832C25.1255 21.414 25.0792 20.5807 24.6218 19.9589ZM13.4815 13.4732L15.5715 8.70158C15.6467 8.53082 15.8153 8.42021 16.0011 8.42021C16.1869 8.42021 16.3555 8.53082 16.4306 8.70158L18.5206 13.4732C18.5861 13.6236 18.5721 13.7975 18.4819 13.935C18.3917 14.0725 18.2392 14.1552 18.0738 14.1552H13.9272C13.7629 14.1552 13.6093 14.0725 13.5191 13.935C13.4289 13.7975 13.416 13.6236 13.4815 13.4732ZM14.5544 20.7375C14.4803 20.8846 14.3364 20.9834 14.1732 21.0016L8.99667 21.5773C8.81195 21.5977 8.63153 21.5076 8.53809 21.3464C8.44465 21.1853 8.45647 20.9846 8.5671 20.8341L11.6547 16.6392C11.7525 16.5071 11.9093 16.432 12.0736 16.4416C12.2379 16.4502 12.3861 16.5415 12.4688 16.6843L12.472 16.6897L14.5394 20.2703L14.5426 20.2757C14.6253 20.4185 14.6296 20.5925 14.5555 20.7385L14.5544 20.7375ZM16.4253 19.118C16.3372 19.2694 16.1761 19.3639 16 19.3639C15.8249 19.3639 15.6628 19.2705 15.5747 19.119L13.9863 16.3686C13.8982 16.2172 13.8982 16.0292 13.9863 15.8778C14.0744 15.7264 14.2355 15.6319 14.4116 15.6319H17.5873C17.7624 15.6319 17.9245 15.7242 18.0126 15.8767C18.1007 16.0292 18.1007 16.2161 18.0126 16.3675L16.4253 19.118ZM23.4629 21.3464C23.3695 21.5076 23.1902 21.5989 23.0044 21.5785L17.8279 21.0027C17.6646 20.9846 17.5207 20.8857 17.4466 20.7385C17.3725 20.5914 17.3768 20.4175 17.4595 20.2757L17.4627 20.2703L19.5301 16.6897L19.5333 16.6843C19.616 16.5415 19.7642 16.4502 19.9285 16.4416C20.0929 16.433 20.2496 16.5071 20.3473 16.6392L23.435 20.8341C23.5457 20.9846 23.5552 21.1853 23.4629 21.3464Z" fill="#FAFAFA"/>
</svg>
