<svg width="32" height="32" viewBox="0 0 32 32" fill="none" xmlns="http://www.w3.org/2000/svg">
<path d="M0 4C0 1.79086 1.79086 0 4 0H28C30.2091 0 32 1.79086 32 4V28C32 30.2091 30.2091 32 28 32H4C1.79086 32 0 30.2091 0 28V4Z" fill="#121212"/>
<path d="M11.3747 9.39979C11.4318 9.39953 11.4889 9.39926 11.5478 9.39899C11.7392 9.39841 11.9305 9.39955 12.122 9.40068C12.2592 9.40062 12.3964 9.40045 12.5336 9.40018C12.9062 9.39977 13.2788 9.40086 13.6514 9.40224C14.0408 9.40345 14.4303 9.40336 14.8198 9.40342C15.4735 9.40372 16.1273 9.40492 16.7811 9.40674C17.6214 9.40907 18.4617 9.4099 19.302 9.41026C20.0233 9.41058 20.7446 9.41158 21.4659 9.4127C21.6984 9.41303 21.9308 9.41327 22.1633 9.41349C22.5278 9.41388 22.8923 9.4147 23.2568 9.41586C23.3909 9.41623 23.5251 9.41645 23.6592 9.41654C23.8415 9.41668 24.0238 9.41731 24.2062 9.41808C24.3596 9.41844 24.3596 9.41844 24.5161 9.41881C24.7427 9.42939 24.7427 9.42939 24.8233 9.50994C24.8718 9.95666 24.7635 10.2779 24.6027 10.6927C24.4843 11.004 24.3788 11.3183 24.2745 11.6345C24.2545 11.6948 24.2345 11.7551 24.2138 11.8172C24.123 12.0911 24.0324 12.3651 23.9422 12.6393C23.8652 12.8733 23.788 13.1072 23.7107 13.3411C23.6863 13.4155 23.662 13.4898 23.6369 13.5664C23.6142 13.635 23.5915 13.7037 23.5681 13.7744C23.548 13.8356 23.5279 13.8968 23.5071 13.9599C23.4539 14.1013 23.4539 14.1013 23.3734 14.1819C23.2366 14.1901 23.0996 14.1928 22.9626 14.1933C22.8312 14.1942 22.8312 14.1942 22.697 14.195C22.5538 14.1955 22.5538 14.1955 22.4077 14.196C22.2075 14.1979 22.0073 14.1999 21.8072 14.2019C21.49 14.2047 21.1729 14.2071 20.8558 14.2081C20.5508 14.2094 20.2458 14.2126 19.9408 14.2162C19.7983 14.216 19.7983 14.216 19.653 14.2157C19.5646 14.217 19.4761 14.2184 19.3851 14.2197C19.2684 14.2205 19.2684 14.2205 19.1495 14.2212C18.8817 14.2747 18.7894 14.3735 18.6209 14.5846C18.541 14.7296 18.541 14.7296 18.4933 14.8843C18.4634 14.9707 18.4634 14.9707 18.433 15.0589C18.4127 15.1207 18.3925 15.1824 18.3717 15.246C18.3496 15.3108 18.3276 15.3757 18.3049 15.4424C18.2585 15.5797 18.2124 15.7172 18.1669 15.8548C18.0983 16.0615 18.0286 16.2679 17.9585 16.4741C17.7606 17.0603 17.5697 17.6463 17.405 18.2428C17.2828 18.6826 17.1286 19.1001 16.9605 19.5241C16.7202 20.1611 16.5221 20.8133 16.3151 21.4617C16.2237 21.7477 16.132 22.0336 16.0401 22.3194C16.0197 22.3837 15.9993 22.448 15.9783 22.5142C15.6588 23.5074 15.6588 23.5074 15.3988 23.7674C15.2021 23.7868 15.2021 23.7868 14.9517 23.7857C14.8114 23.7857 14.8114 23.7857 14.6683 23.7857C14.5669 23.7848 14.4655 23.784 14.3611 23.7832C14.2576 23.7829 14.1542 23.7827 14.0476 23.7825C13.7724 23.7819 13.4972 23.7803 13.222 23.7785C12.9413 23.7768 12.6605 23.7761 12.3798 23.7753C11.8288 23.7736 11.2778 23.7708 10.7269 23.7674C10.6265 23.3635 10.7135 23.0886 10.8524 22.7061C10.8979 22.5758 10.9433 22.4455 10.9886 22.3151C11.0121 22.2486 11.0357 22.1822 11.0599 22.1137C11.1684 21.8041 11.2711 21.4927 11.3741 21.1813C11.4147 21.0594 11.4554 20.9374 11.4961 20.8155C11.5162 20.7552 11.5362 20.6949 11.557 20.6328C11.7409 20.0811 11.7409 20.0811 11.8019 19.8979C11.842 19.7777 11.8821 19.6574 11.9221 19.5372C12.0174 19.2513 12.1128 18.9655 12.2085 18.6797C12.3796 18.1687 12.5481 17.6575 12.7054 17.1421C12.8176 16.7779 12.9351 16.417 13.0679 16.0597C13.1887 15.7328 13.3027 15.4045 13.4102 15.073C13.4521 14.9448 13.4521 14.9448 13.4949 14.814C13.5677 14.5686 13.5677 14.5686 13.4656 14.2624C12.0568 14.2359 10.6479 14.2093 9.19642 14.1819C9.08798 13.8566 9.17748 13.7124 9.29208 13.3915C9.47012 12.8838 9.62246 12.3758 9.76091 11.8557C9.84083 11.6043 9.84083 11.6043 9.95882 11.3765C10.1431 10.9958 10.2282 10.5943 10.3255 10.1841C10.3416 10.1216 10.3576 10.0592 10.3742 9.99482C10.3878 9.93842 10.4015 9.88202 10.4155 9.82391C10.6085 9.40076 10.9524 9.3993 11.3747 9.39979Z" fill="#FEFEFE"/>
</svg>
