<svg width="32" height="32" viewBox="0 0 32 32" fill="none" xmlns="http://www.w3.org/2000/svg">
<rect width="32" height="32" rx="4" fill="#FDF5E0"/>
<path d="M5.50195 11.1564V20.8469C5.50195 22.4511 6.35582 23.9308 7.73655 24.728L14.1012 28.4149C15.1235 29.0078 16.3784 29.0078 17.4023 28.4149L23.767 24.728C25.1464 23.9259 25.9999 22.4462 25.9999 20.8469V11.1564C25.9999 9.55204 25.1464 8.07235 23.767 7.27517L17.4023 3.58334C16.3784 2.99045 15.1235 2.99045 14.1012 3.58334L7.73655 7.27026C6.35582 8.07235 5.50195 9.55204 5.50195 11.1564Z" fill="#DC2626"/>
<path d="M23.5232 15.7467L21.1854 14.9497C20.3269 14.6556 19.6864 13.9282 19.5078 13.0365L18.5183 8.14381C18.4937 8.0193 18.3856 7.92969 18.2561 7.92969C18.1267 7.92969 18.017 8.0193 17.9924 8.14381L17.0045 13.0365C16.8259 13.9282 16.1854 14.6556 15.3269 14.9497L12.9891 15.7467C12.8794 15.7816 12.8105 15.8863 12.8105 16.0008C12.8105 16.1155 12.8843 16.2151 12.9891 16.2549L15.3269 17.052C16.1854 17.3461 16.8259 18.0735 17.0045 18.9652L17.9924 23.8579C18.017 23.9824 18.1267 24.072 18.2561 24.072C18.3856 24.072 18.4937 23.9824 18.5183 23.8579L19.5078 18.9652C19.6864 18.0735 20.3269 17.3461 21.1854 17.052L23.5232 16.2549C23.6329 16.2201 23.7017 16.1155 23.7017 16.0008C23.7017 15.8863 23.628 15.7867 23.5232 15.7467Z" fill="#FFFDF7"/>
<path d="M10.9428 11.2559L11.7668 11.5349C12.0699 11.6396 12.2993 11.8936 12.3583 12.2125L12.7056 13.9414C12.7154 13.9861 12.7547 14.0161 12.8006 14.0161C12.8448 14.0161 12.8841 13.9861 12.894 13.9414L13.2413 12.2125C13.3068 11.8986 13.5296 11.6396 13.8376 11.5349L14.6617 11.2559C14.701 11.241 14.7256 11.2061 14.7256 11.1662C14.7256 11.1264 14.701 11.0915 14.6617 11.0766L13.8376 10.7976C13.5345 10.6929 13.3068 10.4388 13.2413 10.12L12.894 8.39111C12.8841 8.34622 12.8448 8.31641 12.8006 8.31641C12.7547 8.31641 12.7154 8.34622 12.7056 8.39111L12.3583 10.12C12.2944 10.4339 12.0699 10.6929 11.7668 10.7976L10.9428 11.0766C10.9035 11.0915 10.8789 11.1264 10.8789 11.1662C10.8789 11.2061 10.9035 11.241 10.9428 11.2559Z" fill="#FFFDF7"/>
<path d="M12.8696 19.7475L11.7621 19.3738C11.3558 19.2344 11.0527 18.8906 10.9676 18.4671L10.5023 16.1504C10.4908 16.0906 10.4368 16.0508 10.3778 16.0508C10.3172 16.0508 10.2631 16.0906 10.2533 16.1504L9.78636 18.4671C9.70281 18.8906 9.39973 19.2344 8.9918 19.3738L7.88597 19.7475C7.83518 19.7624 7.80078 19.8124 7.80078 19.8671C7.80078 19.922 7.83518 19.9718 7.88597 19.9867L8.9918 20.3604C9.39973 20.4998 9.70281 20.8437 9.78636 21.2672L10.2533 23.5839C10.2631 23.6437 10.3172 23.6835 10.3778 23.6835C10.4368 23.6835 10.4859 23.6387 10.5023 23.5839L10.9676 21.2672C11.0527 20.8437 11.3558 20.4998 11.7621 20.3604L12.8696 19.9867C12.9187 19.9718 12.9548 19.922 12.9548 19.8671C12.9548 19.8124 12.9187 19.7624 12.8696 19.7475Z" fill="#FFFDF7"/>
</svg>