<svg width="32" height="32" viewBox="0 0 32 32" fill="none" xmlns="http://www.w3.org/2000/svg">
<rect width="32" height="32" rx="4" fill="#101827"/>
<path d="M8.03027 12.2344V19.7695C8.03027 21.0169 8.69422 22.1674 9.76785 22.7873L14.7169 25.6542C15.5118 26.1152 16.4876 26.1152 17.2837 25.6542L22.2328 22.7873C23.3054 22.1636 23.9691 21.0131 23.9691 19.7695V12.2344C23.9691 10.9868 23.3054 9.83627 22.2328 9.2164L17.2837 6.34571C16.4876 5.88469 15.5118 5.88469 14.7169 6.34571L9.76785 9.21258C8.69422 9.83627 8.03027 10.9868 8.03027 12.2344Z" fill="#DC2626"/>
<path d="M22.0438 15.8027L20.2259 15.1829C19.5584 14.9542 19.0603 14.3886 18.9215 13.6953L18.1521 9.89082C18.133 9.79401 18.0489 9.72433 17.9482 9.72433C17.8476 9.72433 17.7623 9.79401 17.7432 9.89082L16.975 13.6953C16.8362 14.3886 16.3381 14.9542 15.6705 15.1829L13.8527 15.8027C13.7674 15.8298 13.7139 15.9112 13.7139 16.0002C13.7139 16.0894 13.7712 16.1669 13.8527 16.1978L15.6705 16.8177C16.3381 17.0463 16.8362 17.6119 16.975 18.3053L17.7432 22.1098C17.7623 22.2066 17.8476 22.2763 17.9482 22.2763C18.0489 22.2763 18.133 22.2066 18.1521 22.1098L18.9215 18.3053C19.0603 17.6119 19.5584 17.0463 20.2259 16.8177L22.0438 16.1978C22.1291 16.1708 22.1826 16.0894 22.1826 16.0002C22.1826 15.9112 22.1253 15.8337 22.0438 15.8027Z" fill="#FFFDF7"/>
<path d="M12.2616 12.3116L12.9024 12.5285C13.138 12.6099 13.3164 12.8074 13.3622 13.0554L13.6323 14.3997C13.6399 14.4345 13.6705 14.4578 13.7062 14.4578C13.7406 14.4578 13.7711 14.4345 13.7788 14.3997L14.0489 13.0554C14.0998 12.8113 14.2731 12.6099 14.5125 12.5285L15.1533 12.3116C15.1839 12.3 15.203 12.2728 15.203 12.2418C15.203 12.2108 15.1839 12.1837 15.1533 12.1721L14.5125 11.9551C14.2769 11.8737 14.0998 11.6762 14.0489 11.4283L13.7788 10.0839C13.7711 10.049 13.7406 10.0258 13.7062 10.0258C13.6705 10.0258 13.6399 10.049 13.6323 10.0839L13.3622 11.4283C13.3125 11.6723 13.138 11.8737 12.9024 11.9551L12.2616 12.1721C12.231 12.1837 12.2119 12.2108 12.2119 12.2418C12.2119 12.2728 12.231 12.3 12.2616 12.3116Z" fill="#FFFDF7"/>
<path d="M13.7597 18.9136L12.8986 18.623C12.5827 18.5146 12.347 18.2472 12.2808 17.9179L11.919 16.1165C11.9101 16.07 11.868 16.039 11.8222 16.039C11.775 16.039 11.733 16.07 11.7254 16.1165L11.3623 17.9179C11.2973 18.2472 11.0617 18.5146 10.7445 18.623L9.8846 18.9136C9.84511 18.9251 9.81836 18.964 9.81836 19.0065C9.81836 19.0492 9.84511 19.0879 9.8846 19.0995L10.7445 19.3901C11.0617 19.4985 11.2973 19.7659 11.3623 20.0952L11.7254 21.8966C11.733 21.9431 11.775 21.9741 11.8222 21.9741C11.868 21.9741 11.9063 21.9393 11.919 21.8966L12.2808 20.0952C12.347 19.7659 12.5827 19.4985 12.8986 19.3901L13.7597 19.0995C13.798 19.0879 13.826 19.0492 13.826 19.0065C13.826 18.964 13.798 18.9251 13.7597 18.9136Z" fill="#FFFDF7"/>
</svg>
