<svg width="32" height="32" viewBox="0 0 32 32" fill="none" xmlns="http://www.w3.org/2000/svg">
<rect width="32" height="32" rx="4" fill="#F2F3FE"/>
<path d="M16 4.75C9.78774 4.75 4.75 9.78773 4.75 16C4.75 16.6728 4.813 17.3298 4.9255 17.9688H7.423C7.7425 17.9688 7.93375 17.8653 8.0575 17.665L8.935 16.2115L10.0577 19.6967C10.168 20.0478 10.429 20.23 10.78 20.2322C11.14 20.2345 11.437 20.014 11.5067 19.654L12.3213 15.8155L13.2078 21.9355C13.2618 22.3382 13.4575 22.5407 13.8625 22.5407H13.867C14.2698 22.5407 14.4632 22.3225 14.5195 21.922L16.3262 10.0105C16.378 9.64147 16.1192 9.29951 15.7502 9.24776C15.3835 9.19825 15.0392 9.45476 14.9875 9.82378L13.8738 17.4603L13.1245 12.364C13.075 11.9725 12.778 11.7295 12.454 11.7228C12.0873 11.7138 11.815 11.9432 11.7385 12.3325L10.663 17.3185L9.8035 14.6432C9.73599 14.353 9.47724 14.137 9.19373 14.1033C8.80225 14.056 8.5795 14.2585 8.41525 14.5263L7.0855 16.6187H6.29125C6.27775 16.414 6.26875 16.207 6.26875 16C6.26875 10.6247 10.6247 6.26875 16 6.26875C20.3335 6.26875 24.0055 9.10374 25.2632 13.0187H26.8472C25.54 8.25325 21.1817 4.75 16 4.75ZM27.0745 14.0312H24.5725C24.253 14.0312 24.0617 14.1347 23.938 14.335L23.0605 15.7885L21.9378 12.3032C21.8275 11.9522 21.5665 11.77 21.2155 11.7678C20.8555 11.7655 20.5585 11.986 20.4888 12.346L19.6742 16.1845L18.7878 10.0645C18.7337 9.66176 18.538 9.45923 18.133 9.45923H18.1285C17.7257 9.45923 17.5322 9.67752 17.476 10.078L15.6692 21.9895C15.6175 22.3585 15.8762 22.7005 16.2453 22.7523C16.612 22.8017 16.9562 22.5452 17.008 22.1763L18.1217 14.5397L18.871 19.636C18.9205 20.0275 19.2175 20.2705 19.5415 20.2773C19.9083 20.2863 20.1805 20.0567 20.257 19.6675L21.3325 14.6815L22.192 17.3568C22.2595 17.647 22.5182 17.863 22.8017 17.8968C23.1932 17.944 23.416 17.7415 23.5802 17.4738L24.91 15.3813H25.7087C25.7223 15.586 25.7313 15.793 25.7313 16C25.7313 21.3753 21.3753 25.7313 16 25.7313C11.6665 25.7313 7.9945 22.8962 6.73675 18.9812H5.15275C6.46 23.7468 10.8205 27.25 16 27.25C22.2123 27.25 27.25 22.2123 27.25 16C27.25 15.3273 27.187 14.6702 27.0745 14.0312Z" fill="url(#paint0_linear_3344_145028)"/>
<defs>
<linearGradient id="paint0_linear_3344_145028" x1="3.63512" y1="3.63512" x2="33.7469" y2="33.7469" gradientUnits="userSpaceOnUse">
<stop stop-color="#FC829F"/>
<stop offset="0.06" stop-color="#FD5E84"/>
<stop offset="0.12" stop-color="#FD416E"/>
<stop offset="0.18" stop-color="#FE2C5F"/>
<stop offset="0.24" stop-color="#FE2056"/>
<stop offset="0.3" stop-color="#FF1C53"/>
<stop offset="0.31" stop-color="#FB2471"/>
<stop offset="0.32" stop-color="#F531A0"/>
<stop offset="0.33" stop-color="#F03BC6"/>
<stop offset="0.34" stop-color="#EC42E1"/>
<stop offset="0.35" stop-color="#EA47F2"/>
<stop offset="0.36" stop-color="#EA49F8"/>
<stop offset="0.42" stop-color="#C44DFC"/>
<stop offset="0.45" stop-color="#B250FF"/>
<stop offset="0.5" stop-color="#5E5FF5"/>
<stop offset="1" stop-color="#323CFF"/>
</linearGradient>
</defs>
</svg>
