<?xml version="1.0" encoding="UTF-8"?>
<svg xmlns:xodm="http://www.corel.com/coreldraw/odm/2003" xmlns="http://www.w3.org/2000/svg" xmlns:xlink="http://www.w3.org/1999/xlink" version="1.1" id="Layer_1" x="0px" y="0px" viewBox="0 0 2500 2500" style="enable-background:new 0 0 2500 2500;" xml:space="preserve">
<style type="text/css">
	.st0{fill:url(#SVGID_1_);}
	.st1{fill:url(#SVGID_00000079470770421910243190000006544161996646554755_);}
</style>
<g id="Layer_x0020_1">
	<g id="_2251193011968">
		
			<linearGradient id="SVGID_1_" gradientUnits="userSpaceOnUse" x1="78.3121" y1="2577.5876" x2="2578.312" y2="77.5877" gradientTransform="matrix(1 0 0 -1 0 2499.2756)">
			<stop offset="0" style="stop-color:#FC829F"></stop>
			<stop offset="0.3412" style="stop-color:#FF1C53"></stop>
			<stop offset="0.4392" style="stop-color:#EA49F8"></stop>
			<stop offset="0.5294" style="stop-color:#B250FF"></stop>
			<stop offset="0.6392" style="stop-color:#5E5FF5"></stop>
			<stop offset="1" style="stop-color:#323CFF"></stop>
		</linearGradient>
		<path class="st0" d="M1250,0C560,0,0,560,0,1250c0,75,7,148,19,219h278c35,0,57-12,70-34l98-162l125,387c12,39,41,59,80,60    c40,0,73-24,81-64l90-426l98,680c6,45,28,67,73,67l0,0c45,0,66-24,73-69l201-1323c0-3,1-7,1-10c0-37-28-69-65-74c-3,0-7-1-10-1    c-37,0-69,28-75,65l-124,848l-83-566c-5-43-38-70-75-71c-41-1-71,25-79,68l-120,554l-95-297c-8-32-35-56-68-60c-43-5-68,17-87,47    l-148,233h-88c-1-23-3-46-3-69c0-597,484-1081,1081-1081c482,0,890,315,1029,750h176C2308,391,1823,2,1248,2L1250,0z"></path>
		
			<linearGradient id="SVGID_00000157304337044832140320000007377768437831247259_" gradientUnits="userSpaceOnUse" x1="-78.3121" y1="2420.9634" x2="2421.688" y2="-79.0365" gradientTransform="matrix(1 0 0 -1 0 2499.2756)">
			<stop offset="0" style="stop-color:#FC829F"></stop>
			<stop offset="0.3412" style="stop-color:#FF1C53"></stop>
			<stop offset="0.4392" style="stop-color:#EA49F8"></stop>
			<stop offset="0.5294" style="stop-color:#B250FF"></stop>
			<stop offset="0.6392" style="stop-color:#5E5FF5"></stop>
			<stop offset="1" style="stop-color:#323CFF"></stop>
		</linearGradient>
		<path style="fill:url(#SVGID_00000157304337044832140320000007377768437831247259_);" d="M2481,1031h-278c-35,0-57,12-70,34    l-98,162l-125-387c-12-39-41-59-80-60c-40,0-73,24-81,64l-90,426l-99-680c-6-45-28-67-73-67l0,0c-45,0-66,24-73,69l-201,1323    c-6,41,23,79,64,85c3,0,7,1,10,1c37,0,69-28,75-65l124-848l83,566c5,43,38,70,74,71c41,1,71-25,80-68l120-554l95,297    c8,32,36,56,68,60c43,5,68-17,86-47l148-233h89c2,23,3,46,3,69c0,597-484,1081-1081,1081c-482,0-890-315-1029-750H46    c145,530,630,919,1205,919c690,0,1250-560,1250-1250c0-75-7-148-19-219L2481,1031z"></path>
	</g>
</g>
</svg>
