<svg width="32" height="32" viewBox="0 0 32 32" fill="none" xmlns="http://www.w3.org/2000/svg">
<rect width="32" height="32" rx="4" fill="url(#paint0_linear_6599_2355)"/>
<path d="M16 6C10.478 6 6 10.478 6 16C6 16.598 6.056 17.182 6.156 17.75H8.376C8.66 17.75 8.83 17.658 8.94 17.48L9.72 16.188L10.718 19.286C10.816 19.598 11.048 19.76 11.36 19.762C11.68 19.764 11.944 19.568 12.006 19.248L12.73 15.836L13.518 21.276C13.566 21.634 13.74 21.814 14.1 21.814H14.104C14.462 21.814 14.634 21.62 14.684 21.264L16.29 10.676C16.336 10.348 16.106 10.044 15.778 9.99801C15.452 9.954 15.146 10.182 15.1 10.51L14.11 17.298L13.444 12.768C13.4 12.42 13.136 12.204 12.848 12.198C12.522 12.19 12.28 12.394 12.212 12.74L11.256 17.172L10.492 14.794C10.432 14.536 10.202 14.344 9.94998 14.314C9.602 14.272 9.404 14.452 9.258 14.69L8.076 16.55H7.37C7.358 16.368 7.35 16.184 7.35 16C7.35 11.222 11.222 7.35 16 7.35C19.852 7.35 23.116 9.87 24.234 13.35H25.642C24.48 9.114 20.606 6 16 6ZM25.844 14.25H23.62C23.336 14.25 23.166 14.342 23.056 14.52L22.276 15.812L21.278 12.714C21.18 12.402 20.948 12.24 20.636 12.238C20.316 12.236 20.052 12.432 19.99 12.752L19.266 16.164L18.478 10.724C18.43 10.366 18.256 10.186 17.896 10.186H17.892C17.534 10.186 17.362 10.38 17.312 10.736L15.706 21.324C15.66 21.652 15.89 21.956 16.218 22.002C16.544 22.046 16.85 21.818 16.896 21.49L17.886 14.702L18.552 19.232C18.596 19.58 18.86 19.796 19.148 19.802C19.474 19.81 19.716 19.606 19.784 19.26L20.74 14.828L21.504 17.206C21.564 17.464 21.794 17.656 22.046 17.686C22.394 17.728 22.592 17.548 22.738 17.31L23.92 15.45H24.63C24.642 15.632 24.65 15.816 24.65 16C24.65 20.778 20.778 24.65 16 24.65C12.148 24.65 8.884 22.13 7.766 18.65H6.358C7.52 22.886 11.396 26 16 26C21.522 26 26 21.522 26 16C26 15.402 25.944 14.818 25.844 14.25Z" fill="white"/>
<defs>
<linearGradient id="paint0_linear_6599_2355" x1="0" y1="0" x2="39.5379" y2="31.8324" gradientUnits="userSpaceOnUse">
<stop stop-color="#FC829F"/>
<stop offset="0.177989" stop-color="#FF1C53"/>
<stop offset="0.36676" stop-color="#EA49F8"/>
<stop offset="0.512893" stop-color="#B250FF"/>
<stop offset="0.71973" stop-color="#5E5FF5"/>
<stop offset="1" stop-color="#323CFF"/>
</linearGradient>
</defs>
</svg>
