<svg width="32" height="32" viewBox="0 0 32 32" fill="none" xmlns="http://www.w3.org/2000/svg">
<rect width="32" height="32" rx="4" fill="black"/>
<path d="M22.0167 5.60446C20.1783 4.53482 18.1727 4 16 4C13.8273 4 11.8217 4.53482 9.98329 5.60446C8.14485 6.67409 6.67409 8.14485 5.60446 9.98329C4.53482 11.8217 4 13.8273 4 16C4 18.1727 4.53482 20.1783 5.60446 22.0167C6.67409 23.8552 8.14485 25.3259 9.98329 26.3955C11.8217 27.4652 13.8273 28 16 28C18.1727 28 20.1783 27.4652 22.0167 26.3955C23.8552 25.3259 25.3259 23.8552 26.3955 22.0167C27.4652 20.1783 28 18.1727 28 16C28 13.8273 27.4652 11.8217 26.3955 9.98329C25.3259 8.14485 23.8552 6.67409 22.0167 5.60446ZM16.7354 20.3454C15.3649 20.3454 14.2953 19.9443 13.4596 19.1755C12.8914 18.6407 12.5237 18.0056 12.3565 17.2368H25.3259C25.1922 18.3398 24.8579 19.376 24.39 20.3454H16.7688H16.7354ZM12.3565 14.7967C12.5237 14.0613 12.8914 13.3928 13.4596 12.8579C14.2953 12.0891 15.3649 11.688 16.7354 11.688H24.39C24.8914 12.6574 25.1922 13.6936 25.3259 14.7967H12.3565ZM7.87744 11.2201C8.71309 9.78273 9.84958 8.61281 11.2869 7.77716C12.7242 6.9415 14.2953 6.50696 16.0334 6.50696C17.7716 6.50696 19.3426 6.9415 20.7799 7.77716C21.5153 8.2117 22.1504 8.71309 22.7521 9.31476H16.702C15.3315 9.31476 14.0947 9.6156 13.0251 10.1838C11.9554 10.7521 11.1198 11.5543 10.5515 12.5571C10.1504 13.2591 9.88301 14.0279 9.7493 14.8301H6.77437C6.90808 13.5599 7.30919 12.3565 7.94429 11.2535L7.87744 11.2201ZM20.7465 24.2228C19.3092 25.0585 17.7382 25.493 16 25.493C14.2618 25.493 12.6908 25.0585 11.2535 24.2228C9.81616 23.3872 8.67967 22.2173 7.84401 20.7799C7.20891 19.6769 6.8078 18.507 6.67409 17.2368H9.64902C9.78273 18.039 10.0501 18.8078 10.4513 19.5097C11.0529 20.5125 11.8886 21.2813 12.9248 21.883C13.9944 22.4513 15.2312 22.7521 16.6017 22.7521H22.6184C22.0501 23.3203 21.415 23.8217 20.7131 24.2228H20.7465Z" fill="white"/>
</svg>

