<svg width="32" height="32" viewBox="0 0 32 32" fill="none" xmlns="http://www.w3.org/2000/svg">
<rect width="32" height="32" rx="4" fill="#131619"/>
<path d="M18.022 16.1941L23.7196 9H20.3546C19.6594 9.00697 19.0576 9.33383 18.5483 9.98059L15.7204 13.5722L12.8925 9.98059C12.3762 9.32686 11.774 9 11.0862 9H8.86712C8.48836 9 8.29937 9.1584 8.29937 9.4748C8.29937 9.6332 8.3714 9.80167 8.51624 9.98059L13.4188 16.1941L10.3457 20.1145L8.21688 22.8309C8.07242 23.0164 8 23.1852 8 23.3366C8.04144 23.6465 8.23392 23.801 8.57821 23.801H10.7768C11.465 23.801 12.0633 23.4776 12.5726 22.8309L15.7208 18.8159L18.869 22.8309C19.3778 23.4776 19.9766 23.801 20.6648 23.801H24L18.0228 16.1941H18.022Z" fill="#ABDFEF"/>
<path d="M19.4619 16.1073L22.7849 20.3282V11.8868L19.4619 16.1073Z" fill="#ABDFEF"/>
</svg>
