<svg width="64" height="50" viewBox="0 0 64 50" fill="none" xmlns="http://www.w3.org/2000/svg">
<mask id="mask0_11375_9286" style="mask-type:alpha" maskUnits="userSpaceOnUse" x="54" y="0" width="10" height="17">
<rect width="9.24107" height="16.3335" transform="matrix(-1 0 0 1 63.5332 0.628906)" fill="black"/>
</mask>
<g mask="url(#mask0_11375_9286)">
<path d="M62.4453 0.628906H48.29C47.6887 0.628906 47.2012 1.11642 47.2012 1.7178V15.8734C47.2012 16.4748 47.6887 16.9623 48.29 16.9623H62.4453C63.0467 16.9623 63.5342 16.4748 63.5342 15.8734V1.7178C63.5342 1.11642 63.0467 0.628906 62.4453 0.628906Z" fill="black" fill-opacity="0.5"/>
</g>
<mask id="mask1_11375_9286" style="mask-type:alpha" maskUnits="userSpaceOnUse" x="54" y="33" width="10" height="17">
<rect width="9.24107" height="16.3335" transform="matrix(-1 0 0 1 63.5332 33.293)" fill="black"/>
</mask>
<g mask="url(#mask1_11375_9286)">
<path d="M62.4453 33.293H48.29C47.6887 33.293 47.2012 33.7805 47.2012 34.3819V48.5375C47.2012 49.1389 47.6887 49.6264 48.29 49.6264H62.4453C63.0467 49.6264 63.5342 49.1389 63.5342 48.5375V34.3819C63.5342 33.7805 63.0467 33.293 62.4453 33.293Z" fill="black" fill-opacity="0.5"/>
</g>
<path d="M32.1739 17.002H18.0857C17.4871 17.002 17.002 17.4837 17.002 18.0779V32.0659C17.002 32.6601 17.4871 33.1418 18.0857 33.1418H32.1739C32.7724 33.1418 33.2576 32.6601 33.2576 32.0659V18.0779C33.2576 17.4837 32.7724 17.002 32.1739 17.002Z" fill="black"/>
<path d="M15.8672 0.626953H1.71192C1.11055 0.626953 0.623047 1.11447 0.623047 1.71585V15.8715C0.623047 16.4728 1.11055 16.9603 1.71192 16.9603H15.8672C16.4686 16.9603 16.9561 16.4728 16.9561 15.8715V1.71585C16.9561 1.11447 16.4686 0.626953 15.8672 0.626953Z" fill="black"/>
<path d="M48.5274 0.626953H34.3721C33.7707 0.626953 33.2832 1.11447 33.2832 1.71585V15.8715C33.2832 16.4728 33.7707 16.9603 34.3721 16.9603H48.5274C49.1287 16.9603 49.6162 16.4728 49.6162 15.8715V1.71585C49.6162 1.11447 49.1287 0.626953 48.5274 0.626953Z" fill="black"/>
<path d="M15.8672 33.293H1.71192C1.11055 33.293 0.623047 33.7805 0.623047 34.3819V48.5375C0.623047 49.1389 1.11055 49.6264 1.71192 49.6264H15.8672C16.4686 49.6264 16.9561 49.1389 16.9561 48.5375V34.3819C16.9561 33.7805 16.4686 33.293 15.8672 33.293Z" fill="black"/>
<path d="M48.5274 33.293H34.3721C33.7707 33.293 33.2832 33.7805 33.2832 34.3819V48.5375C33.2832 49.1389 33.7707 49.6264 34.3721 49.6264H48.5274C49.1287 49.6264 49.6162 49.1389 49.6162 48.5375V34.3819C49.6162 33.7805 49.1287 33.293 48.5274 33.293Z" fill="black"/>
</svg>
