<?xml version="1.0" encoding="UTF-8"?>
<svg xmlns="http://www.w3.org/2000/svg" xmlns:xlink="http://www.w3.org/1999/xlink" width="px" height="30px" viewBox="0 0 162 30" version="1.1">
<defs>
<clipPath id="clip1">
  <path d="M 5 16 L 25 16 L 25 29.808594 L 5 29.808594 Z M 5 16 "/>
</clipPath>
<linearGradient id="linear0" gradientUnits="userSpaceOnUse" x1="60.09" y1="0" x2="60.09" y2="119.239998" gradientTransform="matrix(0.248848,0,0,0.25,0,0)">
<stop offset="0" style="stop-color:rgb(8.627451%,62.352941%,0.392157%);stop-opacity:1;"/>
<stop offset="1" style="stop-color:rgb(0.392157%,69.411765%,77.647059%);stop-opacity:1;"/>
</linearGradient>
<clipPath id="clip2">
  <path d="M 0.117188 0 L 30 0 L 30 25 L 0.117188 25 Z M 0.117188 0 "/>
</clipPath>
<linearGradient id="linear1" gradientUnits="userSpaceOnUse" x1="60.09" y1="0" x2="60.09" y2="119.239998" gradientTransform="matrix(0.248848,0,0,0.25,0,0)">
<stop offset="0" style="stop-color:rgb(8.627451%,62.352941%,0.392157%);stop-opacity:1;"/>
<stop offset="1" style="stop-color:rgb(0.392157%,69.411765%,77.647059%);stop-opacity:1;"/>
</linearGradient>
<clipPath id="clip3">
  <path d="M 116 8 L 161.757812 8 L 161.757812 23 L 116 23 Z M 116 8 "/>
</clipPath>
<linearGradient id="linear2" gradientUnits="userSpaceOnUse" x1="558.572998" y1="35.730499" x2="558.572998" y2="90.334999" gradientTransform="matrix(0.248848,0,0,0.25,0,0)">
<stop offset="0" style="stop-color:rgb(8.627451%,62.352941%,0.392157%);stop-opacity:1;"/>
<stop offset="1" style="stop-color:rgb(0.392157%,69.411765%,77.647059%);stop-opacity:1;"/>
</linearGradient>
</defs>
<g id="surface1">
<path style=" stroke:none;fill-rule:nonzero;fill:rgb(18.431373%,24.313726%,17.254902%);fill-opacity:1;" d="M 38.351562 22.261719 L 48.910156 7.839844 L 38.492188 7.839844 L 38.492188 5.011719 L 52.851562 5.011719 L 52.851562 7.554688 L 42.292969 21.984375 L 52.992188 21.984375 L 52.992188 24.8125 L 38.351562 24.8125 Z M 38.351562 22.261719 "/>
<path style=" stroke:none;fill-rule:nonzero;fill:rgb(18.431373%,24.313726%,17.254902%);fill-opacity:1;" d="M 54.398438 5.011719 L 57.496094 5.011719 L 57.496094 7.980469 L 54.398438 7.980469 Z M 54.539062 10.667969 L 57.355469 10.667969 L 57.355469 24.8125 L 54.539062 24.8125 Z M 54.539062 10.667969 "/>
<path style=" stroke:none;fill-rule:nonzero;fill:rgb(18.431373%,24.313726%,17.254902%);fill-opacity:1;" d="M 59.042969 10.667969 L 61.4375 10.667969 L 61.71875 11.941406 L 61.859375 11.941406 C 62.339844 11.402344 62.789062 10.667969 64.535156 10.667969 L 67.066406 10.667969 L 67.066406 13.210938 L 64.816406 13.210938 C 62.84375 13.210938 61.859375 14.203125 61.859375 16.152344 L 61.859375 24.808594 L 59.042969 24.808594 L 59.042969 10.664062 Z M 59.042969 10.667969 "/>
<path style=" stroke:none;fill-rule:nonzero;fill:rgb(18.431373%,24.313726%,17.254902%);fill-opacity:1;" d="M 80.441406 19.859375 C 79.988281 21.980469 78.1875 25.089844 73.964844 25.089844 C 69.742188 25.089844 66.925781 22.121094 66.925781 17.738281 C 66.925781 13.355469 69.882812 10.382812 73.964844 10.382812 C 78.046875 10.382812 79.988281 13.523438 80.441406 15.476562 L 77.625 15.476562 C 77.175781 14.203125 76.105469 12.929688 73.964844 12.929688 C 71.574219 12.929688 69.742188 14.796875 69.742188 17.738281 C 69.742188 20.679688 71.574219 22.546875 73.964844 22.546875 C 76.21875 22.546875 77.316406 20.992188 77.625 19.859375 Z M 80.441406 19.859375 "/>
<path style=" stroke:none;fill-rule:nonzero;fill:rgb(18.431373%,24.313726%,17.254902%);fill-opacity:1;" d="M 81.847656 10.667969 L 84.664062 10.667969 L 84.664062 19.152344 C 84.664062 20.992188 86.097656 22.546875 88.042969 22.546875 C 90.152344 22.546875 91.703125 20.992188 91.703125 19.152344 L 91.703125 10.667969 L 94.515625 10.667969 L 94.515625 24.8125 L 91.984375 24.8125 L 91.703125 23.398438 L 91.5625 23.398438 C 91.25 23.710938 90.914062 23.992188 90.519531 24.246094 C 89.84375 24.671875 88.800781 25.097656 87.476562 25.097656 C 84.101562 25.097656 81.847656 22.863281 81.847656 19.15625 Z M 81.847656 10.667969 "/>
<path style=" stroke:none;fill-rule:nonzero;fill:rgb(18.431373%,24.313726%,17.254902%);fill-opacity:1;" d="M 96.347656 5.011719 L 99.445312 5.011719 L 99.445312 7.980469 L 96.347656 7.980469 Z M 96.488281 10.667969 L 99.300781 10.667969 L 99.300781 24.8125 L 96.488281 24.8125 Z M 96.488281 10.667969 "/>
<path style=" stroke:none;fill-rule:nonzero;fill:rgb(18.431373%,24.313726%,17.254902%);fill-opacity:1;" d="M 102.960938 13.355469 L 100.710938 13.355469 L 100.710938 10.667969 L 102.960938 10.667969 L 102.960938 6.707031 L 105.777344 6.707031 L 105.777344 10.667969 L 109.015625 10.667969 L 109.015625 13.355469 L 105.777344 13.355469 L 105.777344 21.414062 C 105.777344 21.980469 106.058594 22.261719 106.621094 22.261719 L 109.015625 22.261719 L 109.015625 24.808594 L 106.058594 24.808594 C 104.058594 24.808594 102.960938 23.675781 102.960938 21.839844 Z M 102.960938 13.355469 "/>
<g clip-path="url(#clip1)" clip-rule="nonzero">
<path style=" stroke:none;fill-rule:nonzero;fill:url(#linear0);" d="M 24.617188 26.207031 C 22.023438 28.453125 18.640625 29.808594 14.949219 29.808594 C 11.257812 29.808594 7.894531 28.460938 5.300781 26.226562 L 14.96875 16.515625 L 24.617188 26.214844 Z M 24.617188 26.207031 "/>
</g>
<g clip-path="url(#clip2)" clip-rule="nonzero">
<path style=" stroke:none;fill-rule:nonzero;fill:url(#linear1);" d="M 14.953125 0 C 6.761719 0 0.117188 6.675781 0.117188 14.90625 C 0.117188 17.832031 0.957031 20.558594 2.40625 22.863281 C 2.804688 23.492188 3.246094 24.09375 3.734375 24.65625 L 14.972656 13.367188 L 26.191406 24.640625 C 26.675781 24.074219 27.121094 23.476562 27.515625 22.84375 C 28.953125 20.546875 29.789062 17.828125 29.789062 14.910156 C 29.789062 6.679688 23.148438 0.00390625 14.953125 0.00390625 Z M 25.945312 20.4375 L 25.8125 20.710938 L 14.96875 9.820312 L 4.101562 20.734375 L 3.964844 20.460938 C 3.105469 18.75 2.652344 16.828125 2.652344 14.898438 C 2.652344 8.089844 8.167969 2.546875 14.949219 2.546875 C 21.730469 2.546875 27.246094 8.089844 27.246094 14.898438 C 27.246094 16.8125 26.796875 18.734375 25.945312 20.433594 Z M 25.945312 20.4375 "/>
</g>
<g clip-path="url(#clip3)" clip-rule="nonzero">
<path style=" stroke:none;fill-rule:nonzero;fill:url(#linear2);" d="M 154.96875 8.933594 L 123.03125 8.933594 C 119.277344 8.933594 116.234375 11.988281 116.234375 15.757812 C 116.234375 19.527344 119.277344 22.582031 123.03125 22.582031 L 154.96875 22.582031 C 158.722656 22.582031 161.761719 19.527344 161.761719 15.757812 C 161.761719 11.988281 158.722656 8.933594 154.96875 8.933594 Z M 154.96875 8.933594 "/>
</g>
<path style=" stroke:none;fill-rule:nonzero;fill:rgb(100%,100%,100%);fill-opacity:1;" d="M 124.59375 12.828125 L 122.414062 12.828125 L 122.414062 11.832031 L 127.8125 11.832031 L 127.8125 12.828125 L 125.632812 12.828125 L 125.632812 18.792969 L 124.59375 18.792969 Z M 124.59375 12.828125 "/>
<path style=" stroke:none;fill-rule:nonzero;fill:rgb(100%,100%,100%);fill-opacity:1;" d="M 132.511719 17.355469 C 132.273438 18 131.574219 18.898438 130.285156 18.898438 C 128.847656 18.898438 127.808594 17.851562 127.808594 16.308594 C 127.808594 14.769531 128.847656 13.722656 130.285156 13.722656 C 131.621094 13.722656 132.664062 14.769531 132.664062 16.160156 C 132.664062 16.308594 132.644531 16.425781 132.636719 16.515625 L 132.617188 16.660156 L 128.800781 16.660156 C 128.910156 17.503906 129.496094 18.054688 130.289062 18.054688 C 130.886719 18.054688 131.320312 17.703125 131.476562 17.355469 L 132.519531 17.355469 Z M 131.71875 15.910156 C 131.613281 15.113281 131.078125 14.566406 130.285156 14.566406 C 129.445312 14.566406 128.945312 15.113281 128.796875 15.910156 Z M 131.71875 15.910156 "/>
<path style=" stroke:none;fill-rule:nonzero;fill:rgb(100%,100%,100%);fill-opacity:1;" d="M 134.34375 17.304688 C 134.34375 17.601562 134.691406 18.050781 135.484375 18.050781 C 136.222656 18.050781 136.523438 17.710938 136.523438 17.402344 C 136.523438 17.054688 136.335938 16.847656 135.785156 16.757812 L 134.890625 16.605469 C 133.9375 16.445312 133.457031 16.007812 133.457031 15.164062 C 133.457031 14.367188 134.097656 13.722656 135.4375 13.722656 C 136.871094 13.722656 137.46875 14.714844 137.46875 15.261719 L 136.476562 15.261719 C 136.476562 14.964844 136.183594 14.566406 135.4375 14.566406 C 134.730469 14.566406 134.445312 14.851562 134.445312 15.164062 C 134.445312 15.476562 134.742188 15.671875 135.1875 15.761719 L 136.078125 15.914062 C 137.039062 16.074219 137.515625 16.570312 137.515625 17.40625 C 137.515625 18.246094 136.871094 18.902344 135.484375 18.902344 C 133.898438 18.902344 133.351562 17.855469 133.351562 17.308594 L 134.34375 17.308594 Z M 134.34375 17.304688 "/>
<path style=" stroke:none;fill-rule:nonzero;fill:rgb(100%,100%,100%);fill-opacity:1;" d="M 138.703125 14.769531 L 137.910156 14.769531 L 137.910156 13.820312 L 138.703125 13.820312 L 138.703125 12.425781 L 139.691406 12.425781 L 139.691406 13.820312 L 140.832031 13.820312 L 140.832031 14.769531 L 139.691406 14.769531 L 139.691406 17.605469 C 139.691406 17.804688 139.789062 17.902344 139.988281 17.902344 L 140.828125 17.902344 L 140.828125 18.796875 L 139.785156 18.796875 C 139.082031 18.796875 138.695312 18.402344 138.695312 17.753906 L 138.695312 14.769531 Z M 138.703125 14.769531 "/>
<path style=" stroke:none;fill-rule:nonzero;fill:rgb(100%,100%,100%);fill-opacity:1;" d="M 141.914062 13.820312 L 142.808594 13.820312 L 142.90625 14.320312 L 142.957031 14.320312 C 143.066406 14.210938 143.1875 14.113281 143.324219 14.023438 C 143.5625 13.871094 143.917969 13.726562 144.394531 13.726562 C 145.582031 13.726562 146.375 14.515625 146.375 15.816406 L 146.375 18.796875 L 145.382812 18.796875 L 145.382812 15.816406 C 145.382812 15.167969 144.875 14.621094 144.195312 14.621094 C 143.453125 14.621094 142.910156 15.167969 142.910156 15.816406 L 142.910156 18.796875 L 141.921875 18.796875 L 141.921875 13.824219 Z M 141.914062 13.820312 "/>
<path style=" stroke:none;fill-rule:nonzero;fill:rgb(100%,100%,100%);fill-opacity:1;" d="M 152.070312 17.355469 C 151.832031 18 151.132812 18.898438 149.839844 18.898438 C 148.40625 18.898438 147.363281 17.851562 147.363281 16.308594 C 147.363281 14.769531 148.40625 13.722656 149.839844 13.722656 C 151.179688 13.722656 152.21875 14.769531 152.21875 16.160156 C 152.21875 16.308594 152.199219 16.425781 152.191406 16.515625 L 152.171875 16.660156 L 148.359375 16.660156 C 148.464844 17.503906 149.050781 18.054688 149.84375 18.054688 C 150.441406 18.054688 150.878906 17.703125 151.03125 17.355469 L 152.074219 17.355469 Z M 151.277344 15.910156 C 151.167969 15.113281 150.632812 14.566406 149.839844 14.566406 C 149 14.566406 148.503906 15.113281 148.351562 15.910156 Z M 151.277344 15.910156 "/>
<path style=" stroke:none;fill-rule:nonzero;fill:rgb(100%,100%,100%);fill-opacity:1;" d="M 153.453125 14.769531 L 152.660156 14.769531 L 152.660156 13.820312 L 153.453125 13.820312 L 153.453125 12.425781 L 154.445312 12.425781 L 154.445312 13.820312 L 155.582031 13.820312 L 155.582031 14.769531 L 154.445312 14.769531 L 154.445312 17.605469 C 154.445312 17.804688 154.542969 17.902344 154.738281 17.902344 L 155.578125 17.902344 L 155.578125 18.796875 L 154.539062 18.796875 C 153.832031 18.796875 153.449219 18.402344 153.449219 17.753906 L 153.449219 14.769531 Z M 153.453125 14.769531 "/>
</g>
</svg>
