<svg width="32" height="32" viewBox="0 0 32 32" fill="none" xmlns="http://www.w3.org/2000/svg">
<g clip-path="url(#clip0_5314_228830)">
<rect width="32" height="32" rx="4" fill="#FFE4C6"/>
<path d="M32 0H0V32H32V0Z" fill="#F4F1E6"/>
<g clip-path="url(#clip1_5314_228830)">
<path fill-rule="evenodd" clip-rule="evenodd" d="M4 16.0006C4 9.37271 9.35693 4 15.9642 4C22.5726 4 27.9296 9.37271 27.929 16C27.929 18.3475 27.2567 20.5373 26.0952 22.3865C25.775 22.896 25.4183 23.3795 25.0274 23.8341L15.98 14.7602L8.20018 22.5624L6.9157 23.8507C6.52364 23.3972 6.16573 22.9143 5.84549 22.4054C4.67639 20.5527 4 18.3557 4 16.0006ZM24.7236 20.6766L24.8331 20.457L24.8337 20.4576C25.5201 19.0843 25.8827 17.5427 25.8827 16.0006C25.8827 10.5157 21.4335 6.05344 15.9647 6.05344C10.496 6.05344 6.0474 10.5157 6.0474 16.0006C6.0474 17.551 6.41356 19.0991 7.10642 20.4776L7.21651 20.6961L15.98 11.9067L24.7236 20.6766ZM15.9647 28C18.9434 28 21.6684 26.9084 23.7628 25.1017L15.9806 17.2959L8.18359 25.1153C10.2751 26.9142 12.986 28 15.9647 28Z" fill="url(#paint0_linear_5314_228830)"/>
</g>
</g>
<defs>
<linearGradient id="paint0_linear_5314_228830" x1="15.9644" y1="4" x2="16" y2="28" gradientUnits="userSpaceOnUse">
<stop stop-color="#169E00"/>
<stop offset="0.49" stop-color="#00C537"/>
<stop offset="1" stop-color="#00B1C9"/>
</linearGradient>
<clipPath id="clip0_5314_228830">
<rect width="32" height="32" rx="4" fill="white"/>
</clipPath>
<clipPath id="clip1_5314_228830">
<rect width="24" height="24" fill="white" transform="translate(4 4)"/>
</clipPath>
</defs>
</svg>
