<?xml version="1.0" encoding="UTF-8"?>
<svg width="107px" height="30px" viewBox="0 0 107 30" version="1.1" xmlns="http://www.w3.org/2000/svg"
  xmlns:xlink="http://www.w3.org/1999/xlink">
  <title>zircuit-dark-logo</title>
  <defs>
    <linearGradient x1="49.9999003%" y1="-6.3248e-09%" x2="50.1474615%" y2="100%" id="linearGradient-1">
      <stop stop-color="#169E00" offset="0%"></stop>
      <stop stop-color="#00C537" offset="49%"></stop>
      <stop stop-color="#00B1C9" offset="100%"></stop>
    </linearGradient>
  </defs>
  <g id="Page-1" stroke="none" stroke-width="1" fill="none" fill-rule="evenodd">
    <g id="zircuit-dark-logo">
      <polygon id="Path" fill="#2F3E2C" fill-rule="nonzero"
        points="37.5676121 21.1698925 47.9413097 7.30470058 37.7060568 7.30470058 37.7060568 4.58551379 51.813958 4.58551379 51.813958 7.03263571 41.4402604 20.8985586 51.9524026 20.8985586 51.9524026 23.6170144 37.5676121 23.6170144">
      </polygon>
      <path
        d="M53.3350945,4.58551379 L56.3780984,4.58551379 L56.3780984,7.44003129 L53.3350945,7.44003129 L53.3350945,4.58551379 Z M53.4735391,10.0231856 L56.2396538,10.0231856 L56.2396538,23.6170144 L53.4735391,23.6170144 L53.4735391,10.0231856 Z"
        id="Shape" fill="#2F3E2C" fill-rule="nonzero"></path>
      <path
        d="M57.8999658,10.0236388 L60.2514776,10.0236388 L60.5283669,11.2471998 L60.6666653,11.2471998 C61.1371139,10.7305689 61.5796396,10.0236388 63.2950663,10.0236388 L65.7850227,10.0236388 L65.7850227,12.4707607 L63.5719556,12.4707607 C61.6356314,12.4707607 60.6673963,13.4222568 60.6673963,15.2984957 L60.6673963,23.6181839 L57.9014278,23.6181839 L57.9014278,10.0243406 L57.8999658,10.0236388 Z"
        id="Path" fill="#2F3E2C" fill-rule="nonzero"></path>
      <path
        d="M78.9230807,18.8585837 C78.4807012,20.8976814 76.7100135,23.8882021 72.560476,23.8882021 C68.4110847,23.8882021 65.64497,21.0336407 65.64497,16.819486 C65.64497,12.6054628 68.5493831,9.75094533 72.560476,9.75094533 C76.5715689,9.75094533 78.4807012,12.7689795 78.9230807,14.644429 L76.1571122,14.644429 C75.7145865,13.4209265 74.6631676,12.1973655 72.561207,12.1973655 C70.2096952,12.1973655 68.4118157,13.9918241 68.4118157,16.8189012 C68.4118157,19.6458321 70.2096952,21.4410802 72.561207,21.4410802 C74.7744204,21.4410802 75.8530311,19.9453813 76.1571122,18.8585837 L78.9230807,18.8585837 Z"
        id="Path" fill="#2F3E2C" fill-rule="nonzero"></path>
      <path
        d="M80.306065,10.0236388 L83.0720334,10.0236388 L83.0720334,18.1798104 C83.0720334,19.946697 84.4827943,21.4423959 86.3917804,21.4423959 C88.4665492,21.4423959 89.9884166,19.946697 89.9884166,18.1798104 L89.9884166,10.0236388 L92.7543851,10.0236388 L92.7543851,23.617453 L90.2644287,23.617453 L89.9876856,22.2578596 L89.849241,22.2578596 C89.5451599,22.5566777 89.213156,22.8287426 88.8258912,23.0733232 C88.1617371,23.4813474 87.1383872,23.8887869 85.8381481,23.8887869 C82.5184012,23.8887869 80.305334,21.7412141 80.305334,18.1798104 L80.305334,10.0236388 L80.306065,10.0236388 Z"
        id="Path" fill="#2F3E2C" fill-rule="nonzero"></path>
      <path
        d="M94.5516799,4.58551379 L97.5946838,4.58551379 L97.5946838,7.44003129 L94.5516799,7.44003129 L94.5516799,4.58551379 Z M94.6901245,10.0231856 L97.4562392,10.0231856 L97.4562392,23.6170144 L94.6901245,23.6170144 L94.6901245,10.0231856 Z"
        id="Shape" fill="#2F3E2C" fill-rule="nonzero"></path>
      <path
        d="M101.052729,12.606223 L98.8395158,12.606223 L98.8395158,10.0237704 L101.052729,10.0237704 L101.052729,6.21775683 L103.818698,6.21775683 L103.818698,10.0237704 L107,10.0237704 L107,12.606223 L103.818698,12.606223 L103.818698,20.3542826 C103.818698,20.8976814 104.095587,21.1697463 104.648488,21.1697463 L107,21.1697463 L107,23.6168682 L104.095587,23.6168682 C102.13134,23.6168682 101.052729,22.5293397 101.052729,20.7623068 L101.052729,12.606223 Z"
        id="Path" fill="#2F3E2C" fill-rule="nonzero"></path>
      <path
        d="M0,14.6198686 C0,6.54537498 6.52615062,0 14.5755429,0 C22.6264117,0 29.15246,6.54537498 29.1518752,14.6192107 C29.1518752,17.4791081 28.3327568,20.146835 26.9179025,22.3995204 C26.5277138,23.0202552 26.0930825,23.6094124 25.6169324,24.1631908 L14.5949134,13.1087317 L5.11692476,22.6139853 L3.55209124,24.1833654 C3.07446462,23.6309027 2.63842986,23.0426227 2.24829965,22.4226189 C0.824015931,20.1655477 0,17.4890492 0,14.6198686 Z M25.2469183,20.3165649 L25.3802462,20.049032 L25.3809772,20.0497629 C26.2172002,18.3767321 26.658995,16.4987389 26.658995,14.6198686 C26.658995,7.937891 21.2386031,2.5016226 14.5762592,2.5016226 C7.91385689,2.5016226 2.49428372,7.937891 2.49428372,14.6198686 C2.49428372,16.50868 2.94034731,18.3947138 3.78445014,20.0741772 L3.91855283,20.3402481 L14.5949134,9.6324999 L25.2469183,20.3165649 Z M14.5761277,29.2385676 C18.2049555,29.2385676 21.5247025,27.9086513 24.0763523,25.7077182 L24.0763523,25.7069872 L14.5954836,16.1981664 L5.09670629,25.724238 C7.64477436,27.915961 10.9472998,29.2385676 14.5761277,29.2385676 Z"
        id="Shape" fill="url(#linearGradient-1)"></path>
    </g>
  </g>
</svg>
